<svg width="510" height="508" viewBox="0 0 510 508" fill="none" xmlns="http://www.w3.org/2000/svg">
<path d="M110.169 3.40588C91.649 7.23253 72.7557 7.63237 54.2091 5.91238C44.3559 5.00572 34.9559 6.29912 25.4093 6.65912C14.3427 7.05912 7.39606 17.8858 7.28939 33.6857C7.10272 61.9522 7.18271 90.2187 7.24937 118.472C7.4627 218.418 2.74273 318.298 3.75606 418.27C3.92939 435.404 4.86272 452.564 4.42272 469.75C3.99606 486.097 15.1293 496.017 31.4493 497.07C99.0223 501.417 166.689 500.323 234.302 499.75C261.261 499.523 287.768 505.417 314.528 504.323C363.994 502.31 413.434 503.27 462.887 503.017C489.674 502.883 495.767 498.803 501.914 472.697C504.9 460.03 506.287 446.817 505.46 433.39C503.407 400.111 499.74 366.924 500.607 333.471C501.234 309.258 499.207 284.898 501.114 260.831C503.434 231.525 503.687 202.285 503.74 172.978C503.78 146.698 500.834 120.365 501.487 94.2586C501.994 74.2054 506.314 54.1123 507.247 33.699C508.234 12.0858 494.554 3.04577 476.5 3.12577C354.888 3.63243 233.275 3.39253 111.662 3.39253" stroke="black" stroke-width="5.33331" stroke-linecap="round" stroke-linejoin="round"/>
</svg>
