<svg width="509" height="505" viewBox="0 0 509 505" fill="none" xmlns="http://www.w3.org/2000/svg">
<path d="M2.74349 431.91C7.8368 445.75 0.516638 459.924 5.20995 474.484C11.1299 492.857 15.4765 499.657 34.5164 498.297C79.4096 495.097 124.396 494.137 169.249 496.003C199.036 497.243 228.796 498.897 258.582 498.31C274.222 498.003 289.755 493.777 305.502 495.564C354.315 501.07 403.302 501.883 452.355 501.617C464.581 501.55 476.381 498.337 488.661 497.897C498.954 497.524 503.341 487.31 503.661 477.31C503.928 469.257 502.434 461.164 502.354 453.084C501.461 349.097 506.261 245.178 506.181 141.165C506.154 106.845 504.941 72.4989 504.581 38.2057C504.314 12.7125 501.608 6.76588 475.035 7.72588C453.315 8.51254 431.595 8.79252 409.941 10.8725C399.235 11.8992 389.008 7.64587 378.155 7.71253C312.555 8.1392 246.889 9.73909 181.396 7.11244C151.156 5.89911 120.769 5.12578 90.5028 4.11245C69.5029 3.40579 48.1431 1.4192 26.9166 4.68585C14.7166 6.56584 11.4767 15.4991 9.02341 24.6457C6.39675 34.3923 5.78345 44.6457 5.71678 54.859C5.33012 114.472 9.38322 174.018 9.50322 233.525C9.60989 288.978 12.1035 344.764 5.1035 400.004C3.81018 410.191 7.18344 420.617 2.7168 430.364" stroke="black" stroke-width="5.33331" stroke-linecap="round" stroke-linejoin="round"/>
</svg>
