<svg width="509" height="505" viewBox="0 0 509 505" fill="none" xmlns="http://www.w3.org/2000/svg">
<path d="M503.988 273.964C502.468 322.924 500.908 371.884 499.468 420.83C498.921 439.577 504.268 457.977 502.588 476.87C501.508 488.99 494.308 496.683 482.801 498.177C452.082 502.15 421.228 501.79 390.455 500.87C355.109 499.817 319.762 495.057 284.496 495.737C260.843 496.19 236.936 499.643 213.363 497.67C170.95 494.123 128.563 495.697 86.1634 494.963C69.4035 494.67 53.0969 499.15 36.1903 498.323C13.9771 497.243 3.56373 489.537 3.09707 467.777C2.11041 421.257 3.96376 374.817 8.63041 328.444C10.5504 309.458 9.91044 290.058 8.67045 270.951C7.49712 252.751 8.88385 234.631 7.91052 216.405C5.07054 162.992 2.8171 109.432 4.96376 55.9522C5.51042 42.4989 2.71043 28.0057 11.4571 14.7125C15.8704 8.00582 20.777 4.81912 27.1103 4.67246C74.5767 3.5658 122.07 1.77905 169.416 7.41903C173.403 7.89903 177.483 7.48576 181.523 7.48576C245.603 7.48576 309.749 5.95238 373.762 8.09904C408.695 9.27237 443.415 6.92574 478.242 7.45907C496.588 7.73907 501.615 13.2725 502.601 31.7124C504.401 65.5122 506.281 99.312 505.401 133.165C504.495 167.992 504.735 202.845 502.641 237.658C501.975 248.698 503.468 259.858 503.975 270.964" stroke="black" stroke-width="5.33331" stroke-linecap="round" stroke-linejoin="round"/>
</svg>
