<svg width="510" height="508" viewBox="0 0 510 508" fill="none" xmlns="http://www.w3.org/2000/svg">
<path d="M109.889 3.91532C91.3692 7.74197 72.4759 8.14197 53.9294 6.42198C44.0761 5.51532 34.6761 6.80864 25.1295 7.16864C14.0629 7.56864 7.11625 18.3953 7.00958 34.1952C6.82292 62.4617 6.90292 90.7282 6.96959 118.981C7.18292 218.928 2.46295 318.807 3.47628 418.78C3.64961 435.913 4.58294 453.073 4.14294 470.26C3.71628 486.606 14.8495 496.526 31.1695 497.58C98.7425 501.926 166.409 500.833 234.022 500.26C260.982 500.033 287.488 505.926 314.248 504.833C363.715 502.82 413.154 503.78 462.607 503.526C489.394 503.393 495.487 499.313 501.634 473.206C504.62 460.54 506.007 447.327 505.181 433.9C503.127 400.62 499.461 367.434 500.327 333.98C500.954 309.767 498.927 285.407 500.834 261.341C503.154 232.034 503.407 202.794 503.461 173.488C503.501 147.208 500.554 120.875 501.207 94.7682C501.714 74.715 506.034 54.6217 506.967 34.2085C507.954 12.5952 494.274 3.55529 476.221 3.63529C354.608 4.14196 232.995 3.90197 111.382 3.90197" stroke="black" stroke-width="5.33331" stroke-linecap="round" stroke-linejoin="round"/>
</svg>
