<svg width="507" height="501" viewBox="0 0 507 501" fill="none" xmlns="http://www.w3.org/2000/svg">
<path d="M101.113 2.94195C83.9527 7.42193 66.806 1.92861 49.6328 2.84861C40.9528 3.30194 32.4196 3.64859 23.873 5.83525C9.4064 9.5419 3.29976 17.2352 4.20642 31.7151C7.93974 91.7681 8.84637 151.781 4.59306 211.928C2.49973 241.554 4.23303 271.461 4.23303 301.234C4.23303 342.62 4.15309 384.007 4.28642 425.393C4.32642 437.007 1.89971 448.393 3.9797 460.26C8.72634 487.286 15.8063 496.18 43.5929 496.206C112.219 496.286 180.846 496.54 249.485 495.793C289.738 495.353 330.245 496.646 370.591 497.313C405.818 497.9 441.258 497.939 476.537 496.246C493.404 495.433 500.724 485.34 500.737 467.793C500.817 408.233 500.804 348.687 500.751 289.127C500.724 257.301 502.524 225.528 503.511 193.728C504.137 173.581 500.351 153.448 500.684 133.168C501.071 109.448 499.977 85.6749 502.324 62.0083C503.497 50.155 501.364 38.6618 499.177 27.1952C495.804 9.56859 491.217 5.98189 473.511 5.98189C426.578 5.98189 379.645 5.66193 332.725 6.10193C303.458 6.38193 274.352 10.2219 244.899 7.7952C211.192 5.00854 177.312 4.06192 143.486 3.16859C129.899 2.80859 116.246 6.46188 102.619 2.96856" stroke="black" stroke-width="5.33331" stroke-linecap="round" stroke-linejoin="round"/>
</svg>
