<svg width="510" height="505" viewBox="0 0 510 505" fill="none" xmlns="http://www.w3.org/2000/svg">
<path d="M6.3335 40.2455C6.32016 103.872 9.28022 167.472 9.90688 231.031C10.4002 280.871 11.5067 330.964 6.92008 380.977C4.08009 411.977 -0.0531924 443.484 6.28011 474.803C10.1334 493.87 16.0402 500.163 35.0801 498.79C78.9732 495.603 122.893 495.55 166.799 496.19C197.586 496.643 228.292 500.737 259.146 498.923C274.786 498.003 290.319 494.283 306.079 496.057C354.892 501.563 403.878 502.377 452.931 502.11C465.158 502.043 476.958 498.83 489.238 498.39C499.531 498.017 503.958 487.803 504.238 477.803C504.491 468.737 503.011 459.644 502.944 450.55C502.171 347.578 506.731 244.658 506.824 141.672C506.851 107.352 505.424 73.0188 505.171 38.7123C504.984 13.2191 502.211 7.27248 475.638 8.23247C453.918 9.01914 432.198 9.29912 410.545 11.3791C399.838 12.4058 389.612 8.13913 378.758 8.21913C317.199 8.65913 255.626 8.92579 194.079 8.21913C161.773 7.8458 129.48 4.05909 97.1998 4.32576C74.0132 4.51242 50.76 2.00582 27.5334 5.21914C15.2935 6.91247 12.1469 16.019 9.74689 25.1657C8.5869 29.5923 7.48018 34.179 6.36019 38.699" stroke="black" stroke-width="5.33331" stroke-linecap="round" stroke-linejoin="round"/>
</svg>
