<svg width="510" height="505" viewBox="0 0 510 505" fill="none" xmlns="http://www.w3.org/2000/svg">
<path d="M6.10677 40.3312C6.09344 103.958 9.05349 167.557 9.68016 231.117C10.1735 280.957 11.2802 331.05 6.69352 381.063C3.85353 412.063 -0.279755 443.569 6.05355 474.889C9.90686 493.956 15.8135 500.249 34.8534 498.876C78.7465 495.689 122.666 495.636 166.573 496.276C197.359 496.729 228.066 500.822 258.919 499.009C274.559 498.089 290.092 494.369 305.852 496.142C354.665 501.649 403.652 502.462 452.705 502.196C464.931 502.129 476.731 498.916 489.011 498.476C499.304 498.102 503.731 487.889 504.011 477.889C504.264 468.823 502.784 459.729 502.718 450.636C501.944 347.663 506.504 244.744 506.598 141.757C506.624 107.438 505.198 73.1044 504.944 38.7979C504.758 13.3047 501.985 7.35806 475.411 8.31805C453.691 9.10472 431.971 9.38473 410.318 11.4647C399.612 12.4914 389.385 8.22475 378.532 8.30475C316.972 8.74474 255.399 9.01141 193.853 8.30475C161.546 7.93142 129.253 4.14475 96.973 4.41141C73.7865 4.59808 50.5333 2.09144 27.3067 5.30476C15.0668 6.99809 11.9202 16.1047 9.52017 25.2513C8.36017 29.678 7.25346 34.2646 6.13346 38.7846" stroke="black" stroke-width="5.33331" stroke-linecap="round" stroke-linejoin="round"/>
</svg>
