<svg width="510" height="505" viewBox="0 0 510 505" fill="none" xmlns="http://www.w3.org/2000/svg">
<path d="M3.59701 432.42C8.69031 446.26 1.37048 460.433 6.06379 474.993C11.9838 493.366 16.3304 500.166 35.3703 498.806C80.2634 495.606 125.25 494.646 170.103 496.513C199.89 497.753 229.649 499.406 259.436 498.82C275.076 498.513 290.609 494.286 306.356 496.073C355.169 501.58 404.155 502.393 453.208 502.126C465.435 502.059 477.235 498.846 489.515 498.406C499.808 498.033 504.195 487.82 504.515 477.82C504.781 469.766 503.288 461.673 503.208 453.593C502.315 349.607 507.115 245.687 507.035 141.675C507.008 107.355 505.795 73.0082 505.435 38.715C505.168 13.2218 502.461 7.2752 475.888 8.2352C454.168 9.02186 432.448 9.30184 410.795 11.3818C400.089 12.4085 389.862 8.15518 379.009 8.22185C313.409 8.64851 247.742 10.2485 182.249 7.62184C152.01 6.40851 121.623 5.63518 91.3567 4.62185C70.3568 3.91519 48.997 1.9286 27.7704 5.19525C15.5705 7.07524 12.3302 16.0085 9.87692 25.1551C7.25027 34.9017 6.63696 45.1551 6.5703 55.3684C6.18363 114.981 10.2371 174.528 10.3571 234.034C10.4637 289.487 12.957 345.274 5.95702 400.513C4.66369 410.7 8.03696 421.127 3.57031 430.873" stroke="black" stroke-width="5.33331" stroke-linecap="round" stroke-linejoin="round"/>
</svg>
