<svg width="510" height="505" viewBox="0 0 510 505" fill="none" xmlns="http://www.w3.org/2000/svg">
<path d="M504.748 274.063C503.228 323.023 501.668 371.983 500.228 420.929C499.681 439.676 505.028 458.076 503.348 476.969C502.268 489.089 495.068 496.782 483.561 498.276C452.841 502.249 421.988 501.889 391.215 500.969C355.869 499.916 320.522 495.156 285.255 495.836C261.602 496.289 237.696 499.742 214.122 497.769C171.709 494.222 129.323 495.796 86.923 495.062C70.1631 494.769 53.8565 499.249 36.9499 498.422C14.7367 497.342 4.3235 489.636 3.85683 467.876C2.87017 421.356 4.72353 374.916 9.39017 328.543C11.3102 309.557 10.67 290.157 9.43005 271.05C8.25672 252.85 9.64345 234.73 8.67013 216.504C5.83014 163.091 3.57687 109.531 5.72352 56.0512C6.27019 42.5979 3.4702 28.1046 12.2168 14.8114C16.6301 8.10472 21.5368 4.91807 27.8701 4.7714C75.3365 3.66474 122.83 1.87812 170.176 7.51809C174.163 7.99809 178.243 7.58474 182.283 7.58474C246.362 7.58474 310.509 6.05141 374.522 8.19806C409.455 9.37139 444.175 7.02476 479.001 7.55809C497.348 7.83809 502.374 13.3714 503.361 31.8113C505.161 65.6111 507.041 99.411 506.161 133.264C505.254 168.091 505.494 202.944 503.401 237.757C502.735 248.797 504.228 259.957 504.734 271.063" stroke="black" stroke-width="5.33331" stroke-linecap="round" stroke-linejoin="round"/>
</svg>
