<svg width="510" height="508" viewBox="0 0 510 508" fill="none" xmlns="http://www.w3.org/2000/svg">
<path d="M109.449 3.49145C90.9292 7.3181 72.036 7.7181 53.4894 5.99811C43.6361 5.09145 34.2362 6.38477 24.6896 6.74477C13.6229 7.14477 6.67631 17.9714 6.56964 33.7713C6.38298 62.0378 6.46298 90.3044 6.52965 118.558C6.74298 218.504 2.02301 318.383 3.03633 418.356C3.20967 435.489 4.143 452.649 3.703 469.836C3.27633 486.182 14.4096 496.102 30.7295 497.156C98.3025 501.502 165.969 500.409 233.582 499.836C260.542 499.609 287.048 505.502 313.808 504.409C363.275 502.396 412.714 503.356 462.167 503.102C488.954 502.969 495.047 498.889 501.194 472.783C504.181 460.116 505.567 446.903 504.741 433.476C502.687 400.196 499.021 367.01 499.887 333.557C500.514 309.343 498.487 284.983 500.394 260.917C502.714 231.61 502.967 202.37 503.021 173.064C503.061 146.784 500.114 120.451 500.767 94.3444C501.274 74.2911 505.594 54.1979 506.527 33.7846C507.514 12.1714 493.834 3.13146 475.781 3.21146C354.168 3.71813 232.555 3.4781 110.942 3.4781" stroke="black" stroke-width="5.33331" stroke-linecap="round" stroke-linejoin="round"/>
</svg>
