<svg width="506" height="501" viewBox="0 0 506 501" fill="none" xmlns="http://www.w3.org/2000/svg">
<path d="M100.659 3.51812C83.4995 7.9981 66.3529 2.50478 49.1797 3.42478C40.4997 3.87811 31.9664 4.22476 23.4198 6.41142C8.95321 10.1181 2.84657 17.8114 3.75323 32.2913C7.48655 92.3443 8.39318 152.357 4.13987 212.504C2.04655 242.13 3.77993 272.037 3.77993 301.81C3.77993 343.196 3.6999 384.583 3.83323 425.969C3.87323 437.583 1.4466 448.969 3.52659 460.836C8.27323 487.862 15.3531 496.756 43.1397 496.782C111.766 496.862 180.392 497.116 249.032 496.369C289.285 495.929 329.792 497.222 370.138 497.889C405.365 498.476 440.805 498.516 476.084 496.822C492.951 496.009 500.271 485.916 500.284 468.369C500.364 408.81 500.351 349.263 500.297 289.703C500.271 257.877 502.071 226.104 503.058 194.304C503.684 174.157 499.898 154.024 500.231 133.744C500.618 110.024 499.524 86.251 501.871 62.5845C503.044 50.7312 500.911 39.2379 498.724 27.7713C495.351 10.1447 490.764 6.55811 473.058 6.55811C426.125 6.55811 379.191 6.2381 332.272 6.6781C303.005 6.9581 273.899 10.7981 244.445 8.37141C210.739 5.58476 176.859 4.63809 143.033 3.74476C129.446 3.38477 115.793 7.03809 102.166 3.54477" stroke="black" stroke-width="5.33331" stroke-linecap="round" stroke-linejoin="round"/>
</svg>
