<svg width="510" height="505" viewBox="0 0 510 505" fill="none" xmlns="http://www.w3.org/2000/svg">
<path d="M6.54736 39.7685C6.53403 103.395 9.49392 166.994 10.1206 230.554C10.6139 280.394 11.7206 330.487 7.13395 380.5C4.29396 411.5 0.160675 443.007 6.49398 474.326C10.3473 493.393 16.2539 499.686 35.2938 498.313C79.1869 495.126 123.107 495.073 167.013 495.713C197.8 496.166 228.506 500.26 259.359 498.446C274.999 497.526 290.533 493.806 306.293 495.58C355.106 501.086 404.092 501.9 453.145 501.633C465.372 501.566 477.172 498.353 489.452 497.913C499.745 497.539 504.172 487.326 504.452 477.326C504.705 468.26 503.225 459.167 503.158 450.073C502.385 347.1 506.945 244.181 507.038 141.195C507.065 106.875 505.638 72.5416 505.385 38.2351C505.198 12.7419 502.425 6.79528 475.852 7.75527C454.132 8.54194 432.412 8.82192 410.759 10.9019C400.052 11.9286 389.825 7.66193 378.972 7.74193C317.412 8.18193 255.839 8.44859 194.293 7.74193C161.987 7.3686 129.693 3.58197 97.4136 3.84864C74.2271 4.0353 50.9738 1.52862 27.7473 4.74194C15.5074 6.43527 12.3606 15.5419 9.9606 24.6885C8.8006 29.1152 7.69405 33.7018 6.57406 38.2218" stroke="black" stroke-width="5.33331" stroke-linecap="round" stroke-linejoin="round"/>
</svg>
