<svg width="509" height="504" viewBox="0 0 509 504" fill="none" xmlns="http://www.w3.org/2000/svg">
<path d="M504.201 273.487C502.681 322.447 501.121 371.407 499.681 420.353C499.134 439.1 504.481 457.5 502.801 476.393C501.721 488.513 494.521 496.206 483.014 497.7C452.295 501.673 421.441 501.313 390.668 500.393C355.322 499.34 319.975 494.579 284.709 495.259C261.055 495.713 237.149 499.166 213.576 497.193C171.163 493.646 128.776 495.22 86.3763 494.486C69.6164 494.193 53.3098 498.673 36.4032 497.846C14.19 496.766 3.77662 489.06 3.30996 467.3C2.3233 420.78 4.17665 374.34 8.8433 327.967C10.7633 308.98 10.1233 289.58 8.88334 270.474C7.71001 252.274 9.09658 234.154 8.12325 215.928C5.28326 162.514 3.02999 108.955 5.17665 55.475C5.72331 42.0217 2.92332 27.5284 11.6699 14.2352C16.0833 7.52852 20.9899 4.34192 27.3232 4.19525C74.7896 3.08859 122.283 1.30193 169.629 6.9419C173.616 7.4219 177.696 7.00855 181.736 7.00855C245.816 7.00855 309.962 5.47517 373.975 7.62183C408.908 8.79516 443.628 6.44853 478.454 6.98186C496.801 7.26186 501.828 12.7952 502.814 31.2351C504.614 65.0349 506.494 98.8348 505.614 132.688C504.708 167.514 504.948 202.368 502.854 237.181C502.188 248.221 503.681 259.381 504.188 270.487" stroke="black" stroke-width="5.33331" stroke-linecap="round" stroke-linejoin="round"/>
</svg>
