<svg width="510" height="505" viewBox="0 0 510 505" fill="none" xmlns="http://www.w3.org/2000/svg">
<path d="M3.14388 431.996C8.23719 445.836 0.917029 460.009 5.61034 474.569C11.5303 492.942 15.8769 499.742 34.9168 498.382C79.81 495.182 124.796 494.222 169.65 496.089C199.436 497.329 229.196 498.982 258.982 498.396C274.622 498.089 290.156 493.862 305.902 495.649C354.715 501.156 403.702 501.969 452.755 501.702C464.982 501.636 476.782 498.422 489.061 497.982C499.355 497.609 503.741 487.396 504.061 477.396C504.328 469.343 502.835 461.249 502.755 453.169C501.861 349.183 506.661 245.264 506.581 141.251C506.555 106.931 505.341 72.5844 504.981 38.2913C504.715 12.798 502.008 6.85138 475.435 7.81138C453.715 8.59804 431.995 8.87806 410.342 10.958C399.635 11.9847 389.408 7.73141 378.555 7.79807C312.955 8.22474 247.289 9.82471 181.796 7.19806C151.556 5.98473 121.17 5.2114 90.9032 4.19807C69.9033 3.49141 48.5435 1.50474 27.3169 4.77139C15.117 6.65138 11.8771 15.5847 9.4238 24.7313C6.79714 34.4779 6.18384 44.7312 6.11717 54.9445C5.73051 114.558 9.78361 174.104 9.90361 233.61C10.0103 289.063 12.5035 344.85 5.50357 400.09C4.21024 410.276 7.58383 420.703 3.11719 430.449" stroke="black" stroke-width="5.33331" stroke-linecap="round" stroke-linejoin="round"/>
</svg>
