<svg width="507" height="501" viewBox="0 0 507 501" fill="none" xmlns="http://www.w3.org/2000/svg">
<path d="M100.899 3.43235C83.7393 7.91233 66.5927 2.41909 49.4194 3.33909C40.7395 3.79242 32.2062 4.13907 23.6596 6.32573C9.19295 10.0324 3.08632 17.7257 3.99298 32.2056C7.7263 92.2587 8.63301 152.272 4.3797 212.418C2.28637 242.045 4.01967 271.951 4.01967 301.724C4.01967 343.111 3.93964 384.497 4.07298 425.884C4.11298 437.497 1.68635 448.884 3.76634 460.75C8.51298 487.777 15.593 496.67 43.3795 496.697C112.006 496.777 180.632 497.03 249.272 496.283C289.525 495.843 330.031 497.137 370.378 497.803C405.604 498.39 441.044 498.43 476.324 496.737C493.191 495.923 500.511 485.83 500.524 468.283C500.604 408.724 500.591 349.177 500.537 289.618C500.511 257.791 502.311 226.018 503.297 194.218C503.924 174.072 500.137 153.938 500.471 133.658C500.857 109.939 499.764 86.1653 502.111 62.4988C503.284 50.6455 501.151 39.1523 498.964 27.6857C495.591 10.0591 491.004 6.47237 473.297 6.47237C426.364 6.47237 379.431 6.15233 332.511 6.59233C303.245 6.87233 274.138 10.7123 244.685 8.28568C210.979 5.49902 177.099 4.5524 143.272 3.65907C129.686 3.29907 116.032 6.95236 102.406 3.45904" stroke="black" stroke-width="5.33331" stroke-linecap="round" stroke-linejoin="round"/>
</svg>
