<svg width="883" height="656" viewBox="0 0 883 656" fill="none" xmlns="http://www.w3.org/2000/svg">
<path d="M880.446 249.129C879.42 215.022 876.993 181.036 868.353 148.916C856.06 103.196 835.487 66.2362 805.78 40.2229C788.927 25.463 770.207 18.863 750.514 15.4896C721.234 10.4763 691.874 9.75633 662.487 9.303C633.367 8.84967 604.261 9.20967 575.141 11.663C562.967 12.6897 550.727 13.6496 538.487 13.9563C508.714 14.6896 478.928 16.303 449.154 16.5563C415.154 16.8496 381.141 16.743 347.155 15.5296C322.181 14.6363 297.288 10.8363 272.488 6.30301C262.075 4.39635 251.622 2.98302 241.142 2.72968C225.142 2.34302 209.142 2.32968 193.142 2.70302C169.902 3.24968 146.795 5.75634 123.782 10.8497C105.182 14.9563 87.8754 23.0363 72.5021 38.3163C55.9688 54.7429 41.0622 73.2228 32.3822 100.049C24.0756 125.716 17.6222 152.089 13.7822 179.769C11.7289 194.503 8.08894 209.049 7.51561 223.862C6.96895 237.969 4.82223 251.849 5.1289 266.009C5.47556 281.982 2.72897 297.822 3.8623 313.809C5.00896 330.075 4.64894 346.369 7.50226 362.662C11.2889 384.262 18.6089 401.329 30.3422 416.209C48.5822 439.355 70.1821 447.822 93.822 448.662C109.302 449.208 124.795 448.862 140.289 448.755L40.0089 619.235L2.47559 653.088C12.3956 647.848 21.7689 639.555 33.1555 642.675C34.6088 643.075 36.3555 642.528 37.7955 641.768C47.6088 636.581 57.8089 632.421 67.0622 625.675C95.7687 604.741 123.875 582.261 151.889 559.542C179.542 537.102 204.968 509.902 232.408 487.022C244.342 477.075 252.715 460.982 261.435 446.435C261.528 446.288 261.622 446.128 261.702 445.968L262.475 445.942C269.968 451.568 278.061 448.622 285.808 448.448C293.341 448.275 300.901 447.115 308.475 446.822C344.021 445.435 379.595 445.622 415.141 444.662C444.501 443.862 473.808 439.928 503.141 437.542C517.128 436.408 531.127 435.168 545.141 434.795C570.021 434.129 594.941 432.915 619.794 434.035C654.914 435.608 690.02 435.489 725.127 435.648C752.7 435.769 779.407 429.622 805.873 418.222C835.847 405.302 857.02 379.475 871.113 340.969C875.833 328.062 876.927 313.729 878.327 299.716C880.007 282.996 880.94 266.062 880.42 249.129H880.446Z" fill="white" stroke="black" stroke-width="3.99999" stroke-linecap="round" stroke-linejoin="round"/>
<path d="M663.221 264.423C660.568 264.623 658.248 264.943 655.928 264.929C654.034 264.916 651.928 264.383 651.968 262.009C652.008 259.609 653.968 259.409 655.994 259.356C658.501 259.289 661.008 258.903 663.501 258.583C668.928 257.889 671.954 260.489 672.114 266.023C672.354 274.369 665.808 280.329 657.154 279.423C645.088 278.156 635.235 268.383 637.395 254.676C638.221 249.383 639.594 244.476 642.541 240.036C646.741 233.716 653.074 231.196 660.434 232.969C663.048 233.596 665.941 233.396 668.181 235.196C672.288 238.516 674.061 243.023 674.448 248.143C674.568 249.703 674.074 251.169 672.261 251.383C670.461 251.596 669.701 250.236 669.301 248.756C668.741 246.703 668.301 244.623 667.328 242.689C666.341 240.743 664.914 239.783 662.768 239.116C651.154 235.503 646.168 241.676 643.488 251.943C642.768 254.703 642.834 257.649 642.914 260.583C643.128 268.476 653.488 275.449 661.128 273.449C664.688 272.516 666.848 269.529 666.274 265.903C665.901 263.529 664.208 264.463 663.234 264.409L663.221 264.423Z" fill="black"/>
<path d="M618.847 231.196C622.621 231.129 625.874 233.942 627.101 237.916C628.941 243.889 629.074 250.156 630.314 256.209C631.741 263.116 632.074 270.262 634.701 276.929C635.301 278.436 635.074 279.862 633.514 280.689C631.887 281.556 630.674 280.636 629.767 279.396C627.687 276.556 627.341 273.102 626.714 269.782C625.834 265.102 625.914 265.156 621.194 265.036C618.781 264.982 616.367 264.702 613.967 264.422C612.047 264.209 611.021 264.969 610.834 266.889C610.554 269.782 610.261 272.676 609.954 275.556C609.874 276.329 609.834 277.116 609.634 277.849C609.234 279.316 608.301 280.236 606.701 280.116C605.021 279.996 604.261 278.809 604.314 277.342C604.474 273.569 604.154 269.756 605.021 266.049C606.221 260.942 606.954 255.782 607.501 250.556C607.967 245.996 609.341 241.596 611.234 237.462C612.768 234.129 615.154 231.422 618.834 231.156L618.847 231.196ZM621.301 259.649C622.314 259.116 624.861 260.676 624.447 257.849C623.594 252.036 623.581 246.089 621.754 240.422C621.354 239.169 621.234 237.489 619.554 237.356C617.821 237.222 617.141 238.782 616.554 240.076C614.048 245.502 613.194 251.329 612.661 257.209C612.541 258.449 613.008 258.969 614.234 259.049C616.541 259.196 618.847 259.436 621.301 259.636V259.649Z" fill="black"/>
<path d="M451.235 262.289C450.768 267.529 450.368 272.063 449.955 276.583C449.888 277.263 449.901 277.943 449.768 278.609C449.435 280.249 448.675 281.689 446.755 281.503C444.701 281.303 444.088 279.729 444.221 277.903C444.488 274.329 444.808 270.769 445.195 267.209C446.155 258.449 446.435 249.636 446.808 240.836C447.021 235.703 449.088 233.636 454.275 234.076C457.048 234.316 459.781 235.129 462.541 235.663C473.421 237.783 473.568 249.623 468.461 255.476C466.368 257.876 463.861 259.729 460.755 260.436C458.088 261.036 458.381 262.009 459.595 263.943C462.635 268.783 465.568 273.689 469.395 277.983C469.581 278.196 469.741 278.449 469.901 278.689C470.808 280.009 471.155 281.409 469.861 282.636C468.421 283.996 466.915 283.436 465.741 282.236C462.141 278.543 459.275 274.276 456.621 269.863C455.141 267.409 453.755 264.876 451.221 262.303L451.235 262.289ZM451.768 250.716C451.635 254.223 452.141 255.063 454.355 255.556C458.355 256.436 463.288 254.223 465.328 250.623C467.688 246.463 465.981 242.143 461.395 240.876C459.341 240.316 457.248 239.929 455.155 239.516C453.248 239.143 452.181 239.809 452.208 241.916C452.248 245.009 452.181 248.103 451.768 250.716Z" fill="black"/>
<path d="M271.755 270.436C272.542 265.076 273.849 259.889 272.969 254.529C272.129 249.436 272.969 244.289 272.942 239.169C272.942 237.223 273.662 235.263 276.049 235.436C278.222 235.596 278.395 237.543 278.195 239.236C276.995 249.169 279.689 259.156 277.782 269.076C277.275 271.743 276.982 274.449 276.382 277.089C275.955 278.969 274.889 280.543 272.742 280.743C270.622 280.943 269.622 279.423 268.929 277.743C267.555 274.436 265.969 271.196 265.182 267.676C263.809 261.463 260.262 256.263 257.609 250.636C257.369 250.676 257.129 250.729 256.902 250.769C256.902 253.636 256.755 256.503 256.929 259.356C257.315 265.383 256.662 271.343 256.022 277.316C255.835 279.036 255.622 281.156 253.195 280.929C250.916 280.729 250.742 278.716 250.809 276.929C250.982 272.289 252.249 267.703 251.876 263.036C251.356 256.356 252.182 249.689 251.876 243.009C251.822 241.769 251.942 240.476 252.222 239.276C252.569 237.796 253.422 236.529 255.115 236.423C256.849 236.303 257.635 237.543 258.249 238.956C259.942 242.863 261.449 246.863 263.422 250.636C266.755 256.983 269.942 263.369 271.769 270.436H271.755Z" fill="black"/>
<path d="M754.433 272.116C754.807 266.249 756.113 261.063 755.233 255.703C754.393 250.596 755.233 245.463 755.193 240.343C755.193 238.396 755.9 236.436 758.287 236.596C760.46 236.743 760.673 238.689 760.447 240.369C759.38 248.303 761.247 256.209 760.62 264.143C760.273 268.583 759.847 273.023 758.873 277.383C758.393 279.556 757.567 281.623 755.007 281.876C752.433 282.129 751.62 280.009 750.833 278.116C749.46 274.809 747.993 271.529 747.18 268.009C745.82 262.089 742.34 257.183 739.874 251.783L739.127 251.916C739.127 254.583 738.967 257.263 739.153 259.916C739.593 266.036 738.94 272.103 738.327 278.169C738.247 278.929 738.1 279.703 737.86 280.436C737.54 281.423 736.86 282.129 735.753 282.156C734.527 282.196 733.78 281.476 733.367 280.383C732.9 279.169 732.927 277.876 733.127 276.649C734.82 266.063 733.713 255.396 734.127 244.769C734.18 243.329 734.193 241.849 734.487 240.449C734.793 238.969 735.673 237.703 737.353 237.569C739.087 237.436 739.967 238.636 740.473 240.103C744.167 250.716 751.073 259.943 753.633 271.036C753.673 271.209 753.847 271.343 754.433 272.116Z" fill="black"/>
<path d="M674.888 275.036C676.848 264.302 677.008 253.249 680.528 242.796C681.248 240.649 682.248 238.716 683.874 237.089C687.914 233.036 693.728 233.996 696.021 239.263C697.781 243.289 698.288 247.662 698.888 251.982C700.141 260.889 701.154 269.836 704.128 278.396C704.634 279.862 704.328 281.102 702.994 281.929C701.541 282.822 700.354 282.102 699.434 280.996C697.488 278.662 697.088 275.716 696.568 272.876C695.488 267.049 695.541 267.062 689.501 266.889C687.661 266.836 685.808 266.756 684.008 266.462C682.234 266.169 681.461 266.862 681.274 268.516C680.968 271.209 680.674 273.902 680.354 276.596C680.234 277.649 680.168 278.742 679.834 279.729C679.394 280.996 678.461 281.916 676.968 281.636C675.634 281.396 675.021 280.382 674.941 279.129C674.848 277.782 674.928 276.422 674.928 275.062L674.888 275.036ZM690.701 261.729C691.768 261.089 694.474 262.782 694.088 259.769C693.381 254.209 693.221 248.556 691.568 243.156C691.208 241.969 690.834 240.543 689.301 240.449C687.808 240.369 687.181 241.689 686.701 242.849C685.208 246.436 684.114 250.129 683.528 253.982C682.434 261.196 683.181 262.062 690.701 261.729Z" fill="black"/>
<path d="M577.981 260.182C577.581 266.729 574.954 272.209 568.741 275.649C564.314 278.102 559.621 279.889 554.794 281.342C553.514 281.729 552.128 281.916 550.794 281.876C548.381 281.796 547.368 280.409 548.221 278.222C549.088 275.982 549.234 273.702 549.194 271.382C549.034 261.529 549.821 251.636 548.088 241.836C547.794 240.209 547.634 238.596 546.768 237.129C545.634 235.196 546.354 233.956 548.421 233.516C559.954 231.076 573.861 239.849 576.608 251.329C577.274 254.142 577.981 256.982 577.968 260.196L577.981 260.182ZM554.554 271.182C554.461 275.769 554.448 275.742 558.274 274.489C561.328 273.489 564.248 272.196 566.941 270.436C569.461 268.796 571.181 266.609 571.941 263.582C574.928 251.689 568.034 241.342 555.714 239.169C553.221 238.729 552.754 239.622 553.181 241.756C555.154 251.729 553.328 261.889 554.554 271.182Z" fill="black"/>
<path d="M513.661 274.076C513.661 267.809 515.995 261.889 516.395 255.702C516.701 251.009 517.848 246.529 519.555 242.182C519.795 241.556 520.008 240.889 520.341 240.302C522.141 237.142 524.394 234.342 528.448 234.716C532.408 235.089 534.408 237.876 535.474 241.529C536.568 245.276 537.261 249.102 537.608 252.942C538.208 259.529 540.021 265.889 540.874 272.422C541.114 274.316 541.928 276.142 542.554 277.969C543.048 279.409 543.034 280.689 541.594 281.516C540.181 282.316 538.954 281.782 537.968 280.649C536.301 278.729 535.954 276.276 535.448 273.916C534.021 267.329 534.048 267.316 527.514 266.796C527.328 266.782 527.128 266.769 526.941 266.742C518.954 265.316 520.301 266.542 519.341 272.876C519.061 274.689 519.195 276.569 518.901 278.369C518.635 279.982 517.754 281.409 515.808 281.156C513.968 280.916 513.701 279.409 513.701 277.862C513.701 276.609 513.701 275.342 513.701 274.089L513.661 274.076ZM528.541 261.476C532.368 261.529 532.968 261.329 532.741 259.556C532.021 254.009 531.821 248.369 530.128 242.969C529.768 241.822 529.341 240.609 528.048 240.422C526.634 240.222 526.048 241.529 525.581 242.529C523.794 246.302 522.581 250.302 522.128 254.449C521.394 261.249 521.555 261.356 528.554 261.462L528.541 261.476Z" fill="black"/>
<path d="M242.782 202.449C240.742 225.676 241.609 247.543 230.049 268.089C214.795 295.182 161.756 294.742 147.209 269.422C134.756 247.756 129.836 226.396 134.449 202.409C137.356 187.289 140.556 172.183 146.249 157.809C159.075 125.383 193.449 115.303 218.742 136.276C224.369 140.943 227.582 147.036 230.582 153.449C238.089 169.436 241.822 186.289 242.795 202.463L242.782 202.449ZM223.995 216.156C224.555 194.769 221.929 176.009 212.902 158.623C208.155 149.463 201.089 143.409 190.022 143.276C177.529 143.116 166.609 151.956 161.102 168.436C156.329 182.703 151.996 197.196 151.449 212.436C150.916 227.703 154.062 241.876 160.942 255.836C170.182 274.582 206.809 276.302 216.782 254.302C222.675 241.289 222.982 227.756 223.982 216.156H223.995Z" fill="#55ADE1"/>
<path d="M345.222 264.836C344.689 257.929 346.022 250.783 345.155 243.623C345.049 242.769 345.075 241.876 345.155 241.009C345.315 239.276 345.729 237.556 347.929 237.636C349.915 237.703 350.329 239.289 350.449 240.943C350.822 246.156 351.395 251.356 350.595 256.596C350.209 259.143 351.195 260.649 353.969 260.889C358.502 261.289 363.009 261.823 367.529 262.329C369.195 262.516 369.435 261.503 369.489 260.183C369.609 257.063 369.035 254.009 368.662 250.943C368.289 247.836 368.355 244.756 368.969 241.689C369.302 240.049 369.995 238.623 371.982 238.863C373.782 239.076 374.288 240.476 374.248 242.063C373.928 252.623 375.822 263.103 375.475 273.676C375.422 275.503 375.849 277.343 375.862 279.169C375.862 280.956 375.222 282.569 373.129 282.623C371.209 282.676 370.395 281.183 370.289 279.543C370.102 276.556 369.542 273.583 369.955 270.569C370.262 268.369 369.395 267.409 367.115 267.289C362.582 267.036 358.035 266.689 353.529 266.089C350.862 265.729 350.262 266.836 350.462 269.116C350.662 271.423 350.862 273.743 350.929 276.063C350.995 278.076 350.782 280.316 348.182 280.356C345.609 280.383 345.289 278.089 345.235 276.129C345.129 272.449 345.209 268.769 345.209 264.836H345.222Z" fill="black"/>
<path d="M508.715 260.262C508.955 265.436 508.475 270.142 506.208 274.676C501.795 283.502 486.568 283.236 482.488 276.142C479.501 270.942 477.048 266.009 477.955 259.796C478.968 252.809 479.088 245.622 483.728 239.716C489.208 232.729 499.488 233.396 504.035 241.062C507.581 247.062 509.181 253.569 508.741 260.262H508.715ZM503.461 258.356C503.661 253.222 502.261 249.116 500.368 245.156C498.901 242.089 496.768 239.916 493.021 240.009C489.248 240.102 487.035 242.502 485.941 245.569C483.381 252.742 481.781 260.129 484.141 267.729C485.155 271.009 486.622 274.596 490.062 275.502C496.555 277.236 501.728 275.769 503.248 267.529C503.848 264.262 503.741 260.982 503.448 258.356H503.461Z" fill="black"/>
<path d="M388.288 249.276C388.288 251.209 388.421 253.169 388.248 255.089C388.035 257.543 389.128 258.383 391.435 258.423C394.621 258.476 397.835 258.089 400.995 258.916C402.488 259.303 404.048 259.769 403.781 261.623C403.501 263.663 401.768 263.756 400.141 263.463C396.581 262.809 392.968 263.663 389.408 263.063C388.261 262.863 387.808 263.503 387.781 264.556C387.728 267.943 387.048 271.289 387.155 274.703C387.221 276.876 388.141 277.543 390.168 277.596C393.648 277.703 397.128 277.996 400.608 278.249C401.368 278.303 402.155 278.463 402.875 278.716C403.968 279.116 404.675 279.916 404.541 281.143C404.408 282.383 403.568 283.089 402.395 283.129C396.568 283.329 390.768 282.809 385.061 281.796C382.701 281.383 382.128 279.236 382.221 276.996C382.461 271.289 382.488 265.556 382.968 259.876C383.475 253.969 383.341 248.063 383.328 242.156C383.328 238.649 384.621 236.689 388.048 235.783C392.448 234.623 396.915 233.636 401.528 233.943C403.355 234.063 405.688 234.036 405.621 236.556C405.568 238.956 403.301 238.783 401.581 238.743C398.168 238.663 394.821 239.116 391.461 239.663C389.181 240.036 387.981 240.996 388.221 243.503C388.395 245.423 388.261 247.383 388.261 249.316C388.261 249.316 388.261 249.316 388.275 249.316L388.288 249.276Z" fill="black"/>
<path d="M320.835 237.262C326.635 237.262 332.435 237.249 338.235 237.262C339.809 237.262 341.275 237.769 341.355 239.582C341.422 241.289 339.955 241.702 338.582 241.996C335.582 242.649 332.608 241.742 329.622 241.756C327.088 241.756 326.062 242.329 326.062 245.142C326.075 255.876 324.195 266.542 324.889 277.316C324.982 278.889 324.529 280.396 322.715 280.556C320.755 280.729 320.035 279.222 319.835 277.569C319.022 270.982 319.835 264.436 320.288 257.876C320.595 253.436 320.902 249.009 321.222 244.569C321.369 242.636 320.622 241.716 318.569 241.769C315.475 241.862 312.368 241.809 309.275 241.769C307.568 241.742 305.689 241.502 305.649 239.342C305.595 237.036 307.555 237.009 309.235 236.996C313.102 236.969 316.982 236.996 320.849 236.996V237.276L320.835 237.262Z" fill="black"/>
<path d="M719.807 262.529C719.874 266.209 719.727 269.876 719.354 273.529C719.167 275.289 719.594 276.476 721.567 276.929C723.1 277.289 724.194 278.342 723.86 280.102C723.527 281.809 722.1 281.902 720.687 281.969C718.18 282.062 715.674 282.249 713.154 282.342C711.527 282.409 709.887 282.156 709.447 280.289C708.98 278.369 710.274 277.396 711.94 277.022C714.26 276.502 714.247 274.662 714.34 272.942C714.687 267.049 714.274 261.142 714.98 255.263C715.42 251.516 715.74 247.756 716.154 244.009C716.34 242.316 715.914 241.236 714.007 240.956C712.687 240.756 711.54 240.009 711.754 238.436C711.98 236.796 713.287 236.276 714.754 236.276C718.527 236.289 722.3 236.303 726.074 236.489C727.86 236.583 729.834 237.196 729.527 239.489C729.247 241.636 727.327 241.529 725.607 241.409C721.687 241.143 721.247 241.529 721.114 245.449C720.914 251.156 719.354 256.756 719.847 262.502L719.807 262.529Z" fill="black"/>
</svg>
