<svg width="883" height="656" viewBox="0 0 883 656" fill="none" xmlns="http://www.w3.org/2000/svg">
<path d="M2.70609 249.649C3.73275 215.542 6.15942 181.556 14.7994 149.436C27.0927 103.716 47.666 66.7562 77.3726 40.7429C94.2258 25.983 112.946 19.383 132.639 16.0097C161.919 10.9963 191.279 10.2764 220.665 9.82302C249.785 9.36969 278.892 9.72968 308.012 12.183C320.185 13.2097 332.425 14.1697 344.665 14.4763C374.438 15.2097 404.225 16.823 433.998 17.0763C467.998 17.3697 502.011 17.263 535.998 16.0497C560.971 15.1563 585.865 11.3563 610.664 6.82303C621.078 4.91636 631.531 3.50303 642.011 3.2497C658.011 2.86304 674.011 2.8497 690.011 3.22303C713.251 3.7697 736.357 6.27636 759.371 11.3697C777.971 15.4763 795.277 23.5563 810.651 38.8363C827.184 55.2629 842.09 73.7428 850.77 100.569C859.077 126.236 865.53 152.609 869.37 180.289C871.424 195.023 875.064 209.569 875.637 224.382C876.184 238.489 878.33 252.369 878.024 266.529C877.677 282.502 880.424 298.342 879.29 314.329C878.144 330.595 878.504 346.889 875.65 363.182C871.864 384.782 864.544 401.849 852.81 416.729C834.57 439.875 812.971 448.342 789.331 449.182C773.851 449.728 758.357 449.382 742.864 449.275L843.144 619.755L880.677 653.608C870.757 648.368 861.384 640.075 849.997 643.195C848.544 643.595 846.797 643.048 845.357 642.288C835.544 637.101 825.344 632.941 816.091 626.195C787.384 605.261 759.277 582.781 731.264 560.062C703.611 537.622 678.184 510.422 650.744 487.542C638.811 477.595 630.438 461.502 621.718 446.955C621.624 446.808 621.531 446.648 621.451 446.488L620.678 446.462C613.184 452.088 605.091 449.142 597.344 448.968C589.811 448.795 582.251 447.635 574.678 447.342C539.131 445.955 503.558 446.142 468.012 445.182C438.652 444.382 409.345 440.448 380.012 438.062C366.025 436.928 352.025 435.689 338.012 435.315C313.132 434.649 288.212 433.435 263.359 434.555C228.239 436.129 193.132 436.008 158.026 436.168C130.452 436.288 103.746 430.142 77.2792 418.742C47.306 405.822 26.1327 379.995 12.0394 341.489C7.31941 328.582 6.22608 314.249 4.82608 300.236C3.14608 283.516 2.21274 266.582 2.73274 249.649H2.70609Z" fill="white" stroke="black" stroke-width="3.99999" stroke-linecap="round" stroke-linejoin="round"/>
<path d="M650.958 271.036C648.305 271.236 645.985 271.556 643.665 271.542C641.772 271.529 639.665 270.996 639.705 268.622C639.745 266.223 641.705 266.023 643.732 265.969C646.238 265.903 648.745 265.516 651.238 265.196C656.665 264.503 659.692 267.103 659.852 272.636C660.092 280.982 653.545 286.942 644.892 286.036C632.825 284.769 622.972 274.996 625.132 261.289C625.958 255.996 627.332 251.089 630.279 246.649C634.479 240.329 640.812 237.809 648.172 239.583C650.785 240.209 653.678 240.009 655.918 241.809C660.025 245.129 661.798 249.636 662.185 254.756C662.305 256.316 661.812 257.783 659.998 257.996C658.198 258.209 657.438 256.849 657.038 255.369C656.478 253.316 656.038 251.236 655.065 249.303C654.078 247.356 652.652 246.396 650.505 245.729C638.892 242.116 633.905 248.289 631.225 258.556C630.505 261.316 630.572 264.263 630.652 267.196C630.865 275.089 641.225 282.062 648.865 280.062C652.425 279.129 654.585 276.142 654.012 272.516C653.638 270.143 651.945 271.076 650.972 271.023L650.958 271.036Z" fill="black"/>
<path d="M606.572 237.809C610.345 237.742 613.599 240.556 614.825 244.529C616.665 250.502 616.799 256.769 618.039 262.822C619.465 269.729 619.799 276.876 622.425 283.542C623.025 285.049 622.799 286.476 621.239 287.302C619.612 288.169 618.399 287.249 617.492 286.009C615.412 283.169 615.065 279.716 614.439 276.396C613.559 271.716 613.639 271.769 608.919 271.649C606.505 271.596 604.092 271.316 601.692 271.036C599.772 270.822 598.745 271.582 598.559 273.502C598.279 276.396 597.985 279.289 597.679 282.169C597.599 282.942 597.559 283.729 597.359 284.462C596.959 285.929 596.025 286.849 594.425 286.729C592.745 286.609 591.985 285.422 592.039 283.956C592.199 280.182 591.879 276.369 592.745 272.662C593.945 267.556 594.679 262.396 595.225 257.169C595.692 252.609 597.065 248.209 598.959 244.076C600.492 240.742 602.879 238.036 606.559 237.769L606.572 237.809ZM609.025 266.262C610.039 265.729 612.585 267.289 612.172 264.462C611.319 258.649 611.305 252.702 609.479 247.036C609.079 245.782 608.959 244.102 607.279 243.969C605.545 243.836 604.865 245.396 604.279 246.689C601.772 252.116 600.919 257.942 600.385 263.822C600.265 265.062 600.732 265.582 601.959 265.662C604.265 265.809 606.572 266.049 609.025 266.249V266.262Z" fill="black"/>
<path d="M438.972 268.903C438.505 274.143 438.106 278.676 437.692 283.196C437.626 283.876 437.639 284.556 437.505 285.223C437.172 286.863 436.412 288.303 434.492 288.116C432.439 287.916 431.825 286.343 431.959 284.516C432.225 280.943 432.546 277.383 432.932 273.823C433.892 265.063 434.172 256.249 434.545 247.449C434.759 242.316 436.826 240.249 442.012 240.689C444.785 240.929 447.519 241.743 450.279 242.276C461.159 244.396 461.305 256.236 456.199 262.089C454.105 264.489 451.599 266.343 448.492 267.049C445.825 267.649 446.119 268.623 447.332 270.556C450.372 275.396 453.305 280.303 457.132 284.596C457.319 284.809 457.479 285.063 457.639 285.303C458.545 286.623 458.892 288.023 457.599 289.249C456.159 290.609 454.652 290.049 453.479 288.849C449.879 285.156 447.012 280.889 444.359 276.476C442.879 274.023 441.492 271.489 438.959 268.916L438.972 268.903ZM439.505 257.329C439.372 260.836 439.879 261.676 442.092 262.169C446.092 263.049 451.025 260.836 453.065 257.236C455.425 253.076 453.719 248.756 449.132 247.489C447.079 246.929 444.985 246.543 442.892 246.129C440.985 245.756 439.919 246.423 439.946 248.529C439.986 251.623 439.919 254.716 439.505 257.329Z" fill="black"/>
<path d="M259.493 277.049C260.279 271.689 261.586 266.503 260.706 261.143C259.866 256.049 260.706 250.903 260.679 245.783C260.679 243.836 261.399 241.876 263.786 242.049C265.959 242.209 266.133 244.156 265.933 245.849C264.733 255.783 267.426 265.769 265.519 275.689C265.013 278.356 264.719 281.062 264.119 283.702C263.693 285.582 262.626 287.156 260.479 287.356C258.359 287.556 257.359 286.036 256.666 284.356C255.293 281.049 253.706 277.809 252.919 274.289C251.546 268.076 247.999 262.876 245.346 257.249C245.106 257.289 244.866 257.343 244.639 257.383C244.639 260.249 244.493 263.116 244.666 265.969C245.053 271.996 244.399 277.956 243.759 283.929C243.573 285.649 243.359 287.769 240.933 287.542C238.653 287.342 238.479 285.329 238.546 283.542C238.719 278.903 239.986 274.316 239.613 269.649C239.093 262.969 239.919 256.303 239.613 249.623C239.559 248.383 239.679 247.089 239.959 245.889C240.306 244.409 241.159 243.143 242.853 243.036C244.586 242.916 245.373 244.156 245.986 245.569C247.679 249.476 249.186 253.476 251.159 257.249C254.493 263.596 257.679 269.983 259.506 277.049H259.493Z" fill="black"/>
<path d="M742.172 278.729C742.545 272.863 743.852 267.676 742.972 262.316C742.132 257.209 742.972 252.076 742.932 246.956C742.932 245.009 743.638 243.049 746.025 243.209C748.198 243.356 748.412 245.303 748.185 246.983C747.118 254.916 748.985 262.823 748.358 270.756C748.012 275.196 747.585 279.636 746.612 283.996C746.132 286.169 745.305 288.236 742.745 288.489C740.172 288.743 739.358 286.623 738.572 284.729C737.198 281.423 735.732 278.143 734.918 274.623C733.558 268.703 730.078 263.796 727.612 258.396L726.865 258.529C726.865 261.196 726.705 263.876 726.892 266.529C727.332 272.649 726.678 278.716 726.065 284.783C725.985 285.543 725.838 286.316 725.598 287.049C725.278 288.036 724.598 288.743 723.492 288.769C722.265 288.809 721.518 288.089 721.105 286.996C720.638 285.783 720.665 284.489 720.865 283.263C722.558 272.676 721.452 262.009 721.865 251.383C721.918 249.943 721.932 248.463 722.225 247.063C722.532 245.583 723.412 244.316 725.092 244.183C726.825 244.049 727.705 245.249 728.212 246.716C731.905 257.329 738.812 266.556 741.372 277.649C741.412 277.823 741.585 277.956 742.172 278.729Z" fill="black"/>
<path d="M662.611 281.649C664.571 270.916 664.731 259.862 668.251 249.409C668.971 247.262 669.971 245.329 671.598 243.702C675.638 239.649 681.451 240.609 683.745 245.876C685.505 249.902 686.011 254.276 686.611 258.596C687.865 267.502 688.878 276.449 691.851 285.009C692.358 286.476 692.051 287.716 690.718 288.542C689.265 289.436 688.078 288.716 687.158 287.609C685.211 285.276 684.811 282.329 684.291 279.489C683.211 273.662 683.265 273.676 677.225 273.502C675.385 273.449 673.531 273.369 671.731 273.076C669.958 272.782 669.185 273.476 668.998 275.129C668.691 277.822 668.398 280.516 668.078 283.209C667.958 284.262 667.891 285.356 667.558 286.342C667.118 287.609 666.185 288.529 664.691 288.249C663.358 288.009 662.745 286.996 662.665 285.742C662.571 284.396 662.651 283.036 662.651 281.676L662.611 281.649ZM678.425 268.342C679.491 267.702 682.198 269.396 681.811 266.382C681.105 260.822 680.945 255.169 679.291 249.769C678.931 248.582 678.558 247.156 677.025 247.062C675.531 246.982 674.905 248.302 674.425 249.462C672.931 253.049 671.838 256.742 671.251 260.596C670.158 267.809 670.905 268.676 678.425 268.342Z" fill="black"/>
<path d="M565.705 266.796C565.305 273.342 562.678 278.822 556.465 282.262C552.038 284.716 547.345 286.502 542.518 287.956C541.238 288.342 539.851 288.529 538.518 288.489C536.105 288.409 535.091 287.022 535.945 284.836C536.811 282.596 536.958 280.316 536.918 277.996C536.758 268.142 537.545 258.249 535.811 248.449C535.518 246.822 535.358 245.209 534.491 243.742C533.358 241.809 534.078 240.569 536.145 240.129C547.678 237.689 561.585 246.462 564.331 257.942C564.998 260.756 565.705 263.596 565.691 266.809L565.705 266.796ZM542.278 277.796C542.185 282.382 542.171 282.356 545.998 281.102C549.051 280.102 551.971 278.809 554.665 277.049C557.185 275.409 558.905 273.222 559.665 270.196C562.651 258.302 555.758 247.956 543.438 245.782C540.945 245.342 540.478 246.236 540.905 248.369C542.878 258.342 541.051 268.502 542.278 277.796Z" fill="black"/>
<path d="M501.398 280.689C501.398 274.423 503.732 268.503 504.132 262.316C504.438 257.623 505.585 253.143 507.292 248.796C507.532 248.169 507.745 247.503 508.078 246.916C509.878 243.756 512.132 240.956 516.185 241.329C520.145 241.703 522.145 244.489 523.212 248.143C524.305 251.889 524.998 255.716 525.345 259.556C525.945 266.143 527.758 272.503 528.612 279.036C528.852 280.929 529.665 282.756 530.292 284.583C530.785 286.023 530.772 287.303 529.332 288.129C527.918 288.929 526.692 288.396 525.705 287.263C524.038 285.343 523.692 282.889 523.185 280.529C521.758 273.943 521.785 273.929 515.252 273.409C515.065 273.396 514.865 273.383 514.678 273.356C506.692 271.929 508.038 273.156 507.078 279.489C506.798 281.303 506.932 283.183 506.638 284.983C506.372 286.596 505.492 288.023 503.545 287.769C501.705 287.529 501.438 286.023 501.438 284.476C501.438 283.223 501.438 281.956 501.438 280.703L501.398 280.689ZM516.278 268.089C520.105 268.143 520.705 267.943 520.478 266.169C519.758 260.623 519.558 254.983 517.865 249.583C517.505 248.436 517.078 247.223 515.785 247.036C514.372 246.836 513.785 248.143 513.318 249.143C511.532 252.916 510.318 256.916 509.865 261.063C509.132 267.863 509.292 267.969 516.292 268.076L516.278 268.089Z" fill="black"/>
<path d="M230.519 209.063C228.479 232.289 229.346 254.156 217.786 274.702C202.533 301.796 149.493 301.356 134.946 276.036C122.493 254.369 117.573 233.009 122.186 209.023C125.093 193.903 128.293 178.796 133.986 164.423C146.813 131.996 181.186 121.916 206.479 142.889C212.106 147.556 215.319 153.649 218.319 160.063C225.826 176.049 229.559 192.903 230.533 209.076L230.519 209.063ZM211.733 222.769C212.293 201.383 209.666 182.623 200.639 165.236C195.893 156.076 188.826 150.023 177.759 149.889C165.266 149.729 154.346 158.569 148.839 175.049C144.066 189.316 139.733 203.809 139.186 219.049C138.653 234.316 141.8 248.489 148.679 262.449C157.919 281.196 194.546 282.916 204.519 260.916C210.413 247.902 210.719 234.369 211.719 222.769H211.733Z" fill="#55ADE1"/>
<path d="M332.959 271.449C332.426 264.543 333.759 257.396 332.893 250.236C332.786 249.383 332.813 248.489 332.893 247.623C333.053 245.889 333.466 244.169 335.666 244.249C337.653 244.316 338.066 245.903 338.186 247.556C338.559 252.769 339.133 257.969 338.333 263.209C337.946 265.756 338.933 267.263 341.706 267.503C346.239 267.903 350.746 268.436 355.266 268.943C356.933 269.129 357.173 268.116 357.226 266.796C357.346 263.676 356.773 260.623 356.399 257.556C356.026 254.449 356.093 251.369 356.706 248.303C357.039 246.663 357.733 245.236 359.719 245.476C361.519 245.689 362.026 247.089 361.986 248.676C361.666 259.236 363.559 269.716 363.213 280.289C363.159 282.116 363.586 283.956 363.599 285.782C363.599 287.569 362.959 289.183 360.866 289.236C358.946 289.289 358.133 287.796 358.026 286.156C357.839 283.169 357.279 280.196 357.693 277.183C357.999 274.983 357.133 274.023 354.853 273.903C350.319 273.649 345.773 273.303 341.266 272.703C338.599 272.343 337.999 273.449 338.199 275.729C338.399 278.036 338.599 280.356 338.666 282.676C338.733 284.689 338.519 286.929 335.919 286.969C333.346 286.996 333.026 284.702 332.973 282.742C332.866 279.062 332.946 275.383 332.946 271.449H332.959Z" fill="black"/>
<path d="M496.452 266.876C496.692 272.049 496.212 276.756 493.945 281.289C489.532 290.116 474.305 289.849 470.225 282.756C467.239 277.556 464.785 272.622 465.692 266.409C466.705 259.422 466.825 252.236 471.465 246.329C476.945 239.342 487.225 240.009 491.772 247.676C495.319 253.676 496.919 260.182 496.479 266.876H496.452ZM491.199 264.969C491.399 259.836 489.999 255.729 488.105 251.769C486.639 248.702 484.505 246.529 480.759 246.622C476.985 246.716 474.772 249.116 473.679 252.182C471.119 259.356 469.519 266.742 471.879 274.342C472.892 277.622 474.359 281.209 477.799 282.116C484.292 283.849 489.465 282.382 490.985 274.142C491.585 270.876 491.479 267.596 491.185 264.969H491.199Z" fill="black"/>
<path d="M376.025 255.889C376.025 257.822 376.159 259.782 375.985 261.702C375.772 264.156 376.865 264.996 379.172 265.036C382.359 265.089 385.572 264.702 388.732 265.529C390.225 265.916 391.785 266.382 391.519 268.236C391.239 270.276 389.505 270.369 387.879 270.075C384.319 269.422 380.705 270.276 377.145 269.676C375.999 269.476 375.545 270.115 375.519 271.169C375.465 274.555 374.785 277.902 374.892 281.315C374.959 283.489 375.879 284.155 377.905 284.209C381.385 284.315 384.865 284.609 388.345 284.862C389.105 284.915 389.892 285.075 390.612 285.329C391.705 285.729 392.412 286.529 392.279 287.755C392.145 288.995 391.305 289.702 390.132 289.742C384.305 289.942 378.505 289.422 372.799 288.409C370.439 287.995 369.865 285.849 369.959 283.609C370.199 277.902 370.225 272.169 370.705 266.489C371.212 260.582 371.079 254.676 371.065 248.769C371.065 245.262 372.359 243.302 375.785 242.396C380.185 241.236 384.652 240.249 389.265 240.556C391.092 240.676 393.425 240.649 393.359 243.169C393.305 245.569 391.039 245.396 389.319 245.356C385.905 245.276 382.559 245.729 379.199 246.276C376.919 246.649 375.719 247.609 375.959 250.116C376.132 252.036 375.999 253.996 375.999 255.929C375.999 255.929 375.999 255.929 376.012 255.929L376.025 255.889Z" fill="black"/>
<path d="M308.559 243.876C314.359 243.876 320.159 243.862 325.959 243.876C327.532 243.876 328.999 244.382 329.079 246.196C329.145 247.902 327.679 248.316 326.305 248.609C323.305 249.262 320.332 248.356 317.345 248.369C314.812 248.369 313.785 248.942 313.785 251.756C313.799 262.489 311.919 273.156 312.612 283.929C312.705 285.502 312.252 287.009 310.439 287.169C308.479 287.342 307.759 285.836 307.559 284.182C306.745 277.596 307.559 271.049 308.012 264.489C308.319 260.049 308.625 255.622 308.945 251.182C309.092 249.249 308.345 248.329 306.292 248.382C303.199 248.476 300.092 248.422 296.999 248.382C295.292 248.356 293.412 248.116 293.372 245.956C293.319 243.649 295.279 243.622 296.959 243.609C300.825 243.582 304.705 243.609 308.572 243.609V243.889L308.559 243.876Z" fill="black"/>
<path d="M707.544 269.142C707.611 272.822 707.464 276.489 707.091 280.142C706.904 281.902 707.331 283.089 709.304 283.542C710.837 283.902 711.931 284.956 711.597 286.716C711.264 288.422 709.837 288.516 708.424 288.582C705.918 288.676 703.411 288.862 700.891 288.956C699.264 289.022 697.624 288.769 697.184 286.902C696.718 284.982 698.011 284.009 699.678 283.636C701.998 283.116 701.984 281.276 702.078 279.556C702.424 273.662 702.011 267.756 702.717 261.876C703.157 258.129 703.477 254.369 703.891 250.622C704.077 248.929 703.651 247.849 701.744 247.569C700.424 247.369 699.278 246.622 699.491 245.049C699.718 243.409 701.024 242.889 702.491 242.889C706.264 242.902 710.037 242.916 713.811 243.102C715.597 243.196 717.571 243.809 717.264 246.102C716.984 248.249 715.064 248.142 713.344 248.022C709.424 247.756 708.984 248.142 708.851 252.062C708.651 257.769 707.091 263.369 707.584 269.116L707.544 269.142Z" fill="black"/>
</svg>
