<svg width="883" height="656" viewBox="0 0 883 656" fill="none" xmlns="http://www.w3.org/2000/svg">
<path d="M880.705 249.316C879.679 215.21 877.252 181.223 868.612 149.103C856.319 103.383 835.745 66.4234 806.039 40.4101C789.186 25.6501 770.465 19.0501 750.772 15.6768C721.492 10.6634 692.132 9.94359 662.746 9.49026C633.626 9.03692 604.519 9.39662 575.399 11.85C563.226 12.8766 550.986 13.8369 538.746 14.1436C508.973 14.8769 479.186 16.4902 449.413 16.7435C415.413 17.0368 381.4 16.9301 347.413 15.7168C322.44 14.8235 297.547 11.0236 272.747 6.49027C262.334 4.5836 251.88 3.17004 241.4 2.91671C225.4 2.53004 209.4 2.51668 193.401 2.89001C170.161 3.43668 147.054 5.94348 124.041 11.0368C105.441 15.1435 88.1342 23.2232 72.7609 38.5032C56.2276 54.9298 41.3208 73.4098 32.6409 100.236C24.3342 125.903 17.881 152.276 14.041 179.956C11.9877 194.69 8.34773 209.236 7.7744 224.05C7.22774 238.156 5.08102 252.036 5.38769 266.196C5.73435 282.169 2.98776 298.009 4.12109 313.996C5.26775 330.263 4.90773 346.556 7.76105 362.849C11.5477 384.449 18.8675 401.516 30.6008 416.396C48.8408 439.542 70.4409 448.009 94.0808 448.849C109.561 449.395 125.054 449.049 140.547 448.942L40.2675 619.422L2.73438 653.275C12.6543 648.035 22.0277 639.742 33.4143 642.862C34.8676 643.262 36.6143 642.715 38.0543 641.955C47.8676 636.768 58.0675 632.608 67.3208 625.862C96.0274 604.928 124.134 582.449 152.147 559.729C179.801 537.289 205.227 510.089 232.667 487.209C244.6 477.262 252.974 461.169 261.694 446.622C261.787 446.476 261.88 446.316 261.96 446.156L262.734 446.129C270.227 451.756 278.32 448.809 286.067 448.636C293.6 448.462 301.16 447.302 308.734 447.009C344.28 445.622 379.853 445.809 415.4 444.849C444.76 444.049 474.066 440.116 503.4 437.729C517.386 436.596 531.386 435.356 545.4 434.982C570.279 434.316 595.199 433.102 620.052 434.222C655.172 435.796 690.279 435.675 725.385 435.835C752.959 435.955 779.665 429.809 806.132 418.409C836.105 405.489 857.279 379.663 871.372 341.156C876.092 328.249 877.185 313.916 878.586 299.903C880.266 283.183 881.199 266.249 880.679 249.316H880.705Z" fill="white" stroke="black" stroke-width="3.99999" stroke-linecap="round" stroke-linejoin="round"/>
<path d="M478.253 253.25C478.253 258.77 478.187 264.277 478.28 269.797C478.36 274.477 477.4 279.05 476.987 283.677C476.827 285.41 475.92 286.677 474.027 286.623C472.134 286.57 471.36 285.236 471.187 283.53C471.093 282.57 471.04 281.57 471.187 280.637C473.08 268.703 471.827 256.663 472.227 244.69C472.28 243.143 472.12 241.583 472.614 240.077C473.16 238.41 474.054 237.037 475.974 236.903C477.934 236.77 478.907 238.05 479.587 239.703C482.587 247.063 485.747 254.33 489.787 261.196C491.12 263.476 491.64 266.077 492.374 268.583C492.947 270.53 493.427 272.49 494.867 274.997C495.493 268.997 496.707 263.743 495.974 258.37C495.134 252.183 495.734 245.983 495.694 239.797C495.694 239.05 495.947 238.25 496.293 237.583C497.027 236.13 498.253 235.41 499.893 235.863C501.453 236.29 501.987 237.543 501.88 239.023C501.4 245.903 501.627 252.743 502.134 259.623C502.667 266.81 501.493 273.93 500.213 280.983C500.027 282.01 499.653 283.063 499.16 283.983C497.333 287.33 493.707 287.397 491.88 284.01C489.813 280.157 488.28 276.063 487.213 271.823C485.52 265.09 481.854 259.25 478.28 253.277L478.253 253.25Z" fill="black"/>
<path d="M650.666 286.489C647.906 286.596 645.639 286.382 643.359 287.302C641.306 288.129 639.933 286.409 639.973 283.609C640.12 274.623 640.267 265.623 640.307 256.636C640.32 253.449 639.92 250.263 639.947 247.076C639.987 242.543 642.533 239.089 648.066 240.863C653.333 242.556 658.173 244.543 660.826 250.036C663.186 254.916 661.333 258.783 658.32 262.249C656.466 264.383 656.933 264.942 659.24 265.889C663.786 267.742 666.893 272.676 666.413 276.756C665.879 281.409 662.519 284.649 657.133 285.849C654.839 286.356 652.546 286.556 650.666 286.502V286.489ZM650.933 281.089C652.533 281.249 654.519 280.796 656.519 280.409C658.813 279.956 660.626 278.889 660.76 276.369C660.893 273.889 659.906 271.836 657.466 270.756C654.599 269.489 651.56 268.929 648.506 268.476C646.026 268.103 645.16 269.396 645.346 271.689C645.466 273.223 645.68 274.769 645.706 276.303C645.786 281.129 645.76 281.129 650.947 281.103L650.933 281.089ZM656.626 254.182C656.666 253.369 656.266 252.716 655.933 252.009C654.426 248.703 651.413 247.409 648.32 246.182C646.24 245.356 645.12 245.863 645.24 248.236C645.44 252.383 645.653 256.529 645.866 260.689C645.906 261.383 646.053 261.996 646.92 262.196C650.48 263.022 656.667 257.942 656.64 254.196L656.626 254.182Z" fill="black"/>
<path d="M320.267 284.636C309.787 284.969 301.92 279.383 297.734 269.529C295.507 264.289 293.76 258.943 295.627 253.209C298 245.983 303.414 241.596 310.014 238.476C316.107 235.596 322.534 235.409 329.054 236.529C330.08 236.703 331.107 237.143 332.04 237.623C333.747 238.489 334.934 239.889 334.107 241.849C333.294 243.769 331.64 243.876 329.694 243.343C322.44 241.329 315.507 241.956 309.147 246.316C306.814 247.916 304.707 249.769 303.294 252.276C300.507 257.223 302.2 266.01 305.974 271.103C312.094 279.356 320.254 278.743 328.814 277.303C329.774 277.143 330.694 276.783 331.654 276.716C333.6 276.583 335.187 277.289 335.533 279.369C335.853 281.316 334.68 282.383 332.88 282.929C328.76 284.183 324.547 284.583 320.267 284.676V284.636Z" fill="black"/>
<path d="M525.213 236.557C532.28 236.557 539.346 236.53 546.413 236.57C548.266 236.57 550.08 237.117 550.24 239.303C550.426 241.61 548.8 242.623 546.733 242.69C542.96 242.797 539.173 242.81 535.4 242.69C532.907 242.61 532.053 243.13 531.973 246.063C531.747 254.757 530.973 263.45 530.28 272.13C530.053 275.037 529.92 277.943 530.147 280.836C530.293 282.663 529.786 283.676 527.84 283.596C526.093 283.53 523.787 284.197 523.653 281.37C523.507 278.37 523.533 275.357 523.693 272.37C524.173 263.97 524.8 255.57 525.293 247.17C525.533 242.93 525.267 242.717 521.053 242.703C518.24 242.703 515.427 242.73 512.627 242.703C511.573 242.69 510.48 242.623 509.467 242.37C507.787 241.957 506.173 241.143 506.333 239.13C506.493 236.997 508.2 236.33 510.107 236.317C515.147 236.277 520.186 236.317 525.226 236.317C525.226 236.41 525.226 236.503 525.226 236.597L525.213 236.557Z" fill="black"/>
<path d="M608.066 268.476C608.332 261.622 608.866 256.182 610.839 251.102C612.719 246.262 615.999 242.582 621.625 242.195C627.145 241.809 631.012 244.462 633.559 249.302C635.332 252.675 636.839 256.155 637.319 259.915C637.905 264.609 638.438 269.315 637.718 274.075C636.172 284.355 627.359 289.622 617.559 286.049C616.426 285.635 615.479 285.009 614.719 284.115C610.492 279.222 607.212 273.956 608.066 268.489V268.476ZM632.879 268.022C633.092 262.395 631.985 257.075 629.399 252.035C627.786 248.902 625.439 246.929 621.879 247.116C618.305 247.289 616.412 249.875 615.332 252.915C613.505 258.075 612.639 263.462 613.279 268.902C613.692 272.529 614.532 276.089 617.132 279.049C621.159 283.649 629.052 282.662 631.679 277.142C633.065 274.209 632.892 271.115 632.879 268.035V268.022Z" fill="black"/>
<path d="M599.72 263.396C599.2 258.063 600.187 252.756 600.333 247.45C600.4 245.103 600.12 243.236 597.014 243.236C595.347 243.236 593.974 242.156 594.12 240.263C594.267 238.436 595.787 238.01 597.333 238.023C602.093 238.063 606.814 237.57 611.534 237.063C612.28 236.983 613.08 237.116 613.827 237.276C615.093 237.556 615.907 238.343 615.921 239.69C615.921 240.943 615.094 241.676 613.987 241.93C612.294 242.303 610.56 242.65 608.827 242.743C606.533 242.863 605.653 243.756 605.693 246.183C605.787 253.836 605.68 261.49 605.547 269.143C605.507 271.263 605.294 273.41 604.921 275.49C602.961 286.53 589.107 289.596 583.134 284.476C578.28 280.303 577.334 272.543 581.561 267.716C582.401 266.756 583.427 266.303 584.667 266.783C585.893 267.263 586.534 268.289 586.347 269.543C586.134 271.063 585.734 272.57 585.267 274.05C584.04 277.903 586.28 281.05 590.374 281.103C595.427 281.17 598.827 278.289 599.6 273.263C599.694 272.689 599.72 272.103 599.72 271.529C599.72 268.823 599.72 266.116 599.72 263.41V263.396Z" fill="black"/>
<path d="M280.68 257.062C282.907 252.435 285.667 248.235 287.333 243.502C287.853 242.049 288.427 240.595 289.08 239.195C289.547 238.182 290.32 237.302 291.573 237.742C292.933 238.209 293.12 239.435 292.8 240.635C292.013 243.635 290.907 246.542 289.587 249.355C287.893 252.955 286.28 256.582 284.48 260.116C283.707 261.636 283.827 262.702 284.88 264.035C289.026 269.275 292.667 274.876 296.28 280.489C296.853 281.382 297.36 282.342 297.72 283.329C298.187 284.609 298.107 285.915 296.68 286.569C295.227 287.235 294.187 286.382 293.587 285.182C292.16 282.289 290.12 279.809 288.493 277.075C286.706 274.062 284.613 271.302 282.56 268.489C280.84 266.156 280.227 266.142 278.88 268.822C276.76 273.062 274.747 277.355 272.68 281.635C272.467 282.075 272.307 282.542 272.053 282.942C271.307 284.115 270.267 284.875 268.893 284.129C267.653 283.462 267.56 282.209 268.133 281.075C270.68 276.075 272.48 270.689 275.533 265.969C276.893 263.875 277.173 262.142 276.587 259.569C275.147 253.222 271.72 247.756 269.52 241.782C268.907 240.102 267.32 237.796 270 236.809C272.413 235.916 272.92 238.556 273.547 240.142C275.8 245.782 279.347 250.875 280.68 257.049V257.062Z" fill="black"/>
<path d="M191.428 175.649C191.428 168.996 191.708 162.316 191.361 155.676C190.841 145.623 195.867 139.236 204.854 136.636C219.694 132.343 234.854 129.329 250.494 130.489C251.094 130.529 251.707 130.569 252.294 130.689C256.961 131.636 261.721 133.076 261.214 138.943C260.747 144.236 256.134 145.356 251.694 145.329C240.468 145.263 229.387 146.156 218.281 147.929C209.974 149.249 206.148 152.489 206.708 161.516C207.454 173.262 207.241 185.116 206.788 196.902C206.508 204.076 209.468 206.689 216.254 206.862C226.507 207.129 236.841 205.796 246.987 208.489C251.681 209.743 256.307 211.409 255.241 217.236C254.201 222.996 249.228 223.542 244.454 222.636C233.334 220.529 222.054 223.196 210.948 221.369C207.668 220.836 205.521 221.889 205.428 225.463C205.121 236.636 202.841 247.676 203.521 258.942C203.854 264.369 206.308 266.342 211.414 266.582C222.281 267.102 233.134 267.889 243.987 268.649C246.387 268.822 248.841 269.049 251.134 269.689C255.294 270.862 258.307 273.369 257.587 278.142C256.934 282.449 253.654 283.969 249.667 284.116C246.947 284.222 244.214 284.289 241.494 284.116C228.827 283.262 216.134 282.662 203.507 281.329C191.254 280.022 187.588 275.835 188.054 263.515C189.161 234.222 190.654 204.929 192.001 175.636H191.414L191.428 175.649Z" fill="#55ADE1"/>
<path d="M339.014 276.41C339.654 265.583 340.44 254.756 340.134 243.889C340.054 241.303 341.667 239.636 343.907 238.916C348.907 237.303 354.054 236.356 359.36 236.77C359.547 236.783 359.747 236.809 359.934 236.849C361.214 237.169 362.48 237.636 362.48 239.196C362.48 240.956 361.107 241.45 359.667 241.463C355.974 241.503 352.334 241.73 348.667 242.316C345.974 242.756 344.827 243.85 345 246.703C345.227 250.463 345.174 254.263 345.027 258.036C344.934 260.37 345.96 261.116 348.107 261.196C351.2 261.289 354.307 260.849 357.374 261.623C359.014 262.036 360.933 262.316 360.533 264.556C360.173 266.569 358.387 266.329 356.774 266.249C353.294 266.049 349.814 266.01 346.334 265.823C345.254 265.77 344.627 266.076 344.6 267.196C344.52 270.676 343.827 274.116 343.974 277.636C344.067 279.689 344.973 280.289 346.853 280.356C350.333 280.476 353.814 280.756 357.294 281.009C358.054 281.063 358.84 281.196 359.56 281.436C360.773 281.85 361.547 282.703 361.32 284.076C361.107 285.303 360.2 285.903 359.04 285.929C353.414 286.076 347.814 285.463 342.254 284.703C340.2 284.423 339.134 282.863 339.054 280.77C339 279.316 339.054 277.863 339.054 276.41H339.014Z" fill="black"/>
<path d="M440.239 276.502C440.853 265.675 441.666 254.849 441.346 243.982C441.266 240.982 443.266 239.329 445.839 238.622C450.426 237.369 455.079 236.396 459.893 236.716C460.373 236.742 460.866 236.782 461.333 236.902C462.626 237.249 463.813 237.836 463.679 239.396C463.546 240.956 462.293 241.422 460.959 241.462C457.479 241.569 453.999 241.569 450.546 242.249C446.293 243.102 446.253 243.023 446.266 247.489C446.279 250.982 446.386 254.476 446.239 257.956C446.146 260.209 447.013 261.129 449.226 261.196C452.506 261.289 455.813 260.849 459.066 261.716C460.573 262.116 462.066 262.622 461.773 264.489C461.479 266.342 459.893 266.556 458.359 266.262C454.799 265.582 451.186 266.435 447.626 265.849C446.373 265.649 445.799 266.169 445.786 267.396C445.733 270.782 445.039 274.129 445.186 277.542C445.266 279.529 446.039 280.289 447.973 280.356C451.453 280.476 454.933 280.756 458.413 281.009C459.266 281.076 460.159 281.222 460.959 281.515C462.053 281.915 462.719 282.756 462.546 283.996C462.373 285.222 461.506 285.875 460.333 285.915C454.599 286.129 448.919 285.449 443.266 284.649C441.359 284.382 440.346 282.822 440.266 280.862C440.199 279.409 440.266 277.955 440.266 276.502H440.239Z" fill="black"/>
<path d="M431.533 285.449C424.853 285.143 418.186 285.183 411.506 285.676C407.6 285.969 406.133 283.862 406.147 280.182C406.2 268.582 407.4 257.009 407.16 245.396C407.12 243.756 407.066 242.089 407.253 240.463C407.44 238.77 408.013 236.996 410.133 237.089C412.293 237.183 412.453 238.996 412.613 240.729C413.186 247.116 412.586 253.489 412.506 259.863C412.426 265.663 411.88 271.436 412.066 277.249C412.133 279.343 412.853 280.116 414.8 279.876C420.413 279.169 426.013 279.876 431.626 279.956C431.92 279.956 432.213 279.943 432.493 279.969C434.613 280.249 437.666 279.756 437.586 282.862C437.52 285.969 434.64 285.529 432.413 285.436C432.12 285.436 431.826 285.436 431.546 285.436L431.533 285.449Z" fill="black"/>
<path d="M388.973 286.103C385.093 285.756 381.227 285.849 377.36 286.236C372.107 286.769 370.853 284.809 370.8 279.516C370.68 268.276 372.12 257.103 371.68 245.876C371.6 243.943 371.44 241.983 371.973 240.09C372.36 238.69 373.12 237.503 374.773 237.663C376.413 237.823 377 239.103 377.08 240.57C377.507 249.276 377.427 257.983 376.627 266.65C376.253 270.743 377.013 274.769 376.68 278.836C376.52 280.729 378.227 280.583 379.427 280.45C385.04 279.796 390.64 280.489 396.253 280.556C396.933 280.556 397.613 280.529 398.28 280.636C400.107 280.916 402.346 281.063 402.16 283.583C401.986 285.969 399.933 286.143 397.973 286.116C394.973 286.09 391.973 286.116 388.973 286.116V286.103Z" fill="black"/>
<path d="M680.72 263.502C680 256.436 680.76 249.103 681.32 241.769C681.427 240.369 681.107 238.023 683.24 238.183C685.32 238.329 684.893 240.596 684.68 242.009C683.213 251.343 684.333 260.743 683.84 270.103C683.707 272.703 684.08 275.316 684.147 277.929C684.173 279.103 684.067 280.489 682.533 280.556C680.947 280.623 680.84 279.183 680.746 278.036C680.36 273.303 680.573 268.556 680.72 263.516V263.502Z" fill="black"/>
<path d="M686.652 293.076C686.439 295.036 685.519 296.609 683.306 296.596C681.466 296.596 680.586 295.169 680.586 293.449C680.586 291.329 681.746 289.889 683.932 289.862C685.812 289.849 686.559 291.209 686.652 293.063V293.076Z" fill="black"/>
</svg>
