<svg width="997" height="740" viewBox="0 0 997 740" fill="none" xmlns="http://www.w3.org/2000/svg">
<path d="M994.867 281.056C993.706 242.476 990.963 204.032 981.192 167.699C967.29 115.982 944.024 74.1742 910.43 44.7489C891.371 28.053 870.201 20.5876 847.93 16.7718C814.819 11.1009 781.617 10.2863 748.384 9.77347C715.454 9.26068 682.538 9.66792 649.608 12.443C635.841 13.6044 621.999 14.6899 608.158 15.0368C574.488 15.8663 540.803 17.6915 507.134 17.9781C468.685 18.3099 430.22 18.1892 391.786 16.8167C363.544 15.8062 335.393 11.5079 307.348 6.37998C295.572 4.22324 283.751 2.62426 271.899 2.3377C253.805 1.90032 235.712 1.88521 217.618 2.30751C191.337 2.92588 165.206 5.76185 139.181 11.5232C118.147 16.1685 98.5757 25.3077 81.1906 42.5919C62.4937 61.1731 45.6361 82.0774 35.8202 112.423C26.4265 141.456 19.1288 171.288 14.7863 202.599C12.4642 219.265 8.34795 235.719 7.69959 252.475C7.08139 268.432 4.65374 284.133 5.00054 300.15C5.39257 318.218 2.28654 336.136 3.56819 354.22C4.86491 372.62 4.45777 391.05 7.6845 409.481C11.9667 433.914 20.2444 453.219 33.5132 470.051C54.1402 496.234 78.567 505.811 105.301 506.761C122.806 507.379 140.327 506.987 157.848 506.866L44.4449 699.707L2 738C13.2182 732.073 23.8181 722.692 36.6949 726.221C38.3384 726.673 40.3136 726.055 41.9421 725.196C53.0396 719.329 64.5743 714.623 75.0386 706.991C107.502 683.312 139.287 657.884 170.966 632.184C202.238 606.801 230.992 576.033 262.023 550.152C275.518 538.901 284.987 520.697 294.848 504.242C294.954 504.076 295.059 503.895 295.15 503.714L296.024 503.684C304.498 510.049 313.651 506.715 322.411 506.519C330.93 506.323 339.48 505.011 348.044 504.68C388.242 503.111 428.471 503.322 468.669 502.236C501.872 501.331 535.013 496.882 568.185 494.182C584.002 492.9 599.834 491.498 615.682 491.075C643.818 490.321 671.998 488.948 700.104 490.215C739.82 491.995 779.521 491.859 819.221 492.04C850.403 492.176 880.605 485.223 910.535 472.328C944.431 457.713 968.375 428.499 984.313 384.942C989.65 370.343 990.887 354.129 992.47 338.278C994.37 319.365 995.425 300.211 994.837 281.056H994.867Z" fill="white" stroke="black" stroke-width="3.99999" stroke-linecap="round" stroke-linejoin="round"/>
<path d="M696.579 360.227C696.579 362.027 696.512 363.827 696.592 365.614C696.752 369.014 696.339 372.374 696.112 375.76C695.992 377.6 695.339 379.054 693.272 379.134C690.992 379.214 690.246 377.587 690.206 375.694C690.126 372.401 689.965 369.094 690.272 365.827C691.179 356.241 690.352 346.681 690.219 337.107C690.139 331.467 693.499 328.574 699.126 329.467C702.472 330.001 705.872 330.228 709.125 331.268C714.165 332.881 717.352 337.854 716.792 343.174C716.112 349.707 712.539 354.067 706.605 356.494C704.579 357.321 704.005 357.921 705.432 359.947C708.565 364.374 711.672 368.814 715.445 372.734C716.045 373.36 716.539 374.094 717.045 374.801C718.099 376.254 718.192 377.707 716.778 378.961C715.352 380.227 713.885 379.827 712.618 378.64C708.885 375.107 705.499 371.254 702.632 366.974C701.032 364.574 699.432 362.174 697.472 360.054C697.165 360.107 696.858 360.174 696.565 360.227H696.579ZM696.618 342.027C696.618 344.507 696.578 346.147 696.618 347.787C696.698 350.574 698.059 351.881 700.792 351.641C704.339 351.334 707.285 349.76 709.338 346.814C712.312 342.547 710.339 337.494 705.299 336.414C703.125 335.947 700.925 335.667 698.725 335.347C696.952 335.08 696.205 335.934 696.325 337.667C696.445 339.401 696.552 341.134 696.618 342.027Z" fill="black"/>
<path d="M416.847 365.12C417.793 358.707 418.3 352.667 417.647 346.454C417.18 342.067 417.593 337.574 417.78 333.12C417.847 331.374 418.673 329.76 420.726 329.814C422.566 329.854 423.18 331.361 423.007 332.921C421.82 343.147 424.487 353.428 422.567 363.627C422.087 366.201 421.793 368.8 421.233 371.347C420.82 373.227 419.807 374.84 417.687 375.12C415.407 375.414 414.407 373.761 413.673 372.001C412.3 368.694 410.727 365.454 409.94 361.934C408.58 355.787 405.02 350.654 402.127 344.361C401.46 347.761 401.54 350.427 401.714 353.054C402.114 359.174 401.5 365.241 400.887 371.307C400.807 372.08 400.687 372.854 400.447 373.587C400.1 374.68 399.38 375.467 398.127 375.414C396.9 375.361 396.22 374.574 395.847 373.48C395.433 372.254 395.474 370.96 395.674 369.734C397.367 359.44 396.247 349.054 396.66 338.721C396.727 337.174 396.66 335.6 396.9 334.094C397.167 332.507 397.967 331.067 399.767 330.84C401.66 330.614 402.527 331.96 403.073 333.507C406.767 344.014 413.607 353.174 416.14 364.174C416.193 364.414 416.447 364.601 416.847 365.107V365.12Z" fill="black"/>
<path d="M315.181 288.973C309.874 289.013 305.861 287.027 302.701 283.227C300.874 281.027 300.781 278.56 302.607 277.32C304.954 275.733 306.287 277.293 307.581 279.08C310.474 283.04 315.274 284.066 320.327 281.653C322.594 280.573 325.434 279.827 325.474 276.44C325.514 273.08 323.874 270.76 321.034 269.173C317.394 267.147 313.754 265.133 310.101 263.147C308.474 262.267 306.927 261.32 305.661 259.92C299.101 252.64 301.647 246 308.741 240.707C315.034 236.013 323.554 237.12 329.354 242.427C331.327 244.24 332.154 246.587 332.42 249.147C332.607 250.853 332.021 252.293 330.154 252.667C328.354 253.027 327.314 251.84 327.021 250.333C326.114 245.613 322.461 244.04 318.567 243.72C314.301 243.36 310.634 245.174 308.607 249.387C307.127 252.48 308.394 255.64 312.087 257.693C315.98 259.853 319.874 262.027 323.821 264.093C326.874 265.693 329.034 268.067 330.407 271.187C332.98 277.054 331.154 282.694 325.647 285.88C322.314 287.8 318.767 288.974 315.194 288.96L315.181 288.973Z" fill="black"/>
<path d="M501.647 292.053C496.527 292.12 492.46 290.466 489.394 286.613C488.527 285.52 487.821 284.386 487.874 282.946C487.927 281.6 488.434 280.453 489.794 279.96C491.181 279.467 492.22 280.107 493.074 281.187C497.314 286.52 501.621 287.493 507.714 284.52C511.341 282.747 512.274 279.266 509.981 275.893C509.207 274.76 508.194 273.853 507.021 273.133C503.634 271.067 500.221 269.027 496.847 266.933C487.114 260.907 486.821 252.267 495.78 245.747C503.447 240.173 512.261 243.014 517.234 249.294C518.474 250.854 518.994 252.733 518.807 254.76C518.66 256.333 518.101 257.707 516.301 257.8C514.661 257.893 513.981 256.68 513.554 255.28C511.474 248.533 503.341 246.32 497.967 251.04C493.954 254.56 494.287 258.96 498.847 261.76C502.567 264.04 506.3 266.293 510.06 268.493C514.007 270.813 516.287 274.226 516.914 278.733C517.541 283.28 515.461 287.226 511.367 289.28C508.234 290.853 505.007 292.186 501.674 292.039L501.647 292.053Z" fill="black"/>
<path d="M732.82 292.453C728.473 292.253 724.526 290.733 721.58 287.08C721.22 286.627 720.859 286.16 720.566 285.667C719.433 283.747 719.393 281.853 721.433 280.613C723.393 279.427 724.619 280.693 725.699 282.28C729.219 287.413 737.806 287.987 742.059 283.413C744.366 280.933 743.006 276.04 739.113 273.533C735.779 271.373 732.313 269.453 728.899 267.4C727.993 266.853 727.033 266.333 726.246 265.64C719.953 260.12 719.793 253.56 726.1 247.653C734.846 239.453 747.686 244.334 750.433 252.24C750.713 253.054 750.913 253.933 750.899 254.786C750.873 256.44 750.34 257.974 748.46 258.24C746.46 258.534 745.846 257.04 745.406 255.44C744.433 251.893 740.833 249.08 737.18 248.973C732.967 248.84 728.499 251.8 727.393 255.426C726.713 257.653 728.367 260.706 731.127 262.346C734.873 264.56 738.673 266.72 742.366 269.013C746.739 271.72 748.94 275.64 748.833 280.88C748.753 284.747 747.126 287.493 743.779 289.387C740.419 291.293 736.873 292.413 732.793 292.44L732.82 292.453Z" fill="black"/>
<path d="M508.02 356.72C508.154 361.934 507.753 366.454 505.593 370.627C500.794 379.92 487.3 380.613 481.127 372.253C476.567 366.093 476.1 359.44 477.247 352.387C477.914 348.28 478.447 344.08 480.193 340.28C482.34 335.614 485.407 331.853 491.087 331.373C496.98 330.88 501.18 333.347 503.873 338.547C506.407 343.44 507.74 348.653 508.007 354.147C508.06 355.213 508.007 356.28 508.007 356.733L508.02 356.72ZM502.687 356.867C502.807 351.907 501.994 346.8 499.634 341.987C498.087 338.827 496.087 336.574 492.153 336.614C488.113 336.654 486.154 339.24 484.954 342.373C483.047 347.36 481.727 352.627 482.087 357.973C482.34 361.76 483.193 365.52 485.447 368.907C487.607 372.134 490.5 372.907 493.967 372.6C497.327 372.307 499.767 370.6 501.14 367.467C502.58 364.187 502.754 360.72 502.687 356.867Z" fill="black"/>
<path d="M588.926 355.627C589.073 360.587 588.699 365.107 586.579 369.294C581.793 378.773 568.219 379.52 561.966 371C557.499 364.907 556.993 358.36 558.113 351.4C558.766 347.293 559.313 343.107 561.02 339.28C563.166 334.493 566.273 330.653 572.086 330.2C577.993 329.733 582.153 332.28 584.833 337.48C587.313 342.293 588.619 347.413 588.913 352.8C588.966 353.867 588.913 354.933 588.913 355.64L588.926 355.627ZM583.593 355.72C583.739 350 582.713 344.24 579.526 339.027C576.646 334.307 570.646 334.067 567.419 338.493C566.686 339.507 565.939 340.6 565.579 341.76C564.126 346.48 562.726 351.307 562.966 356.267C563.166 360.28 564.059 364.213 566.393 367.76C568.526 371.013 571.459 371.746 574.913 371.426C578.273 371.12 580.699 369.4 582.059 366.267C583.486 362.987 583.659 359.52 583.593 355.706V355.72Z" fill="black"/>
<path d="M336.446 357.494C335.872 349.987 337.192 342.84 336.339 335.68C336.219 334.734 336.259 333.734 336.366 332.774C336.526 331.241 337.032 329.787 338.859 329.734C340.846 329.667 341.486 331.107 341.592 332.814C341.939 337.934 342.539 343.027 341.832 348.174C341.352 351.68 342.019 352.547 345.486 353.001C349.806 353.574 354.152 353.894 358.472 354.427C360.259 354.64 360.646 353.774 360.686 352.267C360.779 349.147 360.206 346.094 359.846 343.027C359.472 339.921 359.539 336.841 360.166 333.774C360.499 332.121 361.232 330.72 363.219 330.987C365.006 331.227 365.392 332.654 365.459 334.227C365.992 346.4 366.552 358.574 367.072 370.76C367.152 372.614 366.766 374.481 364.566 374.721C362.312 374.974 361.525 373.187 361.432 371.334C361.299 368.44 360.725 365.56 361.139 362.654C361.419 360.68 360.779 359.574 358.552 359.427C353.819 359.134 349.086 358.734 344.379 358.187C342.259 357.947 341.512 358.694 341.646 360.694C341.832 363.294 342.019 365.907 342.112 368.507C342.179 370.347 341.806 372.267 339.606 372.467C337.166 372.694 336.539 370.68 336.472 368.76C336.339 364.894 336.432 361.014 336.432 357.494H336.446Z" fill="black"/>
<path d="M754.06 273.92C753.447 266.28 754.82 259.12 753.927 251.974C753.833 251.214 753.86 250.427 753.9 249.653C754.02 247.853 754.247 245.894 756.593 245.894C758.94 245.894 759.114 247.84 759.247 249.667C759.647 254.787 760.1 259.894 759.367 265.027C759.02 267.454 760.033 268.88 762.647 269.12C767.18 269.533 771.7 270.054 776.22 270.574C777.834 270.76 778.234 269.934 778.3 268.547C778.434 265.427 777.86 262.374 777.487 259.294C777.087 256.094 777.154 252.92 777.82 249.76C778.14 248.227 778.86 246.933 780.687 247.093C782.5 247.253 783.1 248.6 783.047 250.2C782.7 260.48 784.567 270.667 784.274 280.947C784.22 282.867 784.58 284.8 784.673 286.733C784.767 288.693 784.434 290.68 782.047 290.854C779.82 291.014 779.1 289.16 779.033 287.32C778.94 284.52 778.34 281.733 778.753 278.92C779.06 276.813 778.42 275.667 776.033 275.533C771.3 275.253 766.58 274.827 761.86 274.307C759.887 274.094 759.154 274.8 759.274 276.667C759.447 279.374 759.66 282.067 759.74 284.774C759.794 286.64 759.314 288.493 757.1 288.613C754.86 288.733 754.167 286.867 754.113 285.04C753.993 281.173 754.074 277.293 754.074 273.92H754.06Z" fill="black"/>
<path d="M522.367 275.267C521.847 267.84 523.127 260.587 522.273 253.333C522.18 252.573 522.207 251.773 522.273 251.013C522.433 249.293 522.833 247.56 525.033 247.627C527.02 247.68 527.46 249.253 527.567 250.92C527.94 256.133 528.513 261.333 527.726 266.573C527.34 269.107 528.3 270.64 531.086 270.88C535.62 271.28 540.14 271.813 544.66 272.32C546.327 272.506 546.593 271.533 546.647 270.2C546.767 267.08 546.193 264.027 545.82 260.96C545.446 257.854 545.513 254.773 546.113 251.706C546.433 250.066 547.126 248.64 549.113 248.853C550.913 249.053 551.446 250.453 551.393 252.04C551.073 262.6 552.967 273.08 552.62 283.653C552.567 285.479 552.993 287.32 553.007 289.146C553.007 290.933 552.38 292.547 550.3 292.627C548.38 292.693 547.54 291.2 547.433 289.56C547.233 286.573 546.686 283.6 547.1 280.586C547.393 278.4 546.58 277.413 544.287 277.28C539.753 277.026 535.207 276.68 530.7 276.08C528.06 275.733 527.407 276.773 527.607 279.093C527.82 281.506 528.006 283.92 528.073 286.333C528.14 288.28 527.767 290.32 525.353 290.36C522.94 290.413 522.46 288.32 522.406 286.426C522.286 282.653 522.367 278.88 522.367 275.28V275.267Z" fill="black"/>
<path d="M626.339 360.894C625.726 352.907 627.059 345.748 626.193 338.601C626.073 337.654 626.113 336.654 626.219 335.707C626.406 334.067 626.966 332.547 628.993 332.654C630.806 332.747 631.353 334.134 631.46 335.707C631.806 340.827 632.406 345.92 631.699 351.067C631.219 354.574 631.886 355.441 635.339 355.894C639.659 356.467 644.006 356.787 648.326 357.32C650.099 357.534 650.513 356.694 650.553 355.174C650.646 352.054 650.086 349.001 649.713 345.934C649.339 342.828 649.406 339.747 650.032 336.68C650.366 335.04 651.086 333.628 653.073 333.881C654.873 334.121 655.259 335.534 655.326 337.108C655.859 349.281 656.419 361.454 656.939 373.628C657.019 375.481 656.646 377.374 654.446 377.587C652.006 377.827 651.339 375.868 651.273 373.934C651.179 371.134 650.579 368.347 651.006 365.534C651.299 363.561 650.659 362.441 648.433 362.307C643.699 362.001 638.966 361.614 634.259 361.067C632.152 360.827 631.379 361.547 631.526 363.561C631.713 366.267 631.913 368.961 631.993 371.667C632.046 373.427 631.539 375.16 629.499 375.347C627.233 375.56 626.459 373.774 626.392 371.934C626.259 367.974 626.353 364.001 626.353 360.867L626.339 360.894Z" fill="black"/>
<path d="M593.607 272.414C592.967 275.96 593.46 279.067 593.233 282.12C593.1 283.853 592.954 285.6 592.66 287.307C592.474 288.44 591.713 289.24 590.487 289.333C589.26 289.427 588.434 288.693 588.034 287.64C587.727 286.84 587.513 285.934 587.567 285.107C588.393 274.267 587.927 263.4 587.927 252.56C587.927 247.347 589.647 245.56 594.94 245.8C597.353 245.907 599.74 246.44 602.14 246.747C612.447 248.08 612.753 260.04 608.02 265.214C606.287 267.12 604.273 268.613 601.847 269.453C600.047 270.08 599.887 270.84 600.94 272.414C603.54 276.28 606.287 280.013 609.513 283.387C610.047 283.947 610.54 284.547 610.98 285.187C611.953 286.574 612.447 288.067 610.887 289.307C609.433 290.467 608.18 289.667 607.047 288.56C603.714 285.293 600.74 281.733 598.153 277.84C596.94 276 595.82 274.067 593.58 272.427L593.607 272.414ZM593.273 257.44C593.273 258.494 593.273 259.56 593.273 260.613C593.327 264.627 594.434 265.573 598.354 264.973C599.527 264.8 600.567 264.347 601.58 263.76C604.473 262.067 606.3 258.747 605.78 256.134C605.1 252.76 602.567 251.947 599.62 251.48C592.18 250.293 593.3 249.947 593.273 257.44Z" fill="black"/>
<path d="M275.7 191.307C274.167 165.253 283.073 139.987 281.553 113.881C281.207 107.867 284.727 102.787 291.26 102.08C298.393 101.32 302.153 106.04 304.007 112.334C306.487 120.694 304.58 129.161 303.14 137.267C297.607 168.414 300.06 200.16 295.62 231.307C290.14 269.747 265.753 292.853 227.513 297.467C207.327 299.907 186.714 284.88 178.86 262.453C172.234 243.493 172.367 223.96 173.794 204.426C175.474 181.373 177.354 158.347 178.02 135.227C178.247 127.333 179.847 119.387 181.62 111.653C182.9 106.107 186.94 102.454 193.1 103.547C199.113 104.614 201.78 109.08 201.5 114.92C199.887 149.56 198.194 184.187 196.38 218.813C195.66 232.493 196.487 245.973 201.98 258.68C207.714 271.933 217.98 276.813 231.967 273.56C260.153 267.013 273.633 248.027 275.633 211.64C276.007 204.88 275.687 198.08 275.687 191.294L275.7 191.307Z" fill="#55ADE1"/>
<path d="M733.633 378.067C728.353 378.107 724.46 376.347 721.58 372.467C720.22 370.641 719.606 368.614 721.526 367.027C723.606 365.307 725.047 366.894 726.18 368.68C729.767 374.32 737.62 372.441 741.14 369.441C743.18 367.707 742.22 362.947 739.433 361.027C736.007 358.667 732.446 356.48 728.86 354.374C724.766 351.96 721.487 348.694 721.873 343.828C722.26 338.841 725.3 335.121 730.1 333.067C736.313 330.401 741.846 331.614 746.806 335.947C748.806 337.694 749.793 339.974 749.686 342.667C749.633 344.107 749.3 345.481 747.66 345.787C745.846 346.134 745.086 344.867 744.553 343.387C742.166 336.801 734.499 335.054 729.673 340.014C726.433 343.347 726.859 346.827 730.953 349.414C734.473 351.641 738.113 353.667 741.673 355.841C746.033 358.494 748.153 362.374 747.899 367.494C747.726 370.961 746.26 373.588 743.073 375.188C739.926 376.761 736.753 378.187 733.633 378.081V378.067Z" fill="black"/>
<path d="M674.431 271.44C673.298 275.507 673.818 279.44 673.125 283.24C673.005 283.907 673.071 284.6 672.965 285.267C672.711 286.894 672.178 288.493 670.191 288.36C668.031 288.213 667.618 286.48 667.831 284.72C669.231 273.08 669.738 261.387 670.138 249.667C670.244 246.453 672.165 244.586 675.685 244.653C680.471 244.733 685.178 245.654 689.311 248.187C694.044 251.08 694.378 259.627 690.111 264.533C688.138 266.8 685.658 268.28 682.778 269.013C681.031 269.453 680.418 270.04 681.564 271.747C684.524 276.16 687.031 280.893 690.698 284.827C692.004 286.227 693.164 287.974 691.138 289.574C689.284 291.04 687.938 289.534 686.724 288.214C682.964 284.107 680.271 279.266 677.258 274.653C676.538 273.56 676.071 272.213 674.431 271.44ZM674.872 256.72C674.872 256.72 674.804 256.72 674.778 256.72C674.778 258.36 674.804 260.013 674.778 261.653C674.751 263.293 675.658 264.107 677.125 264.52C681.191 265.667 686.938 262.334 687.938 258.24C688.991 253.907 687.311 251.773 681.765 250.453C673.938 248.587 675.031 249.2 674.898 255.56C674.898 255.947 674.898 256.333 674.898 256.72H674.872Z" fill="black"/>
<path d="M349.914 262.653C352.447 262.56 354.954 262.827 357.407 263.44C359.034 263.84 360.421 264.667 360.048 266.627C359.701 268.427 358.101 268.853 356.634 268.507C353.074 267.667 349.488 268.374 345.941 268.134C344.528 268.04 343.781 268.4 343.568 269.92C343.088 273.293 342.914 276.653 342.981 280.053C343.021 281.747 343.781 282.467 345.461 282.547C348.167 282.667 350.861 282.92 353.567 283.107C354.434 283.174 355.327 283.08 356.181 283.253C358.207 283.653 360.994 283.587 360.821 286.52C360.634 289.64 357.821 289.027 355.821 288.92C351.287 288.693 346.741 288.387 342.221 287.854C338.394 287.4 337.114 285.893 337.234 282.066C337.421 275.973 337.914 269.907 338.101 263.813C338.287 258.107 338.261 252.387 338.314 246.68C338.354 242.213 339.688 240.267 344.048 239.227C347.621 238.373 351.274 237.813 354.901 237.227C355.927 237.067 357.047 237.107 358.074 237.32C359.834 237.68 362.154 237.854 362.061 240.294C361.954 243.014 359.541 242.48 357.794 242.467C354.087 242.454 350.474 243.227 346.847 243.774C344.727 244.094 343.567 245.214 343.727 247.52C344.021 251.854 344.514 256.2 343.767 260.547C343.554 261.814 344.234 262.587 345.567 262.627C347.021 262.667 348.474 262.627 349.928 262.627L349.914 262.653Z" fill="black"/>
<path d="M432.459 333.081C431.765 338.534 432.019 344.054 431.925 349.574C431.885 352.107 432.659 352.201 434.525 350.934C441.339 346.308 448.272 341.841 454.872 336.894C455.645 336.321 456.459 335.761 457.325 335.361C458.285 334.921 459.245 335.121 459.939 336.001C460.645 336.907 460.552 337.867 459.845 338.654C459.005 339.574 458.058 340.427 457.072 341.187C451.765 345.267 446.272 349.08 440.632 352.68C438.845 353.814 438.285 354.681 440.445 356.134C445.952 359.814 450.392 364.708 455.098 369.294C456.352 370.507 457.698 371.761 456.152 373.441C454.712 374.987 453.045 374.174 451.752 373.027C447.285 369.027 443.472 364.307 438.365 361.027C438.125 360.867 437.952 360.614 437.712 360.454C436.152 359.334 434.565 357.614 432.592 358.374C430.552 359.16 431.592 361.441 431.405 363.081C431.085 365.867 431.005 368.681 430.672 371.467C430.472 373.187 429.805 374.867 427.685 374.734C425.472 374.587 425.218 372.774 425.392 371.054C426.085 364.401 426.419 357.72 426.605 351.04C426.779 344.947 426.872 338.854 427.165 332.774C427.259 330.707 426.632 327.494 429.779 327.548C433.112 327.601 432.165 330.867 432.472 333.094L432.459 333.081Z" fill="black"/>
<path d="M455.113 273.094C456.06 265.494 455.513 257.814 456.46 250.227C456.713 248.227 456.594 245.28 459.594 245.64C462.514 246 461.34 248.707 461.327 250.627C461.287 259.241 460.274 267.827 460.554 276.441C460.554 276.734 460.554 277.027 460.58 277.307C460.807 282.134 462.98 285.76 466.02 286.36C469.647 287.067 475.06 284.201 476.94 280.547C478.887 276.761 479.833 272.694 479.433 268.48C479.127 265.24 479.407 262.08 479.9 258.947C480.434 255.587 480.914 252.254 480.874 248.854C480.847 247.081 481.167 245.334 483.34 245.294C485.634 245.241 486.087 247.081 486.193 248.934C486.407 252.641 485.953 256.281 485.113 259.881C483.847 265.307 485.3 270.854 484.113 276.334C482.22 285.014 477.273 290.147 468.487 291.68C463.633 292.52 458.34 289.16 456.527 283.987C455.287 280.467 454.953 276.813 455.113 273.094Z" fill="black"/>
<path d="M662.713 367.027C662.806 361.307 663.406 355.614 663.753 349.921C663.926 346.934 663.526 343.934 663.486 340.934C663.433 335.494 664.646 333.934 670.02 332.694C672.94 332.014 675.913 331.534 678.886 331.027C680.433 330.761 681.993 330.907 683.486 331.414C684.806 331.854 686.219 332.374 685.979 334.107C685.752 335.787 684.366 336.214 682.926 336.147C679.312 336.014 675.793 336.708 672.246 337.214C669.553 337.601 668.566 338.867 668.779 341.48C669.099 345.24 669.553 349.001 668.873 352.774C668.553 354.574 669.712 355.161 671.312 355.187C674.019 355.241 676.739 355.267 679.446 355.387C680.299 355.427 681.166 355.668 682.006 355.934C683.299 356.334 684.353 357.094 684.126 358.628C683.886 360.161 682.606 360.76 681.312 360.534C677.926 359.934 674.553 360.507 671.193 360.307C669.419 360.201 668.806 360.681 668.553 362.387C668.099 365.374 668.086 368.374 668.086 371.374C668.086 373.08 668.873 373.787 670.553 373.854C673.739 373.987 676.926 374.267 680.113 374.454C681.286 374.52 682.446 374.587 683.473 375.214C684.446 375.814 685.073 376.654 684.833 377.867C684.593 379.067 683.753 379.721 682.579 379.774C677.046 380.041 671.54 379.48 666.073 378.68C663.926 378.36 662.739 376.787 662.726 374.547C662.699 372.027 662.726 369.507 662.726 366.987L662.713 367.027Z" fill="black"/>
<path d="M706.725 267.227C708.859 267.267 711.006 267.147 713.072 267.801C714.459 268.241 715.659 268.974 715.325 270.667C714.992 272.32 713.606 272.814 712.179 272.534C709.086 271.934 705.992 272.24 702.898 272.147C701.232 272.094 700.485 272.734 700.219 274.427C699.779 277.227 699.792 280.014 699.752 282.827C699.739 284.734 700.685 285.32 702.445 285.373C705.739 285.493 709.019 285.76 712.299 286C714.259 286.147 716.205 286.614 716.032 289.08C715.858 291.56 713.952 291.707 711.939 291.547C707.885 291.214 703.832 290.934 699.766 290.667C695.819 290.4 693.899 288.574 694.032 284.534C694.285 277.48 694.872 270.427 695.165 263.373C695.312 259.707 695.112 256.027 695.126 252.36C695.126 248.334 696.526 246.374 700.352 245.427C704.112 244.507 707.872 243.481 711.792 243.521C712.752 243.521 713.739 243.601 714.659 243.854C716.019 244.241 717.285 244.987 717.112 246.64C716.925 248.32 715.565 248.8 714.112 248.76C710.499 248.667 706.979 249.241 703.432 249.827C701.166 250.201 700.285 251.254 700.392 253.534C700.565 257.294 701.166 261.041 700.459 264.827C700.179 266.334 701.032 267.227 702.605 267.241C703.965 267.267 705.312 267.241 706.672 267.241L706.725 267.227Z" fill="black"/>
<path d="M628.085 267.347C629.885 267.267 632.018 267.32 634.085 267.96C635.392 268.36 636.432 269.106 636.179 270.653C635.939 272.16 634.712 272.827 633.392 272.613C630.205 272.093 627.019 272.667 623.845 272.453C622.032 272.333 621.338 272.933 621.338 274.667C621.325 277.187 621.272 279.707 621.192 282.214C621.138 284.04 621.965 284.814 623.792 284.88C626.499 284.974 629.205 285.214 631.898 285.44C632.951 285.534 634.032 285.64 635.018 285.986C636.312 286.44 637.098 287.44 636.885 288.907C636.685 290.267 635.672 290.92 634.445 291.013C633.112 291.106 631.752 290.96 630.405 290.854C627.125 290.614 623.845 290.373 620.565 290.067C616.965 289.733 615.445 287.814 615.605 284.267C616.072 274.12 616.845 263.974 616.632 253.8C616.525 248.654 618.139 246.76 623.152 245.907C626.485 245.334 629.778 244.36 633.218 244.613C634.178 244.68 635.165 244.733 636.085 244.987C637.298 245.32 638.178 246.093 638.058 247.48C637.925 248.933 636.845 249.44 635.591 249.4C631.978 249.307 628.458 249.933 624.938 250.613C622.765 251.04 621.765 252.093 621.872 254.373C622.005 257.373 621.965 260.373 621.938 263.373C621.912 267.187 621.979 267.293 625.765 267.333C626.445 267.333 627.125 267.333 628.138 267.333L628.085 267.347Z" fill="black"/>
<path d="M600.033 365.534C599.553 356.694 601.233 349.04 601.166 341.28C601.139 337.534 601.006 337.294 597.34 337.241C594.433 337.187 591.526 337.214 588.633 337C587.033 336.88 585.393 336.147 585.633 334.161C585.873 332.147 587.5 331.707 589.326 331.734C598.513 331.854 607.712 331.934 616.899 332.027C617.286 332.027 617.673 332.027 618.059 332.027C620.046 332.067 622.393 332.054 622.38 334.707C622.353 337.373 619.926 337.28 617.993 337.32C615.286 337.373 612.566 337.347 609.846 337.267C607.926 337.214 607.1 337.92 606.993 339.947C606.553 348.454 605.913 356.947 605.486 365.44C605.366 367.947 605.739 370.467 605.766 372.974C605.793 374.894 605.086 376.6 602.899 376.614C600.859 376.614 600.139 374.907 600.059 373.174C599.913 370.28 600.02 367.36 600.02 365.534H600.033Z" fill="black"/>
<path d="M437.98 288.2C434.887 288.36 431.794 288.56 428.687 288.653C424.434 288.787 423.287 287.401 423.207 283.187C422.994 271.961 424.207 260.747 423.767 249.521C423.714 248.281 423.847 247.001 424.087 245.774C424.3 244.654 425.087 243.867 426.3 243.801C427.554 243.734 428.274 244.56 428.647 245.614C428.914 246.32 429.06 247.121 429.06 247.881C429.02 255.427 429.54 262.974 428.674 270.521C428.247 274.201 428.754 277.867 428.94 281.534C429.047 283.6 430.607 283.147 431.727 283.054C436.954 282.627 442.18 283.054 447.407 283.12C447.794 283.12 448.18 283.121 448.567 283.134C450.314 283.214 452.1 283.52 452.154 285.667C452.207 287.814 450.474 288.32 448.714 288.36C445.127 288.427 441.54 288.373 437.954 288.373C437.954 288.32 437.954 288.267 437.954 288.214L437.98 288.2Z" fill="black"/>
<path d="M527.767 332.427C529.607 332.427 531.447 332.4 533.287 332.427C534.58 332.453 536.02 332.507 536.18 334.173C536.353 336 534.833 336.413 533.46 336.533C529.887 336.853 526.313 336.987 522.74 337.254C521.58 337.334 520.447 337.64 519.3 337.774C517.66 337.96 516.953 338.934 516.873 340.494C516.673 344.16 516.38 347.827 516.26 351.507C516.14 355.12 516.86 355.827 520.407 355.6C523.327 355.414 526.207 355.854 529.087 356.107C530.62 356.24 532.487 356.6 532.207 358.72C531.967 360.614 530.193 360.587 528.74 360.507C525.167 360.333 521.58 360.147 518.034 359.774C516.327 359.6 515.78 360.16 515.74 361.787C515.633 365.453 516.047 369.16 515.327 372.8C514.994 374.454 514.593 376.4 512.447 376.107C510.073 375.787 510.473 373.774 510.553 371.96C510.94 363.36 511.26 354.747 511.527 346.147C511.62 343.133 512.06 340.174 512.58 337.214C513.007 334.747 514.273 333.44 516.793 333.254C520.46 332.974 524.087 332.2 527.793 332.414L527.767 332.427Z" fill="black"/>
<path d="M645.218 279.346C645.218 281.866 645.271 284.4 644.618 286.854C644.218 288.347 643.525 289.733 641.658 289.333C640.018 288.973 639.764 287.573 639.898 286.12C640.698 277.053 640.631 267.947 640.991 258.867C641.111 255.853 641.565 252.893 642.152 249.947C642.538 248 643.618 246.894 645.618 246.6C651.391 245.734 657.191 245.653 663.004 245.68C664.218 245.68 665.485 245.893 665.658 247.373C665.858 249.027 664.565 249.6 663.271 249.707C659.418 250.053 655.538 250.187 651.685 250.547C646.511 251.027 646.485 251.147 646.245 256.307C646.111 259.2 645.818 262.093 645.725 265C645.618 268.347 646.391 269.08 649.831 268.854C652.751 268.654 655.632 269.12 658.512 269.346C660.045 269.466 661.911 269.813 661.685 271.92C661.485 273.827 659.711 273.827 658.258 273.76C654.871 273.613 651.472 273.574 648.125 273.08C645.565 272.694 645.031 273.707 645.191 275.867C645.271 277.027 645.205 278.186 645.205 279.346H645.218Z" fill="black"/>
<path d="M412.459 243.934C414.393 243.934 416.34 243.907 418.273 243.934C419.406 243.96 420.486 244.293 420.633 245.613C420.806 247.093 419.726 247.76 418.499 247.88C415.033 248.214 411.553 248.4 408.073 248.64C407.593 248.68 407.1 248.707 406.62 248.76C401.46 249.32 401.433 249.373 401.193 254.56C401.046 257.56 400.766 260.547 400.673 263.547C400.58 266.52 401.393 267.306 404.5 267.093C407.526 266.893 410.486 267.347 413.473 267.587C415.006 267.707 416.873 268.053 416.633 270.173C416.42 272.08 414.646 272.067 413.193 272C409.806 271.853 406.406 271.813 403.059 271.32C400.473 270.933 400.126 271.987 400.113 274.12C400.113 277.506 400.419 280.907 399.726 284.267C399.393 285.92 399.006 287.867 396.86 287.6C394.486 287.307 394.846 285.293 394.926 283.48C395.313 275.067 395.633 266.654 395.886 258.24C395.98 254.934 396.393 251.694 397.006 248.44C397.446 246.067 398.793 244.933 401.139 244.733C404.899 244.413 408.633 243.68 412.433 243.907L412.459 243.934Z" fill="black"/>
<path d="M315.607 330.92C319.78 330.92 323.94 330.92 328.113 330.92C328.887 330.92 329.673 330.92 330.433 331.067C331.78 331.307 332.86 331.974 332.82 333.521C332.78 334.947 331.7 335.36 330.487 335.68C327.674 336.387 324.887 335.627 322.087 335.56C319.407 335.507 318.34 336.214 318.34 339.12C318.314 349.187 316.527 359.187 317.167 369.294C317.274 370.947 316.82 372.56 314.82 372.68C312.58 372.827 312.14 371.027 312.007 369.347C311.487 362.653 312.007 355.987 312.58 349.32C312.9 345.653 313.113 341.987 313.393 338.32C313.527 336.507 312.74 335.587 310.874 335.601C307.967 335.601 305.06 335.614 302.154 335.56C300.434 335.534 298.554 335.267 298.58 333.081C298.594 330.774 300.58 330.827 302.247 330.814C306.7 330.787 311.167 330.814 315.62 330.814C315.62 330.854 315.62 330.88 315.62 330.92H315.607Z" fill="black"/>
<path d="M379.633 374.494C378.18 374.494 376.726 374.547 375.273 374.48C373.886 374.414 372.806 373.8 372.526 372.347C372.246 370.867 373.046 369.761 374.393 369.494C376.78 369.027 377.046 367.494 377.14 365.467C377.58 355.894 377.94 346.32 378.993 336.787C379.166 335.174 378.686 334.467 377.14 334.2C375.806 333.96 374.726 333.227 374.793 331.694C374.86 329.961 376.22 329.347 377.62 329.361C381.78 329.401 385.94 329.587 390.086 329.84C391.433 329.92 392.553 330.76 392.486 332.28C392.42 334 391.086 334.387 389.62 334.521C384.393 334.987 384.7 335.04 383.993 340.2C382.886 348.28 382.86 356.4 382.446 364.507C382.34 366.734 382.166 368.787 385.14 369.36C386.353 369.6 387.033 370.72 386.886 372.054C386.726 373.56 385.62 374.213 384.273 374.32C382.726 374.44 381.18 374.347 379.62 374.347C379.62 374.4 379.62 374.454 379.62 374.494H379.633Z" fill="black"/>
<path d="M569.673 288.294C569.446 291.92 567.686 294.8 564.766 296.986C563.846 297.68 562.606 298.333 561.646 297.173C560.553 295.853 561.846 295.173 562.699 294.4C563.553 293.627 564.352 292.787 565.072 291.907C565.606 291.254 565.726 290.493 564.832 289.947C563.086 288.867 561.926 287.467 563.232 285.44C564.072 284.147 565.379 282.987 567.112 283.494C569.432 284.16 569.473 286.267 569.673 288.307V288.294Z" fill="black"/>
<path d="M378.38 282.935C378.46 286.895 376.019 290.721 373.246 291.521C372.286 291.801 371.246 292.054 370.646 291.014C369.966 289.801 371.033 289.347 371.846 288.814C374.806 286.867 374.833 286.601 372.219 284.147C371.313 283.307 371.126 282.308 371.539 281.241C372.059 279.895 373.113 279.041 374.539 278.774C375.806 278.534 376.913 278.948 377.459 280.134C377.939 281.174 378.166 282.321 378.366 282.935H378.38Z" fill="black"/>
<path d="M761.473 373.387C759.339 373.387 756.886 370.973 756.873 369.066C756.873 367.04 758.526 365.467 760.659 365.493C762.886 365.52 765.512 368.133 765.259 370.28C764.992 372.547 763.179 373.093 761.473 373.373V373.387Z" fill="black"/>
<path d="M776.753 373.654C774.753 373.627 773.299 371.841 773.313 369.414C773.313 367.307 775.166 365.534 777.259 365.614C779.259 365.694 781.473 367.854 781.486 369.734C781.486 371.534 778.886 373.694 776.753 373.654Z" fill="black"/>
<path d="M795.339 373.373C793.352 373.333 790.432 371.067 790.526 369.653C790.646 367.573 792.512 365.841 794.579 365.881C796.952 365.934 798.872 368.054 798.766 370.521C798.699 372.107 797.139 373.413 795.352 373.373H795.339Z" fill="black"/>
<path d="M798.645 289.774C796.951 289.547 795.472 288.56 795.152 286.48C794.899 284.813 797.205 282.601 799.152 282.601C801.152 282.601 802.498 283.614 802.671 285.694C802.845 287.814 801.071 289.707 798.645 289.787V289.774Z" fill="black"/>
</svg>
