<svg width="997" height="740" viewBox="0 0 997 740" fill="none" xmlns="http://www.w3.org/2000/svg">
<path d="M2.13251 281.056C3.29353 242.475 6.03786 204.032 15.8085 167.699C29.7106 115.982 52.9761 74.1742 86.5703 44.7489C105.629 28.053 126.799 20.5868 149.069 16.7711C182.181 11.1002 215.383 10.2863 248.615 9.77347C281.546 9.26068 314.462 9.66792 347.392 12.443C361.159 13.6044 375.001 14.6899 388.842 15.0368C422.512 15.8663 456.197 17.6915 489.866 17.9781C528.315 18.3099 566.78 18.1892 605.214 16.8167C633.456 15.8062 661.607 11.5079 689.652 6.37998C701.428 4.22324 713.249 2.62426 725.101 2.3377C743.195 1.90032 761.288 1.88521 779.382 2.30751C805.663 2.92588 831.794 5.76112 857.819 11.5225C878.853 16.1678 898.424 25.3077 915.809 42.5919C934.506 61.1731 951.364 82.0774 961.18 112.423C970.573 141.456 977.871 171.288 982.214 202.598C984.536 219.264 988.652 235.719 989.3 252.475C989.919 268.432 992.346 284.133 991.999 300.15C991.607 318.218 994.713 336.136 993.432 354.22C992.135 372.62 992.542 391.05 989.315 409.481C985.033 433.914 976.756 453.219 963.487 470.05C942.86 496.233 918.433 505.811 891.699 506.761C874.194 507.379 856.673 506.987 839.152 506.866L952.555 699.706L995 738C983.782 732.073 973.182 722.692 960.305 726.221C958.662 726.673 956.686 726.055 955.058 725.195C943.96 719.328 932.426 714.623 921.961 706.991C889.498 683.312 857.714 657.883 826.034 632.183C794.762 606.8 766.008 576.033 734.977 550.152C721.482 538.901 712.013 520.696 702.152 504.241C702.046 504.075 701.941 503.895 701.85 503.714L700.976 503.684C692.502 510.049 683.349 506.715 674.589 506.519C666.07 506.323 657.52 505.011 648.956 504.679C608.758 503.11 568.529 503.322 528.331 502.236C495.128 501.331 461.987 496.881 428.815 494.182C412.998 492.9 397.166 491.497 381.318 491.075C353.182 490.321 325.001 488.948 296.896 490.215C257.18 491.995 217.479 491.859 177.778 492.04C146.596 492.176 116.395 485.223 86.465 472.328C52.5693 457.713 28.6249 428.499 12.6872 384.942C7.34956 370.343 6.11328 354.129 4.53007 338.278C2.63022 319.365 1.57465 300.21 2.1627 281.056H2.13251Z" fill="white" stroke="black" stroke-width="3.99999" stroke-linecap="round" stroke-linejoin="round"/>
<path d="M695.579 356.227C695.579 358.027 695.512 359.827 695.592 361.614C695.752 365.014 695.339 368.374 695.112 371.76C694.992 373.6 694.339 375.054 692.272 375.134C689.992 375.214 689.245 373.587 689.205 371.694C689.125 368.401 688.965 365.094 689.272 361.827C690.179 352.241 689.352 342.681 689.219 333.107C689.139 327.467 692.499 324.574 698.125 325.467C701.472 326.001 704.872 326.228 708.125 327.268C713.165 328.881 716.352 333.854 715.792 339.174C715.112 345.707 711.539 350.067 705.605 352.494C703.579 353.321 703.005 353.921 704.432 355.947C707.565 360.374 710.672 364.814 714.445 368.734C715.045 369.36 715.539 370.094 716.046 370.801C717.099 372.254 717.192 373.707 715.779 374.961C714.352 376.227 712.885 375.827 711.619 374.64C707.885 371.107 704.499 367.254 701.632 362.974C700.032 360.574 698.432 358.174 696.472 356.054C696.165 356.107 695.859 356.174 695.565 356.227H695.579ZM695.619 338.027C695.619 340.507 695.579 342.147 695.619 343.787C695.699 346.574 697.059 347.881 699.792 347.641C703.339 347.334 706.286 345.76 708.339 342.814C711.312 338.547 709.339 333.494 704.299 332.414C702.125 331.947 699.925 331.667 697.725 331.347C695.952 331.08 695.206 331.934 695.326 333.667C695.446 335.401 695.552 337.134 695.619 338.027Z" fill="black"/>
<path d="M415.847 361.12C416.793 354.707 417.3 348.667 416.647 342.454C416.18 338.067 416.593 333.574 416.78 329.12C416.847 327.374 417.673 325.76 419.726 325.814C421.566 325.854 422.18 327.361 422.007 328.921C420.82 339.147 423.487 349.428 421.567 359.627C421.087 362.201 420.793 364.8 420.233 367.347C419.82 369.227 418.807 370.84 416.687 371.12C414.407 371.414 413.407 369.761 412.673 368.001C411.3 364.694 409.727 361.454 408.94 357.934C407.58 351.787 404.02 346.654 401.127 340.361C400.46 343.761 400.54 346.427 400.714 349.054C401.114 355.174 400.5 361.241 399.887 367.307C399.807 368.08 399.687 368.854 399.447 369.587C399.1 370.68 398.38 371.467 397.127 371.414C395.9 371.361 395.22 370.574 394.847 369.48C394.433 368.254 394.474 366.96 394.674 365.734C396.367 355.44 395.247 345.054 395.66 334.721C395.727 333.174 395.66 331.6 395.9 330.094C396.167 328.507 396.967 327.067 398.767 326.84C400.66 326.614 401.527 327.96 402.073 329.507C405.767 340.014 412.607 349.174 415.14 360.174C415.193 360.414 415.447 360.601 415.847 361.107V361.12Z" fill="black"/>
<path d="M314.18 284.973C308.873 285.013 304.86 283.027 301.7 279.227C299.873 277.027 299.78 274.56 301.606 273.32C303.953 271.733 305.286 273.293 306.58 275.08C309.473 279.04 314.273 280.066 319.326 277.653C321.593 276.573 324.433 275.827 324.473 272.44C324.513 269.08 322.873 266.76 320.033 265.173C316.393 263.147 312.753 261.133 309.1 259.147C307.473 258.267 305.926 257.32 304.66 255.92C298.1 248.64 300.646 242 307.74 236.707C314.033 232.013 322.553 233.12 328.353 238.427C330.326 240.24 331.153 242.587 331.419 245.147C331.606 246.853 331.02 248.293 329.153 248.667C327.353 249.027 326.313 247.84 326.02 246.333C325.113 241.613 321.46 240.04 317.566 239.72C313.3 239.36 309.633 241.174 307.606 245.387C306.126 248.48 307.393 251.64 311.086 253.693C314.98 255.853 318.873 258.027 322.82 260.093C325.873 261.693 328.033 264.067 329.406 267.187C331.979 273.054 330.153 278.694 324.646 281.88C321.313 283.8 317.766 284.974 314.193 284.96L314.18 284.973Z" fill="black"/>
<path d="M500.646 288.053C495.526 288.12 491.459 286.466 488.393 282.613C487.526 281.52 486.82 280.386 486.873 278.946C486.926 277.6 487.433 276.453 488.793 275.96C490.18 275.467 491.219 276.107 492.073 277.187C496.313 282.52 500.62 283.493 506.713 280.52C510.34 278.747 511.273 275.266 508.98 271.893C508.206 270.76 507.193 269.853 506.02 269.133C502.633 267.067 499.22 265.027 495.846 262.933C486.113 256.907 485.82 248.267 494.78 241.747C502.446 236.173 511.26 239.014 516.233 245.294C517.473 246.854 517.993 248.733 517.806 250.76C517.659 252.333 517.1 253.707 515.3 253.8C513.66 253.893 512.98 252.68 512.553 251.28C510.473 244.533 502.34 242.32 496.966 247.04C492.953 250.56 493.286 254.96 497.846 257.76C501.566 260.04 505.299 262.293 509.059 264.493C513.006 266.813 515.286 270.226 515.913 274.733C516.54 279.28 514.46 283.226 510.366 285.28C507.233 286.853 504.006 288.186 500.673 288.039L500.646 288.053Z" fill="black"/>
<path d="M731.818 288.453C727.472 288.253 723.525 286.733 720.579 283.08C720.219 282.627 719.859 282.16 719.565 281.667C718.432 279.747 718.392 277.853 720.432 276.613C722.392 275.427 723.619 276.693 724.699 278.28C728.219 283.413 736.805 283.987 741.058 279.413C743.365 276.933 742.005 272.04 738.112 269.533C734.778 267.373 731.312 265.453 727.899 263.4C726.992 262.853 726.032 262.333 725.245 261.64C718.952 256.12 718.792 249.56 725.098 243.653C733.845 235.453 746.685 240.334 749.432 248.24C749.712 249.054 749.912 249.933 749.899 250.786C749.872 252.44 749.338 253.974 747.458 254.24C745.458 254.534 744.845 253.04 744.405 251.44C743.432 247.893 739.832 245.08 736.179 244.973C731.965 244.84 727.498 247.8 726.392 251.426C725.712 253.653 727.365 256.706 730.125 258.346C733.872 260.56 737.672 262.72 741.365 265.013C745.739 267.72 747.938 271.64 747.832 276.88C747.752 280.747 746.125 283.493 742.778 285.387C739.418 287.293 735.872 288.413 731.792 288.44L731.818 288.453Z" fill="black"/>
<path d="M507.02 352.72C507.154 357.934 506.753 362.454 504.593 366.627C499.794 375.92 486.3 376.613 480.127 368.253C475.567 362.093 475.1 355.44 476.247 348.387C476.914 344.28 477.447 340.08 479.193 336.28C481.34 331.614 484.407 327.853 490.087 327.373C495.98 326.88 500.18 329.347 502.873 334.547C505.407 339.44 506.74 344.653 507.007 350.147C507.06 351.213 507.007 352.28 507.007 352.733L507.02 352.72ZM501.687 352.867C501.807 347.907 500.994 342.8 498.634 337.987C497.087 334.827 495.087 332.574 491.153 332.614C487.113 332.654 485.154 335.24 483.954 338.373C482.047 343.36 480.727 348.627 481.087 353.973C481.34 357.76 482.193 361.52 484.447 364.907C486.607 368.134 489.5 368.907 492.967 368.6C496.327 368.307 498.767 366.6 500.14 363.467C501.58 360.187 501.754 356.72 501.687 352.867Z" fill="black"/>
<path d="M587.926 351.627C588.073 356.587 587.699 361.107 585.579 365.294C580.793 374.773 567.219 375.52 560.966 367C556.499 360.907 555.993 354.36 557.113 347.4C557.766 343.293 558.313 339.107 560.02 335.28C562.166 330.493 565.273 326.653 571.086 326.2C576.993 325.733 581.153 328.28 583.833 333.48C586.313 338.293 587.619 343.413 587.913 348.8C587.966 349.867 587.913 350.933 587.913 351.64L587.926 351.627ZM582.593 351.72C582.739 346 581.713 340.24 578.526 335.027C575.646 330.307 569.646 330.067 566.419 334.493C565.686 335.507 564.939 336.6 564.579 337.76C563.126 342.48 561.726 347.307 561.966 352.267C562.166 356.28 563.059 360.213 565.393 363.76C567.526 367.013 570.459 367.746 573.913 367.426C577.273 367.12 579.699 365.4 581.059 362.267C582.486 358.987 582.659 355.52 582.593 351.706V351.72Z" fill="black"/>
<path d="M335.447 353.494C334.873 345.987 336.193 338.84 335.34 331.68C335.22 330.734 335.26 329.734 335.367 328.774C335.527 327.241 336.033 325.787 337.86 325.734C339.847 325.667 340.487 327.107 340.593 328.814C340.94 333.934 341.54 339.027 340.833 344.174C340.353 347.68 341.02 348.547 344.487 349.001C348.807 349.574 353.153 349.894 357.473 350.427C359.26 350.64 359.647 349.774 359.687 348.267C359.78 345.147 359.207 342.094 358.847 339.027C358.473 335.921 358.54 332.841 359.166 329.774C359.5 328.121 360.233 326.72 362.22 326.987C364.007 327.227 364.393 328.654 364.46 330.227C364.993 342.4 365.553 354.574 366.073 366.76C366.153 368.614 365.767 370.481 363.567 370.721C361.313 370.974 360.526 369.187 360.433 367.334C360.3 364.44 359.726 361.56 360.14 358.654C360.42 356.68 359.78 355.574 357.553 355.427C352.82 355.134 348.087 354.734 343.38 354.187C341.26 353.947 340.513 354.694 340.647 356.694C340.833 359.294 341.02 361.907 341.113 364.507C341.18 366.347 340.807 368.267 338.607 368.467C336.167 368.694 335.54 366.68 335.473 364.76C335.34 360.894 335.433 357.014 335.433 353.494H335.447Z" fill="black"/>
<path d="M753.058 269.92C752.444 262.28 753.818 255.12 752.925 247.974C752.831 247.214 752.858 246.427 752.898 245.653C753.018 243.853 753.245 241.894 755.591 241.894C757.938 241.894 758.111 243.84 758.245 245.667C758.645 250.787 759.098 255.894 758.365 261.027C758.018 263.454 759.031 264.88 761.645 265.12C766.178 265.533 770.698 266.054 775.218 266.574C776.831 266.76 777.231 265.934 777.298 264.547C777.431 261.427 776.858 258.374 776.485 255.294C776.085 252.094 776.151 248.92 776.818 245.76C777.138 244.227 777.858 242.933 779.685 243.093C781.498 243.253 782.098 244.6 782.045 246.2C781.698 256.48 783.565 266.667 783.271 276.947C783.218 278.867 783.578 280.8 783.671 282.733C783.765 284.693 783.431 286.68 781.045 286.854C778.818 287.014 778.098 285.16 778.031 283.32C777.938 280.52 777.338 277.733 777.751 274.92C778.058 272.813 777.418 271.667 775.031 271.533C770.298 271.253 765.578 270.827 760.858 270.307C758.885 270.094 758.151 270.8 758.271 272.667C758.445 275.374 758.658 278.067 758.738 280.774C758.791 282.64 758.311 284.493 756.098 284.613C753.858 284.733 753.165 282.867 753.111 281.04C752.991 277.173 753.071 273.293 753.071 269.92H753.058Z" fill="black"/>
<path d="M521.366 271.267C520.846 263.84 522.126 256.587 521.272 249.333C521.179 248.573 521.206 247.773 521.272 247.013C521.432 245.293 521.832 243.56 524.032 243.627C526.019 243.68 526.459 245.253 526.566 246.92C526.939 252.133 527.512 257.333 526.725 262.573C526.339 265.107 527.299 266.64 530.085 266.88C534.619 267.28 539.139 267.813 543.659 268.32C545.326 268.506 545.592 267.533 545.646 266.2C545.766 263.08 545.192 260.027 544.819 256.96C544.445 253.854 544.512 250.773 545.112 247.706C545.432 246.066 546.125 244.64 548.112 244.853C549.912 245.053 550.445 246.453 550.392 248.04C550.072 258.6 551.966 269.08 551.619 279.653C551.566 281.479 551.992 283.32 552.006 285.146C552.006 286.933 551.379 288.547 549.299 288.627C547.379 288.693 546.539 287.2 546.432 285.56C546.232 282.573 545.685 279.6 546.099 276.586C546.392 274.4 545.579 273.413 543.286 273.28C538.752 273.026 534.206 272.68 529.699 272.08C527.059 271.733 526.406 272.773 526.606 275.093C526.819 277.506 527.005 279.92 527.072 282.333C527.139 284.28 526.766 286.32 524.352 286.36C521.939 286.413 521.459 284.32 521.405 282.426C521.285 278.653 521.366 274.88 521.366 271.28V271.267Z" fill="black"/>
<path d="M625.339 356.894C624.726 348.907 626.059 341.748 625.193 334.601C625.073 333.654 625.113 332.654 625.219 331.707C625.406 330.067 625.966 328.547 627.993 328.654C629.806 328.747 630.353 330.134 630.459 331.707C630.806 336.827 631.406 341.92 630.699 347.067C630.219 350.574 630.886 351.441 634.339 351.894C638.659 352.467 643.006 352.787 647.326 353.32C649.099 353.534 649.513 352.694 649.553 351.174C649.646 348.054 649.086 345.001 648.713 341.934C648.339 338.828 648.406 335.747 649.033 332.68C649.366 331.04 650.086 329.628 652.072 329.881C653.872 330.121 654.259 331.534 654.326 333.108C654.859 345.281 655.419 357.454 655.939 369.628C656.019 371.481 655.646 373.374 653.446 373.587C651.006 373.827 650.339 371.868 650.273 369.934C650.179 367.134 649.579 364.347 650.006 361.534C650.299 359.561 649.659 358.441 647.432 358.307C642.699 358.001 637.966 357.614 633.259 357.067C631.153 356.827 630.379 357.547 630.526 359.561C630.713 362.267 630.913 364.961 630.993 367.667C631.046 369.427 630.539 371.16 628.499 371.347C626.233 371.56 625.459 369.774 625.392 367.934C625.259 363.974 625.353 360.001 625.353 356.867L625.339 356.894Z" fill="black"/>
<path d="M592.606 268.414C591.966 271.96 592.459 275.067 592.232 278.12C592.099 279.853 591.953 281.6 591.659 283.307C591.473 284.44 590.712 285.24 589.486 285.333C588.259 285.427 587.433 284.693 587.033 283.64C586.726 282.84 586.512 281.934 586.566 281.107C587.392 270.267 586.926 259.4 586.926 248.56C586.926 243.347 588.646 241.56 593.939 241.8C596.352 241.907 598.739 242.44 601.139 242.747C611.446 244.08 611.753 256.04 607.019 261.214C605.286 263.12 603.272 264.613 600.846 265.453C599.046 266.08 598.886 266.84 599.939 268.414C602.539 272.28 605.286 276.013 608.512 279.387C609.046 279.947 609.539 280.547 609.979 281.187C610.952 282.574 611.446 284.067 609.886 285.307C608.432 286.467 607.179 285.667 606.046 284.56C602.713 281.293 599.739 277.733 597.152 273.84C595.939 272 594.819 270.067 592.579 268.427L592.606 268.414ZM592.272 253.44C592.272 254.494 592.272 255.56 592.272 256.613C592.326 260.627 593.433 261.573 597.353 260.973C598.526 260.8 599.566 260.347 600.579 259.76C603.472 258.067 605.299 254.747 604.779 252.134C604.099 248.76 601.566 247.947 598.619 247.48C591.179 246.293 592.299 245.947 592.272 253.44Z" fill="black"/>
<path d="M274.7 187.307C273.167 161.253 282.073 135.987 280.553 109.881C280.207 103.867 283.727 98.7871 290.26 98.0804C297.393 97.3204 301.153 102.04 303.007 108.334C305.487 116.694 303.58 125.161 302.14 133.267C296.607 164.414 299.06 196.16 294.62 227.307C289.14 265.747 264.753 288.853 226.513 293.467C206.327 295.907 185.714 280.88 177.86 258.453C171.234 239.493 171.367 219.96 172.794 200.426C174.474 177.373 176.354 154.347 177.02 131.227C177.247 123.333 178.847 115.387 180.62 107.653C181.9 102.107 185.94 98.4539 192.1 99.5472C198.113 100.614 200.78 105.08 200.5 110.92C198.887 145.56 197.194 180.187 195.38 214.813C194.66 228.493 195.487 241.973 200.98 254.68C206.714 267.933 216.98 272.813 230.967 269.56C259.153 263.013 272.633 244.027 274.633 207.64C275.007 200.88 274.687 194.08 274.687 187.294L274.7 187.307Z" fill="#55ADE1"/>
<path d="M732.632 374.067C727.352 374.107 723.459 372.347 720.579 368.467C719.219 366.641 718.605 364.614 720.525 363.027C722.605 361.307 724.045 362.894 725.179 364.68C728.765 370.32 736.619 368.441 740.139 365.441C742.179 363.707 741.219 358.947 738.432 357.027C735.005 354.667 731.445 352.48 727.859 350.374C723.765 347.96 720.485 344.694 720.872 339.828C721.259 334.841 724.299 331.121 729.099 329.067C735.312 326.401 740.845 327.614 745.805 331.947C747.805 333.694 748.792 335.974 748.685 338.667C748.632 340.107 748.299 341.481 746.659 341.787C744.845 342.134 744.085 340.867 743.552 339.387C741.165 332.801 733.499 331.054 728.672 336.014C725.432 339.347 725.859 342.827 729.952 345.414C733.472 347.641 737.112 349.667 740.672 351.841C745.032 354.494 747.152 358.374 746.899 363.494C746.725 366.961 745.259 369.588 742.072 371.188C738.925 372.761 735.752 374.187 732.632 374.081V374.067Z" fill="black"/>
<path d="M673.433 267.44C672.3 271.507 672.82 275.44 672.126 279.24C672.006 279.907 672.073 280.6 671.967 281.267C671.713 282.894 671.18 284.493 669.193 284.36C667.033 284.213 666.62 282.48 666.833 280.72C668.233 269.08 668.74 257.387 669.14 245.667C669.246 242.453 671.167 240.586 674.687 240.653C679.473 240.733 684.18 241.654 688.313 244.187C693.047 247.08 693.38 255.627 689.113 260.533C687.14 262.8 684.66 264.28 681.78 265.013C680.033 265.453 679.42 266.04 680.566 267.747C683.526 272.16 686.033 276.893 689.7 280.827C691.007 282.227 692.166 283.974 690.14 285.574C688.286 287.04 686.94 285.534 685.726 284.214C681.966 280.107 679.273 275.266 676.26 270.653C675.54 269.56 675.073 268.213 673.433 267.44ZM673.873 252.72C673.873 252.72 673.806 252.72 673.78 252.72C673.78 254.36 673.806 256.013 673.78 257.653C673.753 259.293 674.66 260.107 676.126 260.52C680.193 261.667 685.94 258.334 686.94 254.24C687.993 249.907 686.313 247.773 680.766 246.453C672.94 244.587 674.033 245.2 673.9 251.56C673.9 251.947 673.9 252.333 673.9 252.72H673.873Z" fill="black"/>
<path d="M348.913 258.653C351.447 258.56 353.953 258.827 356.406 259.44C358.033 259.84 359.42 260.667 359.047 262.627C358.7 264.427 357.1 264.853 355.633 264.507C352.073 263.667 348.487 264.374 344.94 264.134C343.527 264.04 342.78 264.4 342.567 265.92C342.087 269.293 341.913 272.653 341.98 276.053C342.02 277.747 342.78 278.467 344.46 278.547C347.166 278.667 349.86 278.92 352.567 279.107C353.433 279.174 354.326 279.08 355.18 279.253C357.206 279.653 359.993 279.587 359.82 282.52C359.633 285.64 356.82 285.027 354.82 284.92C350.286 284.693 345.74 284.387 341.22 283.854C337.393 283.4 336.113 281.893 336.233 278.066C336.42 271.973 336.913 265.907 337.1 259.813C337.286 254.107 337.26 248.387 337.313 242.68C337.353 238.213 338.687 236.267 343.047 235.227C346.62 234.373 350.273 233.813 353.9 233.227C354.926 233.067 356.046 233.107 357.073 233.32C358.833 233.68 361.153 233.854 361.06 236.294C360.953 239.014 358.54 238.48 356.793 238.467C353.086 238.454 349.473 239.227 345.846 239.774C343.726 240.094 342.566 241.214 342.726 243.52C343.02 247.854 343.513 252.2 342.766 256.547C342.553 257.814 343.233 258.587 344.567 258.627C346.02 258.667 347.473 258.627 348.927 258.627L348.913 258.653Z" fill="black"/>
<path d="M431.459 329.081C430.766 334.534 431.02 340.054 430.926 345.574C430.886 348.107 431.66 348.201 433.526 346.934C440.34 342.308 447.273 337.841 453.873 332.894C454.646 332.321 455.46 331.761 456.326 331.361C457.286 330.921 458.246 331.121 458.94 332.001C459.646 332.907 459.553 333.867 458.846 334.654C458.006 335.574 457.059 336.427 456.073 337.187C450.766 341.267 445.273 345.08 439.633 348.68C437.846 349.814 437.286 350.681 439.446 352.134C444.953 355.814 449.393 360.708 454.099 365.294C455.353 366.507 456.699 367.761 455.153 369.441C453.713 370.987 452.046 370.174 450.753 369.027C446.286 365.027 442.473 360.307 437.366 357.027C437.126 356.867 436.953 356.614 436.713 356.454C435.153 355.334 433.566 353.614 431.593 354.374C429.553 355.16 430.593 357.441 430.406 359.081C430.086 361.867 430.006 364.681 429.673 367.467C429.473 369.187 428.806 370.867 426.686 370.734C424.473 370.587 424.219 368.774 424.393 367.054C425.086 360.401 425.42 353.72 425.606 347.04C425.78 340.947 425.873 334.854 426.166 328.774C426.26 326.707 425.633 323.494 428.779 323.548C432.113 323.601 431.166 326.867 431.473 329.094L431.459 329.081Z" fill="black"/>
<path d="M454.113 269.094C455.059 261.494 454.513 253.814 455.459 246.227C455.713 244.227 455.593 241.28 458.593 241.64C461.513 242 460.339 244.707 460.326 246.627C460.286 255.241 459.273 263.827 459.553 272.441C459.553 272.734 459.553 273.027 459.579 273.307C459.806 278.134 461.979 281.76 465.019 282.36C468.646 283.067 474.059 280.201 475.939 276.547C477.886 272.761 478.832 268.694 478.432 264.48C478.126 261.24 478.406 258.08 478.899 254.947C479.433 251.587 479.913 248.254 479.873 244.854C479.846 243.081 480.166 241.334 482.339 241.294C484.633 241.241 485.086 243.081 485.192 244.934C485.406 248.641 484.952 252.281 484.112 255.881C482.846 261.307 484.299 266.854 483.112 272.334C481.219 281.014 476.272 286.147 467.486 287.68C462.633 288.52 457.339 285.16 455.526 279.987C454.286 276.467 453.953 272.813 454.113 269.094Z" fill="black"/>
<path d="M661.713 363.027C661.806 357.307 662.406 351.614 662.753 345.921C662.926 342.934 662.526 339.934 662.486 336.934C662.433 331.494 663.646 329.934 669.02 328.694C671.94 328.014 674.913 327.534 677.886 327.027C679.433 326.761 680.993 326.907 682.486 327.414C683.806 327.854 685.219 328.374 684.979 330.107C684.753 331.787 683.366 332.214 681.926 332.147C678.313 332.014 674.793 332.708 671.246 333.214C668.553 333.601 667.566 334.867 667.779 337.48C668.099 341.24 668.553 345.001 667.873 348.774C667.553 350.574 668.713 351.161 670.313 351.187C673.019 351.241 675.739 351.267 678.446 351.387C679.299 351.427 680.166 351.668 681.006 351.934C682.299 352.334 683.353 353.094 683.126 354.628C682.886 356.161 681.606 356.76 680.313 356.534C676.926 355.934 673.553 356.507 670.193 356.307C668.419 356.201 667.806 356.681 667.553 358.387C667.099 361.374 667.086 364.374 667.086 367.374C667.086 369.08 667.873 369.787 669.553 369.854C672.739 369.987 675.926 370.267 679.113 370.454C680.286 370.52 681.446 370.587 682.473 371.214C683.446 371.814 684.073 372.654 683.833 373.867C683.593 375.067 682.753 375.721 681.579 375.774C676.046 376.041 670.539 375.48 665.073 374.68C662.926 374.36 661.739 372.787 661.726 370.547C661.699 368.027 661.726 365.507 661.726 362.987L661.713 363.027Z" fill="black"/>
<path d="M705.725 263.227C707.858 263.267 710.005 263.147 712.072 263.801C713.458 264.241 714.658 264.974 714.325 266.667C713.992 268.32 712.605 268.814 711.178 268.534C708.085 267.934 704.992 268.24 701.898 268.147C700.232 268.094 699.485 268.734 699.218 270.427C698.778 273.227 698.792 276.014 698.752 278.827C698.738 280.734 699.685 281.32 701.445 281.373C704.738 281.493 708.018 281.76 711.298 282C713.258 282.147 715.205 282.614 715.032 285.08C714.858 287.56 712.952 287.707 710.938 287.547C706.885 287.214 702.832 286.934 698.765 286.667C694.818 286.4 692.899 284.574 693.032 280.534C693.285 273.48 693.872 266.427 694.165 259.373C694.312 255.707 694.112 252.027 694.125 248.36C694.125 244.334 695.525 242.374 699.352 241.427C703.112 240.507 706.872 239.481 710.792 239.521C711.752 239.521 712.738 239.601 713.658 239.854C715.018 240.241 716.285 240.987 716.112 242.64C715.925 244.32 714.565 244.8 713.112 244.76C709.498 244.667 705.978 245.241 702.432 245.827C700.165 246.201 699.285 247.254 699.392 249.534C699.565 253.294 700.165 257.041 699.458 260.827C699.178 262.334 700.032 263.227 701.605 263.241C702.965 263.267 704.312 263.241 705.672 263.241L705.725 263.227Z" fill="black"/>
<path d="M627.086 263.347C628.886 263.267 631.019 263.32 633.086 263.96C634.393 264.36 635.433 265.106 635.179 266.653C634.939 268.16 633.713 268.827 632.393 268.613C629.206 268.093 626.019 268.667 622.846 268.453C621.033 268.333 620.339 268.933 620.339 270.667C620.326 273.187 620.273 275.707 620.193 278.214C620.139 280.04 620.966 280.814 622.793 280.88C625.499 280.974 628.206 281.214 630.899 281.44C631.953 281.534 633.033 281.64 634.019 281.986C635.313 282.44 636.099 283.44 635.886 284.907C635.686 286.267 634.673 286.92 633.446 287.013C632.113 287.106 630.753 286.96 629.406 286.854C626.126 286.614 622.846 286.373 619.566 286.067C615.966 285.733 614.446 283.814 614.606 280.267C615.073 270.12 615.846 259.974 615.633 249.8C615.526 244.654 617.139 242.76 622.153 241.907C625.486 241.334 628.779 240.36 632.219 240.613C633.179 240.68 634.166 240.733 635.086 240.987C636.299 241.32 637.179 242.093 637.059 243.48C636.926 244.933 635.846 245.44 634.593 245.4C630.979 245.307 627.459 245.933 623.939 246.613C621.766 247.04 620.766 248.093 620.873 250.373C621.006 253.373 620.966 256.373 620.939 259.373C620.913 263.187 620.979 263.293 624.766 263.333C625.446 263.333 626.126 263.333 627.139 263.333L627.086 263.347Z" fill="black"/>
<path d="M599.033 361.534C598.553 352.694 600.233 345.04 600.166 337.28C600.139 333.534 600.006 333.294 596.34 333.241C593.433 333.187 590.526 333.214 587.633 333C586.033 332.88 584.393 332.147 584.633 330.161C584.873 328.147 586.5 327.707 588.326 327.734C597.513 327.854 606.713 327.934 615.899 328.027C616.286 328.027 616.673 328.027 617.059 328.027C619.046 328.067 621.393 328.054 621.38 330.707C621.353 333.373 618.926 333.28 616.993 333.32C614.286 333.373 611.566 333.347 608.846 333.267C606.926 333.214 606.1 333.92 605.993 335.947C605.553 344.454 604.913 352.947 604.486 361.44C604.366 363.947 604.739 366.467 604.766 368.974C604.793 370.894 604.086 372.6 601.899 372.614C599.859 372.614 599.139 370.907 599.059 369.174C598.913 366.28 599.02 363.36 599.02 361.534H599.033Z" fill="black"/>
<path d="M436.979 284.2C433.886 284.36 430.793 284.56 427.686 284.653C423.433 284.787 422.286 283.401 422.206 279.187C421.993 267.961 423.206 256.747 422.766 245.521C422.713 244.281 422.846 243.001 423.086 241.774C423.299 240.654 424.086 239.867 425.299 239.801C426.553 239.734 427.273 240.56 427.646 241.614C427.913 242.32 428.059 243.121 428.059 243.881C428.019 251.427 428.54 258.974 427.673 266.521C427.246 270.201 427.753 273.867 427.939 277.534C428.046 279.6 429.606 279.147 430.726 279.054C435.953 278.627 441.179 279.054 446.406 279.12C446.793 279.12 447.179 279.121 447.566 279.134C449.313 279.214 451.099 279.52 451.153 281.667C451.206 283.814 449.473 284.32 447.713 284.36C444.126 284.427 440.539 284.373 436.953 284.373C436.953 284.32 436.953 284.267 436.953 284.214L436.979 284.2Z" fill="black"/>
<path d="M526.767 328.427C528.607 328.427 530.447 328.4 532.287 328.427C533.58 328.453 535.02 328.507 535.18 330.173C535.353 332 533.833 332.413 532.46 332.533C528.887 332.853 525.313 332.987 521.74 333.254C520.58 333.334 519.447 333.64 518.3 333.774C516.66 333.96 515.953 334.934 515.873 336.494C515.673 340.16 515.38 343.827 515.26 347.507C515.14 351.12 515.86 351.827 519.407 351.6C522.327 351.414 525.207 351.854 528.087 352.107C529.62 352.24 531.487 352.6 531.207 354.72C530.967 356.614 529.193 356.587 527.74 356.507C524.167 356.333 520.58 356.147 517.034 355.774C515.327 355.6 514.78 356.16 514.74 357.787C514.633 361.453 515.047 365.16 514.327 368.8C513.994 370.454 513.593 372.4 511.447 372.107C509.073 371.787 509.473 369.774 509.553 367.96C509.94 359.36 510.26 350.747 510.527 342.147C510.62 339.133 511.06 336.174 511.58 333.214C512.007 330.747 513.273 329.44 515.793 329.254C519.46 328.974 523.087 328.2 526.793 328.414L526.767 328.427Z" fill="black"/>
<path d="M644.22 275.346C644.22 277.866 644.273 280.4 643.62 282.854C643.22 284.347 642.526 285.733 640.66 285.333C639.02 284.973 638.766 283.573 638.9 282.12C639.7 273.053 639.633 263.947 639.993 254.867C640.113 251.853 640.566 248.893 641.153 245.947C641.54 244 642.62 242.894 644.62 242.6C650.393 241.734 656.193 241.653 662.006 241.68C663.22 241.68 664.486 241.893 664.66 243.373C664.86 245.027 663.566 245.6 662.273 245.707C658.42 246.053 654.54 246.187 650.686 246.547C645.513 247.027 645.486 247.147 645.246 252.307C645.113 255.2 644.82 258.093 644.726 261C644.62 264.347 645.393 265.08 648.833 264.854C651.753 264.654 654.633 265.12 657.513 265.346C659.046 265.466 660.913 265.813 660.686 267.92C660.486 269.827 658.713 269.827 657.26 269.76C653.873 269.613 650.473 269.574 647.126 269.08C644.566 268.694 644.033 269.707 644.193 271.867C644.273 273.027 644.206 274.186 644.206 275.346H644.22Z" fill="black"/>
<path d="M411.459 239.934C413.393 239.934 415.34 239.907 417.273 239.934C418.406 239.96 419.486 240.293 419.633 241.613C419.806 243.093 418.726 243.76 417.499 243.88C414.033 244.214 410.553 244.4 407.073 244.64C406.593 244.68 406.1 244.707 405.62 244.76C400.46 245.32 400.433 245.373 400.193 250.56C400.046 253.56 399.766 256.547 399.673 259.547C399.58 262.52 400.393 263.306 403.5 263.093C406.526 262.893 409.486 263.347 412.473 263.587C414.006 263.707 415.873 264.053 415.633 266.173C415.42 268.08 413.646 268.067 412.193 268C408.806 267.853 405.406 267.813 402.059 267.32C399.473 266.933 399.126 267.987 399.113 270.12C399.113 273.506 399.419 276.907 398.726 280.267C398.393 281.92 398.006 283.867 395.86 283.6C393.486 283.307 393.846 281.293 393.926 279.48C394.313 271.067 394.633 262.654 394.886 254.24C394.98 250.934 395.393 247.694 396.006 244.44C396.446 242.067 397.793 240.933 400.139 240.733C403.899 240.413 407.633 239.68 411.433 239.907L411.459 239.934Z" fill="black"/>
<path d="M314.607 326.92C318.78 326.92 322.94 326.92 327.113 326.92C327.887 326.92 328.673 326.92 329.433 327.067C330.78 327.307 331.86 327.974 331.82 329.521C331.78 330.947 330.7 331.36 329.487 331.68C326.674 332.387 323.887 331.627 321.087 331.56C318.407 331.507 317.34 332.214 317.34 335.12C317.314 345.187 315.527 355.187 316.167 365.294C316.274 366.947 315.82 368.56 313.82 368.68C311.58 368.827 311.14 367.027 311.007 365.347C310.487 358.653 311.007 351.987 311.58 345.32C311.9 341.653 312.113 337.987 312.393 334.32C312.527 332.507 311.74 331.587 309.874 331.601C306.967 331.601 304.06 331.614 301.154 331.56C299.434 331.534 297.554 331.267 297.58 329.081C297.594 326.774 299.58 326.827 301.247 326.814C305.7 326.787 310.167 326.814 314.62 326.814C314.62 326.854 314.62 326.88 314.62 326.92H314.607Z" fill="black"/>
<path d="M378.633 370.494C377.18 370.494 375.726 370.547 374.273 370.48C372.886 370.414 371.806 369.8 371.526 368.347C371.246 366.867 372.046 365.761 373.393 365.494C375.78 365.027 376.046 363.494 376.14 361.467C376.58 351.894 376.94 342.32 377.993 332.787C378.166 331.174 377.686 330.467 376.14 330.2C374.806 329.96 373.726 329.227 373.793 327.694C373.86 325.961 375.22 325.347 376.62 325.361C380.78 325.401 384.94 325.587 389.086 325.84C390.433 325.92 391.553 326.76 391.486 328.28C391.42 330 390.086 330.387 388.62 330.521C383.393 330.987 383.7 331.04 382.993 336.2C381.886 344.28 381.86 352.4 381.446 360.507C381.34 362.734 381.166 364.787 384.14 365.36C385.353 365.6 386.033 366.72 385.886 368.054C385.726 369.56 384.62 370.213 383.273 370.32C381.726 370.44 380.18 370.347 378.62 370.347C378.62 370.4 378.62 370.454 378.62 370.494H378.633Z" fill="black"/>
<path d="M568.673 284.294C568.446 287.92 566.686 290.8 563.766 292.986C562.846 293.68 561.606 294.333 560.646 293.173C559.553 291.853 560.846 291.173 561.699 290.4C562.553 289.627 563.352 288.787 564.072 287.907C564.606 287.254 564.726 286.493 563.832 285.947C562.086 284.867 560.926 283.467 562.232 281.44C563.072 280.147 564.379 278.987 566.112 279.494C568.432 280.16 568.473 282.267 568.673 284.307V284.294Z" fill="black"/>
<path d="M377.38 278.935C377.46 282.895 375.019 286.721 372.246 287.521C371.286 287.801 370.246 288.054 369.646 287.014C368.966 285.801 370.033 285.347 370.846 284.814C373.806 282.867 373.833 282.601 371.219 280.147C370.313 279.307 370.126 278.308 370.539 277.241C371.059 275.895 372.113 275.041 373.539 274.774C374.806 274.534 375.913 274.948 376.459 276.134C376.939 277.174 377.166 278.321 377.366 278.935H377.38Z" fill="black"/>
<path d="M760.472 369.387C758.339 369.387 755.885 366.973 755.872 365.066C755.872 363.04 757.526 361.467 759.659 361.493C761.886 361.52 764.512 364.133 764.259 366.28C763.992 368.547 762.179 369.093 760.472 369.373V369.387Z" fill="black"/>
<path d="M775.752 369.654C773.752 369.627 772.299 367.841 772.313 365.414C772.313 363.307 774.166 361.534 776.259 361.614C778.259 361.694 780.472 363.854 780.486 365.734C780.486 367.534 777.886 369.694 775.752 369.654Z" fill="black"/>
<path d="M794.339 369.373C792.352 369.333 789.432 367.067 789.526 365.653C789.646 363.573 791.512 361.841 793.579 361.881C795.952 361.934 797.872 364.054 797.766 366.521C797.699 368.107 796.139 369.413 794.352 369.373H794.339Z" fill="black"/>
<path d="M797.645 285.774C795.952 285.547 794.472 284.56 794.152 282.48C793.899 280.813 796.205 278.601 798.152 278.601C800.152 278.601 801.499 279.614 801.672 281.694C801.845 283.814 800.072 285.707 797.645 285.787V285.774Z" fill="black"/>
</svg>
