<svg width="990" height="735" viewBox="0 0 990 735" fill="none" xmlns="http://www.w3.org/2000/svg">
<path d="M987.193 279.092C986.033 240.839 983.313 202.732 973.633 166.705C959.846 115.439 936.78 73.9858 903.46 44.7992C884.566 28.2526 863.566 20.8525 841.473 17.0659C808.647 11.4392 775.713 10.6393 742.753 10.1193C710.087 9.59928 677.447 10.0126 644.794 12.7592C631.14 13.9059 617.407 14.9992 603.687 15.3325C570.287 16.1592 536.901 17.9591 503.501 18.2524C465.368 18.5857 427.234 18.4659 389.114 17.1059C361.101 16.1059 333.181 11.8393 305.381 6.75927C293.701 4.62594 281.981 3.03928 270.235 2.75928C252.301 2.31928 234.342 2.30591 216.408 2.71924C190.355 3.33257 164.435 6.1457 138.622 11.8524C117.755 16.4657 98.3551 25.5191 81.1152 42.6524C62.5686 61.079 45.8486 81.7855 36.1153 111.892C26.8087 140.679 19.5687 170.252 15.2487 201.292C12.9553 217.812 8.86215 234.132 8.22215 250.732C7.60882 266.545 5.19548 282.118 5.54215 297.998C5.92881 315.905 2.84873 333.678 4.11539 351.598C5.40872 369.838 4.99547 388.118 8.19546 406.385C12.4488 430.598 20.6487 449.745 33.8087 466.438C54.2753 492.398 78.4886 501.891 105.009 502.838C122.368 503.451 139.742 503.064 157.115 502.944L44.662 694.144L2.58203 732.104C13.702 726.224 24.2087 716.931 36.9953 720.437C38.622 720.891 40.582 720.277 42.1954 719.424C53.1953 713.597 64.6486 708.944 75.0219 701.371C107.209 677.891 138.728 652.677 170.155 627.197C201.168 602.037 229.688 571.531 260.461 545.878C273.848 534.718 283.221 516.678 293.021 500.371C293.128 500.198 293.221 500.024 293.328 499.851L294.195 499.811C302.595 506.131 311.675 502.824 320.355 502.624C328.808 502.438 337.274 501.131 345.781 500.798C385.648 499.251 425.541 499.451 465.394 498.371C498.314 497.478 531.194 493.065 564.087 490.398C579.78 489.118 595.474 487.745 611.194 487.318C639.1 486.571 667.047 485.211 694.927 486.465C734.313 488.225 773.673 488.091 813.06 488.264C843.98 488.398 873.926 481.518 903.62 468.718C937.233 454.225 960.979 425.265 976.779 382.078C982.073 367.598 983.299 351.532 984.873 335.812C986.753 317.052 987.806 298.078 987.219 279.078L987.193 279.092Z" fill="white" stroke="black" stroke-width="3.99999" stroke-linecap="round" stroke-linejoin="round"/>
<path d="M726.194 262.332C727.727 259.292 728.554 256.359 729.047 253.332C729.981 247.652 731.981 242.292 734.061 236.972C734.781 235.132 735.847 233.265 738.247 233.665C740.887 234.119 741.007 236.399 740.954 238.466C740.727 246.359 741.887 254.106 743.341 261.826C743.514 262.732 743.434 263.759 744.674 264.732C745.847 261.425 746.967 258.292 748.074 255.159C750.301 248.866 752.527 242.559 754.767 236.265C755.021 235.545 755.407 234.839 755.834 234.212C756.714 232.905 757.914 232.012 759.514 232.786C761.247 233.626 761.327 235.146 760.687 236.772C756.821 246.599 753.447 256.599 749.981 266.572C749.514 267.932 748.914 269.319 748.061 270.452C745.594 273.759 741.794 273.385 739.874 269.732C738.167 266.492 737.741 262.919 737.167 259.385C736.727 256.759 736.247 254.145 735.487 251.505C734.167 256.492 732.834 261.399 730.994 266.145C730.474 267.492 730.021 268.905 729.301 270.159C727.714 272.919 725.034 273.039 723.314 270.385C722.381 268.945 721.581 267.319 721.127 265.665C718.327 255.572 714.327 245.892 711.381 235.865C710.781 233.839 709.367 231.092 712.394 230.119C715.621 229.079 716.087 232.212 716.701 234.332C719.327 243.359 723.234 251.959 725.487 261.092C725.567 261.439 725.834 261.732 726.181 262.359L726.194 262.332Z" fill="black"/>
<path d="M592.861 267.585C594.194 257.291 593.248 246.465 592.954 235.651C592.821 230.785 594.141 229.091 598.954 228.505C604.101 227.878 609.061 228.905 613.488 231.545C619.434 235.078 619.421 244.158 613.661 249.011C611.114 251.158 611.114 251.171 614.101 252.625C617.501 254.278 619.648 257.145 621.181 260.411C622.541 263.305 621.421 265.931 619.381 268.118C616.048 271.718 611.781 273.771 607.048 274.758C604.408 275.305 601.688 275.571 598.994 275.745C594.474 276.038 593.048 274.678 592.848 270.158C592.821 269.478 592.848 268.798 592.848 267.598L592.861 267.585ZM603.154 255.945C602.034 256.678 599.394 254.678 599.061 257.745C598.701 261.011 598.634 264.305 598.461 267.598C598.394 268.811 598.728 269.745 600.168 269.745C605.541 269.745 610.528 268.598 614.648 264.825C616.194 263.411 616.048 262.225 614.874 260.585C612.008 256.585 607.781 256.291 603.154 255.958V255.945ZM601.954 233.758C600.488 233.918 598.421 233.358 598.474 235.958C598.581 240.011 598.821 244.065 598.994 248.118C599.061 249.531 599.728 250.065 601.074 249.598C604.568 248.371 607.941 246.811 610.608 244.238C613.581 241.371 612.568 236.851 608.781 235.318C606.621 234.438 604.341 233.971 601.928 233.758H601.954Z" fill="black"/>
<path d="M432.794 329.305C431.261 330.491 430.888 332.011 430.368 333.425C429.248 336.518 428.208 339.651 427.075 342.745C426.408 344.571 425.354 346.171 423.141 345.998C420.728 345.798 420.101 343.838 419.794 341.851C419.301 338.691 418.928 335.518 418.488 332.358C418.354 331.425 418.434 330.425 417.608 329.452C416.594 330.772 416.274 332.265 415.848 333.718C414.354 338.838 412.754 343.918 410.594 348.798C409.968 350.198 409.168 351.558 408.261 352.798C407.354 354.051 406.048 354.878 404.501 353.918C402.955 352.958 403.114 351.438 403.821 350.051C405.501 346.771 406.888 343.371 408.154 339.905C409.874 335.171 410.661 330.118 413.114 325.651C413.954 324.131 414.808 322.558 415.928 321.265C418.208 318.665 421.341 319.358 422.421 322.651C422.901 324.118 423.141 325.665 423.461 327.185C423.754 328.585 423.995 329.985 424.381 332.091C425.781 329.558 426.861 327.585 427.941 325.625C428.408 324.771 428.808 323.891 429.314 323.065C430.514 321.118 431.888 319.185 434.528 319.625C437.008 320.038 437.408 322.291 437.848 324.265C439.088 329.945 440.314 335.625 441.394 341.331C441.981 344.398 443.021 347.305 444.034 350.225C444.674 352.065 444.848 354.051 442.648 354.945C440.354 355.878 439.381 354.238 438.554 352.411C435.514 345.705 434.888 338.385 433.248 331.331C433.101 330.705 432.981 330.091 432.808 329.291L432.794 329.305Z" fill="black"/>
<path d="M504.94 327.078C504.567 331.611 503.634 336.038 499.927 339.278C498.54 340.491 499.127 341.038 500.207 341.918C502.994 344.184 505.434 346.811 507.687 349.611C508.847 351.038 509.434 352.558 507.887 353.984C506.341 355.411 504.714 354.811 503.541 353.451C499.967 349.318 495.754 345.918 491.527 342.518C490.861 341.984 490.301 341.011 489.354 341.304C488.341 341.624 488.594 342.758 488.487 343.584C488.154 346.278 487.941 348.984 487.527 351.651C487.274 353.278 486.487 354.744 484.527 354.531C482.647 354.331 481.954 352.825 482.047 351.145C482.207 348.158 482.501 345.158 482.901 342.184C483.821 335.144 483.981 328.091 483.381 321.024C482.847 314.784 483.941 312.078 487.901 310.638C492.327 309.024 498.327 310.891 501.074 314.944C503.514 318.544 504.78 322.585 504.94 327.064V327.078ZM489.074 325.158H489.167C489.167 327.091 489.381 329.064 489.114 330.958C488.687 334.064 490.567 335.051 492.967 335.731C495.367 336.411 496.567 334.838 497.607 333.131C500.074 329.078 499.46 321.638 496.42 317.998C495.394 316.771 494.061 315.958 492.514 315.611C490.447 315.131 489.061 315.744 489.074 318.171C489.087 320.491 489.074 322.825 489.074 325.145V325.158Z" fill="black"/>
<path d="M262.941 333.798C269.595 333.704 269.555 333.691 270.755 327.691C271.595 323.411 272.555 319.158 273.475 314.904C273.848 313.144 274.368 311.118 276.621 311.518C279.141 311.958 279.128 314.118 278.728 316.158C277.835 320.625 276.968 325.091 275.968 329.531C274.115 337.838 272.181 346.144 270.275 354.438C269.941 355.878 269.195 357.051 267.555 356.944C265.795 356.824 265.088 355.491 265.008 353.918C264.875 351.158 265.928 348.611 266.648 345.998C268.555 339.131 268.181 339.024 261.035 339.411C257.608 339.598 256.715 340.864 256.221 343.851C255.661 347.197 255.115 350.531 254.728 353.904C254.528 355.691 253.888 357.291 251.728 357.024C249.661 356.771 249.235 355.064 249.315 353.304C249.568 348.051 251.008 342.998 251.941 337.851C253.048 331.664 253.835 325.411 255.488 319.318C256.048 317.251 256.675 315.224 257.715 313.344C258.568 311.811 259.688 310.465 261.648 311.451C263.448 312.358 263.088 313.984 262.515 315.518C260.621 320.518 259.501 325.704 258.555 330.944C258.088 333.518 258.541 334.678 261.368 333.891C262.008 333.718 262.715 333.798 262.941 333.798Z" fill="black"/>
<path d="M828.313 265.532C828.313 267.185 828.38 268.825 828.287 270.465C828.207 271.839 827.5 272.932 826.06 273.132C824.474 273.359 823.447 272.439 823.047 270.985C822.74 269.879 822.514 268.692 822.54 267.545C822.78 257.092 822.687 246.625 824.047 236.212C824.14 235.545 824.234 234.865 824.394 234.212C824.754 232.732 825.62 231.732 827.247 231.905C828.913 232.079 829.46 233.319 829.487 234.812C829.567 239.372 828.914 243.892 828.554 248.439C828.487 249.212 828.394 249.985 828.354 250.759C828.274 252.012 828.74 252.825 830.113 252.892C832.727 253.025 835.34 253.199 837.953 253.279C840.313 253.345 841.42 252.292 841.46 249.772C841.527 245.705 841.86 241.652 842.167 237.599C842.26 236.359 842.58 235.119 842.953 233.919C843.327 232.719 844.207 231.919 845.554 232.025C847.033 232.145 847.887 233.132 847.967 234.505C848.073 236.425 847.993 238.385 847.833 240.305C847.033 249.479 846.767 258.665 847.593 267.852C847.647 268.425 847.78 269.012 847.767 269.585C847.74 271.425 847.407 273.278 845.22 273.572C842.98 273.878 842.153 272.199 841.927 270.332C841.647 268.025 841.46 265.705 841.394 263.385C841.287 258.852 841.247 258.772 836.86 258.785C835.02 258.785 833.167 258.852 831.34 258.719C829.047 258.559 828.127 259.492 828.34 261.759C828.46 263.012 828.367 264.278 828.367 265.532C828.367 265.532 828.354 265.532 828.34 265.532H828.313Z" fill="black"/>
<path d="M425.101 269.092C430.514 268.799 435.288 269.359 440.088 269.665C441.048 269.732 442.034 269.745 442.968 269.958C444.088 270.212 444.861 270.972 444.914 272.198C444.968 273.452 444.181 274.158 443.114 274.545C441.821 275.012 440.448 275.159 439.101 274.999C433.794 274.359 428.461 274.452 423.128 274.412C422.648 274.412 422.154 274.385 421.674 274.332C419.741 274.092 417.621 274.012 416.914 271.732C416.261 269.625 417.741 268.265 419.074 266.999C427.354 259.119 435.261 250.878 442.688 242.198C443.008 241.825 443.368 241.492 443.621 241.092C444.021 240.479 444.928 239.959 444.408 239.105C444.008 238.452 443.181 238.719 442.514 238.732C436.034 238.905 429.554 239.079 423.061 239.265C421.394 239.305 419.408 239.505 419.208 237.265C418.994 234.905 421.034 234.479 422.794 234.412C431.008 234.079 439.234 233.279 447.461 234.119C449.154 234.292 450.821 234.505 451.648 236.225C452.501 238.025 451.461 239.412 450.368 240.679C445.341 246.572 440.661 252.759 435.021 258.119C431.594 261.359 428.501 264.905 425.101 269.119V269.092Z" fill="black"/>
<path d="M534.741 265.745C538.168 258.945 541.528 252.412 544.754 245.825C546.834 241.572 548.715 237.212 550.675 232.892C551.461 231.158 552.728 230.172 554.594 231.039C556.421 231.892 556.648 233.598 555.848 235.265C553.755 239.638 551.835 244.079 549.795 248.465C546.248 256.092 542.328 263.559 538.555 271.079C538.301 271.599 537.968 272.078 537.608 272.532C534.901 275.892 531.768 275.399 530.115 271.425C528.075 266.479 527.181 261.199 525.528 256.132C523.541 250.065 522.168 243.799 519.275 238.039C518.981 237.439 518.781 236.759 518.715 236.092C518.515 234.172 519.075 232.479 521.141 232.065C523.248 231.652 523.781 233.238 524.408 234.932C528.115 244.812 531.128 254.919 533.995 265.052C534.035 265.212 534.261 265.305 534.728 265.745H534.741Z" fill="black"/>
<path d="M625.448 254.119C625.448 250.052 625.328 245.972 625.474 241.905C625.928 229.425 628.968 229.558 640.181 230.332C641.408 230.412 642.621 230.945 643.821 231.305C644.808 231.598 645.674 232.078 645.581 233.278C645.487 234.452 644.594 234.932 643.568 234.998C640.768 235.185 637.954 235.479 635.154 235.385C632.248 235.279 631.154 236.612 630.981 239.305C630.768 242.518 631.221 245.692 631.461 248.878C631.581 250.518 632.701 250.892 634.088 250.985C637.181 251.185 640.274 251.398 643.368 251.598C644.141 251.652 644.928 251.625 645.674 251.785C647.248 252.132 648.408 253.025 648.221 254.772C648.048 256.412 646.768 256.918 645.288 257.012C641.594 257.238 637.914 256.852 634.274 256.425C632.021 256.159 631.368 256.918 631.408 259.078C631.461 261.492 631.234 263.918 631.008 266.332C630.808 268.532 631.781 269.292 633.874 269.198C637.074 269.065 640.274 269.038 643.474 269.012C644.434 269.012 645.421 269.038 646.354 269.238C647.354 269.465 648.074 270.185 648.221 271.252C648.381 272.452 647.781 273.399 646.701 273.799C645.634 274.198 644.448 274.412 643.314 274.479C639.741 274.692 636.154 274.825 632.568 274.918C627.421 275.052 625.394 272.958 625.434 267.758C625.474 263.198 625.434 258.652 625.434 254.092C625.434 254.092 625.448 254.092 625.461 254.092L625.448 254.119Z" fill="black"/>
<path d="M538.074 349.238C538.074 350.105 538.114 350.985 538.074 351.852C537.981 353.465 537.287 354.732 535.541 354.865C533.807 355.012 532.754 353.892 532.474 352.345C532.154 350.545 532.087 348.692 532.1 346.865C532.1 344.198 530.767 343.318 528.26 343.412C523.487 343.585 522.887 343.959 521.487 348.479C520.941 350.239 520.487 352.038 519.287 353.505C518.501 354.478 517.501 355.078 516.234 354.532C514.874 353.945 514.301 352.705 514.807 351.412C518.341 342.518 519.207 332.959 521.741 323.825C522.207 322.159 522.954 320.545 523.807 319.039C525.047 316.839 526.354 314.385 529.394 314.652C532.301 314.905 533.114 317.492 533.981 319.745C535.341 323.279 536.354 326.919 536.527 330.745C536.794 336.932 537.46 343.092 538.1 349.252L538.074 349.238ZM528.607 322.225C525.874 326.718 525.847 331.158 524.874 335.332C524.594 336.532 524.607 337.919 526.327 337.745C527.901 337.585 530.5 338.985 530.754 336.079C531.167 331.572 530.554 327.132 528.607 322.225Z" fill="black"/>
<path d="M333.461 332.585C332.288 320.678 345.168 307.425 360.994 311.985C363.021 312.572 364.688 313.705 366.194 315.078C367.354 316.145 367.954 317.505 366.808 318.932C365.754 320.225 364.394 319.985 363.141 319.211C361.488 318.198 359.848 317.278 357.874 316.905C351.088 315.625 345.768 318.012 341.954 323.492C338.114 328.985 338.181 335.025 341.101 340.865C343.714 346.078 352.221 349.118 357.848 347.171C359.954 346.438 361.968 345.478 364.048 344.665C365.861 343.958 367.634 343.918 368.474 345.985C369.261 347.932 367.914 349.051 366.354 349.865C358.608 353.918 350.928 355.105 342.874 350.291C336.594 346.545 333.421 341.091 333.501 332.558L333.461 332.585Z" fill="black"/>
<path d="M345.755 269.905C345.728 271.491 345.302 272.772 343.688 273.092C342.088 273.412 341.128 272.412 340.582 271.065C339.568 268.598 339.688 265.932 339.395 263.345C339.168 261.385 338.408 260.425 336.275 260.478C334.062 260.532 331.835 260.305 329.622 260.052C327.315 259.798 326.035 260.585 325.475 262.958C325.048 264.825 324.208 266.612 323.408 268.372C322.755 269.812 321.608 270.825 319.928 270.158C318.115 269.438 318.115 267.905 318.595 266.251C321.675 255.718 326.755 245.998 330.728 235.825C331.435 234.025 332.822 232.705 334.875 232.665C336.942 232.625 338.222 233.972 339.195 235.638C340.195 237.345 340.622 239.252 340.902 241.158C342.248 250.238 345.008 259.078 345.542 268.291C345.582 268.865 345.688 269.438 345.742 269.905H345.755ZM334.848 239.972C333.462 243.425 332.395 246.305 331.155 249.118C328.635 254.865 328.848 255.185 335.328 255.078C335.715 255.078 336.102 255.078 336.488 255.038C337.488 254.958 337.942 254.345 337.622 253.452C336.128 249.318 336.288 244.865 334.848 239.972Z" fill="black"/>
<path d="M398.075 349.412C397.995 350.052 397.982 351.038 397.728 351.958C397.342 353.412 396.368 354.345 394.768 354.198C393.315 354.065 392.528 353.092 392.328 351.718C392.008 349.612 391.782 347.492 391.488 345.385C391.288 343.918 390.488 343.105 388.915 343.292C388.822 343.292 388.715 343.318 388.622 343.292C383.742 342.532 380.168 343.772 378.928 349.172C378.595 350.625 377.595 351.958 376.755 353.252C376.022 354.372 374.915 355.092 373.515 354.465C372.035 353.798 371.768 352.505 372.115 351.038C372.208 350.665 372.329 350.278 372.515 349.945C376.875 341.958 378.675 333.038 381.742 324.585C382.569 322.305 383.435 320.038 384.675 317.945C386.782 314.385 390.448 314.412 392.422 318.025C393.008 319.105 393.502 320.385 393.542 321.598C393.795 329.705 396.382 337.398 397.568 345.345C397.755 346.585 397.888 347.838 398.102 349.412H398.075ZM387.928 325.025C387.768 324.998 387.608 324.958 387.448 324.932C386.275 328.412 385.102 331.878 383.968 335.372C383.742 336.052 383.142 337.065 384.022 337.479C385.542 338.185 387.262 337.985 388.862 337.585C389.875 337.332 389.595 336.372 389.475 335.612C388.968 332.092 388.448 328.558 387.928 325.038V325.025Z" fill="black"/>
<path d="M667.994 274.611C664.541 274.878 661.46 273.985 659.14 271.265C657.794 269.691 656.927 267.811 658.821 266.131C660.554 264.585 661.927 265.785 663.287 267.118C666.874 270.638 676.247 268.651 678.154 263.945C679.074 261.691 678.74 259.665 676.674 257.971C673.78 255.611 670.54 253.945 667.1 252.571C665.66 251.998 664.181 251.438 662.901 250.611C659.447 248.371 657.114 245.318 657.647 240.971C658.207 236.371 660.354 232.638 664.94 230.958C669.447 229.305 674.047 229.278 678.607 230.838C680.114 231.358 681.674 232.092 681.18 234.092C680.674 236.092 679.007 236.051 677.407 235.665C674.341 234.931 671.314 234.731 668.221 235.518C665.207 236.291 663.487 238.212 663.127 241.158C662.754 244.145 664.78 245.838 667.247 246.798C671.874 248.612 676.287 250.705 680.18 253.878C685.42 258.158 685.86 264.918 680.927 269.558C677.34 272.931 673.087 274.865 668.007 274.611H667.994Z" fill="black"/>
<path d="M189.648 234.105C196.088 221.625 201.542 211.185 206.862 200.665C217.235 180.172 227.515 159.639 237.888 139.132C239.235 136.465 240.608 133.745 242.435 131.425C245.355 127.732 249.262 125.732 253.822 128.319C258.182 130.785 259.422 134.959 257.582 139.518C255.475 144.758 252.902 149.812 250.382 154.878C237.142 181.372 223.808 207.825 210.608 234.345C205.995 243.598 202.608 253.345 199.595 263.238C197.488 270.185 194.168 276.998 185.689 276.718C176.462 276.412 175.342 268.411 174.342 261.505C170.142 232.198 166.315 202.852 162.155 173.532C160.382 160.998 157.662 148.652 153.422 136.679C151.382 130.932 150.369 124.932 157.022 122.012C164.569 118.705 168.288 124.719 170.448 130.305C177.208 147.799 180.008 166.252 182.595 184.719C184.795 200.412 187.048 216.092 189.608 234.105H189.648Z" fill="#55ADE1"/>
<path d="M270.635 227.278C272.915 227.398 275.461 227.945 277.781 229.252C279.168 230.038 280.528 231.105 279.621 232.958C278.781 234.678 277.235 234.265 275.821 233.705C273.995 232.998 272.155 232.478 270.168 232.625C266.835 232.865 264.595 234.705 264.208 237.532C263.701 241.212 265.408 244.532 268.568 245.478C271.461 246.345 274.248 247.372 276.835 248.958C283.101 252.812 285.528 258.825 283.355 265.305C281.541 270.732 275.261 274.305 268.568 273.745C263.595 273.318 260.728 271.411 259.821 267.905C259.408 266.332 259.675 264.931 261.235 264.211C262.741 263.505 263.795 264.358 264.675 265.558C266.888 268.558 272.475 269.011 276.035 266.505C279.088 264.345 279.714 259.638 277.261 256.385C274.861 253.198 271.248 251.945 267.635 250.785C262.261 249.065 258.915 244.718 258.768 239.185C258.581 232.358 263.448 227.332 270.661 227.292L270.635 227.278Z" fill="black"/>
<path d="M457.781 263.745C458.181 255.532 458.568 247.318 458.955 239.105C459.088 236.332 460.568 234.438 463.168 233.838C467.221 232.905 471.381 232.425 475.555 232.625C477.088 232.705 478.595 233.158 478.688 234.985C478.781 236.945 477.261 237.612 475.621 237.798C472.835 238.118 470.035 238.385 467.235 238.532C465.181 238.638 464.301 239.518 464.315 241.598C464.315 243.918 464.181 246.238 463.941 248.545C463.675 251.065 464.381 252.318 467.221 252.265C469.821 252.225 472.421 252.678 475.021 252.985C476.635 253.172 478.275 253.692 478.195 255.678C478.101 257.878 476.288 258.185 474.581 258.105C471.674 257.985 468.781 257.785 465.901 257.425C463.928 257.185 463.275 257.958 463.315 259.825C463.355 262.238 463.315 264.665 463.221 267.092C463.155 268.865 463.781 269.798 465.675 269.891C467.315 269.971 468.928 270.171 470.594 269.878C473.114 269.425 475.621 269.571 478.021 270.558C479.301 271.078 480.194 271.958 479.914 273.438C479.634 274.892 478.475 275.705 477.141 275.465C472.581 274.625 468.061 275.891 463.515 275.585C459.475 275.318 457.955 273.891 457.795 269.838C457.715 267.811 457.781 265.772 457.795 263.732L457.781 263.745Z" fill="black"/>
<path d="M289.995 323.518C289.995 325.652 290.048 327.785 289.981 329.918C289.915 331.878 290.741 332.798 292.728 332.732C295.155 332.638 297.568 332.532 299.995 332.532C301.861 332.532 303.715 333.012 303.715 335.278C303.715 337.425 301.848 337.758 300.128 337.852C297.421 337.998 294.701 338.172 291.995 338.105C290.128 338.065 289.341 338.852 289.128 340.572C288.915 342.305 288.661 344.025 288.408 345.758C287.875 349.505 287.875 349.598 291.755 349.838C293.768 349.958 295.808 349.612 297.848 349.598C299.555 349.598 301.408 349.825 301.515 351.998C301.621 354.078 299.928 354.625 298.208 354.958C294.141 355.758 290.075 355.278 286.061 354.705C282.728 354.238 281.595 352.532 282.315 349.132C284.661 338.052 284.875 326.825 284.688 315.572C284.661 313.705 284.928 311.865 286.701 311.065C291.008 309.145 295.461 307.812 300.155 309.838C301.608 310.465 303.115 311.385 302.448 313.305C301.795 315.198 300.155 315.052 298.528 314.625C297.595 314.385 296.635 314.159 295.675 314.132C290.861 313.985 290.208 314.652 290.195 319.425C290.195 320.785 290.195 322.132 290.195 323.492H290.021L289.995 323.518Z" fill="black"/>
<path d="M308.995 246.092C308.995 242.892 308.981 239.692 308.995 236.505C309.008 234.599 309.528 232.839 311.795 232.852C313.995 232.852 314.781 234.586 314.741 236.466C314.595 243.439 314.435 250.399 314.021 257.359C313.835 260.479 312.421 263.359 310.835 266.025C308.755 269.545 305.288 270.919 301.435 270.732C297.501 270.545 295.528 267.452 294.408 264.199C292.475 258.585 291.928 252.652 291.568 246.772C291.368 243.412 291.261 239.985 291.835 236.625C291.968 235.865 292.075 235.092 292.328 234.359C292.795 232.972 293.648 231.839 295.275 232.172C296.915 232.492 297.341 233.865 297.155 235.319C296.115 243.305 297.235 251.172 298.568 259.012C298.741 260.052 298.968 261.119 299.381 262.092C299.968 263.492 300.488 265.239 302.395 265.225C304.355 265.225 305.901 264.185 306.741 262.319C307.995 259.559 308.955 256.759 308.808 253.652C308.688 251.132 308.781 248.612 308.781 246.092C308.848 246.092 308.915 246.092 308.981 246.092H308.995Z" fill="black"/>
<path d="M460.435 354.372C452.435 354.332 450.702 352.332 451.542 344.398C452.315 337.078 452.942 329.759 453.568 322.425C453.928 318.199 455.208 316.798 459.408 316.265C463.062 315.812 466.715 315.318 470.368 314.865C472.141 314.638 473.875 314.852 474.275 316.905C474.688 319.038 473.048 319.799 471.301 320.065C468.341 320.532 465.355 320.972 462.368 321.225C460.075 321.425 458.808 322.172 458.928 324.772C459.021 326.785 458.755 328.838 458.461 330.838C458.075 333.412 458.808 334.705 461.661 334.465C463.581 334.305 465.541 334.358 467.461 334.532C469.208 334.692 470.821 335.412 470.648 337.545C470.488 339.545 468.848 339.838 467.208 339.852C464.981 339.878 462.741 339.972 460.528 339.878C458.581 339.798 457.835 340.612 457.581 342.545C456.821 348.332 456.741 348.332 462.608 348.305C463.768 348.305 464.941 348.265 466.101 348.332C467.821 348.425 469.208 349.132 469.275 351.038C469.328 352.785 468.101 353.638 466.501 353.852C464.488 354.105 462.461 354.212 460.435 354.372Z" fill="black"/>
<path d="M232.248 353.678C233.515 344.638 234.782 335.718 236.035 326.798C236.315 324.785 236.662 322.772 236.889 320.758C237.249 317.358 236.702 316.825 233.222 317.198C231.689 317.358 230.168 317.785 228.635 317.918C226.915 318.078 225.128 317.865 224.768 315.772C224.395 313.612 226.035 313.012 227.755 312.612C234.315 311.065 241.062 311.411 247.688 310.518C249.128 310.318 250.582 310.092 252.022 310.118C253.582 310.145 254.968 310.812 255.075 312.598C255.182 314.385 253.955 315.172 252.355 315.398C249.955 315.732 247.555 316.052 245.142 316.292C243.408 316.465 242.608 317.292 242.462 319.065C241.475 331.238 238.955 343.212 237.742 355.358C237.582 356.958 236.982 358.265 235.195 358.345C233.395 358.425 232.689 357.118 232.395 355.571C232.262 354.918 232.288 354.225 232.248 353.665V353.678Z" fill="black"/>
<path d="M773.447 243.799C773.447 243.319 773.487 242.825 773.447 242.345C773.301 240.719 774.447 238.932 773.394 237.532C772.367 236.172 770.461 237.066 768.981 236.706C767.634 236.386 766.581 235.732 766.554 234.239C766.527 232.625 767.581 231.679 769.047 231.519C770.767 231.332 772.527 231.332 774.261 231.452C777.447 231.679 780.634 232.039 783.807 232.386C785.421 232.559 786.647 233.372 786.594 235.146C786.541 236.786 785.247 237.359 783.834 237.652C779.327 238.572 779.047 238.572 779.034 243.092C779.007 251.092 777.127 258.852 776.407 266.759C776.207 268.959 776.514 270.345 778.981 270.559C779.541 270.612 780.101 270.852 780.634 271.079C781.914 271.625 782.767 272.519 782.514 273.999C782.234 275.612 780.994 276.305 779.527 276.199C775.767 275.945 772.007 275.572 768.261 275.159C766.807 274.999 765.647 274.225 765.501 272.625C765.354 271.065 766.274 269.945 767.674 269.572C770.327 268.852 770.927 267.065 771.087 264.585C771.527 257.625 773.461 250.839 773.447 243.826V243.799Z" fill="black"/>
<path d="M573.835 274.425C571.048 273.932 567.941 274.039 564.848 274.052C562.968 274.052 561.181 273.692 560.995 271.452C560.821 269.266 562.515 268.306 564.328 268.146C566.701 267.932 567.315 266.585 567.661 264.572C569.075 256.479 570.515 248.385 572.141 240.332C572.621 237.932 571.995 237.145 569.648 237.172C568.315 237.185 566.941 236.905 565.648 236.545C564.341 236.185 563.395 235.306 563.608 233.786C563.808 232.332 564.888 231.505 566.235 231.519C571.555 231.585 576.875 231.732 582.181 231.959C583.755 232.025 585.035 232.879 584.941 234.692C584.861 236.346 583.555 237.212 582.155 237.092C578.595 236.799 577.781 238.919 577.301 241.772C575.968 249.692 574.568 257.586 573.075 265.479C572.701 267.492 572.995 268.585 575.248 268.865C577.141 269.105 578.701 270.185 578.315 272.332C577.915 274.599 575.928 274.492 573.848 274.412L573.835 274.425Z" fill="black"/>
<path d="M237.529 273.452C235.209 273.452 232.876 273.492 230.556 273.438C229.076 273.398 227.809 272.798 227.609 271.185C227.409 269.598 228.436 268.451 229.862 268.251C232.369 267.891 232.489 266.332 232.609 264.318C233.129 255.732 235.036 247.278 235.262 238.638C235.289 237.665 235.342 236.705 235.436 235.745C235.622 233.798 234.876 233.078 232.889 233.532C231.116 233.945 229.396 233.625 229.036 231.558C228.676 229.518 230.222 228.638 231.956 228.252C236.142 227.318 240.449 227.985 244.676 227.492C245.862 227.345 246.956 228.145 247.116 229.532C247.262 230.892 246.382 231.625 245.222 232.132C243.836 232.732 241.876 232.132 241.009 233.652C240.022 235.385 240.436 237.438 240.422 239.358C240.382 247.132 238.449 254.705 237.876 262.425C237.822 263.105 237.702 263.772 237.582 264.438C237.116 267.038 238.089 268.318 240.836 268.038C241.889 267.932 242.969 267.798 244.022 267.851C246.009 267.958 247.449 268.918 247.356 271.065C247.262 273.118 245.809 273.785 243.902 273.652C241.782 273.505 239.649 273.385 237.529 273.251C237.529 273.318 237.529 273.385 237.529 273.452Z" fill="black"/>
<path d="M394.622 232.705C399.342 233.518 403.568 232.225 407.822 232.531C409.608 232.651 411.648 232.585 411.822 234.905C411.995 237.358 409.942 238.011 408.049 237.878C404.942 237.651 404.008 239.145 403.808 241.931C403.302 248.971 402.048 255.945 402.195 263.025C402.208 263.705 402.262 264.412 402.115 265.052C401.342 268.145 401.369 270.465 405.702 270.118C407.208 269.998 408.475 271.211 408.368 272.958C408.248 274.838 406.862 275.798 405.182 275.625C401.608 275.251 398.075 275.118 394.488 275.611C393.062 275.798 391.795 275.012 391.395 273.492C390.982 271.945 391.795 270.638 393.128 270.185C396.448 269.065 396.742 266.465 396.702 263.665C396.609 256.292 397.635 248.998 398.435 241.705C398.675 239.518 398.168 238.358 395.835 238.305C395.262 238.305 394.702 238.078 394.142 237.931C392.622 237.505 391.355 236.705 391.608 234.932C391.888 232.985 393.422 232.638 394.648 232.692L394.622 232.705Z" fill="black"/>
<path d="M361.408 258.918C361.408 259.692 361.408 260.465 361.408 261.238C361.488 267.772 361.995 268.305 368.621 268.612C372.968 268.812 377.328 268.932 381.688 269.105C382.368 269.132 383.048 269.145 383.701 269.305C384.941 269.598 385.808 270.358 385.875 271.692C385.941 273.052 385.101 273.825 383.888 274.225C382.475 274.692 381.008 274.598 379.568 274.545C373.195 274.345 366.835 274.172 360.502 273.238C357.075 272.732 355.568 271.478 355.635 267.945C355.821 257.758 355.035 247.625 354.301 237.492C354.208 236.132 354.168 234.758 354.928 233.532C355.581 232.478 356.502 231.772 357.822 232.052C359.142 232.332 359.768 233.265 359.795 234.572C359.901 242.705 361.608 250.745 361.435 258.892L361.408 258.918Z" fill="black"/>
<path d="M808.487 256.291C809.02 261.851 807.58 267.278 807.327 272.798C807.26 274.185 806.647 275.318 805.18 275.518C803.58 275.744 802.647 274.731 802.18 273.318C801.94 272.598 801.767 271.758 801.9 271.038C803.594 262.225 802.394 253.225 803.674 244.398C803.887 242.958 803.9 241.491 804.207 240.078C804.834 237.331 803.54 236.585 801.1 236.811C799.554 236.958 798.007 237.091 796.474 237.171C794.58 237.264 792.434 237.331 792.22 234.838C792.034 232.558 793.994 232.011 795.807 231.918C801.114 231.678 806.434 231.545 811.74 231.398C814.06 231.331 816.38 231.265 818.7 231.331C820.474 231.385 822.127 231.958 822.114 234.091C822.087 236.091 820.474 236.531 818.82 236.611C816.887 236.718 814.927 236.891 813.007 236.745C810.847 236.571 809.954 237.558 809.807 239.504C809.394 245.104 808.047 250.625 808.487 256.291Z" fill="black"/>
</svg>
