<svg width="1021" height="758" viewBox="0 0 1021 758" fill="none" xmlns="http://www.w3.org/2000/svg">
<path d="M1018.8 287.892C1017.61 248.364 1014.8 208.988 1004.8 171.761C990.564 118.786 966.743 75.9516 932.334 45.7924C912.823 28.6944 891.136 21.0478 868.32 17.135C834.42 11.3209 800.41 10.4942 766.373 9.95688C732.638 9.41956 698.931 9.84666 665.21 12.6848C651.111 13.8697 636.928 14.9995 622.76 15.3439C588.268 16.1981 553.789 18.0581 519.297 18.3612C479.917 18.7057 440.537 18.5817 401.171 17.1763C372.241 16.143 343.409 11.7342 314.7 6.48493C302.638 4.28052 290.535 2.64098 278.404 2.35165C259.885 1.89699 241.337 1.88321 222.818 2.31032C195.913 2.94409 169.145 5.85116 142.488 11.748C120.939 16.515 100.905 25.87 83.1011 43.5742C63.9481 62.6149 46.6814 84.0115 36.6299 115.121C27.0189 144.867 19.542 175.426 15.0808 207.5C12.7125 224.571 8.48529 241.434 7.82437 258.587C7.19098 274.928 4.69873 291.02 5.05674 307.429C5.45604 325.932 2.27559 344.298 3.58367 362.815C4.91928 381.663 4.49218 400.552 7.7968 419.427C12.1892 444.447 20.6576 464.232 34.2478 481.481C55.3836 508.306 80.3885 518.116 107.776 519.094C125.703 519.728 143.645 519.328 161.586 519.204L45.4559 716.775L2 756C13.4836 749.924 24.3338 740.321 37.5385 743.945C39.2184 744.413 41.2423 743.779 42.9084 742.898C54.2681 736.877 66.096 732.068 76.8085 724.243C110.047 699.98 142.598 673.927 175.052 647.598C207.08 621.6 236.532 590.076 268.311 563.568C282.136 552.036 291.815 533.395 301.936 516.545C302.046 516.366 302.142 516.187 302.253 516.008L303.147 515.967C311.822 522.497 321.199 519.08 330.163 518.874C338.893 518.681 347.636 517.331 356.421 516.986C397.591 515.388 438.788 515.595 479.945 514.479C513.941 513.556 547.896 508.995 581.865 506.24C598.071 504.917 614.278 503.498 630.512 503.057C659.331 502.286 688.191 500.88 716.983 502.175C757.657 503.994 798.304 503.856 838.978 504.035C870.909 504.173 901.835 497.064 932.499 483.837C967.212 468.861 991.734 438.936 1008.05 394.311C1013.52 379.348 1014.78 362.746 1016.41 346.502C1018.35 327.117 1019.44 307.512 1018.83 287.879L1018.8 287.892Z" fill="white" stroke="black" stroke-width="3.99999" stroke-linecap="round" stroke-linejoin="round"/>
<path d="M178.566 123.258C184.139 123.258 189.713 123.258 195.286 123.258C198.886 123.258 202.393 123.778 205.74 125.164C209.7 126.804 211.833 129.764 211.286 134.058C210.739 138.244 207.566 140.124 203.766 140.444C199.113 140.831 194.42 140.778 189.74 140.618C184.953 140.458 182.446 142.804 182.473 147.311C182.593 166.964 177.313 186.137 177.793 205.884C178.18 221.631 177.286 237.417 176.42 253.151C176.14 258.337 176.833 261.324 182.673 261.324C184.153 261.324 185.726 262.017 187.113 262.697C190.873 264.564 192.979 267.631 192.219 271.897C191.473 276.137 188.673 278.604 184.313 278.657C173.846 278.79 163.393 279.004 152.94 279.777C147.606 280.177 143.073 277.924 142.14 272.004C141.153 265.751 145.54 262.697 150.593 261.964C157.713 260.911 158.993 256.591 159.06 250.697C159.3 227.977 159.246 205.244 161.806 182.631C163.18 170.457 164.486 158.311 165.06 146.058C165.273 141.444 164.566 139.218 159.726 139.458C159.073 139.484 158.393 139.351 157.74 139.204C153.166 138.231 149.633 136.004 149.98 130.778C150.326 125.751 153.726 123.271 158.513 123.111C165.193 122.898 171.886 123.058 178.566 123.058V123.258Z" fill="#55ADE1"/>
<path d="M685.218 360.284C686.591 358.217 687.045 356.164 687.925 354.31C691.952 345.83 694.872 336.924 698.232 328.19C698.632 327.137 698.765 325.99 699.138 324.924C699.671 323.404 700.791 322.737 702.391 323.044C703.911 323.337 704.125 324.51 704.098 325.79C703.952 333.67 705.111 341.484 705.658 349.324C705.818 351.537 706.645 353.697 707.245 356.23C708.671 354.684 709.005 353.097 709.218 351.55C710.045 345.817 711.551 340.23 712.605 334.55C713.258 331.017 714.445 327.617 715.312 324.15C715.712 322.55 716.605 321.737 718.258 321.857C719.992 321.977 720.311 323.164 720.391 324.63C720.511 326.844 719.511 328.804 719.045 330.87C717.418 338.11 715.765 345.337 714.551 352.657C713.898 356.63 712.098 360.204 710.245 363.684C708.885 366.27 705.138 365.91 703.792 363.244C703.018 361.724 702.725 360.03 702.271 358.404C700.725 352.924 699.725 347.39 699.858 341.67C699.858 341.324 699.965 340.897 699.445 340.564C698.298 341.817 698.125 343.497 697.658 344.99C696.405 349.044 694.472 352.79 692.818 356.657C691.978 358.63 691.178 360.604 690.258 362.55C689.485 364.204 688.351 365.484 686.445 365.924C683.378 366.63 681.632 365.777 680.432 362.884C679.845 361.47 679.432 360.03 679.405 358.497C679.298 352.39 678.925 346.284 679.138 340.177C679.311 335.07 679.071 329.99 679.031 324.91C679.031 323.764 679.112 322.644 679.432 321.55C679.698 320.59 680.325 320.057 681.325 319.977C682.378 319.897 683.178 320.284 683.631 321.257C683.791 321.59 683.965 321.977 683.938 322.337C683.658 326.99 684.498 331.617 684.165 336.284C683.951 339.23 683.912 342.217 684.125 345.15C684.378 348.804 684.325 352.444 684.391 356.097C684.418 357.417 684.565 358.697 685.218 360.27V360.284Z" fill="black"/>
<path d="M607.045 331.924C606.298 334.311 605.472 336.671 604.845 339.097C603.952 342.497 603.191 345.937 602.391 349.364C602.045 350.857 601.298 351.964 599.671 352.057C598.071 352.15 597.018 351.191 596.551 349.777C595.645 347.031 594.871 344.244 594.058 341.471C593.285 338.844 592.391 336.271 590.965 333.871C590.285 339.324 589.205 344.684 589.538 350.151C589.818 354.79 588.752 359.284 588.312 363.844C588.152 365.524 586.698 366.79 585.338 366.777C583.951 366.75 582.631 365.377 582.445 363.537C582.231 361.457 582.631 359.39 582.965 357.35C583.445 354.404 583.592 351.497 583.258 348.524C583.072 346.937 583.352 345.257 583.592 343.644C584.645 336.724 585.178 329.777 584.991 322.777C584.951 321.271 584.858 319.751 585.271 318.271C585.605 317.084 586.285 316.231 587.512 315.964C588.778 315.697 589.725 316.311 590.432 317.284C590.872 317.884 591.258 318.551 591.578 319.231C593.605 323.564 595.445 327.977 596.765 332.591C597.138 333.911 597.765 335.164 598.312 336.444C598.472 336.817 598.591 337.391 599.165 337.284C599.578 337.204 599.592 336.711 599.712 336.364C601.391 331.884 602.752 327.297 603.872 322.644C604.165 321.404 604.645 320.257 605.271 319.151C605.951 317.937 606.991 317.337 608.378 317.404C609.738 317.471 610.498 318.337 611.058 319.484C612.431 322.337 612.632 325.484 612.872 328.511C613.378 334.817 613.551 341.164 613.698 347.497C613.778 351.217 613.991 354.91 614.805 358.55C614.898 358.977 614.978 359.417 615.045 359.844C615.378 361.99 614.338 363.79 612.592 364.11C611.045 364.39 609.338 363.017 609.031 360.937C608.604 358.084 607.952 355.23 608.072 352.324C608.325 345.83 607.525 339.377 607.645 332.884C607.645 332.591 607.565 332.297 607.512 332.004C607.352 331.977 607.191 331.951 607.031 331.937L607.045 331.924Z" fill="black"/>
<path d="M559.484 237.577C559.258 235.377 559.684 233.35 560.831 231.43C561.431 230.43 562.177 229.71 563.337 229.71C568.644 229.737 573.964 230.43 578.044 233.99C585.231 240.284 585.178 245.35 579.631 252.844C578.311 254.63 578.191 254.564 580.364 255.284C581.791 255.764 583.324 256.11 584.577 256.897C588.217 259.164 590.097 262.75 590.084 266.844C590.084 271.15 587.671 274.484 583.645 276.284C579.698 278.057 575.444 278.63 571.151 278.804C569.631 278.857 568.218 279.004 566.844 279.857C565.018 280.977 563.351 280.057 562.831 277.75C562.324 275.537 562.605 273.257 562.311 270.99C561.511 264.697 561.444 258.337 561.071 252.004C560.871 248.63 560.257 245.27 559.857 241.897C559.684 240.457 559.604 239.017 559.471 237.577H559.484ZM571.911 273.084C574.338 272.897 577.511 272.497 580.551 271.39C582.991 270.51 584.524 268.604 584.497 266.644C584.471 264.47 582.537 261.804 580.417 261.017C576.844 259.697 573.124 259.27 569.337 259.177C567.724 259.137 566.991 259.684 567.178 261.35C567.511 264.404 567.751 267.47 568.137 270.51C568.471 273.137 568.525 273.124 571.925 273.084H571.911ZM578.124 243.697C578.124 242.884 577.804 242.217 577.458 241.524C575.084 236.777 570.391 236.03 565.978 234.857C564.965 234.59 564.885 235.47 564.951 236.19C565.045 237.444 565.151 238.697 565.324 239.95C565.858 243.937 566.405 247.924 566.978 251.91C567.071 252.604 567.191 253.364 568.258 252.964C570.258 252.204 572.391 251.697 574.164 250.484C576.524 248.87 577.604 246.417 578.137 243.697H578.124Z" fill="black"/>
<path d="M732.671 256.777C732.671 259.204 732.578 261.43 732.698 263.657C732.884 267.137 732.444 270.577 732.338 274.03C732.271 276.017 731.165 277.15 729.525 277.204C728.071 277.257 726.765 275.87 726.698 274.004C726.658 272.817 726.898 271.63 726.938 270.43C727.165 262.457 727.538 254.471 727.298 246.497C727.165 242.284 727.058 238.071 727.004 233.857C726.964 229.551 729.245 227.044 733.592 227.257C738.165 227.471 742.751 227.897 747.111 229.604C749.085 230.377 750.458 231.684 751.485 233.537C756.338 242.271 750.725 251.83 741.818 254.524C739.765 255.15 739.778 255.137 740.991 256.897C744.645 262.177 748.258 267.484 752.872 272.004C753.232 272.35 753.525 272.777 753.765 273.217C754.485 274.47 754.658 275.804 753.578 276.87C752.445 278.004 751.031 277.964 749.805 276.964C746.951 274.644 744.752 271.724 742.432 268.897C739.752 265.63 737.778 261.857 734.978 258.684C734.418 258.044 733.965 257.257 732.658 256.764L732.671 256.777ZM737.285 249.737C737.912 249.631 739.191 249.577 740.378 249.191C743.791 248.084 747.485 245.164 747.711 240.524C747.831 238.071 747.112 234.951 743.872 234.164C740.685 233.391 737.471 232.884 734.191 232.697C732.791 232.617 732.231 233.351 732.418 234.684C732.925 238.377 732.591 242.097 732.698 245.804C732.791 248.817 733.645 249.711 737.271 249.724L737.285 249.737Z" fill="black"/>
<path d="M786.646 248.044C785.779 250.644 785.832 253.244 786.085 255.777C786.619 261.03 785.899 266.204 785.445 271.39C785.365 272.324 785.272 273.27 785.179 274.204C785.019 275.777 784.432 277.044 782.672 277.257C781.152 277.43 780.019 276.377 779.725 274.444C779.379 272.23 780.058 270.07 780.338 267.897C780.618 265.697 780.698 263.51 780.698 261.31C780.698 254.137 780.699 246.95 780.685 239.777C780.685 238.244 780.819 236.75 781.432 235.337C782.006 234.031 782.899 233.111 784.419 233.111C785.832 233.111 786.552 234.084 787.058 235.217C788.952 239.47 790.765 243.75 792.712 247.977C794.245 251.297 796.499 254.244 797.592 257.764C798.352 260.23 799.112 262.697 799.885 265.15C799.992 265.484 800.192 265.79 800.432 266.297C801.165 264.937 800.992 263.67 801.179 262.457C801.832 258.137 801.965 253.83 801.392 249.484C800.778 244.777 801.659 240.071 801.486 235.351C801.459 234.724 801.672 234.097 802.045 233.577C802.779 232.551 803.698 231.764 805.058 232.151C806.338 232.511 806.779 233.551 806.792 234.777C806.805 237.297 806.792 239.817 806.765 242.337C806.725 245.804 806.819 249.244 807.165 252.71C807.819 259.417 806.352 265.977 805.445 272.564C805.418 272.75 805.325 272.924 805.272 273.097C804.632 275.124 803.659 276.99 801.299 277.084C799.045 277.177 798.139 275.31 797.352 273.55C795.659 269.75 794.165 265.87 793.192 261.817C791.979 256.777 788.658 252.75 786.672 248.03L786.646 248.044Z" fill="black"/>
<path d="M832.392 231.857C834.979 232.377 838.366 233.03 841.739 233.737C842.752 233.95 843.579 234.63 844.259 235.337C847.473 238.684 849.113 242.764 849.459 247.35C849.579 248.87 849.032 250.15 847.326 250.404C845.686 250.644 844.939 249.537 844.539 248.164C843.993 246.297 843.712 244.39 842.886 242.577C841.766 240.097 840.312 238.47 837.326 238.244C834.859 238.057 832.499 237.004 829.886 237.444C827.926 237.777 826.326 238.577 824.859 239.83C819.246 244.697 816.646 257.484 819.886 264.23C820.699 265.924 821.779 267.297 823.419 268.284C825.086 269.284 826.539 270.71 828.286 271.47C831.606 272.91 835.059 272.67 838.419 271.404C840.566 270.59 842.326 265.857 841.406 263.697C841.059 262.897 840.459 262.83 839.712 262.884C837.899 263.017 836.072 263.11 834.272 263.497C832.659 263.844 831.033 263.844 829.433 263.257C828.086 262.764 827.312 261.897 827.552 260.404C827.792 258.924 828.872 258.137 830.219 258.23C833.592 258.444 836.846 257.737 840.139 257.31C843.259 256.91 844.445 257.817 846.032 260.524C849.005 265.564 845.259 275.19 840.486 276.497C834.179 278.217 828.206 278.43 822.566 274.15C819.579 271.884 816.499 269.977 814.992 266.31C813.739 263.284 813.059 260.217 813.112 256.964C813.246 249.99 814.926 243.55 819.326 237.95C822.459 233.964 826.539 232.017 832.379 231.844L832.392 231.857Z" fill="black"/>
<path d="M223.126 319.924C226.459 321.097 231.072 320.177 234.526 323.004C238.486 326.257 240.072 330.817 240.299 335.844C240.366 337.257 239.633 338.297 238.139 338.484C236.726 338.657 235.912 337.844 235.512 336.55C234.846 334.457 234.552 332.284 233.566 330.27C232.459 327.99 231.046 326.577 228.339 326.337C225.806 326.124 223.393 325.044 220.713 325.51C218.753 325.857 217.153 326.657 215.699 327.924C210.086 332.817 207.526 345.59 210.766 352.337C211.579 354.03 212.673 355.39 214.313 356.377C215.979 357.377 217.432 358.804 219.192 359.564C222.512 361.004 225.979 360.75 229.326 359.47C231.472 358.657 233.219 353.857 232.259 351.75C231.899 350.95 231.272 350.924 230.539 350.964C228.712 351.084 226.899 351.204 225.113 351.577C223.499 351.91 221.872 351.91 220.272 351.324C218.912 350.817 218.166 349.924 218.419 348.444C218.673 346.964 219.766 346.217 221.113 346.297C224.419 346.51 227.619 345.844 230.846 345.404C234.126 344.95 235.339 345.897 236.992 348.804C239.726 353.604 236.233 363.337 231.139 364.657C224.886 366.284 218.979 366.444 213.393 362.204C210.406 359.937 207.339 358.004 205.832 354.35C204.579 351.324 203.913 348.244 203.966 344.99C204.099 338.017 205.792 331.577 210.206 325.99C213.339 322.017 217.433 320.07 223.113 319.924H223.126Z" fill="black"/>
<path d="M212.087 248.297C211.341 249.524 211.554 250.35 211.54 251.137C211.5 259.124 211.874 267.124 210.474 275.057C210.114 277.137 209.42 278.11 207.847 278.07C206.327 278.03 205.367 276.937 205.367 274.884C205.367 273.07 205.607 271.244 205.794 269.43C206.701 260.07 206.02 250.684 206.207 241.324C206.234 239.75 206.221 238.177 206.821 236.684C207.354 235.337 208.301 234.417 209.727 234.337C211.167 234.257 212.02 235.284 212.527 236.497C214.274 240.604 215.834 244.777 217.9 248.75C218.86 250.59 219.687 252.484 220.794 254.257C222.981 257.71 223.687 261.75 224.98 265.55C225.22 266.244 225.26 267.03 226.06 267.737C226.687 262.19 227.5 256.857 226.847 251.377C226.26 246.444 226.434 241.444 226.927 236.497C227.14 234.364 228.594 233.044 230.127 233.31C231.567 233.564 232.154 234.964 232.087 237.084C231.914 241.924 231.5 246.79 232.247 251.59C233.007 256.537 232.194 261.377 231.727 266.244C231.527 268.364 231.127 270.47 230.794 272.59C230.701 273.15 230.58 273.71 230.407 274.23C229.754 276.084 228.834 277.857 226.634 277.95C224.46 278.044 223.58 276.297 222.834 274.564C221.447 271.324 219.914 268.124 219.194 264.657C217.994 258.804 214.301 254.11 212.061 248.31L212.087 248.297Z" fill="black"/>
<path d="M304.086 272.977C304.246 268.817 304.62 264.711 305.62 260.644C306.66 256.417 306.846 252.057 307.473 247.777C308.006 244.071 309.34 240.604 310.647 237.124C311.273 235.471 312.34 234.044 313.647 232.817C317.473 229.218 323.513 230.458 325.58 235.311C326.82 238.217 327.5 241.324 327.873 244.431C328.687 251.297 330.006 258.084 331.153 264.911C331.726 268.337 332.326 271.724 333.713 274.937C334.313 276.324 334.193 277.711 332.74 278.577C331.313 279.431 330.033 278.964 329.033 277.791C327.073 275.471 326.806 272.497 326.113 269.711C325.779 268.377 325.726 266.977 325.526 265.604C325.366 264.484 324.887 263.631 323.62 263.711C320.007 263.977 316.487 263.124 312.927 262.884C311.42 262.777 310.94 263.324 310.66 264.644C310.086 267.431 309.953 270.257 309.806 273.071C309.74 274.204 309.727 275.337 309.26 276.404C308.7 277.671 307.806 278.551 306.339 278.271C304.953 278.004 304.166 277.057 304.1 275.604C304.06 274.724 304.1 273.844 304.1 272.964L304.086 272.977ZM320.02 258.111C320.02 258.111 320.02 258.057 320.02 258.031C320.646 258.031 321.273 257.991 321.9 258.031C323.3 258.124 323.953 257.484 323.686 256.124C322.66 250.817 322.833 245.337 321.246 240.124C320.806 238.657 320.686 236.657 318.713 236.604C316.74 236.551 316.246 238.524 315.673 240.004C313.686 245.137 312.753 250.524 312.193 255.977C312.086 256.991 312.353 257.537 313.446 257.604C315.633 257.737 317.833 257.937 320.02 258.097V258.111Z" fill="black"/>
<path d="M722.111 360.311C722.111 357.031 722.391 353.777 723.191 350.591C724.445 345.511 724.765 340.284 725.551 335.137C726.111 331.524 727.271 328.017 728.778 324.711C730.311 321.377 732.498 318.511 736.738 318.431C739.792 318.377 742.844 320.537 744.004 323.764C745.498 327.924 746.245 332.284 746.725 336.657C747.151 340.537 747.578 344.391 748.565 348.177C749.512 351.764 749.498 355.537 750.538 359.124C750.965 360.577 751.391 362.004 752.018 363.391C752.618 364.724 752.578 366.044 751.191 366.871C749.831 367.684 748.525 367.417 747.432 366.257C745.498 364.217 745.365 361.457 744.618 358.951C744.192 357.511 743.845 355.991 743.858 354.497C743.871 352.324 742.845 351.684 740.885 351.604C737.311 351.457 733.738 351.204 730.165 350.911C729.005 350.817 728.871 351.484 728.631 352.351C727.671 355.791 727.925 359.337 727.538 362.831C727.405 364.004 727.138 365.057 726.325 365.911C725.672 366.591 724.885 366.924 723.938 366.591C722.991 366.257 722.192 365.724 722.152 364.631C722.085 363.191 722.138 361.737 722.138 360.297L722.111 360.311ZM739.738 346.164C742.165 346.337 742.271 346.204 741.991 344.191C741.525 340.764 741.071 337.337 740.658 333.911C740.351 331.337 739.752 328.831 739.018 326.364C738.698 325.311 738.111 324.311 736.965 324.097C735.898 323.897 735.272 324.817 734.765 325.604C734.325 326.284 733.965 327.031 733.658 327.777C731.485 333.004 730.658 338.524 730.125 344.111C730.018 345.244 730.298 345.764 731.512 345.711C734.405 345.577 737.218 346.871 739.751 346.164H739.738Z" fill="black"/>
<path d="M370.473 343.03C370.927 345.87 370.607 349.75 369.927 353.603C368.62 361.057 363.794 365.71 356.54 366.257C354.1 366.443 351.647 366.203 349.247 365.537C347.234 364.977 345.66 363.843 344.42 362.123C342.5 359.47 340.713 356.75 339.42 353.723C338.153 350.737 338.514 347.657 338.687 344.604C339.034 338.484 340.06 332.47 342.434 326.79C346.007 318.204 355.927 315.63 363.033 321.35C364.753 322.737 365.78 324.644 366.7 326.55C369.047 331.404 370.607 336.484 370.447 343.03H370.473ZM365.154 344.27C365.514 338.524 364.14 332.737 361.1 327.324C358.527 322.75 352.381 322.15 348.981 326.124C347.661 327.67 346.62 329.417 346.127 331.39C344.42 338.244 342.754 345.097 345.047 352.177C346.047 355.243 347.46 358.177 350.154 359.883C354.954 362.923 361.82 360.35 363.847 355.097C365.14 351.737 365.407 348.257 365.154 344.257V344.27Z" fill="black"/>
<path d="M504.138 318.417C509.725 318.377 513.499 320.937 515.952 325.95C520.352 334.924 520.179 344.27 518.179 353.617C516.779 360.204 512.818 364.684 505.578 365.617C499.418 366.417 494.072 363.617 490.805 358.364C486.712 351.79 487.059 344.99 488.765 337.977C489.672 334.257 490.378 330.417 492.085 326.964C494.538 322.004 498.232 318.564 504.152 318.404L504.138 318.417ZM513.925 342.697C514.325 337.59 513.112 332.484 510.832 327.524C508.952 323.444 502.765 322.19 499.645 325.35C498.539 326.47 497.498 327.63 496.858 329.11C493.778 336.364 492.085 343.83 493.979 351.697C494.659 354.537 495.938 357.63 498.445 358.884C503.205 361.284 509.179 361.39 512.098 354.884C513.805 351.084 513.938 347.097 513.912 342.71L513.925 342.697Z" fill="black"/>
<path d="M476.417 248.471C476.417 250.924 476.43 253.377 476.417 255.831C476.417 256.964 476.831 257.404 478.017 257.671C483.324 258.884 488.817 258.257 494.11 259.444C495.63 259.777 496.271 259.351 496.231 257.484C496.084 251.577 494.871 245.724 495.324 239.791C495.417 238.591 495.471 237.404 496.017 236.297C496.591 235.151 497.564 234.617 498.804 234.777C500.084 234.951 500.737 235.871 500.951 237.097C501.164 238.297 500.79 239.471 500.724 240.671C500.537 243.884 500.724 247.111 501.204 250.271C502.031 255.777 501.844 261.311 502.097 266.831C502.257 270.284 502.337 273.737 502.511 277.19C502.577 278.67 502.177 279.99 500.457 280.324C498.724 280.67 497.537 279.764 497.204 277.764C496.617 274.217 496.297 270.644 496.537 267.044C496.657 265.257 496.11 264.351 494.19 264.297C492.124 264.244 490.057 263.857 487.991 263.817C484.711 263.751 481.457 263.511 478.244 262.911C476.497 262.591 475.991 263.337 476.097 264.951C476.271 267.777 476.364 270.604 476.484 273.43C476.511 273.99 476.511 274.564 476.484 275.124C476.391 276.724 475.844 277.977 473.991 278.084C472.364 278.177 471.271 277.15 471.151 275.244C470.964 271.924 470.684 268.577 470.764 265.257C470.897 259.844 470.564 254.431 471.097 249.031C471.471 245.204 470.75 241.364 470.777 237.537C470.79 235.057 471.804 233.391 473.351 233.311C474.964 233.231 475.937 234.764 476.124 237.351C476.391 241.057 476.591 244.764 476.431 248.471H476.417Z" fill="black"/>
<path d="M349.325 280.404C344.365 280.297 340.084 278.764 337.084 274.537C336.524 273.751 336.018 272.964 335.898 272.004C335.711 270.417 336.178 269.097 337.765 268.471C339.418 267.817 340.538 268.617 341.378 269.991C343.845 274.044 347.338 275.484 351.951 274.297C352.978 274.031 353.991 273.644 354.964 273.217C359.858 271.097 360.458 265.404 355.978 262.337C352.405 259.884 348.658 257.671 344.858 255.577C341.084 253.497 338.791 250.377 337.551 246.391C336.871 244.177 337.791 242.124 338.765 240.244C340.858 236.204 344.071 233.644 348.551 232.297C354.564 230.497 359.311 232.764 363.684 236.311C365.871 238.084 366.751 240.684 366.538 243.591C366.418 245.177 365.765 246.351 364.151 246.497C362.605 246.631 361.818 245.497 361.405 244.124C361.085 243.057 361.231 241.844 360.431 240.911C358.765 238.964 356.591 237.751 354.151 237.337C349.605 236.564 344.978 239.337 343.178 243.591C342.351 245.551 344.138 248.911 346.711 250.431C350.885 252.897 355.098 255.284 359.125 257.964C363.658 260.991 365.218 265.511 364.511 270.791C364.018 274.564 361.444 276.657 358.191 278.177C355.364 279.511 352.458 280.444 349.298 280.404H349.325Z" fill="black"/>
<path d="M864.684 279.271C859.804 279.124 855.577 277.617 852.604 273.457C852.004 272.617 851.457 271.791 851.363 270.751C851.23 269.151 851.763 267.857 853.363 267.297C854.95 266.737 856.03 267.511 856.83 268.817C859.483 273.097 863.511 274.551 868.284 272.951C869.057 272.697 869.817 272.377 870.564 272.044C875.31 269.924 875.897 264.271 871.497 261.244C867.923 258.791 864.19 256.551 860.377 254.484C856.59 252.417 854.323 249.284 853.03 245.324C852.377 243.311 853.217 241.457 853.951 239.671C857.137 231.844 868.083 228.217 874.39 232.097C876.59 233.444 878.977 234.444 880.47 236.711C881.63 238.457 882.137 240.337 882.017 242.431C881.937 244.017 881.284 245.204 879.684 245.391C878.124 245.564 877.044 244.471 876.951 243.071C876.711 239.497 874.297 237.991 871.47 236.804C866.843 234.844 860.363 237.231 858.443 243.151C857.923 244.777 860.057 248.057 862.137 249.297C866.243 251.737 870.404 254.097 874.404 256.711C878.964 259.684 880.644 264.124 880.017 269.444C879.724 271.977 878.563 274.111 876.337 275.537C872.777 277.817 868.977 279.364 864.644 279.297L864.684 279.271Z" fill="black"/>
<path d="M288.727 230.737C291.02 230.737 293.287 230.857 295.514 231.311C296.754 231.564 297.981 231.911 298.981 232.737C300.101 233.657 300.687 234.791 300.06 236.231C299.393 237.751 297.98 238.044 296.714 237.497C293.367 236.084 289.847 236.231 286.46 236.564C278.794 237.311 272.727 240.817 269.247 248.017C268.207 250.177 268.341 252.497 268.794 254.697C269.901 260.191 272.26 265.031 276.753 268.671C278.887 270.391 281.301 271.124 283.901 271.231C288.181 271.431 292.46 271.324 296.673 270.311C297.393 270.137 298.18 270.111 298.914 270.177C300.287 270.311 301.3 270.951 301.473 272.484C301.647 274.017 300.981 275.191 299.541 275.551C292.007 277.471 284.447 278.444 276.901 275.577C272.941 274.071 270.074 271.017 267.887 267.764C264.767 263.137 262.594 257.924 262.514 252.071C262.447 247.871 263.901 244.244 266.487 241.137C272.247 234.191 279.727 230.751 288.753 230.737H288.727Z" fill="black"/>
<path d="M399.392 341.524C398.819 336.897 400.673 332.031 400.713 326.991C400.713 325.924 400.873 324.857 400.859 323.791C400.846 322.191 401.419 320.964 403.139 320.924C404.779 320.884 405.673 322.031 405.806 323.564C406.019 325.951 406.059 328.364 405.672 330.724C404.859 335.697 404.58 340.644 404.486 345.71C404.366 352.564 402.779 359.31 396.113 363.31C393.366 364.95 390.313 365.83 387.153 366.017C383.393 366.244 378.993 362.657 377.433 358.737C375.406 353.63 375.94 348.337 376.1 343.07C376.233 338.684 376.886 334.324 376.846 329.924C376.82 327.751 377.246 325.537 377.659 323.391C377.913 322.044 378.873 321.097 380.366 321.311C381.873 321.524 382.153 322.751 382.1 324.031C381.926 328.111 381.566 332.19 381.579 336.27C381.593 341.924 380.46 347.55 381.286 353.19C381.633 355.564 382.046 357.95 384.113 359.577C386.366 361.337 390.446 361.044 393.46 359.03C398.02 355.99 398.886 351.27 399.353 346.364C399.486 344.924 399.379 343.47 399.379 341.55L399.392 341.524Z" fill="black"/>
<path d="M382.019 255.631C384.232 255.604 386.419 255.711 388.592 256.137C390.432 256.497 391.539 257.617 391.325 258.924C391.099 260.297 389.552 261.23 387.752 260.79C385.112 260.137 382.499 260.271 379.885 260.684C378.552 260.897 377.006 259.604 375.952 260.87C375.112 261.897 375.765 263.444 375.499 264.737C374.979 267.23 375.232 269.75 375.165 272.27C375.125 273.604 375.672 274.257 377.059 274.217C380.525 274.124 383.952 274.897 387.419 274.684C388.445 274.617 389.432 274.857 390.352 275.284C391.472 275.804 392.219 276.644 391.939 277.964C391.685 279.217 390.832 279.897 389.539 279.964C386.886 280.097 384.259 279.844 381.632 279.577C379.125 279.324 376.619 279.177 374.126 278.83C371.192 278.43 370.152 277.217 370.152 274.324C370.152 266.27 370.779 258.244 371.126 250.204C371.272 246.817 371.019 243.417 370.992 240.031C370.966 236.551 372.379 234.644 375.792 233.777C380.059 232.684 384.366 231.724 388.819 231.911C389.699 231.951 390.579 231.977 391.406 232.337C392.459 232.804 393.299 233.444 393.099 234.737C392.886 236.071 391.898 236.631 390.672 236.684C389.538 236.737 388.406 236.537 387.286 236.604C384.206 236.764 381.192 237.444 378.139 237.937C376.685 238.164 375.925 238.951 375.965 240.497C376.099 244.951 376.645 249.404 375.965 253.871C375.779 255.084 376.579 255.591 377.659 255.631C379.099 255.684 380.552 255.631 381.992 255.631H382.019Z" fill="black"/>
<path d="M594.579 268.897C594.939 261.99 595.38 255.097 595.646 248.177C595.766 244.79 595.526 241.391 595.499 237.991C595.473 234.724 596.899 232.751 600.059 231.924C604.379 230.804 608.74 229.804 613.26 230.017C614.073 230.057 614.899 230.124 615.672 230.364C616.886 230.751 617.899 231.471 617.579 232.964C617.273 234.377 616.139 234.897 614.859 234.791C612.899 234.617 610.966 234.697 609.033 234.991C606.913 235.297 604.819 235.684 602.699 236.017C601.139 236.271 600.419 237.111 600.473 238.724C600.619 243.111 601.153 247.51 600.473 251.91C600.273 253.244 601.153 253.71 602.299 253.75C604.313 253.804 606.326 253.857 608.339 253.804C610.059 253.75 611.739 254.004 613.393 254.337C614.779 254.617 615.913 255.324 615.806 256.977C615.726 258.244 614.139 259.417 612.672 258.95C608.992 257.777 605.273 259.23 601.606 258.497C600.686 258.31 600.166 258.83 600.126 259.764C599.98 263.337 599.459 266.897 599.633 270.497C599.699 271.924 600.379 272.337 601.659 272.31C605.179 272.244 608.673 272.964 612.206 272.804C612.94 272.777 613.699 272.99 614.419 273.23C615.726 273.657 616.686 274.484 616.433 276.004C616.18 277.47 615.139 278.044 613.699 278.084C611.179 278.15 608.673 277.937 606.166 277.684C603.606 277.43 601.033 277.27 598.473 276.924C595.673 276.537 594.673 275.284 594.633 272.497C594.619 271.297 594.633 270.11 594.633 268.91C594.606 268.91 594.593 268.91 594.566 268.91L594.579 268.897Z" fill="black"/>
<path d="M441.899 232.671C449.259 232.671 456.605 232.671 463.965 232.671C465.952 232.671 467.219 233.591 467.312 234.991C467.406 236.364 466.272 237.337 464.232 237.657C460.659 238.217 457.099 237.377 453.512 237.577C450.912 237.724 451.245 237.644 451.005 240.137C450.578 244.391 450.552 248.657 450.219 252.911C449.685 259.857 448.832 266.804 449.552 273.79C449.659 274.844 449.645 275.937 449.525 276.99C449.379 278.31 448.606 279.244 447.259 279.404C445.819 279.577 444.845 278.75 444.392 277.444C444.112 276.63 444.019 275.724 443.979 274.844C443.592 266.604 444.192 258.39 444.965 250.191C445.299 246.697 445.285 243.164 445.472 239.657C445.552 238.111 444.898 237.524 443.365 237.564C440.099 237.631 436.819 237.577 433.552 237.591C432.539 237.591 431.525 237.537 430.579 237.191C429.352 236.737 428.459 235.911 428.646 234.524C428.832 233.164 429.872 232.444 431.165 232.377C433.365 232.271 435.566 232.311 437.766 232.311C439.152 232.311 440.539 232.311 441.912 232.311C441.912 232.431 441.912 232.551 441.912 232.671H441.899Z" fill="black"/>
<path d="M286.659 320.737C294.019 320.737 301.365 320.737 308.725 320.737C310.712 320.737 311.979 321.657 312.072 323.057C312.166 324.431 311.032 325.404 308.992 325.724C305.419 326.284 301.859 325.444 298.272 325.644C295.672 325.791 296.005 325.711 295.752 328.204C295.325 332.457 295.299 336.724 294.966 340.977C294.432 347.924 293.579 354.871 294.299 361.857C294.406 362.911 294.392 364.004 294.272 365.057C294.126 366.377 293.352 367.31 292.005 367.47C290.565 367.644 289.579 366.817 289.139 365.51C288.859 364.697 288.765 363.79 288.725 362.91C288.339 354.671 288.939 346.457 289.712 338.257C290.046 334.697 290.046 331.111 290.219 327.524C290.286 326.164 289.673 325.604 288.313 325.631C284.979 325.671 281.646 325.671 278.313 325.631C277.379 325.631 276.419 325.524 275.513 325.297C274.246 324.977 273.326 324.137 273.379 322.777C273.446 321.297 274.539 320.524 275.912 320.444C277.979 320.324 280.059 320.391 282.139 320.377C283.646 320.377 285.152 320.377 286.672 320.377V320.724L286.659 320.737Z" fill="black"/>
<path d="M424.752 319.99C432.046 319.79 439.326 320.55 446.633 320.377C448.633 320.324 449.899 321.27 450.006 322.67C450.112 324.044 448.98 325.044 446.953 325.364C443.313 325.937 439.686 325.07 436.046 325.297C433.606 325.444 433.939 325.364 433.686 327.817C433.259 332.137 433.206 336.457 432.886 340.777C432.366 347.67 431.513 354.55 432.233 361.47C432.34 362.524 432.326 363.617 432.219 364.67C432.059 366.07 431.233 367.044 429.793 367.137C428.459 367.23 427.499 366.43 427.099 365.19C426.833 364.364 426.712 363.47 426.672 362.604C426.272 354.364 426.886 346.15 427.646 337.95C427.98 334.457 427.979 330.924 428.166 327.417C428.246 325.897 427.659 325.257 426.086 325.297C422.872 325.377 419.673 325.337 416.46 325.297C415.646 325.297 414.819 325.244 414.019 325.097C412.259 324.777 411.06 323.55 411.313 322.27C411.633 320.63 412.859 320.057 414.379 320.044C417.339 320.004 420.299 320.017 423.246 320.004C423.753 320.004 424.246 320.004 424.752 320.004V319.99Z" fill="black"/>
<path d="M759.591 364.964C760.671 359.404 759.111 353.777 759.951 348.217C760.111 347.19 759.831 346.244 759.324 345.324C758.364 343.617 757.964 341.684 757.271 339.87C755.178 334.404 754.524 328.497 751.938 323.204C751.244 321.804 751.271 320.471 752.658 319.524C753.778 318.764 755.351 319.324 756.351 320.857C758.111 323.537 758.885 326.63 759.485 329.697C760.191 333.257 761.924 336.444 762.684 339.95C762.764 340.297 762.897 340.75 763.337 340.777C763.884 340.804 763.991 340.257 764.191 339.884C766.138 336.43 767.818 332.844 769.938 329.47C772.151 325.937 774.845 322.764 777.565 319.631C778.978 318.004 780.338 317.791 781.498 318.724C782.631 319.644 782.618 321.324 781.378 322.964C779.631 325.27 777.791 327.51 776.018 329.79C773.018 333.644 771.044 338.097 768.697 342.324C767.778 343.977 767.044 345.697 765.724 347.11C764.631 348.284 764.418 349.857 764.551 351.377C765.031 356.777 764.431 362.177 764.551 367.59C764.591 369.137 764.444 370.59 762.524 370.857C761.044 371.057 759.791 369.724 759.604 367.79C759.511 366.857 759.591 365.91 759.591 364.964Z" fill="black"/>
<path d="M250.513 334.977C250.513 336.991 250.58 339.004 250.487 341.017C250.42 342.484 251.007 343.031 252.46 343.071C255.407 343.164 258.38 342.764 261.3 343.417C261.54 343.471 261.807 343.471 262.047 343.537C263.433 343.911 264.913 344.377 264.673 346.164C264.446 347.937 262.914 348.324 261.487 347.964C258.114 347.137 254.7 348.204 251.353 347.551C250.54 347.391 250.22 347.791 250.154 348.577C249.914 351.897 249.62 355.217 249.714 358.551C249.754 359.951 250.327 360.431 251.66 360.417C254.74 360.404 257.793 361.004 260.887 360.884C261.74 360.857 262.633 361.097 263.473 361.351C264.793 361.724 265.474 362.644 265.26 364.057C265.034 365.537 263.914 365.977 262.647 365.99C261.02 365.99 259.38 365.884 257.753 365.764C254.74 365.524 251.74 365.284 248.74 364.937C245.94 364.631 244.82 363.39 244.82 360.591C244.82 353.297 245.3 346.017 245.847 338.751C246.087 335.591 245.527 332.484 245.607 329.324C245.713 325.124 246.78 323.484 250.833 322.471C254.433 321.577 258.047 320.724 261.794 320.751C262.874 320.751 263.927 320.911 264.927 321.351C265.954 321.804 266.567 322.537 266.38 323.711C266.193 324.951 265.287 325.377 264.193 325.337C260.46 325.191 256.807 325.804 253.14 326.444C250.847 326.844 250.54 327.124 250.54 329.484C250.54 331.311 250.54 333.137 250.54 334.964C250.54 334.964 250.54 334.964 250.527 334.964L250.513 334.977Z" fill="black"/>
<path d="M509.579 247.364C509.579 245.284 509.606 243.204 509.579 241.124C509.539 238.724 510.753 237.057 512.9 236.377C517.473 234.911 522.153 233.977 526.993 234.217C527.299 234.231 527.633 234.257 527.926 234.364C529.193 234.804 530.646 235.204 530.392 236.937C530.166 238.524 528.779 238.791 527.486 238.711C523.993 238.511 520.579 239.124 517.166 239.671C514.539 240.084 514.246 240.471 514.246 243.084C514.246 247.111 514.486 251.151 514.153 255.164C514.046 256.431 514.739 256.724 515.713 256.75C517.539 256.817 519.366 256.857 521.193 256.817C522.846 256.777 524.459 256.964 526.073 257.27C527.913 257.617 528.899 258.644 528.579 259.964C528.166 261.617 526.886 261.937 525.472 261.59C521.979 260.724 518.433 261.857 514.939 261.27C514.206 261.15 513.94 261.657 513.9 262.31C513.74 265.697 512.953 269.03 513.166 272.457C513.259 274.017 513.846 274.604 515.339 274.564C518.739 274.47 522.099 275.23 525.513 275.044C525.939 275.017 526.406 275.07 526.819 275.204C528.193 275.63 529.579 276.177 529.326 277.977C529.086 279.63 527.752 279.937 526.339 279.95C521.672 279.977 517.059 279.23 512.433 278.884C509.553 278.67 508.513 277.204 508.54 274.31C508.593 267.644 508.926 260.99 509.526 254.337C509.739 252.031 509.553 249.684 509.553 247.351C509.566 247.351 509.593 247.351 509.606 247.351L509.579 247.364Z" fill="black"/>
<path d="M629.926 241.031C629.393 247.231 629.993 253.457 629.273 259.671C628.859 263.257 629.446 266.951 629.54 270.604C629.58 272.017 630.54 272.071 631.513 271.964C635.02 271.564 638.553 271.511 642.073 271.617C645.406 271.724 648.739 271.844 652.059 272.004C653.592 272.084 654.806 272.684 654.832 274.444C654.859 276.124 653.793 276.991 652.273 277.191C650.913 277.377 649.499 277.417 648.126 277.324C642.473 276.977 636.833 276.804 631.193 277.617C630.086 277.777 628.926 277.711 627.793 277.604C624.539 277.311 623.02 275.431 623.646 272.217C624.086 270.004 624.059 267.804 623.766 265.644C623.246 261.777 624.019 257.991 624.126 254.177C624.299 247.697 624.18 241.217 624.206 234.737C624.206 233.671 624.246 232.591 624.459 231.551C624.739 230.204 625.553 229.231 627.073 229.324C628.659 229.431 629.5 230.511 629.513 231.964C629.526 234.991 630.113 237.977 629.926 241.017V241.031Z" fill="black"/>
<path d="M668.458 241.044C667.938 247.244 668.525 253.471 667.805 259.684C667.391 263.271 667.978 266.964 668.084 270.617C668.124 272.031 669.098 272.071 670.058 271.964C673.564 271.564 677.098 271.511 680.618 271.617C683.952 271.724 687.285 271.844 690.605 272.004C692.138 272.084 693.351 272.697 693.364 274.457C693.391 276.137 692.298 276.911 690.791 277.217C690.365 277.297 689.911 277.311 689.471 277.297C682.444 277.204 675.404 276.737 668.391 277.644C667.538 277.751 666.618 277.671 665.751 277.537C663.098 277.124 661.631 275.404 662.098 272.791C662.711 269.311 662.391 265.897 662.031 262.457C661.871 260.937 662.125 259.444 662.312 257.951C663.258 250.417 662.538 242.857 662.724 235.311C662.751 234.177 662.725 233.031 662.898 231.924C663.138 230.444 663.871 229.244 665.605 229.351C667.285 229.458 668.071 230.644 668.058 232.177C668.031 235.137 668.671 238.071 668.444 241.044H668.458Z" fill="black"/>
<path d="M632.738 339.097C634.965 335.137 636.952 331.444 639.098 327.817C641.165 324.337 643.778 321.257 646.458 318.257C647.338 317.271 648.485 316.657 649.805 317.564C650.925 318.337 651.045 319.884 650.018 321.27C648.511 323.284 646.884 325.217 645.338 327.19C642.298 331.084 640.165 335.524 637.845 339.844C636.952 341.51 636.112 343.19 634.925 344.67C633.485 346.457 633.618 348.604 633.898 350.644C634.538 355.377 633.525 360.07 633.818 364.79C633.885 365.777 633.325 366.457 632.351 366.737C631.391 367.017 630.631 366.657 630.004 365.924C629.258 365.044 629.085 363.964 629.205 362.897C629.845 357.39 629.085 351.844 629.578 346.337C629.711 344.857 629.258 343.564 628.738 342.164C627.245 338.164 625.965 334.07 624.765 329.964C624.005 327.377 623.472 324.724 622.258 322.284C621.312 320.377 621.578 318.977 622.911 318.337C624.165 317.737 625.512 318.471 626.512 320.244C627.765 322.471 628.472 324.924 628.978 327.351C629.752 331.084 631.458 334.484 632.285 338.177C632.338 338.404 632.498 338.604 632.751 339.07L632.738 339.097Z" fill="black"/>
<path d="M528.406 354.39C528.34 356.777 528.527 359.177 527.98 361.537C527.833 362.15 527.673 362.763 527.433 363.337C526.926 364.563 525.953 365.03 524.673 364.723C523.419 364.43 522.899 363.43 523.059 362.283C524.339 352.723 523.486 343.057 524.393 333.47C524.686 330.35 524.553 327.204 525.46 324.137C526.14 321.844 526.913 321.11 529.207 320.817C534.953 320.07 540.726 319.91 546.513 319.857C547.073 319.857 547.646 319.924 548.18 320.07C548.966 320.284 549.473 320.87 549.593 321.684C549.727 322.55 549.233 323.11 548.54 323.524C547.886 323.91 547.153 324.137 546.393 324.164C543.566 324.297 540.74 324.577 537.913 324.51C535.54 324.457 533.326 325.204 531.006 325.417C529.646 325.537 529.66 326.817 529.58 327.764C529.366 330.27 529.393 332.79 529.086 335.284C528.859 337.217 528.926 339.177 528.74 341.124C528.593 342.657 529.02 343.51 530.686 343.59C534.193 343.75 537.699 343.977 541.193 344.204C542.073 344.257 542.966 344.31 543.806 344.537C544.953 344.844 545.673 345.657 545.513 346.91C545.353 348.084 544.459 348.657 543.366 348.657C541.486 348.657 539.566 348.657 537.726 348.324C535.099 347.844 532.433 348.297 529.82 347.844C528.673 347.644 528.406 348.35 528.406 349.297C528.406 350.99 528.406 352.697 528.406 354.39Z" fill="black"/>
<path d="M766.898 277.711C765.191 277.671 763.511 277.831 761.818 278.004C759.551 278.231 758.178 277.404 757.978 275.871C757.778 274.271 758.778 273.097 760.964 272.697C762.311 272.457 762.751 271.644 762.791 270.471C762.871 268.204 762.911 265.937 762.925 263.671C762.951 257.311 763.498 250.977 764.244 244.671C764.471 242.737 764.551 240.777 764.724 238.844C764.818 237.831 764.418 237.311 763.364 237.271C762.871 237.257 762.351 237.164 761.884 237.017C760.818 236.671 760.218 235.924 760.231 234.764C760.231 233.591 760.871 232.884 761.964 232.591C763.698 232.124 765.485 232.244 767.231 232.391C769.431 232.591 771.631 232.604 773.831 232.671C774.578 232.697 775.338 232.791 776.071 232.991C777.285 233.311 778.111 234.071 778.018 235.417C777.911 236.844 776.938 237.511 775.591 237.577C774.725 237.617 773.831 237.524 772.964 237.444C770.378 237.204 769.644 237.764 769.498 240.377C769.378 242.697 769.418 245.044 769.031 247.337C768.058 253.084 768.205 258.871 768.205 264.671C768.205 266.684 767.991 268.684 767.871 270.697C767.805 271.751 768.191 272.364 769.324 272.457C769.871 272.497 770.458 272.671 770.938 272.937C771.978 273.524 772.818 274.351 772.524 275.657C772.231 276.964 771.311 277.684 769.938 277.711C768.924 277.737 767.924 277.711 766.911 277.711H766.898Z" fill="black"/>
<path d="M801.459 336.204C800.952 331.604 801.379 327.044 801.859 322.484C801.939 321.684 802.099 320.857 802.406 320.097C802.939 318.751 803.925 317.884 805.472 318.164C807.032 318.431 807.686 319.564 807.646 321.031C807.592 322.791 807.259 324.537 807.272 326.284C807.352 337.164 806.126 348.004 806.459 358.87C806.499 360.27 806.059 361.47 804.779 362.244C803.859 362.79 802.979 362.63 802.112 362.097C801.152 361.51 800.845 360.537 800.779 359.524C800.339 353.177 800.686 346.844 801.099 340.524C801.192 339.084 801.539 337.671 801.472 336.204H801.459Z" fill="black"/>
<path d="M883.926 281.55C883.592 285.79 879.059 289.884 874.739 289.777C873.379 289.75 872.179 289.244 871.992 287.724C871.819 286.324 872.832 285.75 874.032 285.43C874.525 285.31 875.019 285.204 875.499 285.044C877.832 284.324 877.885 284.204 877.032 282.004C876.445 280.497 877.018 278.35 878.338 277.177C879.325 276.297 880.485 276.057 881.659 276.67C883.312 277.524 884.219 278.857 884.019 280.804C883.992 281.057 883.965 281.31 883.939 281.55H883.926Z" fill="black"/>
<path d="M807.658 375.39C807.605 378.19 805.485 380.497 803.045 380.39C801.311 380.324 799.951 378.657 800.018 376.71C800.111 373.884 802.231 371.364 804.431 371.444C806.285 371.524 807.698 373.244 807.671 375.39H807.658Z" fill="black"/>
</svg>
