<svg width="883" height="655" viewBox="0 0 883 655" fill="none" xmlns="http://www.w3.org/2000/svg">
<path d="M2.96288 248.849C3.98954 214.742 6.41629 180.756 15.0563 148.636C27.3496 102.916 47.9228 65.9562 77.6293 39.943C94.4826 25.183 113.203 18.583 132.896 15.2096C162.176 10.1963 191.536 9.47647 220.922 9.02313C250.042 8.5698 279.149 8.92983 308.269 11.3832C320.442 12.4098 332.682 13.3698 344.922 13.6764C374.695 14.4098 404.482 16.023 434.255 16.2764C468.255 16.5697 502.268 16.463 536.255 15.2497C561.228 14.3563 586.121 10.5565 610.921 6.02314C621.334 4.11648 631.788 2.70324 642.268 2.44991C658.268 2.06324 674.268 2.04989 690.268 2.42322C713.508 2.96988 736.614 5.47636 759.628 10.5697C778.227 14.6763 795.534 22.7564 810.907 38.0364C827.441 54.463 842.347 72.943 851.027 99.7696C859.334 125.436 865.787 151.81 869.627 179.489C871.68 194.223 875.32 208.769 875.894 223.582C876.44 237.689 878.587 251.569 878.28 265.729C877.934 281.702 880.68 297.542 879.547 313.529C878.4 329.795 878.76 346.089 875.907 362.382C872.12 383.982 864.801 401.049 853.067 415.929C834.827 439.075 813.227 447.542 789.587 448.382C774.107 448.929 758.614 448.582 743.121 448.475L843.401 618.955L880.934 652.808C871.014 647.568 861.641 639.275 850.254 642.395C848.801 642.795 847.054 642.248 845.614 641.488C835.801 636.302 825.601 632.141 816.347 625.395C787.641 604.462 759.534 581.981 731.521 559.262C703.868 536.822 678.441 509.622 651.001 486.742C639.068 476.795 630.695 460.702 621.975 446.155C621.881 446.009 621.788 445.849 621.708 445.689L620.935 445.662C613.441 451.289 605.348 448.342 597.601 448.168C590.068 447.995 582.508 446.835 574.935 446.542C539.388 445.155 503.815 445.342 468.268 444.382C438.908 443.582 409.602 439.649 380.268 437.262C366.282 436.129 352.282 434.888 338.269 434.515C313.389 433.848 288.469 432.635 263.615 433.755C228.496 435.329 193.389 435.209 158.282 435.369C130.709 435.489 104.003 429.342 77.5359 417.942C47.5627 405.022 26.3895 379.195 12.2962 340.689C7.5762 327.782 6.48299 313.449 5.08299 299.436C3.40299 282.716 2.46957 265.782 2.98957 248.849H2.96288Z" fill="white" stroke="black" stroke-width="3.99999" stroke-linecap="round" stroke-linejoin="round"/>
<path d="M466.255 249.17C466.255 254.69 466.189 260.196 466.282 265.716C466.362 270.396 465.402 274.97 464.989 279.596C464.829 281.33 463.922 282.596 462.029 282.543C460.136 282.489 459.362 281.156 459.189 279.45C459.095 278.49 459.042 277.49 459.189 276.556C461.082 264.623 459.829 252.583 460.229 240.61C460.282 239.063 460.122 237.503 460.615 235.996C461.162 234.33 462.056 232.957 463.976 232.823C465.936 232.69 466.909 233.97 467.589 235.623C470.589 242.983 473.749 250.25 477.789 257.116C479.122 259.396 479.642 261.996 480.376 264.503C480.949 266.449 481.429 268.41 482.869 270.916C483.495 264.916 484.709 259.663 483.975 254.29C483.135 248.103 483.736 241.903 483.696 235.716C483.696 234.97 483.949 234.17 484.295 233.503C485.029 232.05 486.255 231.33 487.895 231.783C489.455 232.21 489.989 233.463 489.882 234.943C489.402 241.823 489.629 248.663 490.136 255.543C490.669 262.73 489.495 269.85 488.215 276.903C488.029 277.93 487.655 278.983 487.162 279.903C485.335 283.25 481.709 283.316 479.882 279.93C477.815 276.076 476.282 271.983 475.215 267.743C473.522 261.01 469.855 255.17 466.282 249.196L466.255 249.17Z" fill="black"/>
<path d="M638.669 282.396C635.909 282.503 633.642 282.289 631.362 283.209C629.309 284.036 627.935 282.316 627.975 279.516C628.122 270.529 628.269 261.529 628.309 252.543C628.322 249.356 627.922 246.17 627.949 242.983C627.989 238.45 630.535 234.996 636.069 236.77C641.335 238.463 646.175 240.45 648.828 245.943C651.188 250.823 649.335 254.69 646.322 258.156C644.469 260.29 644.935 260.85 647.242 261.796C651.788 263.65 654.895 268.583 654.415 272.663C653.882 277.316 650.522 280.556 645.135 281.756C642.842 282.263 640.549 282.463 638.669 282.41V282.396ZM638.935 276.996C640.535 277.156 642.522 276.703 644.522 276.316C646.815 275.863 648.629 274.796 648.762 272.276C648.895 269.796 647.909 267.743 645.469 266.663C642.602 265.396 639.562 264.836 636.508 264.383C634.028 264.01 633.162 265.303 633.349 267.596C633.469 269.13 633.682 270.676 633.709 272.209C633.789 277.036 633.762 277.036 638.949 277.01L638.935 276.996ZM644.629 250.09C644.669 249.276 644.268 248.623 643.935 247.916C642.428 244.61 639.415 243.316 636.322 242.09C634.242 241.263 633.122 241.77 633.242 244.143C633.442 248.29 633.655 252.436 633.868 256.596C633.908 257.29 634.055 257.903 634.922 258.103C638.482 258.93 644.669 253.85 644.642 250.103L644.629 250.09Z" fill="black"/>
<path d="M308.269 280.556C297.789 280.889 289.922 275.303 285.736 265.449C283.509 260.209 281.762 254.863 283.629 249.129C286.002 241.903 291.416 237.516 298.016 234.396C304.109 231.516 310.536 231.329 317.056 232.449C318.082 232.623 319.109 233.062 320.042 233.542C321.749 234.409 322.936 235.809 322.109 237.769C321.296 239.689 319.642 239.796 317.696 239.263C310.442 237.249 303.509 237.876 297.149 242.236C294.816 243.836 292.709 245.689 291.296 248.196C288.509 253.142 290.202 261.929 293.976 267.023C300.096 275.276 308.256 274.662 316.816 273.222C317.776 273.062 318.696 272.702 319.656 272.636C321.602 272.502 323.189 273.209 323.535 275.289C323.855 277.236 322.682 278.302 320.882 278.849C316.762 280.102 312.549 280.502 308.269 280.596V280.556Z" fill="black"/>
<path d="M513.215 232.477C520.282 232.477 527.349 232.45 534.415 232.49C536.269 232.49 538.082 233.037 538.242 235.223C538.428 237.53 536.802 238.543 534.735 238.61C530.962 238.717 527.175 238.73 523.402 238.61C520.909 238.53 520.055 239.05 519.975 241.983C519.748 250.677 518.975 259.37 518.282 268.05C518.055 270.957 517.922 273.863 518.149 276.757C518.295 278.583 517.788 279.596 515.842 279.516C514.095 279.45 511.788 280.116 511.655 277.29C511.508 274.29 511.535 271.276 511.695 268.29C512.175 259.89 512.802 251.49 513.295 243.09C513.535 238.85 513.269 238.637 509.055 238.623C506.242 238.623 503.428 238.65 500.628 238.623C499.575 238.61 498.482 238.543 497.469 238.29C495.789 237.877 494.175 237.063 494.335 235.05C494.495 232.917 496.202 232.25 498.109 232.237C503.149 232.197 508.188 232.237 513.228 232.237C513.228 232.33 513.228 232.423 513.228 232.516L513.215 232.477Z" fill="black"/>
<path d="M596.069 264.383C596.336 257.53 596.869 252.09 598.843 247.01C600.723 242.17 604.003 238.49 609.629 238.104C615.149 237.717 619.016 240.37 621.563 245.21C623.336 248.583 624.843 252.064 625.323 255.824C625.909 260.517 626.443 265.223 625.723 269.983C624.176 280.263 615.363 285.53 605.563 281.957C604.429 281.543 603.483 280.917 602.723 280.023C598.496 275.13 595.216 269.863 596.069 264.397V264.383ZM620.883 263.93C621.096 258.303 619.989 252.983 617.403 247.943C615.789 244.81 613.443 242.837 609.883 243.023C606.309 243.197 604.416 245.784 603.336 248.824C601.509 253.984 600.643 259.37 601.283 264.81C601.696 268.437 602.536 271.997 605.136 274.957C609.163 279.557 617.056 278.57 619.683 273.05C621.069 270.117 620.896 267.023 620.883 263.943V263.93Z" fill="black"/>
<path d="M587.722 259.302C587.202 253.969 588.189 248.663 588.336 243.356C588.402 241.009 588.122 239.143 585.016 239.143C583.349 239.143 581.976 238.062 582.122 236.169C582.269 234.342 583.789 233.916 585.336 233.929C590.096 233.969 594.816 233.476 599.536 232.969C600.282 232.889 601.082 233.022 601.829 233.182C603.095 233.462 603.909 234.249 603.922 235.596C603.922 236.849 603.096 237.582 601.989 237.836C600.296 238.209 598.562 238.556 596.829 238.649C594.535 238.769 593.656 239.663 593.696 242.089C593.789 249.743 593.682 257.396 593.549 265.049C593.509 267.169 593.296 269.316 592.922 271.396C590.962 282.436 577.109 285.503 571.136 280.383C566.283 276.209 565.336 268.449 569.562 263.622C570.402 262.662 571.429 262.209 572.669 262.689C573.896 263.169 574.536 264.196 574.349 265.449C574.136 266.969 573.736 268.476 573.269 269.956C572.042 273.809 574.282 276.956 578.376 277.009C583.429 277.076 586.829 274.196 587.602 269.169C587.696 268.596 587.722 268.009 587.722 267.436C587.722 264.729 587.722 262.023 587.722 259.316V259.302Z" fill="black"/>
<path d="M268.683 252.97C270.91 248.344 273.67 244.144 275.336 239.41C275.856 237.957 276.43 236.504 277.083 235.104C277.55 234.091 278.323 233.21 279.576 233.65C280.936 234.117 281.123 235.344 280.803 236.544C280.016 239.544 278.909 242.45 277.589 245.264C275.896 248.864 274.283 252.49 272.483 256.024C271.71 257.544 271.829 258.61 272.883 259.944C277.029 265.184 280.669 270.784 284.283 276.397C284.856 277.29 285.363 278.25 285.723 279.237C286.19 280.517 286.11 281.824 284.683 282.477C283.23 283.144 282.189 282.29 281.589 281.09C280.163 278.197 278.123 275.717 276.496 272.984C274.709 269.97 272.616 267.21 270.563 264.397C268.843 262.064 268.229 262.05 266.883 264.73C264.763 268.97 262.75 273.264 260.683 277.544C260.47 277.984 260.31 278.45 260.056 278.85C259.31 280.023 258.269 280.784 256.896 280.037C255.656 279.37 255.563 278.117 256.136 276.984C258.683 271.984 260.483 266.597 263.536 261.877C264.896 259.784 265.176 258.05 264.589 255.477C263.149 249.131 259.723 243.664 257.523 237.69C256.909 236.01 255.323 233.704 258.003 232.717C260.416 231.824 260.923 234.464 261.549 236.05C263.803 241.69 267.35 246.784 268.683 252.957V252.97Z" fill="black"/>
<path d="M179.43 171.556C179.43 164.903 179.71 158.223 179.363 151.583C178.843 141.53 183.869 135.143 192.856 132.543C207.696 128.25 222.856 125.237 238.496 126.397C239.096 126.437 239.709 126.477 240.296 126.597C244.963 127.543 249.723 128.983 249.216 134.85C248.749 140.143 244.136 141.263 239.696 141.237C228.469 141.17 217.389 142.063 206.283 143.836C197.976 145.156 194.15 148.397 194.71 157.423C195.456 169.17 195.243 181.023 194.79 192.81C194.51 199.983 197.469 202.597 204.256 202.77C214.509 203.037 224.843 201.703 234.989 204.396C239.683 205.65 244.309 207.317 243.243 213.143C242.203 218.903 237.23 219.45 232.456 218.543C221.336 216.436 210.056 219.103 198.949 217.276C195.67 216.743 193.523 217.796 193.43 221.37C193.123 232.543 190.843 243.583 191.523 254.849C191.856 260.276 194.31 262.25 199.416 262.49C210.283 263.01 221.136 263.796 231.989 264.556C234.389 264.729 236.843 264.956 239.136 265.596C243.296 266.77 246.309 269.276 245.589 274.05C244.936 278.356 241.656 279.876 237.669 280.023C234.949 280.13 232.216 280.196 229.496 280.023C216.829 279.17 204.136 278.569 191.509 277.236C179.256 275.929 175.59 271.743 176.056 259.423C177.163 230.13 178.656 200.836 180.003 171.543H179.416L179.43 171.556Z" fill="#55ADE1"/>
<path d="M327.016 272.33C327.656 261.504 328.442 250.677 328.136 239.811C328.056 237.224 329.669 235.557 331.909 234.837C336.909 233.224 342.056 232.277 347.362 232.691C347.549 232.704 347.749 232.731 347.935 232.771C349.215 233.091 350.482 233.557 350.482 235.117C350.482 236.877 349.109 237.371 347.669 237.384C343.976 237.424 340.336 237.65 336.669 238.237C333.976 238.677 332.829 239.77 333.002 242.624C333.229 246.384 333.176 250.184 333.029 253.957C332.936 256.29 333.962 257.037 336.109 257.117C339.202 257.211 342.309 256.77 345.376 257.544C347.016 257.957 348.935 258.237 348.535 260.477C348.175 262.491 346.389 262.25 344.776 262.17C341.296 261.97 337.816 261.931 334.336 261.744C333.256 261.691 332.629 261.997 332.602 263.117C332.522 266.597 331.829 270.037 331.976 273.557C332.069 275.61 332.975 276.21 334.855 276.277C338.335 276.397 341.816 276.677 345.296 276.93C346.056 276.984 346.842 277.117 347.562 277.357C348.775 277.77 349.549 278.624 349.322 279.997C349.109 281.224 348.202 281.824 347.042 281.85C341.416 281.997 335.816 281.384 330.256 280.624C328.202 280.344 327.136 278.784 327.056 276.69C327.002 275.237 327.056 273.784 327.056 272.33H327.016Z" fill="black"/>
<path d="M428.242 272.41C428.856 261.583 429.669 250.756 429.349 239.89C429.269 236.89 431.269 235.236 433.842 234.53C438.429 233.276 443.082 232.303 447.895 232.623C448.375 232.65 448.869 232.69 449.336 232.81C450.629 233.156 451.816 233.743 451.682 235.303C451.549 236.863 450.296 237.33 448.962 237.37C445.482 237.476 442.002 237.476 438.549 238.156C434.295 239.01 434.256 238.93 434.269 243.396C434.282 246.89 434.389 250.383 434.242 253.863C434.149 256.116 435.015 257.036 437.229 257.103C440.509 257.196 443.816 256.756 447.069 257.623C448.576 258.023 450.069 258.53 449.776 260.396C449.482 262.25 447.896 262.463 446.362 262.169C442.802 261.489 439.189 262.343 435.629 261.756C434.376 261.556 433.802 262.076 433.789 263.303C433.736 266.69 433.042 270.036 433.189 273.45C433.269 275.436 434.042 276.196 435.976 276.263C439.456 276.383 442.936 276.663 446.416 276.916C447.269 276.983 448.162 277.13 448.962 277.423C450.056 277.823 450.722 278.663 450.549 279.903C450.375 281.129 449.509 281.783 448.336 281.823C442.602 282.036 436.922 281.356 431.269 280.556C429.362 280.289 428.349 278.73 428.269 276.77C428.202 275.316 428.269 273.863 428.269 272.41H428.242Z" fill="black"/>
<path d="M419.536 281.356C412.856 281.049 406.189 281.089 399.509 281.582C395.603 281.876 394.136 279.769 394.15 276.089C394.203 264.489 395.403 252.916 395.163 241.302C395.123 239.662 395.069 237.996 395.256 236.369C395.443 234.676 396.016 232.902 398.136 232.996C400.296 233.089 400.456 234.902 400.616 236.636C401.189 243.022 400.589 249.396 400.509 255.769C400.429 261.569 399.883 267.342 400.069 273.156C400.136 275.249 400.856 276.022 402.803 275.782C408.416 275.076 414.016 275.782 419.629 275.862C419.923 275.862 420.216 275.849 420.496 275.875C422.616 276.155 425.669 275.662 425.589 278.769C425.523 281.876 422.643 281.436 420.416 281.342C420.123 281.342 419.829 281.342 419.549 281.342L419.536 281.356Z" fill="black"/>
<path d="M376.975 282.009C373.095 281.662 369.229 281.756 365.362 282.143C360.109 282.676 358.855 280.716 358.802 275.423C358.682 264.183 360.122 253.009 359.682 241.783C359.602 239.849 359.442 237.889 359.975 235.996C360.362 234.596 361.122 233.409 362.775 233.569C364.415 233.729 365.002 235.009 365.082 236.476C365.509 245.183 365.429 253.889 364.629 262.556C364.255 266.649 365.015 270.676 364.682 274.743C364.522 276.636 366.229 276.489 367.429 276.356C373.042 275.703 378.642 276.396 384.255 276.463C384.935 276.463 385.615 276.436 386.282 276.542C388.108 276.822 390.348 276.969 390.162 279.489C389.988 281.876 387.935 282.049 385.975 282.023C382.975 281.996 379.975 282.023 376.975 282.023V282.009Z" fill="black"/>
<path d="M668.722 259.423C668.002 252.357 668.762 245.023 669.322 237.69C669.428 236.29 669.108 233.943 671.242 234.103C673.322 234.25 672.895 236.517 672.682 237.93C671.215 247.263 672.335 256.663 671.842 266.023C671.708 268.623 672.082 271.236 672.148 273.85C672.175 275.023 672.068 276.41 670.535 276.477C668.948 276.543 668.842 275.103 668.748 273.957C668.362 269.223 668.575 264.477 668.722 259.437V259.423Z" fill="black"/>
<path d="M674.655 288.983C674.441 290.943 673.521 292.516 671.308 292.503C669.468 292.503 668.588 291.076 668.588 289.356C668.588 287.236 669.748 285.796 671.935 285.77C673.815 285.756 674.561 287.116 674.655 288.969V288.983Z" fill="black"/>
</svg>
