<svg width="1021" height="758" viewBox="0 0 1021 758" fill="none" xmlns="http://www.w3.org/2000/svg">
<path d="M2.19527 287.892C3.39319 248.364 6.20201 208.988 16.1985 171.761C30.4359 118.786 54.2569 75.9516 88.6663 45.7924C108.177 28.6944 129.864 21.0479 152.68 17.135C186.579 11.3209 220.59 10.4942 254.627 9.95689C288.362 9.41956 322.069 9.84667 355.79 12.6849C369.89 13.8697 384.072 14.9995 398.24 15.3439C432.732 16.1981 467.211 18.0581 501.703 18.3612C541.083 18.7057 580.463 18.5817 619.829 17.1763C648.759 16.143 677.591 11.7342 706.3 6.48493C718.362 4.28052 730.465 2.64098 742.596 2.35165C761.116 1.89699 779.663 1.88321 798.183 2.31032C825.088 2.94409 851.855 5.85116 878.512 11.748C900.061 16.515 920.096 25.87 937.899 43.5742C957.052 62.6149 974.319 84.0115 984.37 115.121C993.981 144.867 1001.46 175.426 1005.92 207.5C1008.29 224.571 1012.51 241.434 1013.18 258.587C1013.81 274.928 1016.3 291.02 1015.94 307.429C1015.54 325.932 1018.72 344.298 1017.42 362.815C1016.08 381.663 1016.51 400.552 1013.2 419.427C1008.81 444.447 1000.34 464.232 986.753 481.481C965.617 508.306 940.612 518.116 913.224 519.094C895.297 519.728 877.356 519.328 859.414 519.204L975.544 716.775L1019 756C1007.52 749.924 996.666 740.321 983.461 743.945C981.782 744.413 979.758 743.779 978.092 742.898C966.732 736.877 954.904 732.068 944.191 724.243C910.953 699.98 878.402 673.927 845.948 647.598C813.921 621.6 784.468 590.076 752.689 563.568C738.865 552.036 729.185 533.395 719.064 516.545C718.954 516.366 718.858 516.187 718.747 516.008L717.853 515.967C709.178 522.497 699.801 519.08 690.837 518.874C682.107 518.681 673.364 517.331 664.579 516.986C623.409 515.388 582.211 515.595 541.055 514.479C507.059 513.556 473.104 508.995 439.135 506.24C422.929 504.917 406.722 503.498 390.488 503.057C361.669 502.286 332.809 500.88 304.017 502.175C263.343 503.994 222.696 503.856 182.022 504.035C150.091 504.173 119.165 497.064 88.5009 483.837C53.7886 468.861 29.2657 438.936 12.9491 394.311C7.48274 379.348 6.21588 362.746 4.5911 346.502C2.64964 327.117 1.56185 307.512 2.1677 287.879L2.19527 287.892Z" fill="white" stroke="black" stroke-width="3.99999" stroke-linecap="round" stroke-linejoin="round"/>
<path d="M178.566 118.258C184.14 118.258 189.713 118.258 195.286 118.258C198.886 118.258 202.393 118.778 205.74 120.164C209.7 121.804 211.833 124.764 211.286 129.058C210.739 133.244 207.566 135.124 203.766 135.444C199.113 135.831 194.42 135.778 189.74 135.618C184.953 135.458 182.446 137.804 182.473 142.311C182.593 161.964 177.313 181.137 177.793 200.884C178.18 216.631 177.286 232.417 176.42 248.151C176.14 253.337 176.833 256.324 182.673 256.324C184.153 256.324 185.726 257.017 187.113 257.697C190.873 259.564 192.98 262.631 192.22 266.897C191.473 271.137 188.673 273.604 184.313 273.657C173.846 273.79 163.393 274.004 152.94 274.777C147.606 275.177 143.073 272.924 142.14 267.004C141.153 260.751 145.54 257.697 150.593 256.964C157.713 255.911 158.993 251.591 159.06 245.697C159.3 222.977 159.246 200.244 161.806 177.631C163.18 165.457 164.486 153.311 165.06 141.058C165.273 136.444 164.566 134.218 159.726 134.458C159.073 134.484 158.393 134.351 157.74 134.204C153.166 133.231 149.633 131.004 149.98 125.778C150.326 120.751 153.726 118.271 158.513 118.111C165.193 117.898 171.886 118.058 178.566 118.058V118.258Z" fill="#55ADE1"/>
<path d="M685.218 355.284C686.591 353.217 687.044 351.164 687.924 349.31C691.951 340.83 694.871 331.924 698.231 323.19C698.631 322.137 698.765 320.99 699.138 319.924C699.671 318.404 700.791 317.737 702.391 318.044C703.911 318.337 704.125 319.51 704.098 320.79C703.951 328.67 705.111 336.484 705.658 344.324C705.818 346.537 706.645 348.697 707.245 351.23C708.671 349.684 709.005 348.097 709.218 346.55C710.045 340.817 711.551 335.23 712.604 329.55C713.258 326.017 714.444 322.617 715.311 319.15C715.711 317.55 716.604 316.737 718.258 316.857C719.991 316.977 720.311 318.164 720.391 319.63C720.511 321.844 719.511 323.804 719.044 325.87C717.418 333.11 715.765 340.337 714.551 347.657C713.898 351.63 712.098 355.204 710.245 358.684C708.885 361.27 705.138 360.91 703.791 358.244C703.018 356.724 702.724 355.03 702.271 353.404C700.724 347.924 699.725 342.39 699.858 336.67C699.858 336.324 699.965 335.897 699.445 335.564C698.298 336.817 698.124 338.497 697.658 339.99C696.404 344.044 694.471 347.79 692.818 351.657C691.978 353.63 691.178 355.604 690.258 357.55C689.484 359.204 688.351 360.484 686.445 360.924C683.378 361.63 681.631 360.777 680.431 357.884C679.845 356.47 679.431 355.03 679.405 353.497C679.298 347.39 678.925 341.284 679.138 335.177C679.311 330.07 679.071 324.99 679.031 319.91C679.031 318.764 679.111 317.644 679.431 316.55C679.698 315.59 680.325 315.057 681.325 314.977C682.378 314.897 683.178 315.284 683.631 316.257C683.791 316.59 683.964 316.977 683.938 317.337C683.658 321.99 684.498 326.617 684.165 331.284C683.951 334.23 683.911 337.217 684.125 340.15C684.378 343.804 684.325 347.444 684.391 351.097C684.418 352.417 684.565 353.697 685.218 355.27V355.284Z" fill="black"/>
<path d="M607.045 326.924C606.298 329.311 605.471 331.671 604.845 334.097C603.951 337.497 603.191 340.937 602.391 344.364C602.045 345.857 601.298 346.964 599.671 347.057C598.071 347.15 597.018 346.19 596.551 344.777C595.645 342.03 594.871 339.244 594.058 336.47C593.285 333.844 592.391 331.271 590.964 328.871C590.284 334.324 589.205 339.684 589.538 345.15C589.818 349.79 588.751 354.284 588.311 358.844C588.151 360.524 586.698 361.79 585.338 361.777C583.951 361.75 582.631 360.377 582.445 358.537C582.231 356.457 582.631 354.39 582.965 352.35C583.445 349.404 583.591 346.497 583.258 343.524C583.071 341.937 583.351 340.257 583.591 338.644C584.644 331.724 585.178 324.777 584.991 317.777C584.951 316.271 584.858 314.751 585.271 313.271C585.604 312.084 586.285 311.231 587.511 310.964C588.778 310.697 589.725 311.311 590.431 312.284C590.871 312.884 591.258 313.551 591.578 314.231C593.605 318.564 595.445 322.977 596.765 327.591C597.138 328.911 597.764 330.164 598.311 331.444C598.471 331.817 598.591 332.391 599.165 332.284C599.578 332.204 599.591 331.711 599.711 331.364C601.391 326.884 602.751 322.297 603.871 317.644C604.165 316.404 604.644 315.257 605.271 314.151C605.951 312.937 606.991 312.337 608.378 312.404C609.738 312.471 610.498 313.337 611.058 314.484C612.431 317.337 612.631 320.484 612.871 323.511C613.378 329.817 613.551 336.164 613.698 342.497C613.778 346.217 613.991 349.91 614.805 353.55C614.898 353.977 614.978 354.417 615.044 354.844C615.378 356.99 614.338 358.79 612.591 359.11C611.044 359.39 609.338 358.017 609.031 355.937C608.605 353.084 607.951 350.23 608.071 347.324C608.325 340.831 607.524 334.377 607.644 327.884C607.644 327.591 607.565 327.297 607.511 327.004C607.351 326.977 607.191 326.951 607.031 326.937L607.045 326.924Z" fill="black"/>
<path d="M559.484 232.564C559.258 230.364 559.684 228.337 560.831 226.417C561.431 225.417 562.178 224.697 563.338 224.697C568.644 224.724 573.964 225.417 578.044 228.977C585.231 235.271 585.177 240.337 579.631 247.831C578.311 249.617 578.191 249.551 580.364 250.271C581.791 250.751 583.324 251.097 584.578 251.884C588.218 254.151 590.098 257.737 590.084 261.831C590.084 266.137 587.671 269.47 583.644 271.27C579.698 273.044 575.444 273.617 571.151 273.79C569.631 273.844 568.218 273.99 566.844 274.844C565.018 275.964 563.351 275.044 562.831 272.737C562.324 270.524 562.604 268.244 562.311 265.977C561.511 259.684 561.444 253.324 561.071 246.991C560.871 243.617 560.258 240.257 559.858 236.884C559.684 235.444 559.604 234.004 559.471 232.564H559.484ZM571.911 268.07C574.338 267.884 577.511 267.484 580.551 266.377C582.991 265.497 584.524 263.591 584.498 261.631C584.471 259.457 582.538 256.791 580.418 256.004C576.844 254.684 573.124 254.257 569.338 254.164C567.724 254.124 566.991 254.671 567.178 256.337C567.511 259.391 567.751 262.457 568.138 265.497C568.471 268.124 568.524 268.111 571.924 268.07H571.911ZM578.124 238.684C578.124 237.871 577.804 237.204 577.458 236.511C575.084 231.764 570.391 231.017 565.978 229.844C564.964 229.577 564.884 230.457 564.951 231.177C565.044 232.431 565.151 233.684 565.324 234.937C565.858 238.924 566.404 242.911 566.978 246.897C567.071 247.591 567.191 248.351 568.258 247.951C570.257 247.191 572.391 246.684 574.164 245.471C576.524 243.857 577.604 241.404 578.138 238.684H578.124Z" fill="black"/>
<path d="M732.657 251.777C732.657 254.204 732.564 256.43 732.684 258.657C732.871 262.137 732.431 265.577 732.324 269.03C732.257 271.017 731.151 272.15 729.511 272.204C728.058 272.257 726.751 270.87 726.684 269.004C726.644 267.817 726.884 266.63 726.924 265.43C727.151 257.457 727.524 249.47 727.284 241.497C727.151 237.284 727.044 233.071 726.991 228.857C726.951 224.551 729.231 222.044 733.578 222.257C738.151 222.471 742.738 222.897 747.098 224.604C749.071 225.377 750.444 226.684 751.471 228.537C756.324 237.271 750.711 246.83 741.804 249.524C739.751 250.15 739.764 250.137 740.977 251.897C744.631 257.177 748.244 262.484 752.858 267.004C753.218 267.35 753.511 267.777 753.751 268.217C754.471 269.47 754.644 270.804 753.564 271.87C752.431 273.004 751.018 272.964 749.791 271.964C746.938 269.644 744.738 266.724 742.418 263.897C739.738 260.63 737.764 256.857 734.964 253.684C734.404 253.044 733.951 252.257 732.644 251.764L732.657 251.777ZM737.271 244.737C737.897 244.631 739.177 244.577 740.364 244.191C743.777 243.084 747.471 240.164 747.697 235.524C747.817 233.071 747.098 229.951 743.858 229.164C740.671 228.391 737.458 227.884 734.178 227.697C732.778 227.617 732.218 228.351 732.404 229.684C732.911 233.377 732.577 237.097 732.684 240.804C732.777 243.817 733.631 244.71 737.257 244.724L737.271 244.737Z" fill="black"/>
<path d="M786.631 243.044C785.765 245.644 785.818 248.244 786.072 250.777C786.605 256.03 785.885 261.204 785.432 266.39C785.352 267.324 785.258 268.27 785.165 269.204C785.005 270.777 784.418 272.044 782.658 272.257C781.138 272.43 780.005 271.377 779.712 269.444C779.365 267.23 780.045 265.07 780.325 262.897C780.605 260.697 780.685 258.51 780.685 256.31C780.685 249.137 780.685 241.95 780.671 234.777C780.671 233.244 780.805 231.75 781.418 230.337C781.992 229.031 782.885 228.111 784.405 228.111C785.818 228.111 786.538 229.084 787.045 230.217C788.938 234.47 790.751 238.75 792.698 242.977C794.231 246.297 796.485 249.244 797.578 252.764C798.338 255.23 799.098 257.697 799.872 260.15C799.978 260.484 800.178 260.79 800.418 261.297C801.151 259.937 800.978 258.67 801.165 257.457C801.818 253.137 801.951 248.83 801.378 244.484C800.765 239.777 801.645 235.07 801.472 230.35C801.445 229.724 801.658 229.097 802.031 228.577C802.765 227.55 803.685 226.764 805.045 227.151C806.325 227.511 806.765 228.551 806.778 229.777C806.791 232.297 806.778 234.817 806.751 237.337C806.711 240.804 806.805 244.244 807.152 247.71C807.805 254.417 806.338 260.977 805.431 267.564C805.405 267.75 805.311 267.924 805.258 268.097C804.618 270.124 803.645 271.99 801.285 272.084C799.031 272.177 798.125 270.31 797.338 268.55C795.645 264.75 794.152 260.87 793.178 256.817C791.965 251.777 788.645 247.75 786.658 243.03L786.631 243.044Z" fill="black"/>
<path d="M832.392 226.844C834.979 227.364 838.366 228.017 841.739 228.724C842.752 228.937 843.579 229.617 844.259 230.324C847.472 233.671 849.112 237.751 849.459 242.337C849.579 243.857 849.032 245.137 847.325 245.391C845.685 245.631 844.939 244.524 844.539 243.151C843.992 241.284 843.712 239.377 842.886 237.564C841.766 235.084 840.312 233.457 837.325 233.231C834.859 233.044 832.499 231.991 829.886 232.431C827.926 232.764 826.326 233.564 824.859 234.817C819.246 239.684 816.646 252.47 819.886 259.217C820.699 260.91 821.779 262.284 823.419 263.27C825.086 264.27 826.539 265.697 828.285 266.457C831.605 267.897 835.059 267.657 838.419 266.39C840.566 265.577 842.326 260.844 841.406 258.684C841.059 257.884 840.459 257.817 839.712 257.87C837.899 258.004 836.072 258.097 834.272 258.484C832.659 258.83 831.032 258.83 829.432 258.244C828.086 257.75 827.312 256.884 827.552 255.39C827.792 253.91 828.872 253.124 830.219 253.217C833.592 253.43 836.846 252.724 840.139 252.297C843.259 251.897 844.445 252.804 846.032 255.51C849.005 260.55 845.259 270.177 840.486 271.484C834.179 273.204 828.206 273.417 822.566 269.137C819.579 266.87 816.499 264.964 814.992 261.297C813.739 258.27 813.059 255.204 813.112 251.95C813.246 244.977 814.926 238.537 819.325 232.937C822.459 228.951 826.539 227.004 832.379 226.831L832.392 226.844Z" fill="black"/>
<path d="M223.126 314.924C226.459 316.097 231.073 315.177 234.526 318.004C238.486 321.257 240.072 325.817 240.299 330.844C240.366 332.257 239.633 333.297 238.139 333.484C236.726 333.657 235.913 332.844 235.513 331.55C234.846 329.457 234.553 327.284 233.566 325.27C232.459 322.99 231.046 321.577 228.339 321.337C225.806 321.124 223.393 320.044 220.713 320.51C218.753 320.857 217.153 321.657 215.699 322.924C210.086 327.817 207.526 340.59 210.766 347.337C211.579 349.03 212.673 350.39 214.313 351.377C215.979 352.377 217.433 353.804 219.193 354.564C222.513 356.004 225.979 355.75 229.326 354.47C231.472 353.657 233.219 348.857 232.259 346.75C231.899 345.95 231.273 345.924 230.539 345.964C228.713 346.084 226.899 346.204 225.113 346.577C223.499 346.91 221.872 346.91 220.272 346.324C218.912 345.817 218.166 344.924 218.419 343.444C218.673 341.964 219.766 341.217 221.113 341.297C224.419 341.51 227.619 340.844 230.846 340.404C234.126 339.95 235.339 340.897 236.992 343.804C239.726 348.604 236.233 358.337 231.139 359.657C224.886 361.284 218.979 361.444 213.393 357.204C210.406 354.937 207.339 353.004 205.833 349.35C204.579 346.324 203.913 343.244 203.966 339.99C204.099 333.017 205.793 326.577 210.206 320.99C213.339 317.017 217.433 315.07 223.113 314.924H223.126Z" fill="black"/>
<path d="M212.086 243.297C211.34 244.524 211.553 245.35 211.54 246.137C211.5 254.124 211.873 262.124 210.473 270.057C210.113 272.137 209.42 273.11 207.846 273.07C206.326 273.03 205.366 271.937 205.366 269.884C205.366 268.07 205.606 266.244 205.793 264.43C206.7 255.07 206.02 245.684 206.206 236.324C206.233 234.75 206.22 233.177 206.82 231.684C207.353 230.337 208.3 229.417 209.726 229.337C211.166 229.257 212.02 230.284 212.526 231.497C214.273 235.604 215.833 239.777 217.9 243.75C218.86 245.59 219.686 247.484 220.793 249.257C222.98 252.71 223.686 256.75 224.979 260.55C225.219 261.244 225.26 262.03 226.06 262.737C226.686 257.19 227.5 251.857 226.846 246.377C226.26 241.444 226.433 236.444 226.926 231.497C227.139 229.364 228.593 228.044 230.126 228.31C231.566 228.564 232.153 229.964 232.086 232.084C231.913 236.924 231.5 241.79 232.246 246.59C233.006 251.537 232.193 256.377 231.726 261.244C231.526 263.364 231.126 265.47 230.793 267.59C230.7 268.15 230.58 268.71 230.406 269.23C229.753 271.084 228.833 272.857 226.633 272.95C224.459 273.044 223.58 271.297 222.833 269.564C221.446 266.324 219.913 263.124 219.193 259.657C217.993 253.804 214.3 249.11 212.06 243.31L212.086 243.297Z" fill="black"/>
<path d="M304.085 267.964C304.245 263.804 304.619 259.697 305.619 255.63C306.659 251.404 306.846 247.044 307.472 242.764C308.006 239.057 309.339 235.59 310.645 232.11C311.272 230.457 312.339 229.03 313.645 227.804C317.472 224.204 323.512 225.444 325.579 230.297C326.819 233.204 327.499 236.31 327.872 239.417C328.686 246.284 330.005 253.07 331.152 259.897C331.725 263.324 332.325 266.71 333.712 269.924C334.312 271.31 334.192 272.697 332.739 273.564C331.312 274.417 330.032 273.95 329.032 272.777C327.072 270.457 326.805 267.484 326.112 264.697C325.779 263.364 325.726 261.964 325.526 260.59C325.366 259.47 324.885 258.617 323.619 258.697C320.005 258.964 316.485 258.11 312.925 257.87C311.419 257.764 310.939 258.31 310.659 259.63C310.085 262.417 309.952 265.244 309.806 268.057C309.739 269.19 309.725 270.324 309.259 271.39C308.699 272.657 307.805 273.537 306.339 273.257C304.952 272.99 304.165 272.044 304.099 270.59C304.059 269.71 304.099 268.83 304.099 267.95L304.085 267.964ZM320.019 253.097C320.019 253.097 320.019 253.044 320.019 253.017C320.645 253.017 321.272 252.977 321.899 253.017C323.299 253.11 323.952 252.47 323.685 251.11C322.659 245.804 322.832 240.324 321.246 235.11C320.806 233.644 320.685 231.644 318.712 231.59C316.739 231.537 316.245 233.51 315.672 234.99C313.685 240.124 312.752 245.51 312.192 250.964C312.086 251.977 312.352 252.524 313.445 252.59C315.632 252.724 317.832 252.924 320.019 253.084V253.097Z" fill="black"/>
<path d="M722.111 355.31C722.111 352.03 722.391 348.777 723.191 345.59C724.445 340.51 724.765 335.283 725.551 330.137C726.111 326.523 727.271 323.017 728.778 319.71C730.311 316.377 732.498 313.51 736.738 313.43C739.791 313.377 742.844 315.537 744.004 318.763C745.498 322.923 746.245 327.283 746.725 331.657C747.151 335.537 747.578 339.39 748.565 343.177C749.511 346.763 749.498 350.537 750.538 354.123C750.965 355.577 751.391 357.003 752.018 358.39C752.618 359.723 752.578 361.043 751.191 361.87C749.831 362.683 748.525 362.417 747.431 361.257C745.498 359.217 745.364 356.457 744.618 353.95C744.191 352.51 743.845 350.99 743.858 349.497C743.871 347.323 742.845 346.683 740.885 346.603C737.311 346.457 733.738 346.203 730.165 345.91C729.005 345.817 728.871 346.483 728.631 347.35C727.671 350.79 727.925 354.337 727.538 357.83C727.405 359.003 727.138 360.057 726.325 360.91C725.671 361.59 724.884 361.923 723.938 361.59C722.991 361.257 722.191 360.723 722.151 359.63C722.085 358.19 722.138 356.737 722.138 355.297L722.111 355.31ZM739.738 341.163C742.165 341.337 742.271 341.203 741.991 339.19C741.524 335.763 741.071 332.337 740.658 328.91C740.351 326.337 739.751 323.83 739.018 321.363C738.698 320.31 738.111 319.31 736.964 319.097C735.898 318.897 735.271 319.817 734.765 320.603C734.325 321.283 733.965 322.03 733.658 322.777C731.485 328.003 730.658 333.523 730.125 339.11C730.018 340.243 730.298 340.763 731.511 340.71C734.405 340.577 737.218 341.87 739.751 341.163H739.738Z" fill="black"/>
<path d="M370.473 338.03C370.926 340.87 370.606 344.75 369.926 348.603C368.619 356.057 363.793 360.71 356.539 361.257C354.099 361.443 351.646 361.203 349.246 360.537C347.233 359.977 345.659 358.843 344.419 357.123C342.499 354.47 340.713 351.75 339.419 348.723C338.153 345.737 338.513 342.657 338.686 339.604C339.033 333.484 340.059 327.47 342.433 321.79C346.006 313.204 355.926 310.63 363.032 316.35C364.752 317.737 365.779 319.644 366.699 321.55C369.046 326.404 370.606 331.484 370.446 338.03H370.473ZM365.153 339.27C365.513 333.524 364.139 327.737 361.099 322.324C358.526 317.75 352.379 317.15 348.979 321.124C347.659 322.67 346.619 324.417 346.126 326.39C344.419 333.244 342.753 340.097 345.046 347.177C346.046 350.243 347.459 353.177 350.153 354.883C354.953 357.923 361.819 355.35 363.846 350.097C365.139 346.737 365.406 343.257 365.153 339.257V339.27Z" fill="black"/>
<path d="M504.138 313.417C509.725 313.377 513.498 315.937 515.952 320.95C520.352 329.924 520.178 339.27 518.178 348.617C516.778 355.204 512.819 359.684 505.579 360.617C499.419 361.417 494.072 358.617 490.805 353.364C486.712 346.79 487.058 339.99 488.765 332.977C489.672 329.257 490.378 325.417 492.085 321.964C494.538 317.004 498.232 313.564 504.152 313.404L504.138 313.417ZM513.925 337.697C514.325 332.59 513.112 327.484 510.832 322.524C508.952 318.444 502.765 317.19 499.645 320.35C498.538 321.47 497.499 322.63 496.859 324.11C493.779 331.364 492.085 338.83 493.978 346.697C494.658 349.537 495.938 352.63 498.445 353.884C503.205 356.284 509.178 356.39 512.098 349.884C513.805 346.084 513.939 342.097 513.912 337.71L513.925 337.697Z" fill="black"/>
<path d="M476.419 243.471C476.419 245.924 476.433 248.377 476.419 250.831C476.419 251.964 476.833 252.404 478.019 252.671C483.326 253.884 488.819 253.257 494.113 254.444C495.633 254.777 496.273 254.351 496.233 252.484C496.086 246.577 494.872 240.724 495.326 234.791C495.419 233.591 495.473 232.404 496.019 231.297C496.593 230.151 497.566 229.617 498.806 229.777C500.086 229.951 500.739 230.871 500.952 232.097C501.166 233.297 500.793 234.471 500.726 235.671C500.539 238.884 500.726 242.111 501.206 245.271C502.033 250.777 501.846 256.311 502.099 261.831C502.259 265.284 502.339 268.737 502.513 272.19C502.579 273.67 502.179 274.99 500.459 275.324C498.726 275.67 497.539 274.764 497.206 272.764C496.619 269.217 496.299 265.644 496.539 262.044C496.659 260.257 496.113 259.351 494.193 259.297C492.126 259.244 490.059 258.857 487.992 258.817C484.713 258.751 481.459 258.511 478.246 257.911C476.499 257.591 475.993 258.337 476.099 259.951C476.273 262.777 476.366 265.604 476.486 268.43C476.513 268.99 476.513 269.564 476.486 270.124C476.393 271.724 475.846 272.977 473.993 273.084C472.366 273.177 471.273 272.15 471.153 270.244C470.966 266.924 470.686 263.577 470.766 260.257C470.899 254.844 470.566 249.431 471.099 244.031C471.473 240.204 470.753 236.364 470.779 232.537C470.793 230.057 471.806 228.391 473.353 228.311C474.966 228.231 475.939 229.764 476.126 232.351C476.393 236.057 476.593 239.764 476.433 243.471H476.419Z" fill="black"/>
<path d="M349.325 275.404C344.366 275.297 340.086 273.764 337.086 269.537C336.526 268.751 336.019 267.964 335.899 267.004C335.712 265.417 336.179 264.097 337.766 263.471C339.419 262.817 340.539 263.617 341.379 264.991C343.846 269.044 347.339 270.484 351.952 269.297C352.979 269.031 353.992 268.644 354.965 268.217C359.859 266.097 360.459 260.404 355.979 257.337C352.405 254.884 348.659 252.671 344.859 250.577C341.086 248.497 338.792 245.377 337.552 241.391C336.872 239.177 337.792 237.124 338.766 235.244C340.859 231.204 344.072 228.644 348.552 227.297C354.566 225.497 359.312 227.764 363.685 231.311C365.872 233.084 366.752 235.684 366.539 238.591C366.419 240.177 365.766 241.351 364.152 241.497C362.606 241.631 361.819 240.497 361.406 239.124C361.086 238.057 361.232 236.844 360.432 235.911C358.766 233.964 356.592 232.751 354.152 232.337C349.606 231.564 344.979 234.337 343.179 238.591C342.352 240.551 344.139 243.911 346.712 245.431C350.886 247.897 355.099 250.284 359.126 252.964C363.659 255.991 365.219 260.511 364.512 265.791C364.019 269.564 361.446 271.657 358.192 273.177C355.366 274.511 352.459 275.444 349.299 275.404H349.325Z" fill="black"/>
<path d="M864.683 274.271C859.803 274.124 855.577 272.617 852.603 268.457C852.003 267.617 851.457 266.791 851.363 265.751C851.23 264.151 851.763 262.857 853.363 262.297C854.95 261.737 856.03 262.511 856.83 263.817C859.483 268.097 863.51 269.551 868.283 267.951C869.057 267.697 869.817 267.377 870.564 267.044C875.31 264.924 875.897 259.271 871.497 256.244C867.923 253.791 864.19 251.551 860.377 249.484C856.59 247.417 854.323 244.284 853.03 240.324C852.377 238.311 853.217 236.457 853.95 234.671C857.137 226.844 868.083 223.217 874.39 227.097C876.59 228.444 878.977 229.444 880.47 231.711C881.63 233.457 882.137 235.337 882.017 237.431C881.937 239.017 881.283 240.204 879.683 240.391C878.123 240.564 877.043 239.471 876.95 238.071C876.71 234.497 874.297 232.991 871.47 231.804C866.843 229.844 860.363 232.231 858.443 238.151C857.923 239.777 860.057 243.057 862.137 244.297C866.243 246.737 870.403 249.097 874.403 251.711C878.963 254.684 880.643 259.124 880.017 264.444C879.723 266.977 878.563 269.111 876.337 270.537C872.777 272.817 868.977 274.364 864.643 274.297L864.683 274.271Z" fill="black"/>
<path d="M288.726 225.737C291.019 225.737 293.286 225.857 295.513 226.311C296.753 226.564 297.979 226.911 298.979 227.737C300.099 228.657 300.686 229.791 300.059 231.231C299.393 232.751 297.979 233.044 296.713 232.497C293.366 231.084 289.846 231.231 286.459 231.564C278.793 232.311 272.726 235.817 269.246 243.017C268.206 245.177 268.34 247.497 268.793 249.697C269.9 255.191 272.259 260.031 276.753 263.671C278.886 265.391 281.3 266.124 283.9 266.231C288.18 266.431 292.459 266.324 296.673 265.311C297.393 265.137 298.18 265.111 298.913 265.177C300.286 265.311 301.299 265.951 301.473 267.484C301.646 269.017 300.98 270.19 299.54 270.55C292.006 272.47 284.446 273.444 276.9 270.577C272.94 269.071 270.073 266.017 267.886 262.764C264.766 258.137 262.593 252.924 262.513 247.071C262.446 242.871 263.9 239.244 266.486 236.137C272.246 229.191 279.726 225.751 288.753 225.737H288.726Z" fill="black"/>
<path d="M399.393 336.51C398.819 331.883 400.673 327.017 400.713 321.977C400.713 320.91 400.873 319.844 400.86 318.777C400.846 317.177 401.42 315.95 403.14 315.91C404.78 315.87 405.673 317.017 405.806 318.55C406.02 320.937 406.059 323.35 405.673 325.71C404.859 330.683 404.58 335.63 404.486 340.697C404.366 347.55 402.78 354.297 396.113 358.297C393.366 359.937 390.313 360.817 387.153 361.003C383.393 361.23 378.993 357.643 377.433 353.723C375.406 348.617 375.94 343.323 376.1 338.057C376.233 333.67 376.886 329.31 376.846 324.91C376.82 322.737 377.246 320.524 377.659 318.377C377.913 317.03 378.873 316.084 380.366 316.297C381.873 316.51 382.153 317.737 382.1 319.017C381.926 323.097 381.566 327.177 381.58 331.257C381.593 336.91 380.459 342.537 381.286 348.177C381.633 350.55 382.046 352.937 384.113 354.563C386.366 356.323 390.446 356.03 393.46 354.017C398.02 350.977 398.886 346.257 399.353 341.35C399.486 339.91 399.379 338.457 399.379 336.537L399.393 336.51Z" fill="black"/>
<path d="M382.019 250.631C384.232 250.604 386.419 250.711 388.592 251.137C390.432 251.497 391.539 252.617 391.325 253.924C391.099 255.297 389.552 256.231 387.752 255.791C385.112 255.137 382.499 255.271 379.886 255.684C378.552 255.897 377.005 254.604 375.952 255.87C375.112 256.897 375.766 258.444 375.499 259.737C374.979 262.23 375.232 264.75 375.166 267.27C375.126 268.604 375.672 269.257 377.059 269.217C380.526 269.124 383.952 269.897 387.419 269.684C388.446 269.617 389.432 269.857 390.352 270.284C391.472 270.804 392.219 271.644 391.939 272.964C391.685 274.217 390.832 274.897 389.539 274.964C386.886 275.097 384.259 274.844 381.632 274.577C379.125 274.324 376.619 274.177 374.126 273.83C371.192 273.43 370.152 272.217 370.152 269.324C370.152 261.27 370.779 253.244 371.126 245.204C371.272 241.817 371.019 238.417 370.992 235.031C370.966 231.551 372.379 229.644 375.792 228.777C380.059 227.684 384.366 226.724 388.819 226.911C389.699 226.951 390.579 226.977 391.406 227.337C392.459 227.804 393.299 228.444 393.099 229.737C392.886 231.071 391.899 231.631 390.672 231.684C389.539 231.737 388.405 231.537 387.285 231.604C384.205 231.764 381.192 232.444 378.139 232.937C376.686 233.164 375.925 233.951 375.965 235.497C376.099 239.951 376.645 244.404 375.965 248.871C375.779 250.084 376.579 250.591 377.659 250.631C379.099 250.684 380.552 250.631 381.992 250.631H382.019Z" fill="black"/>
<path d="M594.58 263.897C594.94 256.99 595.379 250.097 595.646 243.177C595.766 239.79 595.526 236.391 595.5 232.991C595.473 229.724 596.9 227.751 600.06 226.924C604.38 225.804 608.739 224.804 613.259 225.017C614.073 225.057 614.899 225.124 615.673 225.364C616.886 225.751 617.9 226.471 617.58 227.964C617.273 229.377 616.14 229.897 614.86 229.791C612.9 229.617 610.966 229.697 609.033 229.991C606.913 230.297 604.82 230.684 602.7 231.017C601.14 231.271 600.42 232.111 600.473 233.724C600.62 238.11 601.153 242.51 600.473 246.91C600.273 248.244 601.153 248.71 602.299 248.75C604.313 248.804 606.326 248.857 608.339 248.804C610.059 248.75 611.74 249.004 613.393 249.337C614.78 249.617 615.913 250.324 615.806 251.977C615.726 253.244 614.139 254.417 612.673 253.95C608.993 252.777 605.273 254.23 601.606 253.497C600.686 253.31 600.166 253.83 600.126 254.764C599.98 258.337 599.459 261.897 599.633 265.497C599.699 266.924 600.379 267.337 601.659 267.31C605.179 267.244 608.673 267.964 612.206 267.804C612.94 267.777 613.7 267.99 614.42 268.23C615.726 268.657 616.686 269.484 616.433 271.004C616.18 272.47 615.139 273.044 613.699 273.084C611.179 273.15 608.673 272.937 606.166 272.684C603.606 272.43 601.033 272.27 598.473 271.924C595.673 271.537 594.673 270.284 594.633 267.497C594.619 266.297 594.633 265.11 594.633 263.91C594.606 263.91 594.593 263.91 594.566 263.91L594.58 263.897Z" fill="black"/>
<path d="M441.899 227.657C449.259 227.657 456.606 227.657 463.966 227.657C465.952 227.657 467.219 228.577 467.312 229.977C467.406 231.351 466.273 232.324 464.233 232.644C460.659 233.204 457.099 232.364 453.513 232.564C450.913 232.711 451.246 232.631 451.006 235.124C450.579 239.377 450.553 243.644 450.219 247.897C449.686 254.844 448.833 261.791 449.553 268.777C449.659 269.831 449.646 270.924 449.526 271.977C449.379 273.297 448.606 274.231 447.259 274.391C445.819 274.564 444.846 273.737 444.392 272.431C444.112 271.617 444.019 270.711 443.979 269.831C443.592 261.591 444.192 253.377 444.966 245.177C445.299 241.684 445.286 238.151 445.473 234.644C445.553 233.097 444.899 232.511 443.366 232.551C440.099 232.617 436.819 232.564 433.553 232.577C432.539 232.577 431.526 232.524 430.579 232.177C429.353 231.724 428.459 230.897 428.646 229.511C428.832 228.151 429.873 227.431 431.166 227.364C433.366 227.257 435.566 227.297 437.766 227.297C439.153 227.297 440.539 227.297 441.913 227.297C441.913 227.417 441.913 227.537 441.913 227.657H441.899Z" fill="black"/>
<path d="M286.659 315.724C294.019 315.724 301.366 315.724 308.726 315.724C310.712 315.724 311.979 316.644 312.072 318.044C312.166 319.417 311.032 320.39 308.992 320.71C305.419 321.27 301.859 320.43 298.272 320.63C295.672 320.777 296.006 320.697 295.752 323.19C295.326 327.444 295.299 331.71 294.966 335.964C294.432 342.91 293.579 349.857 294.299 356.843C294.406 357.897 294.392 358.99 294.272 360.043C294.126 361.363 293.352 362.297 292.006 362.457C290.566 362.63 289.579 361.803 289.139 360.497C288.859 359.684 288.766 358.777 288.726 357.897C288.339 349.657 288.939 341.444 289.712 333.244C290.046 329.684 290.046 326.097 290.219 322.51C290.286 321.15 289.672 320.59 288.312 320.617C284.979 320.657 281.646 320.657 278.312 320.617C277.379 320.617 276.419 320.51 275.513 320.284C274.246 319.964 273.326 319.124 273.379 317.764C273.446 316.284 274.539 315.51 275.913 315.43C277.979 315.31 280.059 315.377 282.139 315.364C283.646 315.364 285.152 315.364 286.672 315.364V315.71L286.659 315.724Z" fill="black"/>
<path d="M424.752 314.977C432.045 314.777 439.325 315.537 446.632 315.364C448.632 315.31 449.899 316.257 450.005 317.657C450.112 319.03 448.979 320.03 446.952 320.35C443.312 320.924 439.685 320.057 436.045 320.284C433.605 320.43 433.939 320.35 433.685 322.804C433.259 327.124 433.206 331.444 432.886 335.764C432.366 342.657 431.512 349.537 432.232 356.457C432.339 357.51 432.326 358.604 432.219 359.657C432.059 361.057 431.232 362.03 429.792 362.124C428.459 362.217 427.499 361.417 427.099 360.177C426.832 359.35 426.712 358.457 426.672 357.59C426.272 349.35 426.885 341.137 427.645 332.937C427.979 329.444 427.979 325.91 428.166 322.404C428.246 320.884 427.659 320.244 426.085 320.284C422.872 320.364 419.672 320.324 416.459 320.284C415.646 320.284 414.819 320.23 414.019 320.084C412.259 319.764 411.059 318.537 411.312 317.257C411.632 315.617 412.859 315.044 414.379 315.03C417.339 314.99 420.299 315.004 423.246 314.99C423.752 314.99 424.245 314.99 424.752 314.99V314.977Z" fill="black"/>
<path d="M759.591 359.964C760.671 354.404 759.111 348.777 759.951 343.217C760.111 342.19 759.831 341.244 759.324 340.324C758.364 338.617 757.964 336.684 757.271 334.87C755.178 329.404 754.524 323.497 751.938 318.204C751.244 316.804 751.271 315.471 752.658 314.524C753.778 313.764 755.351 314.324 756.351 315.857C758.111 318.537 758.885 321.631 759.485 324.697C760.191 328.257 761.924 331.444 762.684 334.95C762.764 335.297 762.898 335.75 763.338 335.777C763.884 335.804 763.991 335.257 764.191 334.884C766.138 331.43 767.818 327.844 769.938 324.47C772.151 320.937 774.845 317.764 777.565 314.631C778.978 313.004 780.338 312.791 781.498 313.724C782.631 314.644 782.618 316.324 781.378 317.964C779.631 320.271 777.791 322.51 776.018 324.79C773.018 328.644 771.044 333.097 768.698 337.324C767.778 338.977 767.045 340.697 765.725 342.11C764.631 343.284 764.418 344.857 764.551 346.377C765.031 351.777 764.431 357.177 764.551 362.59C764.591 364.137 764.445 365.59 762.525 365.857C761.045 366.057 759.791 364.724 759.604 362.79C759.511 361.857 759.591 360.91 759.591 359.964Z" fill="black"/>
<path d="M250.513 329.977C250.513 331.991 250.579 334.004 250.486 336.017C250.419 337.484 251.006 338.031 252.459 338.071C255.406 338.164 258.379 337.764 261.299 338.417C261.539 338.471 261.806 338.471 262.046 338.537C263.433 338.911 264.912 339.377 264.672 341.164C264.446 342.937 262.913 343.324 261.486 342.964C258.113 342.137 254.699 343.204 251.353 342.551C250.539 342.391 250.219 342.791 250.153 343.577C249.913 346.897 249.619 350.217 249.713 353.55C249.753 354.95 250.326 355.43 251.659 355.417C254.739 355.404 257.793 356.004 260.886 355.884C261.739 355.857 262.633 356.097 263.473 356.35C264.793 356.724 265.472 357.644 265.259 359.057C265.032 360.537 263.912 360.977 262.646 360.99C261.019 360.99 259.379 360.884 257.753 360.764C254.739 360.524 251.739 360.284 248.739 359.937C245.939 359.63 244.819 358.39 244.819 355.59C244.819 348.297 245.299 341.017 245.846 333.751C246.086 330.591 245.526 327.484 245.606 324.324C245.712 320.124 246.779 318.484 250.833 317.471C254.433 316.577 258.046 315.724 261.793 315.751C262.873 315.751 263.926 315.911 264.926 316.351C265.952 316.804 266.566 317.537 266.379 318.711C266.193 319.951 265.286 320.377 264.193 320.337C260.459 320.191 256.806 320.804 253.139 321.444C250.846 321.844 250.539 322.124 250.539 324.484C250.539 326.311 250.539 328.137 250.539 329.964C250.539 329.964 250.539 329.964 250.526 329.964L250.513 329.977Z" fill="black"/>
<path d="M509.579 242.364C509.579 240.284 509.605 238.204 509.579 236.124C509.539 233.724 510.752 232.057 512.899 231.377C517.472 229.911 522.152 228.977 526.992 229.217C527.298 229.231 527.632 229.257 527.925 229.364C529.192 229.804 530.645 230.204 530.392 231.937C530.165 233.524 528.778 233.791 527.485 233.711C523.992 233.511 520.579 234.124 517.165 234.671C514.539 235.084 514.245 235.471 514.245 238.084C514.245 242.111 514.485 246.151 514.152 250.164C514.045 251.431 514.738 251.724 515.712 251.751C517.538 251.817 519.365 251.857 521.192 251.817C522.845 251.777 524.458 251.964 526.072 252.271C527.912 252.617 528.899 253.644 528.579 254.964C528.165 256.617 526.885 256.937 525.472 256.59C521.978 255.724 518.432 256.857 514.938 256.27C514.205 256.15 513.939 256.657 513.899 257.31C513.739 260.697 512.952 264.03 513.165 267.457C513.259 269.017 513.845 269.604 515.338 269.564C518.738 269.47 522.099 270.23 525.512 270.044C525.939 270.017 526.405 270.07 526.818 270.204C528.192 270.63 529.578 271.177 529.325 272.977C529.085 274.63 527.752 274.937 526.338 274.95C521.672 274.977 517.058 274.23 512.432 273.884C509.552 273.67 508.512 272.204 508.539 269.31C508.592 262.644 508.925 255.99 509.525 249.337C509.739 247.031 509.552 244.684 509.552 242.351C509.565 242.351 509.592 242.351 509.605 242.351L509.579 242.364Z" fill="black"/>
<path d="M629.911 236.031C629.378 242.231 629.977 248.457 629.257 254.671C628.844 258.257 629.431 261.951 629.524 265.604C629.564 267.017 630.524 267.071 631.498 266.964C635.004 266.564 638.537 266.511 642.057 266.617C645.391 266.724 648.724 266.844 652.044 267.004C653.577 267.084 654.791 267.684 654.817 269.444C654.844 271.124 653.777 271.991 652.257 272.191C650.897 272.377 649.484 272.417 648.111 272.324C642.457 271.977 636.818 271.804 631.178 272.617C630.071 272.777 628.911 272.711 627.777 272.604C624.524 272.311 623.004 270.431 623.631 267.217C624.071 265.004 624.044 262.804 623.751 260.644C623.231 256.777 624.004 252.991 624.111 249.177C624.284 242.697 624.164 236.217 624.191 229.737C624.191 228.671 624.231 227.591 624.444 226.551C624.724 225.204 625.537 224.231 627.057 224.324C628.644 224.431 629.484 225.511 629.498 226.964C629.511 229.991 630.098 232.977 629.911 236.017V236.031Z" fill="black"/>
<path d="M668.458 236.03C667.938 242.23 668.525 248.457 667.805 254.67C667.391 258.257 667.978 261.95 668.085 265.604C668.125 267.017 669.098 267.057 670.058 266.95C673.565 266.55 677.098 266.497 680.618 266.604C683.951 266.71 687.284 266.83 690.604 266.99C692.138 267.07 693.351 267.684 693.364 269.444C693.391 271.124 692.298 271.897 690.791 272.204C690.365 272.284 689.911 272.297 689.471 272.284C682.445 272.19 675.404 271.724 668.391 272.63C667.538 272.737 666.618 272.657 665.751 272.524C663.098 272.11 661.631 270.39 662.098 267.777C662.711 264.297 662.391 260.884 662.031 257.444C661.871 255.924 662.124 254.43 662.311 252.937C663.258 245.404 662.538 237.844 662.725 230.297C662.751 229.164 662.725 228.017 662.898 226.91C663.138 225.43 663.871 224.231 665.604 224.337C667.284 224.444 668.071 225.63 668.058 227.164C668.031 230.124 668.671 233.057 668.445 236.03H668.458Z" fill="black"/>
<path d="M632.724 334.083C634.951 330.123 636.938 326.43 639.084 322.803C641.151 319.323 643.764 316.244 646.444 313.244C647.324 312.257 648.471 311.644 649.791 312.55C650.911 313.324 651.031 314.87 650.004 316.257C648.498 318.27 646.871 320.203 645.324 322.177C642.284 326.07 640.151 330.51 637.831 334.83C636.938 336.497 636.098 338.177 634.911 339.657C633.471 341.443 633.605 343.59 633.885 345.63C634.525 350.363 633.511 355.057 633.804 359.777C633.871 360.763 633.311 361.443 632.338 361.723C631.378 362.003 630.618 361.643 629.991 360.91C629.244 360.03 629.071 358.95 629.191 357.883C629.831 352.377 629.071 346.83 629.565 341.323C629.698 339.843 629.244 338.55 628.724 337.15C627.231 333.15 625.951 329.057 624.751 324.95C623.991 322.364 623.458 319.71 622.245 317.27C621.298 315.364 621.565 313.964 622.898 313.324C624.151 312.724 625.498 313.457 626.498 315.23C627.751 317.457 628.458 319.91 628.964 322.337C629.738 326.07 631.444 329.47 632.271 333.163C632.324 333.39 632.484 333.59 632.738 334.057L632.724 334.083Z" fill="black"/>
<path d="M528.406 349.377C528.339 351.764 528.526 354.164 527.979 356.524C527.833 357.137 527.673 357.75 527.433 358.324C526.926 359.55 525.953 360.017 524.673 359.71C523.419 359.417 522.899 358.417 523.059 357.27C524.339 347.71 523.486 338.044 524.393 328.457C524.686 325.337 524.553 322.19 525.459 319.124C526.139 316.83 526.913 316.097 529.206 315.804C534.953 315.057 540.726 314.897 546.513 314.844C547.073 314.844 547.646 314.91 548.179 315.057C548.966 315.27 549.473 315.857 549.593 316.67C549.726 317.537 549.233 318.097 548.539 318.51C547.886 318.897 547.153 319.124 546.393 319.15C543.566 319.284 540.74 319.564 537.913 319.497C535.54 319.444 533.326 320.19 531.006 320.404C529.646 320.524 529.66 321.804 529.58 322.75C529.366 325.257 529.393 327.777 529.086 330.27C528.859 332.204 528.926 334.164 528.739 336.11C528.593 337.644 529.019 338.497 530.686 338.577C534.193 338.737 537.699 338.964 541.193 339.19C542.073 339.244 542.966 339.297 543.806 339.524C544.953 339.83 545.673 340.644 545.513 341.897C545.353 343.07 544.459 343.644 543.366 343.644C541.486 343.644 539.566 343.644 537.726 343.31C535.099 342.83 532.433 343.284 529.819 342.83C528.673 342.63 528.406 343.337 528.406 344.284C528.406 345.977 528.406 347.684 528.406 349.377Z" fill="black"/>
<path d="M766.898 272.711C765.192 272.671 763.512 272.831 761.818 273.004C759.552 273.231 758.178 272.404 757.978 270.871C757.778 269.271 758.778 268.097 760.965 267.697C762.311 267.457 762.752 266.644 762.792 265.471C762.872 263.204 762.911 260.937 762.925 258.671C762.951 252.311 763.498 245.977 764.245 239.671C764.472 237.737 764.552 235.777 764.725 233.844C764.818 232.831 764.418 232.311 763.365 232.271C762.872 232.257 762.352 232.164 761.885 232.017C760.818 231.671 760.218 230.924 760.232 229.764C760.232 228.591 760.871 227.884 761.965 227.591C763.698 227.124 765.485 227.244 767.232 227.391C769.432 227.591 771.632 227.604 773.832 227.671C774.578 227.697 775.338 227.791 776.072 227.991C777.285 228.311 778.111 229.071 778.018 230.417C777.911 231.844 776.938 232.511 775.591 232.577C774.725 232.617 773.831 232.524 772.965 232.444C770.378 232.204 769.645 232.764 769.498 235.377C769.378 237.697 769.418 240.044 769.031 242.337C768.058 248.084 768.205 253.871 768.205 259.671C768.205 261.684 767.992 263.684 767.872 265.697C767.805 266.751 768.191 267.364 769.325 267.457C769.871 267.497 770.458 267.671 770.938 267.937C771.978 268.524 772.818 269.351 772.525 270.657C772.232 271.964 771.311 272.684 769.938 272.711C768.925 272.737 767.925 272.711 766.912 272.711H766.898Z" fill="black"/>
<path d="M801.459 331.19C800.952 326.59 801.379 322.03 801.859 317.47C801.939 316.67 802.099 315.844 802.405 315.084C802.939 313.737 803.925 312.87 805.472 313.15C807.032 313.417 807.685 314.55 807.645 316.017C807.592 317.777 807.259 319.524 807.272 321.27C807.352 332.15 806.125 342.99 806.459 353.857C806.499 355.257 806.059 356.457 804.779 357.23C803.859 357.777 802.979 357.617 802.112 357.083C801.152 356.497 800.845 355.523 800.779 354.51C800.339 348.163 800.685 341.83 801.099 335.51C801.192 334.07 801.539 332.657 801.472 331.19H801.459Z" fill="black"/>
<path d="M883.923 276.537C883.59 280.777 879.057 284.87 874.737 284.764C873.377 284.737 872.177 284.23 871.99 282.71C871.817 281.31 872.83 280.737 874.03 280.417C874.523 280.297 875.017 280.19 875.497 280.03C877.83 279.31 877.883 279.19 877.03 276.99C876.443 275.484 877.017 273.337 878.337 272.164C879.323 271.284 880.483 271.044 881.657 271.657C883.31 272.511 884.217 273.844 884.017 275.791C883.99 276.044 883.963 276.297 883.937 276.537H883.923Z" fill="black"/>
<path d="M807.658 370.39C807.605 373.19 805.485 375.497 803.045 375.39C801.311 375.324 799.951 373.657 800.018 371.71C800.111 368.884 802.231 366.364 804.431 366.444C806.285 366.524 807.698 368.244 807.671 370.39H807.658Z" fill="black"/>
</svg>
