<svg width="1068" height="792" viewBox="0 0 1068 792" fill="none" xmlns="http://www.w3.org/2000/svg">
<path d="M2.20427 300.784C3.45756 259.474 6.39629 218.322 16.8548 179.416C31.7501 124.052 56.6718 79.2863 92.6714 47.7672C113.084 29.8982 135.773 21.9068 159.643 17.8175C195.11 11.7412 230.691 10.8773 266.302 10.3157C301.596 9.75418 336.861 10.2005 372.14 13.1667C386.891 14.405 401.729 15.5858 416.552 15.9457C452.638 16.8385 488.71 18.7822 524.796 19.099C565.996 19.459 607.196 19.3294 648.382 17.8607C678.648 16.7808 708.813 12.1732 738.849 6.68719C751.468 4.38337 764.131 2.66991 776.822 2.36753C796.198 1.89237 815.602 1.87793 834.977 2.32429C863.126 2.98664 891.13 6.02477 919.02 12.1875C941.564 17.1695 962.525 26.9465 981.151 45.449C1001.19 65.3482 1019.25 87.7096 1029.77 120.222C1039.83 151.309 1047.65 183.246 1052.31 216.767C1054.79 234.607 1059.21 252.231 1059.91 270.158C1060.57 287.235 1063.18 304.053 1062.8 321.202C1062.38 340.539 1065.71 359.733 1064.34 379.085C1062.95 398.783 1063.39 418.524 1059.94 438.25C1055.34 464.398 1046.48 485.075 1032.26 503.103C1010.15 531.137 983.989 541.389 955.336 542.412C936.58 543.074 917.81 542.656 899.039 542.527L1020.54 749.006L1066 790C1053.99 783.65 1042.63 773.614 1028.82 777.401C1027.06 777.891 1024.94 777.228 1023.2 776.307C1011.32 770.014 998.942 764.989 987.734 756.811C952.959 731.454 918.904 704.226 884.951 676.71C851.443 649.539 820.629 616.594 787.381 588.891C772.918 576.839 762.791 557.357 752.203 539.748C752.088 539.56 751.987 539.373 751.872 539.186L750.935 539.143C741.86 545.968 732.049 542.397 722.671 542.181C713.538 541.98 704.391 540.568 695.2 540.208C652.127 538.538 609.026 538.754 565.967 537.588C530.4 536.623 494.876 531.857 459.337 528.977C442.382 527.595 425.426 526.112 408.442 525.651C378.291 524.845 348.097 523.376 317.975 524.73C275.421 526.63 232.895 526.486 190.341 526.674C156.935 526.818 124.58 519.388 92.4985 505.565C56.182 489.913 30.5257 458.639 13.455 412.001C7.73601 396.364 6.41071 379.013 4.71085 362.037C2.67966 341.778 1.5416 321.288 2.17545 300.77L2.20427 300.784Z" fill="white" stroke="black" stroke-width="3.99999" stroke-linecap="round" stroke-linejoin="round"/>
<path d="M475.062 323.842C480.769 323.842 483.182 321.935 483.489 317.282C483.622 315.268 483.155 314.095 480.755 314.455C478.368 314.815 475.942 315.042 473.528 315.068C471.542 315.095 469.249 314.695 469.222 312.202C469.182 309.602 471.342 309.535 473.448 309.495C475.862 309.442 478.262 309.028 480.662 308.722C486.182 308.002 489.302 310.722 489.355 316.362C489.435 324.628 483.048 330.415 474.462 329.548C462.435 328.348 452.489 318.588 454.622 304.868C455.462 299.482 456.862 294.482 459.902 289.975C464.062 283.815 470.395 281.335 477.595 283.068C480.115 283.682 482.915 283.455 485.102 285.108C489.502 288.442 491.355 293.108 491.675 298.468C491.768 299.935 491.208 301.255 489.568 301.495C487.928 301.735 487.075 300.615 486.648 299.215C485.968 297.002 485.582 294.695 484.462 292.615C483.488 290.788 482.102 289.882 480.062 289.255C468.555 285.708 463.555 291.402 460.715 301.988C459.955 304.842 459.755 307.868 460.195 310.922C461.275 318.322 467.555 323.841 475.062 323.828V323.842Z" fill="black"/>
<path d="M577.355 315.962C578.408 311.028 578.555 306.068 578.035 301.068C577.515 296.135 577.595 291.202 578.155 286.282C578.368 284.428 579.075 282.642 581.248 282.735C583.648 282.842 583.595 284.868 583.608 286.668C583.661 292.575 583.541 298.455 584.061 304.375C584.608 310.668 583.301 316.922 582.195 323.122C581.795 325.335 580.821 327.601 578.141 327.828C575.488 328.055 574.648 325.868 573.755 323.881C570.461 316.562 569.181 308.428 564.795 301.548C564.288 300.748 564.155 299.708 563.075 298.962C562.368 301.415 562.608 303.802 562.728 306.122C563.035 312.148 562.568 318.122 561.941 324.095C561.755 325.935 561.515 328.148 559.048 328.055C556.488 327.961 555.955 325.735 556.261 323.762C558.061 312.095 556.968 300.348 557.328 288.655C557.355 287.895 557.528 287.108 557.795 286.388C558.315 284.948 559.182 283.762 560.902 283.762C562.488 283.762 563.288 284.842 563.875 286.148C565.621 290.042 567.288 293.962 569.128 297.802C571.768 303.295 574.875 308.588 576.195 314.642C576.301 315.148 576.355 315.828 577.341 315.975L577.355 315.962Z" fill="black"/>
<path d="M945.327 283.508C950.007 284.255 954.914 286.162 957.767 291.468C958.22 292.308 958.554 293.268 958.674 294.201C958.927 296.295 958.967 298.615 956.3 299.041C953.927 299.428 953.22 297.441 952.94 295.508C952.487 292.441 950.18 291.228 947.754 290.161C943.607 288.335 938.087 289.882 935.434 293.295C932.354 297.282 933.087 300.188 937.674 303.455C941.527 306.202 945.794 308.375 949.847 310.828C954.847 313.855 957.354 319.148 956.447 324.921C955.927 328.268 954.327 330.788 951.114 332.375C945.807 335.001 940.46 336.388 934.58 334.521C931.274 333.468 928.834 331.348 926.82 328.668C925.234 326.548 925.487 324.121 927.367 323.055C929.594 321.788 930.86 322.988 932.06 324.868C935.58 330.361 945.607 330.868 949.674 325.841C951.66 323.388 950.567 318.201 947.367 316.095C943.327 313.441 939.154 310.961 934.98 308.508C930.7 305.988 927.474 302.362 927.58 297.455C927.7 292.442 930.674 288.348 935.167 285.775C937.994 284.175 941.127 283.508 945.3 283.468L945.327 283.508Z" fill="black"/>
<path d="M909.448 281.775C912.968 282.002 916.888 283.935 920.114 287.242C921.421 288.575 922.261 290.268 922.568 292.122C922.901 294.188 923.101 296.575 920.568 297.228C917.834 297.935 917.194 295.668 916.834 293.548C916.328 290.628 914.074 289.495 911.741 288.455C907.474 286.562 901.981 288.188 899.234 291.762C896.194 295.722 897.394 298.788 901.568 301.721C905.434 304.441 909.674 306.668 913.754 309.081C919.154 312.281 921.061 317.175 920.381 323.161C920.008 326.521 918.341 329.055 915.128 330.641C910.208 333.068 905.248 334.521 899.714 333.161C895.834 332.201 892.901 329.948 890.648 326.775C889.221 324.761 889.514 322.415 891.274 321.375C893.474 320.081 894.781 321.201 895.994 323.108C899.528 328.641 909.421 329.188 913.594 324.188C915.608 321.775 914.554 316.535 911.368 314.428C907.408 311.815 903.354 309.335 899.234 306.975C894.728 304.388 891.274 300.668 891.568 295.521C891.874 290.228 895.008 285.922 900.114 283.575C902.688 282.388 905.434 281.775 909.448 281.775Z" fill="black"/>
<path d="M139.649 170.375C156.676 173.082 173.996 175.082 186.129 190.108C199.356 206.495 200.209 220.095 188.343 237.615C181.009 248.442 180.863 248.842 193.863 253.215C212.583 259.508 228.156 288.588 208.303 309.281C203.703 314.068 198.169 317.161 191.943 319.135C182.396 322.175 172.676 324.281 162.583 324.375C157.089 324.428 151.703 324.948 146.516 327.108C136.983 331.068 131.543 328.148 131.156 317.641C130.516 300.242 127.303 283.028 127.21 265.695C127.076 242.428 123.943 219.522 121.423 196.522C120.863 191.388 120.53 186.308 122.623 181.309C125.796 173.762 130.303 168.548 139.649 170.362V170.375ZM160.729 263.762C143.45 263.135 143.516 263.122 145.649 278.575C146.623 285.588 147.583 292.628 148.049 299.695C148.449 305.855 151.263 308.241 157.343 307.668C166.983 306.748 176.569 305.788 185.889 302.935C193.969 300.455 200.316 295.961 199.969 286.855C199.636 277.881 195.223 271.001 185.889 268.175C177.196 265.548 168.409 263.695 160.743 263.762H160.729ZM138.903 200.388C140.409 211.282 142.369 225.282 144.249 239.295C144.676 242.508 145.289 245.308 149.516 243.668C156.089 241.122 163.463 239.948 168.703 234.935C185.663 218.708 183.036 207.015 166.636 194.442C162.276 191.095 155.996 190.148 150.489 188.442C140.103 185.228 138.383 186.602 138.903 200.388Z" fill="#55ADE1"/>
<path d="M836.194 300.469C836.194 303.762 836.047 306.629 836.221 309.482C836.607 315.509 835.954 321.469 835.314 327.442C835.127 329.162 834.914 331.282 832.487 331.055C830.207 330.842 830.034 328.842 830.101 327.042C830.274 322.402 831.541 317.815 831.167 313.149C830.647 306.469 831.487 299.802 831.154 293.122C831.087 291.775 831.074 290.402 831.567 289.095C832.074 287.762 832.847 286.629 834.394 286.522C835.981 286.415 836.821 287.469 837.407 288.802C839.114 292.709 840.607 296.709 842.567 300.482C845.914 306.935 849.167 313.389 850.981 320.548C852.327 314.362 852.754 308.282 852.114 302.015C851.661 297.629 852.074 293.135 852.287 288.682C852.367 286.922 853.274 285.349 855.341 285.522C857.167 285.669 857.661 287.215 857.487 288.762C856.314 298.895 858.941 309.068 857.061 319.188C856.567 321.855 856.261 324.562 855.674 327.202C855.247 329.082 854.181 330.655 852.034 330.855C849.914 331.055 848.914 329.522 848.221 327.855C847.007 324.895 845.541 321.989 844.821 318.909C843.354 312.562 839.981 307.122 837.221 301.375C837.114 301.162 836.834 301.029 836.181 300.482L836.194 300.469Z" fill="black"/>
<path d="M826.754 310.668C826.221 316.801 823.407 322.535 816.794 325.881C811.834 328.401 806.461 329.708 801.034 330.708C799.914 330.921 798.701 330.895 797.581 330.681C795.754 330.348 794.714 329.015 795.434 327.295C797.821 321.495 797.168 315.281 798.074 309.295C799.008 303.175 799.074 296.975 798.754 290.788C798.701 289.628 798.674 288.481 798.287 287.361C797.114 283.948 797.994 282.562 801.447 283.135C817.461 285.802 825.821 291.508 826.754 310.655V310.668ZM820.927 308.908C821.034 299.668 817.341 291.935 807.287 289.721C804.194 289.041 804.007 289.001 804.061 292.335C804.141 297.375 804.141 302.388 803.541 307.415C803.007 311.828 802.754 316.281 802.367 320.708C802.021 324.655 802.327 324.961 806.261 323.921C808.314 323.375 810.327 322.668 812.301 321.868C818.581 319.348 820.967 315.695 820.914 308.921L820.927 308.908Z" fill="black"/>
<path d="M497.262 320.962C497.182 314.682 499.542 308.775 499.968 302.588C500.288 297.908 501.328 293.402 503.088 289.055C503.448 288.162 503.742 287.215 504.248 286.402C506.048 283.482 508.302 280.948 512.088 281.348C515.888 281.748 517.942 284.362 518.995 287.922C519.862 290.815 520.475 293.762 520.782 296.735C521.555 304.362 523.342 311.815 524.515 319.362C524.795 321.162 525.542 322.882 526.155 324.615C526.648 326.055 526.608 327.335 525.142 328.135C523.715 328.908 522.502 328.348 521.528 327.228C520.062 325.548 519.782 323.388 519.195 321.348C518.515 319.042 519.075 316.215 517.448 314.415C515.662 312.442 512.822 313.775 510.488 313.362C502.448 311.908 503.875 313.295 502.955 319.242C502.675 321.055 502.808 322.922 502.542 324.748C502.302 326.362 501.555 327.868 499.635 327.802C497.595 327.722 497.275 326.122 497.275 324.455C497.275 323.295 497.275 322.135 497.275 320.962H497.262ZM512.128 308.108C515.955 308.162 516.555 307.962 516.328 306.188C515.608 300.642 515.408 295.002 513.715 289.602C513.355 288.455 512.942 287.242 511.635 287.055C510.222 286.855 509.635 288.162 509.168 289.162C507.368 292.935 506.168 296.935 505.715 301.082C504.968 307.882 505.142 308.002 512.128 308.108Z" fill="black"/>
<path d="M422.889 321.575C424.862 311.428 424.955 300.948 428.209 291.028C428.809 289.188 429.515 287.375 430.702 285.801C432.529 283.375 434.915 281.948 437.969 282.482C440.929 283.002 442.982 284.788 443.995 287.748C445.702 292.748 446.022 297.988 446.902 303.135C448.129 310.268 448.862 317.521 451.235 324.428C451.769 325.975 451.689 327.388 450.075 328.161C448.342 329.001 446.995 328.095 446.169 326.655C444.649 324.001 444.209 321.015 443.715 318.041C443.049 313.961 443.022 314.015 438.955 313.895C436.835 313.828 434.702 313.615 432.595 313.348C430.222 313.055 429.195 314.188 428.995 316.401C428.795 318.815 428.595 321.228 428.355 323.628C428.155 325.575 428.049 327.908 425.369 327.761C422.675 327.601 422.902 325.268 422.889 323.308C422.889 322.721 422.889 322.148 422.889 321.561V321.575ZM438.169 308.588C439.755 308.495 441.849 308.935 441.489 306.268C440.769 301.095 440.715 295.828 439.115 290.788C438.755 289.681 438.449 288.321 437.129 288.175C435.635 288.015 434.955 289.388 434.502 290.521C433.169 293.855 431.982 297.241 431.609 300.841C430.689 309.575 429.209 307.321 438.169 308.588Z" fill="black"/>
<path d="M747.568 312.335C747.568 316.135 747.634 319.215 747.541 322.295C747.488 324.028 747.274 325.775 746.981 327.482C746.781 328.615 746.021 329.415 744.794 329.495C743.568 329.575 742.754 328.828 742.368 327.775C742.074 326.975 741.861 326.068 741.914 325.242C742.741 314.402 742.274 303.535 742.274 292.695C742.274 287.482 743.994 285.722 749.301 285.962C751.714 286.068 754.101 286.602 756.501 286.908C766.768 288.242 767.101 300.215 762.341 305.388C760.594 307.282 758.594 308.788 756.168 309.615C754.328 310.242 754.274 311.042 755.301 312.588C757.888 316.468 760.648 320.188 763.874 323.562C764.408 324.122 764.901 324.722 765.341 325.362C766.314 326.748 766.781 328.242 765.208 329.482C763.741 330.628 762.501 329.802 761.381 328.708C758.048 325.442 755.074 321.882 752.501 317.975C751.288 316.135 750.194 314.188 747.581 312.362L747.568 312.335ZM750.994 305.215C753.981 305.268 756.354 304.135 758.141 302.135C759.714 300.375 760.634 298.215 759.928 295.695C759.194 293.055 757.221 292.108 754.728 291.775C753.288 291.588 751.848 291.375 750.434 291.042C748.421 290.575 747.501 291.255 747.554 293.362C747.621 296.175 747.674 298.988 747.608 301.802C747.541 304.348 748.808 305.308 750.994 305.215Z" fill="black"/>
<path d="M220.916 321.121C222.943 310.508 222.996 299.548 226.636 289.215C227.116 287.841 227.663 286.508 228.516 285.308C230.343 282.721 232.596 280.708 235.996 281.295C239.356 281.881 241.303 284.228 242.303 287.428C243.969 292.828 244.063 298.508 245.196 303.988C246.583 310.695 246.876 317.641 249.463 324.095C250.023 325.468 250.036 326.855 248.569 327.655C246.983 328.508 245.703 327.655 244.863 326.348C242.943 323.321 242.343 319.841 242.049 316.388C241.836 313.881 240.676 312.935 238.369 312.988C235.849 313.041 233.343 312.828 230.863 312.401C228.449 311.975 226.969 312.668 226.823 315.428C226.689 318.228 226.316 321.015 226.023 323.801C225.823 325.641 225.343 327.495 223.023 327.281C220.796 327.068 220.916 325.121 220.916 323.455C220.916 322.681 220.916 321.908 220.916 321.135V321.121ZM236.103 308.108C237.476 307.428 240.449 309.228 240.009 305.895C239.316 300.641 239.156 295.308 237.649 290.175C237.236 288.748 237.076 286.828 235.076 286.788C233.223 286.761 232.649 288.508 232.076 289.908C230.356 294.135 229.276 298.521 228.89 303.068C228.543 307.068 228.516 307.055 232.356 307.575C233.596 307.748 234.836 307.908 236.116 308.081L236.103 308.108Z" fill="black"/>
<path d="M607.648 280.602C611.235 280.842 615.128 282.935 618.221 286.575C619.381 287.948 619.835 289.655 619.901 291.442C619.955 293.068 619.741 294.748 617.768 295.028C615.741 295.321 615.235 293.722 614.848 292.122C613.928 288.322 610.208 285.815 605.822 286.001C601.368 286.188 596.875 289.402 596.501 292.948C596.181 296.028 598.101 298.015 600.515 299.495C604.155 301.721 607.848 303.841 611.515 306.028C614.555 307.855 616.648 310.455 617.582 313.881C619.181 319.721 617.261 323.881 611.875 326.615C606.061 329.561 600.262 330.121 594.395 326.748C592.382 325.588 590.982 323.868 589.902 321.921C588.995 320.308 589.142 318.628 590.835 317.588C592.635 316.481 593.848 317.428 594.888 319.028C598.462 324.521 607.381 325.095 611.621 320.175C613.661 317.815 612.541 313.028 609.195 310.802C605.728 308.495 602.101 306.428 598.528 304.308C597.102 303.468 595.728 302.615 594.582 301.375C587.595 293.775 592.235 286.761 598.075 282.841C600.502 281.215 603.435 280.628 607.648 280.615V280.602Z" fill="black"/>
<path d="M863.794 319.041C863.901 313.228 864.501 307.441 864.834 301.641C865.034 298.268 864.594 294.868 864.594 291.495C864.594 287.455 866.034 285.561 869.901 284.655C873.194 283.868 876.541 283.295 879.874 282.681C881.621 282.361 883.354 282.588 885.021 283.201C886.167 283.628 887.221 284.241 887.074 285.655C886.914 287.188 885.741 287.801 884.381 287.761C880.567 287.668 876.861 288.281 873.127 288.895C870.781 289.281 869.701 290.321 869.861 292.748C870.127 296.708 870.647 300.655 869.954 304.628C869.661 306.295 870.861 306.801 872.301 306.841C875.007 306.908 877.727 306.921 880.434 307.041C881.287 307.081 882.154 307.335 882.994 307.575C884.301 307.948 885.394 308.681 885.207 310.201C884.994 311.908 883.567 312.468 882.181 312.201C878.887 311.561 875.607 312.228 872.354 311.975C870.381 311.828 869.847 312.468 869.594 314.255C869.167 317.148 869.167 320.041 869.154 322.948C869.154 324.588 869.781 325.441 871.541 325.508C874.727 325.641 877.914 325.895 881.101 326.135C882.061 326.201 883.047 326.295 883.941 326.601C885.207 327.041 886.154 327.935 885.914 329.441C885.687 330.961 884.554 331.441 883.167 331.495C878.021 331.695 872.914 331.055 867.807 330.508C865.127 330.228 863.727 328.508 863.781 325.721C863.821 323.495 863.781 321.268 863.781 319.028L863.794 319.041Z" fill="black"/>
<path d="M358.969 318.375C359.515 308.135 360.382 297.909 360.075 287.642C360.009 285.229 361.289 283.495 363.515 282.775C367.662 281.429 371.955 280.668 376.302 280.228C376.689 280.188 377.089 280.189 377.462 280.282C379.289 280.722 381.849 280.602 381.835 283.162C381.835 285.988 379.249 285.335 377.395 285.548C374.222 285.908 371.062 286.335 367.889 286.748C366.182 286.975 365.369 287.908 365.395 289.695C365.449 293.468 365.462 297.255 365.395 301.028C365.369 303.015 366.502 303.482 368.182 303.482C371.182 303.482 374.195 303.322 377.142 304.082C378.769 304.495 380.249 305.175 379.862 307.162C379.489 309.108 377.902 309.415 376.235 309.068C373.249 308.442 370.249 308.895 367.249 308.788C366.089 308.748 365.062 308.988 364.955 310.402C364.742 313.295 364.182 316.148 364.315 319.082C364.395 320.802 365.129 321.468 366.809 321.548C369.515 321.668 372.209 321.922 374.915 322.135C375.875 322.215 376.849 322.255 377.795 322.468C379.369 322.828 380.969 323.428 380.835 325.388C380.689 327.535 378.929 327.962 377.209 327.855C372.382 327.535 367.555 327.188 362.755 326.615C360.382 326.335 359.009 324.708 358.982 322.188C358.969 320.935 358.982 319.668 358.982 318.415L358.969 318.375Z" fill="black"/>
<path d="M770.248 300.255C770.248 297.735 770.221 295.215 770.248 292.695C770.274 290.575 771.168 288.828 773.208 288.095C777.421 286.588 781.821 285.868 786.288 285.588C786.941 285.548 787.634 285.748 788.288 285.922C789.714 286.308 791.301 286.721 791.021 288.668C790.781 290.361 789.314 290.642 787.901 290.628C784.794 290.588 781.728 290.895 778.648 291.442C775.914 291.922 774.714 293.215 775.128 295.988C775.594 299.161 775.701 302.361 775.194 305.548C774.914 307.375 775.901 307.948 777.528 308.028C780.421 308.175 783.354 307.748 786.221 308.428C787.781 308.801 789.541 309.188 789.261 311.215C788.968 313.388 787.114 313.468 785.394 313.135C783.568 312.775 781.741 312.788 779.888 312.828C774.461 312.961 775.274 312.121 774.501 317.935C773.581 324.828 773.808 324.975 780.674 325.588C782.794 325.775 784.928 325.895 787.048 326.095C788.648 326.241 789.968 326.908 789.941 328.721C789.901 330.681 788.368 330.881 786.821 330.935C782.341 331.108 777.914 330.481 773.488 330.068C770.381 329.775 769.154 328.335 769.181 324.935C769.221 320.095 769.394 315.241 769.821 310.428C770.114 307.041 770.208 303.655 770.208 300.268L770.248 300.255Z" fill="black"/>
<path d="M261.836 314.401C261.409 306.628 263.089 298.961 263.022 291.202C262.996 287.348 262.889 287.162 258.956 287.108C256.156 287.068 253.329 287.095 250.542 286.882C248.942 286.762 247.289 286.068 247.489 284.082C247.689 282.068 249.303 281.575 251.143 281.602C260.516 281.708 269.902 281.802 279.276 281.895C280.049 281.895 280.836 281.868 281.596 281.975C283.062 282.188 284.262 282.882 284.276 284.522C284.302 286.188 283.076 286.988 281.622 287.042C278.529 287.175 275.422 287.228 272.329 287.108C269.929 287.015 268.916 287.708 268.809 290.348C268.476 298.561 267.796 306.762 267.369 314.975C267.249 317.375 267.582 319.801 267.649 322.215C267.702 324.281 267.342 326.455 264.822 326.468C262.316 326.468 261.929 324.255 261.862 322.241C261.782 319.628 261.836 317.015 261.836 314.401Z" fill="black"/>
<path d="M340.143 326.015C337.049 326.161 333.956 326.335 330.863 326.468C326.423 326.655 325.249 325.281 325.156 320.948C324.943 309.815 326.169 298.708 325.716 287.575C325.663 286.415 325.729 285.242 325.903 284.108C326.103 282.762 326.809 281.668 328.316 281.642C329.836 281.615 330.449 282.775 330.823 284.041C330.929 284.415 331.009 284.801 331.009 285.188C331.023 292.641 331.489 300.095 330.703 307.535C330.276 311.521 330.703 315.468 330.916 319.428C331.009 321.281 332.409 320.988 333.476 320.895C338.703 320.468 343.929 320.855 349.143 320.948C349.916 320.948 350.703 320.948 351.463 321.041C352.943 321.228 354.143 321.908 354.143 323.561C354.143 325.201 352.956 326.028 351.476 326.095C348.769 326.228 346.063 326.148 343.343 326.161C342.276 326.161 341.209 326.161 340.143 326.161C340.143 326.121 340.143 326.081 340.143 326.041V326.015Z" fill="black"/>
<path d="M305.716 282.548C309.889 282.548 314.049 282.548 318.223 282.548C318.996 282.548 319.783 282.548 320.543 282.695C321.889 282.948 322.956 283.615 322.903 285.161C322.849 286.588 321.769 287.002 320.556 287.308C317.743 288.015 314.956 287.255 312.169 287.188C309.463 287.135 308.449 287.882 308.436 290.762C308.409 300.828 306.636 310.828 307.263 320.935C307.369 322.588 306.916 324.201 304.903 324.308C302.663 324.441 302.236 322.628 302.103 320.961C301.583 314.268 302.103 307.601 302.676 300.935C302.996 297.268 303.209 293.602 303.489 289.935C303.623 288.122 302.809 287.215 300.956 287.228C298.049 287.241 295.143 287.241 292.236 287.188C290.516 287.161 288.649 286.895 288.676 284.695C288.703 282.401 290.689 282.455 292.356 282.442C296.809 282.415 301.276 282.442 305.729 282.442V282.548H305.716Z" fill="black"/>
<path d="M698.501 285.415C702.968 285.162 708.661 285.775 714.381 285.828C715.808 285.842 717.275 286.055 717.475 287.775C717.701 289.708 716.155 290.135 714.675 290.428C711.768 291.002 708.888 290.122 705.981 290.162C703.781 290.202 702.928 290.802 702.901 293.148C702.781 303.508 701.061 313.815 701.701 324.202C701.808 325.842 701.515 327.535 699.488 327.682C697.488 327.828 696.995 326.228 696.755 324.588C695.808 318.095 696.821 311.628 697.168 305.162C697.381 301.108 697.728 297.055 698.048 293.002C698.195 291.082 697.515 290.108 695.435 290.162C692.435 290.242 689.421 290.202 686.421 290.135C684.795 290.095 683.075 289.762 683.088 287.722C683.101 285.655 684.848 285.428 686.475 285.415C690.061 285.388 693.648 285.415 698.501 285.415Z" fill="black"/>
<path d="M635.142 284.695C641.528 284.695 647.915 284.695 654.302 284.695C655.835 284.695 657.448 284.895 657.608 286.748C657.795 288.842 656.008 289.321 654.462 289.361C651.568 289.428 648.662 289.255 645.768 289.082C643.822 288.962 643.022 289.641 642.995 291.721C642.902 302.175 641.128 312.561 641.782 323.041C641.888 324.668 641.622 326.401 639.622 326.561C637.448 326.735 637.048 324.975 636.808 323.241C635.915 316.841 636.942 310.481 637.235 304.121C637.422 300.068 637.795 296.015 638.128 291.975C638.302 289.868 637.502 288.961 635.315 289.041C632.315 289.148 629.315 289.095 626.315 289.015C624.662 288.975 623.022 288.508 623.155 286.455C623.275 284.615 624.875 284.322 626.408 284.308C629.315 284.282 632.222 284.308 635.128 284.308C635.128 284.442 635.128 284.588 635.128 284.721L635.142 284.695Z" fill="black"/>
<path d="M538.382 328.455C536.929 328.455 535.475 328.508 534.022 328.442C532.635 328.375 531.569 327.735 531.315 326.268C531.049 324.775 531.875 323.722 533.222 323.428C535.382 322.962 535.835 321.668 535.929 319.668C536.369 310.095 536.715 300.522 537.769 290.988C537.942 289.348 537.702 288.415 535.902 288.135C534.569 287.922 533.502 287.148 533.595 285.602C533.689 283.868 535.075 283.282 536.462 283.295C540.622 283.348 544.769 283.522 548.915 283.788C550.275 283.882 551.342 284.735 551.275 286.255C551.209 287.802 550.022 288.268 548.662 288.442C543.235 289.135 543.529 289.188 542.769 294.468C541.609 302.455 541.675 310.468 541.235 318.482C541.115 320.735 541.035 322.735 543.969 323.308C545.169 323.548 545.835 324.695 545.675 326.015C545.529 327.375 544.555 328.068 543.315 328.202C541.689 328.388 540.035 328.388 538.382 328.455C538.382 328.442 538.382 328.428 538.382 328.415V328.455Z" fill="black"/>
<path d="M728.768 285.868C730.888 286.028 733.008 286.135 735.128 286.375C736.568 286.535 737.808 287.162 737.754 288.895C737.701 290.642 736.434 291.068 734.968 291.228C730.554 291.722 730.741 291.762 730.021 296.428C728.834 304.202 728.781 312.028 728.474 319.842C728.394 321.762 728.608 323.255 730.861 323.775C732.088 324.055 732.874 325.028 732.701 326.375C732.514 327.882 731.421 328.442 730.021 328.522C727.608 328.668 725.194 328.842 722.781 328.922C721.154 328.975 719.568 328.668 719.114 326.802C718.688 325.002 719.834 324.095 721.408 323.708C723.008 323.308 723.154 322.108 723.221 320.802C723.541 315.015 723.834 309.215 724.194 303.428C724.408 300.055 724.674 296.682 725.048 293.308C725.208 291.788 724.901 290.908 723.261 290.655C721.888 290.442 720.848 289.642 721.034 288.108C721.221 286.588 722.501 286.122 723.808 286.028C725.448 285.922 727.101 286.002 728.741 286.002C728.741 285.948 728.741 285.895 728.741 285.855L728.768 285.868Z" fill="black"/>
</svg>
