<svg width="989" height="734" viewBox="0 0 989 734" fill="none" xmlns="http://www.w3.org/2000/svg">
<path d="M2.39903 278.865C3.55902 240.612 6.27901 202.506 15.959 166.479C29.7456 115.213 52.8122 73.7591 86.1321 44.5725C105.025 28.0258 126.025 20.6258 148.119 16.8391C180.945 11.2125 213.878 10.4125 246.838 9.89255C279.505 9.37255 312.145 9.78586 344.798 12.5325C358.451 13.6792 372.185 14.7727 385.905 15.1061C419.305 15.9327 452.691 17.7327 486.091 18.026C524.224 18.3593 562.357 18.2392 600.477 16.8792C628.491 15.8792 656.411 11.6125 684.21 6.53253C695.89 4.39921 707.61 2.81254 719.357 2.53254C737.29 2.09255 755.25 2.0795 773.184 2.49283C799.237 3.10616 825.157 5.91929 850.97 11.6259C871.837 16.2393 891.237 25.2927 908.477 42.426C927.023 60.8526 943.743 81.5591 953.476 111.666C962.783 140.452 970.023 170.026 974.343 201.066C976.636 217.585 980.73 233.905 981.37 250.505C981.983 266.318 984.396 281.892 984.05 297.772C983.663 315.679 986.743 333.452 985.476 351.372C984.183 369.612 984.596 387.892 981.396 406.158C977.143 430.372 968.943 449.518 955.783 466.211C935.317 492.171 911.103 501.665 884.583 502.611C867.223 503.225 849.85 502.838 832.477 502.718L944.93 693.917L987.01 731.877C975.89 725.997 965.383 716.704 952.596 720.211C950.97 720.664 949.01 720.051 947.396 719.197C936.396 713.371 924.943 708.718 914.57 701.144C882.383 677.664 850.863 652.451 819.437 626.971C788.424 601.811 759.904 571.304 729.13 545.651C715.744 534.491 706.37 516.451 696.57 500.145C696.464 499.971 696.37 499.798 696.264 499.625L695.397 499.585C686.997 505.905 677.917 502.598 669.237 502.398C660.784 502.211 652.317 500.905 643.811 500.571C603.944 499.025 564.051 499.225 524.198 498.145C491.278 497.251 458.398 492.838 425.505 490.171C409.811 488.891 394.118 487.518 378.398 487.091C350.491 486.345 322.545 484.985 294.665 486.238C255.278 487.998 215.918 487.865 176.532 488.038C145.612 488.171 115.665 481.292 85.9721 468.492C52.3589 453.998 28.6123 425.038 12.8123 381.852C7.51901 367.372 6.29234 351.305 4.71901 335.585C2.83901 316.825 1.78569 297.852 2.37235 278.852L2.39903 278.865Z" fill="white" stroke="black" stroke-width="3.99999" stroke-linecap="round" stroke-linejoin="round"/>
<path d="M727.757 271.079C729.29 268.039 730.117 265.106 730.61 262.079C731.543 256.399 733.543 251.039 735.623 245.719C736.343 243.879 737.41 242.013 739.81 242.413C742.45 242.866 742.57 245.146 742.517 247.213C742.29 255.106 743.45 262.853 744.903 270.573C745.077 271.479 744.997 272.506 746.237 273.479C747.41 270.173 748.53 267.039 749.637 263.906C751.863 257.613 754.09 251.306 756.33 245.013C756.583 244.293 756.97 243.586 757.397 242.959C758.277 241.653 759.477 240.759 761.077 241.533C762.81 242.373 762.89 243.893 762.25 245.519C758.383 255.346 755.01 265.346 751.543 275.319C751.076 276.679 750.476 278.066 749.623 279.199C747.157 282.506 743.357 282.133 741.437 278.479C739.73 275.239 739.303 271.666 738.73 268.133C738.29 265.506 737.81 262.893 737.05 260.253C735.73 265.239 734.397 270.146 732.557 274.893C732.037 276.239 731.583 277.653 730.863 278.906C729.277 281.666 726.597 281.786 724.877 279.133C723.943 277.693 723.143 276.066 722.69 274.413C719.89 264.319 715.89 254.639 712.943 244.613C712.343 242.586 710.93 239.839 713.957 238.866C717.183 237.826 717.65 240.959 718.263 243.079C720.89 252.106 724.797 260.706 727.05 269.839C727.13 270.186 727.397 270.479 727.743 271.106L727.757 271.079Z" fill="black"/>
<path d="M594.425 276.333C595.758 266.039 594.811 255.213 594.518 244.399C594.385 239.533 595.705 237.839 600.518 237.253C605.665 236.626 610.625 237.653 615.051 240.293C620.998 243.826 620.985 252.906 615.225 257.759C612.678 259.906 612.678 259.919 615.665 261.373C619.065 263.026 621.211 265.893 622.745 269.159C624.105 272.053 622.985 274.679 620.945 276.866C617.611 280.466 613.345 282.519 608.611 283.506C605.971 284.052 603.251 284.319 600.558 284.493C596.038 284.786 594.611 283.426 594.411 278.906C594.385 278.226 594.411 277.546 594.411 276.346L594.425 276.333ZM604.718 264.693C603.598 265.426 600.958 263.426 600.625 266.493C600.265 269.759 600.198 273.053 600.025 276.346C599.958 277.559 600.291 278.493 601.731 278.493C607.105 278.493 612.091 277.346 616.211 273.573C617.758 272.159 617.611 270.973 616.438 269.333C613.571 265.333 609.345 265.039 604.718 264.706V264.693ZM603.518 242.506C602.051 242.666 599.985 242.106 600.038 244.706C600.145 248.759 600.385 252.813 600.558 256.866C600.625 258.279 601.291 258.813 602.638 258.346C606.131 257.119 609.505 255.559 612.171 252.986C615.145 250.119 614.131 245.599 610.345 244.066C608.185 243.186 605.905 242.719 603.491 242.506H603.518Z" fill="black"/>
<path d="M434.344 338.065C432.811 339.252 432.438 340.772 431.918 342.185C430.798 345.279 429.758 348.412 428.624 351.505C427.958 353.332 426.904 354.932 424.691 354.759C422.278 354.559 421.651 352.599 421.344 350.612C420.851 347.452 420.478 344.279 420.038 341.119C419.904 340.185 419.984 339.185 419.158 338.212C418.144 339.532 417.824 341.026 417.398 342.479C415.904 347.599 414.304 352.679 412.144 357.559C411.518 358.959 410.718 360.319 409.811 361.559C408.904 362.812 407.598 363.639 406.051 362.679C404.504 361.719 404.664 360.199 405.371 358.812C407.051 355.532 408.438 352.132 409.704 348.665C411.424 343.932 412.211 338.879 414.664 334.412C415.504 332.892 416.358 331.319 417.478 330.025C419.758 327.425 422.891 328.119 423.971 331.412C424.451 332.879 424.691 334.425 425.011 335.945C425.304 337.345 425.544 338.745 425.931 340.852C427.331 338.319 428.411 336.345 429.491 334.385C429.958 333.532 430.358 332.652 430.864 331.826C432.064 329.879 433.438 327.945 436.078 328.385C438.558 328.799 438.958 331.052 439.398 333.025C440.638 338.705 441.864 344.385 442.944 350.092C443.531 353.159 444.571 356.065 445.584 358.985C446.224 360.825 446.398 362.812 444.198 363.705C441.904 364.639 440.931 362.998 440.104 361.172C437.064 354.465 436.438 347.145 434.798 340.092C434.651 339.465 434.531 338.852 434.358 338.052L434.344 338.065Z" fill="black"/>
<path d="M506.491 335.826C506.118 340.359 505.185 344.786 501.478 348.026C500.091 349.239 500.678 349.786 501.758 350.666C504.545 352.932 506.985 355.559 509.238 358.359C510.398 359.786 510.985 361.306 509.438 362.732C507.891 364.159 506.265 363.559 505.091 362.199C501.518 358.066 497.305 354.666 493.078 351.266C492.411 350.732 491.851 349.759 490.905 350.052C489.891 350.372 490.145 351.506 490.038 352.332C489.705 355.026 489.491 357.732 489.078 360.399C488.825 362.026 488.038 363.492 486.078 363.279C484.198 363.079 483.505 361.572 483.598 359.892C483.758 356.906 484.051 353.906 484.451 350.932C485.371 343.892 485.531 336.839 484.931 329.773C484.398 323.533 485.491 320.826 489.451 319.386C493.878 317.772 499.878 319.639 502.625 323.692C505.065 327.292 506.331 331.333 506.491 335.813V335.826ZM490.625 333.906H490.718C490.718 335.839 490.931 337.812 490.665 339.706C490.238 342.812 492.118 343.799 494.518 344.479C496.918 345.159 498.118 343.586 499.158 341.879C501.625 337.826 501.011 330.386 497.971 326.746C496.945 325.519 495.611 324.706 494.065 324.359C491.998 323.879 490.611 324.492 490.625 326.919C490.638 329.239 490.625 331.572 490.625 333.892V333.906Z" fill="black"/>
<path d="M264.505 342.545C271.158 342.451 271.118 342.438 272.318 336.438C273.158 332.158 274.118 327.905 275.038 323.652C275.411 321.892 275.931 319.865 278.185 320.265C280.705 320.705 280.691 322.865 280.291 324.905C279.398 329.372 278.531 333.838 277.531 338.278C275.678 346.585 273.745 354.891 271.838 363.185C271.505 364.625 270.758 365.798 269.118 365.692C267.358 365.572 266.651 364.238 266.571 362.665C266.438 359.905 267.491 357.358 268.211 354.745C270.118 347.878 269.745 347.772 262.598 348.158C259.171 348.345 258.278 349.612 257.785 352.598C257.225 355.945 256.678 359.278 256.291 362.652C256.091 364.438 255.451 366.038 253.291 365.772C251.225 365.518 250.798 363.812 250.878 362.052C251.131 356.798 252.571 351.745 253.505 346.598C254.611 340.412 255.398 334.158 257.051 328.065C257.611 325.998 258.238 323.972 259.278 322.092C260.131 320.558 261.251 319.212 263.211 320.198C265.011 321.105 264.651 322.732 264.078 324.265C262.185 329.265 261.065 334.452 260.118 339.692C259.651 342.265 260.105 343.425 262.931 342.638C263.571 342.465 264.278 342.545 264.505 342.545Z" fill="black"/>
<path d="M829.877 274.293C829.877 275.946 829.944 277.586 829.85 279.226C829.77 280.599 829.064 281.692 827.624 281.892C826.037 282.119 825.01 281.199 824.61 279.746C824.304 278.639 824.077 277.453 824.104 276.306C824.344 265.853 824.25 255.386 825.61 244.973C825.704 244.306 825.797 243.626 825.957 242.973C826.317 241.493 827.184 240.493 828.81 240.666C830.477 240.839 831.024 242.079 831.05 243.573C831.13 248.133 830.477 252.652 830.117 257.199C830.05 257.972 829.957 258.746 829.917 259.519C829.837 260.772 830.304 261.586 831.677 261.653C834.29 261.786 836.904 261.959 839.517 262.039C841.877 262.106 842.984 261.052 843.024 258.532C843.09 254.466 843.424 250.413 843.73 246.359C843.824 245.119 844.144 243.879 844.517 242.679C844.89 241.479 845.77 240.679 847.117 240.786C848.597 240.906 849.45 241.893 849.53 243.266C849.637 245.186 849.557 247.146 849.397 249.066C848.597 258.239 848.33 267.426 849.157 276.612C849.21 277.186 849.344 277.773 849.33 278.346C849.304 280.186 848.97 282.039 846.784 282.333C844.544 282.639 843.717 280.959 843.49 279.093C843.21 276.786 843.024 274.466 842.957 272.146C842.85 267.613 842.81 267.532 838.424 267.546C836.584 267.546 834.73 267.613 832.904 267.479C830.61 267.319 829.69 268.252 829.904 270.519C830.024 271.772 829.93 273.039 829.93 274.293C829.93 274.293 829.917 274.293 829.904 274.293H829.877Z" fill="black"/>
<path d="M426.664 277.839C432.078 277.546 436.851 278.106 441.651 278.412C442.611 278.479 443.598 278.492 444.531 278.706C445.651 278.959 446.424 279.719 446.478 280.946C446.531 282.199 445.744 282.906 444.678 283.292C443.384 283.759 442.011 283.906 440.664 283.746C435.358 283.106 430.024 283.199 424.691 283.159C424.211 283.159 423.718 283.132 423.238 283.079C421.304 282.839 419.184 282.759 418.478 280.479C417.824 278.373 419.305 277.013 420.638 275.746C428.918 267.866 436.824 259.626 444.251 250.946C444.571 250.572 444.931 250.239 445.184 249.839C445.584 249.226 446.491 248.706 445.971 247.852C445.571 247.199 444.744 247.466 444.078 247.479C437.598 247.653 431.118 247.826 424.624 248.013C422.958 248.053 420.971 248.253 420.771 246.013C420.558 243.653 422.598 243.226 424.358 243.159C432.571 242.826 440.798 242.026 449.024 242.866C450.718 243.039 452.384 243.252 453.211 244.972C454.064 246.772 453.024 248.159 451.931 249.426C446.904 255.319 442.224 261.506 436.584 266.866C433.158 270.106 430.064 273.652 426.664 277.866V277.839Z" fill="black"/>
<path d="M536.305 274.506C539.731 267.706 543.091 261.172 546.318 254.586C548.398 250.332 550.278 245.973 552.238 241.653C553.025 239.919 554.291 238.933 556.158 239.799C557.985 240.653 558.211 242.359 557.411 244.026C555.318 248.399 553.398 252.839 551.358 257.226C547.811 264.852 543.891 272.319 540.118 279.839C539.865 280.359 539.531 280.839 539.171 281.292C536.465 284.652 533.331 284.159 531.678 280.186C529.638 275.239 528.745 269.959 527.091 264.892C525.105 258.826 523.731 252.559 520.838 246.799C520.545 246.199 520.345 245.519 520.278 244.852C520.078 242.932 520.638 241.239 522.705 240.826C524.811 240.413 525.345 241.999 525.971 243.693C529.678 253.573 532.691 263.679 535.558 273.813C535.598 273.973 535.825 274.066 536.291 274.506H536.305Z" fill="black"/>
<path d="M626.997 262.865C626.997 258.799 626.877 254.719 627.024 250.652C627.477 238.172 630.517 238.306 641.731 239.079C642.957 239.159 644.171 239.692 645.371 240.052C646.357 240.346 647.224 240.826 647.131 242.025C647.037 243.199 646.144 243.679 645.117 243.746C642.317 243.932 639.504 244.226 636.704 244.132C633.797 244.026 632.704 245.359 632.531 248.052C632.317 251.266 632.771 254.439 633.011 257.625C633.131 259.265 634.251 259.639 635.637 259.732C638.731 259.932 641.824 260.145 644.917 260.345C645.691 260.399 646.477 260.372 647.224 260.532C648.797 260.879 649.957 261.772 649.771 263.519C649.597 265.159 648.317 265.665 646.837 265.759C643.144 265.985 639.464 265.599 635.824 265.172C633.571 264.905 632.917 265.666 632.957 267.826C633.011 270.239 632.784 272.665 632.557 275.079C632.357 277.279 633.331 278.039 635.424 277.945C638.624 277.812 641.824 277.785 645.024 277.759C645.984 277.759 646.971 277.785 647.904 277.985C648.904 278.212 649.624 278.932 649.771 279.999C649.931 281.199 649.331 282.145 648.251 282.545C647.184 282.945 645.997 283.159 644.864 283.225C641.291 283.439 637.704 283.572 634.117 283.665C628.971 283.799 626.944 281.705 626.984 276.505C627.024 271.945 626.984 267.399 626.984 262.839C626.984 262.839 626.997 262.839 627.011 262.839L626.997 262.865Z" fill="black"/>
<path d="M539.637 357.999C539.637 358.866 539.677 359.746 539.637 360.612C539.544 362.226 538.851 363.492 537.104 363.626C535.371 363.772 534.317 362.652 534.037 361.106C533.717 359.306 533.651 357.452 533.664 355.626C533.664 352.959 532.331 352.079 529.824 352.172C525.051 352.346 524.451 352.719 523.051 357.239C522.504 358.999 522.051 360.799 520.851 362.266C520.064 363.239 519.064 363.839 517.797 363.292C516.437 362.706 515.864 361.466 516.371 360.172C519.904 351.279 520.771 341.719 523.304 332.586C523.771 330.919 524.517 329.306 525.371 327.799C526.611 325.599 527.917 323.146 530.957 323.413C533.864 323.666 534.677 326.252 535.544 328.506C536.904 332.039 537.917 335.679 538.091 339.506C538.357 345.692 539.024 351.852 539.664 358.012L539.637 357.999ZM530.171 330.986C527.437 335.479 527.411 339.919 526.437 344.093C526.157 345.293 526.171 346.679 527.891 346.506C529.464 346.346 532.064 347.746 532.317 344.839C532.731 340.332 532.117 335.892 530.171 330.986Z" fill="black"/>
<path d="M335.024 341.332C333.851 329.425 346.731 316.172 362.558 320.732C364.584 321.319 366.251 322.452 367.758 323.825C368.918 324.892 369.518 326.252 368.371 327.679C367.318 328.972 365.958 328.732 364.704 327.959C363.051 326.945 361.411 326.025 359.438 325.652C352.651 324.372 347.331 326.759 343.518 332.238C339.678 337.732 339.744 343.772 342.664 349.612C345.278 354.825 353.784 357.865 359.411 355.918C361.518 355.185 363.531 354.225 365.611 353.412C367.424 352.705 369.198 352.665 370.038 354.732C370.824 356.679 369.478 357.798 367.918 358.612C360.171 362.665 352.491 363.852 344.438 359.039C338.158 355.292 334.984 349.839 335.064 341.305L335.024 341.332Z" fill="black"/>
<path d="M347.318 278.652C347.292 280.238 346.865 281.518 345.252 281.838C343.652 282.158 342.692 281.159 342.145 279.812C341.132 277.345 341.252 274.679 340.958 272.092C340.732 270.132 339.972 269.172 337.838 269.225C335.625 269.278 333.398 269.052 331.185 268.799C328.878 268.545 327.598 269.332 327.038 271.705C326.612 273.572 325.772 275.359 324.972 277.119C324.318 278.559 323.172 279.572 321.492 278.905C319.678 278.185 319.678 276.652 320.158 274.999C323.238 264.465 328.318 254.745 332.292 244.572C332.998 242.772 334.385 241.452 336.438 241.412C338.505 241.372 339.785 242.719 340.758 244.385C341.758 246.092 342.185 247.998 342.465 249.905C343.812 258.985 346.572 267.825 347.105 277.039C347.145 277.612 347.252 278.185 347.305 278.652H347.318ZM336.412 248.719C335.025 252.172 333.958 255.052 332.718 257.865C330.198 263.612 330.412 263.932 336.892 263.825C337.278 263.825 337.665 263.825 338.052 263.785C339.052 263.705 339.505 263.092 339.185 262.198C337.692 258.065 337.852 253.612 336.412 248.719Z" fill="black"/>
<path d="M399.625 358.172C399.545 358.812 399.532 359.799 399.278 360.719C398.892 362.172 397.918 363.106 396.318 362.959C394.865 362.826 394.078 361.852 393.878 360.479C393.558 358.372 393.332 356.252 393.038 354.146C392.838 352.679 392.038 351.866 390.465 352.052C390.372 352.052 390.265 352.079 390.172 352.052C385.292 351.292 381.718 352.532 380.478 357.932C380.145 359.386 379.145 360.719 378.305 362.012C377.572 363.132 376.465 363.852 375.065 363.226C373.585 362.559 373.318 361.266 373.665 359.799C373.758 359.426 373.878 359.039 374.065 358.706C378.425 350.719 380.225 341.799 383.292 333.346C384.118 331.066 384.985 328.799 386.225 326.706C388.332 323.146 391.998 323.173 393.972 326.786C394.558 327.866 395.052 329.146 395.092 330.359C395.345 338.466 397.932 346.159 399.118 354.106C399.305 355.346 399.438 356.599 399.652 358.172H399.625ZM389.478 333.786C389.318 333.759 389.158 333.719 388.998 333.692C387.825 337.172 386.652 340.639 385.518 344.132C385.292 344.812 384.692 345.826 385.572 346.239C387.092 346.946 388.812 346.746 390.412 346.346C391.425 346.092 391.145 345.132 391.025 344.372C390.518 340.852 389.998 337.319 389.478 333.799V333.786Z" fill="black"/>
<path d="M669.557 283.372C666.104 283.639 663.024 282.745 660.704 280.025C659.357 278.452 658.491 276.572 660.384 274.892C662.117 273.345 663.491 274.545 664.851 275.879C668.437 279.399 677.811 277.412 679.717 272.705C680.637 270.452 680.304 268.425 678.237 266.732C675.344 264.372 672.104 262.705 668.664 261.332C667.224 260.759 665.744 260.199 664.464 259.372C661.011 257.132 658.677 254.079 659.211 249.732C659.771 245.132 661.917 241.399 666.504 239.719C671.011 238.065 675.611 238.039 680.171 239.599C681.677 240.119 683.237 240.852 682.744 242.852C682.237 244.852 680.571 244.812 678.971 244.426C675.904 243.692 672.877 243.492 669.784 244.279C666.771 245.052 665.051 246.972 664.691 249.919C664.317 252.905 666.344 254.599 668.811 255.559C673.437 257.372 677.851 259.465 681.744 262.639C686.984 266.919 687.424 273.679 682.491 278.319C678.904 281.692 674.651 283.625 669.571 283.372H669.557Z" fill="black"/>
<path d="M191.212 242.866C197.652 230.386 203.105 219.946 208.425 209.426C218.799 188.933 229.078 168.399 239.452 147.893C240.798 145.226 242.172 142.506 243.998 140.186C246.918 136.493 250.825 134.493 255.385 137.079C259.745 139.546 260.985 143.719 259.145 148.279C257.038 153.519 254.465 158.573 251.945 163.639C238.705 190.132 225.372 216.586 212.172 243.106C207.559 252.359 204.172 262.106 201.159 271.999C199.052 278.946 195.732 285.759 187.252 285.479C178.025 285.172 176.905 277.172 175.905 270.266C171.705 240.959 167.879 211.612 163.719 182.292C161.945 169.759 159.225 157.413 154.985 145.439C152.945 139.693 151.932 133.693 158.585 130.773C166.132 127.466 169.852 133.479 172.012 139.066C178.772 156.559 181.572 175.013 184.159 193.479C186.359 209.173 188.612 224.852 191.172 242.866H191.212Z" fill="#55ADE1"/>
<path d="M272.185 236.025C274.465 236.145 277.012 236.692 279.332 237.999C280.719 238.785 282.079 239.852 281.172 241.705C280.332 243.425 278.785 243.012 277.372 242.452C275.545 241.745 273.705 241.225 271.719 241.372C268.385 241.612 266.145 243.452 265.759 246.279C265.252 249.959 266.959 253.279 270.119 254.225C273.012 255.092 275.799 256.119 278.385 257.705C284.652 261.559 287.079 267.572 284.905 274.052C283.092 279.479 276.812 283.052 270.119 282.492C265.145 282.065 262.279 280.159 261.372 276.652C260.959 275.079 261.225 273.679 262.785 272.959C264.292 272.252 265.345 273.105 266.225 274.305C268.439 277.305 274.025 277.759 277.585 275.252C280.639 273.092 281.265 268.385 278.812 265.132C276.412 261.945 272.799 260.692 269.185 259.532C263.812 257.812 260.465 253.465 260.319 247.932C260.132 241.105 264.999 236.079 272.212 236.039L272.185 236.025Z" fill="black"/>
<path d="M459.345 272.492C459.745 264.279 460.131 256.065 460.518 247.852C460.651 245.078 462.131 243.185 464.731 242.585C468.785 241.652 472.945 241.172 477.118 241.372C478.651 241.452 480.158 241.905 480.251 243.732C480.345 245.692 478.825 246.359 477.185 246.545C474.398 246.865 471.598 247.132 468.798 247.279C466.745 247.385 465.865 248.265 465.878 250.345C465.878 252.665 465.745 254.985 465.505 257.292C465.238 259.812 465.945 261.065 468.785 261.012C471.385 260.972 473.985 261.425 476.585 261.732C478.198 261.919 479.838 262.439 479.758 264.425C479.665 266.625 477.851 266.932 476.145 266.852C473.238 266.732 470.345 266.532 467.465 266.172C465.491 265.932 464.838 266.705 464.878 268.572C464.918 270.985 464.878 273.412 464.785 275.838C464.718 277.612 465.345 278.545 467.238 278.639C468.878 278.719 470.491 278.919 472.158 278.625C474.678 278.172 477.185 278.319 479.585 279.305C480.865 279.825 481.758 280.705 481.478 282.185C481.198 283.638 480.038 284.452 478.705 284.212C474.145 283.372 469.625 284.639 465.078 284.332C461.038 284.065 459.518 282.638 459.358 278.585C459.278 276.558 459.345 274.519 459.358 272.479L459.345 272.492Z" fill="black"/>
<path d="M291.558 332.279C291.558 334.412 291.612 336.546 291.545 338.679C291.478 340.639 292.305 341.559 294.292 341.493C296.718 341.399 299.132 341.292 301.558 341.292C303.425 341.292 305.278 341.772 305.278 344.039C305.278 346.186 303.411 346.519 301.691 346.612C298.985 346.759 296.265 346.932 293.558 346.866C291.692 346.826 290.905 347.612 290.692 349.332C290.478 351.066 290.225 352.786 289.972 354.519C289.438 358.265 289.438 358.359 293.318 358.599C295.331 358.719 297.371 358.372 299.411 358.359C301.118 358.359 302.971 358.586 303.078 360.759C303.185 362.839 301.491 363.386 299.771 363.719C295.705 364.519 291.638 364.039 287.625 363.466C284.292 362.999 283.158 361.292 283.878 357.892C286.225 346.812 286.438 335.586 286.252 324.332C286.225 322.466 286.492 320.626 288.265 319.826C292.572 317.906 297.025 316.572 301.718 318.599C303.171 319.226 304.678 320.146 304.011 322.066C303.358 323.959 301.718 323.812 300.092 323.386C299.158 323.146 298.198 322.919 297.238 322.892C292.425 322.746 291.772 323.412 291.758 328.186C291.758 329.546 291.758 330.892 291.758 332.252H291.585L291.558 332.279Z" fill="black"/>
<path d="M310.558 254.839C310.558 251.639 310.545 248.439 310.558 245.252C310.572 243.346 311.091 241.586 313.358 241.599C315.558 241.599 316.345 243.332 316.305 245.212C316.158 252.186 315.998 259.146 315.585 266.106C315.398 269.226 313.985 272.106 312.398 274.773C310.318 278.292 306.852 279.666 302.998 279.479C299.065 279.293 297.092 276.199 295.972 272.946C294.038 267.332 293.492 261.399 293.132 255.519C292.932 252.159 292.825 248.733 293.398 245.373C293.532 244.613 293.638 243.839 293.892 243.106C294.358 241.719 295.212 240.586 296.838 240.919C298.478 241.239 298.905 242.613 298.718 244.066C297.678 252.053 298.798 259.919 300.132 267.759C300.305 268.799 300.532 269.866 300.945 270.839C301.532 272.239 302.052 273.986 303.958 273.972C305.918 273.972 307.465 272.932 308.305 271.066C309.558 268.306 310.518 265.506 310.371 262.399C310.251 259.879 310.345 257.359 310.345 254.839C310.412 254.839 310.478 254.839 310.545 254.839H310.558Z" fill="black"/>
<path d="M461.998 363.132C453.998 363.092 452.265 361.092 453.105 353.159C453.878 345.839 454.505 338.519 455.132 331.186C455.492 326.959 456.772 325.559 460.972 325.026C464.625 324.572 468.278 324.079 471.932 323.626C473.705 323.399 475.438 323.612 475.838 325.666C476.252 327.799 474.612 328.559 472.865 328.826C469.905 329.293 466.918 329.732 463.932 329.986C461.638 330.186 460.372 330.932 460.492 333.532C460.585 335.546 460.318 337.599 460.025 339.599C459.638 342.172 460.372 343.466 463.225 343.226C465.145 343.066 467.105 343.119 469.025 343.292C470.772 343.452 472.385 344.172 472.212 346.306C472.052 348.306 470.412 348.599 468.772 348.612C466.545 348.639 464.305 348.732 462.092 348.639C460.145 348.559 459.398 349.372 459.145 351.306C458.385 357.092 458.305 357.092 464.172 357.066C465.332 357.066 466.505 357.026 467.665 357.092C469.385 357.186 470.772 357.892 470.838 359.799C470.892 361.546 469.665 362.399 468.065 362.612C466.052 362.866 464.025 362.972 461.998 363.132Z" fill="black"/>
<path d="M233.812 362.426C235.079 353.386 236.345 344.465 237.599 335.545C237.879 333.532 238.225 331.519 238.452 329.505C238.812 326.105 238.265 325.572 234.785 325.945C233.252 326.105 231.732 326.532 230.199 326.666C228.479 326.826 226.692 326.612 226.332 324.519C225.959 322.359 227.599 321.759 229.319 321.359C235.879 319.812 242.625 320.159 249.252 319.265C250.692 319.065 252.145 318.839 253.585 318.865C255.145 318.892 256.532 319.559 256.638 321.346C256.745 323.132 255.518 323.919 253.918 324.146C251.518 324.479 249.118 324.799 246.705 325.039C244.972 325.212 244.172 326.039 244.025 327.812C243.039 339.986 240.519 351.959 239.305 364.106C239.145 365.706 238.545 367.012 236.759 367.092C234.959 367.172 234.252 365.865 233.959 364.319C233.825 363.665 233.852 362.972 233.812 362.412V362.426Z" fill="black"/>
<path d="M774.997 252.559C774.997 252.079 775.037 251.585 774.997 251.105C774.85 249.479 775.997 247.692 774.944 246.292C773.917 244.932 772.011 245.825 770.531 245.465C769.184 245.145 768.131 244.492 768.104 242.999C768.077 241.385 769.131 240.439 770.597 240.279C772.317 240.092 774.077 240.092 775.81 240.212C778.997 240.439 782.184 240.799 785.357 241.146C786.97 241.319 788.197 242.132 788.144 243.905C788.09 245.545 786.797 246.119 785.384 246.412C780.877 247.332 780.597 247.332 780.584 251.852C780.557 259.852 778.677 267.612 777.957 275.518C777.757 277.718 778.064 279.105 780.531 279.319C781.091 279.372 781.65 279.612 782.184 279.838C783.464 280.385 784.317 281.279 784.064 282.759C783.784 284.372 782.544 285.065 781.077 284.959C777.317 284.705 773.557 284.332 769.81 283.918C768.357 283.758 767.197 282.985 767.05 281.385C766.904 279.825 767.824 278.705 769.224 278.332C771.877 277.612 772.477 275.825 772.637 273.345C773.077 266.385 775.01 259.599 774.997 252.585V252.559Z" fill="black"/>
<path d="M575.397 283.186C572.61 282.693 569.504 282.8 566.411 282.813C564.531 282.813 562.744 282.453 562.557 280.213C562.384 278.026 564.077 277.066 565.89 276.906C568.264 276.693 568.877 275.346 569.224 273.333C570.637 265.239 572.077 257.146 573.704 249.093C574.184 246.693 573.557 245.906 571.21 245.933C569.877 245.946 568.504 245.666 567.21 245.306C565.904 244.946 564.957 244.066 565.171 242.546C565.371 241.093 566.45 240.266 567.797 240.279C573.117 240.346 578.437 240.493 583.744 240.72C585.317 240.786 586.597 241.64 586.504 243.453C586.424 245.106 585.117 245.973 583.717 245.853C580.157 245.559 579.344 247.679 578.864 250.533C577.531 258.453 576.13 266.346 574.637 274.239C574.264 276.253 574.557 277.346 576.81 277.626C578.704 277.866 580.264 278.946 579.877 281.093C579.477 283.359 577.49 283.253 575.41 283.173L575.397 283.186Z" fill="black"/>
<path d="M239.079 282.199C236.759 282.199 234.425 282.239 232.105 282.185C230.625 282.145 229.359 281.545 229.159 279.932C228.959 278.345 229.985 277.199 231.412 276.999C233.919 276.639 234.039 275.079 234.159 273.066C234.679 264.479 236.585 256.026 236.812 247.386C236.839 246.412 236.892 245.452 236.985 244.492C237.172 242.546 236.425 241.826 234.439 242.279C232.665 242.692 230.945 242.372 230.585 240.306C230.225 238.266 231.772 237.386 233.505 236.999C237.692 236.066 241.999 236.732 246.225 236.239C247.412 236.092 248.505 236.892 248.665 238.279C248.812 239.639 247.932 240.372 246.772 240.879C245.385 241.479 243.425 240.879 242.559 242.399C241.572 244.132 241.985 246.186 241.972 248.106C241.932 255.879 239.999 263.452 239.425 271.172C239.372 271.852 239.252 272.519 239.132 273.185C238.665 275.785 239.639 277.066 242.385 276.786C243.439 276.679 244.519 276.545 245.572 276.599C247.559 276.705 248.999 277.666 248.905 279.812C248.812 281.866 247.359 282.532 245.452 282.399C243.332 282.252 241.199 282.132 239.079 281.999C239.079 282.066 239.079 282.132 239.079 282.199Z" fill="black"/>
<path d="M396.172 241.466C400.892 242.279 405.118 240.986 409.372 241.292C411.158 241.412 413.198 241.346 413.372 243.666C413.545 246.119 411.492 246.772 409.598 246.639C406.492 246.412 405.558 247.906 405.358 250.692C404.852 257.732 403.598 264.706 403.745 271.786C403.758 272.466 403.812 273.172 403.665 273.812C402.892 276.906 402.918 279.225 407.252 278.879C408.758 278.759 410.025 279.972 409.918 281.719C409.798 283.599 408.412 284.559 406.732 284.385C403.158 284.012 399.625 283.879 396.038 284.372C394.612 284.559 393.345 283.772 392.945 282.252C392.532 280.705 393.345 279.399 394.678 278.945C397.998 277.825 398.292 275.226 398.252 272.426C398.158 265.052 399.185 257.759 399.985 250.466C400.225 248.279 399.718 247.119 397.385 247.066C396.812 247.066 396.252 246.839 395.692 246.692C394.172 246.266 392.905 245.466 393.158 243.692C393.438 241.746 394.972 241.399 396.198 241.452L396.172 241.466Z" fill="black"/>
<path d="M362.958 267.679C362.958 268.452 362.958 269.226 362.958 269.999C363.038 276.532 363.545 277.066 370.171 277.372C374.518 277.572 378.878 277.692 383.238 277.866C383.918 277.892 384.598 277.906 385.251 278.066C386.491 278.359 387.358 279.119 387.425 280.452C387.491 281.812 386.651 282.586 385.438 282.986C384.025 283.452 382.558 283.359 381.118 283.306C374.745 283.106 368.385 282.932 362.051 281.999C358.625 281.492 357.118 280.239 357.185 276.706C357.371 266.519 356.585 256.386 355.851 246.252C355.758 244.892 355.718 243.519 356.478 242.292C357.131 241.239 358.051 240.533 359.371 240.813C360.691 241.093 361.318 242.026 361.345 243.332C361.451 251.466 363.158 259.506 362.985 267.652L362.958 267.679Z" fill="black"/>
<path d="M810.05 265.052C810.584 270.612 809.144 276.038 808.89 281.558C808.824 282.945 808.21 284.078 806.744 284.278C805.144 284.505 804.21 283.492 803.744 282.079C803.504 281.359 803.33 280.519 803.464 279.799C805.157 270.985 803.957 261.985 805.237 253.159C805.45 251.719 805.464 250.252 805.77 248.838C806.397 246.092 805.104 245.345 802.664 245.572C801.117 245.719 799.571 245.852 798.037 245.932C796.144 246.025 793.997 246.092 793.784 243.599C793.597 241.319 795.557 240.772 797.371 240.679C802.677 240.439 807.997 240.305 813.304 240.159C815.624 240.092 817.944 240.025 820.264 240.092C822.037 240.145 823.69 240.718 823.677 242.852C823.65 244.852 822.037 245.292 820.384 245.372C818.45 245.479 816.49 245.652 814.57 245.505C812.41 245.332 811.517 246.319 811.37 248.265C810.957 253.865 809.61 259.385 810.05 265.052Z" fill="black"/>
</svg>
