<svg width="1068" height="793" viewBox="0 0 1068 793" fill="none" xmlns="http://www.w3.org/2000/svg">
<path d="M1065.8 301.163C1064.54 259.8 1061.6 218.596 1051.15 179.641C1036.25 124.207 1011.33 79.3842 975.329 47.8251C954.916 29.9334 932.227 21.932 908.357 17.8376C872.891 11.7535 837.309 10.8884 801.698 10.3261C766.404 9.76384 731.139 10.2109 695.86 13.1809C681.109 14.4207 666.271 15.6028 651.448 15.9633C615.362 16.8571 579.29 18.8035 543.204 19.1207C502.004 19.4811 460.804 19.3514 419.618 17.8809C389.352 16.7996 359.187 12.1861 329.151 6.69314C316.532 4.3864 303.869 2.67076 291.178 2.368C271.802 1.89223 252.398 1.87777 233.023 2.3247C204.874 2.98789 176.87 6.02987 148.98 12.2004C126.436 17.1887 105.475 26.9779 86.849 45.504C66.8108 65.4285 48.7462 87.8184 38.2301 120.372C28.175 151.499 20.3527 183.476 15.6853 217.039C13.2076 234.902 8.78501 252.549 8.09354 270.498C7.43088 287.597 4.82346 304.436 5.198 321.607C5.61576 340.969 2.28815 360.187 3.65668 379.564C5.05402 399.286 4.60736 419.052 8.0647 438.804C12.6601 464.985 21.5196 485.688 35.738 503.738C57.8506 531.809 84.011 542.074 112.664 543.097C131.42 543.76 150.19 543.342 168.961 543.213L47.4642 749.954L2 791C14.0143 784.642 25.366 774.593 39.1809 778.385C40.9384 778.875 43.0559 778.212 44.799 777.289C56.6836 770.989 69.058 765.957 80.2656 757.768C115.041 732.38 149.096 705.117 183.05 677.566C216.557 650.361 247.371 617.374 280.619 589.636C295.082 577.569 305.209 558.062 315.797 540.43C315.912 540.243 316.013 540.055 316.129 539.868L317.065 539.824C326.14 546.658 335.951 543.083 345.329 542.866C354.462 542.665 363.609 541.252 372.8 540.891C415.873 539.219 458.974 539.435 502.033 538.267C537.6 537.302 573.124 532.529 608.663 529.646C625.618 528.262 642.574 526.777 659.558 526.316C689.709 525.508 719.903 524.038 750.025 525.393C792.579 527.296 835.105 527.152 877.659 527.339C911.065 527.484 943.42 520.044 975.502 506.204C1011.82 490.532 1037.47 459.218 1054.55 412.521C1060.26 396.864 1061.59 379.491 1063.29 362.494C1065.32 342.209 1066.46 321.693 1065.82 301.149L1065.8 301.163Z" fill="white" stroke="black" stroke-width="3.99999" stroke-linecap="round" stroke-linejoin="round"/>
<path d="M481.062 330.828C486.769 330.828 489.182 328.921 489.489 324.268C489.622 322.254 489.155 321.081 486.755 321.441C484.368 321.801 481.942 322.028 479.529 322.055C477.542 322.081 475.249 321.681 475.222 319.188C475.182 316.588 477.342 316.521 479.448 316.481C481.862 316.428 484.262 316.015 486.662 315.708C492.182 314.988 495.302 317.708 495.355 323.348C495.435 331.615 489.048 337.401 480.462 336.535C468.435 335.335 458.489 325.575 460.622 311.855C461.462 306.468 462.862 301.468 465.902 296.961C470.062 290.801 476.395 288.321 483.595 290.055C486.115 290.668 488.915 290.441 491.102 292.095C495.502 295.428 497.355 300.095 497.675 305.455C497.769 306.921 497.209 308.241 495.569 308.481C493.929 308.721 493.075 307.601 492.648 306.201C491.968 303.988 491.582 301.681 490.462 299.601C489.488 297.775 488.102 296.868 486.062 296.241C474.555 292.695 469.555 298.388 466.715 308.975C465.955 311.828 465.755 314.855 466.195 317.908C467.275 325.308 473.555 330.828 481.062 330.815V330.828Z" fill="black"/>
<path d="M583.342 322.948C584.395 318.014 584.542 313.055 584.022 308.055C583.502 303.121 583.582 298.188 584.142 293.268C584.355 291.414 585.062 289.628 587.236 289.721C589.635 289.828 589.582 291.855 589.595 293.655C589.649 299.561 589.529 305.441 590.049 311.361C590.595 317.655 589.289 323.908 588.182 330.108C587.782 332.321 586.809 334.588 584.129 334.814C581.475 335.041 580.636 332.854 579.742 330.868C576.449 323.548 575.169 315.415 570.782 308.535C570.275 307.735 570.142 306.694 569.062 305.948C568.356 308.401 568.596 310.788 568.716 313.108C569.022 319.134 568.555 325.108 567.929 331.081C567.742 332.921 567.502 335.134 565.036 335.041C562.476 334.948 561.942 332.721 562.249 330.748C564.049 319.081 562.955 307.334 563.315 295.641C563.342 294.881 563.515 294.095 563.782 293.375C564.302 291.935 565.169 290.748 566.889 290.748C568.476 290.748 569.276 291.828 569.862 293.135C571.609 297.028 573.275 300.948 575.115 304.788C577.755 310.281 580.862 315.574 582.182 321.628C582.289 322.134 582.342 322.814 583.329 322.961L583.342 322.948Z" fill="black"/>
<path d="M951.328 290.495C956.008 291.241 960.914 293.148 963.768 298.455C964.221 299.295 964.555 300.255 964.675 301.188C964.928 303.281 964.968 305.601 962.301 306.028C959.928 306.415 959.221 304.428 958.941 302.495C958.488 299.428 956.181 298.215 953.754 297.148C949.608 295.321 944.088 296.868 941.435 300.281C938.355 304.268 939.088 307.175 943.675 310.441C947.528 313.188 951.795 315.361 955.848 317.815C960.848 320.841 963.354 326.135 962.448 331.908C961.928 335.255 960.328 337.775 957.114 339.361C951.808 341.988 946.461 343.374 940.581 341.508C937.275 340.455 934.835 338.334 932.821 335.654C931.235 333.535 931.488 331.108 933.368 330.041C935.595 328.775 936.861 329.975 938.061 331.855C941.581 337.348 951.608 337.854 955.675 332.828C957.661 330.375 956.568 325.188 953.368 323.081C949.328 320.428 945.155 317.948 940.981 315.495C936.701 312.975 933.475 309.348 933.581 304.441C933.701 299.428 936.675 295.335 941.168 292.761C943.995 291.161 947.128 290.495 951.301 290.455L951.328 290.495Z" fill="black"/>
<path d="M915.434 288.774C918.954 289.001 922.874 290.935 926.101 294.241C927.407 295.575 928.247 297.268 928.554 299.121C928.887 301.188 929.087 303.574 926.554 304.228C923.821 304.934 923.181 302.668 922.821 300.548C922.314 297.628 920.061 296.494 917.727 295.454C913.461 293.561 907.967 295.188 905.221 298.761C902.181 302.721 903.381 305.788 907.554 308.721C911.421 311.441 915.661 313.668 919.741 316.081C925.141 319.281 927.047 324.174 926.367 330.161C925.994 333.521 924.327 336.054 921.114 337.641C916.194 340.068 911.234 341.521 905.701 340.161C901.821 339.201 898.887 336.948 896.634 333.774C895.207 331.761 895.501 329.414 897.261 328.374C899.461 327.081 900.767 328.201 901.981 330.108C905.514 335.641 915.407 336.188 919.581 331.188C921.594 328.774 920.541 323.534 917.354 321.428C913.394 318.814 909.341 316.334 905.221 313.974C900.714 311.388 897.261 307.668 897.554 302.521C897.861 297.228 900.994 292.921 906.101 290.575C908.674 289.388 911.421 288.774 915.434 288.774Z" fill="black"/>
<path d="M145.65 177.375C162.676 180.082 179.996 182.082 192.129 197.108C205.356 213.495 206.209 227.095 194.343 244.615C187.009 255.441 186.863 255.842 199.863 260.215C218.583 266.508 234.156 295.588 214.303 316.281C209.703 321.068 204.169 324.161 197.943 326.135C188.396 329.175 178.676 331.281 168.583 331.375C163.089 331.428 157.703 331.948 152.516 334.108C142.983 338.068 137.543 335.148 137.156 324.641C136.516 307.241 133.303 290.028 133.21 272.695C133.076 249.428 129.943 226.522 127.423 203.522C126.863 198.388 126.53 193.308 128.623 188.308C131.796 180.762 136.303 175.548 145.65 177.362V177.375ZM166.73 270.762C149.45 270.135 149.516 270.122 151.65 285.575C152.623 292.588 153.583 299.628 154.05 306.695C154.45 312.855 157.263 315.241 163.343 314.668C172.983 313.748 182.57 312.788 191.889 309.935C199.969 307.455 206.316 302.961 205.969 293.855C205.636 284.881 201.223 278.001 191.889 275.175C183.196 272.548 174.41 270.695 166.743 270.762H166.73ZM144.903 207.388C146.41 218.282 148.369 232.282 150.249 246.295C150.676 249.508 151.29 252.308 155.516 250.668C162.09 248.122 169.463 246.948 174.703 241.935C191.663 225.708 189.036 214.015 172.636 201.442C168.276 198.095 161.996 197.148 156.49 195.442C146.103 192.228 144.383 193.602 144.903 207.388Z" fill="#55ADE1"/>
<path d="M842.194 307.455C842.194 310.748 842.048 313.615 842.221 316.468C842.608 322.495 841.954 328.455 841.314 334.428C841.127 336.148 840.914 338.268 838.487 338.041C836.207 337.828 836.034 335.828 836.101 334.028C836.274 329.388 837.541 324.801 837.168 320.135C836.648 313.455 837.487 306.788 837.154 300.108C837.087 298.761 837.074 297.388 837.568 296.082C838.074 294.748 838.848 293.615 840.394 293.508C841.981 293.402 842.821 294.455 843.408 295.788C845.114 299.695 846.608 303.695 848.568 307.468C851.914 313.921 855.167 320.375 856.981 327.535C858.327 321.348 858.754 315.268 858.114 309.001C857.661 304.615 858.074 300.122 858.287 295.668C858.367 293.908 859.274 292.335 861.341 292.508C863.167 292.655 863.661 294.202 863.487 295.748C862.314 305.882 864.941 316.055 863.061 326.175C862.567 328.841 862.261 331.548 861.674 334.188C861.247 336.068 860.181 337.641 858.034 337.841C855.914 338.041 854.914 336.508 854.221 334.841C853.008 331.881 851.541 328.975 850.821 325.895C849.354 319.548 845.981 314.108 843.221 308.362C843.114 308.148 842.834 308.015 842.181 307.468L842.194 307.455Z" fill="black"/>
<path d="M832.754 317.654C832.221 323.788 829.407 329.521 822.794 332.868C817.834 335.388 812.461 336.694 807.034 337.694C805.914 337.908 804.701 337.881 803.581 337.668C801.754 337.334 800.714 336.001 801.434 334.281C803.821 328.481 803.168 322.268 804.074 316.281C805.008 310.161 805.074 303.961 804.754 297.774C804.701 296.614 804.674 295.468 804.287 294.348C803.114 290.935 803.994 289.548 807.447 290.121C823.461 292.788 831.821 298.495 832.754 317.641V317.654ZM826.927 315.895C827.034 306.655 823.341 298.921 813.287 296.708C810.194 296.028 810.008 295.988 810.061 299.321C810.141 304.361 810.141 309.375 809.541 314.401C809.008 318.815 808.754 323.268 808.368 327.694C808.021 331.641 808.327 331.948 812.261 330.908C814.314 330.361 816.327 329.654 818.301 328.854C824.581 326.334 826.967 322.681 826.914 315.908L826.927 315.895Z" fill="black"/>
<path d="M503.262 327.948C503.182 321.668 505.542 315.761 505.968 309.575C506.288 304.895 507.328 300.388 509.088 296.041C509.448 295.148 509.742 294.201 510.248 293.388C512.048 290.468 514.302 287.935 518.088 288.335C521.888 288.735 523.942 291.348 524.995 294.908C525.862 297.801 526.475 300.748 526.782 303.721C527.555 311.348 529.342 318.801 530.515 326.348C530.795 328.148 531.542 329.868 532.155 331.601C532.648 333.041 532.608 334.321 531.142 335.121C529.715 335.895 528.502 335.335 527.528 334.215C526.062 332.535 525.782 330.375 525.195 328.335C524.515 326.028 525.075 323.201 523.448 321.401C521.662 319.428 518.822 320.761 516.488 320.348C508.448 318.895 509.875 320.281 508.955 326.228C508.675 328.041 508.809 329.908 508.542 331.735C508.302 333.348 507.555 334.855 505.635 334.788C503.595 334.708 503.275 333.108 503.275 331.441C503.275 330.281 503.275 329.121 503.275 327.948H503.262ZM518.128 315.095C521.955 315.148 522.555 314.948 522.328 313.175C521.608 307.628 521.408 301.988 519.715 296.588C519.355 295.441 518.942 294.228 517.635 294.041C516.222 293.841 515.635 295.148 515.168 296.148C513.368 299.921 512.169 303.921 511.715 308.068C510.969 314.868 511.142 314.988 518.128 315.095Z" fill="black"/>
<path d="M428.875 328.561C430.848 318.415 430.942 307.934 434.195 298.015C434.795 296.175 435.502 294.361 436.688 292.788C438.515 290.361 440.902 288.935 443.955 289.468C446.915 289.988 448.968 291.775 449.982 294.735C451.688 299.735 452.008 304.974 452.888 310.121C454.115 317.254 454.848 324.508 457.222 331.414C457.755 332.961 457.675 334.374 456.062 335.148C454.328 335.988 452.982 335.081 452.155 333.641C450.635 330.988 450.195 328.001 449.702 325.028C449.035 320.948 449.008 321.001 444.942 320.881C442.822 320.814 440.688 320.601 438.582 320.334C436.208 320.041 435.182 321.175 434.982 323.388C434.782 325.801 434.582 328.214 434.342 330.614C434.142 332.561 434.035 334.894 431.355 334.748C428.662 334.588 428.888 332.254 428.875 330.294C428.875 329.708 428.875 329.134 428.875 328.548V328.561ZM444.155 315.575C445.742 315.481 447.835 315.921 447.475 313.255C446.755 308.081 446.702 302.814 445.102 297.774C444.742 296.668 444.435 295.308 443.115 295.161C441.622 295.001 440.942 296.375 440.488 297.508C439.155 300.841 437.968 304.228 437.595 307.828C436.675 316.561 435.195 314.308 444.155 315.575Z" fill="black"/>
<path d="M753.568 319.321C753.568 323.121 753.635 326.201 753.541 329.281C753.488 331.015 753.274 332.761 752.981 334.468C752.781 335.601 752.021 336.401 750.794 336.481C749.568 336.561 748.755 335.815 748.368 334.761C748.075 333.961 747.861 333.055 747.914 332.228C748.741 321.388 748.274 310.521 748.274 299.681C748.274 294.468 749.994 292.708 755.301 292.948C757.714 293.055 760.101 293.588 762.501 293.895C772.768 295.228 773.101 307.201 768.341 312.375C766.594 314.268 764.594 315.775 762.168 316.601C760.328 317.228 760.274 318.028 761.301 319.575C763.888 323.455 766.648 327.175 769.875 330.548C770.408 331.108 770.901 331.708 771.341 332.348C772.314 333.735 772.781 335.228 771.208 336.468C769.741 337.615 768.501 336.788 767.381 335.695C764.048 332.428 761.074 328.868 758.501 324.961C757.288 323.121 756.194 321.175 753.581 319.348L753.568 319.321ZM756.994 312.201C759.981 312.255 762.354 311.121 764.141 309.121C765.714 307.361 766.634 305.201 765.928 302.681C765.194 300.041 763.221 299.095 760.728 298.762C759.288 298.575 757.848 298.361 756.434 298.028C754.421 297.561 753.501 298.241 753.555 300.348C753.621 303.161 753.674 305.975 753.608 308.788C753.541 311.335 754.808 312.295 756.994 312.201Z" fill="black"/>
<path d="M226.916 328.108C228.943 317.494 228.996 306.534 232.636 296.201C233.116 294.828 233.663 293.494 234.516 292.294C236.343 289.708 238.596 287.694 241.996 288.281C245.356 288.868 247.303 291.215 248.303 294.415C249.969 299.815 250.063 305.494 251.196 310.974C252.583 317.681 252.876 324.628 255.463 331.081C256.023 332.454 256.036 333.841 254.57 334.641C252.983 335.494 251.703 334.641 250.863 333.334C248.943 330.308 248.343 326.828 248.05 323.374C247.836 320.868 246.676 319.921 244.37 319.974C241.85 320.028 239.343 319.814 236.863 319.388C234.45 318.961 232.97 319.654 232.823 322.414C232.69 325.214 232.316 328.001 232.023 330.788C231.823 332.628 231.343 334.481 229.023 334.268C226.796 334.054 226.916 332.108 226.916 330.441C226.916 329.668 226.916 328.894 226.916 328.121V328.108ZM242.103 315.095C243.476 314.415 246.45 316.214 246.01 312.881C245.316 307.628 245.156 302.294 243.65 297.161C243.236 295.734 243.076 293.814 241.076 293.774C239.223 293.748 238.65 295.495 238.076 296.895C236.356 301.121 235.276 305.508 234.89 310.054C234.543 314.054 234.516 314.041 238.356 314.561C239.596 314.734 240.836 314.894 242.116 315.068L242.103 315.095Z" fill="black"/>
<path d="M613.635 287.588C617.222 287.828 621.115 289.921 624.209 293.561C625.369 294.935 625.822 296.641 625.889 298.428C625.942 300.055 625.729 301.734 623.755 302.014C621.729 302.308 621.222 300.708 620.835 299.108C619.915 295.308 616.195 292.801 611.809 292.988C607.355 293.174 602.862 296.388 602.489 299.934C602.169 303.014 604.089 305.001 606.502 306.481C610.142 308.708 613.835 310.828 617.502 313.014C620.542 314.841 622.635 317.441 623.569 320.868C625.169 326.708 623.249 330.868 617.862 333.601C612.049 336.548 606.249 337.108 600.382 333.734C598.369 332.574 596.969 330.854 595.889 328.908C594.982 327.294 595.129 325.614 596.822 324.574C598.622 323.468 599.836 324.414 600.876 326.014C604.449 331.508 613.369 332.081 617.609 327.161C619.649 324.801 618.529 320.014 615.182 317.788C611.715 315.481 608.089 313.414 604.515 311.294C603.089 310.454 601.716 309.601 600.569 308.361C593.582 300.761 598.222 293.748 604.062 289.828C606.489 288.201 609.422 287.614 613.635 287.601V287.588Z" fill="black"/>
<path d="M869.794 326.028C869.901 320.215 870.501 314.428 870.834 308.628C871.034 305.255 870.594 301.855 870.594 298.482C870.594 294.442 872.034 292.548 875.901 291.642C879.194 290.855 882.541 290.282 885.874 289.668C887.621 289.348 889.354 289.575 891.021 290.188C892.167 290.615 893.221 291.228 893.074 292.642C892.914 294.175 891.741 294.788 890.381 294.748C886.567 294.655 882.861 295.268 879.127 295.882C876.781 296.268 875.701 297.308 875.861 299.735C876.127 303.695 876.647 307.641 875.954 311.615C875.661 313.281 876.861 313.788 878.301 313.828C881.007 313.895 883.727 313.908 886.434 314.028C887.287 314.068 888.154 314.322 888.994 314.562C890.301 314.935 891.394 315.668 891.207 317.188C890.994 318.895 889.567 319.455 888.181 319.188C884.887 318.548 881.607 319.215 878.354 318.961C876.381 318.815 875.847 319.455 875.594 321.242C875.167 324.135 875.167 327.028 875.154 329.935C875.154 331.575 875.781 332.428 877.541 332.495C880.727 332.628 883.914 332.881 887.101 333.121C888.061 333.188 889.047 333.282 889.941 333.588C891.207 334.028 892.154 334.922 891.914 336.428C891.687 337.948 890.554 338.428 889.167 338.481C884.021 338.681 878.914 338.041 873.807 337.495C871.127 337.215 869.727 335.495 869.781 332.708C869.821 330.481 869.781 328.255 869.781 326.015L869.794 326.028Z" fill="black"/>
<path d="M364.969 325.361C365.515 315.121 366.382 304.895 366.076 294.628C366.009 292.215 367.289 290.482 369.515 289.762C373.662 288.415 377.955 287.655 382.302 287.215C382.689 287.175 383.089 287.175 383.462 287.268C385.289 287.708 387.849 287.588 387.835 290.148C387.835 292.975 385.249 292.322 383.395 292.535C380.222 292.895 377.062 293.322 373.889 293.735C372.182 293.962 371.369 294.895 371.395 296.681C371.449 300.455 371.462 304.241 371.395 308.015C371.369 310.001 372.502 310.468 374.182 310.468C377.182 310.468 380.195 310.308 383.142 311.068C384.769 311.482 386.249 312.161 385.862 314.148C385.489 316.095 383.902 316.401 382.235 316.055C379.249 315.428 376.249 315.881 373.249 315.775C372.089 315.735 371.062 315.975 370.955 317.388C370.742 320.281 370.182 323.135 370.315 326.068C370.395 327.788 371.129 328.455 372.809 328.535C375.515 328.655 378.209 328.908 380.915 329.121C381.875 329.201 382.849 329.241 383.795 329.455C385.369 329.815 386.969 330.415 386.835 332.375C386.689 334.521 384.929 334.948 383.209 334.841C378.382 334.521 373.555 334.175 368.755 333.601C366.382 333.321 365.009 331.695 364.982 329.175C364.969 327.921 364.982 326.655 364.982 325.401L364.969 325.361Z" fill="black"/>
<path d="M776.248 307.241C776.248 304.721 776.221 302.201 776.248 299.681C776.274 297.561 777.168 295.814 779.208 295.081C783.421 293.575 787.821 292.855 792.288 292.575C792.941 292.535 793.634 292.735 794.288 292.908C795.714 293.295 797.301 293.708 797.021 295.654C796.781 297.348 795.314 297.628 793.901 297.614C790.794 297.574 787.728 297.881 784.648 298.428C781.914 298.908 780.714 300.201 781.128 302.974C781.594 306.148 781.701 309.348 781.194 312.534C780.914 314.361 781.901 314.934 783.528 315.014C786.421 315.161 789.354 314.734 792.221 315.414C793.781 315.788 795.541 316.174 795.261 318.201C794.968 320.374 793.114 320.454 791.394 320.121C789.568 319.761 787.741 319.774 785.888 319.814C780.461 319.948 781.274 319.108 780.501 324.921C779.581 331.814 779.808 331.961 786.674 332.574C788.794 332.761 790.928 332.881 793.048 333.081C794.648 333.228 795.968 333.894 795.941 335.708C795.901 337.668 794.368 337.868 792.821 337.921C788.341 338.094 783.914 337.468 779.488 337.054C776.381 336.761 775.154 335.321 775.181 331.921C775.221 327.081 775.394 322.228 775.821 317.414C776.114 314.028 776.208 310.641 776.208 307.254L776.248 307.241Z" fill="black"/>
<path d="M267.822 321.388C267.395 313.614 269.075 305.948 269.009 298.188C268.982 294.335 268.875 294.148 264.942 294.095C262.142 294.055 259.316 294.081 256.529 293.868C254.929 293.748 253.275 293.055 253.475 291.068C253.675 289.055 255.289 288.561 257.129 288.588C266.502 288.695 275.889 288.788 285.262 288.881C286.035 288.881 286.822 288.854 287.582 288.961C289.049 289.174 290.249 289.868 290.262 291.508C290.289 293.174 289.062 293.975 287.609 294.028C284.515 294.161 281.409 294.215 278.315 294.095C275.915 294.001 274.902 294.694 274.795 297.334C274.462 305.548 273.782 313.748 273.355 321.961C273.235 324.361 273.569 326.788 273.635 329.201C273.689 331.268 273.329 333.441 270.809 333.454C268.302 333.454 267.915 331.241 267.849 329.228C267.769 326.614 267.822 324.001 267.822 321.388Z" fill="black"/>
<path d="M346.143 333.001C343.049 333.148 339.956 333.321 336.863 333.454C332.423 333.641 331.249 332.268 331.156 327.934C330.943 316.801 332.169 305.695 331.716 294.561C331.663 293.401 331.729 292.228 331.903 291.095C332.103 289.748 332.809 288.655 334.316 288.628C335.836 288.601 336.449 289.761 336.823 291.028C336.929 291.401 337.009 291.788 337.009 292.175C337.023 299.628 337.489 307.081 336.703 314.521C336.276 318.508 336.703 322.455 336.916 326.415C337.009 328.268 338.409 327.975 339.476 327.881C344.703 327.455 349.929 327.841 355.143 327.934C355.916 327.934 356.703 327.935 357.463 328.028C358.943 328.215 360.143 328.895 360.143 330.548C360.143 332.188 358.956 333.015 357.476 333.081C354.769 333.215 352.063 333.134 349.343 333.148C348.276 333.148 347.209 333.148 346.143 333.148C346.143 333.108 346.143 333.068 346.143 333.028V333.001Z" fill="black"/>
<path d="M311.716 289.534C315.889 289.534 320.049 289.534 324.223 289.534C324.996 289.534 325.783 289.534 326.543 289.681C327.889 289.934 328.956 290.601 328.903 292.148C328.849 293.574 327.769 293.988 326.556 294.294C323.743 295.001 320.956 294.241 318.169 294.174C315.463 294.121 314.449 294.868 314.436 297.748C314.409 307.814 312.636 317.814 313.263 327.921C313.369 329.574 312.916 331.188 310.903 331.294C308.663 331.428 308.236 329.614 308.103 327.948C307.583 321.254 308.103 314.588 308.676 307.921C308.996 304.254 309.209 300.588 309.489 296.921C309.623 295.108 308.809 294.201 306.956 294.214C304.049 294.228 301.143 294.228 298.236 294.174C296.516 294.148 294.649 293.881 294.676 291.681C294.703 289.388 296.689 289.441 298.356 289.428C302.809 289.401 307.276 289.428 311.729 289.428V289.534H311.716Z" fill="black"/>
<path d="M704.501 292.401C708.968 292.148 714.661 292.761 720.381 292.815C721.808 292.828 723.275 293.041 723.475 294.761C723.701 296.695 722.155 297.121 720.675 297.415C717.768 297.988 714.888 297.108 711.981 297.148C709.781 297.188 708.928 297.788 708.901 300.135C708.781 310.495 707.061 320.801 707.701 331.188C707.808 332.828 707.515 334.521 705.488 334.668C703.488 334.815 702.995 333.215 702.755 331.575C701.808 325.081 702.821 318.615 703.168 312.148C703.381 308.095 703.728 304.041 704.048 299.988C704.195 298.068 703.515 297.095 701.435 297.148C698.435 297.228 695.421 297.188 692.421 297.121C690.795 297.081 689.075 296.748 689.088 294.708C689.101 292.641 690.848 292.415 692.475 292.401C696.061 292.375 699.648 292.401 704.501 292.401Z" fill="black"/>
<path d="M641.142 291.681C647.528 291.681 653.915 291.681 660.302 291.681C661.835 291.681 663.448 291.881 663.608 293.735C663.795 295.828 662.008 296.308 660.462 296.348C657.568 296.415 654.662 296.241 651.768 296.068C649.822 295.948 649.022 296.628 648.995 298.708C648.902 309.161 647.128 319.548 647.782 330.028C647.888 331.655 647.622 333.388 645.622 333.548C643.448 333.721 643.048 331.961 642.808 330.228C641.915 323.828 642.942 317.468 643.235 311.108C643.422 307.055 643.795 303.001 644.128 298.961C644.302 296.855 643.502 295.948 641.315 296.028C638.315 296.135 635.315 296.081 632.315 296.001C630.662 295.961 629.022 295.495 629.155 293.441C629.275 291.601 630.875 291.308 632.408 291.295C635.315 291.268 638.222 291.295 641.128 291.295C641.128 291.428 641.128 291.575 641.128 291.708L641.142 291.681Z" fill="black"/>
<path d="M544.369 335.441C542.915 335.441 541.462 335.495 540.009 335.428C538.622 335.361 537.555 334.721 537.302 333.255C537.035 331.761 537.862 330.708 539.209 330.415C541.369 329.948 541.822 328.655 541.915 326.655C542.355 317.081 542.702 307.508 543.755 297.975C543.928 296.335 543.689 295.401 541.889 295.121C540.555 294.908 539.488 294.135 539.582 292.588C539.675 290.855 541.062 290.268 542.448 290.281C546.608 290.335 550.755 290.508 554.902 290.775C556.262 290.868 557.328 291.722 557.262 293.242C557.195 294.788 556.008 295.255 554.648 295.428C549.222 296.122 549.515 296.175 548.755 301.455C547.595 309.441 547.662 317.455 547.222 325.468C547.102 327.721 547.022 329.721 549.955 330.295C551.155 330.535 551.822 331.681 551.662 333.001C551.515 334.361 550.542 335.055 549.302 335.188C547.675 335.375 546.022 335.375 544.369 335.441C544.369 335.428 544.369 335.415 544.369 335.401V335.441Z" fill="black"/>
<path d="M734.768 292.855C736.888 293.015 739.008 293.121 741.128 293.361C742.568 293.521 743.808 294.148 743.754 295.881C743.701 297.628 742.434 298.055 740.968 298.215C736.554 298.708 736.741 298.748 736.021 303.415C734.834 311.188 734.781 319.015 734.474 326.828C734.394 328.748 734.608 330.241 736.861 330.761C738.088 331.041 738.874 332.015 738.701 333.361C738.514 334.868 737.421 335.428 736.021 335.508C733.608 335.655 731.194 335.828 728.781 335.908C727.154 335.961 725.568 335.654 725.114 333.788C724.688 331.988 725.834 331.081 727.408 330.695C729.008 330.295 729.154 329.094 729.221 327.788C729.541 322.001 729.834 316.201 730.194 310.415C730.408 307.041 730.674 303.668 731.048 300.295C731.208 298.775 730.901 297.895 729.261 297.641C727.888 297.428 726.848 296.628 727.034 295.095C727.221 293.575 728.501 293.108 729.808 293.015C731.448 292.908 733.101 292.988 734.741 292.988C734.741 292.935 734.741 292.881 734.741 292.841L734.768 292.855Z" fill="black"/>
</svg>
