<svg width="1181" height="876" viewBox="0 0 1181 876" fill="none" xmlns="http://www.w3.org/2000/svg">
<path d="M1178.77 332.634C1177.39 286.92 1174.14 241.382 1162.57 198.329C1146.09 137.063 1118.52 87.5248 1078.7 52.6458C1056.12 32.8719 1031.02 24.029 1004.61 19.5038C965.382 12.7798 926.021 11.8238 886.628 11.2024C847.586 10.581 808.576 11.0749 769.55 14.3572C753.232 15.7275 736.818 17.0336 720.421 17.432C680.502 18.4199 640.6 20.5708 600.681 20.9214C555.106 21.3197 509.53 21.1765 463.97 19.5513C430.49 18.3562 397.121 13.2578 363.896 7.18705C349.936 4.63764 335.929 2.74152 321.89 2.40691C300.456 1.8811 278.991 1.86473 257.558 2.35868C226.42 3.09163 195.441 6.45381 164.59 13.2735C139.651 18.7866 116.465 29.6057 95.86 50.0806C73.6937 72.1011 53.7106 96.8466 42.0777 132.825C30.9547 167.226 22.3018 202.567 17.1387 239.661C14.3978 259.403 9.5056 278.906 8.74069 298.743C8.00766 317.641 5.12331 336.251 5.53764 355.228C5.99977 376.627 2.31855 397.867 3.83243 419.282C5.37817 441.079 4.88427 462.924 8.70879 484.754C13.7922 513.689 23.5925 536.57 39.3209 556.52C63.7819 587.543 92.7208 598.888 124.417 600.019C145.165 600.752 165.928 600.289 186.692 600.146L52.2924 828.637L2 874C15.2902 866.973 27.8473 855.867 43.1295 860.058C45.0736 860.6 47.4162 859.867 49.3444 858.847C62.4912 851.884 76.1798 846.323 88.5776 837.273C127.046 809.214 164.717 779.083 202.277 748.634C239.343 718.567 273.43 682.11 310.209 651.453C326.208 638.117 337.411 616.558 349.123 597.071C349.251 596.864 349.362 596.657 349.49 596.45L350.526 596.402C360.565 603.955 371.417 600.003 381.791 599.764C391.894 599.541 402.013 597.979 412.18 597.581C459.827 595.733 507.506 595.972 555.138 594.681C594.482 593.614 633.779 588.34 673.092 585.153C691.849 583.623 710.605 581.982 729.393 581.472C762.746 580.58 796.146 578.954 829.467 580.452C876.541 582.555 923.583 582.396 970.656 582.603C1007.61 582.763 1043.4 574.541 1078.89 559.244C1119.06 541.924 1147.44 507.316 1166.33 455.706C1172.65 438.402 1174.12 419.203 1176 400.417C1178.25 377.998 1179.51 355.324 1178.81 332.618L1178.77 332.634Z" fill="white" stroke="black" stroke-width="3.99999" stroke-linecap="round" stroke-linejoin="round"/>
<path d="M709.568 397.186C710.601 392.652 711.849 388.133 712.624 383.556C713.599 377.789 715.005 372.136 716.555 366.513C717.1 364.518 717.688 362.366 720.371 363.012C723.068 363.658 722.695 366.039 722.15 367.905C720.027 375.121 718.678 382.509 717.286 389.869C716.297 395.134 715.02 400.213 712.523 404.976C711.62 406.698 710.529 407.96 708.506 407.903C706.34 407.845 705.106 406.483 704.504 404.517C702.366 397.53 700.659 390.457 700.96 383.097C700.013 382.868 699.97 383.528 699.841 383.93C697.89 390.658 694.647 396.884 692.008 403.34C691.376 404.89 690.673 406.396 689.282 407.458C686.183 409.854 682.424 408.879 680.803 405.263C679.942 403.326 679.684 401.289 679.627 399.166C679.354 388.865 680 378.535 679.168 368.234C679.038 366.599 679.34 364.906 679.612 363.271C679.842 361.85 680.545 360.588 682.252 360.76C684.045 360.946 684.619 362.366 684.662 363.916C684.777 368.076 684.892 372.251 684.806 376.412C684.634 384.733 684.892 393.04 685.566 401.777C687.216 400.586 687.359 398.936 687.962 397.645C692.553 387.717 696.412 377.488 699.769 367.072C700.343 365.279 701.147 363.557 703.356 363.916C705.508 364.26 705.379 366.169 705.479 367.876C705.924 375.25 706.369 382.638 706.943 389.998C707.129 392.451 707.689 394.89 708.707 397.157C708.98 397.157 709.267 397.157 709.539 397.143L709.568 397.186Z" fill="black"/>
<path d="M417.801 390.514C417.069 392.451 417.284 394.115 417.327 395.722C417.456 399.797 417.112 403.842 416.782 407.888C416.624 409.911 415.706 411.317 413.511 411.274C411.431 411.231 410.556 409.753 410.498 407.945C410.384 404.301 410.197 400.629 410.541 397.014C411.503 386.699 410.642 376.412 410.484 366.111C410.384 359.827 413.956 356.843 420.297 357.862C423.783 358.421 427.341 358.665 430.741 359.741C436.193 361.477 439.636 366.785 439.077 372.495C438.374 379.525 434.572 384.274 428.173 386.856C425.691 387.861 425.476 388.649 426.997 390.816C430.354 395.593 433.74 400.342 437.8 404.56C438.23 405.005 438.575 405.535 438.962 406.037C440.239 407.658 440.913 409.395 439.12 411.031C437.312 412.666 435.662 411.819 434.185 410.356C430.168 406.396 426.466 402.192 423.367 397.458C421.803 395.062 420.283 392.624 417.815 390.5L417.801 390.514ZM432.391 371.893C432.406 368.148 431.071 366.326 427.399 365.494C424.874 364.92 422.291 364.59 419.723 364.174C417.873 363.873 416.969 364.619 417.026 366.541C417.155 370.372 417.313 374.217 417.342 378.047C417.356 380.242 418.575 381.247 420.498 381.634C425.864 382.681 432.348 377.344 432.391 371.893Z" fill="black"/>
<path d="M407.471 313.587C413.74 313.559 416.409 311.349 416.509 306.17C416.538 304.262 416.036 303.201 413.812 303.473C410.914 303.832 408.002 304.133 405.089 304.104C403.052 304.09 400.857 303.329 401.115 300.733C401.345 298.38 403.339 298.208 405.405 298.151C408.102 298.079 410.799 297.677 413.482 297.333C419.307 296.587 422.592 299.384 422.779 305.295C423.066 314.262 416.021 320.704 406.71 319.757C393.741 318.423 383.096 307.906 385.406 293.158C386.31 287.348 387.83 281.982 391.116 277.133C395.592 270.534 402.406 267.879 410.182 269.759C412.994 270.433 416.107 270.218 418.518 272.14C422.965 275.698 424.859 280.547 425.304 286.056C425.433 287.735 424.916 289.327 422.979 289.571C421.043 289.83 420.282 288.352 419.751 286.788C419.651 286.487 419.565 286.185 419.522 285.884C418.016 275.44 411.344 275.167 402.536 275.67C401.043 275.756 399.824 276.688 398.762 277.735C391.804 284.593 390.04 293.029 391.962 302.196C393.311 308.609 400.671 313.616 407.485 313.587H407.471Z" fill="black"/>
<path d="M494.412 364.991C491.012 364.675 488.387 365.995 486.092 368.463C480.238 374.747 477.871 386.497 481.228 393.914C483.983 400.011 493.365 405.377 501.012 402.465C503.752 401.417 505.933 396.769 504.886 394.144C504.426 392.982 503.551 392.996 502.576 393.097C500.711 393.297 498.846 393.484 496.981 393.684C495.216 393.871 493.423 394.029 491.73 393.326C490.395 392.766 489.348 391.877 489.606 390.255C489.85 388.706 491.012 387.774 492.447 387.817C496.335 387.917 500.122 387.114 503.953 386.755C506.995 386.454 508.788 387.946 510.208 390.456C513.049 395.463 509.964 406.51 501.988 408.662C488.172 412.378 471.071 400.212 473.825 383.312C474.786 377.43 476.149 371.906 479.492 366.942C484.04 360.17 490.826 357.474 498.774 359.396C501.672 360.099 504.886 359.884 507.353 361.993C511.485 365.522 513.336 370.171 513.809 375.436C513.967 377.2 513.551 378.95 511.413 379.194C509.476 379.409 508.759 377.889 508.243 376.325C508.142 376.024 508.085 375.722 508.013 375.421C505.617 365.938 504.183 366.154 494.398 365.006L494.412 364.991Z" fill="black"/>
<path d="M586.375 303.101C587.494 297.277 587.767 292.011 587.164 286.689C586.59 281.596 586.748 276.489 587.193 271.396C587.279 270.377 587.552 269.315 588.011 268.412C588.613 267.235 589.675 266.503 591.11 266.833C592.401 267.135 592.989 268.125 593.089 269.359C593.19 270.607 593.132 271.855 593.147 273.103C593.247 278.512 593.104 283.906 593.62 289.343C594.294 296.445 592.86 303.474 591.612 310.447C591.196 312.728 590.134 315.023 587.422 315.325C584.553 315.655 583.592 313.36 582.616 311.208C579.015 303.231 577.624 294.379 572.846 286.89C572.315 286.072 572.287 284.881 570.952 284.379C570.178 289.644 571.153 294.824 570.723 299.974C570.407 303.704 570.235 307.463 569.876 311.193C569.676 313.273 569.461 315.813 566.577 315.569C563.88 315.354 563.377 312.872 563.75 310.792C565.329 302.098 564.726 293.332 564.855 284.58C564.913 281.237 564.812 277.909 564.855 274.566C564.869 273.433 564.956 272.256 565.257 271.166C565.716 269.487 566.62 268.024 568.6 267.924C570.465 267.824 571.44 269.1 572 270.664C575.83 281.352 582.803 290.706 585.486 301.896C585.543 302.155 585.844 302.37 586.389 303.073L586.375 303.101Z" fill="black"/>
<path d="M888.586 299.371C888.758 291.022 890.551 283.619 893.521 276.574C897.28 267.68 907.695 264.337 915.07 269.315C916.49 270.276 917.623 271.481 918.47 272.93C922.329 279.587 924.366 286.689 923.577 294.465C923.362 296.531 923.333 298.625 923.233 300.705C923.032 305.311 921.597 309.5 918.958 313.273C913.492 321.107 899.002 321.077 893.665 313.201C890.709 308.84 888.112 304.321 888.571 299.385L888.586 299.371ZM917.509 294.665C917.623 287.248 916.347 281.18 913.936 277.033C911.139 272.199 905.529 271.439 901.555 275.341C900.35 276.517 899.332 277.823 898.686 279.386C897.036 283.346 895.716 287.492 895.257 291.681C894.611 297.678 894.654 303.719 898.428 309.055C902.416 314.708 911.555 314.277 914.898 308.18C917.351 303.704 917.58 298.841 917.509 294.651V294.665Z" fill="black"/>
<path d="M883.766 291.135C882.833 295.626 883.68 300.819 882.216 305.812C878.414 318.796 867.898 320.345 857.942 316.644C856.335 316.041 855.245 314.779 854.169 313.459C848.143 306.113 847.354 297.706 849.549 288.926C851.141 282.527 851.988 275.77 857.138 270.735C864.082 263.934 874.369 265.082 879.132 273.561C882.087 278.811 883.55 284.565 883.766 291.15V291.135ZM877.41 293.546C877.783 287.362 876.707 281.566 873.737 276.258C871.098 271.552 865.445 270.878 861.557 274.608C860.108 276 858.889 277.578 858.3 279.5C857.181 283.173 855.689 286.846 855.23 290.619C854.47 296.716 854.484 302.856 858.272 308.322C862.332 314.162 871.514 313.702 874.899 307.404C877.267 303.014 877.496 298.251 877.41 293.56V293.546Z" fill="black"/>
<path d="M360.83 285.756C359.826 291.738 360.83 297.663 360.328 303.574C359.998 307.304 359.711 311.049 359.309 314.779C359.123 316.472 358.721 318.351 356.512 318.265C354.202 318.179 353.671 316.271 353.786 314.42C354.044 310.26 354.762 306.128 354.848 301.968C355.02 293.962 354.891 285.942 354.891 277.922C354.891 276.359 354.762 274.781 355.293 273.275C355.838 271.711 356.699 270.376 358.521 270.319C360.213 270.262 361.089 271.466 361.691 272.901C363.786 277.894 365.55 283.059 368.348 287.721C371.963 293.747 374.115 300.332 376.353 306.96C377.659 300.361 378.19 293.876 377.501 287.19C377.013 282.356 377.458 277.42 377.673 272.542C377.745 270.778 378.721 269.2 380.758 269.243C382.752 269.286 383.441 270.864 383.24 272.557C381.949 283.561 384.847 294.622 382.781 305.597C382.264 308.366 381.963 311.164 381.346 313.904C380.873 316.042 379.725 317.864 377.243 318.022C374.962 318.165 373.943 316.458 373.211 314.679C371.777 311.207 370.084 307.836 369.281 304.149C367.817 297.42 363.958 291.782 360.83 285.77V285.756Z" fill="black"/>
<path d="M709.596 293.775C709.768 299.858 709.108 305.181 706.397 310.087C701.505 318.925 687.087 319.843 680.659 312.096C674.849 305.08 674.289 297.19 675.437 288.826C675.867 285.641 676.728 282.499 677.431 279.343C678.292 275.469 680.2 272.212 683.069 269.443C689.712 263.002 700.099 264.537 704.546 272.729C708.205 279.472 710.012 286.673 709.596 293.775ZM703.169 294.45C703.815 287.621 702.595 281.15 698.894 275.325C696.641 271.768 692.581 270.462 689.124 272.083C686.441 273.346 684.734 275.655 683.901 278.41C681.549 286.1 679.755 293.804 682.108 301.968C683.815 307.907 687.589 311.235 693.657 311.063C698.836 310.92 702.337 307.419 703.112 301.293C703.398 299.041 703.155 296.731 703.155 294.436L703.169 294.45Z" fill="black"/>
<path d="M745.464 365.522C748.075 362.997 751.202 361.42 754.674 360.43C761.948 358.349 770.814 362.381 773.569 369.009C774.143 370.386 774.43 371.806 774.171 373.284C773.899 374.862 773.153 376.053 771.388 376.182C769.652 376.311 768.748 375.292 768.218 373.743C765.965 367.144 760.47 364.691 753.986 367.273C751.002 368.464 749.151 370.874 748.505 373.7C747.774 376.957 750.27 379.08 752.752 380.673C756.956 383.37 761.36 385.766 765.563 388.477C770.829 391.877 773.21 398.362 771.575 404.33C771.101 406.08 770.283 407.701 768.777 408.749C762.048 413.44 754.904 415.334 746.985 411.819C744.173 410.571 742.221 408.448 740.772 405.865C739.711 403.957 739.754 401.934 741.777 400.614C743.814 399.294 745.234 400.428 746.511 402.106C751.088 408.161 758.763 408.849 764.258 403.756C765.922 402.221 766.023 398.592 764.416 396.21C763.354 394.632 761.962 393.369 760.327 392.408C756.568 390.184 752.809 387.946 749.022 385.751C741.877 381.591 740.098 374.059 744.646 367.129C744.99 366.613 745.206 366.025 745.492 365.465L745.464 365.508V365.522Z" fill="black"/>
<path d="M787.04 294.435C786.509 300.504 786.064 305.869 785.562 311.249C785.476 312.167 785.304 313.114 784.974 313.975C784.572 315.022 783.697 315.639 782.535 315.639C781.244 315.639 780.354 314.893 779.996 313.688C779.766 312.914 779.637 312.024 779.752 311.235C781.545 297.893 781.818 284.435 782.635 271.021C782.937 266.057 785.705 263.776 790.698 264.422C793.582 264.795 796.408 265.598 799.277 266.157C810.683 268.381 811.156 280.432 806.278 286.716C803.983 289.672 801.099 291.982 797.384 292.742C794.328 293.373 794.6 294.435 796.006 296.659C799.349 301.953 802.663 307.247 806.752 312.024C807.986 313.459 808.875 315.18 807.211 316.744C805.375 318.451 803.682 317.275 802.348 315.797C798.775 311.837 795.82 307.418 793.065 302.856C791.415 300.116 789.823 297.305 787.025 294.464L787.04 294.435ZM788.044 278.539C788.044 278.539 788.001 278.539 787.972 278.539C787.886 280.203 787.972 281.896 787.657 283.503C787.111 286.272 788.546 287.419 790.913 287.735C795.26 288.309 798.99 286.918 801.731 283.503C805.59 278.668 803.538 272.786 797.57 271.322C795.447 270.806 793.309 270.362 791.171 269.96C789.077 269.558 788.001 270.404 788.044 272.613C788.087 274.593 788.044 276.559 788.044 278.539Z" fill="black"/>
<path d="M279.988 301.623C279.5 293.89 280.72 285.87 279.916 277.851C279.844 277.133 279.844 276.387 279.873 275.67C279.945 273.489 279.644 270.734 282.7 270.662C285.77 270.591 285.526 273.374 285.712 275.54C286.229 281.465 286.53 287.391 285.755 293.316C285.44 295.798 286.272 297.147 289.084 297.333C294.378 297.678 299.657 298.323 304.937 298.911C307.218 299.169 307.505 297.878 307.562 296.085C307.763 290.447 306.314 284.88 306.759 279.242C306.874 277.692 306.945 276.115 307.232 274.594C307.519 273.03 308.466 271.854 310.231 271.997C312.124 272.14 313.028 273.503 312.956 275.225C312.397 289.199 314.893 303.057 314.52 317.017C314.463 319.068 314.936 321.608 311.881 321.737C309.054 321.851 308.81 319.542 308.538 317.375C308.136 314.262 307.978 311.149 308.15 308.021C308.265 305.711 307.404 304.521 305.008 304.348C299.499 303.947 294.005 303.473 288.51 302.971C286.458 302.785 285.597 303.703 285.698 305.668C285.77 307.017 285.856 308.366 285.942 309.714C286.042 311.379 286.214 313.043 286.214 314.707C286.214 316.859 286.014 319.226 283.159 319.24C280.246 319.254 280.088 316.773 280.06 314.707C279.974 310.432 279.515 306.171 280.002 301.623H279.988Z" fill="black"/>
<path d="M524.368 292.627C523.981 299.772 521.111 305.74 514.282 309.485C509.505 312.11 504.441 313.99 499.262 315.597C497.755 316.056 496.206 316.342 494.628 316.084C492.461 315.725 491.385 314.406 492.246 312.311C493.365 309.614 493.422 306.83 493.365 304.018C493.136 293.933 494.097 283.819 492.246 273.79C491.873 271.753 491.787 269.702 490.711 267.808C489.492 265.67 490.525 264.436 492.705 264.034C506.148 261.624 520.509 271.308 523.192 284.593C523.708 287.147 524.339 289.672 524.368 292.627ZM499.089 305.224C499.089 305.64 499.161 306.07 499.089 306.472C498.53 309.111 499.391 309.542 501.858 308.638C505.488 307.304 509.118 305.998 512.374 303.889C515.086 302.139 517.008 299.829 517.84 296.573C521.197 283.56 513.249 271.81 499.936 270.06C497.382 269.73 497.325 271.035 497.669 272.786C499.792 283.517 497.841 294.45 499.104 305.224H499.089Z" fill="black"/>
<path d="M318.594 311.507C318.565 304.764 321.09 298.394 321.521 291.737C321.851 286.687 323.07 281.867 324.921 277.19C325.308 276.229 325.652 275.225 326.212 274.35C328.206 271.237 330.688 268.568 334.762 269.127C338.679 269.673 340.845 272.384 341.95 276.1C342.883 279.213 343.571 282.383 343.887 285.583C344.705 293.789 346.656 301.809 347.904 309.943C348.205 311.88 348.994 313.745 349.654 315.61C350.185 317.145 350.228 318.551 348.679 319.441C347.029 320.388 345.637 319.685 344.561 318.336C342.868 316.213 342.495 313.573 341.965 311.034C340.53 304.19 340.559 304.176 333.514 303.631C333.414 303.631 333.299 303.631 333.199 303.602C324.849 302.253 325.652 302.182 324.562 311.048C324.333 312.899 324.39 314.807 324.003 316.629C323.687 318.135 322.64 319.326 320.889 319.097C319.096 318.867 318.608 317.49 318.594 315.883C318.594 314.419 318.594 312.971 318.594 311.507ZM334.849 297.907C336.126 297.218 339.368 299.299 339.066 295.841C338.536 289.858 338.134 283.804 336.312 277.993C335.925 276.759 335.466 275.454 334.074 275.253C332.553 275.038 331.922 276.444 331.42 277.52C329.483 281.58 328.192 285.884 327.704 290.346C326.915 297.663 327.087 297.778 334.863 297.907H334.849Z" fill="black"/>
<path d="M443.438 403.829C443.352 397.086 445.905 390.716 446.35 384.059C446.694 379.023 447.828 374.174 449.707 369.497C450.095 368.536 450.424 367.517 450.955 366.642C452.892 363.5 455.331 360.774 459.405 361.233C463.494 361.678 465.704 364.505 466.823 368.321C467.741 371.434 468.415 374.604 468.745 377.818C469.577 386.024 471.5 394.044 472.762 402.165C473.064 404.101 473.881 405.952 474.527 407.817C475.058 409.381 474.986 410.744 473.422 411.605C471.887 412.437 470.582 411.805 469.534 410.6C467.956 408.793 467.669 406.468 467.024 404.273C466.292 401.791 466.909 398.75 465.13 396.813C463.193 394.719 460.152 396.139 457.627 395.694C449.033 394.145 450.539 395.579 449.535 402.05C449.234 404.001 449.377 406.01 449.09 407.961C448.832 409.697 448.014 411.318 445.948 411.217C443.753 411.117 443.438 409.381 443.438 407.587C443.438 406.339 443.438 405.092 443.438 403.829ZM459.678 390.027C460.955 389.339 464.212 391.419 463.91 387.976C463.394 381.993 462.978 375.939 461.156 370.129C460.769 368.895 460.324 367.589 458.932 367.374C457.411 367.145 456.78 368.55 456.264 369.626C454.327 373.686 453.021 377.976 452.534 382.452C451.73 389.783 451.902 389.913 459.678 390.027Z" fill="black"/>
<path d="M561.153 296.473C561.153 301.709 560.579 306.759 558.226 311.637C553.707 321.034 538.256 321.034 533.091 314.162C527.797 307.132 526.635 299.701 528.069 291.48C528.844 287.076 529.375 282.542 531.283 278.453C533.564 273.561 536.821 269.573 542.761 269.013C548.069 268.511 552.559 270.118 555.457 274.694C559.044 280.347 560.823 286.631 561.153 293.331C561.21 294.364 561.153 295.411 561.153 296.458V296.473ZM544.138 312.943C550.006 313 553.19 311.006 554.295 305.869C556.289 296.602 555.845 287.406 551.211 278.869C548.126 273.188 541.398 273.044 537.682 278.352C536.52 280.002 535.716 281.782 535.315 283.747C534.655 287.004 534.081 290.289 533.421 293.56C532.546 297.835 533.65 301.953 535.099 305.769C536.663 309.872 539.073 313.846 544.123 312.957L544.138 312.943Z" fill="black"/>
<path d="M932.028 273.676C931.282 279.314 931.468 284.852 931.511 290.375C931.511 291.379 930.98 292.757 931.956 293.302C933.104 293.948 934.036 292.685 934.926 292.082C941.827 287.391 948.67 282.628 955.528 277.879C956.302 277.349 957.034 276.76 957.837 276.258C959.086 275.483 960.42 275.168 961.51 276.445C962.658 277.779 962.041 279.056 960.936 280.003C958.87 281.753 956.747 283.445 954.538 285.009C949.861 288.323 945.141 291.58 940.377 294.779C938.728 295.884 938.455 296.645 940.277 297.907C946.303 302.068 951.338 307.361 956.517 312.483C957.794 313.731 959.028 315.037 957.551 316.729C956.173 318.336 954.437 317.72 953.089 316.587C951.252 315.051 949.387 313.473 947.881 311.637C944.739 307.763 940.363 305.367 936.734 302.096C936.131 301.551 935.328 301.207 934.567 300.863C932.057 299.744 931.095 300.303 930.894 303.015C930.65 306.444 930.464 309.872 930.191 313.301C930.12 314.234 929.991 315.18 929.704 316.056C929.23 317.462 928.24 318.394 926.648 318.179C925.012 317.949 924.352 316.687 924.41 315.238C924.51 312.225 924.797 309.212 925.055 306.199C925.959 295.296 925.787 284.349 926.26 273.417C926.318 272.169 926.418 270.921 926.619 269.687C926.834 268.339 927.552 267.291 929.029 267.248C930.665 267.205 931.497 268.31 931.727 269.773C931.942 271.093 931.927 272.47 932.013 273.69L932.028 273.676Z" fill="black"/>
<path d="M326.571 372.855C326.571 374.619 326.729 376.413 326.543 378.163C326.213 381.147 327.576 382.051 330.33 381.922C333.243 381.779 336.169 381.793 339.039 382.51C340.76 382.94 342.453 383.557 342.123 385.709C341.779 388.019 339.943 388.263 338.034 387.876C334.821 387.23 331.578 387.718 328.365 387.603C327.045 387.56 326.127 388.034 326.041 389.497C325.869 392.409 325.28 395.264 325.366 398.205C325.424 400.228 326.041 401.204 328.221 401.348C331.134 401.549 334.017 402.007 336.944 401.935C337.561 401.935 338.207 401.936 338.809 402.065C340.832 402.524 343.371 402.753 343.099 405.579C342.841 408.219 340.43 408.205 338.451 408.076C333.673 407.761 328.896 407.373 324.133 406.828C321.048 406.469 319.57 404.719 319.642 401.491C319.757 395.666 319.814 389.813 320.359 384.017C320.919 377.977 320.775 371.951 320.804 365.911C320.818 361.722 322.038 360.1 326.17 359.082C329.513 358.264 332.884 357.619 336.27 356.987C337.274 356.801 338.379 356.743 339.383 356.93C341.449 357.317 344.376 357.203 344.232 360.173C344.103 363.128 341.277 362.353 339.297 362.568C336.083 362.927 332.898 363.415 329.685 363.773C327.389 364.031 326.385 365.194 326.528 367.518C326.643 369.283 326.557 371.061 326.557 372.826H326.586L326.571 372.855Z" fill="black"/>
<path d="M757.314 303.588C757.271 308.767 757.271 308.81 761.632 309.341C763.798 309.599 765.993 309.671 768.174 309.843C769.422 309.944 770.685 309.973 771.89 310.245C773.583 310.618 775.261 311.321 775.06 313.445C774.86 315.568 773.138 316.07 771.373 315.998C767.844 315.855 764.3 315.654 760.786 315.281C751.489 314.291 751.274 314.234 751.604 304.808C751.977 294.091 753.053 283.417 752.751 272.671C752.68 270.06 754.143 268.252 756.525 267.492C760.9 266.1 765.419 265.297 769.982 264.795C770.599 264.723 771.259 264.752 771.847 264.91C773.697 265.383 776.28 265.383 776.165 268.037C776.05 270.849 773.511 270.433 771.574 270.476C768.016 270.562 764.544 271.28 761.044 271.811C759.379 272.069 758.447 272.958 758.461 274.751C758.49 278.926 758.504 283.087 758.461 287.262C758.447 289.199 759.523 289.772 761.245 289.787C764.473 289.83 767.715 289.6 770.9 290.404C772.751 290.863 774.515 291.522 773.999 293.861C773.554 295.941 771.804 296.171 770.025 295.798C766.811 295.138 763.569 295.64 760.355 295.511C758.849 295.454 758.031 296.071 757.916 297.663C757.744 299.944 757.457 302.211 757.314 303.602V303.588Z" fill="black"/>
<path d="M527.639 377.273C527.639 378.736 527.639 380.185 527.639 381.648C527.582 386.268 527.582 386.283 532.345 386.268C534.956 386.268 537.553 386.268 540.121 386.9C541.857 387.316 543.521 387.976 543.177 390.114C542.804 392.423 540.982 392.638 539.059 392.251C535.846 391.605 532.603 392.093 529.39 391.978C528.242 391.935 527.252 392.251 527.137 393.599C526.865 396.813 526.248 399.998 526.448 403.255C526.549 404.976 527.367 405.608 528.988 405.694C531.9 405.837 534.798 406.11 537.711 406.325C538.543 406.382 539.389 406.354 540.193 406.526C542.144 406.956 544.439 407.343 544.152 410.012C543.88 412.465 541.685 412.609 539.776 412.48C534.899 412.15 530.007 411.777 525.143 411.231C522.073 410.887 520.609 409.123 520.681 405.866C520.796 400.041 520.853 394.188 521.399 388.392C521.958 382.352 521.8 376.326 521.843 370.286C521.872 366.212 523.063 364.533 526.936 363.558C530.365 362.697 533.866 362.051 537.338 361.377C538.241 361.205 539.231 361.133 540.135 361.291C542.302 361.678 545.372 361.463 545.257 364.591C545.157 367.532 542.287 366.742 540.307 366.972C537.094 367.331 533.909 367.819 530.695 368.177C528.385 368.436 527.424 369.641 527.568 371.936C527.682 373.701 527.596 375.48 527.596 377.244H527.639V377.273Z" fill="black"/>
<path d="M382.264 400.5C382.838 389.482 383.771 378.478 383.441 367.431C383.355 364.834 384.689 362.941 387.099 362.166C391.661 360.703 396.367 359.77 401.173 359.397C401.589 359.368 402.019 359.368 402.421 359.483C404.358 360.014 407.112 359.913 406.883 362.797C406.653 365.552 404.071 364.906 402.163 365.121C398.749 365.494 395.348 365.953 391.934 366.398C390.112 366.627 389.165 367.574 389.194 369.526C389.251 373.586 389.265 377.66 389.194 381.72C389.165 383.829 390.284 384.403 392.135 384.417C395.363 384.417 398.605 384.245 401.776 385.048C403.512 385.493 405.133 386.182 404.76 388.32C404.401 390.414 402.708 390.801 400.901 390.428C397.687 389.754 394.459 390.228 391.231 390.113C389.81 390.056 388.763 390.443 388.663 392.107C388.476 395.12 387.874 398.089 388.017 401.131C388.103 402.939 388.806 403.757 390.643 403.829C393.555 403.958 396.453 404.202 399.365 404.46C400.7 404.575 402.063 404.718 403.354 405.076C404.874 405.492 406.036 406.425 405.778 408.204C405.549 409.797 404.315 410.514 402.866 410.542C397.127 410.671 391.432 409.969 385.765 409.108C383.641 408.778 382.365 407.142 382.278 404.861C382.221 403.398 382.278 401.949 382.278 400.486L382.264 400.5Z" fill="black"/>
<path d="M782.435 401.706C782.005 404.819 783.009 406.325 786.452 406.411C789.035 406.483 791.631 406.784 794.242 406.885C795.476 406.942 796.724 407.157 797.929 407.487C799.321 407.874 800.426 408.75 800.325 410.356C800.21 412.135 798.919 412.824 797.327 412.967C793.554 413.326 789.838 412.609 786.108 412.265C776.711 411.375 776.51 411.26 776.825 401.906C777.184 391.189 778.289 380.515 777.959 369.77C777.873 367.173 779.264 365.308 781.66 364.533C786.122 363.084 790.742 362.266 795.419 361.793C795.835 361.75 796.265 361.75 796.667 361.85C798.632 362.324 801.387 362.195 801.387 364.935C801.387 367.976 798.604 367.288 796.609 367.503C793.195 367.876 789.795 368.349 786.38 368.794C784.544 369.038 783.669 370.042 783.698 371.964C783.755 376.025 783.769 380.099 783.698 384.159C783.669 386.297 784.888 386.799 786.696 386.799C789.924 386.799 793.166 386.627 796.337 387.445C798.087 387.889 799.68 388.621 799.264 390.759C798.862 392.853 797.155 393.184 795.361 392.811C792.148 392.136 788.905 392.638 785.692 392.495C783.999 392.423 783.238 393.155 783.138 394.862C782.995 397.143 782.693 399.41 782.449 401.691L782.435 401.706Z" fill="black"/>
<path d="M345.365 365.05C345.336 363.501 345.781 362.338 347.201 361.951C348.822 361.506 349.769 362.496 350.329 363.859C351.319 366.284 351.72 368.866 352.179 371.435C353.7 379.885 357.645 387.589 359.711 395.881C359.84 396.369 360.056 397.029 360.687 396.814C361.089 396.67 361.433 396.125 361.634 395.68C362.681 393.299 363.613 390.86 364.718 388.507C368.692 380.042 374.173 372.31 376.898 363.243C377.042 362.755 377.343 362.296 377.644 361.879C378.62 360.531 379.825 359.412 381.575 360.244C383.397 361.105 383.182 362.74 382.565 364.304C381.059 368.192 379.883 372.267 377.874 375.882C373.054 384.519 369.065 393.557 364.575 402.366C364.058 403.385 363.398 404.331 362.738 405.264C361.82 406.57 360.758 407.832 358.951 407.545C357.057 407.244 356.139 405.78 355.766 404.087C354.733 399.511 353.542 394.992 352.093 390.53C349.568 382.711 346.512 375.035 345.709 366.757C345.651 366.14 345.465 365.538 345.379 365.093L345.365 365.05Z" fill="black"/>
<path d="M750.356 270.391C749.38 273.03 748.519 276.057 747.171 278.855C741.991 289.514 736.698 300.117 731.318 310.676C730.313 312.641 729.18 315.181 726.368 314.75C723.441 314.291 723.126 311.551 722.666 309.198C721.576 303.56 719.855 298.065 717.846 292.714C715.436 286.315 714.073 279.73 712.925 273.059C712.638 271.38 712.753 269.759 714.632 269.228C716.584 268.683 717.401 270.132 717.975 271.71C719.137 274.867 719.137 278.296 720.084 281.466C722.222 288.654 724.689 295.727 727.042 302.843C727.2 303.302 727.487 303.947 727.846 304.048C728.635 304.277 728.821 303.474 729.065 302.929C730.098 300.547 731.031 298.108 732.135 295.756C736.109 287.291 741.575 279.558 744.316 270.491C744.646 269.386 745.363 268.44 746.338 267.78C747.271 267.148 748.275 266.99 749.265 267.621C750.155 268.181 750.399 269.071 750.341 270.391H750.356Z" fill="black"/>
<path d="M225.843 300.361C232.873 300.361 243.318 299.615 253.604 296.889C260.433 295.082 267.52 295.483 269.414 303.747C271.294 311.924 264.422 313.962 258.296 315.626C240.563 320.432 222.429 321.766 204.295 319.743C187.136 317.835 172.445 310.318 161.054 296.889C121.63 250.435 121.787 195.387 184.97 166.163C205.672 156.593 227.178 156.837 248.999 159.85C251.811 160.238 254.58 161.471 257.176 162.72C262.356 165.202 267.219 168.687 264.823 175.201C262.155 182.431 256.244 181.284 250.19 179.347C219.373 169.52 182.23 181.155 162.948 206.376C154.483 217.452 151.456 229.517 155.043 243.218C158.285 255.585 162.101 267.751 169.949 278.009C183.836 296.157 195.213 300.791 225.843 300.375V300.361Z" fill="#55ADE1"/>
<path d="M441.774 319.957C438.518 319.685 435.089 319.484 431.66 319.111C428.073 318.724 426.639 317.289 426.639 313.588C426.639 308.796 426.753 303.99 427.227 299.227C427.887 292.771 427.686 286.315 427.715 279.844C427.743 275.799 428.948 274.12 432.894 273.188C436.337 272.37 439.852 271.824 443.353 271.208C444.931 270.935 446.48 271.294 447.972 271.767C449.249 272.169 450.339 272.872 450.138 274.407C449.952 275.885 448.804 276.502 447.456 276.545C444.012 276.66 440.584 276.645 437.183 277.42C433.195 278.338 432.621 278.926 433.08 282.886C433.439 286.013 433.626 289.127 433.123 292.24C432.75 294.478 433.726 295.267 435.835 295.339C438.948 295.439 442.104 295.023 445.189 295.798C446.896 296.228 448.675 296.759 448.202 298.968C447.757 301.092 445.892 301.178 444.17 300.834C442.09 300.418 440.024 300.475 437.929 300.489C432.004 300.532 433.324 300.418 432.42 305.267C432.32 305.783 432.291 306.3 432.248 306.816C431.942 311.369 434.061 313.822 438.604 314.176C441 314.363 443.381 314.535 445.777 314.736C447.484 314.894 448.948 315.539 448.976 317.475C449.005 319.599 447.384 319.915 445.705 319.943C444.457 319.972 443.195 319.943 441.774 319.943V319.957Z" fill="black"/>
<path d="M1027.13 309.501C1026.66 300.577 1028.47 292.342 1028.39 283.992C1028.37 280.004 1028.24 279.774 1024.2 279.703C1021.08 279.66 1017.95 279.673 1014.84 279.429C1013.11 279.286 1011.39 278.483 1011.68 276.316C1011.94 274.322 1013.56 273.749 1015.41 273.763C1025.71 273.863 1036.03 273.978 1046.33 274.078C1046.96 274.078 1047.59 274.064 1048.21 274.136C1049.91 274.365 1051.32 275.083 1051.28 277.02C1051.23 278.813 1049.86 279.573 1048.31 279.645C1045.08 279.774 1041.84 279.831 1038.61 279.688C1035.94 279.573 1034.72 280.248 1034.61 283.289C1034.28 292.127 1033.52 300.95 1033.06 309.787C1032.91 312.484 1033.3 315.196 1033.36 317.893C1033.4 319.93 1032.8 321.91 1030.5 322.039C1027.93 322.197 1027.26 320.059 1027.17 317.979C1027.03 314.966 1027.15 311.94 1027.15 309.472L1027.13 309.501Z" fill="black"/>
<path d="M625.87 399.08C625.397 390.113 627.19 381.878 627.133 373.528C627.104 369.511 626.96 369.267 622.972 369.209C619.945 369.166 616.918 369.21 613.905 368.994C612.097 368.851 610.132 368.191 610.419 365.853C610.677 363.701 612.456 363.256 614.421 363.284C624.421 363.414 634.406 363.5 644.406 363.6C645.138 363.6 645.869 363.572 646.601 363.629C648.409 363.773 650.03 364.404 650.001 366.512C650.001 368.464 648.423 369.152 646.759 369.209C643.43 369.31 640.087 369.339 636.745 369.224C634.363 369.138 633.488 370.028 633.373 372.481C632.957 381.419 632.254 390.357 631.795 399.295C631.652 401.992 632.039 404.703 632.096 407.4C632.139 409.552 631.508 411.604 628.969 411.589C626.616 411.561 625.985 409.523 625.913 407.558C625.784 404.545 625.884 401.518 625.884 399.094L625.87 399.08Z" fill="black"/>
<path d="M630.691 267.478C636.931 267.478 643.187 267.478 649.427 267.478C651.12 267.478 652.713 267.937 652.899 269.859C653.086 271.724 651.522 272.227 650.044 272.542C646.615 273.288 643.215 272.212 639.772 272.312C637.405 272.384 636.472 272.987 636.472 275.512C636.472 287.161 634.435 298.753 635.181 310.446C635.296 312.239 634.837 313.99 632.656 314.047C630.561 314.105 629.902 312.397 629.701 310.647C628.883 303.66 629.729 296.716 630.217 289.758C630.547 284.981 630.863 280.203 631.25 275.44C631.437 273.173 630.518 272.227 628.194 272.298C624.866 272.413 621.523 272.356 618.195 272.298C616.315 272.27 614.379 271.853 614.465 269.5C614.536 267.262 616.502 267.177 618.209 267.162C622.384 267.133 626.544 267.162 630.719 267.162C630.719 267.263 630.719 267.363 630.719 267.463L630.691 267.478Z" fill="black"/>
<path d="M822.189 409.811C818.861 409.969 815.532 410.169 812.189 410.298C807.426 410.485 806.193 409.007 806.106 404.301C805.877 392.322 807.182 380.371 806.709 368.392C806.652 366.957 806.81 365.48 807.096 364.059C807.34 362.854 808.244 362.05 809.564 362.036C810.755 362.036 811.486 362.797 811.903 363.815C812.175 364.475 812.39 365.221 812.39 365.924C812.39 373.427 812.648 380.945 812.204 388.42C811.931 393.125 812.06 397.773 812.261 402.45C812.362 404.646 813.811 404.402 815.102 404.287C820.726 403.828 826.35 404.258 831.973 404.33C832.605 404.33 833.222 404.33 833.853 404.373C835.66 404.517 837.325 405.062 837.282 407.199C837.239 409.308 835.546 409.911 833.767 409.954C831.055 410.026 828.344 409.954 825.632 409.94C824.484 409.94 823.337 409.94 822.189 409.94C822.189 409.897 822.189 409.854 822.189 409.811Z" fill="black"/>
<path d="M299.112 407.402C295.783 407.574 292.455 407.789 289.112 407.889C284.521 408.033 283.287 406.541 283.201 402.022C282.972 389.942 284.277 377.876 283.804 365.797C283.746 364.462 283.89 363.085 284.148 361.765C284.378 360.56 285.21 359.714 286.515 359.628C287.864 359.542 288.638 360.431 289.055 361.564C289.341 362.324 289.514 363.186 289.514 364.003C289.471 372.123 290.03 380.244 289.098 388.364C288.639 392.323 289.184 396.269 289.384 400.214C289.499 402.438 291.164 401.965 292.369 401.864C297.892 401.419 303.415 401.864 308.925 401.922C309.14 401.922 309.341 401.922 309.556 401.922C311.636 402.022 314.276 401.778 314.319 404.647C314.362 407.732 311.593 407.56 309.427 407.603C305.984 407.675 302.54 407.617 299.112 407.617C299.112 407.545 299.112 407.474 299.112 407.402Z" fill="black"/>
<path d="M845.89 384.317C849.878 376.656 853.465 369.956 858.73 364.347C859.361 363.672 859.992 362.941 860.739 362.41C861.542 361.836 862.518 361.764 863.364 362.41C864.297 363.127 864.583 364.117 864.167 365.193C863.866 365.953 863.464 366.742 862.905 367.316C856.42 374.03 853.035 382.725 848.142 390.443C847.124 392.064 846.937 394.001 847.267 395.909C848.071 400.586 847.152 405.263 847.353 409.955C847.411 411.332 846.65 412.437 845.216 412.652C843.752 412.867 842.92 411.891 842.461 410.6C842.059 409.495 841.988 408.376 842.145 407.214C842.289 406.181 842.389 405.149 842.447 404.101C842.949 395.508 842.447 387.101 838.874 379.052C837.11 375.064 836.737 370.573 834.886 366.57C834.312 365.322 834.513 364.046 835.862 363.328C837.224 362.597 838.329 363.285 839.133 364.332C841.242 367.072 841.557 370.487 842.547 373.657C843.566 376.914 844.584 380.157 845.89 384.317Z" fill="black"/>
<path d="M823.279 273.992C822.505 281.237 821.902 288.51 820.912 295.727C820.324 299.988 820.611 304.263 820.023 308.495C819.764 310.332 820.783 310.934 822.433 310.848C828.516 310.533 834.498 311.536 840.495 312.239C841.428 312.354 842.36 312.455 843.279 312.656C844.627 312.957 845.617 313.718 845.56 315.21C845.488 316.845 844.311 317.634 842.848 317.706C841.198 317.777 839.505 317.706 837.87 317.433C832.189 316.544 826.479 316.156 820.74 316.242C815.848 316.314 813.294 315.424 814.184 308.48C815.145 300.877 816.006 293.201 816.622 285.526C817.01 280.648 817.369 275.771 817.799 270.893C817.971 268.999 818.244 266.703 820.74 266.861C823.538 267.033 823.15 269.501 823.136 271.466C823.136 272.299 823.05 273.131 823.007 273.963L823.294 273.992H823.279Z" fill="black"/>
<path d="M745.492 365.48C743.814 367.13 741.705 367.058 739.625 366.9C737.214 366.728 736.368 367.862 736.153 370.186C735.263 379.913 734.531 389.654 734.331 399.424C734.288 401.763 734.187 403.757 737.171 404.388C738.606 404.689 739.381 405.966 739.108 407.53C738.864 408.979 737.76 409.682 736.425 409.739C733.097 409.883 729.768 409.941 726.426 409.897C724.934 409.883 723.843 409.037 723.642 407.444C723.442 405.823 724.417 404.776 725.852 404.489C728.061 404.03 728.52 402.695 728.621 400.672C729.123 390.285 729.467 379.884 730.629 369.54C730.844 367.675 730.328 366.872 728.506 366.542C727.057 366.283 725.981 365.408 726.124 363.759C726.268 362.08 727.573 361.506 728.979 361.391C733.556 361.018 738.118 361.621 742.68 361.936C744.675 362.08 745.334 363.701 745.449 365.537L745.478 365.494L745.492 365.48Z" fill="black"/>
<path d="M594.752 410.572C593.188 410.572 591.624 410.63 590.061 410.558C588.569 410.486 587.421 409.797 587.148 408.219C586.876 406.612 587.751 405.479 589.2 405.178C591.524 404.676 592.012 403.269 592.112 401.132C592.586 390.831 592.959 380.53 594.092 370.272C594.293 368.508 594.006 367.503 592.083 367.202C590.634 366.972 589.501 366.141 589.601 364.476C589.716 362.611 591.194 361.98 592.686 361.994C597.162 362.052 601.638 362.238 606.1 362.525C607.563 362.626 608.711 363.558 608.639 365.179C608.568 366.843 607.277 367.345 605.813 367.532C599.974 368.278 600.29 368.335 599.472 374.017C598.224 382.61 598.295 391.233 597.822 399.855C597.693 402.28 597.607 404.431 600.763 405.048C602.054 405.307 602.772 406.541 602.6 407.961C602.427 409.424 601.394 410.156 600.06 410.314C598.31 410.515 596.531 410.5 594.752 410.587C594.752 410.572 594.752 410.557 594.752 410.543V410.572Z" fill="black"/>
<path d="M992.069 322.899C990.505 322.899 988.941 322.985 987.377 322.871C985.871 322.77 984.809 321.953 984.637 320.36C984.479 318.897 985.311 317.806 986.617 317.562C989.142 317.074 989.529 315.497 989.63 313.273C990.103 302.972 990.491 292.671 991.624 282.413C991.811 280.734 991.423 279.888 989.702 279.587C988.138 279.314 986.918 278.468 987.134 276.632C987.334 274.967 988.697 274.451 990.089 274.365C994.68 274.078 999.242 274.566 1003.8 274.953C1005.27 275.082 1006.32 276.115 1006.13 277.765C1005.94 279.271 1004.77 279.687 1003.43 279.917C1001.54 280.233 999.228 279.028 997.807 280.835C996.545 282.457 997.377 284.694 997.033 286.617C995.469 295.167 995.871 303.833 995.325 312.441C995.182 314.808 995.225 316.773 998.195 317.376C999.5 317.634 1000.26 318.81 1000.15 320.245C1000 321.881 998.84 322.627 997.391 322.727C995.627 322.856 993.848 322.756 992.083 322.756C992.083 322.799 992.083 322.856 992.083 322.899H992.069Z" fill="black"/>
<path d="M464.887 312.556C462.06 312.599 458.904 309.83 458.875 307.29C458.847 304.952 460.826 302.929 463.208 302.872C466.551 302.785 469.291 305.023 469.262 307.835C469.234 310.447 467.311 312.527 464.887 312.556Z" fill="black"/>
<path d="M1057.42 310.748C1057.47 312.211 1057.13 312.943 1056.64 313.646C1054.66 316.486 1052.24 318.883 1049.4 320.863C1048.44 321.537 1047.36 322.283 1046.4 321.049C1045.45 319.844 1046.4 318.94 1047.22 318.122C1047.66 317.677 1048.13 317.276 1048.65 316.917C1050.3 315.798 1051.51 314.736 1050.13 312.426C1049.25 310.949 1050.13 309.399 1051.36 308.266C1052.37 307.333 1053.56 307.018 1054.79 307.764C1056.14 308.581 1057.35 309.571 1057.43 310.748H1057.42Z" fill="black"/>
<path d="M464.084 296.688C461.501 296.717 459.895 295.268 459.852 292.829C459.794 289.945 462.19 287.664 465.289 287.664C467.8 287.664 469.593 289.386 469.693 291.897C469.808 294.809 467.685 296.63 464.084 296.673V296.688Z" fill="black"/>
<path d="M603.862 272.758C602.126 272.5 601.021 271.438 602.14 269.602C603.719 267.005 604.895 264.25 606.186 261.524C606.961 259.874 608.525 259.301 610.117 259.947C611.982 260.707 611.451 262.371 610.82 263.691C609.601 266.216 608.238 268.669 606.875 271.123C606.287 272.184 605.368 272.844 603.862 272.744V272.758Z" fill="black"/>
<path d="M865.072 399.625C867.468 399.625 870.308 402.408 870.064 404.733C869.806 407.157 867.912 407.918 865.803 408.075C863.752 408.233 861.069 405.55 861.04 403.499C861.012 401.318 862.791 399.61 865.072 399.61V399.625Z" fill="black"/>
<path d="M882.962 399.754C885.114 399.84 887.51 402.15 887.524 404.159C887.539 406.095 884.755 408.42 882.46 408.405C880.294 408.376 878.744 406.483 878.744 403.857C878.744 401.591 880.724 399.668 882.976 399.754H882.962Z" fill="black"/>
<path d="M901.369 400.042C903.952 399.956 906.075 402.036 906.089 404.804C906.104 407.057 904.568 407.889 902.66 408.076C900.623 408.277 897.252 405.852 897.223 404.346C897.194 402.165 899.16 400.113 901.369 400.056V400.042Z" fill="black"/>
</svg>
