<svg width="1023" height="759" viewBox="0 0 1023 759" fill="none" xmlns="http://www.w3.org/2000/svg">
<path d="M1020.8 288.272C1019.6 248.691 1016.79 209.263 1006.77 171.986C992.508 118.941 968.64 76.0496 934.163 45.8505C914.614 28.7298 892.885 21.0731 870.024 17.1551C836.058 11.3332 801.981 10.5055 767.876 9.96749C734.075 9.42945 700.301 9.85709 666.514 12.699C652.387 13.8855 638.176 15.0167 623.98 15.3616C589.42 16.217 554.875 18.0794 520.315 18.3829C480.857 18.7278 441.4 18.6037 401.956 17.1965C372.97 16.1618 344.08 11.7471 315.315 6.4909C303.229 4.28356 291.102 2.64185 278.948 2.35214C260.392 1.89688 241.808 1.88304 223.252 2.31071C196.294 2.94532 169.474 5.8563 142.764 11.7609C121.173 16.5343 101.099 25.9017 83.2603 43.6294C64.0696 62.6953 46.769 84.1202 36.6976 115.271C27.0678 145.057 19.5765 175.656 15.1065 207.773C12.7335 224.866 8.49805 241.752 7.83582 258.928C7.20119 275.29 4.70404 291.403 5.06275 307.834C5.46284 326.362 2.27579 344.752 3.58644 363.294C4.92469 382.166 4.49708 401.08 7.8082 419.981C12.2092 445.034 20.6939 464.845 34.3109 482.117C55.4883 508.978 80.5426 518.801 107.984 519.78C125.946 520.415 143.923 520.015 161.899 519.89L45.5413 717.723L2 757C13.5061 750.916 24.3777 741.3 37.6084 744.929C39.2916 745.398 41.3195 744.763 42.9889 743.88C54.3708 737.851 66.222 733.037 76.9556 725.201C110.26 700.906 142.874 674.818 175.392 648.454C207.483 622.421 236.993 590.856 268.835 564.313C282.686 552.766 292.385 534.1 302.525 517.228C302.636 517.049 302.732 516.869 302.843 516.69L303.74 516.648C312.432 523.188 321.826 519.766 330.808 519.559C339.555 519.366 348.316 518.014 357.118 517.669C398.369 516.069 439.647 516.276 480.885 515.158C514.948 514.234 548.97 509.668 583.005 506.909C599.243 505.584 615.482 504.163 631.748 503.722C660.623 502.949 689.54 501.542 718.388 502.839C759.143 504.66 799.87 504.522 840.624 504.701C872.618 504.839 903.604 497.721 934.329 484.476C969.109 469.48 993.681 439.516 1010.03 394.831C1015.51 379.849 1016.78 363.224 1018.4 346.959C1020.35 327.548 1021.44 307.917 1020.83 288.258L1020.8 288.272Z" fill="white" stroke="black" stroke-width="3.99999" stroke-linecap="round" stroke-linejoin="round"/>
<path d="M622.814 252.534C620.694 257.041 619.841 261.894 618.601 266.627C618.427 267.281 618.334 267.961 618.161 268.614C617.747 270.147 616.934 271.267 615.187 271.294C613.481 271.321 612.521 270.294 612.041 268.774C610.841 264.894 609.707 260.987 608.494 257.107C608.161 256.041 607.908 254.881 606.654 253.627C606.028 259.574 604.948 265.041 605.374 270.627C605.694 274.841 604.547 278.881 604.134 283.001C603.974 284.561 603.081 285.801 601.294 285.734C599.414 285.654 598.694 284.267 598.387 282.627C598.294 282.161 598.267 281.654 598.334 281.187C599.774 271.707 599.094 262.041 600.667 252.587C601.374 248.334 600.508 244.081 600.988 239.841C601.174 238.174 601.267 236.347 603.267 235.907C605.387 235.427 606.427 237.014 607.227 238.614C609.667 243.467 611.547 248.547 613.307 253.681C613.6 254.534 613.681 255.961 614.774 255.961C615.907 255.961 615.801 254.521 616.161 253.667C617.654 250.081 618.507 246.294 619.521 242.561C619.774 241.627 620.041 240.681 620.481 239.827C621.201 238.427 622.147 237.094 623.934 237.107C625.814 237.121 626.561 238.587 627.068 240.094C628.254 243.601 628.814 247.307 628.881 250.947C628.987 257.147 629.534 263.321 629.56 269.507C629.56 272.627 630.001 275.681 630.494 278.734C630.841 280.854 630.521 282.894 628.068 283.227C625.601 283.574 624.761 281.601 624.494 279.534C624.134 276.761 623.601 273.987 623.774 271.161C624.147 264.961 623.067 258.827 622.827 252.561L622.814 252.534Z" fill="black"/>
<path d="M759.72 278.601C761.56 274.468 763.76 270.468 765.133 266.188C767.32 259.454 770.733 253.201 772.347 246.268C772.72 244.654 773.68 243.294 775.573 243.588C777.413 243.881 777.467 245.468 777.547 246.988C777.947 253.748 778.333 260.508 778.826 267.268C779.013 269.761 779.587 272.188 780.6 274.801C781.84 273.641 781.893 272.361 782.147 271.188C783.933 262.868 785.28 254.441 787.746 246.268C788 245.441 788.2 244.574 788.613 243.814C789.186 242.761 790.213 242.454 791.36 242.681C792.44 242.894 793.066 243.628 793.16 244.694C793.226 245.548 793.253 246.468 793.026 247.281C790.666 255.681 789.12 264.254 787.52 272.828C786.906 276.108 785.253 278.988 783.92 281.988C783.226 283.548 782.066 284.508 780.333 284.468C778.466 284.428 777.266 283.321 776.72 281.601C775.053 276.228 773.586 270.814 773.386 265.148C773.346 263.894 773.386 262.654 773.386 261.441C772.453 261.201 772.413 261.814 772.293 262.201C770.48 268.454 767.467 274.241 765.013 280.241C764.493 281.508 763.947 282.734 762.933 283.694C760.093 286.361 756.2 285.588 754.613 282.041C753.813 280.241 753.573 278.348 753.52 276.374C753.267 266.801 753.867 257.201 753.093 247.628C752.973 246.201 753.226 244.734 753.44 243.308C753.653 241.908 754.2 240.534 755.96 240.694C757.627 240.841 758.173 242.174 758.213 243.628C758.32 247.694 758.413 251.761 758.347 255.828C758.2 263.374 758.466 270.894 759 278.414L759.72 278.628V278.601Z" fill="black"/>
<path d="M770.999 358.96C771.959 354.734 773.119 350.547 773.839 346.294C774.746 340.934 776.052 335.68 777.492 330.454C777.999 328.6 778.559 326.6 781.039 327.2C783.546 327.814 783.199 330.014 782.679 331.747C780.706 338.454 779.452 345.32 778.159 352.16C777.239 357.054 776.052 361.774 773.732 366.2C772.892 367.8 771.865 368.974 769.999 368.92C767.985 368.867 766.839 367.6 766.292 365.774C764.306 359.28 762.732 352.707 762.999 345.867C762.119 345.654 762.079 346.267 761.959 346.654C760.146 352.907 757.132 358.694 754.679 364.694C754.092 366.134 753.439 367.534 752.146 368.52C749.266 370.747 745.772 369.84 744.266 366.48C743.466 364.68 743.226 362.787 743.173 360.814C742.919 351.24 743.519 341.64 742.745 332.067C742.625 330.547 742.906 328.974 743.159 327.454C743.372 326.134 744.025 324.96 745.612 325.134C747.279 325.307 747.812 326.627 747.852 328.08C747.959 331.947 748.066 335.827 747.986 339.694C747.826 347.427 748.065 355.147 748.665 362.867C749.785 362.974 749.786 362.107 750.039 361.574C754.586 351.52 758.639 341.267 761.986 330.734C762.492 329.147 763.346 327.774 765.239 328.067C767.079 328.36 767.119 329.947 767.212 331.467C767.612 338.227 767.999 344.987 768.506 351.747C768.692 354.227 769.159 356.694 770.999 358.947V358.96Z" fill="black"/>
<path d="M265.348 258.227C267.468 254.121 268.281 250.227 269.387 246.427C269.801 245.027 270.107 243.614 270.574 242.241C271.134 240.601 272.041 239.227 274.014 239.201C276.041 239.161 276.867 240.587 277.427 242.227C278.654 245.841 279.014 249.614 279.174 253.387C279.534 262.174 279.334 270.987 280.814 279.707C281.134 281.627 280.854 283.601 278.454 283.974C276.081 284.347 275.227 282.667 274.894 280.667C274.347 277.414 273.854 274.174 274.001 270.854C274.241 265.534 273.681 260.241 273.268 254.641C272.121 255.387 272.054 256.481 271.814 257.387C270.774 261.321 269.787 265.267 268.814 269.214C268.427 270.801 267.948 272.281 266.014 272.414C263.961 272.561 263.134 271.147 262.614 269.467C261.414 265.587 260.254 261.681 259.014 257.814C258.788 257.107 258.321 256.467 257.654 255.814C257.054 260.907 255.614 265.907 256.241 271.067C256.801 275.601 255.308 279.881 254.894 284.294C254.761 285.734 253.667 286.801 252.054 286.654C250.481 286.521 249.734 285.321 249.534 283.881C249.401 282.934 249.387 281.947 249.467 280.987C250.214 272.321 250.161 263.587 251.427 254.961C252.041 250.814 251.587 246.641 251.734 242.481C251.814 240.494 251.828 238.307 254.214 237.801C256.681 237.267 257.548 239.427 258.308 241.161C259.894 244.787 261.774 248.307 262.708 252.201C263.174 254.147 263.881 256.054 265.308 258.241L265.348 258.227Z" fill="black"/>
<path d="M606.239 350.027C606.679 339.787 608.799 332.121 615.159 326.121C617.506 323.907 620.212 322.254 623.412 322.254C635.999 322.281 641.546 323.561 644.626 336.774C645.106 338.827 644.892 340.934 642.492 341.467C640.039 342.001 639.546 339.881 639.052 338.054C638.679 336.654 638.306 335.241 637.839 333.881C636.813 330.907 635.053 328.854 631.573 328.774C630.239 328.734 628.919 328.214 627.586 328.001C624.212 327.454 621.226 328.334 618.692 330.627C612.506 336.227 609.946 349.201 613.972 356.534C617.092 362.214 625.506 366.68 632.719 363.694C634.932 362.774 636.999 358.36 636.293 356.08C635.879 354.76 634.932 354.6 633.772 354.76C631.946 355.014 630.119 355.2 628.293 355.48C626.933 355.694 625.586 355.734 624.266 355.32C622.639 354.827 621.359 353.961 621.679 352.041C621.973 350.267 623.372 349.921 624.946 349.801C627.746 349.587 630.546 349.374 633.332 348.974C638.799 348.187 642.079 350.561 642.066 356.134C642.039 366.787 636.959 370.867 626.239 370.134C615.319 369.387 605.546 360.334 606.266 350.041L606.239 350.027Z" fill="black"/>
<path d="M489.866 257.201C489.866 252.454 489.866 247.708 489.866 242.961C489.866 242.094 489.825 241.214 489.905 240.348C490.065 238.654 490.799 237.241 492.652 237.121C494.585 237.001 495.505 238.481 495.572 240.108C495.799 245.028 496.665 249.921 496.185 254.894C495.265 264.588 495.198 262.828 503.718 264.081C507.332 264.614 511.065 264.468 514.705 265.148C516.439 265.468 517.199 264.788 517.265 263.001C517.399 259.494 516.852 256.041 516.399 252.588C515.919 248.921 515.958 245.241 516.692 241.601C517.052 239.814 517.918 238.454 519.998 238.668C522.092 238.881 522.519 240.414 522.599 242.228C523.145 255.761 523.718 269.308 524.278 282.841C524.305 283.321 524.319 283.814 524.292 284.294C524.199 286.148 523.865 287.988 521.545 288.014C519.412 288.041 518.652 286.414 518.332 284.534C517.732 280.974 517.732 277.388 517.839 273.801C517.892 271.774 517.118 270.894 514.998 270.681C509.412 270.108 503.745 270.374 498.212 269.228C496.585 268.894 495.772 269.508 495.812 271.148C495.852 272.894 495.959 274.628 496.039 276.361C496.119 278.001 496.305 279.654 496.278 281.294C496.238 283.321 495.865 285.468 493.332 285.548C490.638 285.641 490.025 283.428 490.012 281.294C489.932 273.254 489.985 265.228 489.985 257.188C489.945 257.188 489.906 257.188 489.866 257.188V257.201Z" fill="black"/>
<path d="M296.682 365.587C302.508 365.561 304.988 363.494 305.081 358.694C305.108 356.921 304.642 355.947 302.575 356.201C299.882 356.534 297.175 356.814 294.468 356.787C292.575 356.774 290.535 356.067 290.775 353.641C291.002 351.467 292.855 351.294 294.762 351.241C297.268 351.174 299.775 350.787 302.268 350.481C307.682 349.787 310.735 352.387 310.908 357.881C311.162 366.214 304.628 372.201 295.962 371.307C283.908 370.067 274.015 360.294 276.162 346.587C276.988 341.294 278.348 336.387 281.308 331.934C285.508 325.614 291.855 323.067 299.202 324.841C301.815 325.467 304.708 325.267 306.948 327.067C311.068 330.374 312.842 334.881 313.242 340.001C313.362 341.561 312.881 343.041 311.081 343.267C309.281 343.494 308.575 342.134 308.081 340.667C307.988 340.387 307.908 340.107 307.868 339.827C306.468 330.121 300.268 329.881 292.082 330.334C290.695 330.414 289.562 331.281 288.575 332.254C282.095 338.627 280.482 346.467 282.255 354.987C283.495 360.961 290.348 365.601 296.682 365.574V365.587Z" fill="black"/>
<path d="M381.027 341.174C380.68 344.92 380.907 348.28 380.96 351.654C381.054 356.4 380.68 361.134 380.12 365.854C379.88 367.84 379.987 370.2 377.147 370.414C375.227 370.56 373.854 368.36 374.4 365.2C376.134 355.174 375.08 345.081 375.413 335.027C375.453 333.774 375.36 332.507 375.44 331.254C375.493 330.401 375.64 329.507 375.92 328.707C376.427 327.267 377.307 326.094 379.027 326.094C380.613 326.094 381.507 327.161 381.987 328.507C385.52 338.467 392.04 347.121 394.52 357.534C394.587 357.787 394.814 358.014 395.654 358.347C395.907 356.067 396.24 353.8 396.374 351.52C396.734 345.32 395.466 339.161 395.893 332.947C396.026 331.014 396.013 329.054 396.627 327.201C397.08 325.814 398.08 324.814 399.68 325.067C401.174 325.294 401.76 326.507 401.707 327.854C401.28 339.907 403.413 352.054 400.613 364.04C400.506 364.507 400.507 365.014 400.36 365.467C399.68 367.64 398.933 369.934 396.253 370.147C393.6 370.36 392.773 368.174 391.88 366.187C388.573 358.867 387.32 350.734 382.92 343.854C382.413 343.054 382.28 342.014 381.04 341.174H381.027Z" fill="black"/>
<path d="M346.64 267.667C346.813 260.681 348.28 253.814 351.2 247.454C356.174 236.588 366.907 236.534 372.493 241.628C376.227 245.028 377.586 249.868 378.586 254.601C380.026 261.427 379.587 268.387 377.853 275.041C374.693 287.201 364.667 288.587 355.413 285.134C354.533 284.801 353.614 284.227 353.04 283.507C349.374 278.894 346.28 274.014 346.64 267.667ZM373.48 263.721C373.827 258.001 372.84 252.614 370.094 247.667C367.654 243.268 362.4 242.601 358.787 246.041C357.28 247.468 356.12 249.134 355.52 251.108C354.573 254.254 353.32 257.374 352.907 260.601C352.16 266.374 352.107 272.174 355.654 277.347C359.4 282.814 367.947 282.427 371.107 276.601C373.32 272.521 373.547 268.107 373.48 263.707V263.721Z" fill="black"/>
<path d="M581.041 340.441C581.041 345.854 581.147 351.254 581 356.667C580.907 360.147 580.494 363.614 580.121 367.08C579.947 368.734 579.64 370.667 577.414 370.521C575.107 370.374 574.827 368.401 574.947 366.601C575.214 362.641 575.867 358.694 575.961 354.747C576.121 347.401 575.987 340.041 575.987 332.694C575.987 331.241 575.907 329.774 576.481 328.387C577.041 327.054 577.867 325.987 579.427 325.974C580.867 325.974 581.681 326.947 582.214 328.174C583.921 332.081 585.454 336.067 587.374 339.854C590.427 345.907 593.654 351.867 595.187 358.56C595.307 359.067 595.374 359.721 596.374 360.041C596.627 354.987 598.001 350.121 597.201 345.067C596.334 339.561 597.08 334.054 597.107 328.547C597.107 326.694 597.894 324.894 600.107 325.001C602.307 325.107 602.547 327.001 602.347 328.707C601.174 338.641 603.84 348.627 601.934 358.547C601.427 361.214 601.133 363.92 600.56 366.56C600.147 368.44 599.121 370.054 596.987 370.294C594.707 370.561 593.72 368.894 593 367.134C591.64 363.827 590.067 360.587 589.28 357.054C587.907 350.907 584.36 345.774 581.774 340.187C581.534 340.267 581.294 340.347 581.054 340.427L581.041 340.441Z" fill="black"/>
<path d="M698.6 266.747C697.24 270.694 698.427 274.787 697.841 278.761C697.694 279.707 697.814 280.694 697.734 281.667C697.601 283.281 696.894 284.574 695.121 284.601C693.161 284.627 692.427 283.214 692.401 281.494C692.361 278.014 692.174 274.494 692.52 271.041C693.36 262.614 692.48 254.201 692.44 245.787C692.414 239.947 695.173 237.467 700.947 238.294C703.16 238.614 705.373 238.867 707.56 239.307C716.88 241.174 720.307 251.641 713.973 258.827C712.013 261.054 709.681 262.761 706.841 263.654C705.107 264.201 705.027 264.961 706.027 266.374C709.347 271.027 712.707 275.641 716.613 279.814C717.893 281.187 718.894 282.747 717.267 284.374C715.627 286.014 714.107 284.961 712.72 283.681C707.96 279.307 704.654 273.801 700.761 268.734C700.201 268.014 699.867 266.974 698.587 266.747H698.6ZM697.734 249.681C697.921 251.894 698.094 254.107 698.294 256.307C698.44 257.881 699.347 258.694 700.88 258.947C705.427 259.721 710.787 256.014 711.547 251.547C712.267 247.267 710.307 245.187 704.52 244.147C700.031 243.338 697.765 245.178 697.72 249.667L697.734 249.681Z" fill="black"/>
<path d="M684.853 350.561C684.333 356.547 683.907 361.654 683.454 366.761C683.294 368.601 682.84 370.507 680.56 370.374C678.093 370.227 677.84 368.147 678.093 366.227C679.76 353.827 680 341.321 680.76 328.854C681.027 324.427 683.573 322.267 688.08 322.801C690.76 323.121 693.4 323.881 696.067 324.387C707.307 326.521 707.32 338.587 702.133 344.307C699.933 346.734 697.346 348.614 694.106 349.267C691.773 349.734 691.827 350.601 692.96 352.387C696.12 357.387 699.2 362.427 703.08 366.934C704.293 368.334 705.267 370.014 703.534 371.521C701.814 373.041 700.24 371.867 699.026 370.494C695.786 366.867 693.067 362.854 690.573 358.694C689 356.067 687.4 353.441 684.867 350.574L684.853 350.561ZM690.56 344.614C693.106 344.681 695.707 343.481 697.84 341.347C700.174 339.014 700.64 336.174 699.84 333.041C699.134 330.254 696.707 329.854 694.507 329.241C692.654 328.734 690.734 328.387 688.84 328.001C686.76 327.587 685.76 328.387 685.76 330.587C685.76 333.681 685.707 336.774 685.52 339.854C685.307 343.561 686.293 344.667 690.547 344.614H690.56Z" fill="black"/>
<path d="M503.921 354.654C503.667 347.014 504.694 339.374 503.974 331.734C503.921 331.16 503.921 330.574 503.934 329.987C504.001 328.014 503.974 325.707 506.654 325.707C509.121 325.707 509.215 327.894 509.348 329.787C509.721 335.387 510.201 340.987 509.414 346.6C509.081 348.974 509.788 350.374 512.601 350.534C517.521 350.827 522.427 351.454 527.334 351.987C529.521 352.227 529.628 350.854 529.681 349.267C529.868 344.027 528.521 338.867 528.934 333.614C529.054 332.174 529.121 330.707 529.401 329.294C529.695 327.827 530.601 326.814 532.254 326.987C533.867 327.16 534.721 328.307 534.667 329.787C534.227 343.16 536.494 356.427 536.161 369.8C536.121 371.454 535.921 373.054 533.868 373.227C531.801 373.414 530.947 372.04 530.694 370.214C530.241 366.947 530.001 363.654 530.201 360.36C530.335 358.147 529.348 357.187 527.188 357.04C522.161 356.68 517.148 356.254 512.134 355.787C510.121 355.6 509.214 356.387 509.321 358.387C509.481 361.28 509.681 364.174 509.788 367.08C509.841 368.36 509.601 369.627 508.481 370.467C506.615 371.854 504.481 370.587 504.161 367.747C503.908 365.534 503.934 363.294 503.881 361.08C503.841 358.947 503.881 356.827 503.881 354.694L503.921 354.654Z" fill="black"/>
<path d="M783.225 362.667C783.172 356.4 785.532 350.48 785.946 344.294C786.266 339.6 787.332 335.107 789.079 330.76C789.399 329.947 789.666 329.107 790.106 328.36C791.919 325.32 794.213 322.68 798.119 323.12C801.919 323.547 803.946 326.2 804.986 329.747C805.839 332.64 806.466 335.587 806.759 338.574C807.533 346.2 809.319 353.654 810.492 361.2C810.759 362.907 811.439 364.547 812.039 366.187C812.586 367.72 812.679 369.107 811.039 369.947C809.453 370.76 808.212 369.987 807.252 368.734C805.972 367.067 805.692 365.014 805.132 363.067C804.466 360.76 805.053 357.934 803.346 356.147C801.519 354.24 798.706 355.467 796.359 355.147C789.626 354.214 789.599 354.254 788.866 361.08C788.666 362.907 788.732 364.774 788.466 366.587C788.226 368.2 787.426 369.694 785.506 369.574C783.479 369.44 783.212 367.814 783.225 366.147C783.225 364.987 783.225 363.827 783.225 362.654V362.667ZM798.599 349.894C799.519 349.134 802.479 351.067 802.252 348.16C801.785 342.4 801.386 336.587 799.572 331.014C799.226 329.96 798.719 328.947 797.506 328.827C796.359 328.707 795.812 329.72 795.386 330.547C793.386 334.347 792.226 338.454 791.706 342.694C790.866 349.64 791.106 349.814 798.599 349.894Z" fill="black"/>
<path d="M314.773 363.614C314.773 357.347 317.12 351.427 317.52 345.24C317.827 340.547 318.974 336.067 320.68 331.72C321 330.907 321.293 330.067 321.747 329.334C323.613 326.32 325.934 323.734 329.867 324.28C333.507 324.787 335.493 327.347 336.52 330.8C337.373 333.694 338.053 336.64 338.307 339.614C338.88 346.294 340.64 352.76 341.48 359.4C341.827 362.187 342.507 364.92 343.667 367.52C344.293 368.907 344.16 370.24 342.72 371.054C341.307 371.854 340.067 371.307 339.094 370.187C337.427 368.267 337.08 365.814 336.574 363.454C335.147 356.88 335.187 356.867 328.627 356.347C328.44 356.334 328.24 356.32 328.053 356.294C320.08 354.88 321.414 356.08 320.454 362.44C320.174 364.254 320.307 366.134 320.014 367.934C319.734 369.547 318.867 370.974 316.92 370.707C315.08 370.467 314.827 368.947 314.827 367.4C314.827 366.147 314.827 364.88 314.827 363.627L314.773 363.614ZM330.094 351.027C331.227 350.44 334.094 352.187 333.814 349.2C333.294 343.534 332.933 337.814 331.187 332.334C330.853 331.28 330.413 330.214 329.253 330C327.8 329.734 327.227 331.04 326.747 332.014C324.933 335.68 323.8 339.6 323.28 343.64C322.373 350.76 322.64 350.974 330.094 351.04V351.027Z" fill="black"/>
<path d="M791.906 278.374C793.906 268.227 793.947 257.747 797.2 247.827C797.84 245.894 798.573 243.988 799.853 242.361C801.653 240.068 803.986 238.708 806.919 239.201C809.759 239.681 811.84 241.308 812.879 244.134C814.759 249.294 815.013 254.734 815.96 260.067C817.2 267.107 817.866 274.281 820.24 281.081C820.773 282.614 820.773 284.054 819.173 284.854C817.306 285.787 815.919 284.761 815.079 283.201C813.586 280.427 813 277.347 812.706 274.267C812.44 271.454 811.12 270.414 808.346 270.601C806.626 270.721 804.88 270.387 803.146 270.201C798.88 269.747 798.199 270.294 797.893 274.507C797.746 276.441 797.586 278.374 797.386 280.294C797.186 282.227 797.119 284.587 794.466 284.494C791.759 284.414 791.92 282.081 791.906 280.121C791.906 279.534 791.906 278.961 791.906 278.374ZM807.066 265.307C808.76 265.227 810.946 265.694 810.519 262.841C809.773 257.774 809.759 252.587 808.186 247.654C807.813 246.467 807.533 244.961 806.013 244.907C804.573 244.867 803.919 246.241 803.466 247.388C802.173 250.734 800.986 254.121 800.613 257.721C799.733 266.294 798.293 264.027 807.066 265.307Z" fill="black"/>
<path d="M748.934 263.934C749.067 269.081 748.667 273.601 746.52 277.774C741.747 287.081 728.227 287.814 722.054 279.454C717.507 273.294 717.001 266.654 718.147 259.587C718.814 255.481 719.347 251.281 721.094 247.468C723.227 242.801 726.294 239.028 731.961 238.534C737.84 238.028 742.067 240.468 744.774 245.681C747.32 250.574 748.654 255.787 748.934 261.267C748.987 262.334 748.934 263.401 748.934 263.907V263.934ZM743.6 264.041C743.734 258.467 742.707 252.921 739.814 247.801C738.361 245.228 736.307 243.854 733.24 243.814C728.92 243.747 726.921 246.601 725.707 249.934C723.947 254.761 722.654 259.827 722.987 264.987C723.241 268.881 724.107 272.734 726.427 276.187C728.534 279.307 731.347 280.041 734.707 279.801C738.067 279.561 740.56 277.921 741.973 274.814C743.507 271.467 743.667 267.894 743.6 264.041Z" fill="black"/>
<path d="M247.24 363.32C249.28 352.8 249.32 341.934 252.907 331.694C253.52 329.947 254.267 328.294 255.44 326.827C257.24 324.56 259.467 323.054 262.453 323.627C265.44 324.2 267.413 326.214 268.387 329.054C269.72 332.907 270.267 336.947 270.827 340.974C272.013 349.587 273.12 358.214 275.853 366.52C276.32 367.947 276.293 369.28 274.787 370.014C273.307 370.734 272.094 369.974 271.294 368.774C269.347 365.88 268.68 362.48 268.453 359.134C268.24 356 266.734 355.067 264 355.267C261.36 355.454 258.8 354.814 256.2 354.627C254.4 354.494 253.48 355.174 253.307 356.987C253.027 359.974 252.707 362.947 252.374 365.934C252.174 367.747 251.8 369.694 249.52 369.587C247.08 369.48 247.267 367.387 247.254 365.627C247.254 364.854 247.254 364.08 247.254 363.307L247.24 363.32ZM262.413 350.427C263.76 349.734 266.76 351.587 266.32 348.267C265.627 342.92 265.467 337.48 263.894 332.267C263.494 330.92 263.267 329.174 261.427 329.12C259.68 329.054 259.067 330.64 258.52 331.96C256.76 336.16 255.667 340.547 255.227 345.094C254.814 349.387 254.787 349.387 258.92 349.974C260.067 350.134 261.213 350.28 262.413 350.44V350.427Z" fill="black"/>
<path d="M419.56 370.214C415.04 369.84 410.827 368.467 408.107 364.2C407.013 362.48 406.666 360.614 408.56 359.307C410.546 357.92 411.694 359.44 412.787 360.947C416.12 365.534 423.36 366.027 427.44 361.987C429.48 359.96 428.706 355.48 425.64 353.36C422.467 351.16 419.067 349.267 415.734 347.28C414.48 346.534 413.213 345.854 412.226 344.734C406.453 338.174 408.654 329.84 416.787 326.36C422.707 323.827 427.76 325.24 432.507 328.907C434.707 330.6 435.733 332.974 435.573 335.787C435.493 337.28 434.96 338.52 433.293 338.654C431.76 338.774 431.16 337.654 430.76 336.334C429.68 332.707 426.706 330.307 423.28 330.214C419.44 330.107 415.773 332.347 414.387 335.64C413.387 338 414.613 340.64 417.747 342.56C420.8 344.427 423.934 346.174 427.04 347.987C431.707 350.707 434.267 354.574 433.84 360.16C433.6 363.307 432.227 365.654 429.413 367.174C426.387 368.8 423.253 370.014 419.573 370.2L419.56 370.214Z" fill="black"/>
<path d="M530.519 273.081C530.612 267.361 531.226 261.668 531.546 255.974C531.732 252.708 531.306 249.401 531.292 246.108C531.292 241.761 532.692 239.948 536.959 238.948C540.159 238.201 543.425 237.641 546.665 237.054C548.105 236.801 549.572 236.908 550.986 237.348C552.386 237.788 554.013 238.201 553.786 240.108C553.573 241.961 551.999 242.254 550.466 242.188C546.946 242.028 543.532 242.774 540.079 243.254C537.399 243.628 536.372 244.868 536.585 247.494C536.892 251.254 537.386 255.014 536.679 258.788C536.386 260.348 537.239 261.174 538.799 261.201C540.639 261.241 542.479 261.281 544.319 261.241C546.079 261.201 547.799 261.428 549.492 261.881C550.892 262.254 552.146 262.961 551.906 264.641C551.666 266.334 550.199 266.868 548.826 266.574C545.439 265.841 542.066 266.628 538.706 266.348C537.213 266.228 536.626 266.654 536.373 268.121C535.853 271.201 535.839 274.294 535.852 277.401C535.852 279.081 536.586 279.827 538.292 279.907C541.479 280.041 544.666 280.321 547.852 280.507C549.026 280.574 550.186 280.627 551.212 281.254C552.199 281.854 552.826 282.681 552.599 283.894C552.372 285.107 551.546 285.774 550.372 285.827C544.732 286.067 539.132 285.601 533.585 284.654C531.559 284.307 530.506 282.721 530.492 280.614C530.466 278.094 530.492 275.574 530.492 273.054L530.519 273.081Z" fill="black"/>
<path d="M563.414 350.534C563.08 344.001 565.134 337.681 565.121 331.174C565.121 330.001 565.761 329.108 567.014 328.961C568.494 328.774 569.36 329.641 569.907 330.894C570.707 332.707 570.2 334.587 569.893 336.347C568.6 343.627 569.174 351.041 568.107 358.307C566.867 366.814 560.734 372.321 552.174 373.001C548.427 373.294 543.841 370.147 542.294 366.094C541.174 363.174 540.52 360.134 540.667 357.001C541.04 349.174 541.467 341.347 541.893 333.521C541.92 333.041 542.001 332.547 542.121 332.094C542.534 330.547 543.04 328.827 545.054 329.174C547.04 329.521 546.934 331.241 546.854 332.881C546.44 341.294 545.774 349.694 545.907 358.121C545.907 358.507 545.92 358.894 545.947 359.281C546.227 363.907 548.307 367.187 551.294 367.721C554.654 368.321 559.747 365.507 561.454 362.147C563.321 358.467 563.614 354.547 563.401 350.534H563.414Z" fill="black"/>
<path d="M675.146 240.801C678.72 241.014 681.293 240.694 683.666 241.828C685.279 242.601 687.066 243.548 686.359 245.681C685.626 247.921 683.733 247.348 681.946 246.921C674.226 245.068 667.293 246.641 661.439 252.054C656.093 257.014 656.546 266.148 661.773 272.348C666.093 277.468 671.386 278.841 677.653 277.934C679.853 277.614 682.053 277.214 684.266 277.014C685.8 276.868 687.32 277.268 687.626 279.068C687.946 280.908 686.853 281.948 685.12 282.388C679.426 283.881 673.693 284.241 667.867 283.134C663.133 282.241 659.76 279.214 657.147 275.628C651.773 268.254 649.027 258.334 654.787 251.121C660.226 244.308 667.293 240.548 675.146 240.801Z" fill="black"/>
<path d="M296 239.094C299.853 239.401 303.706 239.694 307.453 240.841C314.733 243.068 317.333 252.788 312.186 258.481C308.64 262.401 304.133 263.947 299.027 264.414C292.853 264.974 292.906 265.054 292.626 271.321C292.466 274.894 292.2 278.481 291.84 282.041C291.653 283.841 291.093 285.747 288.733 285.387C286.52 285.041 286.333 283.241 286.52 281.334C287.56 270.641 288.16 259.921 288.413 249.188C288.44 248.321 288.413 247.441 288.333 246.574C287.813 241.441 289.626 239.361 294.84 239.108C295.226 239.094 295.613 239.108 296 239.108V239.094ZM293.347 251.641C293.347 251.641 293.333 251.641 293.32 251.641C293.32 253.574 293.32 255.521 293.32 257.454C293.32 258.388 293.573 259.108 294.64 259.414C298.186 260.468 306.56 257.708 308.733 254.694C311.186 251.308 309.68 246.574 305.68 245.348C303.08 244.548 300.386 244.148 297.667 243.961C293.44 243.668 293.307 243.814 293.333 248.148C293.333 249.308 293.333 250.468 293.333 251.641H293.347Z" fill="black"/>
<path d="M464.44 235.788C469.373 235.788 474.32 235.788 479.253 235.788C480.213 235.788 481.2 235.828 482.133 236.054C483.453 236.388 484.386 237.254 484.333 238.734C484.28 240.094 483.347 240.761 482.12 241.068C480.12 241.574 478.12 241.561 476.067 241.308C468.147 240.294 467.64 240.614 467.306 248.281C466.853 258.801 465.48 269.294 466.12 279.868C466.24 281.801 466.013 283.854 463.52 283.934C461.013 284.001 460.373 281.974 460.28 279.921C459.92 271.788 460.213 263.681 461.067 255.574C461.48 251.641 461.627 247.668 461.88 243.721C462 241.908 461.16 241.041 459.306 241.054C455.72 241.081 452.133 241.094 448.56 241.014C446.666 240.974 444.546 240.694 444.64 238.188C444.733 235.681 446.866 235.654 448.773 235.654C454 235.654 459.226 235.654 464.466 235.654C464.466 235.694 464.466 235.734 464.466 235.774L464.44 235.788Z" fill="black"/>
<path d="M833.346 275.281C835.72 272.121 836.533 268.881 837.813 265.921C839.36 262.334 841.599 259.174 843.413 255.774C845.333 252.174 846.799 248.387 848.252 244.587C848.599 243.694 848.986 242.787 849.533 242.001C850.426 240.721 851.653 239.827 853.239 240.734C854.706 241.574 854.533 243.001 854.013 244.334C851.946 249.654 850.359 255.241 847.186 260.014C843.066 266.201 841.119 273.414 837.319 279.707C836.773 280.614 836.213 281.534 835.599 282.401C834.679 283.694 833.653 284.961 831.826 284.547C830.106 284.147 829.346 282.747 828.999 281.174C828.093 276.907 826.932 272.721 825.586 268.574C823.239 261.307 820.48 254.161 819.653 246.467C819.466 244.761 818.986 242.921 821.053 242.307C823.399 241.614 824.159 243.601 824.439 245.321C825.919 254.654 829.653 263.321 832.306 272.307C832.546 273.121 832.866 273.907 833.359 275.294L833.346 275.281Z" fill="black"/>
<path d="M825.707 359.361C828.001 356.467 828.641 353.707 829.734 351.187C831.387 347.361 833.547 343.814 835.64 340.227C837.854 336.454 839.347 332.347 840.907 328.281C841.28 327.307 841.801 326.334 842.427 325.507C843.254 324.427 844.427 323.867 845.747 324.587C847.094 325.321 847.16 326.627 846.694 327.894C844.52 333.694 842.6 339.641 839.24 344.881C836.387 349.334 834.44 354.147 832.36 358.934C831.24 361.534 829.761 363.907 828.201 366.241C827.321 367.561 826.281 368.827 824.454 368.467C822.721 368.121 821.92 366.721 821.587 365.147C820.667 360.881 819.507 356.694 818.174 352.547C815.867 345.374 813.027 338.334 812.321 330.734C812.281 330.254 812.094 329.787 812.027 329.307C811.84 327.814 812.174 326.507 813.8 326.121C815.307 325.761 816.147 326.774 816.627 328.041C817.574 330.494 817.867 333.107 818.401 335.654C820.081 343.587 823.694 350.894 825.681 359.374L825.707 359.361Z" fill="black"/>
<path d="M654.679 339.454C654.679 341.294 654.839 343.148 654.639 344.961C654.425 346.814 655.186 347.401 656.866 347.468C660.052 347.601 663.266 347.201 666.426 348.001C667.932 348.387 669.452 348.841 669.159 350.721C668.852 352.654 667.212 352.481 665.706 352.427C662.519 352.294 659.319 352.294 656.119 352.121C654.866 352.054 654.332 352.454 654.266 353.694C654.106 356.694 653.612 359.654 653.679 362.681C653.732 364.627 654.359 365.454 656.385 365.494C659.572 365.561 662.759 365.867 665.945 366.107C666.705 366.161 667.492 366.307 668.212 366.561C669.319 366.947 670.025 367.747 669.892 368.974C669.758 370.227 668.879 370.881 667.719 370.921C662.372 371.134 657.066 370.534 651.812 369.707C649.452 369.334 648.719 367.307 648.812 365.041C649.092 358.654 649.226 352.267 649.679 345.894C649.972 341.921 650.026 337.961 649.706 334.001C649.319 329.268 650.812 327.121 655.452 326.134C659.332 325.308 663.212 324.334 667.239 324.694C668.905 324.841 670.919 324.948 670.945 327.108C670.972 329.481 668.919 329.241 667.252 329.174C663.825 329.041 660.519 329.841 657.159 330.348C655.425 330.601 654.679 331.614 654.745 333.361C654.812 335.388 654.759 337.428 654.759 339.468C654.732 339.468 654.692 339.468 654.665 339.468L654.679 339.454Z" fill="black"/>
<path d="M167.067 240.827C168.601 210.188 172.747 176.774 171.121 143.121C170.681 134.014 175.707 128.028 183.774 125.214C198.347 120.121 213.681 118.508 228.961 117.055C232.361 116.735 236.054 117.881 239.4 118.988C243.72 120.401 247.347 123.121 246.347 128.348C245.454 133.014 241.454 134.348 237.294 134.228C223.974 133.841 210.947 135.868 197.921 138.361C190.881 139.708 187.267 142.468 188.121 150.561C189.521 163.694 189.987 176.961 187.934 190.108C186.787 197.441 190.281 199.868 196.881 199.841C204.387 199.828 211.907 199.681 219.4 200.028C223.654 200.228 227.947 200.948 232.054 202.081C236.814 203.401 240.934 206.081 239.561 211.934C238.361 217.068 233.774 218.654 229.414 217.614C218.014 214.894 206.614 217.947 195.294 216.814C189.934 216.281 187.414 217.521 186.734 223.214C185.561 233.161 184.841 243.094 184.814 253.121C184.787 260.721 187.507 264.081 195.454 264.187C207.227 264.334 219.014 265.201 230.747 266.267C236.587 266.801 242.987 268.641 242.241 276.187C241.507 283.614 235 284.361 229.08 283.961C213.054 282.854 197.014 281.667 181.041 279.947C171.361 278.907 166.708 272.894 167.014 263.014C167.214 256.587 167.054 250.147 167.054 240.827H167.067Z" fill="#55ADE1"/>
<path d="M849.625 358.454C849.972 352.761 850.238 347.054 850.705 341.361C850.972 338.147 850.385 334.987 850.411 331.787C850.438 327.774 851.825 325.894 855.718 324.961C859.398 324.081 863.105 323.294 866.932 323.561C868.598 323.681 870.598 323.801 870.558 326.001C870.518 328.214 868.478 327.934 866.985 327.894C863.852 327.841 860.825 328.534 857.771 329.054C855.945 329.361 855.052 330.361 855.185 332.254C855.438 335.827 855.852 339.387 855.238 342.974C854.985 344.467 855.985 345.054 857.358 345.081C859.105 345.107 860.851 345.054 862.585 345.134C864.025 345.214 865.478 345.347 866.905 345.627C868.132 345.867 869.105 346.601 868.918 348.041C868.718 349.667 867.425 350.147 866.118 349.854C863.212 349.201 860.318 349.787 857.438 349.601C855.851 349.494 855.145 349.907 854.971 351.547C854.705 354.054 854.425 356.547 854.465 359.067C854.491 360.747 855.212 361.587 856.852 361.694C859.078 361.841 861.292 361.974 863.518 362.147C864.772 362.24 866.038 362.32 867.251 362.587C868.558 362.88 869.652 363.64 869.505 365.174C869.358 366.694 868.171 367.281 866.798 367.281C862.051 367.254 857.318 366.814 852.638 366.027C850.838 365.721 849.785 364.441 849.705 362.534C849.652 361.174 849.705 359.827 849.705 358.467C849.678 358.467 849.652 358.467 849.625 358.467V358.454Z" fill="black"/>
<path d="M856.48 273.947C856.826 268.254 857.093 262.547 857.559 256.854C857.826 253.641 857.226 250.481 857.253 247.281C857.279 243.281 858.68 241.414 862.6 240.481C866.373 239.574 870.173 238.774 874.106 239.107C875.693 239.241 877.493 239.521 877.413 241.561C877.346 243.587 875.519 243.467 874.079 243.427C870.839 243.334 867.72 244.041 864.573 244.587C862.733 244.907 861.88 245.947 862.013 247.814C862.28 251.387 862.666 254.947 862.066 258.534C861.813 260.041 862.879 260.574 864.226 260.601C865.973 260.627 867.72 260.574 869.453 260.654C870.8 260.707 872.16 260.827 873.48 261.081C874.8 261.334 875.933 262.001 875.733 263.601C875.52 265.214 874.2 265.667 872.906 265.374C870 264.707 867.106 265.334 864.226 265.107C862.599 264.987 861.96 265.481 861.786 267.107C861.546 269.414 861.333 271.721 861.253 274.054C861.186 276.307 862.159 277.241 864.279 277.334C866.413 277.427 868.533 277.521 870.666 277.694C871.919 277.787 873.173 277.921 874.386 278.227C875.599 278.534 876.493 279.374 876.333 280.747C876.173 282.107 875.133 282.774 873.88 282.787C868.933 282.827 864.013 282.374 859.159 281.454C857.48 281.134 856.587 279.787 856.533 278.027C856.493 276.667 856.533 275.321 856.533 273.961C856.507 273.961 856.48 273.961 856.453 273.961L856.48 273.947Z" fill="black"/>
<path d="M331.974 284.481C328.88 284.627 325.787 284.801 322.681 284.921C318.227 285.107 317.04 283.734 316.947 279.414C316.734 268.281 317.961 257.174 317.508 246.041C317.454 244.788 317.547 243.521 317.761 242.281C317.974 241.054 318.721 240.108 320.094 240.068C321.481 240.028 322.148 241.014 322.534 242.174C322.708 242.721 322.827 243.308 322.827 243.881C322.801 251.428 323.307 258.988 322.454 266.521C322.028 270.294 322.521 274.067 322.707 277.827C322.801 279.681 324.174 279.401 325.254 279.321C330.48 278.894 335.707 279.281 340.934 279.374C341.707 279.374 342.494 279.374 343.254 279.468C344.734 279.654 345.947 280.321 345.961 281.974C345.961 283.614 344.801 284.454 343.321 284.521C340.521 284.654 337.707 284.587 334.894 284.587C333.92 284.587 332.961 284.587 331.987 284.587C331.987 284.547 331.987 284.508 331.987 284.468L331.974 284.481Z" fill="black"/>
<path d="M354.853 370.814C354.133 370.814 353.56 370.814 352.973 370.814C351.213 370.814 349.507 370.534 349.187 368.481C348.88 366.547 350.374 365.747 351.96 365.334C353.654 364.894 353.907 363.734 353.947 362.254C354.04 358.494 354.347 354.734 354.307 350.974C354.253 344.654 355.52 338.454 355.787 332.161C355.854 330.561 355.747 329.601 353.867 329.401C352.547 329.267 351.4 328.494 351.44 326.974C351.48 325.294 352.76 324.654 354.2 324.521C358.56 324.147 362.893 324.694 367.226 325.041C368.546 325.148 369.573 326.147 369.467 327.641C369.347 329.321 368.093 329.841 366.613 329.947C361.333 330.321 361.64 330.361 360.88 335.614C359.667 344.067 359.72 352.574 359.307 361.067C359.213 363.121 359.173 364.881 361.827 365.467C363.227 365.774 364.12 367.001 363.76 368.601C363.414 370.134 362.134 370.321 360.814 370.401C358.787 370.507 356.76 370.681 354.853 370.814Z" fill="black"/>
<path d="M391.293 257.507C392.387 255.547 393.36 254.014 394.133 252.387C396.56 247.254 400.04 242.854 403.707 238.574C404.693 237.414 405.96 236.427 407.467 237.601C408.947 238.747 408.52 240.334 407.467 241.454C401.52 247.747 398.107 255.654 393.653 262.894C392.467 264.814 392.16 266.854 392.493 269.027C393.173 273.281 392.347 277.534 392.52 281.787C392.573 283.054 391.813 284.054 390.467 284.214C389.24 284.361 388.44 283.574 388.08 282.494C387.813 281.681 387.533 280.761 387.653 279.947C388.4 274.921 387.747 269.881 388.013 264.854C388.067 263.907 388.053 262.854 387.693 262.001C384.92 255.467 383.707 248.441 381.094 241.867C380.56 240.521 380.333 239.121 381.946 238.361C383.533 237.614 384.587 238.654 385.293 239.854C385.973 241.001 386.467 242.294 386.84 243.587C388.134 248.107 389.267 252.694 391.32 257.521L391.293 257.507Z" fill="black"/>
<path d="M450.347 328.187C456.733 328.187 463.133 328.187 469.52 328.187C471.16 328.187 472.866 328.401 472.893 330.481C472.92 332.347 471.24 332.827 469.773 332.841C466.88 332.894 463.973 332.721 461.08 332.561C459.173 332.454 458.28 333.027 458.267 335.161C458.187 345.614 456.4 356 457.053 366.48C457.16 368.094 456.933 369.84 454.933 370.04C452.747 370.254 452.32 368.507 452.08 366.774C451.173 360.374 452.2 354.014 452.493 347.654C452.68 343.6 453.053 339.547 453.387 335.507C453.56 333.454 452.853 332.441 450.627 332.521C447.627 332.627 444.613 332.574 441.613 332.494C439.973 332.454 438.307 332.027 438.4 329.974C438.494 328.121 440.066 327.801 441.613 327.787C444.52 327.761 447.426 327.787 450.333 327.787C450.333 327.921 450.333 328.067 450.333 328.201L450.347 328.187Z" fill="black"/>
<path d="M642.626 284.014C641.173 284.014 639.719 284.067 638.266 284.001C636.879 283.934 635.813 283.294 635.546 281.827C635.279 280.334 636.106 279.281 637.453 278.987C639.613 278.521 640.066 277.227 640.159 275.227C640.599 265.654 640.946 256.081 641.999 246.548C642.172 244.908 641.933 243.974 640.133 243.694C638.786 243.481 637.733 242.708 637.813 241.161C637.906 239.428 639.279 238.841 640.679 238.854C644.839 238.908 649 239.081 653.146 239.348C654.506 239.441 655.573 240.294 655.519 241.814C655.453 243.361 654.253 243.801 652.906 244.014C651.159 244.294 649.012 243.161 647.719 244.934C646.652 246.388 647.359 248.348 647.066 250.041C645.679 257.988 645.92 266.041 645.48 274.041C645.36 276.294 645.266 278.294 648.213 278.881C649.426 279.121 650.079 280.267 649.933 281.587C649.786 282.947 648.813 283.641 647.573 283.774C645.946 283.961 644.292 283.961 642.639 284.027C642.639 284.014 642.639 284.001 642.639 283.987L642.626 284.014Z" fill="black"/>
</svg>
