<svg width="1119" height="829" viewBox="0 0 1119 829" fill="none" xmlns="http://www.w3.org/2000/svg">
<path d="M1116.79 314.813C1115.47 271.563 1112.39 228.479 1101.43 187.747C1085.82 129.783 1059.71 82.9151 1021.98 49.916C1000.59 31.208 976.815 22.8417 951.801 18.5604C914.634 12.1987 877.347 11.2939 840.029 10.706C803.044 10.1181 766.089 10.5854 729.119 13.6908C713.66 14.9873 698.111 16.2237 682.577 16.6005C644.761 17.5352 606.961 19.5702 569.145 19.9019C525.97 20.2787 482.795 20.1429 439.636 18.6053C407.919 17.4746 376.308 12.6506 344.832 6.90708C331.608 4.49509 318.339 2.70117 305.039 2.3846C284.735 1.88712 264.4 1.87237 244.096 2.33969C214.598 3.03314 185.251 6.21374 156.025 12.6658C132.4 17.8818 110.435 28.1178 90.9158 47.4891C69.9172 68.3227 50.9867 91.734 39.9665 125.773C29.4294 158.32 21.2324 191.756 16.3413 226.851C13.7448 245.529 9.11023 263.981 8.38562 282.749C7.6912 300.628 4.95879 318.235 5.35129 336.19C5.78907 356.435 2.30177 376.53 3.7359 396.791C5.20022 417.414 4.73233 438.081 8.3554 458.734C13.171 486.11 22.4551 507.758 37.3549 526.631C60.5274 555.982 87.9422 566.716 117.968 567.786C137.623 568.48 157.293 568.043 176.964 567.907L49.6434 784.082L2 827C14.5901 820.352 26.4859 809.845 40.9631 813.809C42.8048 814.322 45.0238 813.628 46.8504 812.664C59.3047 806.076 72.2724 800.815 84.0172 792.253C120.459 765.706 156.146 737.199 191.728 708.39C226.841 679.944 259.132 645.452 293.973 616.448C309.13 603.83 319.743 583.434 330.838 564.997C330.959 564.802 331.065 564.605 331.185 564.409L332.167 564.364C341.677 571.51 351.958 567.771 361.785 567.545C371.356 567.334 380.942 565.857 390.573 565.48C435.711 563.731 480.878 563.957 526 562.736C563.272 561.726 600.499 556.736 637.742 553.721C655.51 552.274 673.278 550.721 691.076 550.239C722.672 549.395 754.314 547.857 785.88 549.274C830.474 551.264 875.037 551.113 919.631 551.309C954.639 551.46 988.544 543.682 1022.16 529.21C1060.22 512.823 1087.11 480.08 1105 431.253C1110.99 414.881 1112.38 396.715 1114.16 378.942C1116.29 357.732 1117.48 336.28 1116.82 314.798L1116.79 314.813Z" fill="white" stroke="black" stroke-width="3.99999" stroke-linecap="round" stroke-linejoin="round"/>
<path d="M452.927 305.939C450.554 310.566 449.634 315.419 448.421 320.179C448.247 320.832 448.154 321.512 447.967 322.166C447.567 323.592 446.754 324.619 445.167 324.699C443.474 324.779 442.421 323.845 441.941 322.299C440.887 318.872 439.927 315.419 438.847 312.005C438.354 310.459 438.034 308.819 436.514 306.926C435.86 313.032 434.794 318.539 435.221 324.179C435.541 328.379 434.421 332.432 433.941 336.552C433.754 338.139 432.767 339.285 430.98 339.112C429.26 338.952 428.354 337.672 428.3 336.152C428.22 334.045 428.674 331.925 428.701 329.805C428.807 318.592 431.154 307.499 430.661 296.246C430.607 294.992 430.78 293.726 430.927 292.486C431.1 290.992 431.514 289.539 433.287 289.246C434.994 288.952 436.101 290.032 436.727 291.392C438.367 294.899 439.888 298.459 441.381 302.019C442.194 303.979 442.807 306.032 443.567 308.019C443.794 308.592 443.847 309.499 444.781 309.379C445.447 309.285 445.5 308.539 445.7 308.019C447.274 304.045 448.301 299.912 449.434 295.806C450.101 293.379 450.807 290.379 453.941 290.606C457.101 290.832 457.167 294.046 457.714 296.446C459.474 304.259 458.647 312.259 459.367 320.166C459.727 324.099 459.541 328.085 460.327 332.005C460.754 334.085 460.487 336.192 458.06 336.606C455.407 337.059 454.674 334.939 454.314 332.792C453.647 328.859 453.674 324.899 453.607 320.926C453.527 315.939 453.18 310.952 452.954 305.965L452.927 305.939Z" fill="black"/>
<path d="M666.459 330.779C668.326 326.539 670.539 322.419 671.966 318.045C674.126 311.419 677.513 305.245 679.073 298.405C679.42 296.885 680.393 295.632 682.113 295.832C684.139 296.072 684.153 297.765 684.246 299.379C684.646 306.232 685.059 313.099 685.579 319.939C685.753 322.232 686.286 324.499 687.259 326.899C688.619 326.019 688.566 324.699 688.819 323.579C690.646 315.259 691.94 306.832 694.406 298.659C694.659 297.832 694.859 296.965 695.232 296.192C695.752 295.099 696.739 294.725 697.899 294.885C699.126 295.059 699.832 295.872 699.872 297.045C699.912 298.085 699.819 299.192 699.539 300.192C697.392 307.952 695.886 315.845 694.512 323.752C693.872 327.445 692.219 330.725 690.686 334.072C689.926 335.739 688.766 336.792 686.899 336.685C685.032 336.592 683.886 335.418 683.366 333.698C681.713 328.232 680.193 322.725 680.059 316.952C680.033 315.805 680.059 314.672 680.059 312.978C678.806 314.178 678.646 315.245 678.366 316.192C676.553 322.259 673.526 327.805 671.166 333.632C670.126 336.192 668.139 337.632 665.246 337.432C662.526 337.245 661.593 335.218 660.833 333.032C660.286 331.445 660.259 329.805 660.219 328.152C659.939 318.765 660.579 309.365 659.792 299.992C659.659 298.472 659.939 296.899 660.166 295.379C660.366 294.072 660.913 292.832 662.499 292.885C664.179 292.939 664.833 294.219 664.886 295.672C665.019 299.445 665.126 303.232 665.046 307.005C664.886 314.365 665.126 321.712 665.526 329.072C665.553 329.619 665.699 330.152 665.806 330.698C666.033 330.725 666.246 330.739 666.473 330.765L666.459 330.779Z" fill="black"/>
<path d="M224.608 239.526C220.675 254.206 216.728 268.872 212.835 283.566C212.262 285.726 212.075 288.006 211.488 290.166C210.302 294.499 207.915 297.792 203.048 298.179C197.861 298.592 194.275 295.966 192.728 291.246C189.728 282.112 187.141 272.845 184.341 263.632C182.155 256.459 180.488 249.032 173.995 240.366C173.715 260.686 168.315 277.659 170.635 295.392C172.488 309.619 167.608 323.299 166.182 337.272C165.688 342.072 162.195 345.632 156.902 345.299C151.675 344.952 149.115 341.059 148.422 336.246C147.928 332.779 147.888 329.179 148.195 325.685C150.742 297.299 150.342 268.686 154.675 240.446C156.488 228.619 155.315 216.739 155.662 204.899C155.782 201.059 155.728 197.192 156.088 193.366C156.542 188.539 158.822 184.632 163.728 183.326C169.008 181.926 172.528 185.246 174.635 189.326C180.955 201.566 186.995 213.966 190.888 227.273C193.115 234.899 195.075 242.672 200.528 250.499C205.222 243.699 206.915 236.606 209.008 229.819C211.755 220.939 213.822 211.846 216.435 202.926C218.435 196.153 220.182 188.406 229.208 188.219C239.102 188.019 240.635 196.473 242.195 203.513C244.208 212.553 246.315 221.886 246.181 231.046C245.861 251.606 249.048 271.992 248.435 292.512C248.141 302.232 249.981 311.632 251.688 321.112C252.888 327.739 252.688 334.792 244.222 336.312C235.742 337.832 233.341 331.472 232.061 324.672C229.501 311.059 228.861 297.299 229.341 283.486C229.835 268.859 227.768 254.419 224.608 239.512V239.526Z" fill="#55ADE1"/>
<path d="M591.047 315.672C591.14 310.632 592.713 304.326 596.647 298.739C600.82 292.792 607.086 290.366 614.18 292.032C617.62 292.832 621.367 292.792 623.887 295.979C626.487 299.272 628.06 302.939 628.313 307.126C628.406 308.672 628.02 310.179 626.233 310.473C624.433 310.766 623.686 309.446 623.18 307.979C623.06 307.619 622.98 307.233 622.887 306.859C620.967 299.166 614.3 295.379 606.673 297.686C605.86 297.926 605.047 298.353 604.367 298.873C597.713 303.966 594.58 316.299 597.94 324.072C600.353 329.659 609.18 334.846 616.247 332.206C618.86 331.233 620.887 327.219 620.033 324.566C619.687 323.486 618.953 323.326 618.006 323.419C616.273 323.606 614.54 323.766 612.807 323.953C611.26 324.126 609.7 324.272 608.193 323.792C606.807 323.352 605.62 322.566 605.793 320.939C605.966 319.219 607.273 318.419 608.873 318.472C611.806 318.579 614.66 318.046 617.54 317.672C622.766 317.019 625.766 319.632 625.98 325.006C626.3 333.152 620.353 338.926 611.7 338.566C601.5 338.139 590.5 329.779 591.047 315.672Z" fill="black"/>
<path d="M579.728 327.605C580.008 322.179 581.382 317.299 580.582 312.259C579.715 306.752 580.474 301.245 580.488 295.739C580.488 293.885 581.274 292.085 583.488 292.192C585.688 292.299 585.941 294.192 585.728 295.899C584.541 305.832 587.208 315.819 585.315 325.738C584.808 328.405 584.515 331.112 583.942 333.752C583.528 335.632 582.501 337.245 580.368 337.499C578.088 337.765 577.101 336.098 576.368 334.352C575.008 331.045 573.435 327.805 572.648 324.272C571.275 318.125 567.728 312.992 565.155 307.405C564.901 307.432 564.648 307.472 564.382 307.499C564.382 310.152 564.222 312.805 564.408 315.445C564.848 321.565 564.208 327.632 563.595 333.698C563.528 334.365 563.421 335.045 563.235 335.698C562.901 336.912 562.208 337.832 560.808 337.765C559.435 337.698 558.701 336.752 558.488 335.539C558.301 334.405 558.208 333.192 558.395 332.072C560.061 321.778 558.968 311.392 559.368 301.059C559.435 299.512 559.368 297.939 559.621 296.432C559.888 294.845 560.701 293.405 562.515 293.205C564.408 292.992 565.262 294.365 565.808 295.912C569.488 306.419 576.341 315.579 578.875 326.579C578.928 326.805 579.195 326.992 579.728 327.632V327.605Z" fill="black"/>
<path d="M741.58 319.672C741.087 325.259 740.66 330.245 740.22 335.232C740.167 335.899 740.114 336.605 739.914 337.232C739.5 338.539 738.674 339.472 737.167 339.339C735.674 339.192 735.033 338.112 734.82 336.765C734.727 336.205 734.727 335.592 734.82 335.032C736.527 322.632 736.727 310.125 737.5 297.659C737.767 293.405 740.26 291.232 744.634 291.712C748.287 292.112 751.927 292.859 755.38 294.192C760.42 296.139 763.14 301.259 762.007 306.592C760.713 312.686 756.873 316.499 750.98 318.125C748.66 318.765 748.474 319.432 749.741 321.419C752.927 326.405 756.007 331.445 759.873 335.952C761.1 337.365 761.967 339.085 760.167 340.525C758.394 341.952 756.86 340.699 755.66 339.339C752.26 335.472 749.407 331.205 746.767 326.779C745.394 324.472 744.02 322.112 741.58 319.672ZM747.287 313.552C749.833 313.619 752.42 312.419 754.554 310.286C756.887 307.952 757.354 305.099 756.554 301.979C755.847 299.192 753.42 298.792 751.22 298.179C749.367 297.672 747.447 297.326 745.554 296.939C743.474 296.526 742.474 297.326 742.474 299.525C742.474 302.619 742.42 305.712 742.233 308.792C742.02 312.499 743.007 313.605 747.274 313.552H747.287Z" fill="black"/>
<path d="M462.768 330.499C462.688 324.219 465.061 318.312 465.474 312.125C465.794 307.445 466.834 302.939 468.594 298.592C468.954 297.699 469.261 296.752 469.754 295.939C471.554 293.019 473.82 290.486 477.594 290.886C481.394 291.299 483.447 293.912 484.501 297.459C485.354 300.352 485.98 303.299 486.287 306.272C487.06 313.899 488.847 321.352 490.021 328.899C490.301 330.699 491.061 332.419 491.661 334.152C492.154 335.592 492.114 336.872 490.647 337.672C489.22 338.445 488.007 337.885 487.034 336.765C485.567 335.085 485.3 332.925 484.7 330.885C484.02 328.579 484.594 325.752 482.941 323.952C481.154 321.979 478.314 323.325 475.967 322.899C467.941 321.445 469.368 322.819 468.434 328.779C468.154 330.592 468.288 332.459 468.021 334.272C467.781 335.885 467.034 337.392 465.114 337.325C463.074 337.245 462.768 335.645 462.768 333.965C462.768 332.805 462.768 331.645 462.768 330.472V330.499ZM478.234 317.659C479.127 316.899 482.074 318.872 481.807 315.832C481.287 310.165 480.927 304.445 479.18 298.965C478.847 297.912 478.407 296.845 477.247 296.632C475.794 296.365 475.221 297.659 474.741 298.645C472.901 302.405 471.714 306.405 471.247 310.552C470.461 317.445 470.674 317.605 478.247 317.659H478.234Z" fill="black"/>
<path d="M857.408 331.619C857.341 325.353 859.701 319.433 860.114 313.246C860.434 308.553 861.501 304.059 863.247 299.713C863.567 298.899 863.834 298.059 864.274 297.312C866.087 294.272 868.38 291.633 872.287 292.073C876.087 292.499 878.114 295.139 879.154 298.699C880.007 301.593 880.634 304.539 880.927 307.526C881.7 315.153 883.487 322.606 884.661 330.153C884.927 331.859 885.607 333.499 886.207 335.139C886.754 336.659 886.861 338.059 885.221 338.899C883.634 339.726 882.394 338.939 881.434 337.699C880.154 336.032 879.874 333.979 879.314 332.032C878.647 329.726 879.234 326.899 877.54 325.113C875.727 323.193 872.914 324.433 870.554 324.099C863.807 323.166 863.781 323.219 863.061 330.032C862.861 331.859 862.928 333.726 862.661 335.539C862.421 337.153 861.634 338.646 859.701 338.526C857.674 338.393 857.394 336.779 857.408 335.113C857.408 333.953 857.408 332.793 857.408 331.619ZM872.874 318.833C873.767 318.073 876.727 320.046 876.447 317.006C875.941 311.339 875.567 305.619 873.82 300.139C873.487 299.086 873.047 298.019 871.887 297.793C870.434 297.513 869.861 298.806 869.381 299.793C867.541 303.553 866.354 307.553 865.887 311.699C865.101 318.566 865.34 318.753 872.874 318.819V318.833Z" fill="black"/>
<path d="M293.581 317.966C293.715 323.072 293.315 327.499 291.261 331.593C286.488 341.099 272.928 341.886 266.648 333.379C262.088 327.206 261.688 320.553 262.808 313.499C263.448 309.486 263.994 305.393 265.661 301.659C267.794 296.873 270.888 293.006 276.701 292.539C282.594 292.059 286.781 294.566 289.461 299.766C291.981 304.673 293.315 309.873 293.568 315.366C293.621 316.433 293.568 317.499 293.568 317.966H293.581ZM288.235 318.166C288.341 312.966 287.501 307.953 285.221 303.219C283.635 299.926 281.541 297.646 277.475 297.793C273.581 297.926 271.688 300.473 270.528 303.486C268.581 308.566 267.221 313.926 267.648 319.379C267.928 323.046 268.754 326.739 270.968 330.033C273.128 333.259 275.995 334.073 279.461 333.779C282.821 333.499 285.274 331.819 286.661 328.699C288.154 325.339 288.315 321.766 288.235 318.166Z" fill="black"/>
<path d="M731.286 319.125C731.42 324.232 731.02 328.659 728.967 332.752C724.193 342.259 710.633 343.045 704.353 334.539C699.793 328.352 699.393 321.699 700.513 314.659C701.153 310.645 701.7 306.552 703.366 302.819C705.513 298.032 708.607 294.179 714.407 293.699C720.3 293.219 724.486 295.726 727.166 300.925C729.686 305.832 731.02 311.032 731.273 316.525C731.326 317.592 731.273 318.659 731.273 319.112L731.286 319.125ZM725.953 319.219C726.073 314.259 725.259 309.152 722.899 304.339C721.353 301.179 719.366 298.912 715.42 298.952C711.38 298.992 709.406 301.579 708.206 304.712C706.3 309.699 704.98 314.965 705.34 320.312C705.593 324.098 706.446 327.859 708.7 331.245C710.86 334.472 713.753 335.245 717.22 334.939C720.58 334.645 723.02 332.939 724.393 329.805C725.833 326.525 726.02 323.059 725.94 319.219H725.953Z" fill="black"/>
<path d="M989.607 319.338C988.18 323.925 988.753 327.952 988.087 331.792C987.713 333.898 988.273 337.032 985.127 336.778C981.7 336.498 982.82 333.418 983.047 331.205C984.087 320.899 984.727 310.565 984.994 300.205C985.14 294.539 987.66 292.352 993.26 293.259C995.26 293.579 997.247 294.059 999.22 294.565C1003.49 295.659 1006.94 297.592 1007.81 302.485C1008.65 307.205 1007.17 311.059 1003.79 314.285C1002.01 315.992 999.793 317.032 997.42 317.619C995.873 317.992 995.46 318.645 996.38 320.032C999.274 324.378 1001.7 329.045 1005.29 332.925C1005.62 333.285 1005.94 333.645 1006.22 334.032C1007.11 335.312 1007.66 336.712 1006.3 337.952C1004.81 339.312 1003.39 338.592 1002.25 337.352C999.194 334.085 996.713 330.379 994.367 326.592C992.967 324.325 991.46 322.138 989.607 319.325V319.338ZM989.834 305.312C989.834 305.312 989.767 305.312 989.727 305.312C989.727 306.952 989.74 308.605 989.727 310.245C989.713 311.739 990.5 312.538 991.847 312.992C996.74 314.632 1003.25 309.845 1003.09 304.712C1002.98 301.205 1001.66 300.112 996.087 298.832C992.007 297.899 989.927 299.481 989.847 303.579C989.847 304.165 989.847 304.738 989.847 305.325L989.834 305.312Z" fill="black"/>
<path d="M502.634 295.739C501.954 300.886 502.1 305.926 502.153 310.966C502.153 311.993 501.607 313.366 502.581 313.966C503.607 314.593 504.514 313.379 505.34 312.819C511.754 308.459 518.113 304.033 524.487 299.62C525.127 299.18 525.727 298.686 526.381 298.273C527.607 297.473 528.914 296.993 530.034 298.313C531.207 299.699 530.367 300.899 529.287 301.833C525.247 305.313 520.807 308.286 516.447 311.353C514.38 312.793 512.273 314.179 510.153 315.539C508.82 316.393 508.674 317.073 510.087 318.073C515.714 322.059 520.554 326.939 525.407 331.806C526.581 332.979 527.727 334.193 526.354 335.766C525.061 337.246 523.46 336.673 522.194 335.619C520.487 334.193 518.754 332.726 517.354 331.019C514.434 327.419 510.367 325.193 506.994 322.153C506.434 321.646 505.687 321.326 504.98 321.006C502.647 319.966 501.767 320.499 501.581 323.019C501.354 326.113 501.167 329.206 500.954 332.299C500.914 332.979 500.901 333.659 500.741 334.313C500.341 335.939 499.58 337.353 497.62 337.086C495.794 336.833 495.434 335.326 495.527 333.779C495.647 331.459 495.901 329.153 496.101 326.833C496.967 316.406 496.834 305.939 497.274 295.499C497.327 294.339 497.421 293.179 497.607 292.033C497.807 290.779 498.487 289.806 499.86 289.779C501.38 289.739 502.14 290.779 502.367 292.139C502.567 293.379 502.554 294.646 502.62 295.779L502.634 295.739Z" fill="black"/>
<path d="M772.647 299.673C771.98 304.673 772.287 310.113 772.18 315.526C772.14 317.793 772.793 318.086 774.62 316.859C781.367 312.299 788.207 307.886 794.727 303.006C795.58 302.366 796.447 301.726 797.393 301.273C798.447 300.753 799.5 300.926 800.233 301.953C800.9 302.886 800.714 303.833 799.994 304.606C799.287 305.393 798.5 306.126 797.66 306.766C792.274 310.899 786.714 314.793 780.994 318.433C779.207 319.566 778.367 320.473 780.754 322.059C786.26 325.739 790.727 330.606 795.42 335.219C796.593 336.366 797.82 337.553 796.487 339.166C795.113 340.819 793.433 340.126 792.127 338.979C790.167 337.259 788.26 335.446 786.5 333.513C783.407 330.099 779.633 327.539 775.9 324.979C772.9 322.926 771.807 323.713 771.634 327.286C771.474 330.473 771.26 333.673 770.967 336.846C770.794 338.753 770.26 340.779 767.807 340.553C765.46 340.326 765.447 338.259 765.647 336.486C767.02 324.153 766.873 311.739 767.34 299.366C767.367 298.499 767.367 297.619 767.487 296.753C767.7 295.099 767.887 293.179 770.14 293.299C772.287 293.406 772.514 295.26 772.634 296.953C772.687 297.726 772.634 298.499 772.634 299.686L772.647 299.673Z" fill="black"/>
<path d="M901.593 339.179C897.14 338.792 893.007 337.446 890.313 333.312C889.14 331.512 888.687 329.579 890.767 328.206C892.794 326.873 893.873 328.512 894.953 329.992C898.233 334.512 905.754 334.939 909.634 330.872C911.54 328.873 910.794 324.472 907.887 322.432C904.727 320.219 901.313 318.352 898.007 316.312C896.94 315.659 895.74 315.099 894.873 314.233C887.887 307.179 890.607 300.299 897.98 295.846C903.713 292.393 909.38 293.806 914.474 297.752C916.674 299.459 917.78 301.753 917.687 304.579C917.634 306.046 917.233 307.366 915.567 307.606C913.86 307.846 913.007 306.673 912.873 305.206C912.367 299.779 903.407 296.779 898.38 301.846C894.914 305.339 895.513 308.886 899.927 311.606C902.9 313.433 905.94 315.139 908.967 316.886C913.634 319.566 916.3 323.352 915.94 328.966C915.727 332.246 914.34 334.659 911.407 336.219C908.38 337.819 905.233 339.032 901.593 339.192V339.179Z" fill="black"/>
<path d="M344.688 340.339C340.181 339.979 335.968 338.619 333.235 334.379C332.128 332.672 331.741 330.819 333.595 329.459C335.541 328.032 336.728 329.485 337.835 331.005C341.195 335.632 348.275 336.166 352.475 332.139C354.555 330.152 353.821 325.632 350.768 323.512C347.595 321.299 344.181 319.446 340.875 317.419C339.888 316.806 338.768 316.326 337.968 315.512C331.541 308.952 332.501 302.539 340.555 297.232C346.141 293.566 352.741 294.726 357.768 299.152C359.674 300.832 360.714 302.952 360.661 305.552C360.634 307.126 360.248 308.579 358.421 308.766C356.728 308.939 356.021 307.686 355.808 306.232C355.275 302.592 352.435 301.286 349.541 300.566C346.501 299.819 343.514 300.752 341.288 303.072C337.941 306.552 338.475 309.965 342.768 312.645C345.808 314.539 348.954 316.272 352.048 318.072C356.594 320.712 359.221 324.432 358.928 329.926C358.741 333.326 357.328 335.819 354.275 337.405C351.315 338.952 348.274 340.112 344.674 340.325L344.688 340.339Z" fill="black"/>
<path d="M321.542 314.765C321.222 308.232 323.235 301.912 323.248 295.405C323.248 294.232 323.942 293.365 325.195 293.232C326.528 293.085 327.368 293.845 327.942 294.965C328.862 296.752 328.328 298.632 328.048 300.392C326.848 307.672 327.275 315.072 326.262 322.352C325.062 331.032 319.275 336.325 310.542 337.259C306.568 337.685 301.941 334.405 300.288 330.072C298.515 325.405 298.662 320.552 298.902 315.712C299.168 310.298 299.555 304.899 299.928 299.485C300.008 298.232 300.128 296.965 300.435 295.752C300.782 294.365 301.542 293.099 303.235 293.432C304.902 293.765 305.115 295.178 305.035 296.632C304.728 302.432 304.382 308.232 304.142 314.032C304.022 317.032 304.062 320.045 304.048 323.045C304.048 324.818 304.395 326.525 305.048 328.152C306.275 331.192 308.862 332.445 312.048 331.778C316.848 330.765 319.608 327.778 320.848 323.152C321.595 320.392 321.528 317.592 321.515 314.778L321.542 314.765Z" fill="black"/>
<path d="M971.419 337.579C968.513 337.339 965.326 337.126 962.139 336.819C958.606 336.472 957.232 335.166 957.232 331.606C957.232 327.152 957.339 322.686 957.779 318.259C958.379 312.352 958.206 306.446 958.232 300.539C958.232 296.459 959.38 294.939 963.38 294.019C966.406 293.326 969.473 292.859 972.526 292.299C974.006 292.032 975.433 292.312 976.833 292.726C978.113 293.099 979.299 293.699 979.059 295.299C978.833 296.832 977.579 297.259 976.232 297.273C973.019 297.273 969.859 297.539 966.686 298.086C963.726 298.592 962.726 300.099 963.166 302.912C963.633 305.899 963.739 308.899 963.246 311.886C962.899 314.019 963.912 314.646 965.819 314.712C968.619 314.806 971.446 314.419 974.232 315.086C975.886 315.486 977.752 315.872 977.259 318.126C976.832 320.086 975.073 320.139 973.473 319.792C970.766 319.206 968.06 319.619 965.353 319.499C963.793 319.432 963.113 320.099 962.913 321.672C962.593 324.179 962.366 326.672 962.393 329.206C962.406 331.166 963.299 331.979 965.206 332.072C968.299 332.219 971.392 332.486 974.486 332.699C976.246 332.819 977.993 333.192 977.966 335.352C977.939 337.712 975.979 337.566 974.312 337.592C973.446 337.606 972.566 337.592 971.406 337.592L971.419 337.579Z" fill="black"/>
<path d="M365.607 329.978C365.954 324.378 366.287 318.779 366.674 313.192C366.86 310.472 366.781 307.792 366.501 305.085C365.914 299.352 367.394 297.285 372.954 296.059C376.447 295.285 379.967 294.525 383.594 294.899C385.154 295.059 386.967 295.312 386.914 297.365C386.861 299.445 385.034 299.605 383.461 299.579C380.447 299.539 377.474 299.912 374.514 300.379C372.447 300.699 371.474 301.632 371.554 303.832C371.687 307.112 371.674 310.419 371.581 313.699C371.527 315.725 372.394 316.459 374.34 316.472C377.047 316.472 379.767 316.205 382.434 316.952C383.887 317.352 385.501 317.792 385.167 319.685C384.821 321.658 383.114 321.845 381.501 321.512C378.794 320.952 376.087 321.325 373.394 321.245C372.207 321.205 371.261 321.512 371.154 322.912C370.954 325.419 370.754 327.925 370.581 330.432C370.447 332.299 371.194 333.298 373.221 333.365C375.927 333.445 378.62 333.765 381.327 333.939C382.394 334.005 383.461 334.059 384.434 334.565C385.434 335.099 386.167 335.872 385.967 337.112C385.794 338.205 384.98 338.792 383.967 338.939C382.927 339.099 381.847 339.192 380.794 339.112C377.607 338.885 374.421 338.619 371.261 338.232C366.314 337.632 365.701 336.885 365.714 332.005C365.714 331.325 365.714 330.645 365.714 329.978C365.687 329.978 365.66 329.978 365.634 329.978H365.607Z" fill="black"/>
<path d="M847.832 293.606C849.486 293.606 851.126 293.566 852.779 293.606C854.219 293.646 856.019 293.472 856.059 295.539C856.086 297.499 854.299 297.659 852.886 297.792C849.606 298.072 846.312 298.205 843.032 298.392C842.832 298.392 842.645 298.419 842.459 298.432C838.779 298.805 836.85 300.823 836.672 304.486C836.526 307.379 836.245 310.272 836.152 313.179C836.059 316.219 836.819 317.019 839.912 316.792C842.752 316.579 845.512 317.046 848.312 317.219C849.979 317.312 852.286 317.392 852.099 319.819C851.926 322.059 849.766 321.765 848.166 321.699C844.779 321.552 841.392 321.379 838.032 320.992C836.126 320.765 835.632 321.472 835.632 323.192C835.632 326.286 835.592 329.392 835.446 332.485C835.392 333.619 835.059 334.779 834.659 335.859C834.259 336.939 833.379 337.605 832.139 337.339C830.926 337.085 830.232 336.152 830.339 335.019C831.499 323.072 830.392 311.005 832.392 299.112C833.059 295.179 833.673 294.859 837.739 294.379C841.113 293.979 844.472 293.566 847.872 293.619L847.832 293.606Z" fill="black"/>
<path d="M937.566 295.459C941.832 295.459 946.086 295.459 950.353 295.459C952.059 295.459 953.993 295.566 954.019 297.779C954.046 300.019 952.019 300.126 950.379 300.179C947.673 300.273 944.952 300.179 942.232 300.179C941.126 300.179 940.153 300.219 940.073 301.819C939.619 310.233 939.033 318.633 938.606 327.033C938.513 328.953 938.926 330.886 938.952 332.819C938.979 334.473 938.512 336.073 936.512 336.153C934.539 336.233 933.992 334.766 933.779 333.059C933.072 327.446 933.726 321.846 933.993 316.246C934.206 311.806 934.606 307.366 934.939 302.926C935.073 301.179 934.459 300.273 932.553 300.073C929.553 299.766 926.553 300.513 923.553 299.873C922.086 299.553 920.446 299.419 920.539 297.446C920.632 295.419 922.286 295.046 923.913 295.033C928.473 294.979 933.019 295.019 937.579 295.019C937.579 295.166 937.579 295.299 937.579 295.446L937.566 295.459Z" fill="black"/>
<path d="M539.86 338.566C538.407 338.566 536.953 338.632 535.5 338.539C534.1 338.446 533.1 337.726 532.914 336.246C532.74 334.886 533.487 333.832 534.7 333.606C537.247 333.139 537.46 331.472 537.567 329.352C537.993 319.872 538.38 310.392 539.393 300.965C539.553 299.459 539.327 298.579 537.66 298.299C536.22 298.059 535.034 297.299 535.22 295.592C535.407 293.872 536.833 293.392 538.207 293.406C542.273 293.459 546.327 293.632 550.393 293.899C551.86 293.992 553.047 294.846 552.887 296.539C552.74 298.086 551.5 298.459 550.14 298.606C544.833 299.166 545.14 299.219 544.38 304.472C543.22 312.552 543.3 320.672 542.846 328.779C542.726 330.925 542.66 332.819 545.447 333.405C546.78 333.685 547.514 334.859 547.274 336.312C547.06 337.659 546.033 338.299 544.793 338.379C543.153 338.499 541.5 338.405 539.86 338.405C539.86 338.459 539.86 338.499 539.86 338.552V338.566Z" fill="black"/>
<path d="M410.741 333.952C410.675 336.392 408.862 338.259 406.582 338.246C403.955 338.246 401.061 335.606 401.088 333.259C401.115 330.966 403.155 329.112 405.501 329.259C408.675 329.459 410.821 331.379 410.741 333.939V333.952Z" fill="black"/>
<path d="M405.741 323.513C403.421 323.486 401.928 322.006 401.968 319.753C402.021 317.073 404.328 315.033 407.194 315.126C409.501 315.206 411.114 316.9 411.114 319.233C411.114 321.926 409.074 323.553 405.728 323.513H405.741Z" fill="black"/>
</svg>
