<svg width="883" height="656" viewBox="0 0 883 656" fill="none" xmlns="http://www.w3.org/2000/svg">
<path d="M2.87894 249.22C3.90561 215.113 6.33228 181.127 14.9723 149.007C27.2656 103.287 47.8388 66.327 77.5454 40.3137C94.3987 25.5537 113.119 18.9538 132.812 15.5804C162.092 10.5671 191.452 9.84711 220.838 9.39378C249.958 8.94045 279.065 9.30047 308.185 11.7538C320.358 12.7805 332.598 13.7405 344.838 14.0472C374.611 14.7805 404.398 16.3938 434.171 16.6471C468.171 16.9404 502.184 16.8338 536.171 15.6205C561.144 14.7272 586.037 10.9271 610.837 6.39379C621.251 4.48713 631.704 3.07381 642.184 2.82047C658.184 2.43381 674.184 2.42053 690.184 2.79386C713.424 3.34053 736.53 5.84717 759.544 10.9405C778.143 15.0471 795.45 23.1271 810.823 38.407C827.357 54.8337 842.263 73.3136 850.943 100.14C859.25 125.807 865.703 152.18 869.543 179.86C871.596 194.593 875.237 209.14 875.81 223.953C876.357 238.06 878.503 251.94 878.197 266.1C877.85 282.073 880.596 297.913 879.463 313.9C878.317 330.166 878.677 346.46 875.823 362.753C872.037 384.353 864.717 401.419 852.983 416.299C834.743 439.446 813.143 447.913 789.503 448.753C774.023 449.299 758.53 448.953 743.037 448.846L843.317 619.325L880.85 653.179C870.93 647.939 861.557 639.645 850.17 642.765C848.717 643.165 846.97 642.619 845.53 641.859C835.717 636.672 825.517 632.512 816.263 625.765C787.557 604.832 759.45 582.352 731.437 559.632C703.784 537.192 678.357 509.992 650.917 487.113C638.984 477.166 630.611 461.073 621.891 446.526C621.797 446.379 621.704 446.219 621.624 446.059L620.851 446.033C613.357 451.659 605.264 448.713 597.517 448.539C589.984 448.366 582.424 447.206 574.851 446.913C539.304 445.526 503.731 445.713 468.184 444.753C438.824 443.953 409.518 440.019 380.185 437.633C366.198 436.499 352.198 435.259 338.185 434.886C313.305 434.219 288.385 433.006 263.532 434.126C228.412 435.699 193.305 435.579 158.199 435.739C130.625 435.859 103.919 429.713 77.4521 418.313C47.4788 405.393 26.3055 379.566 12.2122 341.06C7.49226 328.153 6.39893 313.82 4.99893 299.806C3.31894 283.086 2.3856 266.153 2.90559 249.22H2.87894Z" fill="white" stroke="black" stroke-width="3.99999" stroke-linecap="round" stroke-linejoin="round"/>
<path d="M306.985 247.913C306.438 253.606 305.292 259.086 305.745 264.686C306.092 268.9 304.931 272.94 304.478 277.06C304.305 278.633 303.372 279.82 301.585 279.713C299.852 279.606 299.092 278.34 298.798 276.82C298.398 274.78 299.172 272.793 299.198 270.766C299.318 259.353 301.665 248.086 301.172 236.633C301.118 235.38 301.305 234.127 301.465 232.873C301.652 231.473 302.105 230.167 303.718 229.847C305.278 229.54 306.371 230.42 307.051 231.66C308.958 235.14 310.531 238.793 311.878 242.526C312.638 244.62 313.371 246.713 314.145 248.806C314.345 249.326 314.491 250.046 315.211 249.993C315.905 249.94 315.972 249.206 316.185 248.686C317.585 245.073 318.651 241.353 319.598 237.593C320.025 235.913 320.371 234.18 321.478 232.753C323.411 230.273 325.891 230.46 327.091 233.353C328.785 237.42 329.171 241.82 329.305 246.153C329.585 255.14 329.598 264.14 330.891 273.073C331.171 274.98 330.705 276.766 328.625 277.18C326.331 277.646 325.251 276.006 324.945 274.006C324.518 271.233 323.958 268.473 324.131 265.646C324.505 259.26 323.411 252.94 322.851 246.38C322.358 247.873 321.798 249.34 321.411 250.846C320.491 254.406 319.651 257.993 318.798 261.566C318.358 263.42 317.891 265.286 315.478 265.286C313.278 265.286 312.638 263.62 312.118 261.873C311.012 258.166 309.918 254.446 308.731 250.753C308.425 249.806 308.358 248.646 306.971 247.913H306.985Z" fill="black"/>
<path d="M410.025 245.806C408.825 250.353 407.585 254.886 406.438 259.446C405.985 261.246 405.905 263.313 403.478 263.486C400.905 263.673 400.385 261.58 399.811 259.713C398.878 256.66 398.051 253.566 397.091 250.526C396.691 249.26 396.345 247.913 394.878 246.46C394.531 251.993 393.091 256.993 393.731 262.153C394.291 266.686 392.798 270.966 392.385 275.38C392.251 276.82 391.145 277.886 389.545 277.74C387.971 277.593 387.238 276.406 387.038 274.953C386.905 274.006 386.891 273.02 386.971 272.06C387.718 263.393 387.665 254.66 388.945 246.033C389.545 241.98 389.105 237.913 389.251 233.846C389.331 231.793 389.198 229.42 391.745 228.886C394.345 228.34 395.158 230.7 395.945 232.513C397.531 236.14 399.371 239.673 400.305 243.58C400.745 245.433 401.438 247.233 402.745 249.206C404.958 245.526 405.571 241.713 406.705 238.086C407.198 236.513 407.518 234.9 408.051 233.34C408.598 231.7 409.518 230.34 411.505 230.3C413.531 230.273 414.318 231.713 414.918 233.326C416.078 236.46 416.438 239.78 416.558 243.033C416.745 248.153 416.985 253.273 417.211 258.393C417.385 262.353 417.185 266.34 418.198 270.233C418.371 270.873 418.398 271.58 418.331 272.246C418.185 273.713 417.545 274.886 415.931 275.086C414.238 275.3 413.065 274.486 412.665 272.873C411.931 269.86 411.438 266.793 411.491 263.673C411.598 257.766 411.371 251.886 410.038 245.82L410.025 245.806Z" fill="black"/>
<path d="M639.917 278.127C637.384 278.22 635.304 278.046 633.211 278.9C630.997 279.806 629.624 278.1 629.677 275.127C629.837 266.14 629.971 257.14 630.011 248.153C630.024 245.06 629.624 241.967 629.651 238.873C629.691 233.913 632.371 230.66 638.171 232.607C643.237 234.313 647.944 236.233 650.437 241.527C652.331 245.54 651.797 249.807 647.971 253.98C646.171 255.94 646.477 256.62 648.811 257.42C654.557 259.393 656.091 264.193 656.064 268.207C656.037 272.873 652.251 276.273 646.717 277.5C644.331 278.033 641.931 278.14 639.931 278.127H639.917ZM640.424 272.726C642.171 272.846 644.157 272.46 646.157 272.06C648.437 271.606 650.277 270.58 650.437 268.047C650.597 265.567 649.637 263.5 647.197 262.407C644.251 261.1 641.117 260.487 637.944 260.087C635.797 259.807 634.891 260.913 635.011 262.966C635.104 264.7 635.344 266.433 635.371 268.167C635.437 272.753 635.411 272.753 640.424 272.726ZM634.944 242.087C634.997 242.5 635.171 243.753 635.264 245.007C635.357 246.353 635.384 247.713 635.424 249.06C635.571 254.473 636.304 254.927 641.277 252.567C641.971 252.233 642.651 251.82 643.197 251.3C647.677 247.14 647.251 243.66 642.024 239.687C641.197 239.06 640.117 238.767 639.144 238.34C635.344 236.673 634.877 237.007 634.944 242.1V242.087Z" fill="black"/>
<path d="M217.505 128.98C228.999 129.674 240.319 135.287 249.679 144.807C253.452 148.647 255.732 153.58 256.839 158.887C258.492 166.833 255.719 173.633 250.345 174.06C242.785 174.66 241.199 168.967 240.239 163.167C238.839 154.727 232.332 151.394 225.572 148.38C213.225 142.874 197.292 147.527 189.385 157.847C180.679 169.22 183.692 177.887 196.012 186.647C207.172 194.567 219.425 200.953 231.239 207.94C246.839 217.167 252.412 231.287 250.479 248.607C249.399 258.3 244.639 265.7 235.319 270.287C221.652 277.007 207.839 281.313 192.399 277.993C181.132 275.566 172.386 269.553 165.479 260.58C160.506 254.1 160.706 246.887 166.252 243.58C173.132 239.487 176.772 243.58 180.346 249.193C188.119 261.433 200.332 264.727 216.759 258.98C223.932 256.46 232.452 254.833 233.452 244.74C234.492 234.113 230.319 226.367 221.065 220.993C209.199 214.113 197.265 207.3 185.812 199.767C175.106 192.727 166.706 182.647 166.999 169.66C167.319 155.633 175.532 144.287 187.386 136.607C195.745 131.18 205.465 129.22 217.519 128.954L217.505 128.98Z" fill="#55ADE1"/>
<path d="M455.825 245.367C455.825 248.66 455.679 251.527 455.852 254.38C456.239 260.407 455.585 266.367 454.945 272.34C454.759 274.06 454.545 276.18 452.119 275.953C449.839 275.74 449.665 273.727 449.745 271.94C449.932 267.3 451.185 262.713 450.812 258.047C450.292 251.367 451.132 244.7 450.799 238.02C450.732 236.673 450.719 235.3 451.225 233.993C451.732 232.66 452.505 231.527 454.065 231.42C455.652 231.313 456.492 232.38 457.079 233.7C458.785 237.607 460.305 241.593 462.239 245.38C465.532 251.847 468.932 258.247 470.625 265.447C471.998 259.247 472.425 253.167 471.785 246.9C471.332 242.513 471.745 238.02 471.958 233.567C472.038 231.807 472.945 230.233 475.012 230.407C476.838 230.553 477.332 232.1 477.158 233.647C475.985 243.78 478.612 253.953 476.732 264.073C476.238 266.74 475.932 269.447 475.332 272.087C474.905 273.967 473.839 275.54 471.692 275.74C469.572 275.927 468.572 274.407 467.892 272.74C466.678 269.78 465.212 266.873 464.505 263.793C463.039 257.447 459.652 252.007 456.905 246.26C456.799 246.047 456.519 245.913 455.865 245.367H455.825Z" fill="black"/>
<path d="M514.225 270.5C514.145 264.22 516.518 258.313 516.931 252.126C517.251 247.447 518.291 242.94 520.051 238.593C520.411 237.7 520.705 236.753 521.211 235.94C523.011 233.02 525.265 230.486 529.051 230.886C532.851 231.3 534.905 233.9 535.958 237.46C536.811 240.353 537.438 243.3 537.745 246.273C538.518 253.9 540.305 261.353 541.478 268.9C541.758 270.7 542.505 272.42 543.118 274.153C543.611 275.593 543.571 276.873 542.105 277.673C540.678 278.446 539.465 277.886 538.491 276.766C537.025 275.086 536.758 272.926 536.158 270.886C535.478 268.58 536.038 265.753 534.398 263.953C532.611 261.98 529.771 263.313 527.438 262.9C519.398 261.433 520.825 262.86 519.905 268.78C519.625 270.593 519.758 272.46 519.491 274.273C519.251 275.886 518.505 277.393 516.585 277.326C514.545 277.246 514.238 275.646 514.238 273.966C514.238 272.806 514.238 271.646 514.238 270.473L514.225 270.5ZM529.318 257.66C530.505 257.02 533.518 258.953 533.238 255.753C532.745 250.193 532.371 244.566 530.678 239.166C530.318 238.02 529.905 236.807 528.611 236.62C527.198 236.407 526.611 237.713 526.131 238.713C524.331 242.487 523.131 246.486 522.678 250.633C521.931 257.446 522.105 257.553 529.318 257.66Z" fill="black"/>
<path d="M701.864 280.58C696.877 280.647 692.837 278.94 689.784 275.087C688.984 274.073 688.317 273.02 688.304 271.7C688.304 270.233 688.784 268.98 690.277 268.473C691.677 268.007 692.69 268.687 693.53 269.767C697.584 274.98 701.93 275.993 707.917 273.14C712.01 271.193 712.81 267.193 709.81 263.687C708.65 262.34 707.157 261.433 705.664 260.54C702.504 258.647 699.184 257.007 696.197 254.86C687.41 248.54 687.437 240.287 696.744 233.94C704.41 228.713 712.957 231.833 717.677 237.887C718.837 239.38 719.344 241.153 719.224 243.073C719.13 244.633 718.69 246.073 716.93 246.313C715.13 246.553 714.197 245.287 713.984 243.753C713.37 239.3 709.89 237.873 706.41 237.247C702.77 236.607 699.29 237.833 696.984 241.14C694.57 244.593 695.277 247.82 699.064 250.18C702.837 252.54 706.677 254.807 710.517 257.073C714.25 259.287 716.504 262.5 717.224 266.767C718.064 271.713 715.944 275.78 711.437 277.98C708.37 279.487 705.224 280.713 701.85 280.58H701.864Z" fill="black"/>
<path d="M495.558 275.686C491.011 275.26 486.891 273.886 484.225 269.726C483.131 268.02 482.731 266.166 484.571 264.806C486.518 263.38 487.705 264.806 488.811 266.34C492.185 270.98 499.225 271.513 503.451 267.486C505.545 265.5 504.811 260.993 501.771 258.86C498.598 256.646 495.211 254.753 491.878 252.78C490.545 251.98 489.198 251.26 488.171 250.033C482.625 243.473 484.825 235.286 492.798 231.86C498.705 229.313 503.758 230.673 508.518 234.326C510.625 235.94 511.705 238.18 511.651 240.9C511.625 242.473 511.251 243.926 509.425 244.113C507.731 244.3 507.011 243.046 506.798 241.593C506.278 237.953 503.438 236.646 500.545 235.926C497.505 235.18 494.531 236.113 492.291 238.433C488.945 241.9 489.478 245.326 493.758 248.006C496.798 249.913 499.945 251.633 503.038 253.433C507.571 256.073 510.211 259.78 509.918 265.273C509.731 268.673 508.331 271.166 505.278 272.753C502.238 274.34 499.091 275.526 495.558 275.673V275.686Z" fill="black"/>
<path d="M348.079 253.447C350.012 253.473 351.959 253.367 353.865 253.873C355.439 254.3 357.012 254.913 356.558 256.953C356.158 258.74 354.572 259.02 353.065 258.7C350.172 258.073 347.265 258.473 344.372 258.34C342.612 258.26 341.759 258.847 341.479 260.713C341.065 263.513 341.052 266.313 341.039 269.113C341.039 270.833 341.852 271.5 343.532 271.567C346.812 271.7 350.105 271.953 353.385 272.18C355.425 272.327 357.532 272.7 357.305 275.367C357.092 277.833 355.132 277.9 353.132 277.727C349.078 277.38 345.025 277.127 340.972 276.847C337.172 276.58 335.212 274.753 335.345 270.927C335.585 263.767 336.185 256.633 336.479 249.473C336.625 245.807 336.412 242.127 336.425 238.46C336.439 234.5 337.879 232.54 341.745 231.593C345.412 230.7 349.079 229.7 352.892 229.714C353.852 229.714 354.852 229.753 355.772 229.993C357.252 230.38 358.638 231.113 358.398 232.927C358.172 234.593 356.772 234.993 355.332 234.967C352.025 234.887 348.785 235.42 345.519 235.86C342.652 236.247 341.425 237.42 341.705 240.407C342.039 243.86 342.425 247.327 341.785 250.82C341.452 252.66 342.505 253.487 344.319 253.473C345.572 253.46 346.839 253.473 348.092 253.473L348.079 253.447Z" fill="black"/>
<path d="M605.224 236.18C604.064 239.207 602.771 242.54 601.518 245.887C599.385 251.527 595.544 256.287 593.224 261.82C591.424 266.1 589.785 270.46 587.105 274.313C586.065 275.82 585.158 277.713 582.945 277.393C580.625 277.06 580.051 275.02 579.665 273.1C578.251 266.047 575.945 259.273 573.491 252.54C571.785 247.847 571.385 242.913 570.371 238.087C570.091 236.74 570.558 235.5 571.998 235.074C573.491 234.634 574.385 235.553 574.905 236.82C575.278 237.713 575.665 238.633 575.771 239.58C576.851 248.62 580.958 256.78 583.291 265.46C583.491 266.207 583.371 267.473 584.518 267.447C585.345 267.42 585.451 266.313 585.758 265.633C588.065 260.313 590.278 254.967 593.438 250.047C596.011 246.06 597.624 241.553 599.238 237.087C599.704 235.794 600.291 234.567 601.451 233.754C602.305 233.154 603.238 233.007 604.171 233.58C605.011 234.087 605.224 234.914 605.224 236.194V236.18Z" fill="black"/>
<path d="M660.891 269.367C661.491 258.54 662.318 247.713 661.998 236.847C661.905 233.847 663.865 232.167 666.451 231.46C671.025 230.193 675.691 229.193 680.505 229.54C682.265 229.66 684.385 229.793 684.305 232.153C684.225 234.38 682.171 234.353 680.518 234.313C676.905 234.22 673.371 234.66 669.825 235.3C667.798 235.66 666.811 236.58 666.891 238.807C667.038 242.873 667.011 246.953 666.891 251.02C666.825 253.207 667.825 253.94 669.825 254.02C673.011 254.153 676.225 253.687 679.385 254.473C680.958 254.873 682.705 255.233 682.425 257.247C682.158 259.273 680.411 259.18 678.771 259.087C675.198 258.887 671.625 258.82 668.038 258.633C666.878 258.58 666.451 259.127 666.438 260.167C666.398 263.46 665.718 266.7 665.811 270.02C665.865 272.22 666.585 273.153 668.851 273.193C672.331 273.26 675.811 273.58 679.291 273.833C680.051 273.887 680.838 274.047 681.558 274.313C682.651 274.713 683.345 275.527 683.198 276.753C683.051 277.993 682.211 278.673 681.025 278.727C675.291 278.967 669.611 278.26 663.958 277.473C662.038 277.207 661.011 275.687 660.905 273.713C660.838 272.26 660.891 270.807 660.891 269.353V269.367Z" fill="black"/>
<path d="M421.785 263.953C422.212 255.633 423.318 246.567 422.892 237.433C422.772 234.953 424.159 233.353 426.345 232.593C430.305 231.22 434.452 230.767 438.598 230.393C439.518 230.313 440.518 230.62 441.425 230.927C442.598 231.313 443.572 232.073 443.278 233.473C443.025 234.727 441.932 235.073 440.798 235.047C437.278 234.953 433.852 235.487 430.412 236.113C428.212 236.513 427.239 237.34 427.519 239.793C427.919 243.153 428.012 246.58 427.478 249.94C427.145 251.98 427.865 252.873 429.892 252.847C432.025 252.833 434.158 252.793 436.292 252.913C437.438 252.967 438.599 253.233 439.705 253.553C440.785 253.873 441.665 254.58 441.492 255.86C441.305 257.3 440.158 257.913 438.958 257.66C435.772 256.967 432.585 257.7 429.412 257.447C428.172 257.353 427.359 257.447 427.159 258.927C426.759 261.913 426.532 264.9 426.638 267.913C426.692 269.686 427.612 270.22 429.225 270.273C432.318 270.367 435.425 270.5 438.505 270.78C440.225 270.94 442.372 271.18 442.158 273.58C441.958 275.753 439.958 275.766 438.292 275.66C434.132 275.38 429.985 275.047 425.839 274.62C423.105 274.34 421.679 272.793 421.772 269.953C421.825 268.207 421.772 266.46 421.772 263.94L421.785 263.953Z" fill="black"/>
<path d="M616.237 259.127C616.304 262.9 616.131 266.66 615.784 270.42C615.624 272.046 615.971 273.22 617.837 273.646C619.357 273.993 620.544 274.953 620.304 276.713C620.051 278.62 618.491 278.686 616.984 278.74C614.571 278.833 612.157 278.993 609.744 279.1C608.011 279.18 606.264 278.98 605.851 276.94C605.451 275.02 606.837 274.14 608.477 273.753C610.637 273.246 610.651 271.5 610.744 269.886C611.104 263.9 610.691 257.887 611.397 251.913C611.837 248.26 612.144 244.607 612.557 240.953C612.757 239.18 612.384 237.98 610.291 237.7C608.971 237.527 607.891 236.687 608.171 235.1C608.437 233.62 609.624 233.073 610.984 233.073C614.851 233.073 618.731 233.1 622.584 233.3C624.277 233.38 626.104 234.007 625.944 236.127C625.771 238.34 623.904 238.327 622.171 238.22C617.984 237.967 617.651 238.26 617.504 242.367C617.291 247.967 615.771 253.473 616.237 259.127Z" fill="black"/>
<path d="M292.799 257.606C292.959 262.713 292.385 267.646 289.892 272.246C285.332 280.633 271.905 281.526 265.839 274.166C260.452 267.62 260.012 260.286 261.092 252.513C261.492 249.646 262.265 246.82 262.879 243.98C263.679 240.273 265.492 237.166 268.239 234.526C274.319 228.686 283.892 230.1 288.025 237.513C291.492 243.713 292.719 248.913 292.799 257.606ZM286.839 257.726C286.972 249.793 285.585 243.9 282.812 239.966C280.705 236.98 277.799 235.793 274.492 236.82C271.572 237.726 269.865 240.073 268.999 242.793C266.705 250.02 265.079 257.286 267.292 264.953C268.905 270.513 272.399 273.5 278.105 273.3C282.865 273.126 286.105 269.806 286.785 264.113C287.039 262.02 286.825 259.873 286.825 257.74L286.839 257.726Z" fill="black"/>
</svg>
