<svg width="883" height="656" viewBox="0 0 883 656" fill="none" xmlns="http://www.w3.org/2000/svg">
<path d="M880.619 249.687C879.593 215.58 877.166 181.593 868.526 149.474C856.233 103.754 835.659 66.7938 805.953 40.7805C789.1 26.0206 770.38 19.4206 750.686 16.0473C721.406 11.034 692.047 10.314 662.66 9.86062C633.54 9.40729 604.433 9.76723 575.314 12.2206C563.14 13.2472 550.9 14.2073 538.66 14.5139C508.887 15.2473 479.1 16.8606 449.327 17.1139C415.327 17.4073 381.314 17.3006 347.328 16.0872C322.354 15.1939 297.461 11.3939 272.661 6.86063C262.248 4.95397 251.794 3.54065 241.314 3.28731C225.314 2.90065 209.315 2.88729 193.315 3.26062C170.075 3.80729 146.968 6.31393 123.955 11.4072C105.355 15.5139 88.0482 23.5939 72.6749 38.8739C56.1417 55.3005 41.2351 73.7804 32.5551 100.607C24.2484 126.274 17.795 152.647 13.955 180.327C11.9017 195.06 8.26179 209.607 7.68846 224.42C7.1418 238.527 4.99508 252.407 5.30175 266.567C5.64842 282.54 2.90182 298.38 4.03515 314.366C5.18182 330.633 4.82179 346.926 7.67512 363.22C11.4618 384.82 18.7818 401.886 30.5151 416.766C48.755 439.913 70.3549 448.379 93.9949 449.219C109.475 449.766 124.968 449.419 140.461 449.313L40.1817 619.792L2.64844 653.645C12.5684 648.406 21.9417 640.112 33.3284 643.232C34.7817 643.632 36.5283 643.086 37.9683 642.326C47.7816 637.139 57.9817 632.979 67.235 626.232C95.9416 605.299 124.048 582.819 152.061 560.099C179.715 537.659 205.141 510.459 232.581 487.579C244.514 477.633 252.888 461.539 261.608 446.993C261.701 446.846 261.794 446.686 261.874 446.526L262.648 446.499C270.141 452.126 278.234 449.179 285.981 449.006C293.514 448.833 301.074 447.673 308.648 447.379C344.194 445.993 379.767 446.179 415.314 445.219C444.674 444.419 473.98 440.486 503.314 438.099C517.3 436.966 531.3 435.726 545.314 435.353C570.194 434.686 595.113 433.473 619.967 434.593C655.087 436.166 690.193 436.046 725.3 436.206C752.873 436.326 779.58 430.179 806.046 418.78C836.02 405.86 857.193 380.033 871.286 341.526C876.006 328.62 877.099 314.286 878.499 300.273C880.179 283.553 881.113 266.62 880.593 249.687H880.619Z" fill="white" stroke="black" stroke-width="3.99999" stroke-linecap="round" stroke-linejoin="round"/>
<path d="M308.314 243.98C307.767 249.673 306.621 255.153 307.074 260.753C307.421 264.967 306.261 269.007 305.807 273.127C305.634 274.7 304.701 275.887 302.914 275.78C301.181 275.673 300.421 274.407 300.127 272.887C299.727 270.847 300.501 268.86 300.527 266.833C300.647 255.42 302.994 244.153 302.501 232.7C302.447 231.447 302.634 230.193 302.794 228.94C302.981 227.54 303.434 226.233 305.047 225.913C306.607 225.607 307.701 226.487 308.381 227.727C310.287 231.207 311.861 234.86 313.207 238.593C313.967 240.687 314.701 242.78 315.474 244.873C315.674 245.393 315.821 246.113 316.541 246.06C317.234 246.007 317.301 245.273 317.514 244.753C318.914 241.14 319.981 237.42 320.927 233.66C321.354 231.98 321.701 230.247 322.807 228.82C324.741 226.34 327.221 226.527 328.421 229.42C330.114 233.487 330.501 237.887 330.634 242.22C330.914 251.207 330.927 260.207 332.221 269.14C332.501 271.047 332.034 272.833 329.954 273.247C327.661 273.713 326.581 272.073 326.274 270.073C325.847 267.3 325.287 264.54 325.461 261.713C325.834 255.327 324.741 249.007 324.181 242.447C323.687 243.94 323.127 245.407 322.741 246.913C321.821 250.473 320.981 254.06 320.127 257.633C319.687 259.487 319.221 261.353 316.807 261.353C314.607 261.353 313.967 259.687 313.447 257.94C312.341 254.233 311.247 250.513 310.061 246.82C309.754 245.873 309.687 244.713 308.301 243.98H308.314Z" fill="black"/>
<path d="M411.354 241.874C410.154 246.42 408.914 250.954 407.767 255.514C407.314 257.314 407.234 259.38 404.807 259.554C402.234 259.74 401.714 257.647 401.14 255.78C400.207 252.727 399.38 249.634 398.42 246.594C398.02 245.327 397.674 243.98 396.207 242.527C395.861 248.06 394.421 253.06 395.061 258.22C395.621 262.754 394.127 267.034 393.714 271.447C393.581 272.887 392.474 273.954 390.874 273.807C389.301 273.66 388.567 272.474 388.367 271.02C388.234 270.074 388.22 269.087 388.3 268.127C389.047 259.46 388.994 250.727 390.274 242.1C390.874 238.047 390.434 233.98 390.58 229.914C390.66 227.86 390.527 225.487 393.074 224.954C395.674 224.407 396.487 226.767 397.274 228.58C398.86 232.207 400.7 235.74 401.634 239.647C402.074 241.5 402.767 243.3 404.074 245.274C406.287 241.594 406.9 237.78 408.034 234.154C408.527 232.58 408.847 230.967 409.38 229.407C409.927 227.767 410.847 226.407 412.834 226.367C414.86 226.34 415.647 227.78 416.247 229.394C417.407 232.527 417.767 235.847 417.887 239.1C418.074 244.22 418.314 249.34 418.54 254.46C418.714 258.42 418.514 262.407 419.527 266.3C419.7 266.94 419.727 267.647 419.66 268.314C419.514 269.78 418.874 270.954 417.26 271.154C415.567 271.367 414.394 270.554 413.994 268.94C413.26 265.927 412.767 262.86 412.82 259.74C412.927 253.834 412.7 247.954 411.367 241.887L411.354 241.874Z" fill="black"/>
<path d="M641.246 274.193C638.713 274.287 636.633 274.113 634.54 274.967C632.327 275.873 630.953 274.167 631.006 271.193C631.166 262.207 631.3 253.207 631.34 244.22C631.353 241.127 630.953 238.034 630.98 234.94C631.02 229.98 633.7 226.727 639.5 228.674C644.566 230.38 649.273 232.3 651.766 237.593C653.66 241.607 653.126 245.874 649.3 250.047C647.5 252.007 647.806 252.687 650.14 253.487C655.886 255.46 657.42 260.26 657.393 264.273C657.366 268.94 653.58 272.34 648.046 273.567C645.66 274.1 643.26 274.207 641.26 274.193H641.246ZM641.753 268.793C643.5 268.913 645.486 268.527 647.486 268.127C649.766 267.673 651.606 266.647 651.766 264.113C651.926 261.633 650.966 259.567 648.526 258.473C645.58 257.167 642.446 256.553 639.273 256.153C637.126 255.873 636.22 256.98 636.34 259.033C636.433 260.767 636.673 262.5 636.7 264.233C636.766 268.82 636.74 268.82 641.753 268.793ZM636.273 238.153C636.326 238.567 636.5 239.82 636.593 241.073C636.686 242.42 636.713 243.78 636.753 245.127C636.9 250.54 637.633 250.993 642.606 248.633C643.3 248.3 643.98 247.887 644.526 247.367C649.006 243.207 648.58 239.727 643.353 235.753C642.526 235.127 641.446 234.833 640.473 234.407C636.673 232.74 636.206 233.073 636.273 238.167V238.153Z" fill="black"/>
<path d="M218.835 125.047C230.328 125.741 241.648 131.354 251.008 140.874C254.781 144.714 257.061 149.647 258.168 154.954C259.821 162.9 257.048 169.7 251.674 170.127C244.114 170.727 242.528 165.034 241.568 159.234C240.168 150.794 233.661 147.46 226.901 144.447C214.555 138.94 198.621 143.594 190.715 153.914C182.008 165.287 185.021 173.954 197.341 182.714C208.501 190.634 220.755 197.02 232.568 204.007C248.168 213.234 253.741 227.354 251.808 244.674C250.728 254.367 245.968 261.767 236.648 266.353C222.981 273.073 209.168 277.38 193.728 274.06C182.461 271.633 173.715 265.62 166.808 256.647C161.835 250.167 162.035 242.953 167.581 239.647C174.461 235.553 178.101 239.647 181.675 245.26C189.448 257.5 201.661 260.793 218.088 255.047C225.261 252.527 233.781 250.9 234.781 240.807C235.821 230.18 231.648 222.434 222.395 217.06C210.528 210.18 198.595 203.367 187.141 195.834C176.435 188.794 168.035 178.714 168.328 165.727C168.648 151.7 176.861 140.354 188.715 132.674C197.075 127.247 206.795 125.287 218.848 125.021L218.835 125.047Z" fill="#55ADE1"/>
<path d="M457.154 241.434C457.154 244.727 457.008 247.594 457.181 250.447C457.568 256.474 456.914 262.433 456.274 268.407C456.088 270.127 455.874 272.247 453.448 272.02C451.168 271.807 450.994 269.793 451.074 268.007C451.261 263.367 452.514 258.78 452.141 254.114C451.621 247.434 452.461 240.767 452.128 234.087C452.061 232.74 452.048 231.367 452.554 230.06C453.061 228.727 453.834 227.594 455.394 227.487C456.981 227.38 457.821 228.447 458.408 229.767C460.114 233.674 461.634 237.66 463.568 241.447C466.861 247.914 470.261 254.314 471.954 261.513C473.327 255.314 473.754 249.233 473.114 242.967C472.661 238.58 473.074 234.087 473.287 229.634C473.367 227.874 474.274 226.3 476.341 226.474C478.168 226.62 478.661 228.167 478.487 229.714C477.314 239.847 479.941 250.02 478.061 260.14C477.568 262.807 477.261 265.513 476.661 268.153C476.234 270.033 475.168 271.607 473.021 271.807C470.901 271.993 469.901 270.473 469.221 268.807C468.008 265.847 466.541 262.94 465.834 259.86C464.368 253.514 460.981 248.074 458.234 242.327C458.128 242.114 457.848 241.98 457.194 241.434H457.154Z" fill="black"/>
<path d="M515.554 266.567C515.474 260.287 517.847 254.38 518.26 248.194C518.58 243.514 519.62 239.007 521.38 234.66C521.74 233.767 522.034 232.82 522.54 232.007C524.34 229.087 526.594 226.554 530.38 226.954C534.18 227.367 536.234 229.967 537.287 233.527C538.14 236.42 538.767 239.367 539.074 242.34C539.847 249.967 541.634 257.42 542.807 264.967C543.087 266.767 543.834 268.487 544.447 270.22C544.94 271.66 544.9 272.94 543.434 273.74C542.007 274.514 540.794 273.954 539.82 272.834C538.354 271.154 538.087 268.994 537.487 266.954C536.807 264.647 537.367 261.82 535.727 260.02C533.94 258.047 531.1 259.38 528.767 258.967C520.727 257.5 522.154 258.927 521.234 264.847C520.954 266.66 521.087 268.527 520.82 270.34C520.58 271.954 519.834 273.46 517.914 273.394C515.874 273.314 515.567 271.714 515.567 270.034C515.567 268.874 515.567 267.714 515.567 266.54L515.554 266.567ZM530.647 253.727C531.834 253.087 534.847 255.02 534.567 251.82C534.074 246.26 533.7 240.634 532.007 235.234C531.647 234.087 531.234 232.874 529.94 232.687C528.527 232.474 527.94 233.781 527.46 234.781C525.66 238.554 524.46 242.554 524.007 246.7C523.26 253.514 523.434 253.62 530.647 253.727Z" fill="black"/>
<path d="M703.193 276.647C698.206 276.713 694.166 275.007 691.113 271.153C690.313 270.14 689.646 269.087 689.633 267.767C689.633 266.3 690.113 265.047 691.606 264.54C693.006 264.074 694.02 264.754 694.86 265.834C698.913 271.047 703.259 272.06 709.246 269.207C713.339 267.26 714.139 263.26 711.139 259.754C709.979 258.407 708.486 257.5 706.993 256.607C703.833 254.714 700.513 253.074 697.526 250.927C688.74 244.607 688.766 236.354 698.073 230.007C705.74 224.78 714.286 227.9 719.006 233.954C720.166 235.447 720.673 237.22 720.553 239.14C720.459 240.7 720.019 242.14 718.259 242.38C716.459 242.62 715.526 241.354 715.313 239.82C714.699 235.367 711.22 233.94 707.74 233.314C704.1 232.674 700.619 233.9 698.313 237.207C695.899 240.66 696.606 243.887 700.393 246.247C704.166 248.607 708.006 250.874 711.846 253.14C715.579 255.354 717.833 258.567 718.553 262.834C719.393 267.78 717.273 271.847 712.766 274.047C709.699 275.554 706.553 276.78 703.179 276.647H703.193Z" fill="black"/>
<path d="M496.887 271.753C492.34 271.327 488.22 269.953 485.554 265.793C484.46 264.087 484.06 262.233 485.9 260.873C487.847 259.447 489.034 260.873 490.14 262.407C493.514 267.047 500.554 267.58 504.78 263.553C506.874 261.567 506.14 257.06 503.1 254.927C499.927 252.713 496.54 250.82 493.207 248.847C491.874 248.047 490.527 247.327 489.5 246.1C483.954 239.54 486.154 231.353 494.127 227.927C500.034 225.38 505.087 226.74 509.847 230.393C511.954 232.007 513.034 234.247 512.98 236.967C512.954 238.54 512.58 239.993 510.754 240.18C509.06 240.367 508.34 239.113 508.127 237.66C507.607 234.02 504.767 232.713 501.874 231.993C498.834 231.247 495.86 232.18 493.62 234.5C490.274 237.967 490.807 241.393 495.087 244.073C498.127 245.98 501.274 247.7 504.367 249.5C508.9 252.14 511.54 255.847 511.247 261.34C511.06 264.74 509.66 267.233 506.607 268.82C503.567 270.407 500.42 271.593 496.887 271.74V271.753Z" fill="black"/>
<path d="M349.408 249.514C351.341 249.54 353.288 249.434 355.194 249.94C356.768 250.367 358.341 250.98 357.888 253.02C357.488 254.807 355.901 255.087 354.394 254.767C351.501 254.14 348.594 254.54 345.701 254.407C343.941 254.327 343.088 254.914 342.808 256.78C342.394 259.58 342.381 262.38 342.368 265.18C342.368 266.9 343.181 267.567 344.861 267.634C348.141 267.767 351.434 268.02 354.714 268.247C356.754 268.394 358.861 268.767 358.634 271.434C358.421 273.9 356.461 273.967 354.461 273.794C350.408 273.447 346.354 273.194 342.301 272.914C338.501 272.647 336.541 270.82 336.674 266.994C336.914 259.834 337.514 252.7 337.808 245.54C337.954 241.874 337.741 238.194 337.754 234.527C337.768 230.567 339.208 228.607 343.074 227.66C346.741 226.767 350.408 225.767 354.221 225.78C355.181 225.78 356.181 225.82 357.101 226.06C358.581 226.447 359.968 227.18 359.728 228.994C359.501 230.66 358.101 231.06 356.661 231.034C353.354 230.954 350.114 231.487 346.848 231.927C343.981 232.314 342.754 233.487 343.034 236.474C343.368 239.927 343.754 243.394 343.114 246.887C342.781 248.727 343.834 249.554 345.648 249.54C346.901 249.527 348.168 249.54 349.421 249.54L349.408 249.514Z" fill="black"/>
<path d="M606.554 232.26C605.394 235.287 604.1 238.62 602.847 241.967C600.714 247.607 596.874 252.367 594.554 257.9C592.754 262.18 591.114 266.54 588.434 270.393C587.394 271.9 586.487 273.793 584.274 273.473C581.954 273.14 581.38 271.1 580.994 269.18C579.58 262.127 577.274 255.354 574.82 248.62C573.114 243.927 572.714 238.994 571.7 234.167C571.42 232.82 571.887 231.58 573.327 231.154C574.82 230.714 575.714 231.634 576.234 232.9C576.607 233.794 576.994 234.714 577.1 235.66C578.18 244.7 582.287 252.86 584.62 261.54C584.82 262.287 584.7 263.554 585.847 263.527C586.674 263.5 586.78 262.394 587.087 261.714C589.394 256.394 591.607 251.047 594.767 246.127C597.34 242.14 598.954 237.634 600.567 233.167C601.034 231.874 601.62 230.647 602.78 229.834C603.634 229.234 604.567 229.087 605.5 229.66C606.34 230.167 606.554 230.994 606.554 232.274V232.26Z" fill="black"/>
<path d="M662.22 265.434C662.82 254.607 663.647 243.78 663.327 232.914C663.234 229.914 665.194 228.234 667.78 227.527C672.354 226.26 677.02 225.26 681.834 225.607C683.594 225.727 685.714 225.86 685.634 228.22C685.554 230.447 683.5 230.42 681.847 230.38C678.234 230.287 674.7 230.727 671.154 231.367C669.127 231.727 668.14 232.647 668.22 234.874C668.367 238.94 668.34 243.02 668.22 247.087C668.154 249.274 669.154 250.007 671.154 250.087C674.34 250.22 677.554 249.754 680.714 250.54C682.287 250.94 684.034 251.3 683.754 253.314C683.487 255.34 681.74 255.247 680.1 255.154C676.527 254.954 672.954 254.887 669.367 254.7C668.207 254.647 667.78 255.194 667.767 256.234C667.727 259.527 667.047 262.767 667.14 266.087C667.194 268.287 667.914 269.22 670.18 269.26C673.66 269.327 677.14 269.647 680.62 269.9C681.38 269.954 682.167 270.114 682.887 270.38C683.98 270.78 684.674 271.594 684.527 272.82C684.38 274.06 683.54 274.74 682.354 274.794C676.62 275.034 670.94 274.327 665.287 273.54C663.367 273.274 662.34 271.754 662.234 269.78C662.167 268.327 662.22 266.874 662.22 265.42V265.434Z" fill="black"/>
<path d="M423.114 260.034C423.541 251.714 424.648 242.647 424.221 233.514C424.101 231.034 425.488 229.434 427.674 228.674C431.634 227.301 435.781 226.847 439.928 226.474C440.848 226.394 441.848 226.701 442.754 227.007C443.928 227.394 444.901 228.154 444.608 229.554C444.354 230.807 443.261 231.154 442.128 231.127C438.608 231.034 435.181 231.567 431.741 232.194C429.541 232.594 428.568 233.421 428.848 235.874C429.248 239.234 429.341 242.66 428.808 246.02C428.474 248.06 429.194 248.954 431.221 248.927C433.354 248.914 435.488 248.874 437.621 248.994C438.768 249.047 439.928 249.314 441.034 249.634C442.114 249.954 442.994 250.66 442.821 251.94C442.634 253.38 441.488 253.994 440.288 253.74C437.101 253.047 433.914 253.78 430.741 253.527C429.501 253.434 428.688 253.527 428.488 255.007C428.088 257.994 427.861 260.98 427.968 263.994C428.021 265.767 428.941 266.3 430.554 266.354C433.648 266.447 436.754 266.58 439.834 266.86C441.554 267.02 443.701 267.26 443.488 269.66C443.288 271.834 441.288 271.847 439.621 271.74C435.461 271.46 431.314 271.127 427.168 270.7C424.434 270.42 423.008 268.874 423.101 266.034C423.154 264.287 423.101 262.54 423.101 260.02L423.114 260.034Z" fill="black"/>
<path d="M617.567 255.193C617.633 258.967 617.46 262.727 617.113 266.487C616.953 268.113 617.3 269.287 619.166 269.713C620.686 270.06 621.873 271.02 621.633 272.78C621.38 274.687 619.82 274.753 618.313 274.807C615.9 274.9 613.487 275.06 611.073 275.167C609.34 275.247 607.593 275.047 607.18 273.007C606.78 271.087 608.166 270.207 609.806 269.82C611.966 269.313 611.98 267.567 612.073 265.953C612.433 259.967 612.02 253.953 612.727 247.98C613.167 244.327 613.473 240.673 613.887 237.02C614.087 235.247 613.713 234.047 611.62 233.767C610.3 233.594 609.22 232.753 609.5 231.167C609.766 229.687 610.953 229.14 612.313 229.14C616.18 229.14 620.06 229.167 623.913 229.367C625.606 229.447 627.433 230.074 627.273 232.194C627.1 234.407 625.233 234.394 623.5 234.287C619.313 234.034 618.98 234.327 618.833 238.433C618.62 244.033 617.1 249.54 617.567 255.193Z" fill="black"/>
<path d="M294.128 253.673C294.288 258.78 293.715 263.713 291.221 268.313C286.661 276.7 273.235 277.593 267.168 270.233C261.781 263.687 261.341 256.353 262.421 248.58C262.821 245.713 263.595 242.887 264.208 240.047C265.008 236.34 266.821 233.233 269.568 230.593C275.648 224.753 285.221 226.167 289.355 233.58C292.821 239.78 294.048 244.98 294.128 253.673ZM288.168 253.793C288.301 245.86 286.915 239.967 284.141 236.033C282.035 233.047 279.128 231.86 275.821 232.887C272.901 233.793 271.195 236.14 270.328 238.86C268.035 246.087 266.408 253.353 268.621 261.02C270.235 266.58 273.728 269.567 279.435 269.367C284.195 269.193 287.435 265.873 288.115 260.18C288.368 258.087 288.155 255.94 288.155 253.807L288.168 253.793Z" fill="black"/>
</svg>
