<svg width="1118" height="830" viewBox="0 0 1118 830" fill="none" xmlns="http://www.w3.org/2000/svg">
<path d="M2.21389 315.192C3.52607 271.89 6.6028 228.753 17.5527 187.972C33.1481 129.938 59.2407 83.0133 96.932 49.9742C118.304 31.2436 142.059 22.8667 167.051 18.5803C204.184 12.2109 241.438 11.3054 278.722 10.7167C315.674 10.1281 352.596 10.596 389.534 13.7052C404.978 15.0032 420.513 16.2407 436.033 16.6181C473.815 17.5538 511.582 19.5917 549.364 19.9238C592.5 20.3011 635.636 20.1651 678.757 18.6256C710.445 17.4936 742.028 12.6637 773.475 6.91322C786.687 4.49831 799.945 2.70221 813.233 2.38525C833.519 1.88718 853.835 1.87204 874.121 2.33993C903.592 3.03422 932.913 6.21904 962.113 12.6789C985.717 17.9012 1007.66 28.1493 1027.16 47.5441C1048.14 68.4029 1067.06 91.843 1078.07 125.923C1088.59 158.51 1096.78 191.987 1101.67 227.124C1104.27 245.824 1108.9 264.298 1109.62 283.089C1110.31 300.99 1113.04 318.618 1112.65 336.595C1112.21 356.865 1115.7 376.984 1114.27 397.27C1112.8 417.917 1113.27 438.61 1109.65 459.287C1104.84 486.697 1095.56 508.371 1080.68 527.267C1057.52 556.654 1030.14 567.4 1000.14 568.472C980.498 569.166 960.846 568.729 941.193 568.593L1068.4 785.03L1116 828C1103.42 821.344 1091.54 810.824 1077.07 814.793C1075.23 815.307 1073.01 814.612 1071.19 813.646C1058.75 807.051 1045.79 801.783 1034.06 793.21C997.647 766.631 961.992 738.09 926.442 709.247C891.36 680.766 859.099 646.232 824.288 617.193C809.145 604.56 798.542 584.139 787.457 565.68C787.336 565.483 787.23 565.287 787.11 565.091L786.13 565.046C776.628 572.2 766.356 568.457 756.537 568.231C746.975 568.019 737.398 566.54 727.775 566.163C682.678 564.412 637.551 564.638 592.469 563.416C555.231 562.404 518.037 557.409 480.828 554.39C463.076 552.941 445.324 551.386 427.542 550.903C395.974 550.058 364.361 548.519 332.823 549.937C288.27 551.93 243.746 551.779 199.192 551.975C164.215 552.126 130.34 544.338 96.7512 529.848C58.7281 513.442 31.8659 480.659 13.9931 431.772C8.00531 415.381 6.61798 397.194 4.83824 379.399C2.7116 358.163 1.52006 336.685 2.1837 315.177L2.21389 315.192Z" fill="white" stroke="black" stroke-width="3.99999" stroke-linecap="round" stroke-linejoin="round"/>
<path d="M444.941 301.939C442.567 306.566 441.648 311.419 440.434 316.179C440.261 316.833 440.167 317.513 439.981 318.166C439.581 319.592 438.768 320.619 437.181 320.699C435.488 320.779 434.434 319.846 433.954 318.299C432.901 314.872 431.941 311.419 430.861 308.006C430.368 306.459 430.048 304.819 428.528 302.926C427.874 309.032 426.808 314.539 427.234 320.179C427.554 324.379 426.434 328.432 425.954 332.552C425.767 334.139 424.781 335.286 422.994 335.112C421.274 334.952 420.367 333.672 420.314 332.152C420.234 330.046 420.688 327.926 420.714 325.806C420.821 314.592 423.167 303.499 422.674 292.246C422.621 290.992 422.794 289.726 422.941 288.486C423.114 286.993 423.527 285.539 425.301 285.246C427.007 284.952 428.114 286.032 428.741 287.392C430.381 290.899 431.901 294.459 433.394 298.019C434.208 299.979 434.821 302.032 435.581 304.019C435.807 304.592 435.861 305.499 436.794 305.379C437.461 305.286 437.514 304.539 437.714 304.019C439.287 300.046 440.314 295.913 441.448 291.806C442.114 289.379 442.821 286.379 445.954 286.606C449.114 286.832 449.181 290.046 449.727 292.446C451.487 300.259 450.661 308.259 451.381 316.166C451.741 320.099 451.554 324.086 452.341 328.006C452.767 330.086 452.501 332.192 450.074 332.606C447.421 333.059 446.687 330.939 446.327 328.792C445.661 324.859 445.687 320.899 445.621 316.926C445.541 311.939 445.194 306.952 444.967 301.966L444.941 301.939Z" fill="black"/>
<path d="M658.475 326.779C660.341 322.539 662.554 318.419 663.981 314.046C666.141 307.419 669.528 301.246 671.088 294.406C671.435 292.886 672.408 291.632 674.128 291.832C676.155 292.072 676.168 293.766 676.261 295.379C676.661 302.232 677.074 309.099 677.594 315.939C677.768 318.232 678.301 320.499 679.274 322.899C680.634 322.019 680.581 320.699 680.835 319.579C682.661 311.259 683.955 302.832 686.421 294.659C686.674 293.832 686.874 292.966 687.248 292.192C687.768 291.099 688.754 290.725 689.914 290.885C691.141 291.059 691.848 291.872 691.888 293.046C691.928 294.086 691.835 295.192 691.555 296.192C689.408 303.952 687.901 311.846 686.528 319.752C685.888 323.446 684.234 326.726 682.701 330.072C681.941 331.739 680.781 332.792 678.914 332.685C677.048 332.592 675.901 331.419 675.381 329.699C673.728 324.232 672.208 318.725 672.075 312.952C672.048 311.805 672.075 310.672 672.075 308.979C670.821 310.179 670.661 311.246 670.381 312.192C668.568 318.259 665.541 323.805 663.181 329.632C662.141 332.192 660.154 333.632 657.261 333.432C654.541 333.246 653.608 331.219 652.848 329.032C652.301 327.445 652.275 325.806 652.235 324.152C651.955 314.766 652.595 305.366 651.808 295.992C651.675 294.472 651.955 292.899 652.181 291.379C652.381 290.072 652.928 288.832 654.515 288.885C656.195 288.939 656.848 290.219 656.901 291.672C657.035 295.446 657.141 299.232 657.061 303.006C656.901 310.366 657.141 317.712 657.541 325.072C657.568 325.619 657.715 326.152 657.821 326.699C658.048 326.725 658.261 326.739 658.488 326.766L658.475 326.779Z" fill="black"/>
<path d="M216.608 235.526C212.675 250.206 208.728 264.872 204.835 279.565C204.262 281.725 204.075 284.006 203.488 286.166C202.302 290.499 199.915 293.792 195.048 294.179C189.861 294.592 186.275 291.965 184.728 287.245C181.728 278.112 179.141 268.845 176.341 259.632C174.155 252.459 172.488 245.032 165.995 236.366C165.715 256.686 160.315 273.659 162.635 291.392C164.488 305.619 159.608 319.299 158.182 333.272C157.688 338.072 154.195 341.632 148.902 341.299C143.675 340.952 141.115 337.059 140.422 332.245C139.928 328.779 139.888 325.179 140.195 321.685C142.742 293.299 142.342 264.686 146.675 236.446C148.488 224.619 147.315 212.739 147.662 200.899C147.782 197.059 147.728 193.192 148.088 189.366C148.542 184.539 150.822 180.632 155.728 179.326C161.008 177.926 164.528 181.246 166.635 185.326C172.955 197.566 178.995 209.966 182.888 223.272C185.115 230.899 187.075 238.672 192.528 246.499C197.222 239.699 198.915 232.606 201.008 225.819C203.755 216.939 205.822 207.846 208.435 198.926C210.435 192.152 212.182 184.406 221.208 184.219C231.102 184.019 232.635 192.473 234.195 199.513C236.208 208.553 238.315 217.886 238.181 227.046C237.861 247.606 241.048 267.992 240.435 288.512C240.141 298.232 241.981 307.632 243.688 317.112C244.888 323.739 244.688 330.792 236.222 332.312C227.742 333.832 225.341 327.472 224.061 320.672C221.501 307.059 220.861 293.299 221.341 279.486C221.835 264.859 219.768 250.419 216.608 235.512V235.526Z" fill="#55ADE1"/>
<path d="M583.047 311.671C583.14 306.631 584.714 300.325 588.647 294.738C592.82 288.792 599.087 286.365 606.18 288.031C609.62 288.831 613.367 288.791 615.887 291.978C618.487 295.271 620.06 298.938 620.313 303.125C620.407 304.672 620.02 306.178 618.234 306.472C616.434 306.765 615.687 305.445 615.18 303.978C615.06 303.618 614.98 303.232 614.887 302.858C612.967 295.165 606.3 291.378 598.674 293.685C597.86 293.925 597.047 294.351 596.367 294.871C589.714 299.965 586.58 312.298 589.94 320.071C592.353 325.658 601.18 330.845 608.247 328.205C610.86 327.231 612.887 323.218 612.033 320.565C611.687 319.485 610.953 319.325 610.007 319.418C608.273 319.605 606.54 319.765 604.807 319.951C603.26 320.125 601.7 320.271 600.194 319.791C598.807 319.351 597.62 318.565 597.794 316.938C597.967 315.218 599.274 314.418 600.874 314.472C603.807 314.578 606.66 314.045 609.54 313.671C614.767 313.018 617.767 315.631 617.98 321.005C618.3 329.151 612.353 334.925 603.7 334.565C593.5 334.138 582.5 325.778 583.047 311.671Z" fill="black"/>
<path d="M571.74 323.605C572.02 318.178 573.393 313.298 572.593 308.258C571.726 302.752 572.486 297.245 572.5 291.739C572.5 289.885 573.286 288.085 575.5 288.192C577.7 288.299 577.953 290.192 577.74 291.898C576.553 301.832 579.22 311.819 577.326 321.738C576.82 324.405 576.526 327.112 575.953 329.752C575.54 331.632 574.513 333.245 572.38 333.499C570.1 333.765 569.113 332.098 568.38 330.352C567.02 327.045 565.446 323.805 564.66 320.272C563.286 314.125 559.74 308.992 557.166 303.405C556.913 303.432 556.66 303.472 556.393 303.499C556.393 306.152 556.233 308.805 556.42 311.445C556.86 317.565 556.22 323.632 555.606 329.698C555.54 330.365 555.433 331.045 555.246 331.698C554.913 332.912 554.22 333.832 552.82 333.765C551.446 333.698 550.713 332.752 550.5 331.538C550.313 330.405 550.22 329.192 550.406 328.072C552.073 317.778 550.98 307.392 551.38 297.059C551.446 295.512 551.38 293.939 551.633 292.432C551.9 290.845 552.713 289.405 554.527 289.205C556.42 288.992 557.273 290.365 557.82 291.912C561.5 302.418 568.353 311.578 570.886 322.578C570.94 322.805 571.206 322.992 571.74 323.632V323.605Z" fill="black"/>
<path d="M733.58 315.672C733.086 321.259 732.66 326.245 732.22 331.232C732.167 331.898 732.113 332.605 731.913 333.232C731.5 334.538 730.673 335.472 729.167 335.339C727.673 335.192 727.033 334.112 726.82 332.765C726.727 332.205 726.727 331.592 726.82 331.032C728.527 318.632 728.727 306.125 729.5 293.659C729.767 289.405 732.26 287.232 736.633 287.712C740.286 288.112 743.927 288.859 747.38 290.192C752.42 292.139 755.14 297.259 754.006 302.592C752.713 308.685 748.873 312.499 742.98 314.125C740.66 314.765 740.473 315.432 741.74 317.419C744.927 322.405 748.007 327.445 751.873 331.952C753.1 333.365 753.967 335.085 752.167 336.525C750.393 337.952 748.86 336.699 747.66 335.339C744.26 331.472 741.407 327.205 738.767 322.779C737.393 320.472 736.02 318.112 733.58 315.672ZM739.286 309.552C741.833 309.618 744.42 308.419 746.553 306.285C748.887 303.952 749.353 301.099 748.553 297.979C747.847 295.192 745.42 294.792 743.22 294.179C741.367 293.672 739.447 293.325 737.553 292.939C735.473 292.525 734.473 293.326 734.473 295.525C734.473 298.619 734.42 301.712 734.233 304.792C734.02 308.499 735.006 309.605 739.273 309.552H739.286Z" fill="black"/>
<path d="M454.781 326.499C454.701 320.219 457.075 314.312 457.488 308.126C457.808 303.446 458.848 298.939 460.608 294.592C460.968 293.699 461.275 292.752 461.768 291.939C463.568 289.019 465.834 286.486 469.608 286.886C473.408 287.299 475.461 289.912 476.515 293.459C477.368 296.352 477.994 299.299 478.301 302.272C479.074 309.899 480.861 317.352 482.034 324.899C482.314 326.699 483.074 328.419 483.674 330.152C484.168 331.592 484.128 332.872 482.661 333.672C481.234 334.445 480.021 333.886 479.048 332.766C477.581 331.086 477.314 328.925 476.714 326.885C476.034 324.579 476.608 321.752 474.954 319.952C473.168 317.979 470.328 319.325 467.981 318.899C459.954 317.445 461.381 318.819 460.448 324.779C460.168 326.592 460.301 328.459 460.035 330.272C459.795 331.885 459.048 333.392 457.128 333.325C455.088 333.245 454.781 331.645 454.781 329.965C454.781 328.805 454.781 327.646 454.781 326.472V326.499ZM470.248 313.659C471.141 312.899 474.088 314.872 473.821 311.832C473.301 306.166 472.941 300.446 471.195 294.966C470.861 293.912 470.421 292.846 469.261 292.632C467.808 292.366 467.235 293.659 466.755 294.646C464.915 298.406 463.728 302.405 463.261 306.552C462.474 313.445 462.688 313.606 470.261 313.659H470.248Z" fill="black"/>
<path d="M849.406 327.605C849.339 321.339 851.699 315.419 852.112 309.232C852.432 304.539 853.499 300.046 855.246 295.699C855.566 294.886 855.832 294.045 856.272 293.299C858.086 290.259 860.379 287.619 864.286 288.059C868.086 288.486 870.112 291.126 871.152 294.686C872.006 297.579 872.632 300.526 872.925 303.512C873.699 311.139 875.486 318.592 876.659 326.139C876.926 327.846 877.606 329.486 878.206 331.126C878.752 332.646 878.859 334.045 877.219 334.885C875.632 335.712 874.392 334.925 873.432 333.685C872.152 332.019 871.872 329.965 871.312 328.019C870.646 325.712 871.232 322.886 869.539 321.099C867.726 319.179 864.912 320.419 862.552 320.086C855.806 319.152 855.779 319.205 855.059 326.019C854.859 327.845 854.926 329.712 854.659 331.526C854.419 333.139 853.632 334.632 851.699 334.512C849.672 334.379 849.392 332.765 849.406 331.099C849.406 329.939 849.406 328.779 849.406 327.605ZM864.872 314.819C865.766 314.059 868.726 316.032 868.446 312.992C867.939 307.325 867.566 301.606 865.819 296.126C865.486 295.072 865.046 294.006 863.886 293.779C862.432 293.499 861.859 294.792 861.379 295.779C859.539 299.539 858.352 303.539 857.886 307.685C857.099 314.552 857.339 314.739 864.872 314.806V314.819Z" fill="black"/>
<path d="M285.595 313.965C285.728 319.072 285.328 323.498 283.275 327.592C278.501 337.098 264.941 337.885 258.661 329.379C254.101 323.205 253.702 316.552 254.822 309.499C255.462 305.485 256.008 301.392 257.675 297.659C259.808 292.872 262.901 289.005 268.715 288.538C274.608 288.058 278.795 290.565 281.475 295.765C283.995 300.672 285.328 305.872 285.581 311.365C285.635 312.432 285.581 313.498 285.581 313.965H285.595ZM280.248 314.165C280.355 308.965 279.515 303.952 277.235 299.218C275.648 295.925 273.555 293.645 269.488 293.792C265.595 293.925 263.702 296.472 262.542 299.485C260.595 304.565 259.235 309.925 259.661 315.379C259.941 319.045 260.768 322.739 262.981 326.032C265.141 329.259 268.008 330.072 271.475 329.779C274.835 329.499 277.288 327.819 278.675 324.699C280.168 321.339 280.328 317.765 280.248 314.165Z" fill="black"/>
<path d="M723.3 315.125C723.433 320.232 723.033 324.659 720.98 328.752C716.206 338.259 702.646 339.045 696.366 330.538C691.806 324.352 691.407 317.699 692.527 310.659C693.167 306.645 693.713 302.552 695.38 298.819C697.526 294.032 700.62 290.179 706.42 289.699C712.313 289.219 716.5 291.725 719.18 296.925C721.7 301.832 723.033 307.032 723.286 312.525C723.34 313.592 723.286 314.659 723.286 315.112L723.3 315.125ZM717.966 315.218C718.086 310.258 717.273 305.152 714.913 300.339C713.366 297.179 711.38 294.912 707.433 294.952C703.393 294.992 701.42 297.579 700.22 300.712C698.313 305.699 696.993 310.965 697.353 316.312C697.606 320.099 698.46 323.858 700.713 327.245C702.873 330.472 705.767 331.245 709.233 330.938C712.593 330.645 715.033 328.939 716.406 325.805C717.846 322.525 718.033 319.058 717.953 315.218H717.966Z" fill="black"/>
<path d="M981.618 315.339C980.192 319.925 980.765 323.952 980.099 327.792C979.725 329.899 980.285 333.032 977.139 332.779C973.712 332.499 974.832 329.418 975.059 327.205C976.099 316.899 976.739 306.565 977.005 296.205C977.152 290.539 979.672 288.352 985.272 289.259C987.272 289.579 989.259 290.059 991.232 290.565C995.499 291.659 998.952 293.592 999.819 298.486C1000.66 303.206 999.179 307.059 995.805 310.285C994.019 311.992 991.805 313.032 989.432 313.619C987.885 313.992 987.472 314.645 988.392 316.032C991.285 320.379 993.712 325.045 997.298 328.925C997.632 329.285 997.952 329.645 998.232 330.032C999.125 331.312 999.672 332.712 998.312 333.952C996.818 335.312 995.405 334.592 994.258 333.352C991.205 330.085 988.725 326.379 986.379 322.592C984.979 320.325 983.472 318.139 981.618 315.325V315.339ZM981.845 301.312C981.845 301.312 981.779 301.312 981.739 301.312C981.739 302.952 981.752 304.605 981.739 306.245C981.725 307.739 982.512 308.539 983.859 308.992C988.752 310.632 995.259 305.845 995.099 300.712C994.992 297.205 993.672 296.112 988.099 294.832C984.019 293.899 981.939 295.481 981.859 299.579C981.859 300.165 981.859 300.739 981.859 301.325L981.845 301.312Z" fill="black"/>
<path d="M494.647 291.738C493.967 296.885 494.114 301.925 494.167 306.965C494.167 307.992 493.621 309.365 494.594 309.965C495.621 310.592 496.527 309.378 497.354 308.818C503.767 304.458 510.127 300.032 516.501 295.618C517.141 295.178 517.741 294.685 518.394 294.272C519.621 293.472 520.927 292.992 522.047 294.312C523.221 295.698 522.38 296.898 521.3 297.832C517.26 301.312 512.821 304.285 508.461 307.352C506.394 308.792 504.287 310.178 502.167 311.538C500.834 312.391 500.687 313.072 502.101 314.072C507.727 318.058 512.567 322.938 517.421 327.805C518.594 328.978 519.741 330.192 518.367 331.765C517.074 333.245 515.474 332.672 514.207 331.618C512.501 330.192 510.767 328.725 509.367 327.018C506.447 323.418 502.381 321.192 499.007 318.152C498.447 317.645 497.701 317.325 496.994 317.005C494.661 315.965 493.781 316.498 493.594 319.018C493.367 322.112 493.181 325.205 492.967 328.298C492.927 328.978 492.914 329.658 492.754 330.312C492.354 331.938 491.594 333.352 489.634 333.085C487.807 332.832 487.447 331.325 487.541 329.778C487.661 327.458 487.914 325.152 488.114 322.832C488.981 312.405 488.847 301.938 489.287 291.498C489.341 290.338 489.434 289.178 489.621 288.032C489.821 286.778 490.501 285.805 491.874 285.778C493.394 285.738 494.154 286.778 494.381 288.138C494.581 289.378 494.567 290.645 494.634 291.778L494.647 291.738Z" fill="black"/>
<path d="M764.66 295.659C763.994 300.659 764.301 306.099 764.194 311.512C764.154 313.779 764.807 314.072 766.634 312.846C773.38 308.286 780.22 303.872 786.74 298.992C787.594 298.352 788.46 297.712 789.407 297.259C790.46 296.739 791.514 296.912 792.247 297.939C792.914 298.872 792.727 299.819 792.007 300.592C791.3 301.379 790.514 302.112 789.674 302.752C784.287 306.886 778.727 310.779 773.007 314.419C771.22 315.552 770.381 316.459 772.767 318.046C778.274 321.726 782.741 326.592 787.434 331.205C788.607 332.352 789.834 333.539 788.501 335.152C787.127 336.806 785.447 336.112 784.141 334.966C782.181 333.246 780.274 331.432 778.514 329.499C775.421 326.086 771.647 323.526 767.914 320.966C764.914 318.912 763.82 319.699 763.647 323.272C763.487 326.459 763.274 329.659 762.98 332.832C762.807 334.739 762.274 336.765 759.821 336.539C757.474 336.312 757.46 334.246 757.66 332.472C759.034 320.139 758.887 307.726 759.354 295.352C759.38 294.486 759.381 293.606 759.501 292.739C759.714 291.086 759.901 289.166 762.154 289.286C764.301 289.392 764.527 291.246 764.647 292.939C764.7 293.712 764.647 294.486 764.647 295.672L764.66 295.659Z" fill="black"/>
<path d="M893.605 335.165C889.152 334.779 885.019 333.432 882.325 329.299C881.152 327.499 880.699 325.565 882.779 324.192C884.805 322.859 885.885 324.499 886.965 325.979C890.245 330.499 897.765 330.925 901.645 326.859C903.552 324.859 902.805 320.459 899.899 318.419C896.739 316.205 893.325 314.339 890.019 312.299C888.952 311.645 887.752 311.085 886.886 310.219C879.899 303.165 882.619 296.286 889.992 291.832C895.725 288.379 901.392 289.792 906.485 293.739C908.685 295.445 909.792 297.739 909.699 300.565C909.645 302.032 909.245 303.352 907.578 303.592C905.872 303.832 905.019 302.659 904.885 301.192C904.379 295.766 895.419 292.766 890.392 297.832C886.925 301.326 887.525 304.872 891.939 307.592C894.912 309.419 897.952 311.125 900.979 312.872C905.645 315.552 908.312 319.339 907.952 324.952C907.739 328.232 906.352 330.645 903.419 332.205C900.392 333.805 897.245 335.019 893.605 335.179V335.165Z" fill="black"/>
<path d="M336.701 336.339C332.194 335.979 327.981 334.619 325.247 330.379C324.141 328.672 323.754 326.819 325.607 325.459C327.554 324.032 328.741 325.486 329.848 327.006C333.208 331.632 340.288 332.166 344.488 328.139C346.568 326.152 345.834 321.633 342.781 319.513C339.608 317.299 336.194 315.446 332.888 313.419C331.901 312.806 330.781 312.326 329.981 311.513C323.554 304.953 324.514 298.539 332.568 293.232C338.154 289.566 344.754 290.726 349.781 295.153C351.688 296.833 352.727 298.952 352.674 301.552C352.647 303.126 352.261 304.579 350.434 304.766C348.741 304.939 348.034 303.686 347.821 302.232C347.288 298.592 344.448 297.286 341.554 296.566C338.514 295.819 335.527 296.752 333.301 299.072C329.954 302.552 330.488 305.966 334.781 308.646C337.821 310.539 340.967 312.272 344.061 314.072C348.607 316.712 351.234 320.432 350.941 325.926C350.754 329.326 349.341 331.819 346.287 333.406C343.327 334.952 340.287 336.112 336.687 336.326L336.701 336.339Z" fill="black"/>
<path d="M313.555 310.765C313.235 304.232 315.248 297.912 315.261 291.405C315.261 290.232 315.955 289.365 317.208 289.232C318.541 289.085 319.381 289.845 319.954 290.965C320.874 292.752 320.341 294.632 320.061 296.392C318.861 303.672 319.288 311.072 318.274 318.352C317.074 327.032 311.288 332.325 302.555 333.259C298.581 333.685 293.954 330.405 292.301 326.072C290.528 321.405 290.674 316.552 290.914 311.712C291.181 306.299 291.568 300.899 291.941 295.486C292.021 294.232 292.141 292.965 292.448 291.752C292.795 290.365 293.554 289.099 295.248 289.432C296.914 289.765 297.128 291.179 297.048 292.632C296.741 298.432 296.395 304.232 296.155 310.032C296.035 313.032 296.075 316.045 296.061 319.045C296.061 320.819 296.408 322.525 297.061 324.152C298.288 327.192 300.874 328.445 304.061 327.779C308.861 326.765 311.621 323.779 312.861 319.152C313.608 316.392 313.541 313.592 313.528 310.779L313.555 310.765Z" fill="black"/>
<path d="M963.433 333.565C960.526 333.325 957.34 333.112 954.153 332.805C950.62 332.459 949.246 331.152 949.246 327.592C949.246 323.138 949.353 318.672 949.793 314.245C950.393 308.338 950.219 302.432 950.246 296.525C950.246 292.445 951.393 290.925 955.393 290.005C958.42 289.312 961.486 288.845 964.54 288.285C966.02 288.019 967.446 288.299 968.846 288.712C970.126 289.085 971.313 289.685 971.073 291.285C970.846 292.819 969.593 293.245 968.246 293.259C965.033 293.259 961.873 293.525 958.7 294.072C955.74 294.579 954.74 296.085 955.18 298.898C955.646 301.885 955.753 304.885 955.259 307.872C954.913 310.005 955.926 310.632 957.833 310.699C960.633 310.792 963.459 310.405 966.246 311.072C967.899 311.472 969.766 311.859 969.273 314.112C968.846 316.072 967.086 316.125 965.486 315.779C962.78 315.192 960.073 315.605 957.366 315.485C955.806 315.419 955.126 316.085 954.926 317.659C954.606 320.165 954.38 322.659 954.406 325.192C954.42 327.152 955.313 327.965 957.22 328.059C960.313 328.205 963.406 328.472 966.5 328.685C968.26 328.805 970.006 329.179 969.979 331.339C969.953 333.698 967.993 333.552 966.326 333.578C965.459 333.592 964.58 333.578 963.42 333.578L963.433 333.565Z" fill="black"/>
<path d="M357.621 325.965C357.968 320.365 358.301 314.765 358.688 309.179C358.874 306.459 358.795 303.779 358.515 301.072C357.928 295.339 359.408 293.272 364.968 292.045C368.461 291.272 371.981 290.512 375.608 290.885C377.168 291.045 378.981 291.299 378.928 293.352C378.874 295.432 377.048 295.592 375.475 295.565C372.461 295.525 369.488 295.899 366.528 296.365C364.461 296.685 363.488 297.619 363.568 299.819C363.701 303.099 363.688 306.405 363.594 309.685C363.541 311.712 364.408 312.445 366.354 312.459C369.061 312.459 371.781 312.192 374.448 312.938C375.901 313.338 377.515 313.778 377.181 315.672C376.835 317.645 375.128 317.832 373.515 317.499C370.808 316.939 368.101 317.312 365.408 317.232C364.221 317.192 363.275 317.498 363.168 318.898C362.968 321.405 362.768 323.912 362.594 326.419C362.461 328.285 363.208 329.285 365.235 329.352C367.941 329.432 370.634 329.752 373.341 329.925C374.408 329.992 375.475 330.045 376.448 330.552C377.448 331.085 378.181 331.859 377.981 333.098C377.808 334.192 376.994 334.778 375.981 334.925C374.941 335.085 373.861 335.178 372.808 335.098C369.621 334.872 366.434 334.605 363.274 334.218C358.328 333.618 357.715 332.872 357.728 327.992C357.728 327.312 357.728 326.632 357.728 325.965C357.701 325.965 357.674 325.965 357.648 325.965H357.621Z" fill="black"/>
<path d="M839.846 289.592C841.499 289.592 843.139 289.552 844.793 289.592C846.233 289.632 848.033 289.459 848.073 291.526C848.099 293.486 846.313 293.646 844.899 293.779C841.619 294.059 838.326 294.192 835.046 294.379C834.846 294.379 834.659 294.405 834.473 294.419C830.793 294.792 828.864 296.81 828.686 300.472C828.539 303.366 828.259 306.259 828.166 309.166C828.073 312.206 828.832 313.005 831.926 312.779C834.766 312.565 837.526 313.032 840.326 313.205C841.992 313.299 844.299 313.379 844.113 315.805C843.939 318.045 841.779 317.752 840.179 317.685C836.793 317.539 833.406 317.365 830.046 316.979C828.139 316.752 827.646 317.459 827.646 319.179C827.646 322.272 827.606 325.379 827.459 328.472C827.406 329.605 827.073 330.765 826.673 331.845C826.273 332.925 825.393 333.592 824.153 333.325C822.939 333.072 822.246 332.139 822.353 331.005C823.513 319.059 822.406 306.992 824.406 295.099C825.073 291.165 825.686 290.845 829.753 290.365C833.126 289.965 836.486 289.552 839.886 289.605L839.846 289.592Z" fill="black"/>
<path d="M929.579 291.446C933.846 291.446 938.099 291.446 942.366 291.446C944.072 291.446 946.006 291.552 946.032 293.766C946.059 296.006 944.032 296.112 942.392 296.166C939.686 296.259 936.966 296.166 934.246 296.166C933.139 296.166 932.166 296.206 932.086 297.806C931.632 306.219 931.046 314.619 930.619 323.019C930.526 324.939 930.939 326.872 930.966 328.806C930.992 330.459 930.526 332.059 928.526 332.139C926.553 332.219 926.006 330.752 925.793 329.046C925.086 323.432 925.739 317.832 926.006 312.232C926.219 307.792 926.619 303.352 926.952 298.912C927.086 297.165 926.473 296.259 924.566 296.059C921.566 295.752 918.566 296.499 915.566 295.859C914.099 295.539 912.459 295.406 912.553 293.432C912.646 291.406 914.299 291.032 915.926 291.019C920.486 290.966 925.032 291.006 929.592 291.006C929.592 291.152 929.592 291.286 929.592 291.432L929.579 291.446Z" fill="black"/>
<path d="M531.874 334.565C530.421 334.565 528.967 334.632 527.514 334.539C526.114 334.445 525.114 333.725 524.927 332.245C524.754 330.885 525.501 329.832 526.714 329.605C529.261 329.139 529.474 327.472 529.581 325.352C530.007 315.872 530.394 306.392 531.407 296.965C531.567 295.459 531.341 294.579 529.674 294.299C528.234 294.059 527.048 293.299 527.234 291.592C527.421 289.872 528.848 289.392 530.221 289.406C534.287 289.459 538.341 289.632 542.407 289.899C543.874 289.992 545.061 290.845 544.901 292.539C544.754 294.085 543.514 294.459 542.154 294.605C536.847 295.165 537.154 295.219 536.394 300.472C535.234 308.552 535.314 316.672 534.861 324.779C534.741 326.925 534.674 328.819 537.461 329.405C538.794 329.685 539.527 330.859 539.287 332.312C539.074 333.659 538.047 334.299 536.807 334.379C535.167 334.499 533.514 334.405 531.874 334.405C531.874 334.459 531.874 334.499 531.874 334.552V334.565Z" fill="black"/>
<path d="M402.74 329.951C402.674 332.391 400.86 334.258 398.58 334.245C395.954 334.245 393.06 331.605 393.087 329.258C393.114 326.965 395.154 325.111 397.5 325.258C400.674 325.458 402.82 327.378 402.74 329.938V329.951Z" fill="black"/>
<path d="M397.755 319.513C395.435 319.486 393.941 318.006 393.981 315.753C394.035 313.073 396.341 311.033 399.208 311.126C401.515 311.206 403.128 312.899 403.128 315.233C403.128 317.926 401.088 319.553 397.741 319.513H397.755Z" fill="black"/>
</svg>
