<svg width="1181" height="876" viewBox="0 0 1181 876" fill="none" xmlns="http://www.w3.org/2000/svg">
<path d="M2.22596 332.634C3.61235 286.92 6.8632 241.382 18.4324 198.329C34.9097 137.063 62.4781 87.5248 102.301 52.6458C124.882 32.8719 149.98 24.029 176.385 19.5038C215.618 12.7798 254.979 11.8238 294.372 11.2024C333.414 10.581 372.424 11.0749 411.45 14.3572C427.768 15.7275 444.182 17.0336 460.579 17.432C500.498 18.4199 540.4 20.5708 580.319 20.9214C625.894 21.3197 671.47 21.1765 717.029 19.5513C750.51 18.3562 783.879 13.2578 817.104 7.18705C831.064 4.63764 845.071 2.74152 859.111 2.40691C880.544 1.8811 902.009 1.86473 923.442 2.35868C954.58 3.09163 985.559 6.45381 1016.41 13.2735C1041.35 18.7866 1064.54 29.6057 1085.14 50.0806C1107.31 72.1011 1127.29 96.8458 1138.92 132.824C1150.05 167.225 1158.7 202.567 1163.86 239.661C1166.6 259.403 1171.49 278.906 1172.26 298.743C1172.99 317.641 1175.88 336.251 1175.46 355.228C1175 376.627 1178.68 397.867 1177.17 419.282C1175.62 441.079 1176.12 462.924 1172.29 484.754C1167.21 513.689 1157.41 536.57 1141.68 556.52C1117.22 587.543 1088.28 598.887 1056.58 600.018C1035.84 600.751 1015.07 600.289 994.307 600.146L1128.71 828.636L1179 874C1165.71 866.973 1153.15 855.867 1137.87 860.058C1135.93 860.6 1133.58 859.867 1131.66 858.847C1118.51 851.884 1104.82 846.323 1092.42 837.273C1053.95 809.214 1016.28 779.082 978.722 748.633C941.656 718.566 907.57 682.11 870.791 651.453C854.792 638.117 843.589 616.558 831.877 597.071C831.749 596.864 831.638 596.657 831.51 596.45L830.474 596.401C820.435 603.954 809.583 600.003 799.209 599.764C789.106 599.541 778.987 597.979 768.82 597.581C721.173 595.733 673.494 595.972 625.862 594.681C586.518 593.614 547.221 588.34 507.908 585.153C489.152 583.623 470.395 581.982 451.608 581.472C418.254 580.58 384.854 578.954 351.532 580.452C304.459 582.555 257.417 582.396 210.344 582.603C173.389 582.763 137.598 574.541 102.11 559.244C61.9363 541.924 33.5552 507.316 14.6716 455.706C8.3452 438.402 6.87913 419.202 4.99874 400.416C2.75183 377.997 1.49292 355.324 2.19409 332.618L2.22596 332.634Z" fill="white" stroke="black" stroke-width="3.99999" stroke-linecap="round" stroke-linejoin="round"/>
<path d="M700.928 383.292C701.888 379.079 703.048 374.879 703.768 370.625C704.675 365.265 705.982 360.011 707.422 354.785C707.928 352.932 708.475 350.932 710.968 351.532C713.475 352.132 713.128 354.345 712.622 356.078C710.648 362.785 709.395 369.652 708.102 376.492C707.182 381.385 705.995 386.105 703.675 390.531C702.835 392.131 701.822 393.305 699.942 393.252C697.928 393.198 696.782 391.932 696.222 390.105C694.235 383.612 692.648 377.038 692.928 370.198C692.048 369.985 692.008 370.598 691.888 370.972C690.075 377.225 687.062 383.011 684.608 389.011C684.022 390.451 683.369 391.851 682.075 392.838C679.195 395.065 675.702 394.158 674.195 390.798C673.395 388.998 673.155 387.105 673.102 385.132C672.848 375.558 673.448 365.958 672.675 356.385C672.555 354.865 672.835 353.292 673.088 351.772C673.302 350.452 673.955 349.278 675.542 349.438C677.208 349.612 677.742 350.931 677.782 352.371C677.888 356.238 677.995 360.118 677.915 363.985C677.755 371.718 677.995 379.438 678.622 387.558C680.155 386.452 680.288 384.918 680.848 383.718C685.115 374.492 688.702 364.985 691.822 355.305C692.355 353.638 693.102 352.038 695.155 352.371C697.155 352.691 697.035 354.465 697.128 356.052C697.542 362.905 697.955 369.772 698.488 376.612C698.662 378.892 699.182 381.159 700.128 383.265C700.382 383.265 700.648 383.265 700.902 383.252L700.928 383.292Z" fill="black"/>
<path d="M429.769 377.091C429.089 378.891 429.289 380.438 429.329 381.931C429.449 385.718 429.129 389.478 428.823 393.238C428.676 395.118 427.823 396.424 425.783 396.384C423.849 396.344 423.036 394.971 422.983 393.291C422.876 389.905 422.703 386.491 423.023 383.131C423.916 373.545 423.116 363.985 422.969 354.411C422.876 348.571 426.196 345.798 432.089 346.745C435.329 347.265 438.636 347.491 441.796 348.491C446.862 350.105 450.062 355.037 449.542 360.344C448.889 366.877 445.356 371.291 439.409 373.691C437.103 374.624 436.903 375.357 438.316 377.371C441.436 381.811 444.582 386.224 448.356 390.144C448.756 390.557 449.076 391.051 449.436 391.518C450.623 393.025 451.249 394.638 449.582 396.158C447.902 397.678 446.369 396.891 444.996 395.531C441.263 391.851 437.823 387.945 434.943 383.545C433.489 381.318 432.076 379.051 429.783 377.078L429.769 377.091ZM443.329 359.784C443.342 356.304 442.102 354.611 438.689 353.838C436.343 353.304 433.943 352.998 431.556 352.611C429.836 352.331 428.996 353.024 429.049 354.811C429.169 358.371 429.316 361.944 429.343 365.504C429.356 367.544 430.489 368.478 432.276 368.838C437.263 369.811 443.289 364.851 443.329 359.784Z" fill="black"/>
<path d="M420.169 305.599C425.996 305.572 428.476 303.518 428.569 298.705C428.596 296.932 428.129 295.945 426.063 296.199C423.369 296.532 420.663 296.812 417.956 296.785C416.063 296.772 414.023 296.065 414.263 293.652C414.476 291.465 416.329 291.305 418.249 291.252C420.756 291.185 423.263 290.812 425.756 290.492C431.169 289.799 434.223 292.399 434.396 297.892C434.663 306.225 428.116 312.212 419.463 311.332C407.409 310.092 397.516 300.319 399.663 286.612C400.503 281.212 401.916 276.226 404.969 271.719C409.129 265.586 415.463 263.119 422.689 264.865C425.303 265.492 428.196 265.292 430.436 267.079C434.569 270.386 436.329 274.892 436.743 280.012C436.863 281.572 436.383 283.052 434.583 283.279C432.783 283.519 432.076 282.146 431.583 280.692C431.489 280.412 431.409 280.132 431.369 279.852C429.969 270.146 423.769 269.892 415.583 270.359C414.196 270.439 413.063 271.305 412.076 272.279C405.609 278.652 403.969 286.492 405.756 295.012C407.009 300.972 413.849 305.626 420.183 305.599H420.169Z" fill="black"/>
<path d="M500.969 353.371C497.809 353.078 495.369 354.305 493.235 356.599C487.795 362.439 485.596 373.358 488.716 380.252C491.276 385.918 499.995 390.905 507.102 388.198C509.649 387.225 511.675 382.905 510.702 380.465C510.275 379.385 509.462 379.399 508.555 379.492C506.822 379.679 505.089 379.851 503.355 380.038C501.715 380.211 500.049 380.358 498.476 379.705C497.236 379.185 496.262 378.359 496.502 376.852C496.729 375.412 497.809 374.545 499.142 374.585C502.755 374.678 506.275 373.932 509.835 373.599C512.662 373.319 514.329 374.705 515.649 377.038C518.289 381.691 515.422 391.959 508.009 393.959C495.169 397.412 479.276 386.105 481.836 370.398C482.729 364.931 483.996 359.799 487.102 355.185C491.329 348.892 497.635 346.385 505.022 348.172C507.715 348.825 510.702 348.625 512.995 350.585C516.835 353.865 518.555 358.185 518.995 363.078C519.142 364.718 518.755 366.345 516.769 366.572C514.969 366.772 514.302 365.359 513.822 363.905C513.729 363.625 513.675 363.345 513.609 363.065C511.382 354.252 510.049 354.452 500.955 353.385L500.969 353.371Z" fill="black"/>
<path d="M586.435 295.866C587.475 290.453 587.729 285.559 587.169 280.613C586.635 275.879 586.782 271.133 587.195 266.399C587.275 265.453 587.529 264.467 587.955 263.627C588.515 262.533 589.502 261.853 590.835 262.16C592.035 262.44 592.582 263.359 592.675 264.506C592.769 265.666 592.715 266.826 592.729 267.986C592.822 273.013 592.689 278.026 593.169 283.08C593.795 289.68 592.462 296.213 591.302 302.693C590.915 304.813 589.929 306.946 587.409 307.226C584.742 307.533 583.849 305.399 582.942 303.399C579.595 295.986 578.302 287.76 573.862 280.8C573.369 280.04 573.342 278.933 572.102 278.466C571.382 283.36 572.289 288.173 571.889 292.96C571.595 296.426 571.435 299.92 571.102 303.386C570.915 305.32 570.715 307.679 568.035 307.453C565.529 307.253 565.062 304.946 565.409 303.012C566.875 294.933 566.315 286.786 566.435 278.653C566.489 275.546 566.395 272.453 566.435 269.346C566.449 268.293 566.529 267.2 566.809 266.186C567.235 264.626 568.075 263.266 569.915 263.173C571.649 263.079 572.555 264.266 573.075 265.72C576.635 275.653 583.115 284.346 585.609 294.746C585.662 294.986 585.942 295.186 586.449 295.839L586.435 295.866Z" fill="black"/>
<path d="M867.301 292.386C867.461 284.626 869.127 277.746 871.887 271.199C875.381 262.932 885.061 259.826 891.914 264.452C893.234 265.346 894.287 266.466 895.074 267.812C898.661 273.999 900.554 280.599 899.821 287.826C899.621 289.746 899.594 291.693 899.501 293.626C899.314 297.906 897.981 301.799 895.527 305.306C890.447 312.586 876.981 312.559 872.021 305.239C869.274 301.186 866.861 296.986 867.287 292.399L867.301 292.386ZM894.181 288.012C894.287 281.119 893.101 275.479 890.861 271.626C888.261 267.133 883.047 266.426 879.354 270.053C878.234 271.146 877.287 272.359 876.687 273.812C875.154 277.492 873.927 281.346 873.501 285.239C872.901 290.813 872.941 296.426 876.447 301.386C880.154 306.639 888.647 306.239 891.754 300.573C894.034 296.413 894.247 291.892 894.181 287.999V288.012Z" fill="black"/>
<path d="M862.822 284.732C861.955 288.906 862.742 293.732 861.382 298.372C857.848 310.439 848.075 311.879 838.822 308.439C837.328 307.879 836.315 306.706 835.315 305.479C829.715 298.652 828.982 290.839 831.022 282.679C832.502 276.732 833.288 270.453 838.075 265.773C844.528 259.453 854.088 260.519 858.515 268.399C861.262 273.279 862.622 278.626 862.822 284.746V284.732ZM856.915 286.972C857.262 281.226 856.262 275.839 853.502 270.906C851.048 266.533 845.795 265.906 842.182 269.372C840.835 270.666 839.702 272.132 839.155 273.919C838.115 277.332 836.728 280.746 836.302 284.252C835.595 289.919 835.608 295.625 839.128 300.705C842.902 306.132 851.435 305.706 854.582 299.853C856.782 295.773 856.995 291.345 856.915 286.985V286.972Z" fill="black"/>
<path d="M376.823 279.732C375.89 285.292 376.823 290.799 376.356 296.292C376.05 299.759 375.783 303.238 375.41 306.705C375.236 308.278 374.863 310.025 372.81 309.945C370.663 309.865 370.17 308.092 370.276 306.372C370.516 302.505 371.183 298.666 371.263 294.799C371.423 287.359 371.303 279.905 371.303 272.452C371.303 270.999 371.183 269.532 371.676 268.132C372.183 266.679 372.983 265.439 374.676 265.386C376.25 265.332 377.063 266.452 377.623 267.785C379.57 272.425 381.21 277.225 383.81 281.559C387.17 287.159 389.17 293.279 391.25 299.439C392.463 293.306 392.956 287.279 392.316 281.065C391.863 276.572 392.276 271.985 392.476 267.452C392.543 265.812 393.45 264.346 395.343 264.386C397.196 264.426 397.836 265.892 397.65 267.466C396.45 277.692 399.143 287.972 397.223 298.172C396.743 300.745 396.463 303.345 395.89 305.892C395.45 307.879 394.383 309.572 392.076 309.719C389.956 309.852 389.01 308.265 388.33 306.612C386.996 303.385 385.423 300.252 384.676 296.826C383.316 290.572 379.73 285.332 376.823 279.746V279.732Z" fill="black"/>
<path d="M700.955 287.199C701.115 292.853 700.502 297.799 697.982 302.359C693.435 310.573 680.035 311.426 674.062 304.226C668.662 297.706 668.142 290.373 669.208 282.6C669.608 279.64 670.408 276.719 671.062 273.786C671.862 270.186 673.635 267.159 676.302 264.586C682.475 258.599 692.128 260.026 696.262 267.639C699.662 273.906 701.342 280.599 700.955 287.199ZM694.982 287.826C695.582 281.479 694.448 275.466 691.008 270.053C688.915 266.746 685.142 265.532 681.928 267.039C679.435 268.212 677.848 270.359 677.075 272.919C674.888 280.066 673.222 287.226 675.408 294.812C676.995 300.332 680.502 303.426 686.142 303.266C690.955 303.133 694.208 299.879 694.928 294.186C695.195 292.093 694.968 289.946 694.968 287.812L694.982 287.826Z" fill="black"/>
<path d="M734.275 353.865C736.702 351.518 739.608 350.052 742.835 349.132C749.595 347.199 757.835 350.945 760.395 357.105C760.928 358.385 761.195 359.705 760.955 361.079C760.702 362.545 760.008 363.652 758.368 363.772C756.755 363.892 755.915 362.945 755.422 361.505C753.328 355.372 748.222 353.092 742.195 355.492C739.422 356.599 737.702 358.839 737.102 361.465C736.422 364.492 738.742 366.465 741.049 367.945C744.955 370.452 749.048 372.678 752.955 375.198C757.848 378.358 760.062 384.385 758.542 389.932C758.102 391.559 757.342 393.065 755.942 394.038C749.688 398.398 743.048 400.158 735.689 396.892C733.075 395.732 731.262 393.758 729.915 391.359C728.929 389.585 728.969 387.705 730.849 386.478C732.742 385.252 734.062 386.305 735.249 387.865C739.502 393.492 746.635 394.132 751.742 389.398C753.289 387.972 753.382 384.599 751.888 382.385C750.902 380.919 749.608 379.745 748.088 378.852C744.595 376.785 741.102 374.705 737.582 372.665C730.942 368.799 729.289 361.799 733.515 355.359C733.835 354.879 734.035 354.332 734.302 353.812L734.275 353.852V353.865Z" fill="black"/>
<path d="M772.928 287.799C772.435 293.439 772.021 298.426 771.555 303.426C771.475 304.279 771.315 305.159 771.008 305.959C770.635 306.933 769.821 307.506 768.741 307.506C767.541 307.506 766.715 306.813 766.381 305.693C766.168 304.973 766.048 304.146 766.155 303.413C767.821 291.013 768.075 278.506 768.835 266.039C769.115 261.426 771.688 259.306 776.328 259.906C779.008 260.253 781.635 261 784.301 261.52C794.901 263.586 795.341 274.786 790.808 280.626C788.675 283.373 785.995 285.519 782.541 286.226C779.701 286.812 779.955 287.799 781.261 289.866C784.368 294.786 787.448 299.706 791.248 304.146C792.395 305.479 793.221 307.079 791.675 308.532C789.968 310.119 788.395 309.026 787.155 307.652C783.835 303.972 781.088 299.866 778.528 295.626C776.995 293.08 775.515 290.466 772.915 287.826L772.928 287.799ZM773.861 273.026C773.861 273.026 773.821 273.026 773.795 273.026C773.715 274.573 773.795 276.146 773.501 277.639C772.995 280.213 774.328 281.28 776.528 281.573C780.568 282.106 784.035 280.813 786.581 277.639C790.168 273.146 788.261 267.679 782.715 266.319C780.741 265.839 778.755 265.426 776.768 265.053C774.821 264.679 773.821 265.466 773.861 267.519C773.901 269.359 773.861 271.186 773.861 273.026Z" fill="black"/>
<path d="M301.689 294.479C301.236 287.292 302.369 279.839 301.623 272.386C301.556 271.719 301.556 271.026 301.583 270.359C301.649 268.332 301.369 265.772 304.209 265.705C307.063 265.639 306.836 268.226 307.009 270.239C307.489 275.746 307.769 281.252 307.049 286.759C306.756 289.065 307.529 290.319 310.143 290.492C315.062 290.812 319.969 291.413 324.876 291.959C326.996 292.199 327.262 290.999 327.316 289.332C327.502 284.092 326.156 278.919 326.569 273.679C326.676 272.239 326.742 270.772 327.009 269.359C327.276 267.906 328.156 266.812 329.796 266.946C331.556 267.079 332.396 268.346 332.329 269.946C331.809 282.932 334.129 295.812 333.782 308.785C333.729 310.692 334.169 313.052 331.329 313.172C328.702 313.279 328.476 311.132 328.222 309.119C327.849 306.225 327.702 303.332 327.862 300.425C327.969 298.279 327.169 297.172 324.942 297.012C319.822 296.639 314.716 296.199 309.609 295.732C307.702 295.559 306.903 296.412 306.996 298.239C307.062 299.492 307.143 300.746 307.223 301.999C307.316 303.546 307.476 305.092 307.476 306.639C307.476 308.639 307.289 310.839 304.636 310.852C301.929 310.866 301.783 308.559 301.756 306.639C301.676 302.666 301.249 298.705 301.703 294.479H301.689Z" fill="black"/>
<path d="M528.796 286.119C528.436 292.759 525.769 298.306 519.423 301.786C514.983 304.226 510.276 305.973 505.463 307.466C504.063 307.893 502.623 308.159 501.156 307.919C499.143 307.586 498.143 306.359 498.943 304.413C499.983 301.906 500.036 299.319 499.983 296.706C499.769 287.332 500.663 277.933 498.943 268.613C498.596 266.719 498.516 264.813 497.516 263.053C496.383 261.066 497.343 259.92 499.369 259.546C511.863 257.306 525.209 266.306 527.703 278.652C528.183 281.026 528.769 283.372 528.796 286.119ZM505.303 297.826C505.303 298.213 505.369 298.612 505.303 298.986C504.783 301.439 505.583 301.839 507.876 300.999C511.249 299.759 514.623 298.546 517.649 296.586C520.169 294.959 521.956 292.812 522.729 289.786C525.849 277.692 518.463 266.772 506.089 265.146C503.716 264.839 503.663 266.052 503.983 267.679C505.956 277.652 504.143 287.813 505.316 297.826H505.303Z" fill="black"/>
<path d="M337.57 303.678C337.543 297.411 339.89 291.492 340.29 285.305C340.596 280.612 341.73 276.132 343.45 271.785C343.81 270.892 344.13 269.958 344.65 269.145C346.503 266.252 348.81 263.772 352.596 264.292C356.236 264.799 358.25 267.319 359.276 270.772C360.143 273.665 360.783 276.612 361.076 279.585C361.836 287.212 363.65 294.665 364.81 302.225C365.09 304.025 365.823 305.758 366.436 307.492C366.93 308.918 366.969 310.225 365.529 311.052C363.996 311.932 362.703 311.278 361.703 310.025C360.13 308.052 359.783 305.599 359.29 303.239C357.956 296.879 357.983 296.865 351.436 296.358C351.343 296.358 351.236 296.358 351.143 296.332C343.383 295.078 344.13 295.012 343.116 303.252C342.903 304.972 342.956 306.745 342.596 308.438C342.303 309.838 341.33 310.945 339.703 310.731C338.036 310.518 337.583 309.238 337.57 307.745C337.57 306.385 337.57 305.038 337.57 303.678ZM352.676 291.038C353.863 290.398 356.876 292.331 356.596 289.118C356.103 283.558 355.73 277.932 354.036 272.532C353.676 271.385 353.25 270.171 351.956 269.985C350.543 269.785 349.956 271.092 349.49 272.092C347.69 275.865 346.49 279.865 346.036 284.011C345.303 290.811 345.463 290.918 352.69 291.038H352.676Z" fill="black"/>
<path d="M453.596 389.466C453.516 383.199 455.889 377.279 456.302 371.092C456.622 366.412 457.676 361.905 459.422 357.559C459.782 356.666 460.089 355.719 460.582 354.906C462.382 351.986 464.649 349.453 468.436 349.879C472.236 350.293 474.289 352.919 475.329 356.466C476.182 359.359 476.809 362.306 477.116 365.293C477.889 372.919 479.676 380.372 480.849 387.919C481.129 389.719 481.889 391.439 482.489 393.172C482.982 394.625 482.916 395.892 481.462 396.692C480.036 397.466 478.822 396.879 477.849 395.759C476.382 394.079 476.116 391.919 475.516 389.879C474.836 387.572 475.409 384.745 473.756 382.945C471.956 380.999 469.129 382.319 466.782 381.906C458.796 380.466 460.196 381.799 459.262 387.812C458.982 389.625 459.116 391.492 458.849 393.305C458.609 394.919 457.849 396.426 455.929 396.332C453.889 396.239 453.596 394.626 453.596 392.959C453.596 391.799 453.596 390.639 453.596 389.466ZM468.689 376.639C469.876 375.999 472.902 377.932 472.622 374.732C472.142 369.172 471.756 363.545 470.062 358.145C469.702 356.999 469.289 355.786 467.996 355.586C466.582 355.372 465.996 356.679 465.516 357.679C463.716 361.452 462.502 365.439 462.049 369.599C461.302 376.412 461.462 376.532 468.689 376.639Z" fill="black"/>
<path d="M562.982 289.705C562.982 294.572 562.449 299.265 560.262 303.799C556.062 312.532 541.702 312.532 536.902 306.145C531.982 299.612 530.902 292.705 532.236 285.065C532.956 280.972 533.449 276.759 535.222 272.959C537.342 268.412 540.369 264.706 545.889 264.186C550.822 263.719 554.995 265.212 557.689 269.465C561.022 274.719 562.675 280.558 562.982 286.785C563.035 287.745 562.982 288.719 562.982 289.692V289.705ZM547.169 305.012C552.622 305.065 555.582 303.212 556.609 298.439C558.462 289.825 558.049 281.278 553.742 273.345C550.876 268.065 544.622 267.932 541.169 272.865C540.089 274.399 539.342 276.052 538.969 277.879C538.356 280.906 537.822 283.959 537.209 286.999C536.396 290.972 537.422 294.798 538.769 298.345C540.222 302.158 542.462 305.852 547.156 305.025L547.169 305.012Z" fill="black"/>
<path d="M907.675 268.519C906.982 273.759 907.155 278.906 907.195 284.039C907.195 284.972 906.702 286.252 907.608 286.759C908.675 287.359 909.542 286.186 910.368 285.626C916.782 281.266 923.142 276.839 929.515 272.426C930.235 271.932 930.915 271.386 931.662 270.919C932.822 270.199 934.062 269.906 935.075 271.092C936.142 272.332 935.568 273.519 934.542 274.399C932.622 276.026 930.648 277.599 928.595 279.053C924.248 282.133 919.862 285.159 915.435 288.133C913.902 289.159 913.648 289.865 915.342 291.039C920.942 294.905 925.622 299.826 930.435 304.586C931.622 305.746 932.768 306.959 931.395 308.532C930.115 310.026 928.502 309.452 927.248 308.399C925.542 306.972 923.808 305.506 922.408 303.799C919.488 300.199 915.422 297.973 912.048 294.933C911.488 294.426 910.742 294.106 910.035 293.786C907.702 292.746 906.808 293.266 906.622 295.786C906.395 298.972 906.222 302.159 905.968 305.345C905.902 306.212 905.782 307.093 905.515 307.906C905.075 309.213 904.155 310.079 902.675 309.879C901.155 309.666 900.542 308.492 900.595 307.146C900.688 304.346 900.955 301.546 901.195 298.746C902.035 288.613 901.875 278.439 902.315 268.279C902.368 267.119 902.462 265.959 902.648 264.812C902.848 263.559 903.515 262.586 904.888 262.546C906.408 262.506 907.182 263.532 907.395 264.892C907.595 266.119 907.582 267.399 907.662 268.532L907.675 268.519Z" fill="black"/>
<path d="M344.982 360.692C344.982 362.332 345.129 363.999 344.956 365.625C344.649 368.398 345.916 369.238 348.476 369.118C351.182 368.985 353.902 368.998 356.569 369.665C358.169 370.065 359.742 370.638 359.436 372.638C359.116 374.785 357.409 375.011 355.636 374.651C352.649 374.051 349.636 374.505 346.649 374.398C345.422 374.358 344.569 374.798 344.489 376.158C344.329 378.865 343.782 381.518 343.862 384.251C343.916 386.131 344.489 387.038 346.516 387.171C349.222 387.358 351.902 387.785 354.622 387.718C355.196 387.718 355.796 387.718 356.356 387.838C358.236 388.265 360.596 388.478 360.342 391.105C360.102 393.558 357.862 393.545 356.022 393.425C351.582 393.131 347.142 392.772 342.716 392.265C339.849 391.932 338.476 390.305 338.542 387.305C338.649 381.891 338.702 376.451 339.209 371.065C339.729 365.451 339.596 359.852 339.622 354.238C339.636 350.345 340.769 348.838 344.609 347.891C347.716 347.131 350.849 346.532 353.996 345.945C354.929 345.772 355.956 345.718 356.889 345.891C358.809 346.251 361.529 346.145 361.396 348.905C361.276 351.652 358.649 350.932 356.809 351.132C353.822 351.465 350.862 351.918 347.876 352.252C345.742 352.492 344.809 353.571 344.942 355.731C345.049 357.371 344.969 359.025 344.969 360.665H344.996L344.982 360.692Z" fill="black"/>
<path d="M745.302 296.306C745.262 301.119 745.262 301.159 749.315 301.652C751.329 301.892 753.369 301.959 755.395 302.119C756.555 302.212 757.728 302.239 758.848 302.492C760.422 302.839 761.982 303.492 761.795 305.466C761.608 307.439 760.008 307.905 758.368 307.839C755.089 307.705 751.795 307.519 748.529 307.172C739.889 306.252 739.689 306.199 739.995 297.439C740.342 287.479 741.342 277.559 741.062 267.573C740.995 265.146 742.355 263.465 744.569 262.759C748.635 261.466 752.835 260.719 757.075 260.252C757.649 260.186 758.262 260.212 758.809 260.359C760.529 260.799 762.929 260.799 762.822 263.266C762.715 265.879 760.355 265.492 758.555 265.532C755.249 265.612 752.022 266.279 748.769 266.772C747.222 267.012 746.355 267.839 746.369 269.506C746.395 273.386 746.409 277.252 746.369 281.132C746.355 282.932 747.355 283.465 748.955 283.479C751.955 283.519 754.968 283.306 757.928 284.052C759.648 284.479 761.289 285.093 760.809 287.266C760.395 289.199 758.768 289.412 757.115 289.065C754.128 288.452 751.115 288.919 748.129 288.799C746.729 288.746 745.969 289.319 745.862 290.799C745.702 292.919 745.435 295.025 745.302 296.319V296.306Z" fill="black"/>
<path d="M531.835 364.785C531.835 366.145 531.835 367.492 531.835 368.852C531.782 373.145 531.782 373.158 536.209 373.145C538.635 373.145 541.049 373.145 543.435 373.732C545.049 374.118 546.595 374.732 546.275 376.719C545.928 378.865 544.235 379.065 542.448 378.705C539.462 378.105 536.449 378.558 533.462 378.452C532.395 378.412 531.475 378.705 531.369 379.959C531.115 382.945 530.542 385.905 530.729 388.932C530.822 390.532 531.582 391.118 533.089 391.198C535.795 391.332 538.489 391.585 541.195 391.785C541.968 391.838 542.755 391.812 543.502 391.972C545.315 392.372 547.449 392.732 547.182 395.212C546.929 397.492 544.888 397.625 543.115 397.505C538.582 397.198 534.035 396.851 529.515 396.345C526.662 396.025 525.302 394.385 525.369 391.358C525.475 385.945 525.529 380.505 526.035 375.118C526.555 369.505 526.409 363.905 526.449 358.292C526.475 354.506 527.582 352.945 531.182 352.038C534.369 351.238 537.622 350.638 540.849 350.012C541.689 349.852 542.608 349.785 543.448 349.932C545.462 350.292 548.315 350.092 548.208 352.999C548.115 355.732 545.448 354.999 543.608 355.212C540.622 355.545 537.662 355.999 534.675 356.332C532.529 356.572 531.635 357.692 531.769 359.825C531.875 361.465 531.795 363.118 531.795 364.758H531.835V364.785Z" fill="black"/>
<path d="M396.729 386.371C397.262 376.131 398.129 365.904 397.822 355.638C397.742 353.224 398.982 351.465 401.222 350.745C405.462 349.385 409.836 348.518 414.302 348.171C414.689 348.144 415.089 348.144 415.462 348.251C417.262 348.744 419.822 348.651 419.609 351.331C419.396 353.891 416.996 353.291 415.222 353.491C412.049 353.838 408.889 354.264 405.716 354.678C404.022 354.891 403.142 355.771 403.169 357.584C403.222 361.358 403.236 365.144 403.169 368.918C403.142 370.878 404.182 371.411 405.902 371.424C408.902 371.424 411.916 371.264 414.862 372.011C416.476 372.424 417.982 373.065 417.636 375.051C417.302 376.998 415.729 377.357 414.049 377.011C411.062 376.384 408.062 376.825 405.062 376.718C403.742 376.665 402.769 377.025 402.676 378.571C402.502 381.371 401.942 384.131 402.076 386.958C402.156 388.638 402.809 389.398 404.516 389.465C407.222 389.585 409.916 389.811 412.622 390.051C413.862 390.158 415.129 390.291 416.329 390.625C417.742 391.011 418.822 391.878 418.582 393.531C418.369 395.011 417.222 395.677 415.876 395.704C410.542 395.824 405.249 395.171 399.982 394.371C398.009 394.064 396.822 392.544 396.742 390.424C396.689 389.064 396.742 387.718 396.742 386.358L396.729 386.371Z" fill="black"/>
<path d="M768.635 387.505C768.235 390.398 769.168 391.799 772.368 391.879C774.768 391.945 777.181 392.225 779.608 392.318C780.755 392.372 781.915 392.572 783.035 392.879C784.328 393.239 785.355 394.052 785.261 395.545C785.155 397.199 783.955 397.839 782.475 397.972C778.968 398.305 775.515 397.638 772.048 397.318C763.315 396.492 763.128 396.385 763.421 387.692C763.755 377.732 764.782 367.812 764.475 357.825C764.395 355.412 765.688 353.679 767.915 352.959C772.062 351.612 776.355 350.852 780.701 350.412C781.088 350.372 781.488 350.372 781.861 350.465C783.688 350.905 786.248 350.785 786.248 353.332C786.248 356.159 783.661 355.519 781.808 355.719C778.635 356.065 775.475 356.505 772.301 356.919C770.595 357.145 769.782 358.079 769.808 359.865C769.862 363.639 769.875 367.425 769.808 371.198C769.782 373.185 770.915 373.652 772.595 373.652C775.595 373.652 778.608 373.492 781.555 374.252C783.181 374.665 784.661 375.345 784.275 377.332C783.901 379.279 782.315 379.586 780.648 379.239C777.661 378.612 774.648 379.079 771.662 378.945C770.088 378.879 769.381 379.558 769.288 381.145C769.155 383.265 768.875 385.372 768.648 387.492L768.635 387.505Z" fill="black"/>
<path d="M362.449 353.438C362.423 351.998 362.836 350.918 364.156 350.558C365.663 350.145 366.543 351.065 367.063 352.332C367.983 354.585 368.356 356.985 368.783 359.371C370.196 367.225 373.863 374.385 375.783 382.091C375.903 382.545 376.103 383.159 376.689 382.958C377.063 382.825 377.383 382.318 377.569 381.905C378.543 379.692 379.409 377.425 380.436 375.238C384.129 367.372 389.223 360.185 391.756 351.758C391.889 351.305 392.169 350.878 392.449 350.492C393.356 349.238 394.476 348.198 396.103 348.972C397.796 349.772 397.596 351.292 397.023 352.745C395.623 356.358 394.529 360.145 392.663 363.505C388.183 371.531 384.476 379.931 380.303 388.118C379.823 389.065 379.209 389.945 378.596 390.811C377.743 392.025 376.756 393.198 375.076 392.932C373.316 392.652 372.463 391.292 372.116 389.718C371.156 385.465 370.049 381.265 368.703 377.118C366.356 369.851 363.516 362.718 362.769 355.025C362.716 354.452 362.543 353.891 362.463 353.478L362.449 353.438Z" fill="black"/>
<path d="M738.822 265.452C737.915 267.906 737.115 270.719 735.862 273.319C731.048 283.225 726.128 293.079 721.128 302.892C720.195 304.719 719.142 307.079 716.528 306.679C713.808 306.252 713.515 303.706 713.088 301.519C712.075 296.279 710.475 291.172 708.608 286.199C706.368 280.252 705.102 274.133 704.035 267.933C703.768 266.373 703.875 264.866 705.622 264.372C707.435 263.866 708.195 265.212 708.728 266.679C709.808 269.612 709.808 272.799 710.688 275.746C712.675 282.426 714.968 288.999 717.155 295.612C717.302 296.039 717.568 296.639 717.902 296.732C718.635 296.946 718.808 296.199 719.035 295.692C719.995 293.479 720.862 291.212 721.888 289.026C725.582 281.159 730.662 273.973 733.208 265.546C733.515 264.519 734.182 263.639 735.088 263.026C735.955 262.439 736.888 262.293 737.808 262.879C738.635 263.399 738.862 264.226 738.808 265.452H738.822Z" fill="black"/>
<path d="M251.356 293.306C257.89 293.306 267.596 292.613 277.156 290.079C283.503 288.399 290.09 288.772 291.85 296.452C293.596 304.052 287.21 305.946 281.516 307.493C265.036 311.959 248.183 313.199 231.33 311.319C215.383 309.545 201.73 302.559 191.143 290.079C154.503 246.906 154.65 195.746 213.37 168.586C232.61 159.693 252.596 159.92 272.876 162.72C275.49 163.08 278.063 164.226 280.476 165.386C285.29 167.693 289.81 170.932 287.583 176.986C285.103 183.706 279.61 182.639 273.983 180.839C245.343 171.706 210.823 182.52 192.903 205.96C185.037 216.253 182.223 227.466 185.557 240.199C188.57 251.692 192.117 262.999 199.41 272.532C212.316 289.399 222.89 293.705 251.356 293.319V293.306Z" fill="#55ADE1"/>
<path d="M452.035 311.532C449.009 311.279 445.822 311.092 442.635 310.745C439.302 310.385 437.969 309.052 437.969 305.612C437.969 301.159 438.075 296.692 438.515 292.266C439.129 286.266 438.942 280.265 438.969 274.252C438.995 270.492 440.115 268.932 443.782 268.065C446.982 267.305 450.249 266.799 453.502 266.225C454.969 265.972 456.409 266.306 457.795 266.746C458.982 267.119 459.995 267.772 459.809 269.199C459.635 270.572 458.569 271.146 457.315 271.186C454.115 271.292 450.929 271.279 447.769 271.999C444.062 272.852 443.529 273.399 443.955 277.079C444.289 279.985 444.462 282.879 443.995 285.772C443.649 287.852 444.555 288.585 446.515 288.652C449.409 288.745 452.342 288.359 455.209 289.079C456.795 289.479 458.449 289.972 458.009 292.025C457.595 293.999 455.862 294.078 454.262 293.758C452.329 293.372 450.409 293.425 448.462 293.439C442.955 293.479 444.182 293.372 443.342 297.879C443.249 298.359 443.222 298.838 443.182 299.318C442.898 303.549 444.867 305.83 449.089 306.159C451.315 306.332 453.529 306.492 455.755 306.678C457.342 306.825 458.702 307.425 458.729 309.225C458.755 311.199 457.249 311.492 455.689 311.519C454.529 311.545 453.355 311.519 452.035 311.519V311.532Z" fill="black"/>
<path d="M996.061 301.8C995.621 293.506 997.301 285.853 997.234 278.093C997.208 274.386 997.088 274.173 993.341 274.106C990.434 274.066 987.528 274.08 984.635 273.853C983.035 273.72 981.434 272.973 981.701 270.96C981.941 269.107 983.448 268.573 985.168 268.586C994.741 268.68 1004.33 268.786 1013.9 268.88C1014.49 268.88 1015.07 268.867 1015.65 268.933C1017.23 269.147 1018.54 269.813 1018.5 271.613C1018.46 273.28 1017.18 273.986 1015.74 274.053C1012.74 274.173 1009.73 274.226 1006.73 274.093C1004.25 273.986 1003.11 274.613 1003.01 277.44C1002.7 285.653 1001.99 293.853 1001.57 302.066C1001.43 304.573 1001.79 307.093 1001.85 309.6C1001.89 311.493 1001.33 313.333 999.194 313.453C996.808 313.599 996.181 311.612 996.101 309.679C995.968 306.879 996.074 304.066 996.074 301.773L996.061 301.8Z" fill="black"/>
<path d="M623.128 385.051C622.688 376.718 624.355 369.065 624.302 361.305C624.275 357.571 624.142 357.345 620.435 357.292C617.622 357.252 614.808 357.291 612.008 357.091C610.328 356.958 608.502 356.344 608.768 354.171C609.008 352.171 610.662 351.758 612.488 351.784C621.782 351.904 631.062 351.985 640.355 352.078C641.035 352.078 641.715 352.051 642.395 352.105C644.075 352.238 645.582 352.824 645.555 354.784C645.555 356.598 644.088 357.238 642.541 357.292C639.448 357.385 636.341 357.411 633.235 357.305C631.022 357.225 630.208 358.051 630.102 360.331C629.715 368.638 629.062 376.944 628.635 385.251C628.502 387.758 628.862 390.278 628.915 392.784C628.955 394.784 628.368 396.691 626.008 396.677C623.822 396.651 623.235 394.758 623.168 392.931C623.048 390.131 623.142 387.318 623.142 385.064L623.128 385.051Z" fill="black"/>
<path d="M627.622 262.746C633.422 262.746 639.235 262.746 645.035 262.746C646.608 262.746 648.088 263.173 648.262 264.959C648.435 266.693 646.982 267.159 645.608 267.452C642.422 268.146 639.262 267.146 636.062 267.239C633.862 267.306 632.995 267.866 632.995 270.213C632.995 281.039 631.102 291.812 631.795 302.679C631.902 304.345 631.475 305.972 629.448 306.026C627.502 306.079 626.888 304.492 626.702 302.866C625.942 296.372 626.728 289.919 627.182 283.452C627.488 279.012 627.782 274.572 628.142 270.146C628.315 268.039 627.462 267.159 625.302 267.226C622.208 267.332 619.102 267.279 616.008 267.226C614.262 267.199 612.462 266.813 612.542 264.626C612.608 262.546 614.435 262.466 616.022 262.452C619.902 262.426 623.768 262.452 627.648 262.452C627.648 262.546 627.648 262.639 627.648 262.732L627.622 262.746Z" fill="black"/>
<path d="M805.595 395.038C802.502 395.185 799.408 395.372 796.302 395.492C791.875 395.665 790.728 394.292 790.648 389.919C790.435 378.785 791.648 367.679 791.208 356.546C791.155 355.212 791.302 353.839 791.568 352.519C791.795 351.399 792.635 350.652 793.862 350.639C794.968 350.639 795.648 351.346 796.035 352.292C796.288 352.906 796.488 353.599 796.488 354.252C796.488 361.225 796.728 368.212 796.315 375.159C796.062 379.532 796.182 383.852 796.368 388.198C796.462 390.238 797.808 390.012 799.008 389.905C804.235 389.479 809.462 389.879 814.688 389.945C815.275 389.945 815.848 389.945 816.435 389.985C818.115 390.118 819.662 390.625 819.622 392.612C819.582 394.572 818.008 395.132 816.355 395.172C813.835 395.238 811.315 395.172 808.795 395.159C807.728 395.159 806.662 395.159 805.595 395.159C805.595 395.119 805.595 395.078 805.595 395.038Z" fill="black"/>
<path d="M319.462 392.798C316.369 392.958 313.276 393.158 310.169 393.251C305.902 393.385 304.756 391.998 304.676 387.798C304.462 376.572 305.676 365.358 305.236 354.132C305.182 352.892 305.316 351.612 305.556 350.385C305.769 349.265 306.542 348.478 307.756 348.398C309.009 348.318 309.729 349.145 310.116 350.198C310.382 350.905 310.542 351.705 310.542 352.465C310.502 360.012 311.022 367.558 310.156 375.105C309.729 378.785 310.236 382.451 310.422 386.118C310.529 388.185 312.076 387.744 313.196 387.651C318.329 387.238 323.462 387.651 328.582 387.704C328.782 387.704 328.969 387.704 329.169 387.704C331.102 387.798 333.556 387.572 333.596 390.238C333.636 393.105 331.062 392.944 329.049 392.984C325.849 393.051 322.649 392.998 319.462 392.998C319.462 392.931 319.462 392.865 319.462 392.798Z" fill="black"/>
<path d="M827.622 371.332C831.328 364.212 834.662 357.986 839.555 352.772C840.142 352.146 840.728 351.466 841.421 350.972C842.168 350.439 843.075 350.372 843.862 350.972C844.728 351.639 844.995 352.559 844.608 353.559C844.328 354.265 843.955 354.999 843.435 355.532C837.408 361.772 834.262 369.852 829.715 377.026C828.768 378.532 828.595 380.332 828.902 382.106C829.648 386.452 828.795 390.799 828.982 395.159C829.035 396.439 828.328 397.465 826.995 397.665C825.635 397.865 824.862 396.959 824.435 395.759C824.062 394.732 823.995 393.692 824.142 392.612C824.275 391.652 824.368 390.692 824.422 389.719C824.888 381.732 824.422 373.919 821.102 366.439C819.462 362.732 819.115 358.559 817.395 354.839C816.862 353.679 817.048 352.492 818.302 351.826C819.568 351.146 820.595 351.785 821.342 352.759C823.302 355.305 823.595 358.479 824.515 361.425C825.462 364.452 826.408 367.466 827.622 371.332Z" fill="black"/>
<path d="M806.608 268.812C805.888 275.545 805.328 282.305 804.408 289.012C803.861 292.972 804.128 296.946 803.581 300.879C803.341 302.586 804.288 303.145 805.821 303.065C811.475 302.772 817.035 303.706 822.608 304.359C823.475 304.466 824.341 304.559 825.195 304.746C826.448 305.026 827.368 305.732 827.315 307.119C827.248 308.639 826.155 309.372 824.795 309.439C823.261 309.506 821.688 309.439 820.168 309.186C814.888 308.359 809.581 307.999 804.248 308.079C799.701 308.146 797.328 307.319 798.155 300.865C799.048 293.799 799.848 286.665 800.421 279.532C800.781 274.999 801.115 270.466 801.515 265.933C801.675 264.173 801.928 262.039 804.248 262.186C806.848 262.346 806.488 264.639 806.475 266.466C806.475 267.239 806.395 268.012 806.355 268.785L806.621 268.812H806.608Z" fill="black"/>
<path d="M734.302 353.838C732.742 355.372 730.782 355.305 728.848 355.159C726.608 354.999 725.822 356.052 725.622 358.212C724.795 367.252 724.115 376.305 723.928 385.385C723.888 387.559 723.795 389.412 726.568 389.998C727.902 390.278 728.622 391.465 728.368 392.918C728.142 394.265 727.115 394.918 725.875 394.972C722.782 395.105 719.688 395.158 716.582 395.118C715.195 395.105 714.182 394.318 713.995 392.838C713.808 391.332 714.715 390.358 716.048 390.092C718.102 389.665 718.528 388.425 718.622 386.545C719.088 376.892 719.408 367.225 720.488 357.612C720.688 355.879 720.208 355.132 718.515 354.825C717.168 354.585 716.168 353.772 716.302 352.239C716.435 350.679 717.648 350.145 718.955 350.038C723.208 349.692 727.448 350.252 731.688 350.545C733.542 350.679 734.155 352.185 734.262 353.892L734.288 353.852L734.302 353.838Z" fill="black"/>
<path d="M594.222 395.732C592.769 395.732 591.315 395.785 589.862 395.719C588.475 395.652 587.409 395.012 587.155 393.545C586.902 392.052 587.715 390.999 589.062 390.719C591.222 390.252 591.675 388.945 591.769 386.959C592.209 377.385 592.555 367.812 593.609 358.279C593.795 356.639 593.529 355.705 591.742 355.425C590.395 355.212 589.342 354.438 589.435 352.892C589.542 351.158 590.915 350.572 592.302 350.585C596.462 350.639 600.622 350.812 604.769 351.079C606.129 351.172 607.195 352.039 607.129 353.545C607.062 355.092 605.862 355.558 604.502 355.732C599.075 356.425 599.369 356.478 598.609 361.758C597.449 369.745 597.515 377.759 597.075 385.772C596.955 388.025 596.875 390.025 599.809 390.599C601.009 390.839 601.675 391.985 601.515 393.305C601.355 394.665 600.395 395.345 599.155 395.492C597.529 395.679 595.875 395.665 594.222 395.745C594.222 395.732 594.222 395.718 594.222 395.705V395.732Z" fill="black"/>
<path d="M963.462 314.266C962.008 314.266 960.555 314.346 959.102 314.239C957.702 314.146 956.715 313.386 956.555 311.906C956.408 310.546 957.182 309.532 958.395 309.306C960.742 308.852 961.102 307.385 961.195 305.319C961.635 295.746 961.995 286.173 963.048 276.639C963.222 275.079 962.862 274.292 961.262 274.012C959.808 273.759 958.675 272.973 958.875 271.266C959.062 269.72 960.328 269.239 961.622 269.159C965.888 268.893 970.128 269.346 974.368 269.706C975.728 269.826 976.701 270.786 976.528 272.319C976.355 273.719 975.261 274.106 974.021 274.319C972.261 274.612 970.115 273.492 968.795 275.172C967.622 276.679 968.395 278.759 968.075 280.546C966.622 288.493 966.995 296.546 966.488 304.546C966.355 306.746 966.395 308.573 969.155 309.133C970.368 309.373 971.075 310.466 970.968 311.799C970.835 313.319 969.755 314.013 968.408 314.106C966.768 314.226 965.115 314.133 963.475 314.133C963.475 314.173 963.475 314.226 963.475 314.266H963.462Z" fill="black"/>
<path d="M473.529 304.653C470.903 304.693 467.969 302.119 467.943 299.759C467.916 297.586 469.756 295.706 471.969 295.653C475.076 295.573 477.623 297.653 477.596 300.267C477.569 302.693 475.783 304.626 473.529 304.653Z" fill="black"/>
<path d="M1024.19 302.958C1024.25 304.318 1023.93 304.997 1023.47 305.651C1021.63 308.291 1019.38 310.518 1016.74 312.358C1015.85 312.984 1014.85 313.678 1013.95 312.531C1013.07 311.411 1013.95 310.571 1014.71 309.811C1015.13 309.398 1015.57 309.024 1016.05 308.691C1017.58 307.651 1018.7 306.665 1017.42 304.518C1016.61 303.145 1017.42 301.704 1018.57 300.651C1019.5 299.784 1020.61 299.491 1021.75 300.185C1023.01 300.945 1024.13 301.865 1024.21 302.958H1024.19Z" fill="black"/>
<path d="M472.769 289.906C470.369 289.933 468.876 288.586 468.836 286.319C468.783 283.639 471.009 281.52 473.889 281.52C476.223 281.52 477.889 283.119 477.983 285.452C478.089 288.159 476.116 289.853 472.769 289.893V289.906Z" fill="black"/>
<path d="M602.675 267.652C601.062 267.412 600.035 266.426 601.075 264.719C602.542 262.306 603.635 259.746 604.835 257.212C605.555 255.679 607.009 255.146 608.489 255.746C610.222 256.452 609.729 257.999 609.142 259.225C608.009 261.572 606.742 263.852 605.475 266.132C604.929 267.119 604.075 267.732 602.675 267.639V267.652Z" fill="black"/>
<path d="M845.434 385.572C847.661 385.572 850.301 388.158 850.075 390.318C849.835 392.572 848.074 393.278 846.114 393.425C844.208 393.572 841.714 391.079 841.688 389.172C841.661 387.145 843.314 385.559 845.434 385.559V385.572Z" fill="black"/>
<path d="M862.074 385.678C864.074 385.758 866.301 387.905 866.314 389.772C866.328 391.572 863.741 393.732 861.608 393.719C859.594 393.692 858.154 391.932 858.154 389.492C858.154 387.385 859.994 385.598 862.088 385.678H862.074Z" fill="black"/>
<path d="M879.182 385.945C881.582 385.865 883.555 387.798 883.568 390.371C883.582 392.465 882.155 393.238 880.382 393.412C878.488 393.598 875.355 391.345 875.328 389.945C875.302 387.918 877.128 386.012 879.182 385.958V385.945Z" fill="black"/>
</svg>
