<svg width="1024" height="760" viewBox="0 0 1024 760" fill="none" xmlns="http://www.w3.org/2000/svg">
<path d="M2.19584 288.651C3.3973 249.018 6.21441 209.537 16.2404 172.211C30.5198 119.096 54.4107 76.1477 88.9216 45.9086C108.49 28.7652 130.241 21.0984 153.124 17.1752C187.124 11.3456 221.234 10.5167 255.372 9.97795C289.206 9.4392 323.013 9.8675 356.833 12.7132C370.975 13.9012 385.199 15.034 399.409 15.3793C434.003 16.2358 468.583 18.1007 503.176 18.4046C542.673 18.75 582.169 18.6257 621.651 17.2166C650.666 16.1806 679.584 11.76 708.378 6.49685C720.475 4.28659 732.614 2.6427 744.781 2.35261C763.355 1.89674 781.957 1.88288 800.531 2.31112C827.515 2.94657 854.362 5.86141 881.098 11.7739C902.71 16.5536 922.803 25.9333 940.66 43.6845C959.869 62.7756 977.187 84.229 987.268 115.421C996.907 145.246 1004.41 175.886 1008.88 208.045C1011.26 225.161 1015.5 242.069 1016.16 259.268C1016.79 275.652 1019.29 291.786 1018.93 308.239C1018.53 326.792 1021.72 345.206 1020.41 363.772C1019.07 382.67 1019.5 401.609 1016.19 420.534C1011.78 445.621 1003.29 465.458 989.657 482.753C968.459 509.649 943.38 519.485 915.912 520.466C897.932 521.101 879.938 520.701 861.943 520.576L978.416 718.671L1022 758C1010.48 751.908 999.6 742.279 986.357 745.913C984.672 746.382 982.642 745.747 980.971 744.863C969.578 738.826 957.715 734.005 946.971 726.158C913.634 701.832 880.987 675.709 848.437 649.31C816.315 623.243 786.776 591.636 754.903 565.058C741.038 553.495 731.33 534.805 721.179 517.91C721.069 517.731 720.972 517.551 720.862 517.371L719.964 517.33C711.264 523.878 701.859 520.452 692.869 520.245C684.114 520.051 675.344 518.698 666.534 518.352C625.242 516.75 583.923 516.957 542.645 515.838C508.549 514.912 474.493 510.34 440.424 507.577C424.17 506.251 407.916 504.828 391.634 504.386C362.73 503.612 333.785 502.204 304.908 503.502C264.114 505.326 223.347 505.187 182.553 505.367C150.528 505.505 119.511 498.377 88.7561 485.115C53.9414 470.099 29.3458 440.095 12.9811 395.351C7.49858 380.349 6.22831 363.703 4.59875 347.416C2.65155 327.98 1.56056 308.322 2.1682 288.637L2.19584 288.651Z" fill="white" stroke="black" stroke-width="3.99999" stroke-linecap="round" stroke-linejoin="round"/>
<path d="M613.814 256.534C611.694 261.041 610.841 265.894 609.601 270.627C609.427 271.281 609.334 271.961 609.16 272.614C608.747 274.147 607.934 275.267 606.187 275.294C604.48 275.321 603.52 274.294 603.04 272.774C601.84 268.894 600.707 264.987 599.494 261.107C599.16 260.041 598.907 258.881 597.654 257.627C597.027 263.574 595.947 269.041 596.374 274.627C596.694 278.841 595.547 282.881 595.134 287.001C594.974 288.561 594.081 289.801 592.294 289.734C590.414 289.654 589.694 288.267 589.387 286.627C589.294 286.161 589.267 285.654 589.334 285.187C590.774 275.707 590.094 266.041 591.667 256.587C592.374 252.334 591.507 248.081 591.987 243.841C592.174 242.174 592.267 240.347 594.267 239.907C596.387 239.427 597.427 241.014 598.227 242.614C600.667 247.467 602.547 252.547 604.307 257.681C604.601 258.534 604.68 259.961 605.774 259.961C606.907 259.961 606.8 258.521 607.16 257.667C608.654 254.081 609.507 250.294 610.52 246.561C610.774 245.627 611.04 244.681 611.48 243.827C612.2 242.427 613.147 241.094 614.934 241.107C616.814 241.121 617.56 242.587 618.067 244.094C619.254 247.601 619.814 251.307 619.88 254.947C619.987 261.147 620.534 267.321 620.56 273.507C620.56 276.627 621 279.681 621.494 282.734C621.84 284.854 621.52 286.894 619.067 287.227C616.6 287.574 615.76 285.601 615.494 283.534C615.134 280.761 614.6 277.987 614.774 275.161C615.147 268.961 614.067 262.827 613.827 256.561L613.814 256.534Z" fill="black"/>
<path d="M750.706 282.601C752.546 278.468 754.746 274.468 756.12 270.188C758.306 263.454 761.72 257.201 763.333 250.268C763.707 248.654 764.667 247.294 766.56 247.588C768.4 247.881 768.453 249.468 768.533 250.988C768.933 257.748 769.32 264.508 769.813 271.268C770 273.761 770.573 276.188 771.587 278.801C772.827 277.641 772.88 276.361 773.133 275.188C774.92 266.868 776.266 258.441 778.733 250.268C778.986 249.441 779.187 248.574 779.6 247.814C780.173 246.761 781.2 246.454 782.347 246.681C783.427 246.894 784.053 247.628 784.146 248.694C784.213 249.548 784.24 250.468 784.013 251.281C781.653 259.681 780.106 268.254 778.506 276.828C777.893 280.108 776.24 282.988 774.906 285.988C774.213 287.548 773.053 288.508 771.32 288.468C769.453 288.428 768.253 287.321 767.706 285.601C766.04 280.228 764.573 274.814 764.373 269.148C764.333 267.894 764.373 266.654 764.373 265.441C763.44 265.201 763.4 265.814 763.28 266.201C761.467 272.454 758.453 278.241 756 284.241C755.48 285.508 754.933 286.734 753.92 287.694C751.08 290.361 747.187 289.588 745.6 286.041C744.8 284.241 744.56 282.348 744.507 280.374C744.253 270.801 744.853 261.201 744.08 251.628C743.96 250.201 744.213 248.734 744.426 247.308C744.64 245.908 745.187 244.534 746.947 244.694C748.613 244.841 749.16 246.174 749.2 247.628C749.307 251.694 749.4 255.761 749.333 259.828C749.187 267.374 749.453 274.894 749.987 282.414L750.706 282.628V282.601Z" fill="black"/>
<path d="M761.999 362.961C762.959 358.734 764.119 354.548 764.839 350.294C765.745 344.934 767.052 339.681 768.492 334.454C768.999 332.601 769.559 330.601 772.039 331.201C774.545 331.814 774.199 334.014 773.679 335.748C771.706 342.454 770.452 349.321 769.159 356.161C768.239 361.054 767.052 365.774 764.732 370.201C763.892 371.801 762.866 372.974 760.999 372.921C758.986 372.868 757.839 371.601 757.292 369.774C755.306 363.281 753.732 356.707 753.999 349.868C753.119 349.654 753.079 350.268 752.959 350.654C751.146 356.908 748.132 362.694 745.679 368.694C745.092 370.134 744.439 371.534 743.145 372.521C740.265 374.748 736.772 373.841 735.266 370.481C734.466 368.681 734.226 366.787 734.172 364.814C733.919 355.241 734.519 345.641 733.745 336.068C733.625 334.548 733.906 332.974 734.159 331.454C734.372 330.134 735.026 328.961 736.612 329.134C738.279 329.308 738.812 330.628 738.852 332.081C738.959 335.948 739.066 339.828 738.986 343.694C738.826 351.428 739.066 359.147 739.666 366.867C740.786 366.974 740.785 366.108 741.039 365.574C745.585 355.521 749.639 345.268 752.986 334.734C753.492 333.148 754.346 331.774 756.239 332.068C758.079 332.361 758.119 333.948 758.212 335.468C758.612 342.228 758.999 348.988 759.505 355.748C759.692 358.228 760.159 360.694 761.999 362.948V362.961Z" fill="black"/>
<path d="M256.348 262.227C258.468 258.121 259.281 254.227 260.387 250.427C260.801 249.027 261.107 247.614 261.574 246.241C262.134 244.601 263.041 243.227 265.014 243.201C267.041 243.161 267.867 244.587 268.427 246.227C269.654 249.841 270.014 253.614 270.174 257.387C270.534 266.174 270.334 274.987 271.814 283.707C272.134 285.627 271.854 287.601 269.454 287.974C267.081 288.347 266.227 286.667 265.894 284.667C265.347 281.414 264.854 278.174 265.001 274.854C265.241 269.534 264.681 264.241 264.268 258.641C263.121 259.387 263.054 260.481 262.814 261.387C261.774 265.321 260.787 269.267 259.814 273.214C259.427 274.801 258.948 276.281 257.014 276.414C254.961 276.561 254.134 275.147 253.614 273.467C252.414 269.587 251.254 265.681 250.014 261.814C249.788 261.107 249.321 260.467 248.654 259.814C248.054 264.907 246.614 269.907 247.241 275.067C247.801 279.601 246.308 283.881 245.894 288.294C245.761 289.734 244.667 290.801 243.054 290.654C241.481 290.521 240.734 289.321 240.534 287.881C240.401 286.934 240.387 285.947 240.467 284.987C241.214 276.321 241.161 267.587 242.427 258.961C243.041 254.814 242.587 250.641 242.734 246.481C242.814 244.494 242.828 242.307 245.214 241.801C247.681 241.267 248.548 243.427 249.308 245.161C250.894 248.787 252.774 252.307 253.707 256.201C254.174 258.147 254.881 260.054 256.308 262.241L256.348 262.227Z" fill="black"/>
<path d="M597.239 354.041C597.679 343.801 599.799 336.134 606.159 330.134C608.506 327.921 611.212 326.268 614.412 326.268C626.999 326.294 632.546 327.574 635.626 340.787C636.106 342.841 635.892 344.947 633.492 345.481C631.039 346.014 630.546 343.894 630.052 342.068C629.679 340.668 629.306 339.254 628.839 337.894C627.812 334.921 626.053 332.867 622.573 332.787C621.239 332.747 619.919 332.228 618.586 332.014C615.213 331.468 612.226 332.348 609.693 334.641C603.506 340.241 600.946 353.214 604.973 360.547C608.093 366.227 616.506 370.694 623.719 367.707C625.932 366.787 627.999 362.374 627.293 360.094C626.879 358.774 625.932 358.614 624.772 358.774C622.946 359.027 621.119 359.214 619.293 359.494C617.933 359.707 616.586 359.747 615.266 359.334C613.639 358.841 612.359 357.974 612.679 356.054C612.973 354.281 614.373 353.934 615.946 353.814C618.746 353.601 621.546 353.387 624.333 352.987C629.799 352.201 633.079 354.574 633.066 360.147C633.039 370.801 627.959 374.881 617.239 374.147C606.319 373.401 596.546 364.347 597.266 354.054L597.239 354.041Z" fill="black"/>
<path d="M480.854 261.201C480.854 256.454 480.854 251.708 480.854 246.961C480.854 246.094 480.814 245.214 480.894 244.348C481.054 242.654 481.787 241.241 483.641 241.121C485.574 241.001 486.494 242.481 486.56 244.108C486.787 249.028 487.654 253.921 487.174 258.894C486.254 268.588 486.187 266.828 494.707 268.081C498.32 268.614 502.054 268.468 505.694 269.148C507.427 269.468 508.187 268.788 508.254 267.001C508.387 263.494 507.84 260.041 507.387 256.588C506.907 252.921 506.947 249.241 507.68 245.601C508.04 243.814 508.907 242.454 510.987 242.668C513.08 242.881 513.507 244.414 513.587 246.228C514.134 259.761 514.707 273.308 515.267 286.841C515.294 287.321 515.307 287.814 515.28 288.294C515.187 290.148 514.854 291.988 512.534 292.014C510.4 292.041 509.64 290.414 509.32 288.534C508.72 284.974 508.72 281.388 508.827 277.801C508.88 275.774 508.107 274.894 505.987 274.681C500.4 274.108 494.734 274.374 489.2 273.228C487.574 272.894 486.76 273.508 486.8 275.148C486.84 276.894 486.947 278.628 487.027 280.361C487.107 282.001 487.294 283.654 487.267 285.294C487.227 287.321 486.854 289.468 484.321 289.548C481.627 289.641 481.014 287.428 481.001 285.294C480.921 277.254 480.974 269.228 480.974 261.188C480.934 261.188 480.894 261.188 480.854 261.188V261.201Z" fill="black"/>
<path d="M287.681 369.587C293.507 369.561 295.987 367.494 296.081 362.694C296.107 360.921 295.641 359.947 293.574 360.201C290.881 360.534 288.174 360.814 285.467 360.787C283.574 360.774 281.534 360.067 281.774 357.641C282.001 355.467 283.854 355.294 285.761 355.241C288.267 355.174 290.774 354.787 293.267 354.481C298.681 353.787 301.734 356.387 301.907 361.881C302.161 370.214 295.627 376.201 286.961 375.307C274.907 374.067 265.014 364.294 267.161 350.587C267.987 345.294 269.347 340.387 272.307 335.934C276.507 329.614 282.854 327.067 290.201 328.841C292.814 329.467 295.707 329.267 297.947 331.067C302.067 334.374 303.841 338.881 304.241 344.001C304.361 345.561 303.88 347.041 302.081 347.267C300.281 347.494 299.574 346.134 299.081 344.667C298.987 344.387 298.907 344.107 298.867 343.827C297.467 334.121 291.267 333.881 283.081 334.334C281.694 334.414 280.561 335.281 279.574 336.254C273.094 342.627 271.481 350.467 273.254 358.987C274.494 364.961 281.347 369.601 287.681 369.574V369.587Z" fill="black"/>
<path d="M372.014 345.174C371.667 348.92 371.894 352.28 371.947 355.654C372.04 360.4 371.667 365.134 371.107 369.854C370.867 371.84 370.973 374.2 368.133 374.414C366.213 374.56 364.84 372.36 365.387 369.2C367.12 359.174 366.067 349.081 366.4 339.027C366.44 337.774 366.347 336.507 366.427 335.254C366.48 334.401 366.627 333.507 366.907 332.707C367.413 331.267 368.294 330.094 370.014 330.094C371.6 330.094 372.494 331.161 372.974 332.507C376.507 342.467 383.027 351.12 385.507 361.534C385.573 361.787 385.8 362.014 386.64 362.347C386.894 360.067 387.227 357.8 387.36 355.52C387.72 349.32 386.453 343.161 386.88 336.947C387.013 335.014 387 333.054 387.613 331.2C388.067 329.814 389.067 328.814 390.667 329.067C392.16 329.294 392.747 330.507 392.694 331.854C392.267 343.907 394.4 356.054 391.6 368.04C391.493 368.507 391.494 369.014 391.347 369.467C390.667 371.64 389.92 373.934 387.24 374.147C384.587 374.36 383.76 372.174 382.867 370.187C379.56 362.867 378.307 354.734 373.907 347.854C373.4 347.054 373.267 346.014 372.027 345.174H372.014Z" fill="black"/>
<path d="M337.626 271.668C337.8 264.681 339.266 257.814 342.186 251.454C347.159 240.588 357.893 240.534 363.479 245.628C367.213 249.028 368.573 253.868 369.573 258.601C371.013 265.428 370.573 272.387 368.839 279.041C365.679 291.201 355.653 292.587 346.399 289.134C345.519 288.801 344.6 288.227 344.026 287.507C340.36 282.894 337.266 278.014 337.626 271.668ZM364.466 267.721C364.813 262.001 363.826 256.614 361.079 251.668C358.639 247.268 353.386 246.601 349.773 250.041C348.266 251.468 347.106 253.134 346.506 255.108C345.559 258.254 344.306 261.374 343.893 264.601C343.146 270.374 343.093 276.174 346.64 281.348C350.386 286.814 358.933 286.428 362.093 280.601C364.306 276.521 364.533 272.107 364.466 267.707V267.721Z" fill="black"/>
<path d="M572.04 344.441C572.04 349.854 572.147 355.254 572 360.667C571.907 364.147 571.493 367.614 571.12 371.08C570.947 372.734 570.64 374.667 568.413 374.521C566.107 374.374 565.827 372.401 565.947 370.601C566.214 366.641 566.867 362.694 566.96 358.747C567.12 351.401 566.987 344.041 566.987 336.694C566.987 335.241 566.907 333.774 567.48 332.387C568.04 331.054 568.867 329.987 570.427 329.974C571.867 329.974 572.68 330.947 573.214 332.174C574.92 336.081 576.453 340.067 578.373 343.854C581.427 349.907 584.653 355.867 586.187 362.56C586.307 363.067 586.373 363.72 587.373 364.04C587.627 358.987 589 354.121 588.2 349.067C587.333 343.561 588.08 338.054 588.107 332.547C588.107 330.694 588.893 328.894 591.107 329.001C593.307 329.107 593.547 331.001 593.347 332.707C592.174 342.641 594.84 352.627 592.934 362.547C592.427 365.214 592.133 367.92 591.56 370.56C591.147 372.44 590.12 374.054 587.987 374.294C585.707 374.56 584.72 372.894 584 371.134C582.64 367.827 581.067 364.587 580.28 361.054C578.907 354.907 575.36 349.774 572.773 344.187C572.533 344.267 572.293 344.347 572.053 344.427L572.04 344.441Z" fill="black"/>
<path d="M689.599 270.761C688.239 274.708 689.425 278.801 688.839 282.774C688.692 283.721 688.812 284.708 688.732 285.681C688.598 287.294 687.892 288.588 686.119 288.614C684.159 288.641 683.425 287.228 683.398 285.508C683.358 282.028 683.172 278.508 683.519 275.054C684.359 266.628 683.479 258.214 683.439 249.801C683.412 243.961 686.172 241.481 691.945 242.308C694.159 242.628 696.372 242.881 698.559 243.321C707.879 245.188 711.305 255.654 704.972 262.841C703.012 265.068 700.679 266.774 697.839 267.668C696.105 268.214 696.025 268.974 697.025 270.388C700.345 275.041 703.705 279.654 707.612 283.828C708.892 285.201 709.892 286.761 708.265 288.388C706.625 290.028 705.105 288.974 703.718 287.694C698.958 283.321 695.652 277.814 691.758 272.748C691.198 272.028 690.865 270.988 689.585 270.761H689.599ZM688.732 253.694C688.918 255.908 689.092 258.121 689.292 260.321C689.439 261.894 690.345 262.708 691.879 262.961C696.425 263.734 701.785 260.028 702.545 255.561C703.265 251.281 701.305 249.201 695.519 248.161C691.03 247.352 688.763 249.192 688.718 253.681L688.732 253.694Z" fill="black"/>
<path d="M675.854 354.561C675.334 360.547 674.907 365.654 674.453 370.761C674.293 372.601 673.84 374.507 671.56 374.374C669.094 374.227 668.84 372.147 669.093 370.227C670.76 357.827 671 345.321 671.76 332.854C672.027 328.428 674.573 326.267 679.08 326.801C681.76 327.121 684.4 327.881 687.067 328.387C698.307 330.521 698.32 342.587 693.133 348.307C690.933 350.734 688.347 352.614 685.107 353.267C682.773 353.734 682.827 354.601 683.96 356.387C687.12 361.387 690.2 366.427 694.08 370.934C695.293 372.334 696.267 374.014 694.533 375.521C692.813 377.041 691.24 375.867 690.027 374.494C686.787 370.867 684.067 366.854 681.574 362.694C680 360.067 678.4 357.441 675.867 354.574L675.854 354.561ZM681.56 348.614C684.107 348.681 686.707 347.481 688.84 345.347C691.173 343.014 691.64 340.174 690.84 337.041C690.133 334.254 687.707 333.854 685.507 333.241C683.653 332.734 681.733 332.388 679.84 332.001C677.76 331.588 676.76 332.388 676.76 334.587C676.76 337.681 676.707 340.774 676.52 343.854C676.307 347.561 677.294 348.667 681.547 348.614H681.56Z" fill="black"/>
<path d="M494.907 358.654C494.654 351.014 495.681 343.374 494.961 335.734C494.907 335.16 494.907 334.574 494.921 333.987C494.987 332.014 494.961 329.707 497.641 329.707C500.107 329.707 500.201 331.894 500.334 333.787C500.708 339.387 501.187 344.987 500.401 350.6C500.067 352.974 500.774 354.374 503.587 354.534C508.507 354.827 513.414 355.454 518.321 355.987C520.507 356.227 520.614 354.854 520.667 353.267C520.854 348.027 519.507 342.867 519.921 337.614C520.041 336.174 520.107 334.707 520.387 333.294C520.681 331.827 521.587 330.814 523.241 330.987C524.854 331.16 525.707 332.307 525.654 333.787C525.214 347.16 527.481 360.427 527.147 373.8C527.107 375.454 526.907 377.054 524.854 377.227C522.787 377.414 521.934 376.04 521.681 374.214C521.227 370.947 520.987 367.654 521.187 364.36C521.321 362.147 520.334 361.187 518.174 361.04C513.147 360.68 508.134 360.254 503.121 359.787C501.107 359.6 500.201 360.387 500.307 362.387C500.467 365.28 500.667 368.174 500.774 371.08C500.827 372.36 500.587 373.627 499.467 374.467C497.601 375.854 495.467 374.587 495.147 371.747C494.894 369.534 494.921 367.294 494.867 365.08C494.827 362.947 494.867 360.827 494.867 358.694L494.907 358.654Z" fill="black"/>
<path d="M774.212 366.667C774.158 360.4 776.519 354.48 776.932 348.294C777.252 343.6 778.318 339.107 780.065 334.76C780.385 333.947 780.652 333.107 781.092 332.36C782.905 329.32 785.198 326.68 789.105 327.12C792.905 327.547 794.932 330.2 795.972 333.747C796.825 336.64 797.452 339.587 797.745 342.574C798.518 350.2 800.305 357.654 801.478 365.2C801.745 366.907 802.425 368.547 803.025 370.187C803.572 371.72 803.665 373.107 802.025 373.947C800.439 374.76 799.198 373.987 798.238 372.734C796.958 371.067 796.678 369.014 796.118 367.067C795.452 364.76 796.039 361.934 794.332 360.147C792.505 358.24 789.692 359.467 787.345 359.147C780.612 358.214 780.585 358.254 779.852 365.08C779.652 366.907 779.718 368.774 779.452 370.587C779.212 372.2 778.412 373.694 776.492 373.574C774.465 373.44 774.198 371.814 774.212 370.147C774.212 368.987 774.212 367.827 774.212 366.654V366.667ZM789.585 353.894C790.505 353.134 793.465 355.067 793.238 352.16C792.772 346.4 792.372 340.587 790.558 335.014C790.212 333.96 789.705 332.947 788.492 332.827C787.345 332.707 786.798 333.72 786.372 334.547C784.372 338.347 783.212 342.454 782.692 346.694C781.852 353.64 782.092 353.814 789.585 353.894Z" fill="black"/>
<path d="M305.76 367.614C305.76 361.347 308.107 355.427 308.507 349.24C308.813 344.547 309.96 340.067 311.667 335.72C311.987 334.907 312.28 334.067 312.733 333.334C314.6 330.32 316.92 327.734 320.853 328.28C324.493 328.787 326.48 331.347 327.506 334.8C328.36 337.694 329.04 340.64 329.293 343.614C329.867 350.294 331.626 356.76 332.466 363.4C332.813 366.187 333.493 368.92 334.653 371.52C335.28 372.907 335.146 374.24 333.706 375.054C332.293 375.854 331.053 375.307 330.08 374.187C328.413 372.267 328.067 369.814 327.56 367.454C326.133 360.88 326.173 360.867 319.613 360.347C319.427 360.334 319.226 360.32 319.04 360.294C311.066 358.88 312.4 360.08 311.44 366.44C311.16 368.254 311.293 370.134 311 371.934C310.72 373.547 309.853 374.974 307.907 374.707C306.067 374.467 305.813 372.947 305.813 371.4C305.813 370.147 305.813 368.88 305.813 367.627L305.76 367.614ZM321.08 355.027C322.213 354.44 325.08 356.187 324.8 353.2C324.28 347.534 323.92 341.814 322.173 336.334C321.84 335.28 321.4 334.214 320.24 334C318.787 333.734 318.213 335.04 317.733 336.014C315.92 339.68 314.787 343.6 314.267 347.64C313.36 354.76 313.626 354.974 321.08 355.04V355.027Z" fill="black"/>
<path d="M782.893 282.374C784.893 272.227 784.933 261.748 788.186 251.828C788.826 249.894 789.559 247.988 790.839 246.361C792.639 244.068 794.973 242.708 797.906 243.201C800.746 243.681 802.826 245.308 803.866 248.134C805.746 253.294 805.999 258.734 806.946 264.068C808.186 271.107 808.853 278.281 811.226 285.081C811.759 286.614 811.759 288.054 810.159 288.854C808.292 289.787 806.906 288.761 806.066 287.201C804.572 284.427 803.986 281.347 803.693 278.268C803.426 275.454 802.106 274.414 799.333 274.601C797.613 274.721 795.866 274.387 794.132 274.201C789.866 273.747 789.186 274.294 788.879 278.507C788.733 280.441 788.572 282.374 788.372 284.294C788.172 286.227 788.106 288.587 785.452 288.494C782.746 288.414 782.906 286.081 782.893 284.121C782.893 283.534 782.893 282.961 782.893 282.374ZM798.052 269.307C799.746 269.227 801.932 269.694 801.506 266.841C800.759 261.774 800.746 256.588 799.172 251.654C798.799 250.468 798.519 248.961 796.999 248.908C795.559 248.868 794.906 250.241 794.452 251.388C793.159 254.734 791.973 258.121 791.599 261.721C790.719 270.294 789.279 268.027 798.052 269.307Z" fill="black"/>
<path d="M739.918 267.934C740.052 273.081 739.652 277.601 737.505 281.774C732.732 291.081 719.212 291.814 713.038 283.454C708.492 277.294 707.985 270.654 709.132 263.588C709.798 259.481 710.332 255.281 712.078 251.468C714.212 246.801 717.278 243.028 722.945 242.534C728.825 242.028 733.052 244.468 735.758 249.681C738.305 254.574 739.638 259.788 739.918 265.268C739.972 266.334 739.918 267.401 739.918 267.907V267.934ZM734.585 268.041C734.718 262.467 733.692 256.921 730.798 251.801C729.345 249.228 727.292 247.854 724.225 247.814C719.905 247.748 717.905 250.601 716.692 253.934C714.932 258.761 713.639 263.828 713.972 268.987C714.225 272.881 715.092 276.734 717.412 280.187C719.518 283.307 722.332 284.041 725.692 283.801C729.052 283.561 731.545 281.921 732.958 278.814C734.492 275.467 734.652 271.894 734.585 268.041Z" fill="black"/>
<path d="M238.228 367.32C240.268 356.8 240.308 345.934 243.894 335.694C244.508 333.947 245.254 332.294 246.427 330.827C248.227 328.56 250.454 327.054 253.441 327.627C256.427 328.2 258.401 330.214 259.374 333.054C260.707 336.907 261.254 340.947 261.814 344.974C263.001 353.587 264.107 362.214 266.841 370.52C267.307 371.947 267.281 373.28 265.774 374.014C264.294 374.734 263.081 373.974 262.281 372.774C260.334 369.88 259.667 366.48 259.441 363.134C259.227 360 257.721 359.067 254.988 359.267C252.348 359.454 249.787 358.814 247.187 358.627C245.387 358.494 244.468 359.174 244.294 360.987C244.014 363.974 243.694 366.947 243.361 369.934C243.161 371.747 242.787 373.694 240.507 373.587C238.067 373.48 238.254 371.387 238.241 369.627C238.241 368.854 238.241 368.08 238.241 367.307L238.228 367.32ZM253.401 354.427C254.747 353.734 257.748 355.587 257.308 352.267C256.614 346.92 256.454 341.48 254.881 336.267C254.481 334.92 254.254 333.174 252.414 333.12C250.667 333.054 250.054 334.64 249.507 335.96C247.747 340.16 246.654 344.547 246.214 349.094C245.801 353.387 245.774 353.387 249.908 353.974C251.054 354.134 252.201 354.28 253.401 354.44V354.427Z" fill="black"/>
<path d="M410.56 374.214C406.04 373.84 401.827 372.467 399.107 368.2C398.013 366.48 397.667 364.614 399.56 363.307C401.547 361.92 402.693 363.44 403.787 364.947C407.12 369.534 414.36 370.027 418.44 365.987C420.48 363.96 419.707 359.48 416.64 357.36C413.467 355.16 410.066 353.267 406.733 351.28C405.48 350.534 404.213 349.854 403.227 348.734C397.453 342.174 399.653 333.84 407.787 330.36C413.706 327.827 418.76 329.24 423.507 332.907C425.707 334.6 426.733 336.974 426.573 339.787C426.493 341.28 425.96 342.52 424.293 342.654C422.76 342.774 422.16 341.654 421.76 340.334C420.68 336.707 417.707 334.307 414.28 334.214C410.44 334.107 406.773 336.347 405.386 339.64C404.386 342 405.613 344.64 408.746 346.56C411.8 348.427 414.933 350.174 418.04 351.987C422.706 354.707 425.267 358.574 424.84 364.16C424.6 367.307 423.226 369.654 420.413 371.174C417.386 372.8 414.253 374.014 410.573 374.2L410.56 374.214Z" fill="black"/>
<path d="M521.519 277.081C521.612 271.361 522.226 265.668 522.546 259.974C522.732 256.708 522.306 253.401 522.292 250.108C522.292 245.761 523.692 243.948 527.959 242.948C531.159 242.201 534.426 241.641 537.666 241.054C539.106 240.801 540.572 240.908 541.986 241.348C543.386 241.788 545.012 242.201 544.786 244.108C544.572 245.961 542.999 246.254 541.466 246.188C537.946 246.028 534.532 246.774 531.079 247.254C528.399 247.628 527.372 248.868 527.586 251.494C527.892 255.254 528.386 259.014 527.679 262.788C527.386 264.348 528.239 265.174 529.799 265.201C531.639 265.241 533.479 265.281 535.319 265.241C537.079 265.201 538.799 265.428 540.492 265.881C541.892 266.254 543.146 266.961 542.906 268.641C542.666 270.334 541.199 270.868 539.826 270.574C536.439 269.841 533.066 270.628 529.706 270.348C528.212 270.228 527.626 270.654 527.372 272.121C526.852 275.201 526.839 278.294 526.852 281.401C526.852 283.081 527.586 283.828 529.292 283.908C532.479 284.041 535.666 284.321 538.852 284.508C540.026 284.574 541.186 284.628 542.212 285.254C543.199 285.854 543.826 286.681 543.599 287.894C543.372 289.108 542.545 289.774 541.372 289.828C535.732 290.068 530.132 289.601 524.586 288.654C522.559 288.308 521.506 286.721 521.492 284.614C521.466 282.094 521.492 279.574 521.492 277.054L521.519 277.081Z" fill="black"/>
<path d="M554.4 354.534C554.066 348.001 556.12 341.681 556.106 335.174C556.106 334.001 556.747 333.108 558 332.961C559.48 332.774 560.346 333.641 560.893 334.894C561.693 336.708 561.186 338.588 560.88 340.348C559.586 347.628 560.16 355.041 559.093 362.307C557.853 370.814 551.72 376.321 543.16 377.001C539.413 377.294 534.827 374.147 533.28 370.094C532.16 367.174 531.507 364.134 531.653 361.001C532.027 353.174 532.453 345.348 532.88 337.521C532.906 337.041 532.986 336.548 533.106 336.094C533.52 334.548 534.026 332.828 536.04 333.174C538.026 333.521 537.92 335.241 537.84 336.881C537.426 345.294 536.76 353.694 536.893 362.121C536.893 362.507 536.907 362.894 536.933 363.281C537.213 367.907 539.293 371.187 542.28 371.721C545.64 372.321 550.733 369.507 552.44 366.147C554.306 362.467 554.6 358.547 554.386 354.534H554.4Z" fill="black"/>
<path d="M666.133 244.801C669.706 245.014 672.28 244.694 674.653 245.828C676.266 246.601 678.053 247.548 677.346 249.681C676.613 251.921 674.72 251.348 672.933 250.921C665.213 249.068 658.279 250.641 652.426 256.054C647.079 261.014 647.533 270.148 652.759 276.348C657.079 281.468 662.373 282.841 668.64 281.934C670.84 281.614 673.04 281.214 675.253 281.014C676.786 280.868 678.306 281.268 678.613 283.068C678.933 284.908 677.839 285.948 676.106 286.388C670.413 287.881 664.68 288.241 658.853 287.134C654.12 286.241 650.746 283.214 648.133 279.628C642.76 272.254 640.013 262.334 645.773 255.121C651.213 248.308 658.279 244.548 666.133 244.801Z" fill="black"/>
<path d="M287.001 243.094C290.854 243.401 294.707 243.694 298.454 244.841C305.734 247.068 308.334 256.788 303.187 262.481C299.641 266.401 295.134 267.947 290.028 268.414C283.854 268.974 283.907 269.054 283.627 275.321C283.467 278.894 283.201 282.481 282.841 286.041C282.654 287.841 282.094 289.747 279.734 289.387C277.521 289.041 277.334 287.241 277.521 285.334C278.561 274.641 279.161 263.921 279.414 253.188C279.441 252.321 279.414 251.441 279.334 250.574C278.814 245.441 280.627 243.361 285.841 243.108C286.227 243.094 286.614 243.108 287.001 243.108V243.094ZM284.348 255.641C284.348 255.641 284.334 255.641 284.321 255.641C284.321 257.574 284.321 259.521 284.321 261.454C284.321 262.387 284.574 263.108 285.641 263.414C289.187 264.468 297.561 261.708 299.734 258.694C302.187 255.308 300.681 250.574 296.681 249.348C294.081 248.548 291.387 248.148 288.667 247.961C284.441 247.668 284.307 247.814 284.334 252.148C284.334 253.308 284.334 254.468 284.334 255.641H284.348Z" fill="black"/>
<path d="M455.439 239.788C460.373 239.788 465.32 239.788 470.253 239.788C471.213 239.788 472.199 239.828 473.133 240.054C474.453 240.388 475.386 241.254 475.333 242.734C475.28 244.094 474.346 244.761 473.119 245.068C471.119 245.574 469.119 245.561 467.066 245.308C459.146 244.294 458.64 244.614 458.306 252.281C457.853 262.801 456.479 273.294 457.119 283.867C457.239 285.801 457.013 287.854 454.52 287.934C452.013 288.001 451.373 285.974 451.28 283.921C450.92 275.788 451.213 267.681 452.066 259.574C452.479 255.641 452.626 251.668 452.88 247.721C453 245.908 452.16 245.041 450.306 245.054C446.72 245.081 443.133 245.094 439.56 245.014C437.666 244.974 435.546 244.694 435.64 242.188C435.733 239.681 437.866 239.654 439.773 239.654C444.999 239.654 450.226 239.654 455.466 239.654C455.466 239.694 455.466 239.734 455.466 239.774L455.439 239.788Z" fill="black"/>
<path d="M824.333 279.281C826.706 276.121 827.519 272.881 828.799 269.921C830.346 266.335 832.586 263.175 834.399 259.775C836.319 256.175 837.786 252.388 839.239 248.588C839.586 247.695 839.972 246.788 840.519 246.001C841.412 244.721 842.639 243.828 844.226 244.735C845.692 245.575 845.519 247.001 844.999 248.335C842.932 253.655 841.346 259.241 838.172 264.015C834.052 270.201 832.106 277.414 828.306 283.708C827.759 284.614 827.199 285.534 826.586 286.401C825.666 287.694 824.639 288.961 822.812 288.548C821.092 288.148 820.333 286.748 819.986 285.174C819.079 280.908 817.919 276.721 816.572 272.574C814.226 265.308 811.466 258.161 810.639 250.468C810.453 248.761 809.972 246.921 812.039 246.308C814.386 245.615 815.146 247.601 815.426 249.321C816.906 258.655 820.639 267.321 823.292 276.308C823.532 277.121 823.853 277.908 824.346 279.294L824.333 279.281Z" fill="black"/>
<path d="M816.693 363.361C818.987 360.467 819.626 357.707 820.72 355.187C822.373 351.361 824.533 347.814 826.627 344.227C828.84 340.454 830.333 336.347 831.893 332.281C832.266 331.307 832.786 330.334 833.413 329.507C834.24 328.427 835.413 327.867 836.733 328.587C838.08 329.321 838.147 330.627 837.68 331.894C835.507 337.694 833.586 343.641 830.226 348.881C827.373 353.334 825.427 358.147 823.347 362.934C822.227 365.534 820.746 367.907 819.186 370.241C818.306 371.561 817.266 372.827 815.44 372.467C813.706 372.121 812.907 370.721 812.573 369.147C811.653 364.881 810.493 360.694 809.16 356.547C806.853 349.374 804.013 342.334 803.307 334.734C803.267 334.254 803.08 333.787 803.013 333.307C802.827 331.814 803.16 330.507 804.786 330.121C806.293 329.761 807.133 330.774 807.613 332.041C808.56 334.494 808.853 337.107 809.386 339.654C811.066 347.587 814.68 354.894 816.667 363.374L816.693 363.361Z" fill="black"/>
<path d="M645.666 343.454C645.666 345.294 645.826 347.147 645.626 348.961C645.412 350.814 646.172 351.401 647.852 351.467C651.039 351.601 654.252 351.201 657.412 352.001C658.919 352.387 660.439 352.841 660.145 354.721C659.839 356.654 658.199 356.481 656.692 356.427C653.506 356.294 650.305 356.294 647.105 356.121C645.852 356.054 645.319 356.454 645.252 357.694C645.092 360.694 644.599 363.654 644.666 366.681C644.719 368.627 645.345 369.454 647.372 369.494C650.559 369.561 653.746 369.867 656.932 370.107C657.692 370.161 658.479 370.307 659.199 370.561C660.305 370.947 661.012 371.747 660.879 372.974C660.745 374.227 659.865 374.881 658.705 374.921C653.359 375.134 648.052 374.534 642.799 373.707C640.439 373.334 639.705 371.307 639.799 369.041C640.079 362.654 640.212 356.267 640.666 349.894C640.959 345.921 641.012 341.961 640.692 338.001C640.306 333.268 641.799 331.121 646.439 330.134C650.319 329.307 654.199 328.334 658.225 328.694C659.892 328.841 661.906 328.948 661.932 331.108C661.959 333.481 659.905 333.241 658.239 333.174C654.812 333.041 651.505 333.841 648.145 334.348C646.412 334.601 645.665 335.614 645.732 337.361C645.799 339.388 645.745 341.427 645.745 343.467C645.719 343.467 645.679 343.467 645.652 343.467L645.666 343.454Z" fill="black"/>
<path d="M158.067 244.828C159.601 214.188 163.747 180.774 162.121 147.121C161.681 138.014 166.707 132.028 174.774 129.214C189.347 124.121 204.681 122.508 219.961 121.055C223.361 120.735 227.054 121.881 230.4 122.988C234.72 124.401 238.347 127.121 237.347 132.348C236.454 137.015 232.454 138.348 228.294 138.228C214.974 137.841 201.947 139.868 188.921 142.361C181.881 143.708 178.267 146.468 179.121 154.561C180.521 167.694 180.987 180.961 178.934 194.108C177.787 201.441 181.281 203.868 187.881 203.841C195.387 203.828 202.907 203.681 210.4 204.028C214.654 204.228 218.947 204.948 223.054 206.081C227.814 207.401 231.934 210.081 230.561 215.934C229.361 221.068 224.774 222.654 220.414 221.614C209.014 218.894 197.614 221.948 186.294 220.814C180.934 220.281 178.414 221.521 177.734 227.214C176.561 237.161 175.841 247.094 175.814 257.121C175.787 264.721 178.507 268.081 186.454 268.187C198.227 268.334 210.014 269.201 221.747 270.267C227.587 270.801 233.987 272.641 233.241 280.187C232.507 287.614 226 288.361 220.08 287.961C204.054 286.854 188.014 285.667 172.041 283.947C162.361 282.907 157.708 276.894 158.014 267.014C158.214 260.587 158.054 254.147 158.054 244.828H158.067Z" fill="#55ADE1"/>
<path d="M840.625 362.454C840.972 356.76 841.238 351.054 841.705 345.361C841.971 342.147 841.385 338.987 841.411 335.787C841.438 331.774 842.825 329.894 846.718 328.961C850.398 328.081 854.105 327.294 857.932 327.561C859.598 327.681 861.598 327.801 861.558 330.001C861.518 332.214 859.478 331.934 857.985 331.894C854.852 331.841 851.825 332.534 848.771 333.054C846.945 333.361 846.052 334.361 846.185 336.254C846.438 339.827 846.852 343.387 846.238 346.974C845.985 348.467 846.985 349.054 848.358 349.081C850.105 349.107 851.852 349.054 853.585 349.134C855.025 349.214 856.478 349.347 857.905 349.627C859.132 349.867 860.105 350.601 859.918 352.04C859.718 353.667 858.425 354.147 857.118 353.854C854.211 353.201 851.318 353.787 848.438 353.601C846.851 353.494 846.145 353.907 845.972 355.547C845.705 358.054 845.425 360.547 845.465 363.067C845.491 364.747 846.212 365.587 847.852 365.694C850.078 365.841 852.292 365.974 854.518 366.147C855.772 366.24 857.038 366.321 858.252 366.587C859.558 366.881 860.651 367.641 860.505 369.174C860.358 370.694 859.171 371.281 857.798 371.281C853.051 371.254 848.318 370.814 843.638 370.027C841.838 369.721 840.785 368.44 840.705 366.534C840.651 365.174 840.705 363.827 840.705 362.467C840.678 362.467 840.652 362.467 840.625 362.467V362.454Z" fill="black"/>
<path d="M847.466 277.947C847.813 272.254 848.08 266.547 848.546 260.854C848.813 257.641 848.213 254.481 848.24 251.281C848.266 247.281 849.666 245.414 853.586 244.481C857.36 243.574 861.159 242.774 865.093 243.107C866.679 243.241 868.479 243.521 868.399 245.561C868.333 247.587 866.506 247.467 865.066 247.427C861.826 247.334 858.706 248.041 855.56 248.587C853.72 248.907 852.866 249.947 853 251.814C853.266 255.387 853.653 258.947 853.053 262.534C852.799 264.041 853.866 264.574 855.213 264.601C856.96 264.627 858.706 264.574 860.439 264.654C861.786 264.707 863.146 264.827 864.466 265.081C865.786 265.334 866.919 266.001 866.719 267.601C866.506 269.214 865.186 269.667 863.893 269.374C860.986 268.707 858.093 269.334 855.213 269.107C853.586 268.987 852.946 269.481 852.773 271.107C852.533 273.414 852.32 275.721 852.24 278.054C852.173 280.307 853.146 281.241 855.266 281.334C857.4 281.427 859.52 281.521 861.653 281.694C862.906 281.787 864.159 281.921 865.373 282.227C866.586 282.534 867.48 283.374 867.32 284.747C867.16 286.107 866.119 286.774 864.866 286.787C859.92 286.827 854.999 286.374 850.146 285.454C848.466 285.134 847.573 283.787 847.52 282.027C847.48 280.667 847.52 279.321 847.52 277.961C847.493 277.961 847.466 277.961 847.439 277.961L847.466 277.947Z" fill="black"/>
<path d="M322.96 288.481C319.867 288.627 316.773 288.801 313.667 288.921C309.213 289.107 308.027 287.734 307.933 283.414C307.72 272.281 308.947 261.174 308.493 250.041C308.44 248.788 308.533 247.521 308.747 246.281C308.96 245.054 309.707 244.108 311.08 244.068C312.466 244.028 313.133 245.014 313.52 246.174C313.693 246.721 313.813 247.308 313.813 247.881C313.787 255.428 314.293 262.988 313.44 270.521C313.013 274.294 313.507 278.067 313.693 281.827C313.787 283.681 315.16 283.401 316.24 283.321C321.467 282.894 326.693 283.281 331.92 283.374C332.693 283.374 333.48 283.374 334.24 283.467C335.72 283.654 336.933 284.321 336.947 285.974C336.947 287.614 335.787 288.454 334.307 288.521C331.507 288.654 328.693 288.587 325.88 288.587C324.907 288.587 323.947 288.587 322.973 288.587C322.973 288.547 322.973 288.507 322.973 288.467L322.96 288.481Z" fill="black"/>
<path d="M345.84 374.814C345.12 374.814 344.547 374.814 343.96 374.814C342.2 374.814 340.493 374.534 340.173 372.481C339.866 370.547 341.36 369.747 342.947 369.334C344.64 368.894 344.893 367.734 344.933 366.254C345.027 362.494 345.333 358.734 345.293 354.974C345.24 348.654 346.506 342.454 346.773 336.161C346.84 334.561 346.733 333.601 344.853 333.401C343.533 333.267 342.386 332.494 342.426 330.974C342.466 329.294 343.746 328.654 345.186 328.521C349.546 328.148 353.88 328.694 358.213 329.041C359.533 329.147 360.56 330.147 360.453 331.641C360.333 333.321 359.08 333.841 357.6 333.948C352.32 334.321 352.626 334.361 351.866 339.614C350.653 348.067 350.707 356.574 350.293 365.067C350.2 367.121 350.16 368.881 352.813 369.467C354.213 369.774 355.106 371.001 354.746 372.601C354.4 374.134 353.12 374.321 351.8 374.401C349.773 374.507 347.746 374.681 345.84 374.814Z" fill="black"/>
<path d="M382.28 261.508C383.373 259.548 384.346 258.014 385.12 256.388C387.546 251.254 391.027 246.855 394.693 242.575C395.68 241.415 396.946 240.428 398.453 241.601C399.933 242.748 399.506 244.334 398.453 245.454C392.506 251.748 389.093 259.654 384.64 266.894C383.453 268.814 383.146 270.854 383.48 273.028C384.16 277.281 383.333 281.534 383.506 285.788C383.56 287.054 382.8 288.054 381.453 288.214C380.226 288.361 379.426 287.574 379.066 286.494C378.8 285.681 378.52 284.761 378.64 283.948C379.387 278.921 378.733 273.881 379 268.854C379.053 267.908 379.04 266.854 378.68 266.001C375.907 259.468 374.693 252.441 372.08 245.868C371.546 244.521 371.32 243.121 372.933 242.361C374.52 241.615 375.573 242.655 376.28 243.855C376.96 245.001 377.453 246.295 377.826 247.588C379.12 252.108 380.253 256.695 382.307 261.521L382.28 261.508Z" fill="black"/>
<path d="M441.347 332.187C447.734 332.187 454.134 332.187 460.52 332.187C462.16 332.187 463.867 332.401 463.894 334.481C463.92 336.347 462.24 336.827 460.774 336.841C457.88 336.894 454.974 336.721 452.08 336.561C450.174 336.454 449.28 337.027 449.267 339.161C449.187 349.614 447.4 360.001 448.054 370.48C448.16 372.094 447.934 373.84 445.934 374.04C443.747 374.254 443.32 372.507 443.08 370.774C442.174 364.374 443.2 358.014 443.494 351.654C443.68 347.601 444.054 343.547 444.387 339.507C444.56 337.454 443.854 336.441 441.627 336.521C438.627 336.627 435.614 336.574 432.614 336.494C430.974 336.454 429.307 336.027 429.4 333.974C429.494 332.121 431.067 331.801 432.614 331.787C435.52 331.761 438.427 331.787 441.334 331.787C441.334 331.921 441.334 332.067 441.334 332.201L441.347 332.187Z" fill="black"/>
<path d="M633.626 288.014C632.173 288.014 630.719 288.067 629.266 288.001C627.879 287.934 626.813 287.294 626.546 285.827C626.279 284.334 627.106 283.281 628.453 282.987C630.613 282.521 631.066 281.227 631.159 279.227C631.599 269.654 631.946 260.081 632.999 250.547C633.173 248.907 632.933 247.974 631.133 247.694C629.786 247.481 628.733 246.708 628.813 245.161C628.906 243.428 630.279 242.841 631.679 242.854C635.839 242.908 639.999 243.081 644.146 243.348C645.506 243.441 646.573 244.294 646.519 245.814C646.453 247.361 645.253 247.801 643.906 248.014C642.159 248.294 640.012 247.161 638.719 248.934C637.652 250.388 638.359 252.347 638.066 254.041C636.679 261.987 636.919 270.041 636.479 278.041C636.359 280.294 636.266 282.294 639.213 282.881C640.426 283.121 641.079 284.267 640.933 285.587C640.786 286.947 639.813 287.641 638.573 287.774C636.946 287.961 635.293 287.961 633.639 288.027C633.639 288.014 633.639 288.001 633.639 287.987L633.626 288.014Z" fill="black"/>
</svg>
