<svg width="883" height="656" viewBox="0 0 883 656" fill="none" xmlns="http://www.w3.org/2000/svg">
<path d="M880.477 249.148C879.45 215.042 877.023 181.055 868.383 148.935C856.09 103.215 835.517 66.2551 805.811 40.2418C788.957 25.4818 770.237 18.8818 750.544 15.5085C721.264 10.4952 691.904 9.77529 662.517 9.32196C633.397 8.86863 604.291 9.22866 575.171 11.682C562.998 12.7086 550.758 13.6686 538.518 13.9753C508.744 14.7086 478.958 16.3219 449.185 16.5752C415.185 16.8685 381.172 16.7618 347.185 15.5485C322.212 14.6552 297.318 10.8553 272.518 6.32197C262.105 4.41531 251.652 3.00207 241.172 2.74874C225.172 2.36207 209.172 2.34871 193.172 2.72205C169.932 3.26871 146.826 5.77519 123.812 10.8685C105.213 14.9752 87.9056 23.0553 72.5324 38.3352C55.9991 54.7618 41.0927 73.2419 32.4127 100.068C24.106 125.735 17.6528 152.108 13.8128 179.788C11.7595 194.522 8.11922 209.068 7.54588 223.881C6.99922 237.988 4.85251 251.868 5.15917 266.028C5.50584 282.001 2.75924 297.841 3.89257 313.828C5.03924 330.095 4.67921 346.388 7.53254 362.681C11.3192 384.281 18.6393 401.347 30.3726 416.227C48.6126 439.374 70.2124 447.841 93.8523 448.681C109.332 449.227 124.826 448.881 140.319 448.774L40.0393 619.254L2.50586 653.107C12.4258 647.867 21.7992 639.574 33.1858 642.694C34.6391 643.094 36.3858 642.547 37.8257 641.787C47.6391 636.6 57.8393 632.44 67.0926 625.694C95.7992 604.76 123.906 582.28 151.919 559.56C179.572 537.12 204.999 509.921 232.439 487.041C244.372 477.094 252.745 461.001 261.465 446.454C261.559 446.308 261.652 446.147 261.732 445.987L262.505 445.961C269.998 451.587 278.092 448.641 285.838 448.468C293.372 448.294 300.932 447.134 308.505 446.841C344.052 445.454 379.625 445.641 415.172 444.681C444.532 443.881 473.838 439.947 503.171 437.561C517.158 436.427 531.158 435.188 545.171 434.814C570.051 434.148 594.971 432.934 619.824 434.054C654.944 435.628 690.051 435.507 725.157 435.667C752.73 435.787 779.437 429.641 805.904 418.241C835.877 405.321 857.05 379.494 871.144 340.988C875.864 328.081 876.957 313.748 878.357 299.735C880.037 283.015 880.97 266.081 880.45 249.148H880.477Z" fill="white" stroke="black" stroke-width="3.99999" stroke-linecap="round" stroke-linejoin="round"/>
<path d="M302.745 261.361C300.611 265.841 299.785 270.627 298.545 275.281C298.371 275.934 298.278 276.614 298.118 277.267C297.745 278.787 297.011 280.001 295.278 280.107C293.425 280.227 292.425 279.121 291.918 277.494C290.691 273.521 289.531 269.521 288.265 265.547C287.958 264.614 287.905 263.441 286.491 262.761C286.011 268.467 284.811 273.934 285.278 279.561C285.625 283.761 284.465 287.814 284.011 291.934C283.851 293.387 282.998 294.521 281.371 294.561C279.638 294.601 278.798 293.427 278.385 291.907C278.238 291.361 278.145 290.747 278.225 290.187C279.665 280.414 279.051 270.467 280.638 260.707C281.291 256.654 280.385 252.587 280.891 248.534C281.105 246.867 281.225 245.081 283.278 244.681C285.265 244.307 286.278 245.747 287.051 247.254C289.571 252.174 291.438 257.374 293.265 262.574C293.558 263.387 293.572 264.801 294.785 264.747C295.758 264.694 295.691 263.401 296.011 262.627C297.491 259.027 298.385 255.254 299.371 251.521C299.571 250.774 299.785 250.014 300.078 249.307C300.811 247.547 301.771 245.841 303.945 245.921C306.078 246.001 306.825 247.854 307.171 249.547C307.878 252.947 308.771 256.414 308.785 259.854C308.811 266.254 309.518 272.614 309.465 279.001C309.438 281.934 309.971 284.774 310.411 287.654C310.718 289.654 310.385 291.587 308.145 292.014C305.665 292.481 304.731 290.614 304.425 288.521C303.998 285.561 303.491 282.587 303.678 279.561C304.038 273.467 302.931 267.454 302.758 261.361H302.745Z" fill="black"/>
<path d="M691.17 281.387C691.223 272.494 692.249 263.6 691.209 254.707C691.089 253.667 691.209 252.574 691.356 251.52C692.089 246.8 694.17 245.281 698.73 246.347C704.33 247.654 709.396 249.734 712.076 255.507C714.276 260.227 712.689 264.121 709.623 267.481C707.556 269.747 708.263 270.267 710.569 271.347C718.583 275.094 719.73 284.427 712.89 289.374C710.33 291.214 707.263 291.334 704.303 291.707C700.97 292.12 697.609 291.48 694.236 292.507C692.116 293.16 691.25 291.16 691.196 289.227C691.116 286.614 691.17 284 691.17 281.387ZM701.916 286.414C703.85 286.52 706.063 286.214 708.196 285.574C710.156 284.987 711.823 283.787 711.916 281.6C712.01 279.534 711.33 277.521 709.303 276.454C706.183 274.814 702.796 274.014 699.29 273.761C697.463 273.627 696.53 274.48 696.583 276.294C696.636 278.134 696.876 279.961 696.929 281.787C697.063 286.427 697.036 286.427 701.929 286.414H701.916ZM696.516 254.52C696.703 257.707 696.903 260.401 696.996 263.107C697.183 268.254 697.396 268.414 702.316 266.534C708.303 264.254 709.543 258.2 704.836 254.24C703.623 253.214 702.089 252.84 700.663 252.24C696.609 250.534 696.436 250.654 696.516 254.507V254.52Z" fill="black"/>
<path d="M175.971 297.561C163.011 296.681 147.624 291.334 137.384 275.801C134.798 271.881 133.278 267.707 134.544 262.934C135.638 258.801 138.278 256.134 142.465 255.254C147.785 254.134 151.198 257.174 153.651 261.227C165.504 280.734 185.291 279.934 201.171 271.374C216.104 263.334 217.704 245.401 203.598 235.414C192.264 227.388 180.344 219.961 167.958 213.694C157.904 208.601 150.771 201.148 144.798 192.228C137.171 180.841 137.584 169.001 144.238 157.334C162.878 124.695 205.184 118.494 232.464 146.841C238.144 152.734 240.584 159.961 240.398 168.121C240.264 174.028 239.211 179.534 232.051 180.254C225.518 180.921 222.451 176.308 221.731 170.854C220.344 160.294 213.077 155.508 204.584 151.534C191.891 145.601 174.638 149.748 166.011 160.828C156.491 173.055 158.798 185.254 172.264 193.348C185.318 201.188 198.678 208.508 211.424 216.814C226.824 226.854 235.704 240.814 234.264 260.014C233.411 271.481 228.477 280.494 218.264 286.108C206.544 292.548 194.398 297.827 175.958 297.547L175.971 297.561Z" fill="#55ADE1"/>
<path d="M275.211 271.375C275.371 276.481 274.798 281.415 272.304 286.014C267.744 294.401 254.318 295.294 248.251 287.934C242.864 281.388 242.424 274.054 243.504 266.281C243.904 263.414 244.678 260.588 245.291 257.748C246.091 254.041 247.904 250.935 250.651 248.295C256.731 242.455 266.304 243.868 270.438 251.281C273.904 257.481 275.131 262.681 275.211 271.375ZM269.251 271.495C269.384 263.561 267.998 257.668 265.224 253.735C263.118 250.748 260.211 249.561 256.904 250.588C253.984 251.494 252.278 253.841 251.411 256.561C249.118 263.788 247.491 271.055 249.704 278.721C251.318 284.281 254.811 287.268 260.518 287.068C265.278 286.895 268.518 283.574 269.198 277.881C269.451 275.788 269.238 273.641 269.238 271.508L269.251 271.495Z" fill="black"/>
<path d="M760.542 297.588C755.182 297.628 751.155 295.628 748.022 291.814C747.542 291.228 747.129 290.535 746.876 289.828C746.289 288.175 746.689 286.708 748.196 285.761C749.809 284.748 751.116 285.441 752.249 286.774C757.143 292.534 763.369 293.081 769.223 288.294C772.089 285.948 771.062 280.668 767.075 278.241C763.355 275.974 759.489 273.961 755.662 271.881C753.955 270.948 752.303 270.001 750.969 268.521C744.396 261.228 747.049 254.534 754.089 249.308C760.409 244.628 768.915 245.735 774.689 251.068C776.569 252.815 777.382 255.054 777.702 257.508C777.942 259.321 777.462 260.908 775.435 261.294C773.475 261.668 772.489 260.268 772.223 258.668C771.129 251.974 760.436 250.175 755.676 255.401C752.022 259.415 752.663 263.694 757.423 266.348C761.316 268.508 765.209 270.681 769.143 272.748C772.196 274.361 774.355 276.721 775.715 279.854C778.275 285.734 776.436 291.348 770.929 294.534C767.596 296.454 764.049 297.614 760.542 297.601V297.588Z" fill="black"/>
<path d="M579.796 276.201C579.356 281.254 578.93 286.241 578.476 291.214C578.423 291.881 578.369 292.574 578.183 293.214C577.783 294.521 576.956 295.467 575.45 295.334C573.956 295.201 573.316 294.121 573.09 292.774C572.996 292.214 572.996 291.601 573.09 291.041C574.77 278.734 574.996 266.321 575.756 253.961C576.05 249.201 578.649 247.108 583.463 247.774C586.049 248.134 588.583 248.841 591.143 249.348C602.156 251.481 602.289 263.334 597.236 269.094C594.943 271.708 592.156 273.601 588.703 274.307C586.889 274.681 586.742 275.414 587.689 276.894C590.809 281.801 593.756 286.827 597.556 291.254C597.93 291.694 598.329 292.134 598.649 292.614C599.516 293.961 599.836 295.387 598.449 296.534C597.196 297.574 595.769 297.201 594.783 296.134C593.13 294.374 591.516 292.534 590.156 290.547C587.409 286.561 584.863 282.441 582.183 278.401C581.623 277.561 581.25 276.467 579.81 276.187L579.796 276.201ZM585.689 269.547C588.089 269.627 590.663 268.414 592.796 266.294C595.129 263.974 595.61 261.121 594.81 257.987C594.103 255.201 591.689 254.787 589.489 254.174C587.636 253.667 585.73 253.321 583.836 252.934C581.77 252.521 580.743 253.294 580.743 255.507C580.743 258.601 580.689 261.694 580.516 264.774C580.303 268.481 581.289 269.601 585.689 269.547Z" fill="black"/>
<path d="M396.197 272.134C396.344 277.201 395.97 281.72 393.85 285.907C389.05 295.387 375.517 296.107 369.251 287.587C364.704 281.4 364.33 274.747 365.45 267.694C366.024 264.067 366.691 260.427 367.891 256.934C370.051 250.64 374.664 246.841 380.264 246.774C386.424 246.694 390.744 249.881 393.277 256.441C395.291 261.641 396.53 266.987 396.197 272.147V272.134ZM390.864 272.32C390.984 267.36 390.17 262.254 387.823 257.441C386.277 254.281 384.29 252.014 380.344 252.054C376.304 252.094 374.344 254.681 373.144 257.814C371.237 262.801 369.917 268.067 370.277 273.414C370.531 277.2 371.371 280.96 373.637 284.347C375.797 287.574 378.69 288.347 382.157 288.04C385.517 287.747 387.957 286.04 389.33 282.907C390.77 279.627 390.944 276.16 390.877 272.307L390.864 272.32Z" fill="black"/>
<path d="M567.237 275.121C567.37 280.321 566.957 284.921 564.704 289.174C559.891 298.254 546.477 298.881 540.384 290.641C535.837 284.481 535.317 277.841 536.451 270.788C537.117 266.681 537.65 262.481 539.384 258.668C541.504 253.988 544.571 250.214 550.224 249.721C556.091 249.201 560.317 251.641 563.05 256.841C564.824 260.214 565.944 263.801 566.664 267.534C567.184 270.214 567.331 272.908 567.224 275.134L567.237 275.121ZM561.904 275.214C562.05 269.601 561.05 263.948 557.997 258.774C555.024 253.721 548.93 253.467 545.57 258.227C544.904 259.174 544.224 260.188 543.904 261.268C542.464 266.001 541.051 270.814 541.291 275.774C541.477 279.788 542.371 283.721 544.704 287.267C546.837 290.521 549.757 291.254 553.224 290.934C556.584 290.627 559.011 288.908 560.371 285.774C561.797 282.494 561.984 279.027 561.904 275.214Z" fill="black"/>
<path d="M532.917 274.014C533.064 278.908 532.69 283.441 530.584 287.628C525.797 297.121 512.25 297.881 505.984 289.361C501.437 283.174 501.037 276.521 502.17 269.481C502.81 265.468 503.357 261.374 505.037 257.641C507.184 252.855 510.29 249.014 516.09 248.548C521.984 248.081 526.157 250.615 528.837 255.815C531.357 260.721 532.69 265.921 532.93 271.428C532.97 272.401 532.93 273.361 532.93 274.028L532.917 274.014ZM527.584 274.041C527.717 268.495 526.704 262.935 523.81 257.815C522.357 255.255 520.317 253.868 517.25 253.815C512.93 253.735 510.93 256.574 509.704 259.921C507.944 264.748 506.65 269.814 506.984 274.974C507.237 278.868 508.09 282.721 510.424 286.174C512.517 289.294 515.33 290.055 518.69 289.801C522.05 289.561 524.544 287.935 525.97 284.828C527.504 281.481 527.677 277.908 527.597 274.041H527.584Z" fill="black"/>
<path d="M323.571 259.748C323.571 261.588 323.731 263.441 323.531 265.267C323.225 268.147 324.491 269.134 327.211 268.947C329.038 268.827 330.891 268.881 332.731 268.947C333.984 268.987 335.238 269.134 336.478 269.347C338.318 269.667 340.078 270.361 339.624 272.654C339.224 274.694 337.384 275.027 335.704 274.694C332.718 274.107 329.704 274.507 326.731 274.294C324.024 274.094 322.984 275.308 323.024 277.801C323.064 280.414 322.398 282.961 322.718 285.614C322.971 287.747 323.758 288.667 325.971 288.707C329.451 288.761 332.931 289.081 336.398 289.307C338.451 289.454 340.491 289.881 340.331 292.507C340.184 294.987 338.118 295.254 336.224 295.134C331.105 294.814 325.984 294.467 320.904 293.881C317.971 293.534 316.451 291.294 316.598 287.614C316.891 280.454 317.318 273.308 317.864 266.161C318.131 262.761 318.238 259.387 317.891 256.014C317.091 248.281 318.625 246.161 326.278 244.641C329.598 243.987 332.891 243.094 336.331 243.361C337.384 243.441 338.464 243.548 339.478 243.828C340.891 244.228 341.984 245.068 341.704 246.734C341.451 248.241 340.264 248.761 338.904 248.721C334.998 248.628 331.198 249.201 327.371 249.894C324.651 250.387 323.171 251.507 323.517 254.521C323.717 256.241 323.558 258.001 323.558 259.748C323.558 259.748 323.571 259.748 323.585 259.748H323.571Z" fill="black"/>
<path d="M474.063 261.841C473.316 258.641 474.277 254.388 472.503 250.428C471.69 248.628 472.877 247.708 474.583 247.468C485.957 245.828 498.583 255.721 499.689 267.267C499.943 269.841 500.623 272.374 500.01 275.054C498.556 281.401 494.97 285.734 488.903 288.227C484.663 289.961 480.33 291.321 475.837 292.108C472.103 292.748 470.877 291.121 471.97 287.561C472.477 285.921 472.69 284.148 472.81 282.428C473.263 275.854 473.623 269.281 474.076 261.854L474.063 261.841ZM477.823 282.361C477.636 286.454 477.73 286.507 481.73 285.374C483.876 284.761 485.943 284.001 487.956 283.027C491.93 281.107 494.583 278.014 494.81 273.654C495.263 265.014 492.983 255.294 480.53 253.214C478.623 252.894 478.236 253.641 478.396 255.174C478.65 257.774 478.983 260.361 478.837 262.988C478.49 269.454 478.156 275.908 477.823 282.374V282.361Z" fill="black"/>
<path d="M422.398 270.201C422.078 263.667 424.091 257.347 424.104 250.841C424.104 249.667 424.798 248.801 426.038 248.654C427.371 248.494 428.211 249.254 428.784 250.374C429.704 252.161 429.185 254.041 428.891 255.801C427.691 263.081 428.104 270.481 427.104 277.761C425.904 286.441 420.131 291.734 411.398 292.667C407.424 293.094 402.798 289.814 401.158 285.481C399.384 280.814 399.531 275.961 399.771 271.121C400.037 265.707 400.424 260.307 400.798 254.894C400.878 253.641 400.998 252.374 401.305 251.161C401.651 249.774 402.411 248.507 404.104 248.841C405.771 249.174 405.985 250.587 405.918 252.027C405.611 257.827 405.264 263.627 405.024 269.427C404.904 272.427 404.944 275.441 404.931 278.441C404.931 280.214 405.278 281.921 405.931 283.547C407.158 286.601 409.744 287.84 412.931 287.174C417.731 286.16 420.491 283.187 421.731 278.547C422.478 275.787 422.411 272.987 422.398 270.174V270.201Z" fill="black"/>
<path d="M633.023 252.148C633.023 250.735 633.45 249.681 634.77 249.321C636.13 248.961 637.037 249.734 637.53 250.881C638.57 253.294 638.903 255.908 639.409 258.468C640.903 266.188 644.423 273.308 646.383 280.894C646.463 281.214 646.769 281.654 647.049 281.721C647.623 281.868 647.85 281.321 648.036 280.881C648.983 278.654 649.85 276.388 650.876 274.201C654.623 266.254 659.756 258.975 662.329 250.468C662.489 249.935 662.85 249.414 663.197 248.974C664.09 247.828 665.223 247.001 666.689 247.734C668.196 248.494 668.17 249.908 667.65 251.268C666.263 254.881 665.143 258.654 663.303 262.028C658.93 270.108 655.036 278.414 650.983 286.654C650.476 287.694 649.796 288.654 649.13 289.601C648.276 290.814 647.263 291.974 645.583 291.681C643.837 291.374 643.01 290.001 642.65 288.428C641.703 284.174 640.583 279.974 639.236 275.828C636.89 268.561 634.076 261.428 633.316 253.734C633.263 253.161 633.09 252.601 633.01 252.161L633.023 252.148Z" fill="black"/>
<path d="M721.769 259.841C721.769 257.801 721.769 255.774 721.769 253.734C721.783 250.321 722.996 248.374 726.236 247.468C730.809 246.188 735.476 245.214 740.29 245.547C742.05 245.667 744.17 245.801 744.09 248.161C744.01 250.388 741.957 250.361 740.303 250.321C736.69 250.228 733.157 250.668 729.61 251.308C727.583 251.668 726.596 252.588 726.676 254.814C726.823 258.881 726.796 262.961 726.676 267.028C726.61 269.214 727.61 269.948 729.61 270.028C732.797 270.161 736.01 269.694 739.17 270.481C740.743 270.881 742.489 271.241 742.209 273.254C741.943 275.281 740.196 275.188 738.556 275.094C734.983 274.894 731.409 274.827 727.823 274.641C726.663 274.587 726.236 275.134 726.223 276.174C726.183 279.467 725.503 282.707 725.596 286.027C725.65 288.227 726.37 289.161 728.637 289.201C732.117 289.267 735.596 289.587 739.076 289.841C739.836 289.894 740.623 290.054 741.343 290.321C742.436 290.721 743.13 291.534 742.983 292.761C742.836 294.001 741.996 294.681 740.81 294.734C735.076 294.974 729.396 294.294 723.743 293.481C721.383 293.134 720.556 291.147 720.65 288.867C720.916 282.387 721.09 275.894 721.53 269.428C721.743 266.228 721.85 263.041 721.756 259.841H721.769Z" fill="black"/>
<path d="M448.744 248.867C454.544 248.867 460.344 248.854 466.144 248.867C467.598 248.867 468.971 249.347 469.184 250.974C469.424 252.721 468.038 253.241 466.651 253.561C463.464 254.307 460.304 253.308 457.104 253.374C454.744 253.428 453.918 254.094 453.918 256.534C453.918 267.267 452.037 277.934 452.717 288.707C452.824 290.347 452.478 292.041 450.478 292.161C448.344 292.294 447.785 290.547 447.585 288.841C446.878 282.454 447.637 276.081 448.077 269.721C448.384 265.281 448.677 260.841 449.051 256.414C449.237 254.134 448.304 253.281 446.038 253.374C442.944 253.494 439.837 253.428 436.744 253.361C435.104 253.321 433.451 252.894 433.451 250.881C433.451 248.761 435.225 248.614 436.811 248.601C440.785 248.561 444.744 248.601 448.717 248.601C448.717 248.694 448.717 248.787 448.717 248.881L448.744 248.867Z" fill="black"/>
<path d="M678.369 273.574C678.436 277.254 678.29 280.92 677.916 284.574C677.73 286.347 678.183 287.507 680.143 287.974C681.676 288.334 682.769 289.401 682.423 291.147C682.089 292.841 680.649 292.934 679.236 293.001C676.729 293.094 674.223 293.281 671.703 293.374C670.076 293.427 668.436 293.174 667.996 291.307C667.542 289.387 668.836 288.427 670.503 288.054C672.823 287.534 672.796 285.681 672.89 283.961C673.223 278.067 672.823 272.161 673.53 266.281C673.97 262.534 674.289 258.774 674.703 255.027C674.889 253.321 674.436 252.267 672.543 251.987C671.223 251.787 670.09 251.027 670.303 249.454C670.503 247.974 671.649 247.334 673.022 247.334C676.982 247.334 680.956 247.374 684.916 247.574C686.636 247.667 688.383 248.414 688.089 250.547C687.823 252.521 686.076 252.574 684.436 252.481C680.049 252.241 679.823 252.481 679.649 256.787C679.423 262.387 677.929 267.894 678.396 273.547L678.369 273.574Z" fill="black"/>
</svg>
