<svg width="883" height="656" viewBox="0 0 883 656" fill="none" xmlns="http://www.w3.org/2000/svg">
<path d="M2.72267 249.668C3.74934 215.561 6.17609 181.575 14.8161 149.455C27.1094 103.735 47.6826 66.7749 77.3891 40.7617C94.2424 26.0017 112.962 19.4017 132.656 16.0283C161.936 11.015 191.295 10.2948 220.682 9.84149C249.802 9.38816 278.909 9.74819 308.028 12.2015C320.202 13.2282 332.442 14.1885 344.682 14.4951C374.455 15.2285 404.242 16.8417 434.015 17.0951C468.015 17.3884 502.028 17.2817 536.014 16.0684C560.988 15.175 585.881 11.3748 610.681 6.8415C621.094 4.93484 631.548 3.5216 642.028 3.26827C658.028 2.8816 674.027 2.86825 690.027 3.24158C713.267 3.78824 736.374 6.29505 759.387 11.3884C777.987 15.495 795.294 23.5748 810.667 38.8548C827.2 55.2814 842.107 73.7614 850.787 100.588C859.094 126.255 865.547 152.628 869.387 180.308C871.44 195.041 875.08 209.588 875.654 224.401C876.2 238.508 878.347 252.388 878.04 266.547C877.694 282.521 880.44 298.361 879.307 314.348C878.16 330.614 878.52 346.907 875.667 363.201C871.88 384.801 864.56 401.867 852.827 416.747C834.587 439.894 812.987 448.36 789.347 449.2C773.867 449.747 758.374 449.4 742.88 449.294L843.16 619.773L880.694 653.627C870.774 648.387 861.4 640.093 850.014 643.213C848.56 643.613 846.814 643.067 845.374 642.307C835.56 637.12 825.36 632.96 816.107 626.213C787.401 605.28 759.294 582.8 731.281 560.08C703.627 537.64 678.201 510.44 650.761 487.56C638.828 477.614 630.454 461.52 621.734 446.974C621.641 446.827 621.548 446.667 621.468 446.507L620.694 446.481C613.201 452.107 605.108 449.16 597.361 448.987C589.828 448.814 582.268 447.654 574.694 447.36C539.148 445.974 503.575 446.16 468.028 445.2C438.668 444.4 409.362 440.467 380.028 438.081C366.042 436.947 352.042 435.707 338.028 435.334C313.148 434.667 288.229 433.454 263.375 434.574C228.255 436.147 193.149 436.027 158.042 436.187C130.469 436.307 103.762 430.161 77.2957 418.761C47.3225 405.841 26.1493 380.014 12.056 341.507C7.336 328.601 6.24246 314.267 4.84246 300.254C3.16246 283.534 2.22937 266.601 2.74937 249.668H2.72267Z" fill="white" stroke="black" stroke-width="3.99999" stroke-linecap="round" stroke-linejoin="round"/>
<path d="M278.014 249.388C275.881 253.868 275.054 258.655 273.814 263.308C273.641 263.961 273.548 264.641 273.388 265.295C273.014 266.815 272.281 268.028 270.548 268.135C268.694 268.255 267.694 267.148 267.188 265.521C265.961 261.548 264.801 257.548 263.534 253.575C263.228 252.641 263.174 251.468 261.761 250.788C261.281 256.495 260.081 261.961 260.548 267.588C260.894 271.788 259.734 275.841 259.281 279.961C259.121 281.415 258.268 282.548 256.641 282.588C254.908 282.628 254.068 281.455 253.654 279.935C253.508 279.388 253.414 278.775 253.494 278.215C254.934 268.441 254.321 258.495 255.908 248.735C256.561 244.681 255.654 240.615 256.161 236.561C256.374 234.895 256.494 233.108 258.548 232.708C260.534 232.335 261.548 233.775 262.321 235.281C264.841 240.201 266.708 245.401 268.534 250.601C268.828 251.415 268.841 252.828 270.054 252.775C271.028 252.721 270.961 251.428 271.281 250.655C272.761 247.055 273.654 243.281 274.641 239.548C274.841 238.801 275.054 238.041 275.348 237.335C276.081 235.575 277.041 233.868 279.214 233.948C281.348 234.028 282.094 235.881 282.441 237.575C283.148 240.975 284.041 244.441 284.054 247.881C284.081 254.281 284.788 260.641 284.734 267.028C284.708 269.961 285.241 272.801 285.681 275.681C285.988 277.681 285.654 279.615 283.414 280.041C280.934 280.508 280.001 278.641 279.694 276.548C279.268 273.588 278.761 270.615 278.948 267.588C279.308 261.495 278.201 255.481 278.028 249.388H278.014Z" fill="black"/>
<path d="M666.441 269.414C666.495 260.521 667.521 251.628 666.481 242.735C666.361 241.695 666.481 240.601 666.628 239.548C667.361 234.828 669.441 233.308 674.001 234.375C679.601 235.681 684.668 237.761 687.348 243.534C689.548 248.254 687.961 252.148 684.894 255.508C682.828 257.774 683.534 258.294 685.841 259.374C693.854 263.121 695.001 272.454 688.161 277.401C685.601 279.241 682.534 279.361 679.574 279.734C676.241 280.148 672.881 279.508 669.508 280.534C667.388 281.188 666.521 279.188 666.468 277.254C666.388 274.641 666.441 272.028 666.441 269.414ZM677.188 274.441C679.121 274.548 681.335 274.241 683.468 273.601C685.428 273.014 687.094 271.814 687.188 269.628C687.281 267.561 686.601 265.548 684.574 264.481C681.454 262.841 678.068 262.041 674.561 261.788C672.734 261.655 671.801 262.508 671.854 264.321C671.908 266.161 672.148 267.988 672.201 269.815C672.334 274.455 672.308 274.454 677.201 274.441H677.188ZM671.788 242.548C671.975 245.734 672.174 248.428 672.268 251.135C672.454 256.281 672.668 256.441 677.588 254.561C683.574 252.281 684.815 246.228 680.108 242.268C678.895 241.241 677.361 240.868 675.934 240.268C671.881 238.561 671.708 238.681 671.788 242.534V242.548Z" fill="black"/>
<path d="M151.228 285.601C138.269 284.721 122.882 279.374 112.642 263.841C110.055 259.921 108.536 255.747 109.802 250.974C110.896 246.841 113.535 244.174 117.722 243.294C123.042 242.174 126.455 245.214 128.909 249.267C140.762 268.774 160.549 267.974 176.429 259.414C191.362 251.374 192.962 233.441 178.855 223.454C167.522 215.428 155.602 208.001 143.215 201.734C133.162 196.641 126.029 189.188 120.055 180.268C112.429 168.881 112.842 157.041 119.495 145.375C138.135 112.735 180.442 106.534 207.722 134.881C213.402 140.774 215.842 148.001 215.655 156.161C215.522 162.068 214.468 167.574 207.308 168.294C200.775 168.961 197.708 164.348 196.988 158.894C195.602 148.334 188.335 143.548 179.842 139.574C167.148 133.641 149.895 137.788 141.269 148.868C131.749 161.094 134.055 173.294 147.522 181.388C160.575 189.228 173.935 196.548 186.682 204.854C202.082 214.894 210.962 228.854 209.522 248.054C208.668 259.521 203.735 268.534 193.522 274.148C181.802 280.588 169.655 285.867 151.215 285.587L151.228 285.601Z" fill="#55ADE1"/>
<path d="M250.482 259.401C250.642 264.508 250.069 269.441 247.576 274.041C243.016 282.428 229.589 283.321 223.522 275.961C218.136 269.414 217.696 262.081 218.776 254.308C219.176 251.441 219.949 248.614 220.562 245.774C221.362 242.068 223.176 238.961 225.922 236.321C232.002 230.481 241.576 231.894 245.709 239.308C249.176 245.508 250.402 250.708 250.482 259.401ZM244.522 259.521C244.655 251.587 243.269 245.694 240.495 241.761C238.389 238.774 235.482 237.588 232.175 238.614C229.255 239.521 227.549 241.867 226.682 244.587C224.389 251.814 222.762 259.081 224.976 266.748C226.589 272.308 230.082 275.294 235.789 275.094C240.549 274.921 243.789 271.601 244.469 265.907C244.722 263.814 244.509 261.667 244.509 259.534L244.522 259.521Z" fill="black"/>
<path d="M735.8 285.614C730.44 285.654 726.413 283.654 723.28 279.841C722.8 279.254 722.387 278.561 722.134 277.854C721.547 276.201 721.947 274.734 723.454 273.787C725.067 272.774 726.373 273.468 727.507 274.801C732.4 280.561 738.627 281.107 744.48 276.321C747.347 273.974 746.32 268.694 742.333 266.267C738.613 264.001 734.747 261.987 730.92 259.907C729.213 258.974 727.56 258.027 726.227 256.547C719.653 249.254 722.307 242.561 729.347 237.334C735.667 232.654 744.173 233.761 749.947 239.094C751.827 240.841 752.64 243.081 752.96 245.534C753.2 247.347 752.72 248.934 750.693 249.321C748.733 249.694 747.747 248.294 747.48 246.694C746.387 240.001 735.693 238.201 730.933 243.428C727.28 247.441 727.92 251.721 732.68 254.374C736.573 256.534 740.467 258.708 744.4 260.774C747.453 262.388 749.613 264.747 750.973 267.881C753.533 273.761 751.693 279.374 746.187 282.561C742.853 284.481 739.307 285.641 735.8 285.627V285.614Z" fill="black"/>
<path d="M555.068 264.241C554.628 269.294 554.201 274.281 553.748 279.254C553.694 279.921 553.641 280.614 553.454 281.254C553.054 282.561 552.228 283.507 550.721 283.374C549.228 283.241 548.588 282.161 548.361 280.814C548.268 280.254 548.268 279.641 548.361 279.081C550.041 266.774 550.268 254.361 551.028 242.001C551.321 237.241 553.921 235.148 558.734 235.814C561.321 236.174 563.854 236.881 566.414 237.388C577.428 239.521 577.561 251.374 572.507 257.134C570.214 259.748 567.428 261.641 563.974 262.347C562.161 262.721 562.014 263.454 562.961 264.934C566.081 269.841 569.027 274.867 572.827 279.294C573.201 279.734 573.601 280.174 573.921 280.654C574.788 282.001 575.108 283.427 573.721 284.574C572.468 285.614 571.041 285.241 570.054 284.174C568.401 282.414 566.788 280.574 565.428 278.587C562.681 274.601 560.134 270.481 557.454 266.441C556.894 265.601 556.521 264.507 555.081 264.227L555.068 264.241ZM560.961 257.587C563.361 257.667 565.934 256.454 568.068 254.334C570.401 252.014 570.881 249.161 570.081 246.027C569.374 243.241 566.961 242.827 564.761 242.214C562.908 241.707 561.001 241.361 559.108 240.974C557.041 240.561 556.014 241.334 556.014 243.547C556.014 246.641 555.961 249.734 555.788 252.814C555.574 256.521 556.561 257.641 560.961 257.587Z" fill="black"/>
<path d="M371.455 260.161C371.602 265.228 371.228 269.748 369.108 273.934C364.308 283.414 350.775 284.134 344.508 275.614C339.961 269.428 339.588 262.774 340.708 255.721C341.282 252.094 341.948 248.454 343.148 244.961C345.308 238.668 349.921 234.868 355.521 234.801C361.681 234.721 366.001 237.908 368.535 244.468C370.548 249.668 371.788 255.014 371.455 260.174V260.161ZM366.122 260.348C366.242 255.388 365.428 250.281 363.082 245.468C361.535 242.308 359.548 240.041 355.602 240.081C351.562 240.121 349.602 242.708 348.402 245.841C346.495 250.828 345.175 256.095 345.535 261.441C345.788 265.228 346.628 268.988 348.895 272.374C351.055 275.601 353.948 276.374 357.415 276.068C360.775 275.774 363.215 274.068 364.588 270.934C366.028 267.654 366.202 264.188 366.135 260.334L366.122 260.348Z" fill="black"/>
<path d="M542.495 263.147C542.628 268.347 542.215 272.947 539.962 277.2C535.148 286.28 521.735 286.907 515.642 278.667C511.095 272.507 510.575 265.867 511.708 258.814C512.375 254.707 512.908 250.507 514.642 246.694C516.762 242.014 519.829 238.241 525.482 237.747C531.349 237.227 535.575 239.667 538.308 244.867C540.082 248.24 541.202 251.827 541.922 255.56C542.442 258.24 542.588 260.934 542.482 263.161L542.495 263.147ZM537.162 263.24C537.308 257.627 536.308 251.974 533.255 246.801C530.282 241.747 524.188 241.494 520.828 246.254C520.162 247.201 519.482 248.214 519.162 249.294C517.722 254.027 516.308 258.841 516.548 263.801C516.735 267.814 517.628 271.747 519.962 275.294C522.095 278.547 525.015 279.28 528.482 278.96C531.842 278.654 534.268 276.934 535.628 273.801C537.055 270.521 537.242 267.054 537.162 263.24Z" fill="black"/>
<path d="M508.175 262.041C508.321 266.934 507.948 271.467 505.841 275.654C501.055 285.147 487.508 285.907 481.241 277.388C476.695 271.201 476.295 264.547 477.428 257.507C478.068 253.494 478.615 249.401 480.295 245.668C482.441 240.881 485.548 237.041 491.348 236.574C497.241 236.107 501.415 238.641 504.095 243.841C506.615 248.747 507.948 253.948 508.188 259.454C508.228 260.428 508.188 261.388 508.188 262.054L508.175 262.041ZM502.841 262.068C502.975 256.521 501.961 250.961 499.068 245.841C497.615 243.281 495.575 241.894 492.508 241.841C488.188 241.761 486.188 244.601 484.961 247.947C483.201 252.774 481.908 257.841 482.241 263.001C482.495 266.894 483.348 270.747 485.681 274.201C487.775 277.321 490.588 278.081 493.948 277.828C497.308 277.588 499.801 275.961 501.228 272.854C502.761 269.507 502.935 265.934 502.855 262.068H502.841Z" fill="black"/>
<path d="M298.828 247.774C298.828 249.614 298.988 251.467 298.788 253.294C298.481 256.174 299.748 257.16 302.468 256.974C304.295 256.854 306.148 256.907 307.988 256.974C309.241 257.014 310.495 257.16 311.735 257.374C313.575 257.694 315.334 258.387 314.881 260.68C314.481 262.72 312.641 263.054 310.961 262.72C307.974 262.134 304.961 262.534 301.988 262.32C299.281 262.12 298.241 263.334 298.281 265.827C298.321 268.441 297.655 270.987 297.975 273.64C298.228 275.774 299.014 276.694 301.228 276.734C304.708 276.787 308.188 277.107 311.655 277.334C313.708 277.48 315.748 277.907 315.588 280.534C315.441 283.014 313.375 283.281 311.481 283.161C306.361 282.841 301.241 282.494 296.161 281.907C293.228 281.56 291.708 279.32 291.854 275.64C292.148 268.48 292.575 261.334 293.121 254.187C293.388 250.787 293.495 247.414 293.148 244.041C292.348 236.307 293.881 234.187 301.534 232.667C304.854 232.014 308.148 231.121 311.588 231.387C312.641 231.467 313.721 231.574 314.735 231.854C316.148 232.254 317.241 233.094 316.961 234.761C316.708 236.267 315.521 236.787 314.161 236.747C310.254 236.654 306.454 237.227 302.628 237.92C299.908 238.414 298.428 239.534 298.775 242.547C298.975 244.267 298.815 246.027 298.815 247.774C298.815 247.774 298.828 247.774 298.841 247.774H298.828Z" fill="black"/>
<path d="M449.335 249.867C448.588 246.667 449.548 242.414 447.775 238.454C446.962 236.654 448.148 235.734 449.855 235.494C461.228 233.854 473.855 243.747 474.961 255.294C475.215 257.867 475.895 260.401 475.281 263.081C473.828 269.427 470.241 273.76 464.175 276.254C459.935 277.987 455.602 279.347 451.108 280.134C447.375 280.774 446.148 279.147 447.241 275.587C447.748 273.947 447.962 272.174 448.082 270.454C448.535 263.881 448.895 257.307 449.348 249.88L449.335 249.867ZM453.095 270.387C452.908 274.481 453.001 274.534 457.001 273.401C459.148 272.787 461.215 272.027 463.228 271.054C467.201 269.134 469.855 266.04 470.082 261.681C470.535 253.041 468.255 243.32 455.802 241.24C453.895 240.92 453.508 241.667 453.668 243.2C453.921 245.8 454.255 248.387 454.108 251.014C453.762 257.481 453.428 263.934 453.095 270.401V270.387Z" fill="black"/>
<path d="M397.668 258.228C397.348 251.695 399.361 245.375 399.375 238.868C399.375 237.695 400.068 236.828 401.308 236.681C402.641 236.521 403.481 237.281 404.055 238.401C404.975 240.188 404.454 242.068 404.161 243.828C402.961 251.108 403.375 258.508 402.375 265.788C401.175 274.468 395.401 279.761 386.668 280.695C382.695 281.121 378.068 277.841 376.428 273.508C374.655 268.841 374.801 263.988 375.041 259.148C375.308 253.735 375.695 248.335 376.068 242.921C376.148 241.668 376.268 240.401 376.575 239.188C376.921 237.801 377.681 236.535 379.375 236.868C381.041 237.201 381.254 238.615 381.188 240.055C380.881 245.855 380.535 251.655 380.295 257.455C380.175 260.455 380.214 263.468 380.201 266.468C380.201 268.241 380.548 269.948 381.201 271.575C382.428 274.628 385.014 275.868 388.201 275.201C393.001 274.188 395.761 271.215 397.001 266.575C397.748 263.815 397.681 261.015 397.668 258.201V258.228Z" fill="black"/>
<path d="M608.281 240.174C608.281 238.761 608.708 237.707 610.028 237.347C611.388 236.987 612.294 237.761 612.788 238.907C613.828 241.321 614.161 243.934 614.668 246.494C616.161 254.214 619.681 261.334 621.641 268.921C621.721 269.241 622.028 269.681 622.308 269.747C622.881 269.894 623.108 269.347 623.294 268.907C624.241 266.681 625.108 264.414 626.134 262.227C629.881 254.281 635.014 247.001 637.587 238.494C637.747 237.961 638.108 237.441 638.454 237.001C639.348 235.854 640.481 235.028 641.947 235.761C643.454 236.521 643.427 237.934 642.907 239.294C641.521 242.907 640.401 246.681 638.561 250.054C634.187 258.134 630.294 266.441 626.241 274.681C625.734 275.721 625.054 276.681 624.388 277.627C623.534 278.841 622.521 280.001 620.841 279.707C619.094 279.401 618.268 278.027 617.908 276.454C616.961 272.201 615.841 268.001 614.494 263.854C612.147 256.587 609.334 249.454 608.574 241.761C608.521 241.188 608.348 240.627 608.268 240.187L608.281 240.174Z" fill="black"/>
<path d="M697.041 247.867C697.041 245.827 697.041 243.801 697.041 241.761C697.055 238.347 698.268 236.401 701.508 235.494C706.081 234.214 710.748 233.24 715.561 233.574C717.321 233.694 719.441 233.827 719.361 236.187C719.281 238.414 717.228 238.387 715.574 238.347C711.961 238.254 708.428 238.694 704.881 239.334C702.854 239.694 701.868 240.614 701.948 242.84C702.094 246.907 702.068 250.987 701.948 255.054C701.881 257.241 702.881 257.974 704.881 258.054C708.068 258.187 711.281 257.72 714.441 258.507C716.015 258.907 717.761 259.267 717.481 261.28C717.215 263.307 715.468 263.214 713.828 263.121C710.254 262.921 706.681 262.854 703.095 262.667C701.935 262.614 701.508 263.16 701.494 264.2C701.454 267.494 700.774 270.734 700.868 274.054C700.921 276.254 701.641 277.187 703.908 277.227C707.388 277.294 710.868 277.614 714.348 277.867C715.108 277.92 715.894 278.08 716.614 278.347C717.708 278.747 718.401 279.561 718.254 280.787C718.108 282.027 717.268 282.707 716.081 282.761C710.348 283.001 704.668 282.32 699.015 281.507C696.655 281.16 695.828 279.174 695.921 276.894C696.188 270.414 696.361 263.921 696.801 257.454C697.015 254.254 697.121 251.067 697.028 247.867H697.041Z" fill="black"/>
<path d="M424 236.894C429.8 236.894 435.6 236.88 441.4 236.894C442.854 236.894 444.227 237.374 444.44 239.001C444.68 240.747 443.293 241.267 441.907 241.587C438.72 242.334 435.56 241.334 432.36 241.401C430 241.454 429.173 242.12 429.173 244.56C429.173 255.294 427.294 265.961 427.974 276.734C428.08 278.374 427.734 280.067 425.734 280.187C423.6 280.32 423.04 278.574 422.84 276.867C422.133 270.48 422.894 264.107 423.334 257.747C423.64 253.307 423.934 248.867 424.307 244.441C424.494 242.161 423.56 241.307 421.294 241.401C418.2 241.521 415.094 241.454 412 241.387C410.36 241.347 408.707 240.92 408.707 238.907C408.707 236.787 410.48 236.64 412.067 236.627C416.04 236.587 420 236.627 423.974 236.627C423.974 236.72 423.974 236.814 423.974 236.907L424 236.894Z" fill="black"/>
<path d="M653.627 261.601C653.694 265.281 653.547 268.948 653.173 272.601C652.987 274.374 653.44 275.535 655.4 276.001C656.934 276.361 658.027 277.428 657.68 279.174C657.347 280.868 655.907 280.961 654.493 281.028C651.987 281.121 649.48 281.308 646.96 281.401C645.334 281.455 643.694 281.201 643.254 279.335C642.8 277.415 644.094 276.455 645.76 276.081C648.08 275.561 648.054 273.708 648.147 271.988C648.48 266.095 648.08 260.188 648.787 254.308C649.227 250.561 649.547 246.801 649.96 243.055C650.147 241.348 649.694 240.295 647.8 240.015C646.48 239.815 645.347 239.055 645.56 237.481C645.76 236.001 646.907 235.361 648.28 235.361C652.24 235.361 656.213 235.401 660.173 235.601C661.893 235.695 663.64 236.441 663.347 238.575C663.08 240.548 661.334 240.601 659.694 240.508C655.307 240.268 655.08 240.508 654.907 244.815C654.68 250.415 653.187 255.921 653.654 261.574L653.627 261.601Z" fill="black"/>
</svg>
