<svg width="926" height="687" viewBox="0 0 926 687" fill="none" xmlns="http://www.w3.org/2000/svg">
<path d="M2.12304 260.961C3.20104 225.159 5.74915 189.483 14.8212 155.766C27.7293 107.774 49.3313 68.9767 80.5235 41.6703C98.2196 26.1767 117.876 19.2486 138.554 15.7076C169.298 10.445 200.126 9.68922 230.982 9.21335C261.558 8.73749 292.121 9.11541 322.697 11.6907C335.479 12.7684 348.331 13.7761 361.183 14.098C392.445 14.8678 423.721 16.5614 454.983 16.8273C490.684 17.1352 526.398 17.0232 562.084 15.7496C588.306 14.8118 614.444 10.8229 640.484 6.06424C651.419 4.0628 662.395 2.57931 673.399 2.31338C690.199 1.9075 706.999 1.89347 723.799 2.28536C748.201 2.8592 772.463 5.49044 796.627 10.8369C816.157 15.1477 834.33 23.6293 850.472 39.6688C867.832 56.912 883.484 76.3106 892.598 104.471C901.32 131.413 908.096 159.097 912.128 188.153C914.284 203.619 918.106 218.889 918.708 234.438C919.282 249.246 921.536 263.816 921.214 278.68C920.85 295.447 923.734 312.074 922.544 328.856C921.34 345.931 921.718 363.034 918.722 380.137C914.746 402.811 907.06 420.726 894.74 436.346C875.588 460.643 852.908 469.53 828.086 470.412C811.831 470.986 795.564 470.622 779.295 470.51L884.59 649.464L924 685C913.584 679.5 903.742 670.794 891.786 674.069C890.26 674.489 888.426 673.915 886.914 673.117C876.61 667.673 865.9 663.306 856.184 656.224C826.042 634.25 796.529 610.653 767.115 586.803C738.079 563.248 711.381 534.696 682.569 510.679C670.039 500.238 661.247 483.344 652.091 468.075C651.993 467.921 651.895 467.753 651.811 467.585L650.999 467.557C643.13 473.463 634.632 470.37 626.498 470.188C618.588 470.006 610.65 468.789 602.698 468.481C565.374 467.025 528.022 467.221 490.698 466.213C459.87 465.373 429.097 461.245 398.297 458.739C383.611 457.55 368.911 456.248 354.197 455.856C328.073 455.156 301.907 453.883 275.81 455.058C238.934 456.71 202.072 456.584 165.21 456.752C136.258 456.878 108.216 450.426 80.4254 438.459C48.9532 424.897 26.7212 397.786 11.9231 357.366C6.96706 343.818 5.81918 328.772 4.34917 314.062C2.58516 296.511 1.60506 278.736 2.15106 260.961H2.12304Z" fill="white" stroke="black" stroke-width="3.99999" stroke-linecap="round" stroke-linejoin="round"/>
<path d="M520.441 250.59C517.868 256.284 516.601 262.324 515.135 268.31C514.681 270.137 514.481 272.19 512.095 272.284C509.815 272.377 509.068 270.51 508.534 268.67C507.028 263.484 506.081 258.11 502.988 252.684C502.548 259.07 501.148 264.71 501.574 270.484C501.921 275.204 500.508 279.697 500.214 284.337C500.121 285.844 499.414 287.257 497.534 287.204C495.654 287.15 494.855 285.857 494.641 284.15C494.561 283.484 494.521 282.777 494.615 282.124C496.095 271.964 495.788 261.657 497.095 251.457C497.601 247.537 497.241 243.524 497.308 239.55C497.335 237.764 497.455 235.844 499.695 235.457C501.935 235.07 503.028 236.724 503.788 238.47C506.188 243.977 508.441 249.537 510.254 255.27C510.534 256.15 510.654 257.177 511.881 257.897C513.414 252.91 514.921 248.017 516.428 243.15C516.855 241.764 517.214 240.337 517.814 239.03C518.441 237.67 519.494 236.577 521.174 236.684C522.908 236.79 523.668 238.057 524.095 239.51C525.268 243.43 525.881 247.444 526.001 251.537C526.281 260.91 526.161 270.31 527.735 279.617C527.815 280.097 527.801 280.577 527.814 281.07C527.854 282.91 527.321 284.484 525.228 284.604C523.228 284.724 522.215 283.297 522.001 281.524C521.641 278.55 521.041 275.59 521.188 272.564C521.521 265.23 520.268 257.964 520.428 250.604L520.441 250.59Z" fill="black"/>
<path d="M386.602 283.737C392.322 283.737 394.722 281.83 395.028 277.177C395.162 275.164 394.695 274.004 392.295 274.364C389.908 274.724 387.482 274.951 385.068 274.977C383.082 275.004 380.788 274.604 380.762 272.111C380.735 269.511 382.882 269.457 384.988 269.404C387.402 269.351 389.801 268.937 392.201 268.631C397.721 267.911 400.841 270.644 400.895 276.271C400.975 284.537 394.575 290.311 385.988 289.457C373.962 288.257 364.015 278.497 366.135 264.777C366.975 259.391 368.375 254.391 371.428 249.884C375.588 243.737 381.922 241.244 389.135 242.991C391.655 243.604 394.468 243.377 396.642 245.031C401.042 248.364 402.895 253.031 403.215 258.391C403.308 259.857 402.735 261.177 401.108 261.417C399.468 261.657 398.615 260.524 398.188 259.137C397.508 256.924 397.122 254.617 396.002 252.537C395.028 250.711 393.642 249.804 391.602 249.177C380.095 245.631 375.082 251.337 372.255 261.911C371.495 264.764 371.295 267.79 371.735 270.844C372.815 278.244 379.095 283.764 386.615 283.737H386.602Z" fill="black"/>
<path d="M178.215 279.75C178.188 273.27 180.775 267.204 181.095 260.804C181.348 255.804 182.735 251.084 184.362 246.39C184.948 244.724 185.748 243.204 186.881 241.844C188.841 239.484 191.202 237.737 194.415 238.444C197.682 239.164 199.841 241.35 200.841 244.564C202.255 249.11 202.881 253.817 203.561 258.524C204.801 267.044 205.868 275.604 208.548 283.844C209.081 285.484 209.055 286.977 207.322 287.844C205.668 288.67 204.468 287.684 203.601 286.457C201.521 283.497 201.161 279.964 200.548 276.55C199.788 272.417 199.681 272.164 195.575 272.23C193.228 272.27 190.935 271.924 188.642 271.577C185.882 271.164 184.708 272.364 184.535 274.977C184.335 277.87 184.042 280.764 183.788 283.67C183.682 284.857 183.428 285.99 182.415 286.764C180.682 288.07 178.468 287.044 178.228 284.697C178.055 283.07 178.201 281.417 178.201 279.764L178.215 279.75ZM194.108 266.71C198.695 266.777 198.708 266.737 198.161 263.11C197.935 261.59 197.788 260.044 197.601 258.51C197.095 254.484 196.722 250.444 195.375 246.577C195.042 245.644 194.695 244.684 193.628 244.457C192.348 244.19 191.708 245.177 191.108 246.044C190.682 246.67 190.388 247.404 190.095 248.11C188.295 252.417 187.321 256.924 186.855 261.564C186.428 265.897 186.308 265.884 190.561 266.27C192.001 266.404 193.428 266.63 194.108 266.71Z" fill="black"/>
<path d="M562.068 264.244C562.202 269.338 561.815 273.751 559.748 277.857C554.975 287.364 541.415 288.164 535.135 279.658C530.575 273.484 530.162 266.831 531.282 259.778C531.935 255.671 532.482 251.471 534.242 247.671C536.402 243.018 539.481 239.258 545.161 238.804C551.055 238.338 555.255 240.831 557.935 246.031C560.455 250.924 561.802 256.138 562.055 261.631C562.108 262.698 562.055 263.764 562.055 264.244H562.068ZM556.735 264.311C556.868 258.764 555.855 253.204 552.962 248.084C551.508 245.524 549.468 244.138 546.402 244.084C542.082 244.004 540.068 246.844 538.855 250.191C537.095 255.018 535.802 260.084 536.135 265.244C536.388 269.138 537.242 272.991 539.575 276.444C541.668 279.564 544.481 280.324 547.841 280.071C551.201 279.831 553.695 278.204 555.122 275.098C556.655 271.751 556.828 268.178 556.748 264.311H556.735Z" fill="black"/>
<path d="M406.174 269.564C405.614 262.697 406.988 255.644 406.094 248.591C406.014 247.924 406.028 247.231 406.068 246.564C406.161 244.684 406.214 242.511 408.708 242.471C411.228 242.431 411.268 244.577 411.428 246.471C411.854 251.497 412.254 256.497 411.534 261.537C411.187 263.937 412.121 265.431 414.761 265.671C419.294 266.084 423.814 266.591 428.334 267.124C429.908 267.311 430.401 266.577 430.454 265.164C430.588 262.044 430.028 258.991 429.641 255.911C429.254 252.804 429.307 249.724 429.894 246.657C430.201 245.044 430.788 243.524 432.788 243.657C434.774 243.791 435.161 245.311 435.227 246.991C435.747 259.071 436.294 271.151 436.827 283.231C436.907 285.191 436.614 287.217 434.254 287.391C431.841 287.577 431.214 285.564 431.161 283.631C431.094 280.831 430.481 278.044 430.921 275.231C431.241 273.191 430.401 272.231 428.241 272.097C423.601 271.804 418.961 271.457 414.361 270.871C411.828 270.551 411.254 271.604 411.428 273.751C411.614 276.164 411.814 278.577 411.894 280.991C411.961 282.924 411.681 285.017 409.308 285.151C406.708 285.297 406.281 283.057 406.214 281.071C406.094 277.297 406.174 273.524 406.174 269.551V269.564Z" fill="black"/>
<path d="M689.226 269.764C688.039 273.937 688.653 278.071 687.893 282.044C687.786 282.604 687.853 283.204 687.773 283.777C687.56 285.537 686.959 287.217 684.853 287.044C682.693 286.857 682.4 285.004 682.613 283.297C683.186 278.777 683.493 274.244 683.8 269.697C684.24 263.031 684.706 256.364 684.839 249.684C684.933 244.724 687.253 242.684 692.266 243.324C694.853 243.644 697.4 244.298 699.973 244.818C708.986 246.631 709.68 257.271 705.373 262.391C703.28 264.884 700.826 266.911 697.573 267.697C695.733 268.137 695.413 268.884 696.466 270.511C699.413 275.057 702.12 279.764 705.773 283.831C706.973 285.177 707.706 286.724 706.106 288.164C704.573 289.551 703.226 288.484 702.08 287.324C697.666 282.871 694.773 277.337 691.36 272.164C690.84 271.377 690.533 270.391 689.213 269.737L689.226 269.764ZM689.64 255.471C689.64 255.471 689.586 255.471 689.559 255.471C689.559 257.111 689.559 258.764 689.559 260.404C689.559 261.711 690.173 262.604 691.4 263.071C695.186 264.524 701.733 261.204 702.599 257.017C703.666 251.857 702.133 250.044 696.546 248.977C689.773 247.684 689.786 247.577 689.64 254.297C689.64 254.684 689.64 255.071 689.64 255.457V255.471Z" fill="black"/>
<path d="M255.949 245.364C255.282 250.377 255.588 255.804 255.482 261.231C255.442 263.537 256.135 263.75 257.935 262.537C264.682 257.977 271.522 253.564 278.042 248.684C278.895 248.044 279.762 247.404 280.709 246.951C281.762 246.431 282.815 246.617 283.548 247.644C284.215 248.577 284.015 249.524 283.295 250.297C282.575 251.084 281.789 251.817 280.949 252.457C275.562 256.591 270.002 260.484 264.282 264.124C262.469 265.271 261.709 266.177 264.055 267.751C269.549 271.431 274.029 276.297 278.722 280.91C279.895 282.057 281.122 283.244 279.775 284.857C278.389 286.51 276.709 285.804 275.415 284.657C273.389 282.871 271.429 280.977 269.589 278.977C266.535 275.671 262.842 273.151 259.189 270.657C256.189 268.617 255.109 269.404 254.935 272.977C254.775 276.164 254.562 279.364 254.269 282.537C254.082 284.457 253.549 286.47 251.109 286.23C248.762 285.99 248.762 283.924 248.962 282.151C250.335 269.817 250.189 257.404 250.655 245.031C250.682 244.164 250.682 243.284 250.802 242.417C251.015 240.751 251.215 238.844 253.469 238.977C255.615 239.097 255.829 240.951 255.949 242.644C256.002 243.417 255.949 244.191 255.949 245.364Z" fill="black"/>
<path d="M239.828 161.498C239.815 183.178 227.121 199.564 206.535 206.298C194.908 210.098 182.948 212.578 170.695 211.951C162.762 211.551 160.642 214.858 160.308 222.257C159.548 239.297 157.922 256.297 156.642 273.311C156.562 274.297 156.509 275.271 156.389 276.257C155.642 282.591 153.735 288.591 145.989 287.884C138.855 287.231 137.669 281.257 138.069 275.284C138.829 263.831 139.989 252.391 140.762 240.937C143.029 207.884 145.322 174.818 143.962 141.644C143.468 129.524 148.748 122.031 160.828 120.724C181.722 118.458 202.175 121.551 221.642 129.431C236.882 135.604 239.361 149.244 239.828 161.511V161.498ZM161.735 166.311C161.949 166.311 162.148 166.311 162.362 166.311C162.362 172.871 162.322 179.431 162.375 185.991C162.402 189.484 163.268 192.231 167.295 193.404C180.628 197.311 209.295 188.631 218.175 177.764C226.881 167.111 223.522 147.378 211.735 143.231C197.735 138.311 183.068 136.404 168.188 136.551C163.415 136.604 161.162 138.284 161.602 143.738C162.202 151.218 161.749 158.778 161.749 166.298L161.735 166.311Z" fill="#55ADE1"/>
<path d="M576.935 274.51C578.268 273.017 578.722 271.124 579.508 269.391C581.215 265.604 582.788 261.791 585.095 258.257C587.895 253.951 589.788 249.151 591.535 244.311C591.895 243.324 592.362 242.337 592.975 241.484C593.828 240.297 595.028 239.577 596.495 240.377C597.841 241.111 597.895 242.431 597.415 243.684C594.975 250.097 592.735 256.617 588.895 262.404C586.415 266.151 584.962 270.377 583.202 274.457C582.002 277.231 580.442 279.791 578.762 282.271C577.922 283.497 576.868 284.577 575.175 284.244C573.695 283.937 572.762 282.817 572.508 281.457C570.188 269.271 564.295 258.057 562.855 245.631C562.655 243.951 562.615 242.351 564.575 241.911C566.388 241.497 567.282 242.897 567.548 244.391C569.188 253.777 572.695 262.617 575.508 271.644C575.802 272.604 575.735 273.79 576.948 274.497L576.935 274.51Z" fill="black"/>
<path d="M598.041 277.444C598.628 266.617 599.481 255.791 599.134 244.924C599.041 242.057 600.801 240.337 603.281 239.604C608.028 238.191 612.894 237.217 617.894 237.577C619.561 237.697 621.521 237.951 621.454 240.137C621.374 242.377 619.361 242.377 617.708 242.337C614.294 242.27 610.948 242.67 607.588 243.19C605.054 243.577 603.854 244.59 604.014 247.364C604.241 251.23 604.161 255.111 604.041 258.991C603.974 261.137 604.881 261.95 606.921 262.03C610.201 262.164 613.521 261.684 616.774 262.537C618.268 262.924 619.828 263.377 619.588 265.23C619.321 267.284 617.601 267.39 615.974 267.084C612.414 266.43 608.801 267.284 605.241 266.684C604.108 266.497 603.614 267.084 603.601 268.151C603.521 271.631 602.814 275.07 603.001 278.59C603.094 280.47 603.908 281.124 605.681 281.204C609.161 281.35 612.641 281.604 616.121 281.857C616.988 281.924 617.868 282.057 618.681 282.337C619.788 282.71 620.494 283.524 620.374 284.75C620.254 285.99 619.427 286.71 618.241 286.75C612.414 286.964 606.628 286.364 600.894 285.444C599.121 285.164 598.174 283.644 598.081 281.804C598.014 280.35 598.068 278.897 598.068 277.444H598.041Z" fill="black"/>
<path d="M231.269 280.217C234.842 280.217 237.629 280.004 240.389 279.284C242.215 278.804 244.109 278.95 244.575 281.163C245.042 283.35 243.189 283.87 241.549 284.31C236.815 285.59 231.976 285.91 227.122 285.404C221.696 284.844 217.322 282.084 214.229 277.75C205.589 265.657 205.829 253.564 219.456 245.67C225.602 242.11 232.095 241.697 238.882 242.604C239.362 242.67 239.842 242.79 240.282 242.99C241.949 243.75 244.149 244.404 243.309 246.804C242.495 249.11 240.589 248.044 238.855 247.684C230.082 245.87 221.522 247.857 215.615 255.857C213.735 258.39 213.175 261.31 213.909 264.417C214.735 267.937 215.842 271.35 218.029 274.27C221.535 278.937 226.202 280.977 231.282 280.204L231.269 280.217Z" fill="black"/>
<path d="M716.893 257.138C716.893 258.591 717.16 260.098 716.84 261.484C716.133 264.618 717.653 265.177 720.28 265.071C723.187 264.964 726.093 264.884 728.96 265.644C730.28 265.991 731.467 266.591 731.307 268.124C731.133 269.884 729.72 270.204 728.267 269.978C724.973 269.471 721.68 270.017 718.387 269.697C717.253 269.591 716.467 269.737 716.4 271.097C716.227 274.191 715.693 277.244 715.813 280.364C715.88 282.164 716.467 282.977 718.36 283.031C721.547 283.111 724.733 283.404 727.92 283.658C728.773 283.724 729.667 283.857 730.467 284.164C731.56 284.577 732.2 285.431 732 286.658C731.827 287.751 731.04 288.391 729.987 288.444C724.547 288.724 719.147 288.084 713.8 287.217C711.44 286.831 710.827 284.697 710.933 282.457C711.213 276.164 711.334 269.871 711.787 263.604C712.08 259.524 712.147 255.484 711.813 251.418C711.44 246.858 712.947 244.698 717.427 243.724C721.013 242.938 724.6 242.004 728.347 242.204C729.213 242.258 730.107 242.271 730.947 242.458C732.147 242.724 733.227 243.364 733.133 244.764C733.027 246.351 731.8 246.831 730.427 246.724C727 246.498 723.68 247.284 720.32 247.658C717.573 247.964 716.653 249.271 716.88 251.884C717.027 253.617 716.907 255.364 716.907 257.111L716.893 257.138Z" fill="black"/>
<path d="M737.147 278.671C737.587 269.484 738.667 260.311 738.254 251.084C738.147 248.737 739.56 247.204 741.614 246.484C745.654 245.058 749.907 244.617 754.16 244.244C754.814 244.191 755.52 244.364 756.16 244.564C757.494 244.977 758.907 245.511 758.64 247.257C758.387 248.857 756.96 248.977 755.667 248.937C752.24 248.804 748.92 249.444 745.574 250.031C743.467 250.391 742.627 251.311 742.88 253.577C743.254 257.044 743.374 260.551 742.814 264.017C742.507 265.964 743.334 266.657 745.174 266.737C747.974 266.844 750.814 266.444 753.587 267.031C755.187 267.377 757.214 267.671 756.787 269.937C756.401 271.977 754.454 271.844 752.96 271.431C749.96 270.617 746.974 271.857 743.987 271.297C742.827 271.084 742.64 272.084 742.507 273.004C742.094 275.791 741.947 278.591 741.974 281.404C741.987 283.404 742.854 284.111 744.801 284.164C748.094 284.244 751.387 284.471 754.667 284.777C756.174 284.911 757.707 285.484 757.56 287.377C757.427 289.244 755.867 289.631 754.334 289.537C749.894 289.244 745.44 288.924 741.014 288.457C738.4 288.191 737.08 286.604 737.147 283.911C737.2 282.164 737.147 280.417 737.147 278.671Z" fill="black"/>
<path d="M318.308 254.044C319.094 261.964 316.935 269.871 318.108 277.817C318.441 280.057 319.068 281.031 321.308 280.631C327.401 279.524 333.481 280.684 339.561 280.751C341.148 280.764 342.521 281.35 342.641 283.164C342.774 285.177 341.308 285.791 339.641 285.991C338.494 286.124 337.321 286.177 336.161 286.124C330.068 285.817 323.988 285.91 317.894 286.35C313.574 286.67 312.348 285.004 312.228 280.697C311.921 268.99 313.334 257.311 312.814 245.604C312.761 244.351 312.814 243.084 312.934 241.831C313.068 240.364 313.681 239.124 315.361 239.084C317.134 239.044 318.041 240.271 318.121 241.857C318.281 245.244 318.254 248.631 318.294 252.017C318.294 252.697 318.294 253.377 318.294 254.044H318.308Z" fill="black"/>
<path d="M777.56 288.817C774.466 288.977 771.373 289.177 768.266 289.271C764 289.404 762.84 288.017 762.76 283.818C762.546 272.591 763.76 261.378 763.32 250.151C763.266 248.911 763.4 247.631 763.64 246.404C763.853 245.284 764.626 244.498 765.84 244.418C767.093 244.338 767.813 245.151 768.2 246.204C768.466 246.911 768.626 247.711 768.626 248.471C768.586 256.018 769.106 263.564 768.24 271.111C767.813 274.791 768.32 278.457 768.506 282.124C768.613 284.191 770.146 283.751 771.28 283.658C776.413 283.244 781.546 283.657 786.666 283.711C786.96 283.711 787.253 283.711 787.533 283.711C789.399 283.777 791.64 283.751 791.693 286.244C791.733 288.937 789.386 288.951 787.426 288.991C784.133 289.044 780.84 289.004 777.546 289.004C777.546 288.937 777.546 288.871 777.546 288.804L777.56 288.817Z" fill="black"/>
<path d="M662.334 275.551C662.334 278.071 662.374 280.604 661.667 283.058C661.267 284.444 660.534 285.684 658.841 285.338C657.187 285.004 656.881 283.631 657.014 282.164C657.801 272.898 657.761 263.604 658.134 254.324C658.254 251.404 658.747 248.551 659.334 245.711C659.707 243.884 660.814 242.884 662.681 242.591C668.441 241.698 674.254 241.631 680.067 241.658C681.374 241.658 682.761 241.871 682.801 243.564C682.827 245.204 681.454 245.618 680.187 245.738C676.521 246.058 672.841 246.164 669.174 246.498C663.627 246.991 663.654 247.044 663.374 252.524C663.227 255.418 662.947 258.311 662.854 261.218C662.761 264.271 663.507 265.044 666.601 264.858C669.721 264.671 672.787 265.098 675.867 265.378C677.321 265.511 679.014 265.938 678.84 267.858C678.667 269.778 676.934 269.831 675.467 269.764C671.987 269.604 668.494 269.511 665.041 269.071C662.867 268.791 662.214 269.511 662.334 271.511C662.414 272.858 662.347 274.218 662.347 275.578L662.334 275.551Z" fill="black"/>
<path d="M799.679 262.031C802.146 257.751 804.066 254.058 806.333 250.591C808.133 247.844 810.306 245.338 812.386 242.791C813.279 241.698 814.519 240.844 815.919 241.844C817.466 242.937 817.146 244.537 816.093 245.671C810.266 251.937 806.773 259.671 802.439 266.871C801.279 268.804 800.666 270.764 801.013 272.937C801.719 277.284 800.906 281.644 801.093 285.991C801.146 287.271 800.466 288.297 799.159 288.537C797.786 288.777 797.013 287.871 796.559 286.684C796.173 285.671 796.093 284.617 796.239 283.537C796.373 282.577 796.466 281.617 796.519 280.644C796.959 272.671 796.559 264.844 793.213 257.364C791.599 253.751 791.333 249.657 789.599 246.031C789.013 244.804 788.973 243.484 790.373 242.724C791.919 241.898 792.999 242.871 793.773 244.058C795.399 246.537 795.773 249.484 796.613 252.258C797.533 255.284 798.506 258.311 799.666 262.031H799.679Z" fill="black"/>
<path d="M357.281 242.564C359.308 242.564 361.362 242.417 363.375 242.617C364.988 242.777 366.521 243.55 366.361 245.51C366.201 247.337 364.682 247.63 363.135 247.724C358.722 247.99 358.868 248.03 358.268 252.644C357.175 260.91 356.721 269.204 356.668 277.524C356.655 279.47 356.602 281.137 359.122 281.657C360.388 281.924 361.281 283.043 361.001 284.523C360.735 285.977 359.668 286.577 358.268 286.644C355.561 286.79 352.855 286.95 350.148 287.044C348.588 287.097 347.188 286.63 346.788 284.91C346.388 283.217 347.228 282.004 348.841 281.604C350.895 281.084 351.295 279.71 351.281 277.91C351.281 269.097 351.748 260.31 352.961 251.577C353.241 249.577 353.268 247.697 350.575 247.124C349.401 246.884 348.535 245.91 348.775 244.51C349.028 243.044 350.108 242.404 351.495 242.364C353.428 242.297 355.361 242.35 357.308 242.35C357.308 242.417 357.308 242.484 357.308 242.55L357.281 242.564Z" fill="black"/>
<path d="M450.561 244.017C457.055 244.017 463.535 244.017 470.028 244.017C471.588 244.017 473.148 244.337 473.228 246.19C473.321 248.084 471.695 248.457 470.215 248.684C467.308 249.15 464.428 248.377 461.521 248.364C459.468 248.364 458.601 248.924 458.575 251.164C458.468 261.617 456.722 272.004 457.375 282.484C457.482 284.124 457.122 285.803 455.082 285.883C453.082 285.963 452.655 284.35 452.415 282.71C451.468 276.417 452.522 270.15 452.775 263.87C452.935 259.724 453.348 255.577 453.722 251.43C453.922 249.204 453.122 248.217 450.788 248.324C447.882 248.457 444.975 248.377 442.068 248.324C440.442 248.284 438.722 247.95 438.748 245.91C438.775 243.857 440.508 243.617 442.135 243.604C444.948 243.577 447.761 243.604 450.561 243.604C450.561 243.75 450.561 243.884 450.561 244.03V244.017Z" fill="black"/>
<path d="M476.002 283.817C476.068 287.284 472.855 290.817 469.548 291.097C468.522 291.191 467.535 291.071 467.215 289.911C466.908 288.844 467.682 288.297 468.548 288.004C470.135 287.471 471.162 287.111 469.535 285.164C468.362 283.777 469.335 282.017 470.442 280.711C471.308 279.684 472.495 279.164 473.815 279.604C475.935 280.311 475.535 282.377 476.002 283.804V283.817Z" fill="black"/>
</svg>
