<svg width="925" height="687" viewBox="0 0 925 687" fill="none" xmlns="http://www.w3.org/2000/svg">
<path d="M922.877 260.961C921.8 225.159 919.255 189.483 910.193 155.766C897.299 107.774 875.72 68.9767 844.562 41.6703C826.885 26.1767 807.25 19.2486 786.595 15.7076C755.884 10.445 725.089 9.68922 694.266 9.21335C663.723 8.73749 633.194 9.11541 602.651 11.6907C589.883 12.7684 577.045 13.7761 564.207 14.098C532.979 14.8678 501.736 16.5614 470.508 16.8273C434.847 17.1352 399.171 17.0232 363.524 15.7496C337.33 14.8118 311.22 10.8229 285.208 6.06424C274.286 4.0628 263.322 2.57931 252.33 2.31338C235.548 1.9075 218.766 1.89347 201.984 2.28536C177.608 2.8592 153.372 5.49044 129.235 10.8369C109.726 15.1477 91.5733 23.6293 75.4487 39.6688C58.1074 56.912 42.4722 76.3106 33.368 104.471C24.6554 131.413 17.8868 159.097 13.8592 188.153C11.7055 203.619 7.88768 218.889 7.28633 234.438C6.71295 249.246 4.46133 263.816 4.78298 278.68C5.14659 295.447 2.26577 312.074 3.45448 328.856C4.65718 345.931 4.27957 363.034 7.27233 380.137C11.244 402.811 18.9216 420.726 31.2283 436.346C50.3596 460.643 73.0153 469.53 97.8105 470.412C114.047 470.986 130.297 470.622 146.548 470.51L41.3673 649.464L2 685C12.4048 679.5 22.2362 670.794 34.1793 674.069C35.7036 674.489 37.5356 673.915 39.046 673.117C49.3389 667.673 60.0372 663.306 69.7428 656.224C99.8522 634.25 129.332 610.653 158.714 586.803C187.719 563.248 214.389 534.696 243.169 510.679C255.686 500.238 264.468 483.345 273.615 468.075C273.712 467.921 273.811 467.753 273.895 467.585L274.705 467.557C282.565 473.463 291.053 470.37 299.179 470.188C307.08 470.006 315.01 468.789 322.953 468.481C360.237 467.025 397.548 467.221 434.832 466.213C465.627 465.373 496.366 461.245 527.133 458.739C541.803 457.55 556.487 456.248 571.185 455.856C597.281 455.156 623.419 453.883 649.487 455.058C686.323 456.71 723.145 456.584 759.967 456.752C788.888 456.878 816.9 450.426 844.66 438.459C876.098 424.897 898.306 397.786 913.088 357.366C918.038 343.818 919.185 328.772 920.654 314.062C922.416 296.511 923.394 278.736 922.849 260.961H922.877Z" fill="white" stroke="black" stroke-width="3.99999" stroke-linecap="round" stroke-linejoin="round"/>
<path d="M520.441 253.577C517.867 259.271 516.601 265.311 515.134 271.297C514.681 273.124 514.481 275.177 512.094 275.271C509.814 275.364 509.068 273.497 508.534 271.657C507.028 266.471 506.081 261.097 502.988 255.671C502.548 262.057 501.147 267.697 501.574 273.471C501.921 278.191 500.507 282.684 500.214 287.324C500.121 288.831 499.414 290.244 497.534 290.191C495.654 290.137 494.855 288.844 494.641 287.137C494.561 286.471 494.521 285.764 494.615 285.11C496.095 274.951 495.788 264.644 497.094 254.444C497.601 250.524 497.241 246.511 497.308 242.537C497.335 240.751 497.455 238.831 499.695 238.444C501.935 238.057 503.028 239.711 503.788 241.457C506.188 246.964 508.441 252.524 510.254 258.257C510.534 259.137 510.654 260.164 511.881 260.884C513.414 255.897 514.921 251.004 516.428 246.137C516.854 244.751 517.214 243.324 517.814 242.017C518.441 240.657 519.494 239.564 521.174 239.671C522.908 239.777 523.668 241.044 524.094 242.497C525.268 246.417 525.881 250.431 526.001 254.524C526.281 263.897 526.161 273.297 527.734 282.604C527.814 283.084 527.801 283.564 527.814 284.057C527.854 285.897 527.321 287.47 525.228 287.59C523.228 287.71 522.215 286.284 522.001 284.511C521.641 281.537 521.041 278.577 521.187 275.551C521.521 268.217 520.268 260.951 520.428 253.591L520.441 253.577Z" fill="black"/>
<path d="M386.601 286.737C392.321 286.737 394.721 284.831 395.028 280.177C395.161 278.164 394.694 277.004 392.294 277.364C389.908 277.724 387.481 277.951 385.068 277.977C383.081 278.004 380.788 277.604 380.761 275.111C380.734 272.511 382.881 272.457 384.988 272.404C387.401 272.351 389.801 271.937 392.201 271.631C397.721 270.911 400.841 273.644 400.894 279.271C400.974 287.537 394.574 293.311 385.988 292.457C373.961 291.257 364.014 281.497 366.134 267.777C366.974 262.391 368.374 257.391 371.428 252.884C375.588 246.737 381.921 244.244 389.134 245.991C391.654 246.604 394.468 246.377 396.641 248.031C401.041 251.364 402.894 256.031 403.214 261.391C403.307 262.857 402.734 264.177 401.107 264.417C399.467 264.657 398.614 263.524 398.187 262.137C397.507 259.924 397.121 257.617 396.001 255.537C395.028 253.711 393.641 252.804 391.601 252.177C380.094 248.631 375.081 254.337 372.255 264.911C371.495 267.764 371.294 270.791 371.734 273.844C372.814 281.244 379.095 286.764 386.615 286.737H386.601Z" fill="black"/>
<path d="M178.216 282.75C178.189 276.27 180.776 270.204 181.096 263.804C181.349 258.804 182.736 254.084 184.362 249.391C184.949 247.724 185.749 246.204 186.882 244.844C188.842 242.484 191.203 240.737 194.416 241.444C197.683 242.164 199.843 244.351 200.843 247.564C202.256 252.111 202.882 256.817 203.562 261.524C204.802 270.044 205.869 278.604 208.549 286.844C209.082 288.484 209.056 289.977 207.322 290.844C205.669 291.67 204.469 290.684 203.602 289.457C201.522 286.497 201.162 282.964 200.549 279.55C199.789 275.417 199.682 275.164 195.576 275.231C193.229 275.271 190.936 274.924 188.642 274.577C185.882 274.164 184.709 275.364 184.536 277.977C184.336 280.87 184.043 283.764 183.789 286.67C183.683 287.857 183.429 288.99 182.416 289.764C180.683 291.07 178.469 290.044 178.229 287.697C178.056 286.07 178.203 284.417 178.203 282.764L178.216 282.75ZM194.109 269.71C198.696 269.777 198.709 269.737 198.163 266.11C197.936 264.59 197.789 263.044 197.602 261.51C197.096 257.484 196.722 253.444 195.376 249.577C195.042 248.644 194.696 247.684 193.629 247.457C192.349 247.19 191.709 248.177 191.109 249.044C190.683 249.671 190.389 250.404 190.096 251.11C188.296 255.417 187.323 259.924 186.856 264.564C186.429 268.897 186.309 268.884 190.562 269.27C192.002 269.404 193.429 269.63 194.109 269.71Z" fill="black"/>
<path d="M562.068 267.244C562.201 272.338 561.814 276.751 559.748 280.858C554.974 290.364 541.415 291.164 535.135 282.658C530.575 276.484 530.162 269.831 531.282 262.778C531.935 258.671 532.481 254.471 534.241 250.671C536.401 246.018 539.481 242.258 545.161 241.804C551.055 241.338 555.255 243.831 557.935 249.031C560.455 253.924 561.801 259.138 562.054 264.631C562.108 265.698 562.054 266.764 562.054 267.244H562.068ZM556.735 267.311C556.868 261.764 555.855 256.204 552.961 251.084C551.508 248.524 549.468 247.138 546.401 247.084C542.082 247.004 540.068 249.844 538.855 253.191C537.095 258.018 535.801 263.084 536.135 268.244C536.388 272.138 537.241 275.991 539.575 279.444C541.668 282.564 544.482 283.324 547.842 283.071C551.202 282.831 553.695 281.204 555.122 278.098C556.655 274.751 556.828 271.178 556.748 267.311H556.735Z" fill="black"/>
<path d="M406.174 272.551C405.614 265.684 406.987 258.631 406.094 251.578C406.014 250.911 406.027 250.218 406.067 249.551C406.161 247.671 406.214 245.498 408.707 245.458C411.227 245.418 411.267 247.564 411.427 249.458C411.854 254.484 412.254 259.484 411.534 264.524C411.187 266.924 412.121 268.418 414.761 268.658C419.294 269.071 423.814 269.578 428.334 270.111C429.908 270.298 430.401 269.564 430.454 268.151C430.587 265.031 430.028 261.978 429.641 258.898C429.254 255.791 429.307 252.711 429.894 249.644C430.201 248.031 430.787 246.511 432.787 246.644C434.774 246.778 435.161 248.298 435.227 249.978C435.747 262.058 436.294 274.138 436.827 286.218C436.907 288.178 436.614 290.204 434.254 290.378C431.841 290.564 431.214 288.551 431.16 286.617C431.094 283.817 430.481 281.031 430.921 278.218C431.241 276.178 430.4 275.217 428.24 275.084C423.6 274.791 418.961 274.444 414.361 273.858C411.828 273.538 411.254 274.591 411.427 276.738C411.614 279.151 411.814 281.564 411.894 283.977C411.961 285.911 411.681 288.004 409.308 288.137C406.708 288.284 406.281 286.044 406.214 284.058C406.094 280.284 406.174 276.511 406.174 272.538V272.551Z" fill="black"/>
<path d="M689.228 272.764C688.041 276.937 688.655 281.071 687.895 285.044C687.788 285.604 687.854 286.204 687.774 286.777C687.561 288.537 686.961 290.217 684.854 290.044C682.694 289.857 682.402 288.004 682.615 286.297C683.188 281.777 683.494 277.244 683.801 272.697C684.241 266.031 684.708 259.364 684.841 252.684C684.935 247.724 687.255 245.684 692.268 246.324C694.854 246.644 697.402 247.298 699.975 247.818C708.988 249.631 709.681 260.271 705.375 265.391C703.281 267.884 700.828 269.911 697.574 270.697C695.734 271.137 695.414 271.884 696.468 273.511C699.414 278.057 702.121 282.764 705.774 286.831C706.974 288.177 707.708 289.724 706.108 291.164C704.574 292.551 703.228 291.484 702.081 290.324C697.668 285.871 694.775 280.337 691.362 275.164C690.842 274.377 690.534 273.391 689.214 272.738L689.228 272.764ZM689.642 258.471C689.642 258.471 689.588 258.471 689.561 258.471C689.561 260.111 689.561 261.764 689.561 263.404C689.561 264.711 690.175 265.604 691.401 266.071C695.188 267.524 701.734 264.204 702.601 260.018C703.668 254.858 702.134 253.044 696.548 251.977C689.774 250.684 689.788 250.577 689.642 257.297C689.642 257.684 689.642 258.071 689.642 258.457V258.471Z" fill="black"/>
<path d="M255.948 248.364C255.281 253.377 255.588 258.804 255.481 264.231C255.441 266.537 256.134 266.751 257.934 265.537C264.681 260.977 271.521 256.564 278.041 251.684C278.894 251.044 279.761 250.404 280.708 249.951C281.761 249.431 282.814 249.617 283.548 250.644C284.214 251.577 284.014 252.524 283.294 253.297C282.574 254.084 281.788 254.817 280.948 255.457C275.561 259.591 270.001 263.484 264.281 267.124C262.468 268.271 261.708 269.177 264.054 270.751C269.548 274.431 274.028 279.297 278.721 283.91C279.894 285.057 281.121 286.244 279.774 287.857C278.388 289.511 276.708 288.804 275.414 287.657C273.388 285.871 271.428 283.977 269.588 281.977C266.534 278.671 262.841 276.151 259.188 273.657C256.188 271.617 255.108 272.404 254.934 275.977C254.774 279.164 254.561 282.364 254.268 285.537C254.081 287.457 253.548 289.471 251.108 289.231C248.761 288.991 248.761 286.924 248.961 285.151C250.334 272.817 250.188 260.404 250.654 248.031C250.681 247.164 250.681 246.284 250.801 245.417C251.015 243.751 251.215 241.844 253.468 241.977C255.615 242.097 255.828 243.951 255.948 245.644C256.001 246.417 255.948 247.191 255.948 248.364Z" fill="black"/>
<path d="M239.828 164.498C239.815 186.178 227.122 202.564 206.535 209.297C194.909 213.097 182.948 215.577 170.695 214.951C162.762 214.551 160.642 217.857 160.308 225.257C159.548 242.297 157.922 259.297 156.642 276.311C156.562 277.297 156.509 278.271 156.389 279.257C155.642 285.591 153.735 291.591 145.989 290.884C138.855 290.231 137.669 284.257 138.069 278.284C138.829 266.831 139.989 255.391 140.762 243.937C143.029 210.884 145.322 177.818 143.962 144.644C143.468 132.524 148.749 125.031 160.829 123.724C181.722 121.458 202.175 124.551 221.642 132.431C236.882 138.604 239.362 152.244 239.828 164.511V164.498ZM161.735 169.311C161.949 169.311 162.148 169.311 162.362 169.311C162.362 175.871 162.322 182.431 162.375 188.991C162.402 192.484 163.268 195.231 167.295 196.404C180.628 200.311 209.295 191.631 218.175 180.764C226.882 170.111 223.522 150.378 211.735 146.231C197.735 141.311 183.069 139.404 168.189 139.551C163.415 139.604 161.162 141.284 161.602 146.738C162.202 154.218 161.749 161.778 161.749 169.298L161.735 169.311Z" fill="#55ADE1"/>
<path d="M576.933 277.511C578.266 276.017 578.72 274.124 579.507 272.391C581.213 268.604 582.787 264.79 585.093 261.257C587.893 256.95 589.787 252.151 591.533 247.311C591.893 246.324 592.36 245.337 592.973 244.484C593.827 243.297 595.026 242.577 596.493 243.377C597.84 244.111 597.893 245.431 597.413 246.684C594.973 253.097 592.733 259.617 588.893 265.404C586.413 269.151 584.96 273.377 583.2 277.457C582 280.23 580.44 282.79 578.76 285.27C577.92 286.497 576.867 287.577 575.173 287.244C573.693 286.937 572.76 285.817 572.507 284.457C570.187 272.27 564.293 261.057 562.853 248.631C562.653 246.951 562.613 245.35 564.573 244.91C566.386 244.497 567.28 245.897 567.546 247.391C569.186 256.777 572.693 265.617 575.507 274.644C575.8 275.604 575.733 276.79 576.947 277.497L576.933 277.511Z" fill="black"/>
<path d="M598.041 280.431C598.628 269.604 599.481 258.778 599.134 247.911C599.041 245.044 600.801 243.324 603.281 242.591C608.028 241.178 612.894 240.205 617.894 240.565C619.561 240.685 621.521 240.938 621.454 243.124C621.374 245.364 619.361 245.364 617.708 245.324C614.294 245.258 610.948 245.658 607.588 246.178C605.055 246.564 603.854 247.578 604.014 250.351C604.241 254.218 604.161 258.098 604.041 261.978C603.974 264.124 604.881 264.938 606.921 265.018C610.201 265.151 613.521 264.671 616.774 265.524C618.267 265.911 619.828 266.364 619.588 268.218C619.321 270.271 617.601 270.378 615.975 270.071C612.415 269.418 608.801 270.271 605.241 269.671C604.108 269.484 603.614 270.071 603.601 271.138C603.521 274.618 602.815 278.058 603.001 281.578C603.095 283.458 603.908 284.111 605.681 284.191C609.161 284.338 612.641 284.591 616.121 284.844C616.988 284.911 617.868 285.044 618.681 285.324C619.788 285.698 620.494 286.511 620.374 287.738C620.254 288.978 619.427 289.698 618.241 289.738C612.414 289.951 606.628 289.351 600.895 288.431C599.121 288.151 598.174 286.631 598.081 284.791C598.014 283.338 598.068 281.884 598.068 280.431H598.041Z" fill="black"/>
<path d="M231.282 283.217C234.856 283.217 237.642 283.004 240.402 282.284C242.229 281.804 244.122 281.951 244.589 284.164C245.056 286.351 243.202 286.871 241.562 287.311C236.829 288.591 231.989 288.911 227.136 288.404C221.709 287.844 217.336 285.084 214.242 280.751C205.602 268.657 205.843 256.564 219.469 248.671C225.616 245.111 232.109 244.697 238.896 245.604C239.376 245.671 239.856 245.791 240.296 245.991C241.962 246.751 244.162 247.404 243.322 249.804C242.509 252.111 240.603 251.044 238.869 250.684C230.096 248.871 221.536 250.858 215.629 258.858C213.749 261.391 213.189 264.311 213.922 267.417C214.749 270.937 215.856 274.351 218.042 277.271C221.549 281.937 226.216 283.977 231.296 283.204L231.282 283.217Z" fill="black"/>
<path d="M716.894 260.124C716.894 261.578 717.16 263.084 716.84 264.471C716.134 267.604 717.654 268.164 720.28 268.058C723.187 267.951 726.093 267.871 728.96 268.631C730.28 268.978 731.467 269.578 731.307 271.111C731.134 272.871 729.72 273.191 728.267 272.964C724.973 272.458 721.68 273.004 718.386 272.684C717.253 272.578 716.467 272.724 716.4 274.084C716.227 277.177 715.694 280.231 715.814 283.351C715.88 285.151 716.467 285.964 718.36 286.018C721.547 286.098 724.734 286.391 727.92 286.644C728.774 286.711 729.666 286.844 730.466 287.151C731.56 287.564 732.2 288.417 732 289.644C731.827 290.737 731.04 291.377 729.987 291.431C724.547 291.711 719.147 291.071 713.8 290.204C711.44 289.818 710.827 287.684 710.933 285.444C711.213 279.151 711.334 272.857 711.787 266.591C712.08 262.511 712.147 258.471 711.814 254.404C711.44 249.844 712.947 247.684 717.427 246.711C721.013 245.924 724.6 244.991 728.347 245.191C729.213 245.244 730.107 245.258 730.947 245.444C732.147 245.711 733.226 246.351 733.133 247.751C733.026 249.338 731.8 249.818 730.427 249.711C727 249.484 723.68 250.271 720.32 250.644C717.573 250.951 716.653 252.258 716.88 254.871C717.027 256.604 716.907 258.351 716.907 260.098L716.894 260.124Z" fill="black"/>
<path d="M737.147 281.657C737.587 272.471 738.667 263.298 738.254 254.071C738.147 251.724 739.56 250.191 741.614 249.471C745.654 248.044 749.907 247.604 754.16 247.231C754.813 247.178 755.52 247.351 756.16 247.551C757.493 247.964 758.907 248.497 758.64 250.244C758.387 251.844 756.96 251.964 755.667 251.924C752.24 251.791 748.92 252.431 745.573 253.018C743.467 253.378 742.627 254.298 742.88 256.564C743.253 260.031 743.374 263.538 742.814 267.004C742.507 268.951 743.334 269.644 745.174 269.724C747.974 269.831 750.814 269.431 753.587 270.018C755.187 270.364 757.214 270.657 756.787 272.924C756.4 274.964 754.453 274.831 752.96 274.417C749.96 273.604 746.973 274.844 743.987 274.284C742.827 274.071 742.64 275.071 742.507 275.991C742.094 278.777 741.947 281.578 741.974 284.391C741.987 286.391 742.853 287.097 744.8 287.151C748.093 287.231 751.387 287.457 754.667 287.764C756.174 287.897 757.707 288.471 757.56 290.364C757.427 292.231 755.867 292.617 754.334 292.524C749.894 292.231 745.44 291.911 741.013 291.444C738.4 291.177 737.08 289.591 737.147 286.898C737.2 285.151 737.147 283.404 737.147 281.657Z" fill="black"/>
<path d="M318.308 257.044C319.094 264.964 316.934 272.871 318.107 280.817C318.441 283.057 319.068 284.031 321.308 283.631C327.401 282.524 333.481 283.684 339.561 283.751C341.148 283.764 342.521 284.351 342.641 286.164C342.774 288.177 341.308 288.791 339.641 288.991C338.494 289.124 337.321 289.177 336.161 289.124C330.067 288.817 323.988 288.911 317.894 289.351C313.574 289.671 312.348 288.004 312.228 283.697C311.921 271.991 313.334 260.311 312.814 248.604C312.761 247.351 312.814 246.084 312.934 244.831C313.067 243.364 313.681 242.124 315.361 242.084C317.134 242.044 318.041 243.271 318.121 244.857C318.281 248.244 318.254 251.631 318.294 255.017C318.294 255.697 318.294 256.377 318.294 257.044H318.308Z" fill="black"/>
<path d="M777.574 291.817C774.48 291.977 771.387 292.177 768.281 292.271C764.014 292.404 762.853 291.017 762.773 286.817C762.56 275.591 763.774 264.378 763.334 253.151C763.281 251.911 763.414 250.631 763.654 249.404C763.867 248.284 764.64 247.498 765.854 247.418C767.107 247.338 767.827 248.151 768.214 249.204C768.48 249.911 768.641 250.711 768.641 251.471C768.601 259.018 769.121 266.564 768.254 274.111C767.827 277.791 768.333 281.457 768.52 285.124C768.627 287.191 770.16 286.751 771.294 286.658C776.427 286.244 781.56 286.658 786.68 286.711C786.974 286.711 787.267 286.711 787.547 286.711C789.413 286.778 791.654 286.751 791.707 289.244C791.747 291.937 789.4 291.951 787.44 291.991C784.147 292.044 780.854 292.004 777.561 292.004C777.561 291.938 777.561 291.871 777.561 291.804L777.574 291.817Z" fill="black"/>
<path d="M662.334 278.537C662.334 281.057 662.374 283.591 661.668 286.044C661.268 287.431 660.534 288.671 658.841 288.324C657.188 287.991 656.881 286.617 657.014 285.151C657.801 275.884 657.76 266.591 658.134 257.311C658.254 254.391 658.748 251.537 659.334 248.697C659.708 246.871 660.814 245.871 662.681 245.577C668.441 244.684 674.254 244.617 680.067 244.644C681.374 244.644 682.76 244.858 682.8 246.551C682.827 248.191 681.454 248.604 680.187 248.724C676.52 249.044 672.841 249.151 669.174 249.484C663.628 249.977 663.654 250.031 663.374 255.511C663.227 258.404 662.947 261.297 662.854 264.204C662.761 267.257 663.507 268.031 666.601 267.844C669.721 267.657 672.788 268.084 675.868 268.364C677.321 268.497 679.014 268.924 678.841 270.844C678.667 272.764 676.934 272.817 675.467 272.751C671.987 272.591 668.494 272.497 665.041 272.057C662.867 271.777 662.214 272.497 662.334 274.497C662.414 275.844 662.347 277.204 662.347 278.564L662.334 278.537Z" fill="black"/>
<path d="M799.679 265.017C802.146 260.737 804.066 257.044 806.333 253.577C808.133 250.83 810.306 248.324 812.386 245.777C813.279 244.684 814.52 243.83 815.92 244.83C817.466 245.924 817.146 247.524 816.093 248.657C810.266 254.924 806.772 262.657 802.439 269.857C801.279 271.79 800.666 273.75 801.013 275.924C801.719 280.27 800.906 284.63 801.093 288.977C801.146 290.257 800.466 291.284 799.159 291.524C797.786 291.764 797.013 290.857 796.56 289.67C796.173 288.657 796.093 287.604 796.239 286.524C796.373 285.564 796.466 284.604 796.519 283.63C796.959 275.657 796.559 267.83 793.213 260.35C791.599 256.737 791.333 252.644 789.599 249.017C789.013 247.791 788.973 246.471 790.373 245.711C791.919 244.884 792.999 245.857 793.772 247.044C795.399 249.524 795.773 252.47 796.613 255.244C797.533 258.27 798.506 261.297 799.666 265.017H799.679Z" fill="black"/>
<path d="M357.282 245.551C359.308 245.551 361.361 245.404 363.375 245.604C364.988 245.764 366.522 246.538 366.362 248.498C366.202 250.324 364.681 250.618 363.135 250.711C358.721 250.978 358.868 251.018 358.268 255.631C357.175 263.897 356.722 272.191 356.668 280.511C356.655 282.457 356.602 284.124 359.122 284.644C360.388 284.911 361.282 286.031 361.002 287.511C360.735 288.964 359.668 289.564 358.268 289.631C355.561 289.777 352.855 289.937 350.148 290.031C348.588 290.084 347.188 289.618 346.788 287.898C346.388 286.204 347.228 284.991 348.842 284.591C350.895 284.071 351.295 282.698 351.282 280.898C351.282 272.084 351.748 263.298 352.961 254.564C353.241 252.564 353.268 250.684 350.575 250.111C349.401 249.871 348.535 248.898 348.775 247.498C349.028 246.031 350.108 245.391 351.495 245.351C353.428 245.284 355.362 245.338 357.308 245.338C357.308 245.404 357.308 245.471 357.308 245.538L357.282 245.551Z" fill="black"/>
<path d="M450.562 247.004C457.055 247.004 463.536 247.004 470.029 247.004C471.589 247.004 473.149 247.324 473.229 249.178C473.322 251.071 471.695 251.444 470.215 251.671C467.308 252.138 464.428 251.364 461.522 251.351C459.468 251.351 458.602 251.911 458.575 254.151C458.468 264.604 456.722 274.991 457.375 285.471C457.482 287.111 457.122 288.791 455.082 288.871C453.082 288.951 452.655 287.338 452.415 285.698C451.468 279.404 452.522 273.138 452.775 266.858C452.935 262.711 453.348 258.564 453.722 254.418C453.922 252.191 453.122 251.204 450.789 251.311C447.882 251.444 444.975 251.364 442.069 251.311C440.442 251.271 438.722 250.938 438.748 248.898C438.775 246.844 440.508 246.604 442.135 246.591C444.948 246.564 447.762 246.591 450.562 246.591C450.562 246.738 450.562 246.871 450.562 247.018V247.004Z" fill="black"/>
<path d="M476.002 286.817C476.069 290.284 472.855 293.817 469.548 294.097C468.522 294.191 467.535 294.071 467.215 292.911C466.908 291.844 467.682 291.297 468.548 291.004C470.135 290.471 471.162 290.111 469.535 288.164C468.362 286.777 469.335 285.017 470.441 283.711C471.308 282.684 472.495 282.164 473.815 282.604C475.935 283.311 475.535 285.377 476.002 286.804V286.817Z" fill="black"/>
</svg>
