<svg width="1333" height="989" viewBox="0 0 1333 989" fill="none" xmlns="http://www.w3.org/2000/svg">
<path d="M1330.76 375.486C1329.2 323.853 1325.53 272.415 1312.45 223.765C1293.84 154.567 1262.7 98.6022 1217.75 59.2145C1192.24 36.8678 1163.91 26.8859 1134.11 21.7751C1089.8 14.1763 1045.36 13.0972 1000.88 12.3928C956.8 11.7034 912.747 12.2427 868.678 15.9597C850.248 17.5184 831.728 18.9723 813.207 19.437C768.135 20.546 723.078 22.9889 678.006 23.3786C626.551 23.8282 575.066 23.6783 523.64 21.8348C485.835 20.4859 448.165 14.7308 410.645 7.86647C394.882 4.98882 379.074 2.84541 363.206 2.45573C338.992 1.87121 314.777 1.84119 290.563 2.41072C255.395 3.23505 220.423 7.04191 185.585 14.7456C157.43 20.9655 131.253 33.1955 107.982 56.3216C82.9589 81.1862 60.3928 109.154 47.2518 149.785C34.6802 188.648 24.9107 228.561 19.0969 270.467C15.9952 292.768 10.4809 314.785 9.61184 337.207C8.78772 358.55 5.53629 379.577 5.98581 401.01C6.51025 425.185 2.34464 449.165 4.06781 473.355C5.80596 497.98 5.25145 522.65 9.58184 547.305C15.3207 579.993 26.3941 605.847 44.1352 628.374C71.7508 663.415 104.431 676.23 140.213 677.519C163.648 678.358 187.098 677.833 210.548 677.668L58.7896 935.757L2 987C16.9991 979.057 31.1889 966.512 48.4356 971.248C50.6383 971.848 53.2755 971.038 55.4482 969.884C70.2974 962.031 85.7459 955.736 99.741 945.514C143.18 913.815 185.72 879.793 228.125 845.396C269.99 811.434 308.469 770.262 349.99 735.611C368.046 720.548 380.707 696.193 393.923 674.176C394.058 673.951 394.193 673.711 394.343 673.472L395.512 673.427C406.854 681.955 419.097 677.488 430.814 677.219C442.217 676.964 453.65 675.195 465.127 674.746C518.935 672.647 572.758 672.932 626.566 671.479C670.993 670.28 715.361 664.314 759.759 660.702C780.932 658.978 802.119 657.12 823.322 656.55C860.977 655.531 898.691 653.718 936.316 655.397C989.465 657.78 1042.6 657.6 1095.75 657.84C1137.48 658.019 1177.89 648.727 1217.96 631.446C1263.31 611.887 1295.36 572.784 1316.69 514.497C1323.83 494.953 1325.48 473.25 1327.61 452.043C1330.14 426.729 1331.57 401.1 1330.79 375.471L1330.76 375.486Z" fill="white" stroke="black" stroke-width="3.99999" stroke-linecap="round" stroke-linejoin="round"/>
<path d="M942.738 341.816C943.778 335.776 944.698 329.923 944.018 323.829C943.418 318.376 943.884 312.802 943.911 307.282C943.911 306.709 944.071 306.122 944.271 305.589C944.897 303.976 946.031 302.962 947.831 303.296C949.724 303.642 950.164 305.083 950.071 306.816C949.724 313.109 949.697 319.376 950.271 325.669C950.977 333.442 949.764 341.136 948.364 348.762C948.231 349.522 947.951 350.256 947.631 350.962C946.857 352.629 945.738 353.936 943.711 353.936C941.831 353.936 940.671 352.829 939.911 351.242C938.071 347.389 936.458 343.442 935.418 339.296C933.724 332.562 930.084 326.722 926.444 320.656C926.444 323.696 926.338 326.736 926.471 329.763C926.764 336.856 926.231 343.896 925.271 350.909C925.018 352.736 924.298 354.189 922.244 354.122C920.191 354.056 919.511 352.549 919.391 350.736C919.338 349.869 919.284 348.976 919.418 348.122C921.311 336.189 920.058 324.149 920.458 312.176C920.511 310.536 920.351 308.882 920.938 307.282C921.511 305.722 922.431 304.509 924.218 304.389C926.031 304.269 927.031 305.389 927.711 306.922C929.658 311.349 931.418 315.869 933.618 320.176C937.177 327.149 940.671 334.136 942.738 341.803V341.816Z" fill="black"/>
<path d="M471.618 326.949C469.778 333.496 466.752 339.536 464.138 345.763C463.618 347.016 463.112 348.283 462.138 349.269C459.312 352.136 455.245 351.416 453.632 347.763C452.912 346.149 452.619 344.456 452.565 342.683C452.299 332.816 452.912 322.936 452.098 313.069C451.965 311.416 452.178 309.776 452.685 308.19C453.005 307.203 453.619 306.443 454.739 306.416C455.965 306.403 456.765 307.149 457.018 308.283C457.232 309.216 457.258 310.203 457.272 311.163C457.472 321.523 457.072 331.883 457.845 342.229C457.898 342.883 458.005 343.536 458.085 344.203C459.192 344.269 459.192 343.403 459.432 342.856C463.978 332.803 468.045 322.549 471.365 312.016C471.872 310.429 472.738 309.056 474.632 309.389C476.472 309.709 476.485 311.296 476.578 312.816C476.978 319.576 477.365 326.336 477.872 333.096C478.058 335.563 478.512 338.03 479.752 340.523C480.858 339.39 480.938 338.123 481.192 336.936C482.992 328.616 484.325 320.189 486.792 312.016C487.045 311.189 487.258 310.323 487.672 309.563C488.258 308.509 489.285 308.216 490.432 308.456C491.512 308.683 492.125 309.43 492.205 310.496C492.272 311.35 492.285 312.27 492.058 313.083C489.712 321.389 488.178 329.869 486.618 338.349C485.992 341.736 484.325 344.709 482.938 347.789C482.232 349.349 481.058 350.296 479.325 350.229C477.458 350.163 476.272 349.056 475.738 347.323C474.085 341.949 472.605 336.536 472.405 330.869C472.365 329.616 472.405 328.376 472.405 327.123C472.138 327.056 471.885 326.989 471.618 326.936V326.949Z" fill="black"/>
<path d="M446.525 441.255C447.725 440.015 447.791 438.749 448.058 437.562C449.858 429.242 451.191 420.816 453.658 412.642C453.911 411.816 454.125 410.936 454.538 410.189C455.125 409.136 456.151 408.856 457.298 409.096C458.378 409.322 458.978 410.082 459.058 411.136C459.125 411.989 459.138 412.909 458.911 413.722C456.565 422.029 455.031 430.509 453.471 438.975C452.858 442.255 451.245 445.149 449.911 448.162C449.178 449.829 448.045 450.922 446.165 450.856C444.151 450.789 443.018 449.495 442.485 447.669C440.925 442.376 439.431 437.056 439.271 431.482C439.231 430.229 439.271 428.989 439.271 427.682C438.071 427.762 438.138 428.629 437.978 429.162C436.178 435.429 433.045 441.162 430.658 447.189C430.111 448.562 429.351 449.775 428.098 450.642C425.285 452.575 422.045 451.722 420.592 448.629C419.752 446.842 419.458 444.962 419.405 442.989C419.138 433.309 419.778 423.629 418.951 413.949C418.805 412.202 418.992 410.456 419.538 408.776C419.858 407.789 420.472 407.029 421.592 407.016C422.818 407.016 423.605 407.762 423.872 408.882C424.085 409.815 424.111 410.802 424.125 411.762C424.325 422.122 423.925 432.482 424.698 442.829C424.751 443.482 424.858 444.136 424.938 444.789C426.045 444.842 426.031 443.976 426.285 443.429C430.831 433.376 434.885 423.122 438.218 412.589C438.725 410.989 439.605 409.629 441.498 409.976C443.325 410.296 443.351 411.896 443.431 413.402C443.831 420.162 444.218 426.922 444.725 433.682C444.911 436.149 445.458 438.589 446.525 441.189V441.255Z" fill="black"/>
<path d="M709.671 424.722C707.871 431.296 704.778 437.335 702.191 443.589C701.591 445.029 700.978 446.442 699.724 447.469C696.898 449.776 693.311 448.962 691.791 445.682C690.964 443.896 690.684 442.002 690.631 440.042C690.378 430.362 690.978 420.682 690.191 411.002C690.071 409.576 690.338 408.109 690.564 406.682C690.764 405.376 691.311 404.136 692.898 404.189C694.578 404.242 695.231 405.522 695.284 406.976C695.417 410.749 695.524 414.536 695.444 418.309C695.284 425.669 695.524 433.029 695.924 440.376C695.951 440.922 695.818 441.549 696.671 442.189C698.871 437.549 701.271 433.082 702.791 428.242C704.791 421.869 708.071 415.962 709.591 409.416C709.951 407.882 711.071 406.789 712.804 407.162C714.457 407.522 714.577 408.962 714.657 410.376C715.044 417.042 715.431 423.709 715.898 430.362C716.084 432.962 716.631 435.509 717.684 438.189C719.044 437.309 718.991 435.989 719.244 434.869C721.084 426.455 722.418 417.936 724.911 409.669C725.138 408.936 725.324 408.162 725.657 407.482C726.191 406.402 727.164 406.016 728.337 406.189C729.564 406.362 730.257 407.176 730.297 408.362C730.337 409.402 730.244 410.509 729.964 411.509C727.817 419.269 726.311 427.162 724.937 435.069C724.297 438.762 722.644 442.042 721.111 445.389C720.351 447.056 719.177 448.096 717.311 448.002C715.444 447.896 714.311 446.736 713.777 445.016C712.124 439.549 710.604 434.042 710.484 428.269C710.457 427.136 710.484 426.002 710.484 424.856C710.217 424.829 709.951 424.789 709.671 424.762V424.722Z" fill="black"/>
<path d="M1106.62 328.15C1104.82 334.724 1101.72 340.764 1099.14 347.017C1098.54 348.457 1097.94 349.87 1096.68 350.897C1093.86 353.203 1090.27 352.417 1088.74 349.137C1087.91 347.35 1087.63 345.457 1087.58 343.497C1087.32 333.817 1087.94 324.137 1087.14 314.457C1087.04 313.31 1087.16 312.124 1087.35 310.99C1087.59 309.47 1087.76 307.59 1089.83 307.644C1092.02 307.697 1092.26 309.537 1092.3 311.257C1092.36 314.844 1092.48 318.43 1092.39 322.004C1092.22 329.27 1092.5 336.524 1092.87 343.777C1092.9 344.324 1092.78 344.95 1093.62 345.644C1095.96 340.524 1098.5 335.617 1100.2 330.31C1102.14 324.324 1105.12 318.724 1106.64 312.59C1106.99 311.177 1108.15 310.23 1109.74 310.577C1111.39 310.937 1111.52 312.364 1111.6 313.79C1111.99 320.457 1112.36 327.124 1112.84 333.777C1113.04 336.417 1113.46 339.07 1114.76 341.59C1115.99 340.537 1115.96 339.217 1116.22 338.03C1118.06 329.617 1119.42 321.097 1121.88 312.831C1122.44 310.951 1123.06 309.044 1125.51 309.71C1127.8 310.324 1127.55 312.404 1127.1 314.07C1124.72 322.67 1123.18 331.444 1121.47 340.177C1120.87 343.257 1119.28 345.964 1118.03 348.79C1117.3 350.457 1116.11 351.51 1114.26 351.417C1112.39 351.324 1111.24 350.164 1110.72 348.444C1109.07 342.977 1107.54 337.47 1107.42 331.697C1107.39 330.55 1107.42 329.417 1107.42 328.27C1107.15 328.23 1106.88 328.204 1106.62 328.164V328.15Z" fill="black"/>
<path d="M943.724 429.069C943.991 420.349 945.804 413.242 951.017 407.336C953.751 404.242 957.057 402.349 961.217 401.723C972.111 400.096 980.204 405.763 982.084 416.509C982.444 418.603 982.244 420.656 979.817 421.123C977.551 421.563 976.977 419.616 976.511 417.869C976.244 416.842 976.097 415.763 975.711 414.776C974.657 412.096 973.911 409.242 970.324 408.589C964.937 407.616 959.484 406.016 955.244 411.176C953.017 413.883 951.217 416.909 950.457 420.402C949.697 423.896 949.417 427.402 949.644 431.042C950.137 439.362 961.391 446.242 968.844 443.749C971.937 442.722 974.284 439.429 973.791 436.176C973.577 434.749 972.777 434.176 971.364 434.362C969.444 434.629 967.524 434.909 965.591 435.096C964.537 435.202 963.444 435.282 962.417 435.096C960.617 434.789 958.857 434.123 959.071 431.843C959.271 429.696 960.991 429.522 962.751 429.402C965.364 429.229 967.964 428.989 970.551 428.616C976.324 427.776 979.631 430.296 979.471 436.136C979.204 446.549 974.337 450.349 963.804 449.762C953.017 449.162 942.977 440.096 943.711 429.056L943.724 429.069Z" fill="black"/>
<path d="M300.339 348.296C302.339 343.776 304.512 339.749 305.926 335.483C308.086 328.949 311.326 322.829 312.979 316.123C313.339 314.643 314.126 313.256 315.966 313.629C317.646 313.976 317.659 315.443 317.739 316.856C318.219 325.149 318.246 333.496 319.912 341.696C320.099 342.589 320.046 343.642 321.126 344.389C322.059 342.842 322.379 341.189 322.726 339.496C324.352 331.429 325.739 323.309 328.139 315.416C328.605 313.883 329.032 312.136 331.086 312.589C333.259 313.056 333.179 315.016 332.765 316.616C330.459 325.429 328.832 334.389 326.939 343.282C326.405 345.802 325.032 348.136 324.006 350.536C323.352 352.056 322.339 353.202 320.499 353.069C318.739 352.949 317.672 351.829 317.179 350.242C315.419 344.589 313.899 338.896 313.939 332.909C313.939 331.909 314.232 330.816 313.352 329.483C311.406 334.816 309.632 339.882 307.272 344.722C306.459 346.376 305.792 348.096 305.112 349.802C304.072 352.429 302.246 354.016 299.366 353.789C296.539 353.562 295.406 351.322 295.152 348.936C294.686 344.616 294.552 340.256 294.366 335.909C294.099 329.336 294.832 322.763 294.272 316.189C294.219 315.616 294.232 315.016 294.312 314.443C294.539 312.816 294.566 310.736 296.819 310.882C299.006 311.029 298.939 313.042 298.952 314.709C299.032 324.202 299.099 333.696 299.179 343.189C299.179 344.803 299.179 346.429 300.339 348.296Z" fill="black"/>
<path d="M395.245 432.483C394.765 437.896 394.365 442.416 393.951 446.936C393.885 447.616 393.898 448.296 393.765 448.963C393.431 450.603 392.672 452.043 390.738 451.856C388.685 451.656 388.072 450.083 388.205 448.256C388.472 444.683 388.792 441.123 389.178 437.563C390.138 428.696 390.431 419.79 390.805 410.896C391.005 406.15 392.885 404.283 397.698 404.376C400.725 404.43 403.605 405.43 406.538 406.016C417.405 408.163 417.565 420.003 412.445 425.843C410.351 428.243 407.845 430.096 404.738 430.79C402.058 431.39 402.378 432.376 403.578 434.296C406.618 439.136 409.578 444.03 413.365 448.35C413.925 448.99 414.352 449.816 414.592 450.616C414.912 451.749 414.418 452.75 413.405 453.336C411.992 454.15 410.725 453.603 409.725 452.563C406.258 449.003 403.472 444.923 400.912 440.683C399.325 438.056 397.778 435.416 395.232 432.456L395.245 432.483ZM395.738 421.67C395.458 423.883 395.991 425.496 398.498 425.95C402.485 426.67 407.191 424.59 409.271 421.11C411.711 417.003 410.072 412.563 405.552 411.283C403.512 410.71 401.405 410.323 399.325 409.896C397.285 409.47 396.165 410.163 396.218 412.416C396.285 415.51 396.152 418.603 395.752 421.67H395.738Z" fill="black"/>
<path d="M958.964 331.763C957.59 342.363 969.057 349.469 976.844 347.829C978.977 347.376 981.017 346.829 981.977 344.536C982.75 342.709 983.457 340.696 982.524 338.922C981.524 337.042 979.524 338.429 978.004 338.403C975.884 338.363 973.79 339.123 971.644 338.789C970.004 338.536 968.484 337.869 968.484 335.989C968.484 333.963 970.124 333.523 971.777 333.523C974.99 333.536 978.164 333.082 981.31 332.562C984.017 332.109 985.724 333.229 987.07 335.456C990.004 340.296 987.43 350.763 979.604 352.789C967.964 355.789 952.91 346.149 953.577 332.376C953.937 325.136 955.404 318.389 960.07 312.603C963.324 308.563 967.457 306.429 972.684 306.563C976.097 306.656 979.444 307.389 982.67 308.336C987.057 309.616 991.79 319.016 990.537 323.349C990.244 324.363 989.657 325.122 988.564 325.216C987.19 325.336 986.35 324.523 986.004 323.296C985.417 321.256 985.004 319.163 984.177 317.189C983.124 314.643 981.337 313.496 978.63 312.709C965.67 308.989 961.07 318.069 959.244 327.763C959.017 328.989 959.057 330.269 958.964 331.763Z" fill="black"/>
<path d="M1151.96 342.323C1152.46 336.337 1153.66 330.937 1152.74 325.377C1151.92 320.47 1152.8 315.523 1152.75 310.59C1152.72 308.75 1153.43 306.883 1155.62 306.897C1158.03 306.897 1158.22 308.95 1158 310.75C1156.83 320.683 1159.5 330.67 1157.59 340.59C1157.11 343.056 1156.87 345.577 1156.35 348.043C1155.91 350.123 1154.95 352.003 1152.52 352.216C1150.26 352.416 1149.32 350.67 1148.62 348.923C1147.26 345.603 1145.7 342.363 1144.91 338.843C1143.58 332.777 1140 327.75 1137.52 322.217C1137.24 322.23 1136.96 322.243 1136.68 322.257C1136.68 324.937 1136.52 327.63 1136.71 330.31C1137.15 336.43 1136.48 342.496 1135.87 348.563C1135.8 349.23 1135.68 349.91 1135.5 350.563C1135.16 351.656 1134.5 352.497 1133.24 352.497C1131.87 352.497 1131.06 351.63 1130.83 350.39C1130.62 349.27 1130.51 348.056 1130.68 346.936C1132.36 336.443 1131.28 325.87 1131.67 315.35C1131.72 313.897 1131.67 312.43 1131.96 311.017C1132.28 309.43 1133.12 308.03 1134.96 307.923C1136.7 307.817 1137.54 309.057 1138.06 310.51C1141.8 321.097 1148.63 330.363 1151.23 341.443C1151.27 341.603 1151.46 341.737 1151.96 342.363V342.323Z" fill="black"/>
<path d="M922.164 429.737C921.671 435.47 921.23 440.55 920.777 445.63C920.604 447.563 920.217 449.616 917.751 449.376C915.311 449.136 915.164 447.017 915.417 445.11C917.071 432.803 917.311 420.39 918.071 408.03C918.364 403.377 920.884 401.257 925.524 401.83C928.204 402.163 930.844 402.923 933.497 403.443C944.497 405.577 944.63 417.456 939.551 423.203C937.311 425.736 934.644 427.643 931.284 428.323C929.124 428.763 929.11 429.576 930.177 431.256C933.337 436.243 936.39 441.31 940.27 445.817C941.537 447.283 942.671 449.056 940.724 450.603C938.817 452.123 937.27 450.63 936.03 449.19C932.911 445.59 930.244 441.67 927.79 437.59C926.257 435.03 924.764 432.43 922.164 429.71V429.737ZM927.871 423.643C930.417 423.71 933.004 422.51 935.137 420.377C937.47 418.043 937.937 415.203 937.137 412.07C936.43 409.283 934.017 408.883 931.804 408.27C929.95 407.763 928.03 407.417 926.137 407.03C924.057 406.617 923.057 407.416 923.057 409.616C923.057 412.71 923.004 415.803 922.817 418.883C922.604 422.59 923.591 423.696 927.857 423.643H927.871Z" fill="black"/>
<path d="M501.338 333.549C500.832 339.443 500.405 344.43 499.952 349.429C499.872 350.283 499.712 351.163 499.405 351.963C499.032 352.936 498.205 353.51 497.138 353.496C495.925 353.483 495.112 352.789 494.792 351.669C494.578 350.936 494.458 350.123 494.565 349.389C496.232 336.989 496.485 324.483 497.245 312.016C497.525 307.416 500.112 305.283 504.752 305.896C507.432 306.243 510.058 307.003 512.725 307.523C523.552 309.643 523.792 321.31 518.858 327.096C516.738 329.576 514.192 331.589 510.952 332.229C508.072 332.789 508.405 333.829 509.698 335.883C512.805 340.803 515.885 345.723 519.685 350.163C520.832 351.496 521.645 353.109 520.085 354.549C518.378 356.123 516.805 355.016 515.565 353.656C512.298 350.043 509.578 346.043 507.085 341.869C505.498 339.229 503.872 336.616 501.352 333.589L501.338 333.549ZM502.245 318.936H502.072C502.072 319.896 502.112 320.87 502.072 321.83C501.832 327.123 503.552 328.576 508.872 327.43C511.298 326.91 513.378 325.656 514.925 323.696C518.498 319.19 516.672 313.696 511.178 312.323C509.298 311.856 507.405 311.483 505.512 311.083C503.365 310.63 502.138 311.31 502.232 313.71C502.298 315.443 502.232 317.189 502.232 318.923L502.245 318.936Z" fill="black"/>
<path d="M753.924 333.963C753.444 339.39 753.018 344.363 752.578 349.35C752.511 350.016 752.471 350.71 752.284 351.35C751.871 352.656 751.044 353.603 749.551 353.47C748.058 353.337 747.418 352.256 747.191 350.91C747.098 350.35 747.098 349.737 747.191 349.177C748.884 336.87 749.098 324.47 749.858 312.097C750.151 307.337 752.751 305.23 757.564 305.91C760.151 306.27 762.684 306.977 765.258 307.483C776.284 309.617 776.418 321.47 771.364 327.23C769.071 329.843 766.284 331.737 762.831 332.457C761.031 332.83 760.858 333.55 761.804 335.043C765.018 340.123 768.098 345.283 772.044 349.843C773.311 351.31 774.471 353.07 772.551 354.643C770.658 356.203 769.111 354.71 767.844 353.296C763.911 348.843 760.884 343.763 757.751 338.75C756.791 337.217 755.924 335.563 753.938 333.99L753.924 333.963ZM759.644 327.67C762.111 327.737 764.618 326.576 766.724 324.59C769.124 322.323 769.671 319.497 768.978 316.35C768.324 313.403 765.858 312.937 763.538 312.297C761.858 311.83 760.138 311.55 758.444 311.15C756.058 310.59 754.751 311.23 754.804 313.977C754.871 316.963 754.764 319.963 754.591 322.95C754.364 326.656 755.338 327.75 759.631 327.67H759.644Z" fill="black"/>
<path d="M497.032 451.363C491.165 451.283 486.992 449.589 483.792 445.763C482.965 444.776 482.325 443.709 482.258 442.389C482.192 440.936 482.552 439.643 484.032 439.056C485.512 438.469 486.632 439.149 487.592 440.283C492.312 445.896 496.072 446.709 502.498 443.549C506.085 441.789 506.952 439.283 505.178 435.709C504.338 434.003 502.978 432.776 501.378 431.803C497.818 429.63 494.218 427.536 490.698 425.323C486.725 422.829 483.565 419.256 483.792 414.576C484.045 409.536 487.232 405.589 491.832 403.229C498.445 399.843 504.618 401.029 510.232 405.549C512.685 407.523 513.965 410.243 513.738 413.47C513.618 415.056 512.858 416.35 511.125 416.456C509.472 416.55 508.845 415.309 508.472 413.883C507.458 410.109 503.658 407.069 499.898 406.963C495.538 406.843 490.872 409.976 489.712 413.803C489.085 415.883 490.645 418.79 493.365 420.456C497.485 422.99 501.672 425.443 505.778 428.016C509.272 430.216 511.152 433.509 511.805 437.536C512.525 441.976 510.698 445.83 506.818 448.123C503.578 450.03 499.178 451.376 497.045 451.389L497.032 451.363Z" fill="black"/>
<path d="M856.057 337.216C855.551 329.163 856.697 321.723 855.937 314.269C855.857 313.496 855.871 312.723 855.884 311.949C855.937 309.989 855.884 307.629 858.537 307.603C861.204 307.576 861.151 309.936 861.311 311.896C861.764 317.496 862.097 323.096 861.364 328.709C861.057 331.056 861.911 332.243 864.497 332.416C869.417 332.736 874.324 333.336 879.231 333.883C881.377 334.123 881.591 332.869 881.644 331.229C881.831 325.989 880.484 320.829 880.897 315.576C881.004 314.136 881.071 312.669 881.351 311.256C881.631 309.789 882.511 308.723 884.151 308.869C885.911 309.029 886.724 310.296 886.657 311.896C886.137 324.789 888.444 337.576 888.111 350.456C888.111 350.936 888.124 351.429 888.124 351.909C888.124 353.629 887.671 355.083 885.631 355.136C883.711 355.176 882.911 353.883 882.684 352.176C882.257 349.003 881.924 345.816 882.191 342.616C882.404 339.949 881.177 339.016 878.657 338.869C873.924 338.589 869.191 338.176 864.484 337.683C862.244 337.456 861.137 338.123 861.311 340.483C861.511 343.283 861.724 346.083 861.777 348.883C861.817 350.816 861.404 352.776 858.924 352.803C856.578 352.83 856.151 350.896 856.111 349.123C856.004 344.963 856.071 340.803 856.071 337.243L856.057 337.216Z" fill="black"/>
<path d="M336.138 346.469C338.085 335.736 338.205 324.682 341.765 314.229C342.498 312.082 343.498 310.149 345.125 308.536C349.165 304.496 354.965 305.483 357.272 310.763C358.992 314.696 359.498 318.976 360.098 323.189C361.378 332.189 362.378 341.229 365.378 349.896C365.885 351.362 365.552 352.603 364.205 353.416C362.885 354.229 361.805 353.602 360.832 352.656C360.045 351.896 359.512 350.976 359.232 349.922C358.672 347.776 358.045 345.629 357.658 343.443C356.792 338.456 356.832 338.456 351.845 338.362C349.712 338.322 347.552 338.309 345.472 337.949C343.392 337.589 342.592 338.429 342.405 340.296C342.125 342.989 341.818 345.682 341.565 348.376C341.458 349.442 341.445 350.509 340.925 351.483C340.325 352.576 339.485 353.349 338.125 353.083C336.925 352.843 336.258 351.976 336.178 350.829C336.058 349.389 336.152 347.923 336.152 346.483L336.138 346.469ZM344.418 328.416C344.018 332.483 344.018 332.442 347.818 332.882C349.738 333.109 351.658 333.189 353.605 333.149C355.085 333.109 355.538 332.456 355.338 331.176C354.525 325.829 354.458 320.363 352.925 315.123C352.525 313.763 352.245 311.989 350.445 311.949C348.725 311.909 348.165 313.589 347.645 314.922C345.885 319.349 344.672 323.923 344.405 328.429L344.418 328.416Z" fill="black"/>
<path d="M1023.38 305.484C1028.27 306.39 1034.16 306.777 1039.39 310.084C1042.15 311.83 1044.08 314.177 1045.63 316.817C1049.71 323.777 1051.26 331.204 1048.64 339.07C1047.43 342.71 1044.79 345.324 1041.63 347.337C1036.52 350.59 1030.87 352.644 1025.02 354.097C1020.58 355.204 1019.27 353.75 1020.47 349.417C1020.63 348.857 1020.71 348.27 1020.74 347.697C1021.34 335.804 1021.5 323.91 1019.74 312.084C1019.64 311.417 1019.46 310.75 1019.19 310.124C1017.51 306.084 1018.04 305.31 1023.36 305.47L1023.38 305.484ZM1026.03 333.684C1026.03 337.75 1026.1 341.83 1026 345.897C1025.96 347.777 1026.5 348.337 1028.38 347.71C1032.06 346.457 1035.68 345.084 1038.96 342.964C1041.68 341.217 1043.44 338.817 1044.2 335.59C1046.92 324.257 1040.35 313.684 1029.06 311.324C1028.39 311.19 1027.7 311.124 1027.07 310.897C1025.14 310.19 1024.42 310.63 1024.75 312.83C1025.79 319.737 1026.36 326.684 1026.03 333.684Z" fill="black"/>
<path d="M913.071 424.589C912.484 431.349 912.724 437.683 909.364 443.616C904.951 451.403 889.351 451.469 885.444 443.896C882.817 438.803 880.484 434.056 881.337 428.003C882.137 422.403 883.137 416.896 885.164 411.656C888.791 402.243 898.831 399.376 906.137 405.47C907.764 406.83 908.684 408.59 909.551 410.443C911.711 415.07 912.804 419.949 913.071 424.589ZM907.617 428.656C907.75 421.51 906.511 415.456 904.257 411.576C901.297 406.456 895.497 405.963 891.737 410.51C890.417 412.11 889.577 413.95 889.017 415.936C887.937 419.75 886.737 423.563 886.617 427.576C886.497 432.096 887.084 436.443 889.671 440.323C893.351 445.869 901.737 445.696 905.244 440.016C907.551 436.27 907.324 432.03 907.63 428.67L907.617 428.656Z" fill="black"/>
<path d="M1083.62 331.23C1083.59 338.11 1082.92 343.79 1079.3 348.964C1075.22 354.75 1061.18 354.95 1056.94 348.417C1052.62 341.764 1051.74 335.044 1052.91 327.697C1053.43 324.457 1054.22 321.23 1055.14 318.084C1057.6 309.71 1063.99 305.47 1071.35 307.137C1074.67 307.884 1077.14 309.804 1078.82 312.684C1082.34 318.684 1083.94 325.177 1083.6 331.244L1083.62 331.23ZM1078.26 332.35C1078.54 326.977 1077.64 321.804 1075.26 316.87C1073.76 313.764 1071.6 312.004 1068.06 311.977C1064.52 311.95 1062.43 314.07 1061.12 316.884C1058.64 322.217 1057.27 327.964 1057.64 333.804C1057.88 337.564 1058.59 341.404 1060.99 344.75C1063.28 347.937 1066.38 348.337 1069.71 348.177C1072.96 348.017 1075.31 346.283 1076.64 343.217C1078.16 339.737 1078.4 336.097 1078.24 332.35H1078.26Z" fill="black"/>
<path d="M325.859 435.483C325.299 428.337 326.646 421.176 325.766 414.016C325.659 413.163 325.686 412.27 325.766 411.403C325.926 409.683 326.312 407.95 328.512 408.003C330.499 408.043 330.952 409.616 331.059 411.283C331.432 416.496 332.019 421.696 331.219 426.936C330.832 429.456 331.766 431.016 334.552 431.256C339.086 431.656 343.606 432.19 348.126 432.696C349.779 432.883 350.072 431.923 350.126 430.59C350.246 427.47 349.672 424.416 349.299 421.35C348.926 418.243 348.979 415.163 349.592 412.097C349.912 410.457 350.592 409.016 352.579 409.23C354.379 409.416 354.926 410.817 354.872 412.403C354.539 422.87 356.432 433.256 356.099 443.723C356.032 445.643 356.472 447.577 356.486 449.51C356.499 451.283 355.859 452.91 353.792 453.003C351.872 453.083 351.032 451.59 350.912 449.963C350.712 446.976 350.166 444.003 350.579 440.99C350.872 438.816 350.086 437.803 347.779 437.67C343.139 437.403 338.512 437.017 333.899 436.457C331.566 436.177 330.939 437.11 331.086 439.177C331.272 441.683 331.472 444.19 331.552 446.71C331.619 448.656 331.246 450.696 328.846 450.75C326.432 450.803 325.952 448.723 325.886 446.83C325.766 443.057 325.846 439.283 325.846 435.51L325.859 435.483Z" fill="black"/>
<path d="M628.511 429.336C628.751 434.616 628.258 439.216 626.111 443.682C621.764 452.709 606.338 452.496 602.218 445.269C599.245 440.056 596.925 435.122 597.685 428.909C598.271 424.082 598.911 419.282 600.325 414.656C602.685 406.949 608.431 403.176 615.658 404.403C620.818 405.283 623.565 408.936 625.485 413.402C627.738 418.642 628.978 424.082 628.498 429.349L628.511 429.336ZM623.258 427.642C623.485 422.496 622.071 418.296 620.125 414.256C618.698 411.296 616.618 409.216 613.005 409.189C609.471 409.163 607.191 411.256 606.071 414.069C603.031 421.749 601.445 429.709 604.245 437.829C605.245 440.736 606.725 443.989 609.951 444.749C616.445 446.282 621.578 444.962 623.071 436.602C623.631 433.442 623.578 430.256 623.258 427.629V427.642Z" fill="black"/>
<path d="M152.006 329.843C159.059 293.43 159.233 255.83 171.619 220.377C173.739 214.31 176.326 208.603 180.366 203.537C186.606 195.697 194.286 190.443 204.619 192.417C214.966 194.39 221.792 201.337 225.179 211.15C229.792 224.51 231.699 238.483 233.632 252.43C237.752 282.243 241.579 312.123 251.032 340.896C252.646 345.816 252.619 350.523 247.392 353.016C241.766 355.696 237.499 352.536 234.686 347.99C228.366 337.763 226.192 326.056 225.246 314.43C224.512 305.377 220.566 301.603 212.059 302.07C202.273 302.603 192.713 300.683 183.046 299.83C176.846 299.283 173.579 301.603 172.993 307.936C172.046 318.27 170.899 328.576 169.766 338.883C169.086 345.136 167.833 351.883 159.899 351.563C151.433 351.216 152.046 343.99 152.006 337.896C151.993 335.216 152.006 332.537 152.006 329.857V329.843ZM204.979 285.083C209.566 282.95 219.739 288.95 218.112 277.377C215.499 258.897 215.099 240.043 209.619 222.017C208.272 217.603 207.432 212.11 201.819 211.43C195.632 210.67 193.339 216.07 191.366 220.59C183.673 238.243 179.993 256.83 178.913 275.99C178.699 279.75 179.006 282.523 183.766 282.87C190.752 283.376 197.699 284.31 204.979 285.083Z" fill="#55ADE1"/>
<path d="M419.005 342.23C419.098 346.216 417.365 349.07 413.859 350.95C407.872 354.15 401.845 355.203 395.579 351.683C393.539 350.536 392.125 348.856 390.979 346.936C389.979 345.256 390.019 343.47 391.872 342.363C393.685 341.283 394.872 342.296 395.899 343.896C399.419 349.349 408.539 349.883 412.658 344.936C414.645 342.55 413.485 337.79 410.138 335.576C406.752 333.323 403.219 331.296 399.712 329.23C398.285 328.39 396.845 327.603 395.725 326.363C391.005 321.136 390.845 316.616 395.205 311.03C401.112 303.47 413.645 303.697 419.272 311.47C420.458 313.096 420.965 314.95 420.899 316.936C420.845 318.403 420.365 319.71 418.699 319.896C417.005 320.096 416.352 318.883 415.938 317.47C413.965 310.75 405.552 308.483 400.365 313.283C396.085 317.243 396.512 321.35 401.565 324.376C405.312 326.616 409.112 328.75 412.818 331.056C416.898 333.59 419.018 337.536 419.005 342.23Z" fill="black"/>
<path d="M828.591 306.403C835.657 306.403 842.724 306.376 849.791 306.416C851.644 306.416 853.444 307.003 853.577 309.203C853.711 311.509 852.071 312.483 850.004 312.536C846.031 312.629 842.057 312.603 838.084 312.536C836.044 312.496 835.391 313.07 835.297 315.363C834.964 324.163 834.311 332.95 833.631 341.723C833.417 344.536 833.217 347.336 833.444 350.136C833.617 352.243 833.324 353.47 830.804 353.483C828.471 353.483 826.857 353.176 826.831 350.269C826.764 344.256 827.311 338.269 827.644 332.283C827.951 326.776 828.284 321.27 828.671 315.776C828.831 313.416 827.884 312.416 825.471 312.51C822.271 312.63 819.071 312.55 815.871 312.523C815.004 312.523 814.111 312.496 813.271 312.31C811.391 311.91 809.444 311.203 809.644 308.896C809.831 306.616 811.751 306.123 813.751 306.123C818.698 306.123 823.644 306.123 828.591 306.123C828.591 306.216 828.591 306.31 828.591 306.403Z" fill="black"/>
<path d="M257.886 429.962C258.046 424.709 258.619 419.496 260.392 414.549C262.179 409.536 265.392 405.683 271.086 405.123C276.872 404.563 280.819 407.403 283.472 412.443C287.792 420.669 288.806 429.429 287.126 438.376C285.326 447.949 276.152 452.496 267.032 448.843C265.112 448.069 263.992 446.496 262.819 444.976C258.672 439.616 257.726 436.709 257.886 429.962ZM282.672 429.576C282.872 425.229 281.726 419.816 279.046 414.723C277.459 411.696 275.099 409.882 271.672 410.016C268.219 410.149 266.299 412.589 265.219 415.509C263.272 420.736 262.419 426.216 263.032 431.762C263.446 435.482 264.352 439.123 267.046 442.136C270.886 446.402 278.686 445.496 281.299 440.336C282.806 437.349 282.686 434.149 282.672 429.589V429.576Z" fill="black"/>
<path d="M691.485 344.857C692.031 344.217 692.378 343.99 692.498 343.657C695.885 334.124 701.831 325.844 705.791 316.59C706.858 314.097 707.645 311.484 708.805 309.044C709.605 307.35 710.858 305.617 713.085 306.724C715.151 307.75 714.365 309.497 713.818 311.27C709.938 323.75 701.898 334.27 697.311 346.43C696.405 348.817 694.751 350.99 693.165 353.057C691.298 355.47 688.791 355.057 687.405 352.337C687.191 351.91 686.991 351.444 686.911 350.977C685.258 341.377 681.271 332.47 678.738 323.137C677.751 319.51 677.258 315.75 676.592 312.03C676.325 310.537 676.285 308.937 678.085 308.417C680.018 307.844 681.045 309.204 681.445 310.79C682.498 315.017 683.111 319.35 684.378 323.51C686.511 330.524 689.005 337.43 691.498 344.857H691.485Z" fill="black"/>
<path d="M655.724 426.337C655.484 419.617 657.404 413.083 657.458 406.39C657.458 405.243 658.164 404.323 659.391 404.163C660.871 403.963 661.738 404.83 662.271 406.11C663.071 408.017 662.591 409.99 662.284 411.857C661.071 419.337 661.458 426.937 660.431 434.403C659.298 442.643 654.818 447.95 646.378 449.71C640.764 450.883 635.684 448.336 633.484 442.976C631.418 437.937 631.644 432.71 631.964 427.483C632.298 422.177 632.871 416.883 632.951 411.55C632.978 409.803 633.151 408.057 633.738 406.403C634.151 405.23 634.911 404.31 636.324 404.55C637.684 404.79 638.351 405.857 638.191 407.11C637.498 412.617 638.111 418.163 637.511 423.657C637.084 427.63 637.071 431.59 637.191 435.563C637.351 440.816 639.364 444.163 642.618 444.91C646.138 445.723 651.378 442.883 653.538 439.057C655.791 435.07 655.858 430.723 655.711 426.337H655.724Z" fill="black"/>
<path d="M360.539 443.43C361.166 432.603 361.979 421.776 361.646 410.91C361.566 408.47 363.006 406.763 365.139 406.03C370.312 404.256 375.632 403.296 381.139 403.776C381.232 403.776 381.326 403.803 381.432 403.83C382.832 404.176 384.166 404.723 384.006 406.443C383.859 407.976 382.566 408.443 381.232 408.456C377.539 408.483 373.886 408.71 370.232 409.31C367.566 409.75 366.352 410.79 366.539 413.67C366.779 417.43 366.712 421.23 366.566 425.003C366.472 427.31 367.446 428.123 369.606 428.19C372.792 428.283 376.006 427.843 379.166 428.656C380.752 429.056 382.446 429.483 382.072 431.523C381.699 433.536 379.939 433.336 378.326 433.243C374.846 433.043 371.366 433.016 367.886 432.816C366.579 432.736 366.112 433.256 366.099 434.456C366.072 437.656 365.419 440.803 365.472 444.016C365.512 446.31 366.179 447.35 368.632 447.376C372.112 447.416 375.592 447.763 379.072 448.016C379.739 448.07 380.419 448.203 381.059 448.416C382.272 448.843 383.059 449.67 382.846 451.043C382.659 452.27 381.752 452.883 380.579 452.923C374.939 453.096 369.352 452.443 363.792 451.71C361.739 451.443 360.646 449.896 360.566 447.79C360.512 446.336 360.566 444.883 360.566 443.43H360.539Z" fill="black"/>
<path d="M717.911 345.869C718.498 335.043 719.351 324.216 719.004 313.35C718.911 310.483 720.671 308.763 723.138 308.03C727.884 306.616 732.738 305.643 737.751 306.003C739.418 306.123 741.391 306.376 741.324 308.55C741.258 310.803 739.245 310.79 737.578 310.763C734.165 310.696 730.818 311.096 727.458 311.616C724.924 312.003 723.725 313.003 723.885 315.776C724.111 319.643 724.031 323.523 723.911 327.403C723.845 329.55 724.751 330.376 726.791 330.456C730.071 330.59 733.391 330.11 736.644 330.963C738.138 331.35 739.698 331.79 739.471 333.643C739.218 335.696 737.484 335.803 735.858 335.51C732.298 334.856 728.684 335.71 725.124 335.11C723.991 334.923 723.498 335.496 723.471 336.563C723.391 340.043 722.685 343.483 722.858 347.003C722.951 348.87 723.751 349.549 725.538 349.616C729.018 349.763 732.498 350.016 735.978 350.269C736.844 350.336 737.724 350.47 738.538 350.736C739.644 351.096 740.351 351.91 740.245 353.15C740.138 354.39 739.298 355.123 738.124 355.163C732.298 355.376 726.511 354.776 720.764 353.856C718.991 353.576 718.031 352.056 717.938 350.229C717.858 348.776 717.925 347.323 717.925 345.869H717.911Z" fill="black"/>
<path d="M518.285 441.776C518.885 430.949 519.725 420.123 519.392 409.256C519.299 406.389 521.125 404.696 523.592 403.976C528.339 402.589 533.205 401.589 538.219 401.989C539.899 402.123 541.819 402.403 541.712 404.603C541.619 406.656 539.765 406.789 538.179 406.736C534.472 406.643 530.832 407.056 527.192 407.723C525.152 408.096 524.192 409.029 524.272 411.243C524.418 415.309 524.392 419.389 524.272 423.456C524.205 425.656 525.232 426.349 527.219 426.429C530.405 426.563 533.618 426.096 536.778 426.882C538.352 427.282 540.085 427.656 539.805 429.669C539.512 431.696 537.765 431.589 536.125 431.496C532.552 431.296 528.965 431.216 525.392 431.043C524.219 430.989 523.819 431.563 523.805 432.589C523.739 435.976 523.045 439.323 523.192 442.736C523.272 444.683 523.978 445.509 525.952 445.576C529.432 445.696 532.912 445.976 536.392 446.229C537.245 446.296 538.138 446.443 538.938 446.723C540.032 447.109 540.712 447.949 540.565 449.176C540.405 450.416 539.552 451.083 538.379 451.123C532.645 451.349 526.965 450.656 521.299 449.869C519.379 449.602 518.352 448.069 518.272 446.096C518.205 444.643 518.272 443.189 518.272 441.736L518.285 441.776Z" fill="black"/>
<path d="M986.177 415.71C986.177 413.67 986.177 411.643 986.177 409.603C986.19 406.083 987.47 404.123 990.897 403.217C995.297 402.057 999.777 401.07 1004.39 401.377C1006.22 401.497 1008.55 401.47 1008.5 403.977C1008.44 406.377 1006.18 406.204 1004.46 406.164C1001.04 406.084 997.697 406.537 994.337 407.084C992.057 407.457 990.963 408.403 991.083 410.91C991.27 414.87 991.217 418.857 991.097 422.83C991.03 424.99 991.977 425.777 994.003 425.857C997.283 425.977 1000.6 425.51 1003.86 426.363C1005.35 426.75 1006.91 427.217 1006.66 429.07C1006.38 431.11 1004.64 431.203 1003.03 430.91C999.47 430.257 995.857 431.11 992.297 430.51C991.15 430.324 990.683 430.937 990.67 431.99C990.617 435.377 989.937 438.724 990.043 442.137C990.11 444.31 991.017 444.977 993.057 445.043C996.537 445.15 1000.02 445.443 1003.5 445.697C1004.26 445.75 1005.04 445.91 1005.76 446.164C1006.86 446.55 1007.56 447.363 1007.43 448.59C1007.3 449.83 1006.47 450.537 1005.28 450.577C999.457 450.777 993.657 450.23 987.937 449.243C985.737 448.857 985.003 446.883 985.097 444.737C985.363 438.257 985.537 431.763 985.963 425.297C986.177 422.097 986.297 418.91 986.19 415.71H986.177Z" fill="black"/>
<path d="M646.325 344.736C646.925 333.803 647.724 322.896 647.444 311.923C647.364 309.07 649.338 307.457 651.805 306.763C656.471 305.457 661.231 304.457 666.151 304.83C667.818 304.963 669.791 305.177 669.751 307.35C669.711 309.603 667.698 309.63 666.045 309.59C662.338 309.496 658.698 309.936 655.058 310.616C653.111 310.976 652.271 311.923 652.325 313.99C652.445 318.15 652.418 322.323 652.325 326.497C652.285 328.577 653.338 329.19 655.165 329.283C658.445 329.443 661.765 328.937 665.018 329.79C666.605 330.203 668.258 330.67 667.818 332.723C667.431 334.55 665.804 334.63 664.284 334.35C660.724 333.683 657.111 334.55 653.551 333.95C652.445 333.763 651.898 334.283 651.871 335.376C651.791 338.856 651.085 342.297 651.258 345.817C651.351 347.657 652.098 348.39 653.898 348.47C657.378 348.617 660.858 348.87 664.338 349.137C665.284 349.203 666.271 349.39 667.164 349.71C668.151 350.07 668.738 350.883 668.631 351.976C668.524 353.216 667.711 353.963 666.538 354.016C660.711 354.256 654.925 353.616 649.178 352.723C647.405 352.443 646.431 350.95 646.325 349.11C646.245 347.657 646.311 346.203 646.311 344.75L646.325 344.736Z" fill="black"/>
<path d="M603.565 328.123C605.138 328.003 607.445 328.163 609.725 328.763C611.045 329.11 612.191 329.776 612.005 331.31C611.805 333.016 610.418 333.51 608.965 333.23C605.298 332.55 601.591 333.336 597.938 332.803C596.765 332.63 596.018 332.91 595.991 334.23C595.911 337.71 595.205 341.15 595.391 344.67C595.485 346.536 596.271 347.216 598.058 347.296C601.538 347.443 605.018 347.696 608.498 347.95C609.365 348.016 610.245 348.15 611.058 348.416C612.165 348.776 612.871 349.59 612.765 350.816C612.658 352.056 611.831 352.79 610.645 352.83C604.818 353.056 599.018 352.496 593.298 351.51C590.938 351.11 590.325 348.976 590.418 346.736C590.658 341.03 590.685 335.296 591.165 329.616C591.671 323.71 591.538 317.803 591.538 311.896C591.538 308.443 592.711 306.51 595.951 305.59C600.618 304.27 605.378 303.283 610.298 303.67C611.965 303.803 613.938 304.03 613.871 306.216C613.805 308.47 611.791 308.47 610.138 308.443C606.725 308.377 603.378 308.776 600.018 309.296C597.498 309.683 596.271 310.67 596.431 313.457C596.658 317.217 596.631 321.017 596.458 324.79C596.351 327.216 597.285 328.217 599.618 328.137C600.685 328.097 601.751 328.137 603.591 328.137L603.565 328.123Z" fill="black"/>
<path d="M1021.55 403.816C1029.2 403.816 1036.84 403.816 1044.5 403.816C1046.27 403.816 1047.96 404.19 1048.04 406.35C1048.12 408.47 1046.32 408.83 1044.79 408.87C1041.6 408.95 1038.42 408.803 1035.23 408.67C1033.32 408.59 1032.5 409.216 1032.39 411.296C1031.95 419.99 1031.27 428.683 1030.82 437.376C1030.7 439.776 1031.1 442.203 1031.18 444.616C1031.24 446.589 1031.24 448.91 1028.64 449.083C1025.83 449.27 1025.62 446.79 1025.48 444.763C1025.03 438.27 1025.52 431.803 1026.11 425.323C1026.52 420.696 1026.75 416.056 1027.08 411.43C1027.22 409.496 1026.48 408.563 1024.42 408.616C1021.12 408.696 1017.83 408.656 1014.52 408.616C1012.68 408.59 1010.72 408.256 1010.74 405.963C1010.75 403.656 1012.76 403.416 1014.58 403.376C1016.9 403.323 1019.23 403.363 1021.55 403.363C1021.55 403.51 1021.55 403.67 1021.55 403.816Z" fill="black"/>
<path d="M761.858 423.669C761.911 430.376 760.951 436.723 761.325 443.136C761.471 445.523 761.911 446.629 764.391 446.296C769.911 445.536 775.418 446.349 780.925 446.376C781.405 446.376 781.898 446.349 782.378 446.416C784.351 446.696 787.005 446.509 786.885 449.336C786.765 452.082 784.325 451.922 782.218 451.909C775.245 451.842 768.284 451.349 761.298 452.096C757.058 452.549 755.378 450.442 755.405 446.562C755.485 434.962 756.645 423.389 756.418 411.776C756.378 410.043 756.365 408.282 756.578 406.562C756.778 404.962 757.471 403.389 759.431 403.509C761.404 403.643 761.685 405.269 761.858 406.909C762.458 412.616 761.645 418.309 761.858 423.683V423.669Z" fill="black"/>
<path d="M811.551 451.949C807.671 451.576 803.791 451.669 799.925 452.056C794.671 452.589 793.431 450.629 793.365 445.322C793.245 434.082 794.685 422.909 794.245 411.683C794.165 409.749 794.005 407.789 794.538 405.896C794.938 404.496 795.698 403.309 797.351 403.483C798.991 403.643 799.564 404.936 799.644 406.389C800.084 415.003 799.978 423.616 799.218 432.189C798.845 436.376 799.578 440.496 799.245 444.669C799.085 446.562 800.805 446.402 802.005 446.269C807.631 445.616 813.231 446.309 818.844 446.376C819.618 446.376 820.404 446.376 821.164 446.496C822.924 446.776 824.938 447.069 824.764 449.416C824.591 451.643 822.698 451.949 820.844 451.949C817.751 451.949 814.645 451.949 811.551 451.949Z" fill="black"/>
<path d="M1097.92 406.149C1105.56 406.149 1113.2 406.149 1120.84 406.149C1122.4 406.149 1123.92 406.536 1124.11 408.336C1124.31 410.363 1122.71 410.829 1121.1 411.149C1118.19 411.736 1115.31 410.936 1112.42 410.923C1109.76 410.923 1108.71 411.549 1108.66 414.456C1108.48 425.283 1106.87 436.056 1107.47 446.909C1107.56 448.576 1107.11 450.176 1105.1 450.269C1103.06 450.362 1102.34 448.976 1102.08 447.109C1101.19 440.723 1102.06 434.363 1102.36 428.003C1102.58 423.376 1102.96 418.749 1103.36 414.123C1103.58 411.696 1102.55 410.829 1100.18 410.923C1097.18 411.043 1094.18 410.976 1091.18 410.923C1089.42 410.896 1087.68 410.429 1087.71 408.283C1087.74 406.109 1089.52 405.763 1091.26 405.709C1093.48 405.643 1095.71 405.696 1097.94 405.696C1097.94 405.843 1097.94 405.989 1097.94 406.136L1097.92 406.149Z" fill="black"/>
<path d="M870.151 400.923C872.191 400.83 874.031 400.67 875.871 400.67C877.351 400.67 879.057 400.79 879.151 402.723C879.244 404.643 877.537 404.937 876.071 405.083C873.471 405.337 870.857 405.47 868.244 405.643C867.671 405.683 867.084 405.643 866.497 405.683C857.031 406.417 858.204 406.163 857.817 413.83C857.671 416.737 857.577 419.643 857.271 422.523C857.004 425.017 857.897 426.043 860.457 426.057C863.844 426.07 867.231 426.35 870.604 426.59C871.644 426.67 872.711 426.896 873.697 427.256C874.564 427.576 875.057 428.35 874.951 429.337C874.844 430.337 874.151 430.91 873.231 431.057C872.284 431.203 871.297 431.217 870.337 431.163C866.564 430.95 862.791 430.75 859.031 430.417C857.271 430.257 856.817 431.083 856.804 432.59C856.777 436.083 856.857 439.577 856.564 443.043C856.391 445.217 856.511 448.497 853.258 448.137C850.111 447.777 851.631 444.87 851.697 442.896C851.924 435.63 852.071 428.377 852.391 421.123C852.604 416.097 852.671 411.057 853.591 406.083C854.164 402.99 855.937 401.683 859.031 401.59C862.804 401.483 866.537 400.59 870.137 400.91L870.151 400.923Z" fill="black"/>
<path d="M302.405 406.47C308.205 406.47 314.018 406.47 319.818 406.47C321.392 406.47 322.898 406.843 323.098 408.617C323.312 410.523 321.698 410.937 320.232 411.23C317.139 411.843 314.072 410.883 310.965 410.99C308.858 411.057 307.818 411.457 307.832 413.897C307.858 424.723 305.938 435.497 306.632 446.363C306.738 448.017 306.365 449.67 304.352 449.79C302.392 449.91 301.752 448.323 301.552 446.697C300.765 440.217 301.552 433.75 302.005 427.283C302.312 422.843 302.605 418.403 302.978 413.977C303.178 411.657 302.139 410.897 299.912 410.977C296.912 411.083 293.912 411.03 290.912 410.977C289.179 410.95 287.339 410.63 287.379 408.443C287.432 406.163 289.405 406.217 291.072 406.203C294.845 406.177 298.632 406.203 302.405 406.203C302.405 406.297 302.405 406.39 302.405 406.484V406.47Z" fill="black"/>
<path d="M564.951 308.736C570.751 308.736 576.565 308.736 582.364 308.736C583.938 308.736 585.418 309.15 585.604 310.936C585.791 312.67 584.351 313.136 582.964 313.443C579.778 314.15 576.618 313.136 573.418 313.243C571.245 313.31 570.338 313.83 570.338 316.203C570.338 327.03 568.444 337.803 569.138 348.67C569.244 350.323 568.831 351.963 566.804 352.043C564.844 352.11 564.231 350.523 564.045 348.896C563.285 342.403 564.071 335.95 564.511 329.483C564.818 325.043 565.124 320.603 565.471 316.177C565.631 314.083 564.831 313.163 562.658 313.243C559.565 313.35 556.458 313.296 553.365 313.243C551.631 313.216 549.818 312.843 549.885 310.656C549.938 308.576 551.751 308.483 553.351 308.47C557.231 308.443 561.098 308.47 564.978 308.47C564.978 308.563 564.978 308.656 564.978 308.75L564.951 308.736Z" fill="black"/>
<path d="M583.978 422.643C585.511 419.856 586.685 417.883 587.725 415.843C590.085 411.23 593.178 407.163 596.618 403.323C597.738 402.07 599.045 400.616 600.765 402.136C602.285 403.483 601.325 405.056 600.218 406.216C594.045 412.709 590.805 421.056 586.005 428.416C585.165 429.696 585.365 431.23 585.365 432.67C585.351 437.123 585.365 441.576 585.365 446.043C585.365 447.563 585.285 449.189 583.285 449.243C581.298 449.283 580.671 447.763 580.658 446.083C580.605 441.816 580.178 437.496 580.778 433.31C581.511 428.19 579.618 423.79 578.005 419.336C576.351 414.776 575.751 409.91 573.618 405.51C573.058 404.336 573.378 403.15 574.631 402.55C575.925 401.923 576.898 402.616 577.592 403.656C579.298 406.203 579.872 409.176 580.712 412.056C581.672 415.283 582.685 418.496 583.965 422.643H583.978Z" fill="black"/>
<path d="M1069.59 450.456C1068.84 450.456 1068.36 450.456 1067.88 450.456C1066.07 450.496 1064.14 450.429 1063.7 448.255C1063.27 446.175 1064.92 445.389 1066.59 444.922C1068.14 444.495 1068.38 443.389 1068.42 442.029C1068.51 438.269 1068.79 434.509 1068.78 430.749C1068.74 424.336 1070 418.042 1070.27 411.656C1070.34 410.162 1070.19 409.282 1068.47 409.082C1067.04 408.922 1065.78 408.162 1065.92 406.469C1066.06 404.816 1067.4 404.256 1068.83 404.149C1073.1 403.816 1077.34 404.362 1081.58 404.669C1083.02 404.776 1084.14 405.802 1083.94 407.456C1083.72 409.109 1082.4 409.549 1080.94 409.602C1080.46 409.616 1079.98 409.509 1079.5 409.469C1076.24 409.216 1075.74 409.682 1075.51 412.829C1075.04 419.002 1074.44 425.162 1074.06 431.336C1073.82 434.989 1073.9 438.669 1073.78 442.336C1073.74 443.722 1074.34 444.456 1075.67 444.829C1077.27 445.296 1078.59 446.202 1078.28 448.109C1077.98 450.016 1076.35 449.962 1074.87 450.042C1073.03 450.149 1071.2 450.309 1069.62 450.442L1069.59 450.456Z" fill="black"/>
<path d="M269.966 313.43C269.326 320.47 268.953 327.523 267.939 334.523C267.393 338.243 267.406 342.043 267.126 345.817C266.993 347.617 268.059 347.976 269.499 347.896C275.246 347.576 280.899 348.63 286.579 349.203C287.059 349.256 287.539 349.297 288.019 349.39C289.526 349.683 291.033 350.15 290.846 352.043C290.646 354.03 289.006 354.496 287.379 354.31C280.153 353.496 272.939 352.87 265.659 352.723C262.006 352.643 261.113 350.87 261.539 347.283C262.473 339.416 263.219 331.523 263.979 323.643C264.393 319.403 264.673 315.15 265.046 310.91C265.113 310.15 265.273 309.377 265.513 308.643C265.886 307.523 266.699 306.83 267.913 306.937C269.153 307.043 269.846 307.91 269.939 309.057C270.059 310.497 269.966 311.95 269.966 313.403V313.43Z" fill="black"/>
<path d="M790.698 327.016C793.844 321.243 796.711 315.31 801.138 310.35C801.658 309.776 802.111 309.136 802.644 308.576C803.831 307.35 805.018 305.457 806.924 307.137C808.631 308.643 807.191 310.123 806.191 311.43C804.551 313.59 802.858 315.696 801.231 317.87C797.578 322.79 795.578 328.656 792.018 333.643C791.151 334.856 791.444 336.456 791.431 337.896C791.431 342.15 791.431 346.403 791.431 350.656C791.431 352.23 791.524 354.123 789.391 354.176C787.271 354.23 786.631 352.283 786.804 350.643C787.311 345.71 786.884 340.79 787.111 335.87C787.204 333.896 786.964 332.096 786.311 330.203C784.071 323.71 782.044 317.15 779.938 310.616C779.578 309.496 779.658 308.457 780.738 307.803C782.004 307.057 782.965 307.75 783.751 308.71C784.738 309.936 785.231 311.403 785.671 312.91C787.044 317.616 788.458 322.296 789.858 326.99C790.124 326.99 790.404 326.99 790.671 326.99L790.698 327.016Z" fill="black"/>
<path d="M376.219 326.39C378.112 323.03 379.979 319.657 381.912 316.323C383.765 313.123 386.178 310.337 388.605 307.563C389.658 306.363 390.912 305.083 392.512 306.523C394.072 307.937 393.032 309.443 391.952 310.577C385.805 317.083 382.525 325.403 377.725 332.763C376.832 334.137 377.032 335.75 377.019 337.297C377.019 341.55 377.019 345.803 377.019 350.057C377.019 351.63 377.125 353.523 374.992 353.59C372.859 353.656 372.232 351.71 372.392 350.07C372.899 345.137 372.472 340.216 372.699 335.297C372.792 333.337 372.565 331.523 371.912 329.63C369.672 323.137 367.645 316.577 365.525 310.043C365.165 308.923 365.232 307.883 366.312 307.23C367.579 306.47 368.539 307.15 369.325 308.123C370.312 309.35 370.805 310.817 371.245 312.31C372.619 317.017 374.032 321.697 375.432 326.39C375.685 326.39 375.939 326.377 376.192 326.363L376.219 326.39Z" fill="black"/>
<path d="M471.298 431.07C471.325 434.75 471.205 438.417 470.832 442.07C470.658 443.777 470.938 445.07 472.965 445.523C474.485 445.87 475.645 446.883 475.338 448.643C475.005 450.536 473.432 450.523 471.938 450.576C469.618 450.656 467.298 450.803 464.992 450.923C463.272 451.016 461.485 450.95 460.952 448.963C460.378 446.883 461.872 446.003 463.618 445.563C465.765 445.016 465.712 443.23 465.805 441.63C466.165 435.736 465.738 429.83 466.445 423.95C466.898 420.203 467.218 416.443 467.618 412.697C467.792 411.07 467.525 409.87 465.552 409.59C464.232 409.403 463.059 408.683 463.219 407.123C463.392 405.483 464.672 404.896 466.152 404.896C469.925 404.896 473.712 404.91 477.472 405.097C479.258 405.19 481.245 405.737 481.018 408.043C480.805 410.217 478.885 410.15 477.165 410.043C473.085 409.777 472.739 410.11 472.579 414.283C472.379 419.883 470.792 425.39 471.325 431.057L471.298 431.07Z" fill="black"/>
<path d="M743.684 430.483C743.724 434.163 743.604 437.83 743.231 441.497C743.057 443.19 743.311 444.51 745.351 444.963C746.871 445.296 748.031 446.323 747.737 448.083C747.417 449.977 745.844 449.976 744.337 450.03C742.017 450.11 739.697 450.243 737.391 450.377C735.671 450.47 733.884 450.403 733.337 448.43C732.764 446.35 734.244 445.47 735.991 445.03C738.151 444.497 738.097 442.71 738.191 441.097C738.537 435.11 738.137 429.097 738.844 423.123C739.271 419.47 739.604 415.817 739.991 412.163C740.164 410.55 739.911 409.323 737.924 409.057C736.617 408.87 735.417 408.163 735.577 406.603C735.737 404.963 737.017 404.363 738.497 404.363C742.364 404.377 746.244 404.403 750.111 404.603C751.804 404.697 753.617 405.363 753.377 407.497C753.137 409.683 751.257 409.617 749.537 409.51C745.444 409.243 745.111 409.563 744.937 413.737C744.711 419.337 743.204 424.843 743.671 430.497L743.684 430.483Z" fill="black"/>
<path d="M535.872 333.31C535.952 337.083 535.765 340.843 535.419 344.603C535.259 346.27 535.699 347.363 537.525 347.79C539.045 348.15 540.219 349.123 539.939 350.896C539.645 352.79 538.072 352.816 536.565 352.87C534.059 352.963 531.539 353.163 529.032 353.243C527.392 353.296 525.805 352.936 525.459 351.03C525.139 349.257 526.325 348.296 527.872 347.976C530.192 347.496 530.285 345.736 530.379 343.976C530.712 337.99 530.325 331.977 531.019 326.003C531.459 322.257 531.779 318.497 532.179 314.75C532.352 313.163 531.899 312.176 530.139 311.91C528.832 311.71 527.632 311.043 527.752 309.47C527.885 307.817 529.165 307.203 530.645 307.203C534.512 307.203 538.392 307.297 542.259 307.43C542.992 307.457 543.779 307.777 544.432 308.15C545.325 308.657 545.805 309.523 545.565 310.603C545.352 311.55 544.672 312.163 543.752 312.256C542.712 312.376 541.632 312.336 540.579 312.23C538.419 312.03 537.192 312.87 537.179 315.097C537.125 321.203 535.352 327.177 535.845 333.31H535.872Z" fill="black"/>
<path d="M905.457 333.283C905.55 337.056 905.377 340.83 905.017 344.576C904.857 346.216 905.244 347.35 907.097 347.777C908.617 348.123 909.804 349.097 909.55 350.857C909.27 352.75 907.71 352.803 906.204 352.857C903.79 352.95 901.377 353.11 898.964 353.216C897.23 353.283 895.484 353.083 895.084 351.03C894.71 349.096 896.097 348.256 897.737 347.87C899.897 347.363 899.897 345.603 899.99 343.976C900.337 337.99 899.937 331.976 900.644 326.003C901.084 322.257 901.404 318.497 901.804 314.75C901.977 313.177 901.564 312.176 899.79 311.883C898.377 311.656 897.097 310.937 897.43 309.19C897.737 307.577 899.097 307.15 900.537 307.163C904.124 307.177 907.697 307.243 911.284 307.323C911.95 307.337 912.63 307.497 913.27 307.723C914.577 308.177 915.484 309.043 915.19 310.55C914.924 311.91 913.79 312.297 912.564 312.403C910.817 312.563 908.737 311.31 907.404 313.15C906.27 314.71 906.91 316.723 906.684 318.536C906.07 323.43 905.217 328.31 905.484 333.27L905.457 333.283Z" fill="black"/>
<path d="M1171.24 358.082C1170.34 357.989 1169.12 357.895 1168.95 356.562C1168.76 355.229 1170.06 355.296 1170.87 354.856C1171.95 354.269 1175.79 354.575 1172 351.882C1170.67 350.936 1171.24 349.402 1172.3 348.309C1173.99 346.562 1176.62 346.349 1178.02 347.856C1179.32 349.269 1179.55 350.989 1178.98 352.749C1178.23 355.016 1173.79 358.082 1171.26 358.082H1171.24Z" fill="black"/>
<path d="M1128.83 440.856C1131.08 440.803 1133.71 443.23 1133.59 445.483C1133.47 447.776 1131.7 448.496 1129.76 448.71C1127.87 448.91 1125.32 446.496 1125.22 444.589C1125.11 442.589 1126.74 440.91 1128.83 440.856Z" fill="black"/>
<path d="M1145.18 449.003C1143.14 449.003 1141.7 447.31 1141.67 444.83C1141.64 442.723 1143.46 440.91 1145.54 440.95C1147.52 440.99 1149.78 443.123 1149.83 445.003C1149.88 446.803 1147.34 448.99 1145.18 449.003Z" fill="black"/>
<path d="M1164.04 448.723C1161.91 448.763 1158.84 446.576 1158.86 445.163C1158.88 443.109 1160.72 441.269 1162.76 441.229C1165.15 441.189 1167.11 443.203 1167.08 445.723C1167.06 447.829 1165.56 448.429 1164.03 448.723H1164.04Z" fill="black"/>
</svg>
