<svg width="1334" height="989" viewBox="0 0 1334 989" fill="none" xmlns="http://www.w3.org/2000/svg">
<path d="M2.24336 375.486C3.80288 323.853 7.47673 272.415 20.5677 223.765C39.1919 154.567 70.3522 98.6022 115.338 59.2145C140.86 36.8678 169.216 26.8859 199.042 21.7751C243.383 14.1763 287.86 13.0972 332.366 12.3928C376.482 11.7034 420.568 12.2427 464.67 15.9597C483.114 17.5184 501.648 18.9723 520.182 19.437C565.288 20.546 610.379 22.9889 655.485 23.3786C706.979 23.8282 758.503 23.6786 809.967 21.8351C847.8 20.4862 885.499 14.7308 923.047 7.86647C938.822 4.98882 954.642 2.84541 970.522 2.45573C994.755 1.87121 1018.99 1.84119 1043.22 2.41072C1078.41 3.23505 1113.41 7.04227 1148.28 14.746C1176.45 20.9659 1202.65 33.1959 1225.94 56.3219C1250.98 81.1866 1273.56 109.154 1286.71 149.785C1299.3 188.648 1309.07 228.561 1314.89 270.467C1317.99 292.768 1323.51 314.785 1324.38 337.207C1325.21 358.55 1328.46 379.577 1328.01 401.01C1327.49 425.185 1331.66 449.166 1329.93 473.356C1328.19 497.981 1328.75 522.65 1324.41 547.305C1318.67 579.993 1307.59 605.847 1289.83 628.374C1262.2 663.415 1229.49 676.23 1193.68 677.519C1170.23 678.358 1146.76 677.833 1123.29 677.668L1275.17 935.757L1332 987C1316.99 979.057 1302.79 966.512 1285.53 971.248C1283.33 971.848 1280.69 971.038 1278.51 969.884C1263.65 962.031 1248.19 955.736 1234.19 945.514C1190.71 913.815 1148.14 879.793 1105.71 845.396C1063.81 811.434 1025.3 770.263 983.748 735.611C965.679 720.548 953.008 696.193 939.782 674.176C939.647 673.952 939.512 673.711 939.362 673.472L938.192 673.427C926.841 681.955 914.59 677.488 902.863 677.219C891.452 676.964 880.011 675.195 868.524 674.746C814.676 672.647 760.813 672.932 706.964 671.479C662.503 670.28 618.102 664.315 573.671 660.702C552.482 658.979 531.279 657.12 510.061 656.551C472.377 655.532 434.634 653.718 396.981 655.397C343.792 657.78 290.619 657.6 237.43 657.84C195.668 658.019 155.226 648.727 115.128 631.446C69.7374 611.887 37.6623 572.784 16.324 514.497C9.17121 494.953 7.52172 473.25 5.39238 452.043C2.85817 426.729 1.43361 401.1 2.21337 375.471L2.24336 375.486Z" fill="white" stroke="black" stroke-width="3.99999" stroke-linecap="round" stroke-linejoin="round"/>
<path d="M965.724 332.83C966.764 326.79 967.684 320.936 967.004 314.843C966.404 309.39 966.871 303.816 966.897 298.296C966.897 297.723 967.057 297.136 967.257 296.603C967.884 294.99 969.017 293.976 970.817 294.309C972.711 294.656 973.151 296.096 973.057 297.83C972.711 304.123 972.684 310.389 973.257 316.683C973.964 324.456 972.751 332.149 971.351 339.776C971.217 340.536 970.937 341.269 970.617 341.976C969.844 343.643 968.724 344.949 966.697 344.949C964.817 344.949 963.657 343.843 962.897 342.256C961.057 338.403 959.444 334.456 958.404 330.309C956.711 323.576 953.071 317.736 949.431 311.669C949.431 314.709 949.324 317.75 949.457 320.776C949.751 327.869 949.217 334.91 948.257 341.923C948.004 343.75 947.284 345.203 945.231 345.136C943.177 345.069 942.497 343.563 942.377 341.749C942.324 340.883 942.271 339.989 942.404 339.136C944.297 327.203 943.044 315.163 943.444 303.19C943.497 301.55 943.337 299.896 943.924 298.296C944.497 296.736 945.417 295.523 947.204 295.403C949.017 295.283 950.017 296.403 950.697 297.936C952.644 302.363 954.404 306.883 956.604 311.19C960.164 318.163 963.657 325.15 965.724 332.816V332.83Z" fill="black"/>
<path d="M494.618 317.963C492.778 324.51 489.752 330.55 487.138 336.776C486.618 338.03 486.112 339.296 485.138 340.283C482.312 343.15 478.245 342.43 476.632 338.776C475.912 337.163 475.618 335.47 475.565 333.696C475.298 323.83 475.912 313.95 475.098 304.083C474.965 302.43 475.178 300.79 475.685 299.203C476.005 298.217 476.618 297.457 477.738 297.43C478.965 297.417 479.765 298.163 480.018 299.296C480.232 300.23 480.258 301.217 480.272 302.177C480.472 312.537 480.072 322.897 480.845 333.243C480.898 333.897 481.005 334.55 481.085 335.217C482.192 335.283 482.192 334.417 482.432 333.87C486.978 323.817 491.045 313.563 494.365 303.03C494.872 301.443 495.738 300.07 497.632 300.403C499.472 300.723 499.485 302.31 499.578 303.83C499.978 310.59 500.365 317.35 500.872 324.11C501.058 326.576 501.512 329.043 502.752 331.537C503.858 330.403 503.938 329.136 504.192 327.95C505.992 319.63 507.325 311.203 509.792 303.03C510.045 302.203 510.258 301.337 510.672 300.577C511.258 299.523 512.285 299.23 513.432 299.47C514.512 299.697 515.125 300.443 515.205 301.51C515.272 302.363 515.285 303.283 515.058 304.097C512.712 312.403 511.178 320.883 509.618 329.363C508.992 332.75 507.325 335.723 505.938 338.803C505.232 340.363 504.058 341.31 502.325 341.243C500.458 341.177 499.272 340.07 498.738 338.336C497.085 332.963 495.605 327.55 495.405 321.883C495.365 320.63 495.405 319.39 495.405 318.137C495.138 318.07 494.885 318.003 494.618 317.95V317.963Z" fill="black"/>
<path d="M469.512 432.269C470.712 431.029 470.779 429.763 471.045 428.576C472.845 420.256 474.179 411.829 476.645 403.656C476.899 402.829 477.112 401.949 477.525 401.203C478.112 400.149 479.139 399.869 480.285 400.109C481.365 400.336 481.965 401.096 482.045 402.149C482.112 403.003 482.125 403.923 481.899 404.736C479.552 413.043 478.019 421.523 476.459 429.989C475.845 433.269 474.232 436.163 472.899 439.176C472.165 440.843 471.032 441.936 469.152 441.869C467.139 441.803 466.005 440.509 465.472 438.683C463.912 433.389 462.419 428.069 462.259 422.496C462.219 421.243 462.259 420.003 462.259 418.696C461.059 418.776 461.125 419.643 460.965 420.176C459.165 426.443 456.032 432.176 453.645 438.203C453.099 439.576 452.339 440.789 451.085 441.656C448.272 443.589 445.032 442.736 443.579 439.642C442.739 437.856 442.445 435.976 442.392 434.003C442.125 424.323 442.765 414.643 441.939 404.963C441.792 403.216 441.979 401.469 442.525 399.789C442.845 398.803 443.459 398.043 444.579 398.029C445.805 398.029 446.592 398.776 446.859 399.896C447.072 400.829 447.099 401.816 447.112 402.776C447.312 413.136 446.912 423.496 447.685 433.843C447.739 434.496 447.845 435.149 447.925 435.803C449.032 435.856 449.019 434.989 449.272 434.443C453.819 424.389 457.872 414.136 461.205 403.603C461.712 402.003 462.592 400.643 464.485 400.989C466.312 401.309 466.339 402.909 466.419 404.416C466.819 411.176 467.205 417.936 467.712 424.696C467.899 427.163 468.445 429.603 469.512 432.203V432.269Z" fill="black"/>
<path d="M732.671 415.736C730.871 422.309 727.778 428.349 725.191 434.603C724.591 436.043 723.978 437.456 722.724 438.483C719.898 440.789 716.311 439.976 714.791 436.696C713.964 434.909 713.684 433.016 713.631 431.056C713.378 421.376 713.978 411.696 713.191 402.016C713.071 400.589 713.338 399.123 713.564 397.696C713.764 396.389 714.311 395.149 715.898 395.203C717.578 395.256 718.231 396.536 718.284 397.989C718.418 401.763 718.524 405.549 718.444 409.323C718.284 416.683 718.524 424.043 718.924 431.389C718.951 431.936 718.818 432.563 719.671 433.203C721.871 428.563 724.271 424.096 725.791 419.256C727.791 412.883 731.071 406.976 732.591 400.429C732.951 398.896 734.071 397.803 735.804 398.176C737.458 398.536 737.578 399.976 737.658 401.389C738.044 408.056 738.431 414.723 738.897 421.376C739.084 423.976 739.631 426.523 740.684 429.203C742.044 428.323 741.991 427.003 742.244 425.883C744.084 417.469 745.417 408.949 747.911 400.683C748.137 399.949 748.324 399.176 748.657 398.496C749.191 397.416 750.164 397.029 751.337 397.203C752.564 397.376 753.257 398.189 753.297 399.376C753.337 400.416 753.244 401.523 752.964 402.523C750.817 410.283 749.311 418.176 747.937 426.083C747.297 429.776 745.644 433.056 744.111 436.403C743.351 438.069 742.177 439.109 740.311 439.016C738.444 438.909 737.311 437.749 736.778 436.029C735.124 430.563 733.604 425.056 733.484 419.283C733.458 418.149 733.484 417.016 733.484 415.869C733.218 415.843 732.951 415.803 732.671 415.776V415.736Z" fill="black"/>
<path d="M1129.62 319.15C1127.82 325.724 1124.72 331.764 1122.14 338.017C1121.54 339.457 1120.94 340.87 1119.68 341.897C1116.86 344.204 1113.27 343.417 1111.74 340.137C1110.91 338.35 1110.63 336.457 1110.58 334.497C1110.32 324.817 1110.94 315.137 1110.14 305.457C1110.04 304.31 1110.16 303.124 1110.35 301.99C1110.59 300.47 1110.76 298.59 1112.83 298.644C1115.02 298.697 1115.26 300.537 1115.3 302.257C1115.36 305.844 1115.48 309.43 1115.39 313.004C1115.22 320.27 1115.5 327.524 1115.87 334.777C1115.9 335.324 1115.78 335.95 1116.62 336.644C1118.96 331.524 1121.5 326.617 1123.2 321.31C1125.14 315.324 1128.12 309.724 1129.64 303.591C1129.99 302.177 1131.15 301.231 1132.74 301.577C1134.39 301.937 1134.52 303.364 1134.6 304.79C1134.99 311.457 1135.36 318.124 1135.84 324.777C1136.04 327.417 1136.46 330.071 1137.76 332.591C1138.99 331.537 1138.96 330.217 1139.22 329.03C1141.06 320.617 1142.42 312.097 1144.88 303.831C1145.44 301.951 1146.06 300.044 1148.51 300.71C1150.8 301.324 1150.55 303.404 1150.1 305.07C1147.72 313.67 1146.18 322.444 1144.47 331.177C1143.87 334.257 1142.28 336.964 1141.03 339.79C1140.3 341.457 1139.11 342.51 1137.26 342.417C1135.39 342.324 1134.24 341.164 1133.72 339.444C1132.07 333.977 1130.54 328.47 1130.42 322.697C1130.39 321.55 1130.42 320.417 1130.42 319.271C1130.15 319.231 1129.88 319.204 1129.62 319.164V319.15Z" fill="black"/>
<path d="M966.71 420.069C966.977 411.349 968.79 404.242 974.004 398.336C976.737 395.242 980.044 393.349 984.204 392.723C995.097 391.096 1003.19 396.763 1005.07 407.509C1005.43 409.603 1005.23 411.656 1002.8 412.123C1000.54 412.563 999.964 410.616 999.497 408.869C999.23 407.843 999.084 406.763 998.697 405.776C997.644 403.096 996.897 400.243 993.31 399.589C987.924 398.616 982.47 397.016 978.23 402.176C976.004 404.883 974.204 407.909 973.444 411.402C972.684 414.896 972.404 418.402 972.63 422.042C973.124 430.362 984.377 437.242 991.83 434.749C994.924 433.722 997.27 430.429 996.777 427.176C996.564 425.749 995.764 425.176 994.35 425.362C992.43 425.629 990.51 425.909 988.577 426.096C987.524 426.202 986.43 426.282 985.404 426.096C983.604 425.789 981.844 425.123 982.057 422.843C982.257 420.696 983.977 420.522 985.737 420.402C988.35 420.229 990.95 419.989 993.537 419.616C999.31 418.776 1002.62 421.296 1002.46 427.136C1002.19 437.549 997.324 441.349 986.79 440.762C976.004 440.162 965.964 431.096 966.697 420.056L966.71 420.069Z" fill="black"/>
<path d="M323.325 339.309C325.325 334.789 327.499 330.763 328.912 326.496C331.072 319.963 334.312 313.843 335.965 307.136C336.325 305.656 337.112 304.269 338.952 304.642C340.632 304.989 340.645 306.456 340.725 307.869C341.205 316.163 341.232 324.509 342.899 332.709C343.085 333.602 343.032 334.656 344.112 335.402C345.045 333.856 345.365 332.203 345.712 330.509C347.338 322.443 348.725 314.323 351.125 306.429C351.592 304.896 352.018 303.149 354.072 303.603C356.245 304.069 356.165 306.029 355.752 307.629C353.445 316.442 351.818 325.402 349.925 334.296C349.392 336.816 348.018 339.149 346.992 341.549C346.338 343.069 345.325 344.216 343.485 344.082C341.725 343.962 340.659 342.843 340.165 341.256C338.405 335.603 336.885 329.909 336.925 323.923C336.925 322.923 337.219 321.829 336.339 320.496C334.392 325.829 332.619 330.896 330.259 335.736C329.445 337.389 328.779 339.109 328.099 340.816C327.059 343.442 325.232 345.029 322.352 344.802C319.525 344.576 318.392 342.336 318.139 339.949C317.672 335.629 317.539 331.269 317.352 326.923C317.085 320.349 317.819 313.776 317.259 307.203C317.205 306.629 317.219 306.029 317.299 305.456C317.525 303.829 317.552 301.749 319.805 301.896C321.992 302.043 321.925 304.056 321.939 305.723C322.019 315.216 322.085 324.709 322.165 334.203C322.165 335.816 322.165 337.442 323.325 339.309Z" fill="black"/>
<path d="M418.245 423.483C417.765 428.896 417.365 433.416 416.952 437.936C416.885 438.616 416.898 439.296 416.765 439.963C416.432 441.603 415.672 443.043 413.738 442.856C411.685 442.656 411.072 441.083 411.205 439.256C411.472 435.683 411.792 432.123 412.178 428.563C413.138 419.696 413.432 410.79 413.805 401.897C414.005 397.15 415.885 395.283 420.698 395.376C423.725 395.43 426.605 396.43 429.538 397.016C440.405 399.163 440.565 411.003 435.445 416.843C433.351 419.243 430.845 421.096 427.738 421.79C425.058 422.39 425.378 423.376 426.578 425.296C429.618 430.136 432.578 435.03 436.365 439.35C436.925 439.99 437.351 440.816 437.591 441.616C437.911 442.749 437.418 443.75 436.405 444.336C434.991 445.15 433.725 444.603 432.725 443.563C429.258 440.003 426.472 435.923 423.912 431.683C422.325 429.056 420.778 426.416 418.232 423.456L418.245 423.483ZM418.738 412.67C418.458 414.883 418.992 416.496 421.498 416.95C425.485 417.67 430.192 415.59 432.272 412.11C434.711 408.003 433.071 403.563 428.552 402.283C426.512 401.71 424.405 401.323 422.325 400.897C420.285 400.47 419.165 401.163 419.218 403.416C419.285 406.51 419.152 409.603 418.752 412.67H418.738Z" fill="black"/>
<path d="M981.964 322.763C980.59 333.363 992.057 340.47 999.844 338.83C1001.98 338.377 1004.02 337.83 1004.98 335.537C1005.75 333.71 1006.46 331.697 1005.52 329.923C1004.52 328.043 1002.52 329.43 1001 329.403C998.884 329.363 996.79 330.123 994.644 329.79C993.004 329.537 991.484 328.87 991.484 326.99C991.484 324.963 993.124 324.523 994.777 324.523C997.99 324.537 1001.16 324.083 1004.31 323.563C1007.02 323.11 1008.72 324.23 1010.07 326.457C1013 331.297 1010.43 341.763 1002.6 343.79C990.964 346.79 975.91 337.15 976.577 323.377C976.937 316.137 978.404 309.39 983.07 303.604C986.324 299.564 990.457 297.43 995.684 297.564C999.097 297.657 1002.44 298.39 1005.67 299.337C1010.06 300.617 1014.79 310.017 1013.54 314.35C1013.24 315.363 1012.66 316.123 1011.56 316.217C1010.19 316.337 1009.35 315.523 1009 314.297C1008.42 312.257 1008 310.163 1007.18 308.19C1006.12 305.643 1004.34 304.497 1001.63 303.71C988.67 299.99 984.07 309.07 982.244 318.763C982.017 319.99 982.057 321.27 981.964 322.763Z" fill="black"/>
<path d="M1174.95 333.323C1175.44 327.336 1176.64 321.936 1175.72 316.376C1174.91 311.47 1175.79 306.523 1175.74 301.59C1175.71 299.75 1176.42 297.883 1178.6 297.897C1181.02 297.897 1181.2 299.95 1180.99 301.75C1179.82 311.683 1182.48 321.67 1180.58 331.59C1180.1 334.056 1179.86 336.576 1179.34 339.043C1178.9 341.123 1177.94 343.003 1175.51 343.216C1173.24 343.416 1172.31 341.67 1171.6 339.923C1170.24 336.603 1168.68 333.363 1167.9 329.843C1166.56 323.776 1162.99 318.75 1160.51 313.217C1160.23 313.23 1159.95 313.243 1159.67 313.257C1159.67 315.937 1159.51 318.63 1159.7 321.31C1160.14 327.43 1159.47 333.496 1158.86 339.563C1158.79 340.23 1158.67 340.91 1158.48 341.563C1158.15 342.656 1157.48 343.496 1156.23 343.496C1154.86 343.496 1154.04 342.63 1153.82 341.39C1153.6 340.27 1153.5 339.056 1153.67 337.936C1155.35 327.443 1154.27 316.87 1154.66 306.35C1154.71 304.896 1154.66 303.43 1154.95 302.016C1155.27 300.43 1156.11 299.03 1157.95 298.923C1159.68 298.817 1160.52 300.056 1161.04 301.51C1164.79 312.096 1171.62 321.363 1174.22 332.443C1174.26 332.603 1174.44 332.736 1174.95 333.363V333.323Z" fill="black"/>
<path d="M945.15 420.749C944.657 426.483 944.217 431.562 943.764 436.642C943.59 438.576 943.204 440.629 940.737 440.389C938.297 440.149 938.15 438.029 938.404 436.123C940.057 423.816 940.297 411.403 941.057 399.043C941.35 394.389 943.87 392.269 948.51 392.843C951.19 393.176 953.83 393.936 956.484 394.456C967.484 396.589 967.617 408.469 962.537 414.216C960.297 416.749 957.63 418.656 954.27 419.336C952.11 419.776 952.097 420.589 953.163 422.269C956.323 427.256 959.377 432.323 963.257 436.829C964.523 438.296 965.657 440.069 963.71 441.616C961.804 443.136 960.257 441.643 959.017 440.203C955.897 436.603 953.23 432.683 950.777 428.603C949.244 426.043 947.75 423.443 945.15 420.723V420.749ZM950.857 414.656C953.404 414.722 955.99 413.523 958.124 411.389C960.457 409.056 960.924 406.216 960.124 403.083C959.417 400.296 957.004 399.896 954.79 399.282C952.937 398.776 951.017 398.429 949.124 398.043C947.044 397.629 946.044 398.429 946.044 400.629C946.044 403.722 945.99 406.816 945.804 409.896C945.59 413.603 946.577 414.709 950.844 414.656H950.857Z" fill="black"/>
<path d="M524.325 324.549C523.818 330.443 523.391 335.429 522.938 340.429C522.858 341.283 522.698 342.162 522.391 342.962C522.018 343.936 521.191 344.509 520.125 344.496C518.911 344.483 518.098 343.789 517.778 342.669C517.565 341.936 517.445 341.122 517.551 340.389C519.218 327.989 519.471 315.482 520.231 303.016C520.511 298.416 523.098 296.283 527.738 296.896C530.418 297.243 533.045 298.003 535.711 298.523C546.538 300.643 546.778 312.309 541.845 318.096C539.725 320.576 537.178 322.589 533.938 323.229C531.058 323.789 531.391 324.829 532.685 326.883C535.791 331.803 538.871 336.723 542.671 341.163C543.818 342.496 544.631 344.109 543.071 345.549C541.365 347.123 539.791 346.016 538.551 344.656C535.285 341.042 532.565 337.043 530.071 332.869C528.485 330.229 526.858 327.616 524.338 324.589L524.325 324.549ZM525.231 309.936H525.058C525.058 310.896 525.098 311.869 525.058 312.829C524.818 318.123 526.538 319.576 531.858 318.429C534.285 317.909 536.365 316.656 537.911 314.696C541.485 310.189 539.658 304.696 534.165 303.323C532.285 302.856 530.391 302.483 528.498 302.083C526.351 301.629 525.125 302.309 525.218 304.709C525.285 306.443 525.218 308.189 525.218 309.923L525.231 309.936Z" fill="black"/>
<path d="M776.911 324.963C776.431 330.389 776.004 335.363 775.564 340.35C775.497 341.016 775.457 341.71 775.271 342.35C774.857 343.656 774.031 344.603 772.537 344.47C771.044 344.336 770.404 343.256 770.177 341.91C770.084 341.35 770.084 340.736 770.177 340.176C771.871 327.87 772.084 315.47 772.844 303.096C773.137 298.336 775.737 296.23 780.551 296.91C783.137 297.27 785.671 297.976 788.244 298.483C799.271 300.616 799.404 312.47 794.351 318.23C792.057 320.843 789.271 322.736 785.817 323.456C784.017 323.83 783.844 324.55 784.791 326.043C788.004 331.123 791.084 336.283 795.031 340.843C796.297 342.31 797.457 344.069 795.537 345.643C793.644 347.203 792.097 345.709 790.831 344.296C786.897 339.843 783.871 334.763 780.737 329.75C779.777 328.216 778.911 326.563 776.924 324.99L776.911 324.963ZM782.631 318.67C785.097 318.736 787.604 317.576 789.711 315.59C792.111 313.323 792.657 310.496 791.964 307.35C791.311 304.403 788.844 303.936 786.524 303.296C784.844 302.83 783.124 302.55 781.431 302.15C779.044 301.59 777.737 302.23 777.791 304.976C777.857 307.963 777.751 310.963 777.577 313.95C777.351 317.656 778.324 318.75 782.617 318.67H782.631Z" fill="black"/>
<path d="M520.018 442.376C514.151 442.296 509.978 440.603 506.778 436.776C505.951 435.79 505.311 434.723 505.245 433.403C505.178 431.949 505.538 430.656 507.018 430.069C508.498 429.483 509.618 430.163 510.578 431.296C515.298 436.909 519.058 437.723 525.485 434.563C529.071 432.803 529.938 430.296 528.165 426.723C527.325 425.016 525.965 423.79 524.365 422.816C520.805 420.643 517.205 418.549 513.685 416.336C509.711 413.843 506.551 410.27 506.778 405.59C507.031 400.55 510.218 396.603 514.818 394.243C521.431 390.856 527.605 392.043 533.218 396.563C535.671 398.536 536.951 401.256 536.725 404.483C536.605 406.07 535.845 407.363 534.111 407.47C532.458 407.563 531.831 406.323 531.458 404.896C530.445 401.123 526.645 398.083 522.885 397.976C518.525 397.856 513.858 400.99 512.698 404.816C512.071 406.896 513.631 409.803 516.351 411.47C520.471 414.003 524.658 416.456 528.765 419.029C532.258 421.229 534.138 424.523 534.791 428.55C535.511 432.99 533.685 436.843 529.805 439.136C526.565 441.043 522.165 442.389 520.031 442.403L520.018 442.376Z" fill="black"/>
<path d="M879.057 328.23C878.551 320.177 879.697 312.736 878.937 305.283C878.857 304.51 878.871 303.736 878.884 302.963C878.937 301.003 878.884 298.643 881.537 298.616C884.204 298.59 884.151 300.95 884.311 302.91C884.764 308.51 885.097 314.11 884.364 319.723C884.057 322.07 884.911 323.257 887.497 323.43C892.417 323.75 897.324 324.35 902.231 324.897C904.377 325.137 904.591 323.883 904.644 322.243C904.831 317.003 903.484 311.843 903.897 306.59C904.004 305.15 904.071 303.683 904.351 302.27C904.631 300.803 905.511 299.737 907.151 299.883C908.911 300.043 909.724 301.31 909.657 302.91C909.137 315.803 911.444 328.59 911.111 341.47C911.111 341.95 911.124 342.443 911.124 342.923C911.124 344.643 910.671 346.097 908.631 346.15C906.711 346.19 905.911 344.897 905.684 343.19C905.257 340.017 904.924 336.83 905.191 333.63C905.404 330.963 904.177 330.03 901.657 329.883C896.924 329.603 892.191 329.19 887.484 328.696C885.244 328.47 884.137 329.137 884.311 331.497C884.511 334.297 884.724 337.097 884.777 339.897C884.817 341.83 884.404 343.79 881.924 343.817C879.577 343.843 879.151 341.91 879.111 340.137C879.004 335.977 879.071 331.817 879.071 328.257L879.057 328.23Z" fill="black"/>
<path d="M359.126 337.47C361.072 326.737 361.192 315.684 364.752 305.23C365.486 303.084 366.486 301.15 368.112 299.537C372.152 295.497 377.952 296.483 380.259 301.763C381.979 305.697 382.486 309.977 383.086 314.19C384.366 323.19 385.366 332.23 388.366 340.897C388.872 342.363 388.539 343.603 387.192 344.417C385.872 345.23 384.792 344.603 383.819 343.657C383.032 342.897 382.499 341.977 382.219 340.923C381.659 338.777 381.032 336.63 380.646 334.443C379.779 329.457 379.819 329.457 374.832 329.363C372.699 329.323 370.539 329.31 368.459 328.95C366.379 328.59 365.579 329.43 365.392 331.297C365.112 333.99 364.806 336.683 364.552 339.377C364.446 340.443 364.432 341.51 363.912 342.483C363.312 343.577 362.472 344.35 361.112 344.083C359.912 343.843 359.246 342.977 359.166 341.83C359.046 340.39 359.139 338.923 359.139 337.483L359.126 337.47ZM367.406 319.417C367.006 323.483 367.006 323.443 370.806 323.883C372.726 324.11 374.646 324.19 376.592 324.15C378.072 324.11 378.526 323.457 378.326 322.177C377.512 316.83 377.446 311.363 375.912 306.123C375.512 304.763 375.232 302.99 373.432 302.95C371.712 302.91 371.152 304.59 370.632 305.924C368.872 310.35 367.659 314.923 367.392 319.43L367.406 319.417Z" fill="black"/>
<path d="M1046.36 296.497C1051.26 297.403 1057.15 297.79 1062.38 301.096C1065.14 302.843 1067.07 305.19 1068.62 307.83C1072.7 314.79 1074.24 322.216 1071.63 330.083C1070.42 333.723 1067.78 336.336 1064.62 338.35C1059.51 341.603 1053.86 343.656 1048 345.11C1043.56 346.216 1042.26 344.763 1043.46 340.43C1043.62 339.87 1043.7 339.283 1043.72 338.71C1044.32 326.816 1044.48 314.923 1042.72 303.096C1042.63 302.43 1042.44 301.763 1042.18 301.136C1040.5 297.096 1041.03 296.323 1046.35 296.483L1046.36 296.497ZM1049.02 324.696C1049.02 328.763 1049.08 332.843 1048.99 336.91C1048.95 338.79 1049.48 339.35 1051.36 338.723C1055.04 337.47 1058.67 336.096 1061.95 333.976C1064.67 332.23 1066.43 329.83 1067.19 326.603C1069.91 315.27 1063.34 304.696 1052.04 302.336C1051.38 302.203 1050.68 302.137 1050.06 301.91C1048.12 301.203 1047.4 301.643 1047.74 303.843C1048.78 310.75 1049.35 317.696 1049.02 324.696Z" fill="black"/>
<path d="M936.071 415.59C935.484 422.35 935.724 428.683 932.364 434.616C927.951 442.403 912.351 442.47 908.444 434.896C905.817 429.803 903.484 425.056 904.337 419.003C905.137 413.403 906.137 407.896 908.164 402.656C911.791 393.243 921.831 390.376 929.137 396.47C930.764 397.83 931.684 399.59 932.551 401.443C934.711 406.07 935.804 410.95 936.071 415.59ZM930.617 419.656C930.751 412.51 929.511 406.456 927.257 402.576C924.297 397.457 918.497 396.963 914.737 401.51C913.417 403.11 912.577 404.95 912.017 406.937C910.937 410.75 909.737 414.563 909.617 418.576C909.497 423.096 910.084 427.443 912.671 431.323C916.351 436.869 924.737 436.696 928.244 431.016C930.551 427.27 930.324 423.03 930.631 419.67L930.617 419.656Z" fill="black"/>
<path d="M1106.62 322.231C1106.59 329.11 1105.92 334.79 1102.3 339.964C1098.22 345.75 1084.18 345.95 1079.94 339.417C1075.62 332.764 1074.74 326.044 1075.91 318.697C1076.43 315.457 1077.22 312.23 1078.14 309.084C1080.6 300.71 1086.99 296.47 1094.35 298.137C1097.67 298.884 1100.14 300.804 1101.82 303.684C1105.34 309.684 1106.94 316.177 1106.6 322.244L1106.62 322.231ZM1101.26 323.35C1101.54 317.977 1100.64 312.804 1098.26 307.871C1096.76 304.764 1094.6 303.004 1091.06 302.977C1087.52 302.95 1085.43 305.071 1084.12 307.884C1081.64 313.217 1080.27 318.964 1080.64 324.804C1080.88 328.564 1081.59 332.404 1083.99 335.75C1086.28 338.937 1089.38 339.337 1092.71 339.177C1095.96 339.017 1098.31 337.284 1099.64 334.217C1101.16 330.737 1101.4 327.097 1101.24 323.35H1101.26Z" fill="black"/>
<path d="M348.845 426.496C348.285 419.349 349.632 412.189 348.752 405.029C348.645 404.176 348.672 403.283 348.752 402.416C348.912 400.696 349.299 398.963 351.499 399.016C353.485 399.056 353.939 400.629 354.045 402.296C354.419 407.509 355.005 412.709 354.205 417.949C353.819 420.469 354.752 422.029 357.539 422.269C362.072 422.669 366.592 423.202 371.112 423.709C372.765 423.896 373.059 422.936 373.112 421.603C373.232 418.483 372.659 415.429 372.285 412.362C371.912 409.256 371.965 406.176 372.579 403.109C372.899 401.469 373.579 400.029 375.565 400.243C377.365 400.429 377.912 401.829 377.859 403.416C377.525 413.883 379.419 424.269 379.085 434.736C379.019 436.656 379.459 438.589 379.472 440.523C379.485 442.296 378.845 443.922 376.779 444.016C374.859 444.096 374.019 442.602 373.899 440.976C373.699 437.989 373.152 435.016 373.565 432.002C373.859 429.829 373.072 428.816 370.765 428.682C366.125 428.416 361.499 428.029 356.885 427.469C354.552 427.189 353.925 428.123 354.072 430.189C354.259 432.696 354.459 435.202 354.539 437.722C354.605 439.669 354.232 441.709 351.832 441.762C349.419 441.816 348.939 439.736 348.872 437.843C348.752 434.069 348.832 430.296 348.832 426.523L348.845 426.496Z" fill="black"/>
<path d="M651.511 420.336C651.751 425.616 651.258 430.216 649.111 434.682C644.765 443.709 629.338 443.496 625.218 436.269C622.245 431.056 619.925 426.123 620.685 419.909C621.271 415.083 621.911 410.282 623.325 405.656C625.685 397.949 631.431 394.176 638.658 395.403C643.818 396.283 646.565 399.936 648.485 404.402C650.738 409.642 651.978 415.082 651.498 420.349L651.511 420.336ZM646.258 418.642C646.485 413.496 645.071 409.296 643.125 405.256C641.698 402.296 639.618 400.216 636.005 400.189C632.471 400.163 630.191 402.256 629.071 405.069C626.031 412.749 624.445 420.709 627.245 428.829C628.245 431.736 629.725 434.989 632.951 435.749C639.445 437.282 644.578 435.963 646.071 427.603C646.631 424.443 646.578 421.256 646.258 418.629V418.642Z" fill="black"/>
<path d="M175.006 320.843C182.059 284.43 182.233 246.83 194.619 211.377C196.739 205.31 199.326 199.604 203.366 194.537C209.606 186.697 217.286 181.443 227.619 183.417C237.966 185.39 244.792 192.337 248.179 202.15C252.792 215.51 254.699 229.483 256.632 243.43C260.752 273.243 264.579 303.123 274.032 331.897C275.646 336.817 275.619 341.523 270.392 344.016C264.766 346.696 260.499 343.536 257.686 338.99C251.366 328.763 249.192 317.056 248.246 305.43C247.512 296.376 243.566 292.603 235.059 293.07C225.272 293.603 215.712 291.683 206.046 290.83C199.846 290.283 196.579 292.603 195.993 298.937C195.046 309.27 193.899 319.577 192.766 329.883C192.086 336.137 190.833 342.883 182.899 342.563C174.433 342.216 175.046 334.99 175.006 328.897C174.993 326.217 175.006 323.537 175.006 320.857V320.843ZM227.979 276.083C232.566 273.95 242.739 279.95 241.112 268.377C238.499 249.897 238.099 231.043 232.619 213.017C231.272 208.603 230.432 203.11 224.819 202.43C218.632 201.67 216.339 207.07 214.366 211.59C206.673 229.243 202.993 247.83 201.913 266.99C201.699 270.75 202.006 273.523 206.766 273.87C213.752 274.377 220.699 275.31 227.979 276.083Z" fill="#55ADE1"/>
<path d="M441.991 333.244C442.085 337.23 440.351 340.083 436.845 341.963C430.858 345.163 424.832 346.217 418.565 342.697C416.525 341.55 415.112 339.87 413.965 337.95C412.965 336.27 413.005 334.483 414.858 333.377C416.672 332.297 417.858 333.31 418.885 334.91C422.405 340.363 431.525 340.897 435.645 335.95C437.632 333.563 436.472 328.804 433.125 326.59C429.738 324.337 426.205 322.31 422.698 320.244C421.272 319.404 419.832 318.617 418.712 317.377C413.992 312.15 413.832 307.63 418.192 302.043C424.098 294.483 436.632 294.71 442.258 302.483C443.445 304.11 443.951 305.963 443.885 307.95C443.832 309.417 443.351 310.724 441.685 310.91C439.991 311.11 439.338 309.897 438.925 308.483C436.951 301.763 428.538 299.497 423.352 304.297C419.072 308.257 419.498 312.363 424.552 315.39C428.298 317.63 432.098 319.763 435.805 322.07C439.885 324.603 442.005 328.55 441.991 333.244Z" fill="black"/>
<path d="M851.577 297.403C858.644 297.403 865.71 297.376 872.777 297.416C874.63 297.416 876.43 298.003 876.564 300.203C876.697 302.51 875.057 303.483 872.99 303.536C869.017 303.63 865.044 303.603 861.07 303.536C859.03 303.496 858.377 304.07 858.284 306.363C857.95 315.163 857.297 323.95 856.617 332.723C856.404 335.536 856.204 338.336 856.43 341.136C856.604 343.243 856.31 344.47 853.79 344.483C851.457 344.483 849.844 344.176 849.817 341.27C849.75 335.256 850.297 329.269 850.63 323.283C850.937 317.776 851.27 312.27 851.657 306.776C851.817 304.416 850.87 303.416 848.457 303.51C845.257 303.63 842.057 303.55 838.857 303.523C837.99 303.523 837.097 303.496 836.257 303.31C834.377 302.91 832.43 302.203 832.63 299.896C832.817 297.616 834.737 297.123 836.737 297.123C841.684 297.123 846.63 297.123 851.577 297.123C851.577 297.216 851.577 297.31 851.577 297.403Z" fill="black"/>
<path d="M280.872 420.976C281.032 415.723 281.605 410.51 283.379 405.563C285.165 400.55 288.379 396.696 294.072 396.136C299.859 395.576 303.805 398.416 306.459 403.456C310.779 411.683 311.792 420.443 310.112 429.389C308.312 438.963 299.139 443.51 290.019 439.856C288.099 439.083 286.979 437.509 285.805 435.989C281.659 430.629 280.712 427.723 280.872 420.976ZM305.659 420.59C305.859 416.243 304.712 410.829 302.032 405.736C300.445 402.71 298.085 400.896 294.659 401.029C291.205 401.163 289.285 403.603 288.205 406.523C286.259 411.75 285.405 417.23 286.019 422.776C286.432 426.496 287.339 430.136 290.032 433.15C293.872 437.416 301.672 436.509 304.285 431.349C305.792 428.363 305.672 425.163 305.659 420.603V420.59Z" fill="black"/>
<path d="M714.485 335.87C715.031 335.23 715.378 335.003 715.498 334.67C718.885 325.136 724.831 316.857 728.791 307.603C729.858 305.11 730.645 302.496 731.805 300.056C732.605 298.363 733.858 296.63 736.085 297.736C738.151 298.763 737.365 300.51 736.818 302.283C732.938 314.763 724.898 325.283 720.311 337.443C719.405 339.83 717.751 342.003 716.165 344.07C714.298 346.483 711.791 346.07 710.405 343.35C710.191 342.923 709.991 342.456 709.911 341.99C708.258 332.39 704.271 323.483 701.738 314.15C700.751 310.523 700.258 306.763 699.592 303.043C699.325 301.55 699.285 299.95 701.085 299.43C703.018 298.856 704.045 300.216 704.445 301.803C705.498 306.03 706.111 310.363 707.378 314.523C709.511 321.536 712.005 328.443 714.498 335.87H714.485Z" fill="black"/>
<path d="M678.724 417.337C678.484 410.617 680.404 404.083 680.458 397.39C680.458 396.243 681.164 395.323 682.391 395.163C683.871 394.963 684.738 395.83 685.271 397.11C686.071 399.017 685.591 400.99 685.284 402.857C684.071 410.337 684.458 417.937 683.431 425.403C682.298 433.643 677.818 438.95 669.378 440.71C663.764 441.883 658.684 439.336 656.484 433.976C654.418 428.937 654.644 423.71 654.964 418.483C655.298 413.177 655.871 407.883 655.951 402.55C655.978 400.803 656.151 399.057 656.738 397.403C657.151 396.23 657.911 395.31 659.324 395.55C660.684 395.79 661.351 396.857 661.191 398.11C660.498 403.617 661.111 409.163 660.511 414.657C660.084 418.63 660.071 422.59 660.191 426.563C660.351 431.817 662.364 435.163 665.618 435.91C669.138 436.723 674.378 433.883 676.538 430.057C678.791 426.07 678.858 421.723 678.711 417.337H678.724Z" fill="black"/>
<path d="M383.539 434.442C384.166 423.616 384.979 412.789 384.646 401.923C384.566 399.483 386.006 397.776 388.139 397.042C393.312 395.269 398.632 394.309 404.139 394.789C404.232 394.789 404.326 394.816 404.432 394.842C405.832 395.189 407.166 395.736 407.006 397.456C406.859 398.989 405.566 399.456 404.232 399.469C400.539 399.496 396.886 399.722 393.232 400.322C390.566 400.762 389.352 401.802 389.539 404.682C389.779 408.442 389.712 412.242 389.566 416.016C389.472 418.322 390.446 419.136 392.606 419.202C395.792 419.296 399.006 418.856 402.166 419.669C403.752 420.069 405.446 420.496 405.072 422.536C404.699 424.549 402.939 424.349 401.326 424.256C397.846 424.056 394.366 424.029 390.886 423.829C389.579 423.749 389.112 424.269 389.099 425.469C389.072 428.669 388.419 431.816 388.472 435.029C388.512 437.322 389.179 438.362 391.632 438.389C395.112 438.429 398.592 438.776 402.072 439.029C402.739 439.082 403.419 439.216 404.059 439.429C405.272 439.856 406.059 440.682 405.846 442.056C405.659 443.282 404.752 443.896 403.579 443.936C397.939 444.109 392.352 443.456 386.792 442.722C384.739 442.456 383.646 440.909 383.566 438.802C383.512 437.349 383.566 435.896 383.566 434.442H383.539Z" fill="black"/>
<path d="M740.911 336.883C741.498 326.057 742.351 315.23 742.004 304.363C741.911 301.497 743.671 299.777 746.138 299.043C750.884 297.63 755.738 296.657 760.751 297.017C762.418 297.137 764.391 297.39 764.324 299.564C764.258 301.817 762.244 301.803 760.578 301.777C757.164 301.71 753.818 302.11 750.458 302.63C747.924 303.017 746.724 304.017 746.884 306.79C747.111 310.657 747.031 314.537 746.911 318.417C746.844 320.563 747.751 321.39 749.791 321.47C753.071 321.603 756.391 321.123 759.644 321.977C761.138 322.363 762.698 322.803 762.471 324.657C762.218 326.71 760.484 326.817 758.858 326.523C755.298 325.87 751.684 326.723 748.124 326.123C746.991 325.937 746.498 326.51 746.471 327.577C746.391 331.057 745.684 334.497 745.858 338.017C745.951 339.883 746.751 340.563 748.538 340.63C752.018 340.776 755.498 341.03 758.978 341.283C759.844 341.35 760.724 341.483 761.538 341.75C762.644 342.11 763.351 342.923 763.244 344.163C763.138 345.403 762.298 346.137 761.124 346.177C755.298 346.39 749.511 345.79 743.764 344.87C741.991 344.59 741.031 343.07 740.938 341.243C740.858 339.79 740.924 338.337 740.924 336.883H740.911Z" fill="black"/>
<path d="M541.271 432.79C541.871 421.963 542.711 411.137 542.378 400.27C542.285 397.403 544.111 395.71 546.578 394.99C551.325 393.603 556.191 392.603 561.205 393.003C562.885 393.136 564.805 393.416 564.698 395.616C564.605 397.67 562.751 397.803 561.165 397.75C557.458 397.656 553.818 398.07 550.178 398.736C548.138 399.11 547.178 400.043 547.258 402.257C547.405 406.323 547.378 410.403 547.258 414.47C547.191 416.67 548.218 417.363 550.205 417.443C553.391 417.576 556.605 417.11 559.765 417.896C561.338 418.296 563.071 418.67 562.791 420.683C562.498 422.71 560.751 422.603 559.111 422.51C555.538 422.31 551.951 422.23 548.378 422.056C547.205 422.003 546.805 422.576 546.791 423.603C546.725 426.99 546.031 430.336 546.178 433.75C546.258 435.696 546.965 436.523 548.938 436.59C552.418 436.71 555.898 436.99 559.378 437.243C560.231 437.31 561.125 437.456 561.925 437.736C563.018 438.123 563.698 438.963 563.551 440.19C563.391 441.43 562.538 442.096 561.365 442.136C555.631 442.363 549.951 441.67 544.285 440.883C542.365 440.616 541.338 439.083 541.258 437.11C541.191 435.656 541.258 434.203 541.258 432.75L541.271 432.79Z" fill="black"/>
<path d="M1009.16 406.709C1009.16 404.669 1009.16 402.643 1009.16 400.603C1009.18 397.083 1010.46 395.123 1013.88 394.216C1018.28 393.056 1022.76 392.069 1027.38 392.376C1029.2 392.496 1031.54 392.469 1031.48 394.976C1031.43 397.376 1029.16 397.203 1027.44 397.163C1024.03 397.083 1020.68 397.536 1017.32 398.083C1015.04 398.456 1013.95 399.403 1014.07 401.909C1014.26 405.869 1014.2 409.856 1014.08 413.829C1014.02 415.989 1014.96 416.776 1016.99 416.856C1020.27 416.976 1023.59 416.509 1026.84 417.362C1028.34 417.749 1029.9 418.216 1029.64 420.069C1029.36 422.109 1027.63 422.203 1026.02 421.909C1022.46 421.256 1018.84 422.109 1015.28 421.509C1014.14 421.323 1013.67 421.936 1013.66 422.989C1013.6 426.376 1012.92 429.723 1013.03 433.136C1013.1 435.309 1014 435.976 1016.04 436.042C1019.52 436.149 1023 436.442 1026.48 436.696C1027.24 436.749 1028.03 436.909 1028.75 437.163C1029.84 437.549 1030.55 438.363 1030.42 439.589C1030.28 440.829 1029.46 441.536 1028.27 441.576C1022.44 441.776 1016.64 441.229 1010.92 440.243C1008.72 439.856 1007.99 437.882 1008.08 435.736C1008.35 429.256 1008.52 422.762 1008.95 416.296C1009.16 413.096 1009.28 409.909 1009.18 406.709H1009.16Z" fill="black"/>
<path d="M669.311 335.749C669.911 324.816 670.711 313.909 670.431 302.936C670.351 300.083 672.324 298.469 674.791 297.776C679.458 296.469 684.218 295.469 689.137 295.843C690.804 295.976 692.777 296.189 692.737 298.363C692.697 300.616 690.684 300.643 689.031 300.603C685.324 300.509 681.684 300.949 678.044 301.629C676.098 301.989 675.258 302.936 675.311 305.003C675.431 309.163 675.404 313.336 675.311 317.509C675.271 319.589 676.324 320.202 678.151 320.296C681.431 320.456 684.751 319.949 688.004 320.803C689.591 321.216 691.244 321.683 690.804 323.736C690.417 325.563 688.791 325.642 687.271 325.362C683.711 324.696 680.098 325.562 676.538 324.962C675.431 324.776 674.884 325.296 674.858 326.389C674.778 329.869 674.071 333.309 674.244 336.829C674.338 338.669 675.084 339.403 676.884 339.483C680.364 339.629 683.844 339.883 687.324 340.149C688.271 340.216 689.257 340.402 690.151 340.722C691.137 341.082 691.724 341.896 691.617 342.989C691.511 344.229 690.697 344.976 689.524 345.029C683.697 345.269 677.911 344.629 672.164 343.736C670.391 343.456 669.418 341.963 669.311 340.123C669.231 338.669 669.298 337.216 669.298 335.763L669.311 335.749Z" fill="black"/>
<path d="M626.565 319.123C628.138 319.003 630.445 319.163 632.725 319.763C634.045 320.11 635.191 320.776 635.005 322.31C634.805 324.016 633.418 324.51 631.965 324.23C628.298 323.55 624.591 324.336 620.938 323.803C619.765 323.63 619.018 323.91 618.991 325.23C618.911 328.71 618.205 332.15 618.391 335.67C618.485 337.536 619.271 338.216 621.058 338.296C624.538 338.443 628.018 338.696 631.498 338.95C632.365 339.016 633.245 339.15 634.058 339.416C635.165 339.776 635.871 340.59 635.765 341.816C635.658 343.056 634.831 343.79 633.645 343.83C627.818 344.056 622.018 343.496 616.298 342.51C613.938 342.11 613.325 339.976 613.418 337.736C613.658 332.03 613.685 326.296 614.165 320.616C614.671 314.71 614.538 308.803 614.538 302.897C614.538 299.443 615.711 297.51 618.951 296.59C623.618 295.27 628.378 294.283 633.298 294.67C634.965 294.803 636.938 295.03 636.871 297.217C636.805 299.47 634.791 299.47 633.138 299.443C629.725 299.377 626.378 299.776 623.018 300.296C620.498 300.683 619.271 301.67 619.431 304.457C619.658 308.217 619.631 312.016 619.458 315.79C619.351 318.216 620.285 319.216 622.618 319.136C623.685 319.096 624.751 319.136 626.591 319.136L626.565 319.123Z" fill="black"/>
<path d="M1044.54 394.829C1052.19 394.829 1059.83 394.829 1067.48 394.829C1069.26 394.829 1070.95 395.202 1071.03 397.362C1071.11 399.482 1069.31 399.843 1067.78 399.883C1064.59 399.963 1061.4 399.816 1058.22 399.682C1056.31 399.602 1055.48 400.229 1055.38 402.309C1054.94 411.002 1054.26 419.696 1053.8 428.389C1053.68 430.789 1054.08 433.216 1054.16 435.629C1054.23 437.602 1054.23 439.922 1051.63 440.096C1048.82 440.282 1048.6 437.802 1048.47 435.776C1048.02 429.282 1048.51 422.816 1049.1 416.336C1049.51 411.709 1049.74 407.069 1050.07 402.442C1050.2 400.509 1049.47 399.576 1047.4 399.629C1044.11 399.709 1040.82 399.669 1037.51 399.629C1035.67 399.602 1033.71 399.269 1033.72 396.976C1033.74 394.669 1035.75 394.429 1037.56 394.389C1039.88 394.336 1042.22 394.376 1044.54 394.376C1044.54 394.522 1044.54 394.683 1044.54 394.829Z" fill="black"/>
<path d="M784.844 414.669C784.898 421.376 783.938 427.723 784.311 434.136C784.458 436.523 784.898 437.629 787.378 437.296C792.898 436.536 798.404 437.349 803.911 437.376C804.391 437.376 804.884 437.349 805.364 437.416C807.338 437.696 809.991 437.509 809.871 440.336C809.751 443.082 807.311 442.923 805.204 442.909C798.231 442.843 791.271 442.349 784.284 443.096C780.044 443.549 778.364 441.443 778.391 437.563C778.471 425.963 779.631 414.389 779.404 402.776C779.364 401.043 779.351 399.283 779.564 397.563C779.764 395.963 780.458 394.389 782.418 394.509C784.391 394.643 784.671 396.269 784.844 397.909C785.444 403.616 784.631 409.309 784.844 414.683V414.669Z" fill="black"/>
<path d="M834.538 442.949C830.658 442.576 826.777 442.669 822.911 443.056C817.658 443.589 816.418 441.629 816.351 436.322C816.231 425.082 817.671 413.909 817.231 402.683C817.151 400.749 816.991 398.789 817.524 396.896C817.924 395.496 818.684 394.309 820.338 394.483C821.978 394.643 822.551 395.936 822.631 397.389C823.071 406.003 822.964 414.616 822.204 423.189C821.831 427.376 822.564 431.496 822.231 435.669C822.071 437.562 823.791 437.403 824.991 437.269C830.618 436.616 836.217 437.309 841.831 437.376C842.604 437.376 843.391 437.376 844.151 437.496C845.911 437.776 847.924 438.069 847.751 440.416C847.577 442.642 845.684 442.949 843.831 442.949C840.737 442.949 837.631 442.949 834.538 442.949Z" fill="black"/>
<path d="M1120.91 397.163C1128.55 397.163 1136.19 397.163 1143.83 397.163C1145.39 397.163 1146.91 397.55 1147.1 399.35C1147.3 401.376 1145.7 401.843 1144.08 402.163C1141.18 402.75 1138.3 401.95 1135.4 401.937C1132.75 401.937 1131.7 402.563 1131.64 405.47C1131.47 416.296 1129.86 427.07 1130.46 437.923C1130.55 439.59 1130.1 441.189 1128.08 441.283C1126.04 441.376 1125.32 439.99 1125.07 438.123C1124.18 431.736 1125.04 425.376 1125.35 419.016C1125.56 414.39 1125.95 409.763 1126.35 405.136C1126.56 402.71 1125.54 401.843 1123.16 401.937C1120.16 402.057 1117.16 401.99 1114.16 401.937C1112.4 401.91 1110.67 401.443 1110.7 399.296C1110.72 397.123 1112.51 396.776 1114.24 396.723C1116.47 396.656 1118.7 396.71 1120.92 396.71C1120.92 396.856 1120.92 397.003 1120.92 397.15L1120.91 397.163Z" fill="black"/>
<path d="M893.137 391.924C895.177 391.83 897.017 391.67 898.857 391.67C900.337 391.67 902.044 391.79 902.137 393.723C902.23 395.643 900.524 395.937 899.057 396.083C896.457 396.337 893.844 396.47 891.231 396.643C890.657 396.683 890.071 396.643 889.484 396.683C880.017 397.417 881.191 397.163 880.804 404.83C880.657 407.737 880.564 410.643 880.257 413.523C879.99 416.017 880.884 417.043 883.444 417.057C886.83 417.07 890.217 417.35 893.59 417.59C894.63 417.67 895.697 417.897 896.684 418.257C897.55 418.577 898.044 419.35 897.937 420.337C897.83 421.337 897.137 421.91 896.217 422.057C895.27 422.203 894.284 422.217 893.324 422.163C889.551 421.95 885.777 421.75 882.017 421.417C880.257 421.257 879.804 422.083 879.791 423.59C879.764 427.083 879.844 430.577 879.551 434.043C879.377 436.217 879.497 439.497 876.244 439.137C873.097 438.777 874.617 435.87 874.684 433.897C874.911 426.63 875.057 419.377 875.377 412.123C875.591 407.097 875.657 402.057 876.577 397.083C877.15 393.99 878.924 392.683 882.017 392.59C885.79 392.484 889.524 391.59 893.124 391.91L893.137 391.924Z" fill="black"/>
<path d="M325.405 397.47C331.205 397.47 337.018 397.47 342.818 397.47C344.392 397.47 345.898 397.843 346.098 399.616C346.312 401.523 344.698 401.937 343.232 402.23C340.138 402.843 337.072 401.883 333.965 401.99C331.858 402.056 330.819 402.457 330.832 404.897C330.859 415.723 328.939 426.496 329.632 437.363C329.739 439.016 329.365 440.67 327.352 440.79C325.392 440.91 324.752 439.323 324.552 437.696C323.765 431.216 324.552 424.75 325.005 418.283C325.312 413.843 325.605 409.403 325.979 404.976C326.179 402.656 325.139 401.896 322.912 401.976C319.912 402.083 316.912 402.03 313.912 401.976C312.179 401.95 310.339 401.63 310.379 399.443C310.432 397.163 312.405 397.217 314.072 397.203C317.845 397.177 321.632 397.203 325.405 397.203C325.405 397.297 325.405 397.39 325.405 397.483V397.47Z" fill="black"/>
<path d="M587.939 299.75C593.738 299.75 599.552 299.75 605.352 299.75C606.925 299.75 608.405 300.163 608.592 301.95C608.778 303.683 607.338 304.15 605.952 304.457C602.765 305.163 599.605 304.15 596.405 304.257C594.232 304.324 593.325 304.844 593.325 307.217C593.325 318.044 591.432 328.817 592.125 339.683C592.232 341.337 591.819 342.977 589.792 343.057C587.832 343.123 587.219 341.537 587.032 339.91C586.272 333.417 587.059 326.963 587.499 320.497C587.805 316.057 588.112 311.617 588.459 307.19C588.619 305.097 587.819 304.177 585.645 304.257C582.552 304.364 579.445 304.31 576.352 304.257C574.619 304.23 572.805 303.857 572.872 301.67C572.925 299.59 574.739 299.497 576.339 299.484C580.219 299.457 584.085 299.484 587.965 299.484C587.965 299.577 587.965 299.67 587.965 299.763L587.939 299.75Z" fill="black"/>
<path d="M606.964 413.643C608.498 410.856 609.671 408.883 610.711 406.843C613.071 402.23 616.164 398.163 619.604 394.323C620.724 393.07 622.031 391.616 623.751 393.136C625.271 394.483 624.311 396.057 623.204 397.217C617.031 403.71 613.791 412.056 608.991 419.416C608.151 420.696 608.351 422.23 608.351 423.67C608.338 428.123 608.351 432.576 608.351 437.043C608.351 438.563 608.271 440.19 606.271 440.243C604.284 440.283 603.658 438.763 603.644 437.083C603.591 432.816 603.164 428.496 603.764 424.31C604.498 419.19 602.604 414.79 600.991 410.336C599.338 405.776 598.738 400.91 596.604 396.51C596.044 395.336 596.364 394.15 597.618 393.55C598.911 392.923 599.884 393.616 600.578 394.656C602.284 397.203 602.858 400.176 603.698 403.056C604.658 406.283 605.671 409.496 606.951 413.643H606.964Z" fill="black"/>
<path d="M1092.59 441.456C1091.84 441.456 1091.36 441.456 1090.88 441.456C1089.07 441.496 1087.14 441.429 1086.7 439.256C1086.27 437.176 1087.92 436.389 1089.59 435.922C1091.14 435.496 1091.38 434.389 1091.42 433.029C1091.51 429.269 1091.79 425.509 1091.78 421.749C1091.74 415.336 1093 409.042 1093.27 402.656C1093.34 401.162 1093.19 400.282 1091.47 400.082C1090.04 399.922 1088.78 399.162 1088.92 397.469C1089.06 395.816 1090.4 395.256 1091.83 395.149C1096.1 394.816 1100.34 395.362 1104.58 395.669C1106.02 395.776 1107.14 396.802 1106.94 398.456C1106.72 400.109 1105.4 400.549 1103.94 400.603C1103.46 400.616 1102.98 400.509 1102.5 400.469C1099.24 400.216 1098.74 400.682 1098.51 403.829C1098.04 410.002 1097.44 416.162 1097.06 422.336C1096.82 425.989 1096.9 429.669 1096.78 433.336C1096.74 434.722 1097.34 435.456 1098.67 435.829C1100.27 436.296 1101.59 437.202 1101.28 439.109C1100.98 441.016 1099.35 440.962 1097.87 441.042C1096.03 441.149 1094.2 441.309 1092.62 441.442L1092.59 441.456Z" fill="black"/>
<path d="M292.952 304.43C292.312 311.47 291.939 318.523 290.926 325.523C290.379 329.243 290.392 333.043 290.112 336.816C289.979 338.616 291.046 338.976 292.486 338.896C298.232 338.576 303.886 339.63 309.566 340.203C310.046 340.256 310.526 340.296 311.006 340.39C312.512 340.683 314.019 341.15 313.832 343.043C313.632 345.03 311.992 345.496 310.366 345.309C303.139 344.496 295.926 343.87 288.646 343.723C284.992 343.643 284.099 341.869 284.526 338.283C285.459 330.416 286.206 322.523 286.966 314.643C287.379 310.403 287.659 306.15 288.032 301.91C288.099 301.15 288.259 300.376 288.499 299.643C288.872 298.523 289.686 297.83 290.899 297.937C292.139 298.043 292.832 298.91 292.926 300.056C293.046 301.496 292.952 302.95 292.952 304.403V304.43Z" fill="black"/>
<path d="M813.698 318.016C816.844 312.243 819.711 306.31 824.138 301.35C824.658 300.776 825.111 300.137 825.644 299.577C826.831 298.35 828.018 296.457 829.924 298.137C831.631 299.643 830.191 301.123 829.191 302.43C827.551 304.59 825.858 306.697 824.231 308.87C820.578 313.79 818.578 319.656 815.018 324.643C814.151 325.856 814.444 327.457 814.431 328.897C814.431 333.15 814.431 337.403 814.431 341.656C814.431 343.23 814.524 345.123 812.391 345.176C810.271 345.23 809.631 343.283 809.804 341.643C810.311 336.71 809.884 331.79 810.111 326.87C810.204 324.896 809.964 323.097 809.311 321.203C807.071 314.71 805.044 308.15 802.938 301.616C802.578 300.496 802.658 299.456 803.738 298.803C805.004 298.057 805.964 298.75 806.751 299.71C807.738 300.936 808.231 302.403 808.671 303.91C810.044 308.617 811.458 313.296 812.858 317.99C813.124 317.99 813.404 317.99 813.671 317.99L813.698 318.016Z" fill="black"/>
<path d="M399.219 317.404C401.112 314.044 402.979 310.67 404.912 307.337C406.765 304.137 409.179 301.35 411.605 298.577C412.659 297.377 413.912 296.097 415.512 297.537C417.072 298.95 416.032 300.457 414.952 301.59C408.805 308.097 405.525 316.417 400.725 323.777C399.832 325.15 400.032 326.763 400.019 328.31C400.019 332.563 400.019 336.817 400.019 341.07C400.019 342.643 400.125 344.537 397.992 344.604C395.859 344.67 395.232 342.723 395.392 341.084C395.899 336.15 395.472 331.23 395.699 326.31C395.792 324.35 395.565 322.537 394.912 320.643C392.672 314.15 390.645 307.59 388.525 301.057C388.165 299.937 388.232 298.897 389.312 298.244C390.579 297.484 391.539 298.164 392.325 299.137C393.312 300.364 393.805 301.83 394.245 303.324C395.619 308.03 397.032 312.71 398.432 317.404C398.685 317.404 398.939 317.39 399.192 317.377L399.219 317.404Z" fill="black"/>
<path d="M494.298 422.083C494.325 425.763 494.205 429.43 493.832 433.083C493.658 434.79 493.938 436.083 495.965 436.537C497.485 436.883 498.645 437.896 498.338 439.656C498.005 441.55 496.432 441.537 494.938 441.59C492.618 441.67 490.298 441.817 487.992 441.937C486.272 442.03 484.485 441.963 483.952 439.976C483.378 437.896 484.872 437.017 486.618 436.577C488.765 436.03 488.712 434.243 488.805 432.643C489.165 426.75 488.738 420.843 489.445 414.963C489.898 411.217 490.218 407.457 490.618 403.71C490.792 402.083 490.525 400.884 488.552 400.604C487.232 400.417 486.058 399.697 486.218 398.137C486.392 396.497 487.672 395.91 489.152 395.91C492.925 395.91 496.712 395.923 500.472 396.11C502.258 396.203 504.245 396.75 504.018 399.057C503.805 401.23 501.885 401.163 500.165 401.057C496.085 400.79 495.738 401.123 495.578 405.297C495.378 410.897 493.792 416.403 494.325 422.07L494.298 422.083Z" fill="black"/>
<path d="M766.684 421.483C766.724 425.163 766.604 428.83 766.231 432.497C766.057 434.19 766.311 435.51 768.351 435.963C769.871 436.296 771.031 437.323 770.737 439.083C770.417 440.977 768.844 440.976 767.337 441.03C765.017 441.11 762.697 441.243 760.391 441.377C758.671 441.47 756.884 441.403 756.337 439.43C755.764 437.35 757.244 436.47 758.991 436.03C761.151 435.497 761.097 433.71 761.191 432.097C761.537 426.11 761.137 420.097 761.844 414.123C762.271 410.47 762.604 406.817 762.991 403.163C763.164 401.55 762.911 400.323 760.924 400.057C759.617 399.87 758.417 399.164 758.577 397.604C758.737 395.964 760.017 395.363 761.497 395.363C765.364 395.377 769.244 395.404 773.111 395.604C774.804 395.697 776.617 396.363 776.377 398.497C776.137 400.683 774.257 400.617 772.537 400.51C768.444 400.243 768.111 400.563 767.937 404.737C767.711 410.337 766.204 415.843 766.671 421.497L766.684 421.483Z" fill="black"/>
<path d="M558.872 324.309C558.952 328.083 558.765 331.843 558.419 335.603C558.259 337.27 558.699 338.363 560.525 338.79C562.045 339.15 563.219 340.123 562.939 341.896C562.645 343.79 561.072 343.816 559.565 343.87C557.059 343.963 554.539 344.163 552.032 344.243C550.392 344.296 548.805 343.936 548.459 342.03C548.139 340.256 549.325 339.296 550.872 338.976C553.192 338.496 553.285 336.736 553.379 334.976C553.712 328.989 553.325 322.976 554.019 317.003C554.459 313.256 554.779 309.496 555.179 305.75C555.352 304.163 554.899 303.176 553.139 302.91C551.832 302.71 550.632 302.043 550.752 300.47C550.885 298.816 552.165 298.203 553.645 298.203C557.512 298.203 561.392 298.296 565.259 298.43C565.992 298.456 566.779 298.776 567.432 299.15C568.325 299.656 568.805 300.523 568.565 301.603C568.352 302.55 567.672 303.163 566.752 303.256C565.712 303.376 564.632 303.336 563.579 303.23C561.419 303.03 560.192 303.87 560.179 306.096C560.125 312.203 558.352 318.176 558.845 324.309H558.872Z" fill="black"/>
<path d="M928.444 324.283C928.538 328.056 928.364 331.83 928.004 335.577C927.844 337.217 928.231 338.35 930.084 338.777C931.604 339.123 932.791 340.097 932.538 341.857C932.258 343.75 930.698 343.803 929.191 343.857C926.778 343.95 924.364 344.11 921.951 344.217C920.218 344.283 918.471 344.083 918.071 342.03C917.698 340.096 919.084 339.257 920.724 338.87C922.884 338.363 922.884 336.603 922.978 334.976C923.324 328.99 922.924 322.976 923.631 317.003C924.071 313.257 924.391 309.497 924.791 305.75C924.964 304.177 924.551 303.177 922.778 302.883C921.364 302.657 920.084 301.937 920.418 300.19C920.724 298.577 922.084 298.15 923.524 298.163C927.111 298.177 930.684 298.243 934.271 298.323C934.938 298.337 935.618 298.497 936.258 298.723C937.564 299.177 938.471 300.043 938.178 301.55C937.911 302.91 936.778 303.297 935.551 303.403C933.804 303.563 931.724 302.31 930.391 304.15C929.258 305.71 929.898 307.723 929.671 309.537C929.058 314.43 928.204 319.31 928.471 324.27L928.444 324.283Z" fill="black"/>
<path d="M1194.23 349.082C1193.32 348.989 1192.11 348.896 1191.94 347.562C1191.75 346.229 1193.04 346.296 1193.86 345.856C1194.94 345.269 1198.78 345.576 1194.99 342.882C1193.66 341.936 1194.23 340.402 1195.28 339.309C1196.98 337.562 1199.6 337.349 1201 338.856C1202.31 340.269 1202.54 341.989 1201.96 343.749C1201.22 346.016 1196.78 349.082 1194.24 349.082H1194.23Z" fill="black"/>
<path d="M1151.83 431.856C1154.08 431.803 1156.71 434.23 1156.59 436.483C1156.47 438.776 1154.7 439.496 1152.76 439.71C1150.87 439.91 1148.32 437.496 1148.22 435.59C1148.11 433.59 1149.74 431.91 1151.83 431.856Z" fill="black"/>
<path d="M1168.16 440.016C1166.12 440.016 1164.68 438.323 1164.66 435.843C1164.63 433.736 1166.44 431.923 1168.52 431.963C1170.51 432.003 1172.76 434.136 1172.82 436.016C1172.87 437.816 1170.32 440.003 1168.16 440.016Z" fill="black"/>
<path d="M1187.03 439.722C1184.9 439.762 1181.83 437.576 1181.84 436.162C1181.87 434.109 1183.71 432.269 1185.75 432.229C1188.14 432.189 1190.1 434.202 1190.07 436.722C1190.04 438.829 1188.55 439.429 1187.02 439.722H1187.03Z" fill="black"/>
</svg>
