<svg width="1096" height="813" viewBox="0 0 1096 813" fill="none" xmlns="http://www.w3.org/2000/svg">
<path d="M1093.79 308.746C1092.5 266.335 1089.49 224.087 1078.75 184.144C1063.47 127.305 1037.89 81.3458 1000.94 48.9867C979.992 30.6415 956.707 22.4373 932.208 18.239C895.808 12.0008 859.29 11.1139 822.743 10.5373C786.52 9.96083 750.327 10.4191 714.119 13.4643C698.98 14.7356 683.752 15.9476 668.538 16.3172C631.503 17.2337 594.482 19.2295 557.446 19.5547C515.162 19.9243 472.878 19.7912 430.608 18.2834C399.545 17.1747 368.586 12.4443 337.76 6.8121C324.809 4.44689 311.813 2.68776 298.788 2.37733C278.902 1.8895 258.988 1.87467 239.102 2.33293C210.213 3.01293 181.471 6.13202 152.848 12.459C129.71 17.5738 108.198 27.6113 89.0817 46.6069C68.5162 67.0365 49.9762 89.9937 39.1834 123.373C28.8636 155.288 20.8357 188.076 16.0455 222.49C13.5025 240.806 8.96356 258.9 8.2539 277.304C7.5738 294.836 4.89776 312.102 5.28216 329.708C5.71091 349.561 2.29555 369.267 3.7001 389.134C5.13421 409.357 4.67597 429.624 8.2243 449.876C12.9406 476.721 22.0331 497.949 36.6256 516.457C59.3201 545.238 86.1692 555.764 115.576 556.813C134.826 557.493 154.09 557.065 173.354 556.932L48.6604 768.914L2 811C14.3304 804.481 25.9807 794.177 40.1592 798.065C41.9629 798.568 44.1363 797.888 45.9253 796.942C58.1226 790.482 70.8227 785.323 82.3252 776.926C118.015 750.894 152.966 722.94 187.814 694.691C222.203 666.796 253.828 632.973 287.951 604.532C302.794 592.159 313.188 572.158 324.055 554.079C324.173 553.887 324.277 553.694 324.395 553.502L325.356 553.458C334.67 560.465 344.739 556.799 354.364 556.577C363.737 556.37 373.125 554.921 382.558 554.552C426.764 552.837 471 553.059 515.191 551.861C551.695 550.871 588.154 545.978 624.628 543.021C642.029 541.602 659.431 540.08 676.862 539.607C707.806 538.779 738.795 537.271 769.71 538.66C813.384 540.612 857.028 540.464 900.702 540.656C934.988 540.804 968.194 533.176 1001.12 518.985C1038.39 502.916 1064.72 470.808 1082.24 422.927C1088.11 406.873 1089.47 389.06 1091.22 371.632C1093.3 350.833 1094.47 329.797 1093.82 308.732L1093.79 308.746Z" fill="white" stroke="black" stroke-width="3.99999" stroke-linecap="round" stroke-linejoin="round"/>
<path d="M260.248 179.215C252.115 196.775 248.448 215.508 243.715 233.921C242.181 239.855 242.035 247.041 234.035 247.295C225.901 247.548 224.195 240.535 222.355 234.281C217.741 218.602 215.022 202.255 205.382 186.042C204.022 205.842 199.608 223.522 200.968 241.655C202.075 256.468 197.662 270.615 196.702 285.162C196.355 290.308 193.781 294.908 187.435 294.148C181.608 293.455 179.528 289.068 179.101 283.735C178.955 281.921 178.835 280.055 179.101 278.268C183.861 246.655 182.742 214.575 186.781 182.868C188.395 170.268 187.341 157.348 187.581 144.562C187.688 138.935 188.008 132.922 195.035 131.682C202.088 130.442 205.515 135.615 207.915 141.095C215.461 158.375 222.542 175.855 228.221 193.868C229.088 196.642 230.555 199.228 232.755 204.148C238.195 186.508 242.915 171.175 247.661 155.868C249.008 151.522 250.141 147.042 252.035 142.935C254.008 138.642 257.288 135.242 262.581 135.535C268.008 135.842 270.421 139.815 271.781 144.402C275.461 156.708 277.395 169.335 277.781 182.162C278.648 211.615 278.288 241.148 283.208 270.348C283.461 271.841 283.435 273.388 283.475 274.908C283.608 280.668 281.968 285.628 275.395 286.041C269.128 286.428 265.901 281.975 265.221 276.388C264.088 267.042 262.208 257.761 262.635 248.241C263.688 225.201 259.728 202.348 260.261 179.215H260.248Z" fill="#55ADE1"/>
<path d="M646.061 329.215C646.434 323.495 648.007 320.681 653.287 321.588C659.114 322.601 664.567 324.135 668.114 329.588C671.047 334.081 671.06 337.881 667.434 343.241C665.905 345.508 666.42 347.09 668.98 347.988C673.314 349.508 677.06 354.535 676.98 358.708C676.887 363.335 673.434 367.548 668.607 369.055C664.874 370.215 661.034 370.655 657.167 370.975C656.1 371.068 655.087 371.148 654.074 371.615C651.207 372.948 649.714 372.175 649.3 368.961C648.927 366.081 648.94 363.161 648.66 360.281C647.634 349.695 647.901 338.988 646.061 329.201V329.215ZM657.78 365.175C661.247 364.961 664.1 364.521 666.887 363.615C669.314 362.828 671.154 361.455 671.047 358.722C670.94 356.148 669.754 354.055 667.127 353.148C663.714 351.962 660.194 351.428 656.58 351.295C654.434 351.215 653.527 352.055 653.794 354.215C654.114 356.801 654.42 359.401 654.607 362.015C654.78 364.415 655.794 365.615 657.767 365.188L657.78 365.175ZM651.82 330.495C652.234 333.562 652.634 336.628 653.061 339.695C653.914 345.855 654.474 346.322 659.794 343.028C665.567 339.455 666.94 334.082 660.354 329.428C659.06 328.508 657.327 328.175 655.78 327.655C651.74 326.308 651.607 326.415 651.834 330.508L651.82 330.495Z" fill="black"/>
<path d="M663.887 280.122C666.074 275.322 666.22 270.815 667.247 266.535C668.514 261.268 669.394 255.908 671.021 250.722C671.527 249.135 671.874 247.135 674.1 247.708C676.38 248.282 676.1 250.402 675.634 252.068C673.874 258.428 672.58 264.881 671.314 271.335C670.407 276.015 669.487 280.628 667.3 284.908C666.434 286.601 665.674 288.348 663.381 288.148C661.181 287.962 660.341 286.282 659.794 284.442C657.914 278.108 656.5 271.695 656.914 264.948C655.754 265.001 655.727 265.842 655.567 266.375C653.794 272.548 650.741 278.202 648.354 284.122C646.967 287.562 644.821 289.215 642.234 288.881C639.834 288.575 637.994 286.522 637.834 282.802C637.527 275.655 636.781 268.481 637.434 261.335C637.714 258.201 637.007 255.162 637.194 252.068C637.247 251.202 637.154 250.322 637.261 249.455C637.461 247.828 637.554 245.788 639.834 245.975C641.834 246.135 641.874 248.001 641.887 249.588C641.967 259.175 642.034 268.761 642.114 278.348C642.114 279.881 642.101 281.442 643.301 283.428C645.461 278.415 647.741 273.895 649.367 269.135C651.474 263.002 654.514 257.215 656.034 250.868C656.341 249.575 657.154 248.482 658.687 248.682C660.421 248.908 660.594 250.282 660.674 251.735C661.061 258.495 661.447 265.268 661.914 272.015C662.087 274.521 662.741 276.948 663.887 280.108V280.122Z" fill="black"/>
<path d="M290.208 283.508C289.915 277.015 292.569 270.948 292.889 264.548C293.142 259.455 294.528 254.628 296.208 249.855C296.835 248.095 297.702 246.508 298.942 245.108C303.582 239.855 310.302 241.175 312.582 247.882C314.115 252.401 314.688 257.122 315.368 261.828C316.608 270.442 317.688 279.108 320.408 287.428C320.902 288.948 320.888 290.361 319.368 291.255C317.622 292.268 316.342 291.255 315.422 289.921C313.408 287.041 313.048 283.601 312.435 280.281C311.884 277.304 310.097 275.77 307.075 275.682C304.568 275.615 302.062 275.335 299.555 275.068C297.755 274.882 296.795 275.628 296.608 277.415C296.302 280.495 295.982 283.575 295.675 286.668C295.475 288.682 295.195 290.842 292.569 290.748C289.809 290.642 289.955 288.415 290.049 286.415C290.089 285.442 290.155 284.481 290.208 283.508ZM307.008 270.282C308.008 269.735 310.568 271.335 310.155 268.495C309.315 262.682 309.288 256.735 307.475 251.068C307.075 249.815 306.955 248.135 305.288 247.988C303.555 247.842 302.875 249.402 302.275 250.695C299.768 256.122 298.902 261.935 298.368 267.828C298.262 269.055 298.675 269.602 299.915 269.682C302.222 269.828 304.528 270.055 306.995 270.268L307.008 270.282Z" fill="black"/>
<path d="M497.98 350.961C497.514 356.188 497.114 360.708 496.701 365.228C496.647 365.801 496.661 366.401 496.567 366.961C496.261 368.708 495.607 370.335 493.514 370.161C491.301 369.975 490.807 368.241 490.967 366.308C491.26 362.841 491.554 359.361 491.927 355.908C492.887 347.148 493.181 338.335 493.541 329.535C493.754 324.388 495.807 322.308 500.98 322.748C503.767 322.988 506.487 323.801 509.247 324.335C520.154 326.441 520.314 338.282 515.22 344.135C513.06 346.615 510.447 348.441 507.247 349.201C504.967 349.735 505.047 350.588 506.154 352.348C509.26 357.268 512.207 362.281 516.1 366.641C516.287 366.855 516.447 367.108 516.607 367.348C517.594 368.788 517.9 370.268 516.394 371.481C514.994 372.615 513.58 372.055 512.487 370.935C508.887 367.241 506.02 362.975 503.367 358.575C501.887 356.108 500.487 353.588 497.954 350.975L497.98 350.961ZM498.514 339.415C498.38 342.921 498.887 343.761 501.127 344.241C505.14 345.108 510.06 342.895 512.1 339.295C514.447 335.135 512.727 330.828 508.14 329.561C506.087 329.001 503.994 328.615 501.901 328.215C499.981 327.841 498.94 328.548 498.967 330.628C499.007 333.721 498.927 336.815 498.527 339.428L498.514 339.415Z" fill="black"/>
<path d="M688.594 258.482C688.594 261.149 688.434 263.815 688.62 266.469C689.06 272.589 688.407 278.655 687.794 284.722C687.714 285.482 687.567 286.268 687.327 286.988C687.007 287.975 686.341 288.682 685.234 288.735C684.007 288.789 683.247 288.082 682.821 286.988C682.341 285.775 682.367 284.482 682.567 283.255C684.261 272.575 683.167 261.802 683.567 251.082C683.621 249.735 683.634 248.362 683.914 247.055C684.234 245.575 685.087 244.309 686.767 244.162C688.514 244.015 689.407 245.202 689.914 246.655C693.607 257.255 700.527 266.495 703.087 277.588C703.127 277.762 703.3 277.895 703.767 278.562C704.38 273.522 705.487 268.949 704.861 264.335C704.074 258.522 704.687 252.735 704.634 246.935C704.634 246.282 704.807 245.575 705.074 244.975C705.607 243.709 706.541 242.869 708.007 243.162C709.34 243.429 709.994 244.509 709.901 245.749C708.914 258.269 711.727 270.922 708.447 283.349C708.22 284.189 708.074 285.068 707.727 285.855C707.061 287.348 705.994 288.469 704.221 288.495C702.541 288.509 701.554 287.442 700.927 286.042C699.42 282.682 697.794 279.349 696.994 275.735C695.581 269.402 692.047 264.082 689.314 258.375C689.074 258.415 688.82 258.442 688.58 258.482H688.594Z" fill="black"/>
<path d="M867.22 260.802C866.26 266.042 867.193 271.175 866.766 276.281C866.46 279.948 866.246 283.615 865.873 287.281C865.7 288.988 865.526 291.148 863.126 290.988C860.66 290.815 860.54 288.655 860.66 286.788C860.926 282.922 861.58 279.081 861.673 275.215C861.833 267.868 861.7 260.508 861.7 253.162C861.7 251.708 861.62 250.241 862.193 248.868C862.753 247.535 863.58 246.468 865.153 246.455C866.593 246.455 867.406 247.428 867.94 248.655C869.646 252.562 871.18 256.548 873.1 260.335C876.153 266.388 879.38 272.348 880.9 279.042C881.02 279.548 881.086 280.201 882.086 280.508C882.339 275.455 883.713 270.588 882.913 265.535C882.046 260.028 882.793 254.522 882.82 249.015C882.82 247.162 883.606 245.362 885.82 245.468C888.02 245.575 888.26 247.468 888.06 249.175C886.873 259.108 889.553 269.095 887.646 279.015C887.14 281.681 886.846 284.388 886.273 287.028C885.859 288.908 884.833 290.522 882.7 290.762C880.42 291.028 879.433 289.361 878.7 287.601C877.34 284.295 875.766 281.055 874.98 277.521C873.606 271.375 870.06 266.242 867.233 260.775L867.22 260.802Z" fill="black"/>
<path d="M332.062 341.868C332.062 347.375 332.168 352.881 332.021 358.375C331.928 361.855 331.488 365.322 331.115 368.788C330.941 370.375 330.528 372.095 328.461 371.961C326.315 371.828 325.875 370.055 325.981 368.335C326.235 364.468 326.888 360.628 326.981 356.762C327.141 349.415 327.008 342.055 327.022 334.708C327.022 333.362 327.021 331.975 327.275 330.655C327.568 329.068 328.355 327.628 330.168 327.428C332.061 327.215 332.835 328.615 333.475 330.122C335.075 333.855 336.568 337.655 338.395 341.268C341.462 347.321 344.675 353.281 346.208 359.975C346.328 360.481 346.408 361.135 347.381 361.482C347.675 356.522 349.008 351.735 348.248 346.802C347.395 341.202 348.101 335.588 348.128 329.988C348.128 328.135 348.901 326.335 351.115 326.428C353.315 326.522 353.568 328.415 353.368 330.122C352.181 340.055 354.848 350.041 352.955 359.961C352.448 362.628 352.168 365.335 351.581 367.975C351.168 369.855 350.155 371.468 348.021 371.721C345.741 372.001 344.741 370.335 344.021 368.588C342.648 365.281 341.075 362.041 340.301 358.508C338.928 352.361 335.381 347.228 332.808 341.641L332.075 341.868H332.062Z" fill="black"/>
<path d="M778.433 322.948C781.766 323.535 785.14 323.935 788.42 324.762C793.553 326.055 797.713 328.815 800.713 333.348C804.26 338.735 805.793 344.682 805.46 350.962C805.046 358.895 800.06 363.695 793.26 366.948C789.233 368.868 784.993 370.295 780.686 371.388C776.433 372.468 774.966 370.761 776.153 366.601C776.433 365.601 776.473 364.495 776.473 363.442C776.5 355.415 776.673 347.375 776.406 339.348C776.26 334.962 775.926 330.508 774.06 326.348C773.006 324.002 774.673 322.788 778.42 322.962L778.433 322.948ZM800.153 349.002C799.313 339.362 795.993 330.428 783.953 328.948C780.86 328.575 780.406 328.815 780.846 331.815C781.606 336.988 781.873 342.188 781.806 347.428C781.753 352.455 781.886 357.481 781.833 362.508C781.806 364.721 782.58 365.201 784.633 364.535C787.966 363.441 791.14 362.068 794.126 360.241C798.233 357.735 799.913 353.922 800.153 349.002Z" fill="black"/>
<path d="M924.3 270.988C923.646 277.908 920.886 283.561 914.406 286.908C909.446 289.455 904.086 290.761 898.646 291.788C897.433 292.015 896.113 291.975 894.9 291.748C893.22 291.441 892.193 290.121 892.846 288.548C895.206 282.841 894.62 276.735 895.473 270.841C896.366 264.721 896.58 258.535 896.206 252.335C896.113 250.788 896.033 249.295 895.46 247.802C894.553 245.442 895.446 243.908 897.86 244.215C911.326 245.948 921.633 250.388 923.673 266.001C923.886 267.628 924.073 269.255 924.286 270.988H924.3ZM918.393 269.802C918.446 260.628 914.78 253.028 904.566 250.722C902.113 250.162 901.38 250.655 901.5 253.055C901.793 258.962 901.46 264.855 900.846 270.735C900.406 274.868 900.153 279.015 899.753 283.162C899.566 285.108 900.246 285.828 902.246 285.388C904.713 284.841 907.1 284.082 909.433 283.122C916.1 280.402 918.46 276.908 918.393 269.815V269.802Z" fill="black"/>
<path d="M750.127 350.708C749.62 356.615 749.18 361.695 748.727 366.775C748.554 368.708 748.18 370.761 745.7 370.534C743.26 370.308 743.1 368.174 743.367 366.281C745.02 353.974 745.26 341.561 746.02 329.201C746.314 324.454 748.94 322.361 753.753 323.041C756.34 323.401 758.873 324.121 761.447 324.615C772.447 326.748 772.58 338.628 767.5 344.375C765.26 346.908 762.594 348.815 759.234 349.495C757.087 349.935 757.047 350.735 758.113 352.428C761.287 357.415 764.327 362.481 768.207 366.988C769.473 368.454 770.607 370.228 768.673 371.775C766.767 373.308 765.22 371.801 763.98 370.374C760.86 366.775 758.18 362.868 755.74 358.775C754.22 356.201 752.62 353.681 750.113 350.721L750.127 350.708ZM756.5 344.761C759.673 344.495 763.047 342.854 764.807 338.921C766.767 334.521 764.967 330.801 760.34 329.574C758.287 329.028 756.193 328.628 754.113 328.201C752.06 327.788 751.007 328.521 751.007 330.748C751.007 333.841 750.953 336.935 750.78 340.015C750.553 343.801 751.607 344.935 756.5 344.761Z" fill="black"/>
<path d="M542.714 270.402C542.261 275.708 541.834 280.708 541.368 285.695C541.288 286.548 541.128 287.428 540.808 288.228C540.434 289.201 539.608 289.762 538.528 289.748C537.314 289.722 536.514 289.028 536.194 287.908C535.994 287.175 535.874 286.361 535.968 285.628C537.648 273.228 537.874 260.722 538.648 248.255C538.928 243.668 541.514 241.548 546.168 242.148C548.754 242.482 551.288 243.215 553.861 243.695C565.288 245.842 565.208 258.095 559.874 263.788C557.634 266.175 555.021 267.988 551.781 268.655C549.901 269.042 549.568 269.708 550.634 271.388C553.808 276.375 556.821 281.468 560.714 285.961C560.968 286.255 561.221 286.548 561.448 286.868C562.341 288.175 562.808 289.588 561.488 290.802C560.034 292.135 558.514 291.508 557.381 290.268C555.808 288.561 554.301 286.775 552.981 284.868C550.354 281.028 547.901 277.081 545.341 273.201C544.714 272.255 544.208 271.162 542.701 270.415L542.714 270.402ZM543.688 255.215C543.688 255.215 543.568 255.215 543.501 255.215C543.501 256.175 543.541 257.148 543.501 258.108C543.261 263.348 544.781 264.695 550.034 263.735C552.594 263.268 554.754 261.975 556.368 259.948C559.941 255.442 558.101 249.948 552.594 248.588C550.621 248.095 548.634 247.695 546.648 247.308C544.754 246.948 543.648 247.602 543.688 249.708C543.728 251.548 543.688 253.375 543.688 255.215Z" fill="black"/>
<path d="M711.141 364.601C713.247 353.881 713.301 342.815 716.901 332.361C717.607 330.308 718.581 328.468 720.114 326.908C724.234 322.721 730.087 323.748 732.421 329.188C733.994 332.868 734.554 336.828 735.087 340.762C736.354 350.055 737.447 359.375 740.501 368.321C740.967 369.668 740.581 370.828 739.394 371.628C738.101 372.481 736.954 372.015 736.007 371.015C733.807 368.695 733.447 365.628 732.887 362.708C731.754 356.775 731.821 356.775 725.901 356.628C724.354 356.588 722.741 356.681 721.274 356.308C718.527 355.601 717.554 356.815 717.341 359.295C717.114 362.001 716.874 364.695 716.581 367.388C716.381 369.281 715.981 371.388 713.621 371.335C711.061 371.281 711.167 369.081 711.141 367.201C711.141 366.335 711.141 365.455 711.141 364.588V364.601ZM726.967 351.508C728.007 350.815 730.754 352.601 730.394 349.601C729.727 344.041 729.541 338.388 727.887 332.975C727.527 331.788 727.167 330.335 725.661 330.228C724.007 330.108 723.407 331.588 722.914 332.828C721.487 336.335 720.421 339.935 719.847 343.695C718.741 350.988 719.421 351.815 726.967 351.508Z" fill="black"/>
<path d="M454.087 349.281C454.114 354.255 453.74 359.121 451.247 363.628C446.834 371.641 434.394 372.961 428.367 366.095C422.901 359.868 421.914 352.668 423.301 344.908C424.034 340.815 424.514 336.602 426.261 332.802C428.501 327.935 431.741 324.108 437.714 323.855C443.661 323.588 447.647 326.335 450.154 331.601C451.781 335.041 453.02 338.575 453.634 342.335C454.007 344.641 454.167 346.948 454.087 349.281ZM438.274 364.708C443.727 364.761 446.687 362.908 447.714 358.135C449.581 349.522 449.154 340.975 444.847 333.041C441.981 327.775 435.727 327.628 432.274 332.561C431.207 334.095 430.447 335.748 430.074 337.575C429.461 340.601 428.927 343.655 428.314 346.695C427.501 350.668 428.527 354.495 429.874 358.041C431.327 361.855 433.567 365.548 438.26 364.721L438.274 364.708Z" fill="black"/>
<path d="M937.646 292.695C933.006 292.709 929.113 290.909 926.14 287.149C925.206 285.975 924.526 284.709 924.753 283.162C924.926 281.935 925.5 280.935 926.766 280.575C928.046 280.202 929.006 280.775 929.82 281.735C934.393 287.189 938.566 288.135 944.673 285.109C948.233 283.349 949.073 279.762 946.726 276.429C945.633 274.882 944.086 273.869 942.513 272.922C939.273 270.975 935.873 269.269 932.793 267.095C924.086 260.935 923.7 253.108 932.5 246.509C940.193 240.735 949.3 243.749 954.153 250.095C955.3 251.589 955.793 253.389 955.66 255.295C955.553 256.855 955.073 258.282 953.286 258.455C951.486 258.629 950.62 257.335 950.406 255.802C949.806 251.482 946.433 250.095 943.046 249.415C939.5 248.695 936.1 249.842 933.7 252.869C930.913 256.389 931.593 259.895 935.566 262.362C939.353 264.709 943.193 266.989 947.02 269.255C950.86 271.535 953.073 274.882 953.726 279.269C954.406 283.935 952.3 287.922 948.06 290.029C944.82 291.642 941.486 292.922 937.646 292.709V292.695Z" fill="black"/>
<path d="M766.94 291.948C762.02 291.762 757.766 289.828 754.82 285.468C753.766 283.908 753.366 282.268 754.766 280.668C756.113 279.135 757.98 279.375 759.406 281.242C763.646 286.722 769.726 287.588 775.393 283.508C777.566 281.948 777.886 278.775 776.1 275.908C775.1 274.308 773.62 273.228 772.006 272.295C768.58 270.308 764.98 268.522 761.78 266.202C752.726 259.642 753.78 251.549 762.38 245.415C768.513 241.042 777.46 242.588 782.486 248.188C784.166 250.055 785.14 252.255 784.94 254.802C784.82 256.362 784.073 257.669 782.326 257.789C780.673 257.895 780.006 256.708 779.58 255.308C778.38 251.415 775.34 248.842 771.633 248.508C767.78 248.162 763.62 250.535 761.873 254.082C760.593 256.682 761.94 259.909 765.166 261.815C768.833 263.989 772.526 266.108 776.166 268.308C780.766 271.095 783.113 275.122 782.926 280.602C782.806 284.215 781.3 286.868 778.193 288.708C774.78 290.722 771.166 291.922 766.953 291.935L766.94 291.948Z" fill="black"/>
<path d="M708.981 349.188C709.114 354.375 708.714 358.975 706.461 363.228C701.647 372.321 688.221 372.975 682.127 364.762C677.567 358.615 677.034 351.975 678.181 344.908C678.861 340.708 679.394 336.401 681.221 332.521C683.407 327.868 686.554 324.188 692.234 323.788C698.007 323.388 702.114 325.828 704.794 330.895C706.581 334.268 707.687 337.855 708.421 341.575C708.941 344.255 709.101 346.948 708.994 349.188H708.981ZM703.634 349.402C703.741 344.202 702.901 339.188 700.607 334.455C699.074 331.295 697.101 329.015 693.141 329.042C689.101 329.068 687.114 331.628 685.914 334.762C683.967 339.842 682.607 345.202 683.047 350.655C683.341 354.322 684.167 358.015 686.381 361.308C688.541 364.535 691.407 365.335 694.887 365.042C698.247 364.762 700.701 363.068 702.087 359.935C703.581 356.575 703.727 353.002 703.647 349.402H703.634Z" fill="black"/>
<path d="M822.514 263.935C822.1 270.655 820.714 277.175 817.7 283.215C812.46 293.748 801.887 293.975 794.287 287.789C789.78 284.122 788.474 278.042 789.207 272.362C790.234 264.402 793.674 257.149 798.394 250.655C802.154 245.469 807.66 243.815 813.234 245.669C817.314 247.029 819.9 249.869 821.14 253.909C822.14 257.162 822.527 260.535 822.514 263.949V263.935ZM817.474 263.602C817.047 260.775 817.127 257.949 816.247 255.242C814.554 250.069 809.007 248.269 804.567 251.442C802.714 252.762 801.367 254.522 800.287 256.482C797.194 262.095 794.34 267.802 794.634 274.469C794.807 278.469 795.14 282.628 799.02 284.882C805.06 288.388 810.42 286.655 813.447 280.375C816.007 275.082 816.954 269.362 817.474 263.602Z" fill="black"/>
<path d="M629.861 262.829C629.608 269.775 628.128 276.468 625.021 282.682C619.741 293.268 609.008 293.389 601.608 287.135C596.981 283.229 595.741 276.948 596.674 270.842C597.714 264.068 600.728 257.935 604.248 252.122C608.114 245.722 613.928 243.149 619.821 244.829C624.514 246.162 627.408 249.268 628.674 253.935C629.461 256.842 629.821 259.815 629.874 262.842L629.861 262.829ZM624.848 262.948C624.354 260.415 624.514 257.682 623.714 255.042C621.994 249.322 616.274 247.442 611.568 251.162C610.528 251.989 609.514 252.975 608.808 254.095C604.848 260.362 601.554 266.935 601.968 274.628C602.154 278.188 602.701 281.962 606.021 284.108C611.888 287.882 617.674 286.188 620.754 279.895C623.341 274.615 624.274 268.882 624.848 262.948Z" fill="black"/>
<path d="M496.581 263.868C496.141 270.775 494.767 277.495 491.528 283.668C486.074 294.055 475.248 293.775 468.208 287.642C463.741 283.748 462.448 277.575 463.368 271.575C464.408 264.695 467.448 258.468 471.048 252.588C475.101 245.988 481.008 243.602 487.221 245.642C491.314 246.975 493.914 249.802 495.181 253.829C496.194 257.082 496.581 260.442 496.581 263.868ZM491.554 263.535C491.088 261.028 491.194 258.295 490.434 255.668C489.474 252.322 487.301 250.335 483.901 249.922C480.034 249.455 477.434 251.775 475.554 254.682C471.514 260.908 468.234 267.508 468.701 275.202C468.928 278.922 469.381 282.922 473.208 284.988C479.381 288.322 484.567 286.602 487.581 280.255C490.061 275.042 491.008 269.415 491.554 263.535Z" fill="black"/>
<path d="M321.595 346.641C321.195 353.361 319.795 359.881 316.781 365.921C311.528 376.454 300.942 376.668 293.368 370.481C288.875 366.815 287.555 360.735 288.288 355.041C289.328 347.081 292.768 339.828 297.475 333.335C301.235 328.148 306.741 326.495 312.315 328.361C316.395 329.721 318.981 332.561 320.221 336.601C321.221 339.855 321.608 343.228 321.595 346.655V346.641ZM316.555 346.361C316.141 343.721 316.208 341.001 315.448 338.361C314.528 335.148 312.488 333.175 309.208 332.655C305.181 332.028 302.528 334.375 300.568 337.361C296.528 343.575 293.235 350.188 293.715 357.868C293.942 361.588 294.395 365.588 298.222 367.655C304.382 370.988 309.581 369.268 312.608 362.934C315.088 357.721 316.035 352.095 316.568 346.348L316.555 346.361Z" fill="black"/>
<path d="M850.7 267.295C850.327 260.962 852.487 254.828 852.127 248.482C852.047 247.028 852.9 245.788 854.487 245.615C856.22 245.428 857.127 246.588 857.58 248.108C858.18 250.135 857.713 252.202 857.367 254.162C856.02 261.722 856.62 269.442 855.54 277.002C854.207 286.335 848.287 291.948 838.993 293.068C834.087 293.655 829.087 290.015 827.18 284.561C825.567 279.961 825.607 275.215 825.953 270.468C826.367 264.868 826.82 259.282 826.98 253.655C827.033 251.735 827.42 249.802 827.86 247.935C828.167 246.588 829.153 245.708 830.647 245.975C832.1 246.242 832.753 247.322 832.687 248.735C832.287 257.148 831.887 265.562 831.447 273.975C831.273 277.295 831.473 280.575 832.807 283.655C834.193 286.868 836.7 288.055 840.087 287.268C846.927 285.682 850.207 281.068 850.687 272.228C850.78 270.588 850.687 268.935 850.687 267.282L850.7 267.295Z" fill="black"/>
<path d="M333.435 248.308C332.768 253.308 333.075 258.749 332.968 264.162C332.928 266.429 333.581 266.722 335.408 265.495C342.155 260.935 348.995 256.522 355.515 251.642C356.368 251.002 357.235 250.362 358.181 249.908C359.235 249.388 360.288 249.562 361.021 250.588C361.688 251.522 361.501 252.468 360.781 253.242C360.075 254.028 359.288 254.762 358.448 255.402C353.061 259.535 347.501 263.428 341.781 267.068C339.995 268.202 339.155 269.108 341.541 270.695C347.048 274.375 351.515 279.242 356.208 283.855C357.381 285.002 358.608 286.188 357.275 287.802C355.901 289.455 354.221 288.762 352.914 287.615C350.954 285.895 349.048 284.082 347.288 282.148C344.195 278.735 340.421 276.175 336.675 273.615C333.675 271.562 332.581 272.348 332.408 275.922C332.248 279.108 332.035 282.308 331.741 285.482C331.568 287.388 331.035 289.415 328.581 289.188C326.235 288.962 326.221 286.895 326.421 285.122C327.795 272.788 327.648 260.375 328.115 248.002C328.141 247.135 328.141 246.255 328.261 245.388C328.475 243.735 328.661 241.815 330.915 241.935C333.061 242.042 333.288 243.895 333.408 245.588C333.461 246.362 333.408 247.135 333.408 248.322L333.435 248.308Z" fill="black"/>
<path d="M554.274 327.388C553.54 332.895 553.74 338.135 553.767 343.361C553.767 344.201 553.354 345.321 554.154 345.815C555.14 346.401 555.94 345.348 556.687 344.841C563.407 340.255 570.087 335.601 576.794 330.988C577.58 330.441 578.394 329.868 579.274 329.521C580.26 329.121 581.194 329.441 581.82 330.361C582.38 331.188 582.314 332.081 581.674 332.788C580.834 333.708 579.914 334.588 578.927 335.348C573.62 339.428 568.14 343.255 562.487 346.841C560.54 348.068 560.14 348.988 562.354 350.481C567.847 354.175 572.314 359.041 577.007 363.641C578.194 364.801 579.354 366.001 577.994 367.588C576.714 369.095 575.127 368.521 573.847 367.481C572.34 366.268 570.82 365.001 569.607 363.508C566.567 359.761 562.461 357.281 558.887 354.188C558.314 353.694 557.594 353.335 556.901 353.001C554.274 351.735 553.381 352.268 553.194 355.135C552.994 358.321 552.794 361.508 552.554 364.695C552.501 365.455 552.367 366.241 552.114 366.961C551.66 368.268 550.754 369.148 549.287 368.961C547.767 368.761 547.141 367.588 547.181 366.241C547.261 363.628 547.527 361.028 547.741 358.415C548.594 348.081 548.461 337.721 548.901 327.375C548.954 326.121 549.074 324.855 549.287 323.628C549.5 322.481 550.22 321.668 551.447 321.615C552.807 321.561 553.647 322.415 553.887 323.655C554.141 324.975 554.167 326.335 554.26 327.401L554.274 327.388Z" fill="black"/>
<path d="M500.808 271.642C501.794 264.042 501.261 256.349 502.128 248.735C502.154 248.442 502.154 248.148 502.221 247.868C502.634 246.122 502.634 243.682 505.128 243.922C507.954 244.202 507.114 246.602 507.087 248.508C506.914 257.522 505.968 266.495 506.274 275.522C506.274 275.722 506.274 275.909 506.301 276.109C506.594 280.562 508.754 284.042 511.621 284.682C514.821 285.402 520.354 282.855 522.194 279.735C524.421 275.962 525.474 271.775 525.168 267.482C524.861 263.269 525.261 259.162 525.994 255.055C526.474 252.375 526.581 249.668 526.594 246.948C526.594 245.242 527.021 243.695 529.021 243.615C531.154 243.535 531.741 245.175 531.901 246.935C532.274 251.135 531.514 255.268 530.701 259.335C529.674 264.415 530.981 269.535 529.848 274.668C527.928 283.348 522.954 288.508 514.168 290.015C509.314 290.842 504.034 287.455 502.221 282.255C501.034 278.828 500.688 275.268 500.808 271.642Z" fill="black"/>
<path d="M482.008 347.068C481.728 340.348 483.688 333.815 483.728 327.122C483.728 325.842 484.501 324.855 485.874 324.789C487.328 324.722 488.154 325.655 488.607 326.962C489.381 329.175 488.901 331.482 488.488 333.575C487.088 340.762 487.834 348.082 486.701 355.255C485.408 363.348 481.034 368.575 472.728 370.335C466.954 371.562 461.901 368.962 459.688 363.428C457.714 358.468 457.914 353.335 458.234 348.215C458.581 342.802 459.114 337.415 459.261 331.988C459.301 330.362 459.621 328.709 460.008 327.122C460.301 325.922 461.128 324.975 462.514 325.175C464.034 325.402 464.648 326.588 464.461 327.962C463.741 333.362 464.381 338.815 463.794 344.215C463.354 348.188 463.354 352.148 463.461 356.122C463.608 361.388 465.581 364.721 468.821 365.535C472.421 366.428 477.728 363.508 479.928 359.508C482.074 355.588 482.141 351.335 482.008 347.055V347.068Z" fill="black"/>
<path d="M586.62 361.655C587.26 350.828 588.047 340.002 587.74 329.135C587.66 326.548 589.26 324.882 591.513 324.148C596.513 322.535 601.66 321.588 606.967 322.002C607.153 322.015 607.353 322.042 607.54 322.082C608.94 322.428 610.273 322.988 610.087 324.708C609.913 326.242 608.62 326.695 607.287 326.708C603.593 326.735 599.94 326.975 596.287 327.561C593.593 328.001 592.447 329.095 592.62 331.948C592.847 335.708 592.793 339.508 592.647 343.281C592.553 345.601 593.567 346.375 595.714 346.442C598.807 346.535 601.913 346.095 604.993 346.855C606.633 347.268 608.553 347.548 608.153 349.788C607.793 351.802 606.007 351.575 604.394 351.482C600.914 351.282 597.433 351.242 593.953 351.055C592.873 351.002 592.234 351.295 592.207 352.428C592.127 355.908 591.433 359.348 591.58 362.868C591.673 364.908 592.58 365.521 594.46 365.601C597.94 365.721 601.42 366.001 604.9 366.255C605.66 366.308 606.447 366.441 607.167 366.681C608.38 367.095 609.153 367.948 608.927 369.321C608.727 370.548 607.807 371.148 606.647 371.175C601.007 371.321 595.42 370.708 589.86 369.948C587.807 369.668 586.727 368.108 586.647 366.015C586.593 364.561 586.647 363.108 586.647 361.655H586.62Z" fill="black"/>
<path d="M366.462 283.321C367.075 272.388 367.862 261.481 367.582 250.508C367.502 247.655 369.488 246.042 371.942 245.348C376.608 244.042 381.368 243.042 386.288 243.415C387.955 243.548 389.928 243.762 389.875 245.948C389.835 248.201 387.808 248.228 386.155 248.188C382.448 248.095 378.808 248.548 375.168 249.228C373.222 249.588 372.382 250.548 372.448 252.601C372.568 256.761 372.542 260.935 372.448 265.108C372.408 267.188 373.475 267.801 375.302 267.881C378.582 268.041 381.902 267.548 385.155 268.388C386.648 268.775 388.208 269.202 387.995 271.055C387.755 273.122 386.035 273.241 384.408 272.948C380.848 272.295 377.235 273.148 373.675 272.548C372.555 272.361 372.022 272.895 372.008 273.975C371.942 277.455 371.222 280.895 371.395 284.415C371.488 286.268 372.248 286.975 374.048 287.055C377.528 287.201 381.008 287.455 384.488 287.721C385.435 287.788 386.422 287.975 387.315 288.308C388.302 288.668 388.875 289.495 388.782 290.588C388.675 291.828 387.862 292.575 386.675 292.615C380.848 292.855 375.062 292.215 369.315 291.321C367.542 291.041 366.568 289.548 366.475 287.708C366.395 286.255 366.462 284.801 366.462 283.348V283.321Z" fill="black"/>
<path d="M447.381 263.308C448.821 260.695 449.981 258.708 451.034 256.668C453.447 251.975 456.607 247.828 460.127 243.935C461.22 242.735 462.527 241.575 464.074 243.015C465.447 244.282 464.7 245.775 463.66 246.881C457.5 253.375 454.181 261.682 449.407 269.055C448.567 270.362 448.647 271.828 448.647 273.281C448.634 277.735 448.647 282.188 448.647 286.655C448.647 288.228 448.741 290.041 446.541 290.095C444.554 290.135 443.94 288.575 443.94 286.895C443.967 281.481 443.981 276.055 444.234 270.641C444.407 266.775 442.341 263.588 441.234 260.162C439.741 255.562 439.021 250.721 436.901 246.322C436.341 245.148 436.7 243.988 437.967 243.375C439.127 242.828 440.061 243.375 440.741 244.308C441.781 245.722 442.447 247.335 442.901 249.042C444.114 253.615 445.447 258.148 447.381 263.308Z" fill="black"/>
<path d="M626.821 344.708C629.981 338.948 632.847 333.001 637.261 328.041C638.034 327.175 638.754 326.268 639.554 325.415C640.567 324.335 641.767 323.628 643.087 324.828C644.261 325.895 643.821 327.148 643.007 328.228C641.087 330.788 639.074 333.268 637.194 335.841C633.634 340.695 631.647 346.468 628.141 351.375C627.274 352.588 627.567 354.188 627.567 355.628C627.567 359.881 627.567 364.135 627.567 368.388C627.567 369.975 627.634 371.855 625.514 371.895C623.394 371.921 622.767 369.988 622.941 368.348C623.461 363.415 623.007 358.495 623.247 353.575C623.341 351.601 623.087 349.801 622.434 347.921C620.194 341.428 618.167 334.868 616.061 328.335C615.701 327.215 615.794 326.175 616.887 325.535C618.154 324.801 619.127 325.495 619.901 326.468C620.887 327.695 621.367 329.161 621.807 330.668C623.181 335.361 624.594 340.041 625.994 344.735C626.261 344.735 626.541 344.735 626.807 344.721L626.821 344.708Z" fill="black"/>
<path d="M406.941 344.975C409.288 340.828 411.195 337.375 413.195 333.962C415.061 330.775 417.475 327.988 419.915 325.228C420.928 324.095 422.128 323.015 423.635 324.268C425.128 325.508 424.421 326.988 423.381 328.095C417.168 334.668 413.795 343.042 408.968 350.495C408.075 351.882 408.222 353.468 408.222 355.015C408.222 359.268 408.235 363.522 408.222 367.775C408.222 369.428 408.381 371.481 406.021 371.388C403.942 371.308 403.408 369.321 403.595 367.695C404.155 362.868 403.688 358.028 403.915 353.201C404.008 351.135 403.742 349.241 403.062 347.268C400.848 340.868 398.861 334.388 396.781 327.948C396.381 326.708 396.435 325.575 397.702 324.948C398.995 324.308 399.955 325.095 400.661 326.082C402.408 328.508 402.755 331.455 403.608 334.228C404.635 337.535 405.661 340.841 406.955 344.975H406.941Z" fill="black"/>
</svg>
