<svg width="1096" height="813" viewBox="0 0 1096 813" fill="none" xmlns="http://www.w3.org/2000/svg">
<path d="M2.20962 308.747C3.49589 266.335 6.51199 224.087 17.2457 184.144C32.533 127.305 58.1106 81.346 95.0575 48.9869C116.007 30.6417 139.293 22.4373 163.792 18.239C200.191 12.0008 236.71 11.1139 273.257 10.5373C309.48 9.96082 345.673 10.4191 381.881 13.4643C397.02 14.7356 412.248 15.9476 427.462 16.3172C464.497 17.2337 501.518 19.2297 538.554 19.5549C580.838 19.9244 623.122 19.7912 665.392 18.2834C696.455 17.1747 727.414 12.4443 758.24 6.8121C771.191 4.44689 784.187 2.68776 797.212 2.37733C817.097 1.8895 837.013 1.87467 856.898 2.33293C885.787 3.01293 914.529 6.1322 943.152 12.4592C966.29 17.5739 987.802 27.6111 1006.92 46.6067C1027.48 67.0363 1046.02 89.9939 1056.82 123.373C1067.14 155.289 1075.16 188.076 1079.95 222.49C1082.5 240.806 1087.04 258.9 1087.75 277.304C1088.43 294.836 1091.1 312.102 1090.72 329.708C1090.29 349.561 1093.7 369.267 1092.3 389.134C1090.87 409.357 1091.32 429.624 1087.78 449.876C1083.06 476.721 1073.97 497.949 1059.37 516.457C1036.68 545.239 1009.83 555.764 980.424 556.813C961.174 557.493 941.91 557.065 922.646 556.932L1047.34 768.914L1094 811C1081.67 804.481 1070.02 794.177 1055.84 798.065C1054.04 798.568 1051.86 797.888 1050.07 796.942C1037.88 790.482 1025.18 785.323 1013.67 776.926C977.985 750.894 943.034 722.94 908.186 694.691C873.797 666.796 842.172 632.973 808.049 604.532C793.205 592.159 782.812 572.158 771.945 554.078C771.827 553.886 771.723 553.694 771.605 553.502L770.644 553.458C761.33 560.465 751.261 556.799 741.637 556.577C732.263 556.37 722.875 554.921 713.442 554.552C669.236 552.837 625 553.058 580.809 551.861C544.305 550.871 507.846 545.978 471.372 543.021C453.971 541.602 436.569 540.079 419.138 539.606C388.194 538.778 357.205 537.271 326.29 538.66C282.616 540.612 238.972 540.464 195.298 540.656C161.012 540.804 127.806 533.176 94.8801 518.985C57.6079 502.916 31.2764 470.808 13.7565 422.927C7.88697 406.873 6.52676 389.06 4.78217 371.632C2.69753 350.833 1.52954 329.797 2.18007 308.732L2.20962 308.747Z" fill="white" stroke="black" stroke-width="3.99999" stroke-linecap="round" stroke-linejoin="round"/>
<path d="M264.879 199.215C256.746 216.775 253.079 235.508 248.346 253.921C246.812 259.855 246.666 267.041 238.666 267.295C230.532 267.548 228.826 260.535 226.986 254.281C222.372 238.602 219.652 222.255 210.012 206.042C208.652 225.842 204.239 243.522 205.599 261.655C206.706 276.468 202.292 290.615 201.332 305.162C200.986 310.308 198.412 314.908 192.066 314.148C186.239 313.455 184.159 309.068 183.732 303.735C183.586 301.921 183.466 300.055 183.732 298.268C188.492 266.655 187.372 234.575 191.412 202.868C193.026 190.268 191.972 177.348 192.212 164.562C192.319 158.935 192.639 152.922 199.666 151.682C206.719 150.442 210.146 155.615 212.546 161.095C220.092 178.375 227.172 195.855 232.852 213.868C233.719 216.642 235.186 219.228 237.386 224.148C242.826 206.508 247.546 191.175 252.292 175.868C253.639 171.522 254.772 167.042 256.666 162.935C258.639 158.642 261.919 155.242 267.212 155.535C272.639 155.842 275.052 159.815 276.412 164.402C280.092 176.708 282.025 189.335 282.412 202.162C283.279 231.615 282.919 261.148 287.839 290.348C288.092 291.841 288.065 293.388 288.105 294.908C288.239 300.668 286.599 305.628 280.025 306.041C273.759 306.428 270.532 301.975 269.852 296.388C268.719 287.042 266.839 277.761 267.265 268.241C268.319 245.201 264.359 222.348 264.892 199.215H264.879Z" fill="#55ADE1"/>
<path d="M650.678 349.215C651.051 343.495 652.624 340.681 657.904 341.588C663.731 342.601 669.184 344.135 672.731 349.588C675.664 354.081 675.678 357.881 672.051 363.241C670.522 365.508 671.038 367.09 673.598 367.988C677.931 369.508 681.678 374.535 681.598 378.708C681.504 383.335 678.051 387.548 673.224 389.055C669.491 390.215 665.651 390.655 661.784 390.975C660.718 391.068 659.704 391.148 658.691 391.615C655.824 392.948 654.331 392.175 653.918 388.961C653.544 386.081 653.558 383.161 653.278 380.281C652.251 369.695 652.518 358.988 650.678 349.201V349.215ZM662.398 385.175C665.864 384.961 668.718 384.521 671.504 383.615C673.931 382.828 675.771 381.455 675.664 378.722C675.558 376.148 674.371 374.055 671.744 373.148C668.331 371.962 664.811 371.428 661.198 371.295C659.051 371.215 658.144 372.055 658.411 374.215C658.731 376.801 659.038 379.401 659.224 382.015C659.398 384.415 660.411 385.615 662.384 385.188L662.398 385.175ZM656.438 350.495C656.851 353.562 657.251 356.628 657.678 359.695C658.531 365.855 659.091 366.322 664.411 363.028C670.184 359.455 671.558 354.082 664.971 349.428C663.678 348.508 661.944 348.175 660.398 347.655C656.358 346.308 656.224 346.415 656.451 350.508L656.438 350.495Z" fill="black"/>
<path d="M668.504 300.122C670.691 295.322 670.838 290.815 671.864 286.535C673.131 281.268 674.011 275.908 675.638 270.722C676.144 269.135 676.491 267.135 678.718 267.708C680.998 268.282 680.718 270.402 680.251 272.068C678.491 278.428 677.198 284.881 675.931 291.335C675.024 296.015 674.104 300.628 671.918 304.908C671.051 306.601 670.291 308.348 667.998 308.148C665.798 307.962 664.958 306.282 664.411 304.442C662.531 298.108 661.118 291.695 661.531 284.948C660.371 285.001 660.344 285.842 660.184 286.375C658.411 292.548 655.358 298.202 652.971 304.122C651.584 307.562 649.438 309.215 646.851 308.881C644.451 308.575 642.611 306.522 642.451 302.802C642.145 295.655 641.398 288.481 642.051 281.335C642.331 278.201 641.624 275.162 641.811 272.068C641.864 271.202 641.771 270.322 641.878 269.455C642.078 267.828 642.171 265.788 644.451 265.975C646.451 266.135 646.491 268.001 646.505 269.588C646.585 279.175 646.651 288.761 646.731 298.348C646.731 299.881 646.718 301.442 647.918 303.428C650.078 298.415 652.358 293.895 653.984 289.135C656.091 283.002 659.131 277.215 660.651 270.868C660.958 269.575 661.771 268.482 663.304 268.682C665.038 268.908 665.211 270.282 665.291 271.735C665.678 278.495 666.064 285.268 666.531 292.015C666.704 294.521 667.358 296.948 668.504 300.108V300.122Z" fill="black"/>
<path d="M294.838 303.508C294.545 297.014 297.198 290.948 297.518 284.548C297.772 279.454 299.158 274.628 300.838 269.854C301.465 268.094 302.332 266.508 303.572 265.108C308.212 259.855 314.932 261.174 317.212 267.881C318.745 272.401 319.318 277.121 319.998 281.828C321.238 290.441 322.318 299.108 325.038 307.428C325.532 308.948 325.518 310.361 323.998 311.254C322.252 312.268 320.972 311.254 320.052 309.921C318.038 307.041 317.678 303.601 317.065 300.281C316.514 297.303 314.727 295.77 311.705 295.681C309.198 295.614 306.692 295.334 304.185 295.068C302.385 294.881 301.425 295.628 301.238 297.414C300.932 300.494 300.612 303.574 300.305 306.668C300.105 308.681 299.825 310.841 297.198 310.748C294.438 310.641 294.585 308.414 294.678 306.414C294.718 305.441 294.785 304.481 294.838 303.508ZM311.638 290.281C312.638 289.734 315.198 291.335 314.785 288.495C313.945 282.681 313.918 276.735 312.105 271.068C311.705 269.815 311.585 268.134 309.918 267.988C308.185 267.841 307.505 269.401 306.905 270.694C304.398 276.121 303.532 281.935 302.998 287.828C302.892 289.055 303.305 289.601 304.545 289.681C306.852 289.828 309.158 290.054 311.625 290.268L311.638 290.281Z" fill="black"/>
<path d="M502.611 370.961C502.145 376.188 501.745 380.708 501.331 385.228C501.278 385.801 501.291 386.401 501.198 386.961C500.891 388.708 500.238 390.335 498.145 390.161C495.931 389.975 495.438 388.241 495.598 386.308C495.891 382.841 496.185 379.361 496.558 375.908C497.518 367.148 497.811 358.335 498.171 349.535C498.385 344.388 500.438 342.308 505.611 342.748C508.398 342.988 511.118 343.801 513.878 344.335C524.785 346.441 524.945 358.282 519.851 364.135C517.691 366.615 515.078 368.441 511.878 369.201C509.598 369.735 509.678 370.588 510.785 372.348C513.891 377.268 516.838 382.281 520.731 386.641C520.918 386.855 521.078 387.108 521.238 387.348C522.225 388.788 522.531 390.268 521.025 391.481C519.625 392.615 518.211 392.055 517.118 390.935C513.518 387.241 510.651 382.975 507.998 378.575C506.518 376.108 505.118 373.588 502.585 370.975L502.611 370.961ZM503.145 359.415C503.011 362.921 503.518 363.761 505.758 364.241C509.771 365.108 514.691 362.895 516.731 359.295C519.078 355.135 517.358 350.828 512.771 349.561C510.718 349.001 508.625 348.615 506.531 348.215C504.611 347.841 503.571 348.548 503.598 350.628C503.638 353.721 503.558 356.815 503.158 359.428L503.145 359.415Z" fill="black"/>
<path d="M693.225 278.482C693.225 281.149 693.065 283.815 693.251 286.469C693.691 292.589 693.038 298.655 692.425 304.722C692.345 305.482 692.198 306.268 691.958 306.988C691.638 307.975 690.971 308.682 689.865 308.735C688.638 308.789 687.878 308.082 687.451 306.988C686.971 305.775 686.998 304.482 687.198 303.255C688.891 292.575 687.798 281.802 688.198 271.082C688.251 269.735 688.265 268.362 688.545 267.055C688.865 265.575 689.718 264.309 691.398 264.162C693.145 264.015 694.038 265.202 694.545 266.655C698.238 277.255 705.158 286.495 707.718 297.588C707.758 297.762 707.931 297.895 708.398 298.562C709.011 293.522 710.118 288.949 709.491 284.335C708.705 278.522 709.318 272.735 709.265 266.935C709.265 266.282 709.438 265.575 709.705 264.975C710.238 263.709 711.171 262.869 712.638 263.162C713.971 263.429 714.625 264.509 714.531 265.749C713.545 278.269 716.358 290.922 713.078 303.349C712.851 304.189 712.705 305.068 712.358 305.855C711.691 307.348 710.625 308.469 708.851 308.495C707.171 308.509 706.185 307.442 705.558 306.042C704.051 302.682 702.425 299.349 701.625 295.735C700.211 289.402 696.678 284.082 693.945 278.375C693.705 278.415 693.451 278.442 693.211 278.482H693.225Z" fill="black"/>
<path d="M871.837 280.802C870.877 286.042 871.81 291.175 871.383 296.281C871.077 299.948 870.863 303.615 870.49 307.281C870.317 308.988 870.143 311.148 867.743 310.988C865.277 310.815 865.157 308.655 865.277 306.788C865.543 302.922 866.197 299.081 866.29 295.215C866.45 287.868 866.317 280.508 866.317 273.162C866.317 271.708 866.237 270.241 866.81 268.868C867.37 267.535 868.197 266.468 869.77 266.455C871.21 266.455 872.023 267.428 872.557 268.655C874.263 272.562 875.797 276.548 877.717 280.335C880.77 286.388 883.997 292.348 885.517 299.042C885.637 299.548 885.703 300.201 886.703 300.508C886.957 295.455 888.33 290.588 887.53 285.535C886.663 280.028 887.41 274.522 887.437 269.015C887.437 267.162 888.223 265.362 890.437 265.468C892.637 265.575 892.877 267.468 892.677 269.175C891.49 279.108 894.17 289.095 892.263 299.015C891.757 301.681 891.463 304.388 890.89 307.028C890.477 308.908 889.45 310.522 887.317 310.762C885.037 311.028 884.05 309.361 883.317 307.601C881.957 304.295 880.383 301.055 879.597 297.521C878.223 291.375 874.677 286.242 871.85 280.775L871.837 280.802Z" fill="black"/>
<path d="M336.679 361.868C336.679 367.375 336.785 372.881 336.639 378.375C336.545 381.855 336.105 385.322 335.732 388.788C335.559 390.375 335.145 392.095 333.079 391.961C330.932 391.828 330.492 390.055 330.599 388.335C330.852 384.468 331.505 380.628 331.599 376.762C331.759 369.415 331.625 362.055 331.639 354.708C331.639 353.362 331.639 351.975 331.892 350.655C332.185 349.068 332.972 347.628 334.785 347.428C336.679 347.215 337.452 348.615 338.092 350.122C339.692 353.855 341.185 357.655 343.012 361.268C346.079 367.321 349.292 373.281 350.825 379.975C350.945 380.481 351.025 381.135 351.999 381.482C352.292 376.522 353.625 371.735 352.865 366.802C352.012 361.202 352.719 355.588 352.745 349.988C352.745 348.135 353.519 346.335 355.732 346.428C357.932 346.522 358.185 348.415 357.985 350.122C356.799 360.055 359.465 370.041 357.572 379.961C357.065 382.628 356.785 385.335 356.199 387.975C355.785 389.855 354.772 391.468 352.639 391.721C350.359 392.001 349.359 390.335 348.639 388.588C347.265 385.281 345.692 382.041 344.919 378.508C343.545 372.361 339.999 367.228 337.425 361.641L336.692 361.868H336.679Z" fill="black"/>
<path d="M783.051 342.948C786.385 343.535 789.758 343.935 793.038 344.762C798.171 346.055 802.331 348.815 805.331 353.348C808.878 358.735 810.411 364.682 810.078 370.962C809.664 378.895 804.678 383.695 797.878 386.948C793.851 388.868 789.611 390.295 785.305 391.388C781.051 392.468 779.585 390.761 780.771 386.601C781.051 385.601 781.091 384.495 781.091 383.442C781.118 375.415 781.291 367.375 781.025 359.348C780.878 354.962 780.545 350.508 778.678 346.348C777.625 344.002 779.291 342.788 783.038 342.962L783.051 342.948ZM804.771 369.002C803.931 359.362 800.611 350.428 788.571 348.948C785.478 348.575 785.025 348.815 785.465 351.815C786.225 356.988 786.491 362.188 786.425 367.428C786.371 372.455 786.505 377.481 786.451 382.508C786.425 384.721 787.198 385.201 789.251 384.535C792.585 383.441 795.758 382.068 798.745 380.241C802.851 377.735 804.531 373.922 804.771 369.002Z" fill="black"/>
<path d="M928.917 290.988C928.263 297.908 925.503 303.561 919.024 306.908C914.064 309.455 908.704 310.761 903.264 311.788C902.05 312.015 900.73 311.975 899.517 311.748C897.837 311.441 896.81 310.121 897.464 308.548C899.824 302.841 899.237 296.735 900.09 290.841C900.984 284.721 901.197 278.535 900.824 272.335C900.73 270.788 900.65 269.295 900.077 267.802C899.17 265.442 900.064 263.908 902.477 264.215C915.943 265.948 926.25 270.388 928.29 286.001C928.503 287.628 928.69 289.255 928.903 290.988H928.917ZM923.01 289.802C923.063 280.628 919.397 273.028 909.184 270.722C906.73 270.162 905.997 270.655 906.117 273.055C906.41 278.962 906.077 284.855 905.463 290.735C905.023 294.868 904.77 299.015 904.37 303.162C904.184 305.108 904.864 305.828 906.864 305.388C909.33 304.841 911.717 304.082 914.05 303.122C920.717 300.402 923.077 296.908 923.01 289.815V289.802Z" fill="black"/>
<path d="M754.758 370.708C754.251 376.615 753.811 381.695 753.358 386.775C753.184 388.708 752.811 390.761 750.331 390.534C747.891 390.308 747.731 388.174 747.998 386.281C749.651 373.974 749.891 361.561 750.651 349.201C750.944 344.454 753.571 342.361 758.384 343.041C760.971 343.401 763.504 344.121 766.078 344.615C777.078 346.748 777.211 358.628 772.131 364.375C769.891 366.908 767.224 368.815 763.864 369.495C761.718 369.935 761.678 370.735 762.744 372.428C765.918 377.415 768.958 382.481 772.838 386.988C774.104 388.454 775.238 390.228 773.304 391.775C771.398 393.308 769.851 391.801 768.611 390.374C765.491 386.775 762.811 382.868 760.371 378.775C758.851 376.201 757.251 373.681 754.744 370.721L754.758 370.708ZM761.131 364.761C764.304 364.495 767.678 362.854 769.438 358.921C771.398 354.521 769.598 350.801 764.971 349.574C762.918 349.028 760.824 348.628 758.744 348.201C756.691 347.788 755.638 348.521 755.638 350.748C755.638 353.841 755.584 356.935 755.411 360.015C755.184 363.801 756.238 364.935 761.131 364.761Z" fill="black"/>
<path d="M547.332 290.402C546.878 295.708 546.452 300.708 545.985 305.695C545.905 306.548 545.745 307.428 545.425 308.228C545.052 309.201 544.225 309.762 543.145 309.748C541.932 309.722 541.132 309.028 540.812 307.908C540.612 307.175 540.492 306.361 540.585 305.628C542.265 293.228 542.492 280.722 543.265 268.255C543.545 263.668 546.132 261.548 550.785 262.148C553.372 262.482 555.905 263.215 558.478 263.695C569.905 265.842 569.825 278.095 564.492 283.788C562.252 286.175 559.638 287.988 556.398 288.655C554.518 289.042 554.185 289.708 555.252 291.388C558.425 296.375 561.438 301.468 565.332 305.961C565.585 306.255 565.838 306.548 566.065 306.868C566.958 308.175 567.425 309.588 566.105 310.802C564.652 312.135 563.132 311.508 561.998 310.268C560.425 308.561 558.918 306.775 557.598 304.868C554.972 301.028 552.518 297.081 549.958 293.201C549.332 292.255 548.825 291.162 547.318 290.415L547.332 290.402ZM548.305 275.215C548.305 275.215 548.185 275.215 548.118 275.215C548.118 276.175 548.158 277.148 548.118 278.108C547.878 283.348 549.398 284.695 554.652 283.735C557.212 283.268 559.372 281.975 560.985 279.948C564.558 275.442 562.718 269.948 557.212 268.588C555.238 268.095 553.252 267.695 551.265 267.308C549.372 266.948 548.265 267.602 548.305 269.708C548.345 271.548 548.305 273.375 548.305 275.215Z" fill="black"/>
<path d="M715.771 384.601C717.877 373.881 717.931 362.815 721.531 352.361C722.237 350.308 723.21 348.468 724.744 346.908C728.864 342.721 734.717 343.748 737.05 349.188C738.624 352.868 739.184 356.828 739.717 360.762C740.984 370.055 742.077 379.375 745.13 388.321C745.597 389.668 745.21 390.828 744.024 391.628C742.73 392.481 741.584 392.015 740.637 391.015C738.437 388.695 738.077 385.628 737.517 382.708C736.384 376.775 736.45 376.775 730.53 376.628C728.984 376.588 727.37 376.681 725.904 376.308C723.157 375.601 722.184 376.815 721.97 379.295C721.744 382.001 721.504 384.695 721.21 387.388C721.01 389.281 720.61 391.388 718.25 391.335C715.69 391.281 715.797 389.081 715.771 387.201C715.771 386.335 715.771 385.455 715.771 384.588V384.601ZM731.597 371.508C732.637 370.815 735.384 372.601 735.024 369.601C734.357 364.041 734.17 358.388 732.517 352.975C732.157 351.788 731.797 350.335 730.29 350.228C728.637 350.108 728.037 351.588 727.544 352.828C726.117 356.335 725.05 359.935 724.477 363.695C723.37 370.988 724.05 371.815 731.597 371.508Z" fill="black"/>
<path d="M458.718 369.281C458.745 374.255 458.371 379.121 455.878 383.628C451.465 391.641 439.025 392.961 432.998 386.095C427.531 379.868 426.545 372.668 427.931 364.908C428.665 360.815 429.145 356.602 430.891 352.802C433.131 347.935 436.371 344.108 442.345 343.855C448.291 343.588 452.278 346.335 454.785 351.601C456.411 355.041 457.651 358.575 458.265 362.335C458.638 364.641 458.798 366.948 458.718 369.281ZM442.905 384.708C448.358 384.761 451.318 382.908 452.345 378.135C454.211 369.522 453.785 360.975 449.478 353.041C446.611 347.775 440.358 347.628 436.905 352.561C435.838 354.095 435.078 355.748 434.705 357.575C434.091 360.601 433.558 363.655 432.945 366.695C432.131 370.668 433.158 374.495 434.505 378.041C435.958 381.855 438.198 385.548 442.891 384.721L442.905 384.708Z" fill="black"/>
<path d="M942.263 312.695C937.623 312.709 933.73 310.909 930.757 307.149C929.823 305.975 929.143 304.709 929.37 303.162C929.543 301.935 930.117 300.935 931.383 300.575C932.663 300.202 933.623 300.775 934.437 301.735C939.01 307.189 943.183 308.135 949.29 305.109C952.85 303.349 953.69 299.762 951.343 296.429C950.25 294.882 948.703 293.869 947.13 292.922C943.89 290.975 940.49 289.269 937.41 287.095C928.703 280.935 928.317 273.108 937.117 266.509C944.81 260.735 953.917 263.749 958.77 270.095C959.917 271.589 960.41 273.389 960.277 275.295C960.17 276.855 959.69 278.282 957.903 278.455C956.103 278.629 955.237 277.335 955.023 275.802C954.423 271.482 951.05 270.095 947.663 269.415C944.117 268.695 940.717 269.842 938.317 272.869C935.53 276.389 936.21 279.895 940.183 282.362C943.97 284.709 947.81 286.989 951.637 289.255C955.477 291.535 957.69 294.882 958.343 299.269C959.023 303.935 956.917 307.922 952.677 310.029C949.437 311.642 946.103 312.922 942.263 312.709V312.695Z" fill="black"/>
<path d="M771.558 311.948C766.638 311.762 762.384 309.828 759.438 305.468C758.385 303.908 757.984 302.268 759.384 300.668C760.731 299.135 762.598 299.375 764.024 301.242C768.264 306.722 774.344 307.588 780.011 303.508C782.184 301.948 782.504 298.775 780.718 295.908C779.718 294.308 778.238 293.228 776.624 292.295C773.198 290.308 769.598 288.522 766.398 286.202C757.344 279.642 758.398 271.549 766.998 265.415C773.131 261.042 782.078 262.588 787.104 268.188C788.784 270.055 789.758 272.255 789.558 274.802C789.438 276.362 788.691 277.669 786.944 277.789C785.291 277.895 784.624 276.708 784.198 275.308C782.998 271.415 779.958 268.842 776.251 268.508C772.398 268.162 768.238 270.535 766.491 274.082C765.211 276.682 766.558 279.909 769.784 281.815C773.451 283.989 777.144 286.108 780.784 288.308C785.384 291.095 787.731 295.122 787.544 300.602C787.424 304.215 785.918 306.868 782.811 308.708C779.398 310.722 775.784 311.922 771.571 311.935L771.558 311.948Z" fill="black"/>
<path d="M713.598 369.188C713.731 374.375 713.331 378.975 711.078 383.228C706.265 392.321 692.838 392.975 686.745 384.762C682.185 378.615 681.651 371.975 682.798 364.908C683.478 360.708 684.011 356.401 685.838 352.521C688.025 347.868 691.171 344.188 696.851 343.788C702.625 343.388 706.731 345.828 709.411 350.895C711.198 354.268 712.305 357.855 713.038 361.575C713.558 364.255 713.718 366.948 713.611 369.188H713.598ZM708.251 369.402C708.358 364.202 707.518 359.188 705.225 354.455C703.691 351.295 701.718 349.015 697.758 349.042C693.718 349.068 691.731 351.628 690.531 354.762C688.585 359.842 687.225 365.202 687.665 370.655C687.958 374.322 688.785 378.015 690.998 381.308C693.158 384.535 696.025 385.335 699.505 385.042C702.865 384.762 705.318 383.068 706.705 379.935C708.198 376.575 708.345 373.002 708.265 369.402H708.251Z" fill="black"/>
<path d="M827.144 283.935C826.731 290.655 825.345 297.175 822.331 303.215C817.091 313.748 806.518 313.975 798.918 307.789C794.411 304.122 793.105 298.042 793.838 292.362C794.865 284.402 798.305 277.149 803.025 270.655C806.785 265.469 812.291 263.815 817.865 265.669C821.945 267.029 824.531 269.869 825.771 273.909C826.771 277.162 827.158 280.535 827.144 283.949V283.935ZM822.105 283.602C821.678 280.775 821.758 277.949 820.878 275.242C819.184 270.069 813.638 268.269 809.198 271.442C807.345 272.762 805.998 274.522 804.918 276.482C801.825 282.095 798.971 287.802 799.265 294.469C799.438 298.469 799.771 302.628 803.651 304.882C809.691 308.388 815.051 306.655 818.078 300.375C820.638 295.082 821.585 289.362 822.105 283.602Z" fill="black"/>
<path d="M634.478 282.828C634.225 289.775 632.745 296.468 629.638 302.681C624.358 313.268 613.625 313.388 606.225 307.135C601.598 303.228 600.358 296.948 601.292 290.841C602.332 284.068 605.345 277.935 608.865 272.121C612.732 265.721 618.545 263.148 624.438 264.828C629.132 266.161 632.025 269.268 633.291 273.935C634.078 276.841 634.438 279.814 634.491 282.841L634.478 282.828ZM629.465 282.948C628.971 280.415 629.131 277.681 628.331 275.041C626.611 269.321 620.892 267.441 616.185 271.161C615.145 271.988 614.132 272.975 613.425 274.095C609.465 280.361 606.172 286.935 606.585 294.628C606.772 298.188 607.318 301.961 610.638 304.108C616.505 307.881 622.292 306.188 625.372 299.894C627.958 294.614 628.891 288.881 629.465 282.948Z" fill="black"/>
<path d="M501.198 283.868C500.758 290.774 499.385 297.495 496.145 303.668C490.691 314.055 479.865 313.775 472.825 307.641C468.358 303.748 467.065 297.575 467.985 291.575C469.025 284.695 472.065 278.468 475.665 272.588C479.718 265.988 485.625 263.601 491.838 265.641C495.931 266.975 498.531 269.801 499.798 273.828C500.811 277.081 501.198 280.441 501.198 283.868ZM496.171 283.535C495.705 281.028 495.811 278.295 495.051 275.668C494.091 272.321 491.918 270.335 488.518 269.921C484.651 269.455 482.051 271.775 480.171 274.681C476.131 280.908 472.851 287.508 473.318 295.201C473.545 298.921 473.998 302.921 477.825 304.988C483.998 308.321 489.185 306.601 492.198 300.255C494.678 295.041 495.625 289.414 496.171 283.535Z" fill="black"/>
<path d="M326.212 366.641C325.812 373.361 324.412 379.881 321.399 385.921C316.145 396.454 305.559 396.668 297.985 390.481C293.492 386.815 292.172 380.735 292.905 375.041C293.945 367.081 297.385 359.828 302.092 353.335C305.852 348.148 311.359 346.495 316.932 348.361C321.012 349.721 323.599 352.561 324.839 356.601C325.839 359.855 326.225 363.228 326.212 366.655V366.641ZM321.172 366.361C320.759 363.721 320.825 361.001 320.065 358.361C319.145 355.148 317.105 353.175 313.825 352.655C309.799 352.028 307.145 354.375 305.185 357.361C301.145 363.575 297.852 370.188 298.332 377.868C298.559 381.588 299.012 385.588 302.839 387.655C308.999 390.988 314.199 389.268 317.225 382.934C319.705 377.721 320.652 372.095 321.185 366.348L321.172 366.361Z" fill="black"/>
<path d="M855.331 287.294C854.958 280.961 857.118 274.828 856.758 268.481C856.678 267.028 857.531 265.788 859.118 265.614C860.851 265.428 861.757 266.588 862.211 268.108C862.811 270.135 862.344 272.201 861.998 274.161C860.651 281.721 861.251 289.441 860.171 297.001C858.838 306.334 852.918 311.948 843.624 313.068C838.718 313.654 833.718 310.014 831.811 304.561C830.198 299.961 830.238 295.215 830.584 290.468C830.998 284.868 831.451 279.281 831.611 273.654C831.664 271.734 832.051 269.801 832.491 267.934C832.798 266.588 833.784 265.708 835.278 265.974C836.731 266.241 837.384 267.321 837.318 268.735C836.918 277.148 836.518 285.561 836.078 293.974C835.904 297.294 836.104 300.574 837.438 303.654C838.824 306.868 841.331 308.054 844.718 307.268C851.558 305.681 854.838 301.068 855.318 292.228C855.411 290.588 855.318 288.934 855.318 287.281L855.331 287.294Z" fill="black"/>
<path d="M338.065 268.308C337.399 273.308 337.705 278.749 337.599 284.162C337.559 286.429 338.212 286.722 340.039 285.495C346.785 280.935 353.625 276.522 360.145 271.642C360.999 271.002 361.865 270.362 362.812 269.908C363.865 269.388 364.919 269.562 365.652 270.588C366.319 271.522 366.132 272.468 365.412 273.242C364.705 274.028 363.919 274.762 363.079 275.402C357.692 279.535 352.132 283.428 346.412 287.068C344.625 288.202 343.785 289.108 346.172 290.695C351.679 294.375 356.145 299.242 360.839 303.855C362.012 305.002 363.239 306.188 361.905 307.802C360.532 309.455 358.852 308.762 357.545 307.615C355.585 305.895 353.679 304.082 351.919 302.148C348.825 298.735 345.052 296.175 341.305 293.615C338.305 291.562 337.212 292.348 337.039 295.922C336.879 299.108 336.665 302.308 336.372 305.482C336.199 307.388 335.665 309.415 333.212 309.188C330.865 308.962 330.852 306.895 331.052 305.122C332.425 292.788 332.279 280.375 332.745 268.002C332.772 267.135 332.772 266.255 332.892 265.388C333.105 263.735 333.292 261.815 335.545 261.935C337.692 262.042 337.919 263.895 338.039 265.588C338.092 266.362 338.039 267.135 338.039 268.322L338.065 268.308Z" fill="black"/>
<path d="M558.905 347.388C558.171 352.895 558.371 358.135 558.398 363.361C558.398 364.201 557.985 365.321 558.785 365.815C559.771 366.401 560.571 365.348 561.318 364.841C568.038 360.255 574.718 355.601 581.425 350.988C582.211 350.441 583.025 349.868 583.905 349.521C584.891 349.121 585.825 349.441 586.451 350.361C587.011 351.188 586.945 352.081 586.305 352.788C585.465 353.708 584.545 354.588 583.558 355.348C578.251 359.428 572.771 363.255 567.118 366.841C565.171 368.068 564.771 368.988 566.985 370.481C572.478 374.175 576.945 379.041 581.638 383.641C582.825 384.801 583.985 386.001 582.625 387.588C581.345 389.095 579.758 388.521 578.478 387.481C576.971 386.268 575.451 385.001 574.238 383.508C571.198 379.761 567.091 377.281 563.518 374.188C562.945 373.694 562.225 373.335 561.531 373.001C558.905 371.735 558.011 372.268 557.825 375.135C557.625 378.321 557.425 381.508 557.185 384.695C557.131 385.455 556.998 386.241 556.745 386.961C556.291 388.268 555.385 389.148 553.918 388.961C552.398 388.761 551.771 387.588 551.811 386.241C551.891 383.628 552.158 381.028 552.371 378.415C553.225 368.081 553.091 357.721 553.531 347.375C553.585 346.121 553.705 344.855 553.918 343.628C554.131 342.481 554.851 341.668 556.078 341.615C557.438 341.561 558.278 342.415 558.518 343.655C558.771 344.975 558.798 346.335 558.891 347.401L558.905 347.388Z" fill="black"/>
<path d="M505.425 291.642C506.411 284.042 505.878 276.349 506.745 268.735C506.771 268.442 506.771 268.148 506.838 267.868C507.251 266.122 507.251 263.682 509.745 263.922C512.571 264.202 511.731 266.602 511.705 268.508C511.531 277.522 510.585 286.495 510.891 295.522C510.891 295.722 510.891 295.909 510.918 296.109C511.211 300.562 513.371 304.042 516.238 304.682C519.438 305.402 524.971 302.855 526.811 299.735C529.038 295.962 530.091 291.775 529.785 287.482C529.478 283.269 529.878 279.162 530.611 275.055C531.091 272.375 531.198 269.668 531.211 266.948C531.211 265.242 531.638 263.695 533.638 263.615C535.771 263.535 536.358 265.175 536.518 266.935C536.891 271.135 536.131 275.268 535.318 279.335C534.291 284.415 535.598 289.535 534.465 294.668C532.545 303.348 527.571 308.508 518.785 310.015C513.931 310.842 508.651 307.455 506.838 302.255C505.651 298.828 505.305 295.268 505.425 291.642Z" fill="black"/>
<path d="M486.625 367.068C486.345 360.348 488.305 353.815 488.345 347.122C488.345 345.842 489.118 344.855 490.491 344.789C491.945 344.722 492.771 345.655 493.225 346.962C493.998 349.175 493.518 351.482 493.105 353.575C491.705 360.762 492.451 368.082 491.318 375.255C490.025 383.348 485.651 388.575 477.345 390.335C471.572 391.562 466.518 388.962 464.305 383.428C462.332 378.468 462.532 373.335 462.852 368.215C463.198 362.802 463.732 357.415 463.878 351.988C463.918 350.362 464.238 348.709 464.625 347.122C464.918 345.922 465.745 344.975 467.132 345.175C468.652 345.402 469.265 346.588 469.078 347.962C468.358 353.362 468.998 358.815 468.412 364.215C467.972 368.188 467.972 372.148 468.078 376.122C468.225 381.388 470.198 384.721 473.438 385.535C477.038 386.428 482.345 383.508 484.545 379.508C486.691 375.588 486.758 371.335 486.625 367.055V367.068Z" fill="black"/>
<path d="M591.238 381.655C591.878 370.828 592.665 360.002 592.358 349.135C592.278 346.548 593.878 344.882 596.132 344.148C601.132 342.535 606.278 341.588 611.585 342.002C611.772 342.015 611.972 342.042 612.158 342.082C613.558 342.428 614.892 342.988 614.705 344.708C614.532 346.242 613.238 346.695 611.905 346.708C608.212 346.735 604.558 346.975 600.905 347.561C598.212 348.001 597.065 349.095 597.238 351.948C597.465 355.708 597.412 359.508 597.265 363.281C597.172 365.601 598.185 366.375 600.332 366.442C603.425 366.535 606.532 366.095 609.612 366.855C611.252 367.268 613.172 367.548 612.772 369.788C612.412 371.802 610.625 371.575 609.012 371.482C605.532 371.282 602.052 371.242 598.572 371.055C597.492 371.002 596.852 371.295 596.825 372.428C596.745 375.908 596.052 379.348 596.198 382.868C596.292 384.908 597.198 385.521 599.078 385.601C602.558 385.721 606.038 386.001 609.518 386.255C610.278 386.308 611.065 386.441 611.785 386.681C612.998 387.095 613.772 387.948 613.545 389.321C613.345 390.548 612.425 391.148 611.265 391.175C605.625 391.321 600.038 390.708 594.478 389.948C592.425 389.668 591.345 388.108 591.265 386.015C591.212 384.561 591.265 383.108 591.265 381.655H591.238Z" fill="black"/>
<path d="M371.079 303.321C371.692 292.388 372.479 281.481 372.199 270.508C372.119 267.655 374.105 266.042 376.559 265.348C381.225 264.042 385.985 263.042 390.905 263.415C392.572 263.548 394.545 263.762 394.492 265.948C394.452 268.201 392.425 268.228 390.772 268.188C387.065 268.095 383.425 268.548 379.785 269.228C377.839 269.588 376.999 270.548 377.065 272.601C377.185 276.761 377.159 280.935 377.065 285.108C377.025 287.188 378.092 287.801 379.919 287.881C383.199 288.041 386.519 287.548 389.772 288.388C391.265 288.775 392.825 289.202 392.612 291.055C392.372 293.122 390.652 293.241 389.025 292.948C385.465 292.295 381.852 293.148 378.292 292.548C377.172 292.361 376.639 292.895 376.625 293.975C376.559 297.455 375.839 300.895 376.012 304.415C376.105 306.268 376.865 306.975 378.665 307.055C382.145 307.201 385.625 307.455 389.105 307.721C390.052 307.788 391.039 307.975 391.932 308.308C392.919 308.668 393.492 309.495 393.399 310.588C393.292 311.828 392.479 312.575 391.292 312.615C385.465 312.855 379.679 312.215 373.932 311.321C372.159 311.041 371.185 309.548 371.092 307.708C371.012 306.255 371.079 304.801 371.079 303.348V303.321Z" fill="black"/>
<path d="M452.011 283.308C453.451 280.695 454.611 278.708 455.665 276.668C458.078 271.975 461.238 267.828 464.758 263.935C465.851 262.735 467.158 261.575 468.705 263.015C470.078 264.282 469.331 265.775 468.291 266.881C462.131 273.375 458.811 281.682 454.038 289.055C453.198 290.362 453.278 291.828 453.278 293.281C453.265 297.735 453.278 302.188 453.278 306.655C453.278 308.228 453.371 310.041 451.171 310.095C449.185 310.135 448.571 308.575 448.571 306.895C448.598 301.481 448.611 296.055 448.865 290.641C449.038 286.775 446.971 283.588 445.865 280.162C444.371 275.562 443.651 270.721 441.531 266.322C440.971 265.148 441.331 263.988 442.598 263.375C443.758 262.828 444.691 263.375 445.371 264.308C446.411 265.722 447.078 267.335 447.531 269.042C448.745 273.615 450.078 278.148 452.011 283.308Z" fill="black"/>
<path d="M631.452 364.708C634.612 358.948 637.478 353.001 641.891 348.041C642.665 347.175 643.385 346.268 644.185 345.415C645.198 344.335 646.398 343.628 647.718 344.828C648.891 345.895 648.451 347.148 647.638 348.228C645.718 350.788 643.705 353.268 641.825 355.841C638.265 360.695 636.278 366.468 632.772 371.375C631.905 372.588 632.198 374.188 632.198 375.628C632.198 379.881 632.198 384.135 632.198 388.388C632.198 389.975 632.265 391.855 630.145 391.895C628.025 391.921 627.398 389.988 627.572 388.348C628.092 383.415 627.638 378.495 627.878 373.575C627.972 371.601 627.718 369.801 627.065 367.921C624.825 361.428 622.798 354.868 620.692 348.335C620.332 347.215 620.425 346.175 621.518 345.535C622.785 344.801 623.758 345.495 624.532 346.468C625.518 347.695 625.998 349.161 626.438 350.668C627.812 355.361 629.225 360.041 630.625 364.735C630.891 364.735 631.172 364.735 631.438 364.721L631.452 364.708Z" fill="black"/>
<path d="M411.571 364.975C413.918 360.828 415.825 357.375 417.825 353.962C419.691 350.775 422.105 347.988 424.545 345.228C425.558 344.095 426.758 343.015 428.265 344.268C429.758 345.508 429.051 346.988 428.011 348.095C421.798 354.668 418.425 363.042 413.598 370.495C412.705 371.882 412.851 373.468 412.851 375.015C412.851 379.268 412.865 383.522 412.851 387.775C412.851 389.428 413.011 391.481 410.651 391.388C408.571 391.308 408.038 389.321 408.225 387.695C408.785 382.868 408.318 378.028 408.545 373.201C408.638 371.135 408.371 369.241 407.691 367.268C405.478 360.868 403.491 354.388 401.411 347.948C401.011 346.708 401.065 345.575 402.331 344.948C403.625 344.308 404.585 345.095 405.291 346.082C407.038 348.508 407.385 351.455 408.238 354.228C409.265 357.535 410.291 360.841 411.585 364.975H411.571Z" fill="black"/>
</svg>
