<svg width="883" height="655" viewBox="0 0 883 655" fill="none" xmlns="http://www.w3.org/2000/svg">
<path d="M880.797 248.86C879.77 214.753 877.344 180.767 868.704 148.647C856.411 102.927 835.837 65.9673 806.131 39.954C789.277 25.1941 770.558 18.5937 750.865 15.2204C721.585 10.2071 692.225 9.48688 662.838 9.03355C633.718 8.58022 604.611 8.94024 575.491 11.3936C563.318 12.4202 551.078 13.3805 538.838 13.6872C509.065 14.4205 479.278 16.0341 449.505 16.2874C415.505 16.5808 381.492 16.4741 347.505 15.2607C322.532 14.3674 297.639 10.5669 272.839 6.03356C262.425 4.1269 251.972 2.71399 241.492 2.46065C225.492 2.07399 209.492 2.06063 193.492 2.43396C170.252 2.98063 147.146 5.4871 124.133 10.5804C105.533 14.6871 88.226 22.7672 72.8527 38.0471C56.3194 54.4738 41.413 72.9535 32.733 99.78C24.4263 125.447 17.9731 151.82 14.1331 179.5C12.0798 194.233 8.43953 208.78 7.8662 223.594C7.31953 237.7 5.17314 251.58 5.47981 265.74C5.82648 281.713 3.07956 297.553 4.21289 313.54C5.35955 329.806 4.99953 346.099 7.85285 362.393C11.6395 383.993 18.9597 401.059 30.693 415.939C48.9329 439.086 70.5327 447.552 94.1726 448.392C109.653 448.939 125.146 448.593 140.639 448.486L40.3596 618.965L2.82617 652.819C12.7461 647.579 22.1195 639.286 33.5061 642.406C34.9594 642.805 36.7064 642.259 38.1464 641.499C47.9597 636.312 58.1596 632.152 67.4129 625.406C96.1195 604.472 124.226 581.992 152.239 559.272C179.892 536.832 205.319 509.632 232.759 486.752C244.692 476.806 253.066 460.712 261.786 446.166C261.879 446.019 261.972 445.859 262.052 445.699L262.825 445.672C270.319 451.299 278.412 448.353 286.159 448.179C293.692 448.006 301.252 446.846 308.825 446.553C344.372 445.166 379.945 445.352 415.492 444.392C444.852 443.592 474.158 439.659 503.491 437.273C517.478 436.139 531.478 434.899 545.491 434.526C570.371 433.859 595.292 432.646 620.145 433.766C655.265 435.339 690.371 435.219 725.478 435.379C753.051 435.499 779.758 429.353 806.224 417.953C836.198 405.033 857.37 379.206 871.464 340.699C876.184 327.793 877.277 313.459 878.677 299.446C880.357 282.726 881.29 265.793 880.77 248.86H880.797Z" fill="white" stroke="black" stroke-width="3.99999" stroke-linecap="round" stroke-linejoin="round"/>
<path d="M495.226 284.621C497.76 279.087 500.24 274.434 501.84 269.38C503.786 263.194 506.96 257.46 508.453 251.1C508.786 249.687 509.866 248.647 511.44 248.887C513.293 249.167 513.4 250.701 513.48 252.234C513.867 258.994 514.266 265.754 514.76 272.514C514.933 275.007 515.533 277.447 516.493 280.06C517.826 279.007 517.826 277.727 518.08 276.553C519.893 268.14 521.253 259.62 523.746 251.354C524 250.527 524.24 249.674 524.68 248.94C525.226 248.02 526.2 247.794 527.226 247.967C528.32 248.154 528.906 248.874 529.093 249.927C529.28 250.994 529.146 252.047 528.853 253.087C526.613 261.02 525.093 269.1 523.666 277.207C523 280.994 521.24 284.34 519.613 287.74C518.92 289.18 517.64 289.9 516.04 289.753C514.32 289.607 513.173 288.567 512.68 286.954C510.96 281.394 509.44 275.807 509.28 269.927C509.253 268.821 509.533 267.647 508.68 266.033C506.986 271.407 505.146 276.247 502.92 280.927C501.96 282.941 501.213 285.047 500.24 287.047C499.133 289.327 497.32 290.62 494.693 290.527C491.973 290.433 490.92 288.514 490.147 286.314C489.667 284.927 489.507 283.5 489.467 282.033C489.2 272.26 489.8 262.474 489.013 252.714C488.92 251.474 489.106 250.194 489.293 248.967C489.52 247.5 489.893 245.873 491.813 246.007C493.8 246.153 494.133 247.807 494.16 249.434C494.226 253.3 494.333 257.18 494.253 261.06C494.106 268.14 494.4 275.194 494.76 282.247C494.787 282.78 494.96 283.3 495.226 284.634V284.621Z" fill="black"/>
<path d="M262.933 258.873C261.72 263.527 260.48 268.167 259.333 272.82C258.906 274.553 258.666 276.406 256.4 276.553C254.173 276.7 253.453 275.046 252.933 273.3C251.96 270.06 251.053 266.793 250.04 263.553C249.64 262.286 249.306 260.94 247.826 259.526C247.533 265.153 246.066 270.233 246.706 275.526C247.24 279.94 245.773 284.14 245.333 288.46C245.186 289.913 244.08 290.953 242.48 290.78C240.907 290.62 240.186 289.42 239.986 287.966C239.866 287.02 239.84 286.033 239.933 285.073C240.666 276.407 240.64 267.673 241.906 259.047C242.52 254.807 242.053 250.527 242.213 246.273C242.293 244.353 242.48 242.38 244.72 241.886C246.88 241.42 247.826 243.193 248.533 244.78C250.133 248.406 252.04 251.9 253.013 255.793C253.546 257.913 254.266 260.006 255.693 262.273C257.893 258.526 258.533 254.713 259.666 251.086C260.186 249.42 260.547 247.713 261.12 246.073C261.653 244.527 262.64 243.34 264.467 243.327C266.333 243.327 267.2 244.58 267.76 246.113C269.08 249.806 269.426 253.673 269.586 257.54C269.973 266.327 269.746 275.14 271.226 283.86C271.546 285.78 271.24 287.753 268.826 288.1C266.44 288.447 265.64 286.74 265.293 284.753C264.64 281.126 264.253 277.473 264.413 273.78C264.64 268.833 264 263.94 263.706 259.033C263.453 258.98 263.186 258.913 262.933 258.86V258.873Z" fill="black"/>
<path d="M730.251 288.86C727.638 288.94 725.571 288.766 723.478 289.633C721.371 290.5 719.905 288.887 719.945 286.127C720.078 277.14 720.238 268.14 720.291 259.153C720.304 255.967 719.918 252.78 719.918 249.58C719.918 244.887 722.518 241.394 728.171 243.26C733.331 244.954 738.171 246.86 740.704 252.273C742.584 256.287 742.051 260.553 738.211 264.726C736.371 266.726 736.797 267.38 739.077 268.166C744.824 270.14 746.358 275.02 746.318 278.966C746.264 283.633 742.491 287.02 736.958 288.246C734.571 288.78 732.158 288.887 730.238 288.873L730.251 288.86ZM730.811 283.46C732.478 283.567 734.371 283.193 736.278 282.82C738.545 282.38 740.464 281.446 740.704 278.94C740.944 276.326 739.931 274.206 737.357 273.086C734.491 271.833 731.451 271.273 728.384 270.833C726.104 270.513 725.144 271.62 725.291 273.833C725.398 275.473 725.624 277.1 725.651 278.74C725.731 283.487 725.691 283.487 730.811 283.46ZM736.598 256.633C736.651 255.82 736.278 255.153 735.958 254.446C734.411 251.033 731.277 249.727 728.104 248.487C726.091 247.7 725.131 248.393 725.225 250.54C725.411 254.687 725.625 258.833 725.838 262.993C725.878 263.82 726.064 264.473 727.104 264.593C730.904 265.02 736.558 260.314 736.598 256.647V256.633Z" fill="black"/>
<path d="M200.36 255.234C201.106 264.567 194.293 274.927 181.146 281.54C161.666 291.354 141.866 294.993 121.053 285.34C112.2 281.233 105.933 274.647 101.333 266.46C97.9332 260.407 98.0533 253.98 104.44 249.767C110.867 245.54 115.427 249.127 119.467 254.447C134.04 273.673 158.333 275.873 175.746 259.713C181.013 254.833 181.346 243.327 176.226 235.753C172.853 230.767 168.44 226.753 163.24 223.673C151.306 216.607 138.72 210.434 127.493 202.38C96.613 180.207 97.28 153.181 126.093 130.847C147.16 114.514 174.733 117.234 194.813 134.754C202.853 141.767 207.879 150.607 207.239 161.7C206.933 167.047 204.693 171.513 198.613 172.14C192.586 172.767 189.706 169.1 188.08 163.767C183.906 150.114 172.866 141.14 159.853 140.634C144.746 140.047 131.586 148.447 126.2 162.14C123.253 169.633 128.653 180.074 139 186.407C152.266 194.514 165.653 202.434 178.946 210.487C193.6 219.367 199.8 232.86 200.333 255.234H200.36Z" fill="#55ADE1"/>
<path d="M465.492 269.527C464.972 275.473 464.559 280.473 464.093 285.473C464.013 286.327 463.852 287.207 463.532 288.007C463.159 288.98 462.332 289.54 461.252 289.514C460.039 289.487 459.239 288.794 458.919 287.66C458.719 286.927 458.599 286.114 458.706 285.38C460.359 273.074 460.599 260.66 461.359 248.3C461.666 243.207 464.333 241.181 469.479 241.981C471.866 242.354 474.212 243.007 476.599 243.447C488.012 245.593 487.932 257.847 482.599 263.554C480.359 265.94 477.746 267.753 474.506 268.42C472.612 268.807 472.319 269.5 473.372 271.154C476.546 276.14 479.559 281.234 483.453 285.714C483.639 285.927 483.839 286.154 484.012 286.38C484.999 287.727 485.652 289.234 484.199 290.54C482.612 291.98 481.066 291.113 479.892 289.807C478.399 288.153 476.959 286.434 475.706 284.607C473.092 280.767 470.626 276.821 468.066 272.927C467.439 271.981 466.693 271.114 465.479 269.514L465.492 269.527ZM471.492 263.687C474.799 263.487 478.199 261.913 480.066 258.033C482.212 253.58 480.386 249.713 475.666 248.447C473.799 247.953 471.906 247.541 470.012 247.181C467.066 246.621 466.479 247.154 466.386 250.261C466.306 253.154 466.319 256.061 466.146 258.954C465.919 262.661 466.906 263.767 471.492 263.687Z" fill="black"/>
<path d="M788.666 291.98C783.172 291.82 779.199 290.113 776.119 286.5C775.359 285.593 774.706 284.647 774.546 283.447C774.346 281.913 774.573 280.474 776.146 279.74C777.733 279.007 778.906 279.78 779.92 281.02C784.333 286.5 788.199 287.34 794.599 284.234C798.413 282.394 799.279 279.62 797.186 275.94C796.346 274.473 795.132 273.367 793.719 272.5C790.172 270.327 786.586 268.206 783.039 266.007C778.959 263.473 775.679 259.847 776.039 255.033C776.426 249.807 779.759 245.834 784.719 243.514C791.172 240.487 797.013 241.873 802.346 246.06C804.919 248.073 806.239 250.86 805.932 254.22C805.799 255.687 805.053 256.873 803.479 257.033C801.813 257.207 801.132 256.02 800.719 254.607C799.572 250.633 796.066 247.74 792.253 247.553C788.04 247.353 783.573 250.18 782.093 253.994C781.213 256.247 782.586 259.194 785.466 260.98C789.586 263.527 793.759 265.967 797.879 268.527C801.479 270.767 803.412 274.14 804.052 278.273C804.719 282.593 802.919 286.434 799.159 288.62C795.679 290.66 791.946 291.913 788.679 291.967L788.666 291.98Z" fill="black"/>
<path d="M399.16 280.994C399.16 274.727 401.494 268.808 401.894 262.621C402.2 257.928 403.347 253.448 405.054 249.101C405.294 248.474 405.507 247.807 405.827 247.221C407.627 244.061 409.88 241.261 413.92 241.621C417.88 241.981 419.894 244.767 420.947 248.421C422.04 252.167 422.72 255.994 423.08 259.834C423.68 266.421 425.494 272.781 426.334 279.314C426.56 281.114 427.294 282.861 427.92 284.581C428.467 286.087 428.667 287.5 427.067 288.394C425.374 289.34 424.067 288.474 423.08 287.101C421.734 285.234 421.374 282.994 420.92 280.821C419.507 274.221 419.52 274.207 413 273.687C412.814 273.674 412.614 273.661 412.427 273.634C404.4 272.194 405.774 273.474 404.814 279.754C404.534 281.567 404.667 283.447 404.374 285.247C404.107 286.861 403.24 288.287 401.294 288.047C399.454 287.821 399.174 286.314 399.174 284.754C399.174 283.501 399.174 282.234 399.174 280.981L399.16 280.994ZM414.2 268.394C415.4 267.754 418.427 269.688 418.173 266.541C417.72 260.981 417.32 255.354 415.64 249.954C415.28 248.808 414.894 247.567 413.6 247.367C412.027 247.127 411.454 248.581 410.96 249.648C409.267 253.354 408.067 257.248 407.614 261.314C406.867 268.181 407 268.274 414.2 268.394Z" fill="black"/>
<path d="M237.013 268.274C237.013 273.154 236.48 277.834 234.266 282.367C229.946 291.221 215.627 290.847 211.107 284.861C206.2 278.381 204.866 271.514 206.24 263.848C206.986 259.661 207.48 255.354 209.28 251.461C211.4 246.901 214.453 243.234 219.973 242.727C224.906 242.274 229.066 243.794 231.746 248.061C235.066 253.314 236.72 259.168 237.013 265.381C237.053 266.341 237.013 267.315 237.013 268.288V268.274ZM221.573 283.527C226.746 283.594 229.773 281.594 230.773 276.568C232.386 268.434 231.92 260.408 228.306 252.768C226.986 249.981 225.053 248.115 221.666 247.955C218.12 247.795 215.786 249.567 214.586 252.474C211.346 260.301 209.72 268.394 212.666 276.714C214.426 281.701 216.96 283.461 221.586 283.527H221.573Z" fill="black"/>
<path d="M341.147 289.954C337.254 289.808 333.227 288.247 330.267 284.461C329.68 283.714 329.147 282.861 328.827 281.967C328.227 280.274 328.827 278.86 330.374 278.034C331.92 277.207 333.12 277.927 334.12 279.221C338.4 284.741 344.36 285.607 350.08 281.554C352.28 279.994 352.613 276.847 350.84 273.967C349.853 272.354 348.374 271.274 346.76 270.34C343.334 268.34 339.893 266.368 336.507 264.288C329.36 259.888 328.307 252.261 333.974 246.074C342.307 236.981 356.093 241.234 359.173 249.661C359.44 250.381 359.654 251.154 359.68 251.914C359.734 253.661 359.347 255.368 357.347 255.741C355.174 256.154 354.587 254.488 354.147 252.794C353.227 249.301 349.147 246.341 345.507 246.501C341.067 246.687 336.614 249.821 336.12 253.408C335.707 256.354 337.56 258.341 339.84 259.781C343.28 261.941 346.8 263.981 350.347 265.981C354 268.048 356.56 270.994 357.4 275.114C358.627 281.181 356.694 284.861 351.147 287.687C348.294 289.141 344.907 289.981 341.134 289.941L341.147 289.954Z" fill="black"/>
<path d="M276.573 256.074C276.573 253.167 276.56 250.261 276.573 247.354C276.6 244.434 277.853 242.247 280.693 241.34C285.32 239.86 290.08 239.007 294.933 238.767C295.413 238.741 295.907 238.794 296.373 238.914C298.12 239.367 300.453 239.501 300.307 241.941C300.147 244.634 297.733 244.074 296 244.06C292.293 244.06 288.693 244.821 285.053 245.381C282.92 245.714 281.813 246.874 281.987 249.167C282.293 253.501 282.72 257.834 282.04 262.194C281.733 264.181 283.333 264.248 284.733 264.288C288.307 264.394 291.907 264.021 295.427 264.941C296.693 265.274 297.867 265.714 298.28 267.101C298.827 268.914 297.24 270.527 294.84 270.047C291.253 269.327 287.693 269.967 284.147 269.7C282.707 269.594 282.027 270.048 281.813 271.541C281.347 274.807 281.173 278.087 281.227 281.381C281.253 283.141 281.893 283.98 283.76 284.14C286.947 284.42 290.12 284.741 293.32 284.714C293.8 284.714 294.293 284.754 294.76 284.86C296.72 285.287 299.28 285.354 299.067 288.14C298.853 291.06 296.253 290.607 294.293 290.5C289.653 290.247 285.013 289.954 280.413 289.42C276.613 288.98 275.347 287.461 275.48 283.594C275.76 275.568 276.227 267.554 276.613 259.541C276.667 258.381 276.613 257.22 276.613 256.06C276.6 256.06 276.587 256.06 276.573 256.06V256.074Z" fill="black"/>
<path d="M656.264 246.807C656.184 245.3 656.557 244.22 657.877 243.833C659.344 243.407 660.371 244.207 660.877 245.473C661.411 246.807 661.851 248.234 662.024 249.647C663.091 258.1 666.704 265.793 669.104 273.847C669.384 274.78 669.651 275.713 669.984 276.607C670.411 277.713 670.118 279.593 671.504 279.687C672.598 279.767 672.917 277.994 673.264 276.954C676.144 268.127 682.051 260.807 685.451 252.26C686.491 249.66 687.384 246.98 688.571 244.446C689.371 242.753 690.651 241.034 692.864 242.18C694.904 243.234 694.091 244.98 693.544 246.74C689.717 259.14 681.678 269.554 677.198 281.647C676.438 283.7 674.984 285.5 673.784 287.366C672.824 288.86 671.731 290.367 669.651 289.94C667.651 289.527 666.904 287.833 666.597 286.073C665.531 279.74 663.571 273.633 661.371 267.66C659.011 261.247 657.504 254.7 656.451 247.993C656.371 247.513 656.318 247.033 656.278 246.78L656.264 246.807Z" fill="black"/>
<path d="M749.41 281.154C750.05 270.327 750.851 259.5 750.531 248.633C750.451 246.193 751.877 244.487 754.01 243.753C759.17 241.98 764.504 241.02 770.01 241.5C770.104 241.5 770.197 241.527 770.304 241.553C771.704 241.9 773.037 242.434 772.877 244.154C772.73 245.7 771.437 246.167 770.103 246.18C766.41 246.207 762.757 246.433 759.103 247.033C756.437 247.473 755.224 248.5 755.397 251.393C755.637 255.153 755.57 258.953 755.424 262.727C755.33 265.02 756.29 265.86 758.464 265.913C761.744 265.993 765.064 265.567 768.304 266.434C769.811 266.834 771.291 267.367 770.944 269.234C770.611 271.074 769.01 271.247 767.49 270.954C763.93 270.274 760.317 271.127 756.757 270.553C755.704 270.38 755.023 270.727 754.997 271.874C754.903 275.46 754.17 278.993 754.383 282.607C754.49 284.34 755.277 284.967 756.917 285.047C760.397 285.22 763.877 285.46 767.357 285.713C768.13 285.767 768.904 285.847 769.65 286.047C770.984 286.42 771.943 287.233 771.717 288.753C771.503 290.126 770.45 290.633 769.184 290.66C767.73 290.687 766.277 290.727 764.824 290.62C761.437 290.394 758.063 290.167 754.69 289.82C750.477 289.367 749.41 288.073 749.437 283.767C749.437 282.9 749.437 282.02 749.437 281.154H749.41Z" fill="black"/>
<path d="M537.693 259.128C537.693 260.968 537.853 262.821 537.653 264.634C537.44 266.501 538.213 267.061 539.893 267.128C543.08 267.261 546.293 266.861 549.439 267.661C550.946 268.048 552.466 268.501 552.16 270.394C551.853 272.327 550.199 272.154 548.693 272.087C545.506 271.954 542.307 271.954 539.12 271.781C537.867 271.714 537.347 272.141 537.28 273.367C537.12 276.367 536.626 279.328 536.693 282.354C536.746 284.314 537.386 285.114 539.413 285.154C542.599 285.221 545.787 285.527 548.973 285.781C549.733 285.834 550.52 285.981 551.24 286.234C552.333 286.621 553.04 287.421 552.906 288.661C552.773 289.914 551.879 290.554 550.719 290.594C545.373 290.794 540.08 290.208 534.826 289.381C532.466 289.008 531.747 286.967 531.84 284.701C532.12 278.314 532.253 271.927 532.706 265.554C533 261.581 533.053 257.621 532.733 253.661C532.346 248.928 533.84 246.794 538.493 245.794C542.373 244.968 546.253 243.994 550.28 244.354C551.947 244.501 553.96 244.621 553.973 246.768C553.987 249.128 551.933 248.888 550.28 248.821C546.853 248.688 543.547 249.488 540.2 249.994C538.453 250.261 537.733 251.274 537.8 253.021C537.866 255.048 537.813 257.088 537.813 259.128C537.787 259.128 537.746 259.128 537.719 259.128H537.693Z" fill="black"/>
<path d="M568.078 259.233C568.931 266.42 566.785 274.407 567.985 282.46C568.305 284.62 569.025 285.46 571.065 285.086C577.158 283.993 583.225 285.113 589.318 285.193C591.025 285.22 592.478 285.82 592.518 287.793C592.545 289.62 591.158 290.22 589.612 290.42C588.652 290.54 587.678 290.593 586.718 290.553C580.331 290.273 573.972 290.34 567.585 290.793C563.438 291.087 562.211 289.393 562.105 285.233C561.798 273.42 563.211 261.66 562.691 249.847C562.638 248.78 562.691 247.713 562.771 246.66C562.891 244.98 563.412 243.446 565.425 243.526C567.345 243.606 568.038 245.087 568.065 246.767C568.132 250.633 568.092 254.513 568.092 259.22L568.078 259.233Z" fill="black"/>
<path d="M379.733 243.007C385.533 243.007 391.333 242.994 397.133 243.007C398.587 243.007 399.96 243.488 400.186 245.101C400.44 246.848 399.053 247.367 397.667 247.701C394.48 248.461 391.32 247.448 388.12 247.514C385.787 247.568 384.92 248.208 384.92 250.661C384.92 261.394 383.04 272.061 383.72 282.834C383.827 284.474 383.493 286.167 381.493 286.301C379.36 286.447 378.787 284.701 378.6 282.994C377.893 276.501 378.653 270.047 379.12 263.581C379.44 259.141 379.72 254.701 380.053 250.274C380.2 248.288 379.36 247.474 377.347 247.527C374.253 247.607 371.147 247.567 368.053 247.527C366.333 247.501 364.467 247.221 364.467 245.048C364.467 242.754 366.427 242.767 368.093 242.754C371.96 242.727 375.84 242.754 379.707 242.754C379.707 242.847 379.707 242.941 379.707 243.034L379.733 243.007Z" fill="black"/>
<path d="M441.213 289.34C440.439 289.34 439.959 289.34 439.466 289.34C437.653 289.38 435.733 289.3 435.306 287.114C434.893 285.034 436.559 284.274 438.226 283.807C439.773 283.38 439.986 282.247 440.026 280.901C440.133 277.141 440.413 273.381 440.386 269.621C440.346 263.208 441.626 256.914 441.893 250.527C441.959 249.007 441.759 248.194 440.066 247.981C438.639 247.808 437.386 247.047 437.546 245.34C437.706 243.687 439.053 243.14 440.479 243.034C444.733 242.727 448.986 243.248 453.213 243.568C454.653 243.674 455.746 244.727 455.546 246.381C455.359 247.874 454.173 248.407 452.813 248.474C452.146 248.514 451.453 248.421 450.786 248.314C448.346 247.954 447.253 248.927 447.093 251.447C446.679 257.914 446.013 264.367 445.586 270.834C445.359 274.207 445.479 277.594 445.373 280.967C445.333 282.421 445.786 283.327 447.293 283.741C448.893 284.181 450.213 285.127 449.879 287.034C449.546 288.927 447.919 288.861 446.453 288.941C444.613 289.047 442.786 289.22 441.239 289.34H441.213Z" fill="black"/>
<path d="M605.586 250.794C604.866 257.527 604.319 264.287 603.386 270.994C602.839 274.954 603.106 278.927 602.546 282.86C602.306 284.554 603.226 285.154 604.759 285.074C610.413 284.781 615.959 285.7 621.533 286.354C622.399 286.46 623.266 286.553 624.119 286.727C625.373 286.993 626.306 287.7 626.253 289.087C626.199 290.607 625.119 291.354 623.746 291.42C622.212 291.5 620.639 291.421 619.119 291.181C613.839 290.354 608.546 289.994 603.199 290.074C598.586 290.14 596.253 289.274 597.093 282.874C598.013 275.914 598.719 268.86 599.332 261.834C599.732 257.207 600.039 252.567 600.453 247.94C600.613 246.194 600.853 244.047 603.173 244.181C605.773 244.327 605.426 246.607 605.426 248.434C605.426 249.207 605.346 249.98 605.306 250.754C605.4 250.754 605.479 250.767 605.573 250.78L605.586 250.794Z" fill="black"/>
<path d="M706.238 244.367C707.504 244.447 709.731 244.474 711.931 244.767C713.491 244.967 714.771 245.874 714.478 247.674C714.211 249.327 712.784 249.594 711.331 249.594C706.224 249.594 706.624 249.647 705.904 254.78C704.744 263.154 704.958 271.568 704.398 279.954C704.238 282.248 703.704 284.661 707.131 285.301C708.424 285.541 709.158 286.821 708.811 288.274C708.491 289.634 707.398 289.981 706.144 290.047C703.344 290.181 700.544 290.367 697.744 290.434C696.211 290.474 694.731 290.048 694.371 288.314C694.011 286.554 695.117 285.514 696.691 285.194C699.157 284.687 699.211 282.821 699.305 280.967C699.625 275.074 699.238 269.168 699.931 263.288C700.371 259.634 700.691 255.981 701.091 252.327C701.278 250.594 700.997 249.314 698.877 249.034C697.557 248.86 696.451 248.047 696.704 246.474C696.944 244.994 698.118 244.447 699.478 244.394C701.411 244.327 703.344 244.381 706.238 244.381V244.367Z" fill="black"/>
</svg>
