<svg width="884" height="656" viewBox="0 0 884 656" fill="none" xmlns="http://www.w3.org/2000/svg">
<path d="M3.05666 249.379C4.08332 215.273 6.51007 181.286 15.15 149.166C27.4433 103.446 48.0165 66.4862 77.7231 40.4729C94.5764 25.713 113.296 19.1132 132.99 15.7399C162.269 10.7266 191.629 10.0064 221.016 9.55308C250.136 9.09975 279.243 9.45978 308.362 11.9131C320.536 12.9398 332.776 13.9001 345.016 14.2067C374.789 14.94 404.576 16.553 434.349 16.8063C468.349 17.0997 502.362 16.993 536.348 15.7796C561.322 14.8863 586.215 11.0864 611.015 6.55309C621.428 4.64643 631.882 3.23352 642.362 2.98018C658.362 2.59352 674.361 2.58016 690.361 2.95349C713.601 3.50016 736.708 6.00663 759.721 11.1C778.321 15.2066 795.628 23.2867 811.001 38.5667C827.534 54.9933 842.441 73.473 851.121 100.3C859.428 125.966 865.881 152.339 869.721 180.019C871.774 194.753 875.414 209.299 875.987 224.112C876.534 238.219 878.681 252.099 878.374 266.259C878.028 282.233 880.774 298.072 879.641 314.059C878.494 330.325 878.854 346.619 876.001 362.912C872.214 384.512 864.894 401.579 853.161 416.459C834.921 439.605 813.321 448.072 789.681 448.912C774.201 449.459 758.708 449.112 743.214 449.005L843.494 619.485L881.028 653.338C871.108 648.098 861.734 639.805 850.348 642.925C848.894 643.325 847.148 642.778 845.708 642.018C835.894 636.831 825.694 632.672 816.441 625.925C787.735 604.992 759.628 582.512 731.615 559.792C703.961 537.352 678.535 510.152 651.095 487.272C639.162 477.325 630.788 461.232 622.068 446.685C621.975 446.539 621.882 446.379 621.802 446.219L621.028 446.192C613.535 451.819 605.442 448.872 597.695 448.698C590.162 448.525 582.602 447.365 575.028 447.072C539.482 445.685 503.909 445.872 468.362 444.912C439.002 444.112 409.695 440.179 380.362 437.792C366.376 436.659 352.376 435.419 338.362 435.045C313.482 434.379 288.563 433.166 263.709 434.286C228.589 435.859 193.483 435.739 158.376 435.899C130.803 436.019 104.096 429.872 77.6297 418.472C47.6564 405.552 26.4833 379.725 12.39 341.219C7.66998 328.312 6.57644 313.979 5.17644 299.966C3.49645 283.246 2.56335 266.313 3.08335 249.379H3.05666Z" fill="white" stroke="black" stroke-width="3.99999" stroke-linecap="round" stroke-linejoin="round"/>
<path d="M493.735 277.271C496.269 271.738 498.749 267.084 500.349 262.031C502.295 255.844 505.469 250.111 506.962 243.751C507.295 242.338 508.375 241.298 509.949 241.538C511.802 241.818 511.909 243.351 511.989 244.885C512.375 251.645 512.775 258.405 513.269 265.165C513.442 267.658 514.042 270.098 515.002 272.711C516.335 271.658 516.335 270.378 516.589 269.205C518.402 260.792 519.762 252.271 522.255 244.004C522.509 243.178 522.748 242.325 523.188 241.592C523.735 240.672 524.709 240.445 525.735 240.618C526.829 240.805 527.415 241.525 527.602 242.578C527.789 243.645 527.655 244.698 527.362 245.738C525.122 253.671 523.602 261.751 522.175 269.858C521.508 273.645 519.749 276.991 518.122 280.391C517.429 281.831 516.148 282.551 514.548 282.405C512.828 282.258 511.682 281.218 511.188 279.605C509.468 274.045 507.949 268.458 507.789 262.578C507.762 261.471 508.042 260.298 507.188 258.685C505.495 264.058 503.655 268.898 501.429 273.578C500.469 275.591 499.722 277.698 498.749 279.698C497.642 281.978 495.829 283.271 493.202 283.178C490.482 283.085 489.429 281.165 488.655 278.965C488.175 277.578 488.015 276.151 487.975 274.685C487.709 264.911 488.309 255.124 487.522 245.364C487.429 244.124 487.615 242.845 487.802 241.618C488.029 240.152 488.402 238.525 490.322 238.658C492.309 238.805 492.642 240.458 492.669 242.084C492.735 245.951 492.842 249.831 492.762 253.711C492.615 260.791 492.909 267.845 493.269 274.898C493.295 275.432 493.469 275.952 493.735 277.285V277.271Z" fill="black"/>
<path d="M261.429 251.525C260.216 256.178 258.976 260.818 257.829 265.472C257.402 267.205 257.162 269.059 254.896 269.205C252.669 269.352 251.949 267.699 251.429 265.952C250.456 262.712 249.549 259.445 248.536 256.205C248.136 254.939 247.802 253.592 246.322 252.179C246.029 257.805 244.562 262.885 245.202 268.179C245.736 272.592 244.269 276.792 243.829 281.112C243.682 282.565 242.576 283.605 240.976 283.432C239.402 283.272 238.683 282.072 238.483 280.619C238.363 279.672 238.336 278.685 238.429 277.725C239.162 269.058 239.136 260.325 240.402 251.698C241.016 247.458 240.549 243.179 240.709 238.926C240.789 237.006 240.976 235.032 243.216 234.539C245.376 234.072 246.322 235.845 247.029 237.432C248.629 241.059 250.536 244.552 251.509 248.445C252.042 250.565 252.762 252.659 254.189 254.925C256.389 251.179 257.029 247.365 258.162 243.739C258.682 242.072 259.042 240.365 259.616 238.725C260.149 237.178 261.136 235.992 262.962 235.979C264.829 235.979 265.696 237.232 266.256 238.765C267.576 242.459 267.922 246.325 268.082 250.192C268.469 258.978 268.242 267.792 269.722 276.512C270.042 278.432 269.736 280.405 267.322 280.752C264.936 281.098 264.136 279.392 263.789 277.405C263.136 273.779 262.749 270.125 262.909 266.432C263.136 261.485 262.496 256.592 262.202 251.685C261.949 251.632 261.682 251.565 261.429 251.512V251.525Z" fill="black"/>
<path d="M728.761 281.526C726.148 281.606 724.081 281.432 721.988 282.299C719.881 283.166 718.414 281.553 718.454 278.793C718.588 269.806 718.748 260.806 718.801 251.819C718.814 248.633 718.428 245.446 718.428 242.246C718.428 237.553 721.028 234.06 726.681 235.926C731.841 237.62 736.681 239.526 739.214 244.939C741.094 248.953 740.561 253.219 736.721 257.392C734.881 259.392 735.308 260.046 737.588 260.832C743.334 262.806 744.867 267.686 744.827 271.632C744.774 276.299 741.001 279.686 735.468 280.912C733.081 281.446 730.668 281.553 728.748 281.539L728.761 281.526ZM729.321 276.126C730.988 276.233 732.881 275.859 734.788 275.486C737.054 275.046 738.974 274.112 739.214 271.606C739.454 268.992 738.441 266.872 735.867 265.752C733.001 264.499 729.961 263.939 726.894 263.499C724.614 263.179 723.654 264.286 723.801 266.499C723.908 268.139 724.134 269.766 724.161 271.406C724.241 276.153 724.201 276.153 729.321 276.126ZM735.108 249.299C735.161 248.486 734.788 247.819 734.468 247.112C732.921 243.699 729.788 242.393 726.614 241.153C724.601 240.366 723.641 241.059 723.734 243.206C723.921 247.353 724.134 251.499 724.348 255.659C724.388 256.486 724.574 257.139 725.614 257.259C729.414 257.686 735.068 252.98 735.108 249.313V249.299Z" fill="black"/>
<path d="M198.856 247.886C199.602 257.219 192.789 267.579 179.643 274.192C160.163 284.006 140.363 287.646 119.549 277.992C110.696 273.886 104.429 267.299 99.8293 259.112C96.4293 253.059 96.5494 246.632 102.936 242.419C109.363 238.192 113.923 241.779 117.963 247.099C132.536 266.326 156.829 268.526 174.242 252.366C179.509 247.486 179.843 235.979 174.723 228.406C171.349 223.419 166.936 219.406 161.736 216.326C149.803 209.259 137.216 203.086 125.989 195.032C95.1094 172.859 95.776 145.833 124.589 123.499C145.656 107.166 173.229 109.886 193.309 127.406C201.349 134.42 206.376 143.259 205.736 154.353C205.429 159.699 203.189 164.166 197.109 164.793C191.083 165.42 188.202 161.753 186.576 156.419C182.402 142.766 171.363 133.793 158.349 133.286C143.243 132.7 130.083 141.1 124.696 154.793C121.749 162.286 127.149 172.726 137.496 179.059C150.762 187.166 164.149 195.086 177.443 203.139C192.096 212.019 198.296 225.512 198.829 247.886H198.856Z" fill="#55ADE1"/>
<path d="M463.989 262.179C463.469 268.125 463.055 273.125 462.589 278.125C462.509 278.979 462.349 279.859 462.029 280.659C461.655 281.632 460.829 282.192 459.749 282.165C458.535 282.138 457.735 281.446 457.415 280.312C457.215 279.579 457.095 278.765 457.202 278.032C458.855 265.725 459.095 253.312 459.855 240.952C460.162 235.859 462.829 233.832 467.975 234.632C470.362 235.005 472.709 235.659 475.095 236.099C486.509 238.245 486.429 250.499 481.095 256.206C478.855 258.592 476.242 260.405 473.002 261.072C471.109 261.459 470.815 262.152 471.869 263.805C475.042 268.792 478.055 273.885 481.949 278.365C482.135 278.578 482.335 278.805 482.508 279.032C483.495 280.378 484.149 281.885 482.695 283.192C481.109 284.632 479.562 283.765 478.389 282.459C476.895 280.805 475.455 279.086 474.202 277.259C471.589 273.419 469.122 269.472 466.562 265.579C465.935 264.632 465.189 263.765 463.975 262.165L463.989 262.179ZM469.989 256.338C473.295 256.138 476.695 254.565 478.562 250.685C480.709 246.232 478.882 242.365 474.162 241.099C472.295 240.605 470.402 240.192 468.509 239.832C465.562 239.272 464.975 239.805 464.882 242.912C464.802 245.805 464.815 248.712 464.642 251.605C464.415 255.312 465.402 256.418 469.989 256.338Z" fill="black"/>
<path d="M787.173 284.633C781.68 284.473 777.707 282.766 774.627 279.153C773.867 278.246 773.214 277.299 773.054 276.099C772.854 274.566 773.08 273.126 774.654 272.392C776.24 271.659 777.414 272.432 778.427 273.672C782.84 279.152 786.707 279.992 793.107 276.886C796.92 275.046 797.787 272.273 795.694 268.593C794.854 267.126 793.64 266.019 792.227 265.153C788.68 262.979 785.094 260.859 781.547 258.659C777.467 256.126 774.187 252.499 774.547 247.686C774.934 242.459 778.267 238.486 783.227 236.166C789.68 233.139 795.52 234.526 800.853 238.713C803.427 240.726 804.747 243.513 804.44 246.873C804.307 248.34 803.56 249.526 801.987 249.686C800.32 249.859 799.64 248.673 799.227 247.26C798.08 243.286 794.574 240.393 790.76 240.206C786.547 240.006 782.08 242.833 780.6 246.646C779.72 248.9 781.094 251.846 783.974 253.633C788.094 256.179 792.267 258.619 796.387 261.179C799.987 263.419 801.92 266.793 802.56 270.926C803.227 275.246 801.427 279.086 797.667 281.273C794.187 283.313 790.453 284.566 787.187 284.62L787.173 284.633Z" fill="black"/>
<path d="M397.655 273.659C397.655 267.392 399.989 261.473 400.389 255.286C400.695 250.593 401.842 246.113 403.548 241.766C403.788 241.139 404.002 240.472 404.322 239.886C406.122 236.726 408.375 233.926 412.415 234.286C416.375 234.646 418.389 237.432 419.442 241.086C420.535 244.832 421.215 248.659 421.575 252.499C422.175 259.086 423.988 265.446 424.828 271.979C425.055 273.779 425.789 275.526 426.415 277.246C426.962 278.752 427.162 280.166 425.562 281.059C423.868 282.006 422.562 281.139 421.575 279.766C420.228 277.899 419.869 275.659 419.415 273.486C418.002 266.886 418.015 266.873 411.495 266.353C411.308 266.339 411.109 266.326 410.922 266.299C402.895 264.859 404.269 266.139 403.309 272.419C403.029 274.232 403.162 276.112 402.868 277.912C402.602 279.526 401.735 280.952 399.789 280.712C397.949 280.486 397.669 278.979 397.669 277.419C397.669 276.166 397.669 274.899 397.669 273.646L397.655 273.659ZM412.695 261.059C413.895 260.419 416.922 262.353 416.669 259.206C416.215 253.646 415.815 248.019 414.135 242.619C413.775 241.473 413.389 240.232 412.095 240.032C410.522 239.792 409.949 241.246 409.455 242.313C407.762 246.02 406.562 249.913 406.109 253.979C405.362 260.846 405.495 260.939 412.695 261.059Z" fill="black"/>
<path d="M235.523 260.927C235.523 265.806 234.989 270.486 232.776 275.02C228.456 283.873 214.136 283.5 209.616 277.513C204.709 271.033 203.376 264.166 204.75 256.499C205.496 252.313 205.99 248.006 207.79 244.113C209.91 239.553 212.963 235.886 218.483 235.38C223.416 234.926 227.576 236.446 230.256 240.713C233.576 245.966 235.229 251.819 235.523 258.033C235.563 258.993 235.523 259.966 235.523 260.94V260.927ZM220.083 276.18C225.256 276.246 228.283 274.246 229.283 269.219C230.896 261.086 230.43 253.059 226.816 245.419C225.496 242.633 223.563 240.766 220.176 240.606C216.629 240.446 214.296 242.22 213.096 245.126C209.856 252.953 208.229 261.046 211.176 269.366C212.936 274.353 215.469 276.113 220.096 276.18H220.083Z" fill="black"/>
<path d="M339.642 282.605C335.749 282.459 331.722 280.899 328.762 277.112C328.175 276.365 327.642 275.512 327.322 274.619C326.722 272.926 327.322 271.512 328.868 270.686C330.415 269.859 331.615 270.579 332.615 271.872C336.895 277.392 342.855 278.259 348.575 274.206C350.775 272.646 351.109 269.499 349.335 266.619C348.349 265.006 346.868 263.926 345.255 262.992C341.828 260.992 338.389 259.019 335.002 256.939C327.855 252.539 326.802 244.912 332.469 238.725C340.802 229.632 354.589 233.886 357.669 242.313C357.935 243.033 358.148 243.806 358.175 244.566C358.228 246.313 357.842 248.019 355.842 248.392C353.668 248.805 353.082 247.139 352.642 245.445C351.722 241.952 347.642 238.992 344.002 239.152C339.562 239.339 335.109 242.472 334.615 246.059C334.202 249.005 336.055 250.992 338.335 252.432C341.775 254.592 345.295 256.632 348.842 258.632C352.495 260.699 355.055 263.646 355.895 267.766C357.122 273.832 355.188 277.512 349.642 280.339C346.789 281.792 343.402 282.632 339.629 282.592L339.642 282.605Z" fill="black"/>
<path d="M275.07 248.725C275.07 245.819 275.056 242.912 275.07 240.005C275.096 237.085 276.349 234.899 279.189 233.992C283.816 232.512 288.576 231.659 293.43 231.419C293.91 231.392 294.403 231.446 294.869 231.566C296.616 232.019 298.95 232.153 298.803 234.593C298.643 237.286 296.229 236.726 294.496 236.712C290.789 236.712 287.189 237.472 283.549 238.032C281.416 238.365 280.31 239.526 280.483 241.819C280.79 246.152 281.216 250.486 280.536 254.846C280.229 256.832 281.829 256.899 283.229 256.939C286.803 257.046 290.403 256.673 293.923 257.593C295.189 257.926 296.363 258.365 296.776 259.752C297.323 261.565 295.736 263.179 293.336 262.699C289.75 261.979 286.19 262.619 282.643 262.352C281.203 262.246 280.523 262.699 280.31 264.192C279.843 267.459 279.67 270.739 279.723 274.032C279.75 275.792 280.389 276.632 282.256 276.792C285.443 277.072 288.616 277.392 291.816 277.365C292.296 277.365 292.789 277.406 293.256 277.512C295.216 277.939 297.776 278.006 297.563 280.792C297.349 283.712 294.75 283.259 292.79 283.152C288.15 282.899 283.509 282.606 278.909 282.072C275.109 281.632 273.843 280.112 273.976 276.246C274.256 268.219 274.723 260.205 275.11 252.192C275.163 251.032 275.11 249.872 275.11 248.712C275.096 248.712 275.083 248.712 275.07 248.712V248.725Z" fill="black"/>
<path d="M654.762 239.459C654.682 237.953 655.056 236.873 656.376 236.486C657.842 236.059 658.869 236.859 659.375 238.126C659.909 239.459 660.349 240.886 660.522 242.299C661.589 250.753 665.202 258.446 667.602 266.499C667.882 267.432 668.149 268.366 668.482 269.259C668.909 270.366 668.615 272.246 670.002 272.339C671.095 272.419 671.416 270.646 671.762 269.606C674.642 260.779 680.549 253.459 683.949 244.913C684.989 242.313 685.882 239.633 687.069 237.099C687.869 235.406 689.149 233.686 691.362 234.832C693.402 235.886 692.589 237.632 692.042 239.392C688.215 251.792 680.175 262.206 675.695 274.299C674.935 276.353 673.482 278.153 672.282 280.019C671.322 281.513 670.229 283.019 668.149 282.593C666.149 282.179 665.402 280.486 665.096 278.726C664.029 272.392 662.069 266.286 659.869 260.313C657.509 253.9 656.002 247.353 654.949 240.646C654.869 240.166 654.816 239.686 654.776 239.433L654.762 239.459Z" fill="black"/>
<path d="M747.922 273.805C748.562 262.979 749.362 252.152 749.042 241.286C748.962 238.846 750.388 237.139 752.522 236.406C757.682 234.632 763.015 233.672 768.522 234.152C768.615 234.152 768.709 234.179 768.815 234.206C770.215 234.552 771.549 235.085 771.389 236.805C771.242 238.352 769.949 238.819 768.615 238.832C764.922 238.859 761.269 239.086 757.615 239.686C754.949 240.126 753.735 241.152 753.909 244.046C754.149 247.806 754.082 251.606 753.935 255.379C753.842 257.672 754.802 258.512 756.975 258.566C760.255 258.646 763.575 258.219 766.815 259.085C768.322 259.485 769.802 260.019 769.455 261.885C769.122 263.725 767.522 263.899 766.002 263.605C762.442 262.925 758.829 263.779 755.269 263.206C754.215 263.032 753.535 263.379 753.508 264.525C753.415 268.112 752.682 271.646 752.895 275.259C753.002 276.992 753.789 277.618 755.429 277.698C758.909 277.872 762.388 278.112 765.868 278.365C766.642 278.418 767.415 278.498 768.162 278.698C769.495 279.072 770.455 279.886 770.228 281.405C770.015 282.779 768.962 283.286 767.695 283.312C766.242 283.339 764.789 283.379 763.335 283.272C759.949 283.045 756.575 282.819 753.202 282.472C748.988 282.019 747.922 280.725 747.949 276.419C747.949 275.552 747.949 274.672 747.949 273.805H747.922Z" fill="black"/>
<path d="M536.188 251.792C536.188 253.632 536.348 255.485 536.148 257.298C535.935 259.165 536.708 259.725 538.388 259.792C541.575 259.925 544.788 259.525 547.935 260.325C549.442 260.712 550.962 261.165 550.655 263.058C550.348 264.991 548.695 264.818 547.188 264.751C544.002 264.618 540.802 264.618 537.615 264.445C536.362 264.378 535.842 264.805 535.775 266.031C535.615 269.031 535.122 271.992 535.188 275.018C535.242 276.978 535.882 277.778 537.908 277.818C541.095 277.885 544.282 278.191 547.468 278.445C548.228 278.498 549.015 278.645 549.735 278.899C550.828 279.285 551.535 280.085 551.402 281.325C551.268 282.578 550.375 283.219 549.215 283.259C543.868 283.459 538.575 282.872 533.322 282.045C530.962 281.672 530.242 279.631 530.335 277.365C530.615 270.978 530.748 264.592 531.202 258.218C531.495 254.245 531.548 250.285 531.228 246.325C530.842 241.592 532.335 239.459 536.988 238.459C540.868 237.632 544.748 236.658 548.775 237.018C550.442 237.165 552.455 237.285 552.468 239.432C552.482 241.792 550.428 241.552 548.775 241.485C545.348 241.352 542.042 242.152 538.695 242.658C536.948 242.925 536.228 243.938 536.295 245.685C536.362 247.712 536.308 249.752 536.308 251.792C536.282 251.792 536.242 251.792 536.215 251.792H536.188Z" fill="black"/>
<path d="M566.575 251.885C567.428 259.072 565.282 267.058 566.482 275.112C566.802 277.272 567.522 278.112 569.562 277.739C575.655 276.645 581.722 277.765 587.815 277.845C589.522 277.872 590.975 278.472 591.015 280.445C591.042 282.272 589.655 282.872 588.108 283.072C587.148 283.192 586.175 283.245 585.215 283.205C578.828 282.925 572.468 282.992 566.082 283.445C561.935 283.738 560.708 282.045 560.602 277.885C560.295 266.072 561.708 254.312 561.188 242.498C561.135 241.432 561.188 240.366 561.268 239.312C561.388 237.632 561.908 236.099 563.922 236.179C565.842 236.259 566.535 237.738 566.562 239.418C566.628 243.285 566.588 247.165 566.588 251.872L566.575 251.885Z" fill="black"/>
<path d="M378.242 235.66C384.042 235.66 389.842 235.646 395.642 235.66C397.095 235.66 398.469 236.139 398.696 237.753C398.949 239.499 397.562 240.02 396.175 240.353C392.989 241.113 389.829 240.099 386.629 240.166C384.296 240.219 383.429 240.86 383.429 243.313C383.429 254.047 381.549 264.713 382.229 275.486C382.335 277.126 382.002 278.82 380.002 278.953C377.869 279.1 377.296 277.353 377.109 275.647C376.402 269.153 377.162 262.7 377.629 256.233C377.949 251.793 378.229 247.353 378.562 242.927C378.709 240.94 377.869 240.126 375.855 240.18C372.762 240.26 369.655 240.22 366.562 240.18C364.842 240.153 362.976 239.873 362.976 237.699C362.976 235.406 364.936 235.42 366.602 235.406C370.469 235.38 374.349 235.406 378.215 235.406C378.215 235.5 378.215 235.593 378.215 235.686L378.242 235.66Z" fill="black"/>
<path d="M439.722 281.992C438.949 281.992 438.469 281.992 437.976 281.992C436.162 282.032 434.242 281.952 433.816 279.765C433.402 277.685 435.069 276.925 436.736 276.459C438.282 276.032 438.495 274.898 438.535 273.552C438.642 269.792 438.922 266.032 438.896 262.272C438.856 255.858 440.136 249.565 440.402 243.179C440.469 241.659 440.269 240.845 438.576 240.632C437.149 240.458 435.896 239.698 436.056 237.992C436.216 236.338 437.562 235.792 438.989 235.685C443.242 235.379 447.496 235.898 451.722 236.218C453.162 236.325 454.256 237.378 454.056 239.032C453.869 240.525 452.682 241.059 451.322 241.125C450.656 241.165 449.962 241.072 449.296 240.965C446.856 240.605 445.762 241.579 445.602 244.099C445.189 250.565 444.522 257.019 444.096 263.485C443.869 266.859 443.989 270.245 443.882 273.619C443.842 275.072 444.296 275.978 445.802 276.391C447.402 276.831 448.722 277.778 448.389 279.685C448.056 281.578 446.429 281.512 444.962 281.592C443.122 281.699 441.296 281.872 439.749 281.992H439.722Z" fill="black"/>
<path d="M604.094 243.459C603.374 250.192 602.827 256.952 601.894 263.659C601.347 267.619 601.614 271.592 601.054 275.525C600.814 277.219 601.734 277.819 603.267 277.739C608.92 277.446 614.467 278.365 620.041 279.019C620.907 279.125 621.774 279.219 622.627 279.392C623.88 279.659 624.814 280.365 624.761 281.752C624.707 283.272 623.627 284.019 622.254 284.085C620.72 284.165 619.147 284.086 617.627 283.846C612.347 283.019 607.054 282.659 601.707 282.739C597.094 282.806 594.761 281.939 595.601 275.539C596.521 268.579 597.227 261.525 597.84 254.499C598.24 249.872 598.547 245.232 598.961 240.606C599.121 238.859 599.361 236.712 601.681 236.846C604.281 236.992 603.934 239.272 603.934 241.099C603.934 241.872 603.854 242.645 603.814 243.419C603.907 243.419 603.987 243.432 604.081 243.445L604.094 243.459Z" fill="black"/>
<path d="M704.748 237.032C706.014 237.112 708.241 237.139 710.441 237.433C712.001 237.633 713.281 238.539 712.987 240.339C712.721 241.992 711.294 242.259 709.841 242.259C704.734 242.259 705.134 242.312 704.414 247.446C703.254 255.819 703.467 264.233 702.907 272.619C702.747 274.913 702.214 277.326 705.641 277.966C706.934 278.206 707.667 279.486 707.321 280.939C707.001 282.299 705.907 282.646 704.654 282.712C701.854 282.846 699.054 283.032 696.254 283.099C694.721 283.139 693.241 282.713 692.881 280.979C692.521 279.219 693.627 278.179 695.201 277.859C697.667 277.352 697.721 275.486 697.814 273.632C698.134 267.739 697.748 261.833 698.441 255.953C698.881 252.299 699.201 248.646 699.601 244.992C699.787 243.259 699.508 241.979 697.388 241.699C696.068 241.525 694.961 240.712 695.214 239.139C695.454 237.659 696.628 237.112 697.988 237.059C699.921 236.992 701.854 237.046 704.748 237.046V237.032Z" fill="black"/>
</svg>
