<svg width="88" height="128" viewBox="0 0 88 128" fill="none" xmlns="http://www.w3.org/2000/svg">
<path d="M87.9999 123.077C88.0493 121.882 87.5857 120.726 86.777 119.698C84.8587 117.254 82.8368 114.889 80.6917 112.642C78.6994 110.557 76.8255 108.383 75.0699 106.096C72.7966 103.126 70.4986 100.176 68.166 97.2545C65.2417 93.5959 62.8944 89.5733 60.483 85.5802C56.7352 79.3742 53.0613 73.119 48.988 67.1147C48.0757 65.7722 48.0954 64.6411 48.9042 63.3085C52.9134 56.714 57.1346 50.2523 61.8934 44.1741C64.5662 40.7564 66.8691 37.142 69.1129 33.4489C70.8734 30.5524 72.9297 27.833 74.9319 25.0939C77.22 21.9663 79.0939 18.6125 80.8988 15.1997C82.2451 12.6573 83.6653 10.1543 85.0609 7.6414C85.6871 6.52019 86.2296 5.3498 86.0866 4.04664C85.8893 2.28123 85.1102 0.864964 83.3004 0.235513C81.4166 -0.418525 79.9224 0.378123 78.5564 1.53867C77.94 2.06486 77.5504 2.79266 77.1411 3.48604C75.5384 6.2153 73.8174 8.88554 72.3873 11.7033C70.469 15.4751 67.9441 18.8338 65.5376 22.2712C63.5207 25.148 61.4939 28.01 59.7877 31.0835C57.539 35.1258 54.4224 38.5583 51.7939 42.3399C48.9042 46.4952 45.9207 50.5965 43.4797 55.0469C43.3712 55.2485 43.2627 55.4551 43.1345 55.6469C42.4046 56.7582 42.1038 56.8025 41.443 55.7206C39.1549 51.9833 36.4426 48.5459 33.8981 44.9855C30.9836 40.9039 28.7596 36.3896 25.9734 32.2293C25.2682 31.177 24.6123 30.0853 23.8233 29.1017C21.2787 25.9446 19.39 22.3843 17.3583 18.9076C14.5721 14.1375 12.21 9.13142 9.26595 4.44497C8.86652 3.80568 8.43748 3.20082 7.85065 2.71398C6.25783 1.39115 3.7527 1.14035 2.18453 2.14845C0.443764 3.26966 -0.409355 5.52683 0.192268 7.60697C0.399384 8.32002 0.705132 9.01832 1.06512 9.66744C4.31981 15.4948 7.18986 21.5287 10.6122 27.2675C11.8796 29.3968 13.1223 31.5409 14.6609 33.4833C17.3484 36.8863 19.5232 40.6138 21.6486 44.3708C23.7197 48.0394 26.1854 51.4472 28.73 54.7912C31.4521 58.3712 33.6071 62.3348 36.4032 65.8558C37.0245 66.6426 37.0245 67.39 36.5265 68.2359C35.6142 69.7702 34.6871 71.2946 33.474 72.6224C30.3968 76.0007 27.7289 79.684 25.5493 83.682C23.1231 88.1373 20.4897 92.4451 17.4421 96.5071C16.3375 97.9823 15.3907 99.5609 14.4784 101.164C13.7929 102.364 13.1025 103.559 12.2642 104.66C10.8588 106.5 9.71964 108.516 8.82214 110.63C7.62382 113.443 6.19373 116.128 4.75377 118.818C4.31981 119.63 3.90557 120.456 3.68859 121.361C3.17574 123.465 4.26063 125.762 6.12962 126.544C8.17612 127.404 10.5333 126.632 11.5788 124.527C13.0138 121.646 14.2959 118.69 15.583 115.74C16.3918 113.891 17.2646 112.086 18.4235 110.424C20.2037 107.872 21.8212 105.216 23.3499 102.511C23.5767 102.113 23.8134 101.71 24.1044 101.356C27.6057 97.0431 30.2982 92.2288 33.0252 87.4145C34.8942 84.1148 36.9604 80.9134 39.6677 78.1891C40.2743 77.5793 40.7674 76.8515 41.3691 76.2368C42.1532 75.4352 42.4836 75.4451 43.1098 76.4089C44.4906 78.5333 45.827 80.6823 47.1437 82.846C49.9299 87.4145 52.6915 92.0026 55.4678 96.5759C56.5724 98.4003 57.8842 100.082 59.191 101.769C62.8254 106.455 66.3562 111.216 70.1632 115.764C71.1594 116.954 72.2295 118.085 73.2848 119.226C75.4743 121.592 77.6688 123.952 79.8879 126.293C80.6473 127.094 81.5251 127.748 82.6741 127.916C85.8745 128.388 88.0591 126.455 88.0049 123.062L87.9999 123.077Z" fill="black"/>
</svg>
