<svg width="816" height="604" viewBox="0 0 816 604" fill="none" xmlns="http://www.w3.org/2000/svg">
<g clip-path="url(#clip0_109_625)">
<path d="M307.555 440.703C307.115 443.862 308.221 446.582 308.315 449.382C308.635 460.089 308.608 470.769 306.875 481.395C305.501 489.782 304.422 498.222 301.955 506.368C298.808 516.768 294.168 526.541 289.075 536.128C284.035 545.607 278.209 554.554 271.689 563.074C269.915 565.407 268.302 567.86 266.809 570.78C268.955 571.5 270.689 570.74 272.395 570.674C278.862 570.447 284.075 572.674 287.315 578.447C290.808 584.673 291.782 591.047 287.515 597.407C282.182 605.353 270.462 605.153 265.435 597.007C263.049 593.127 261.729 588.793 260.489 584.46C259.782 581.98 259.396 579.447 256.942 577.847C255.942 577.194 255.622 575.994 256.249 574.74C256.716 573.794 256.702 572.754 256.742 571.714C256.809 569.94 257.609 568.674 259.556 568.74C261.102 568.794 261.929 567.954 262.649 566.834C268.609 557.487 275.795 548.994 281.315 539.314C290.582 523.074 298.115 506.261 301.008 487.595C302.902 475.329 303.942 463.022 303.462 450.596C303.342 447.382 302.915 444.129 303.768 440.969C304.155 439.556 303.448 439.036 302.435 438.663C290.208 434.316 278.302 429.143 264.782 429.356C252.942 429.543 241.529 426.743 231.049 420.85C228.916 419.65 228.409 419.916 228.009 422.263C227.356 426.089 227.703 429.969 227.103 433.823C225.103 446.769 220.77 458.756 213.17 469.489C212.05 471.062 210.996 472.689 209.863 474.262C207.863 477.009 205.463 479.382 202.437 480.929C198.21 483.089 194.01 483.089 190.077 480.089C187.583 478.195 185.583 475.849 183.797 473.302C180.384 468.449 176.81 463.715 172.664 459.436C168.437 455.062 165.304 449.822 161.491 445.102C155.971 438.276 150.531 431.409 145.051 424.556C144.651 424.049 144.211 423.583 143.798 423.09C142.664 421.743 141.678 421.81 140.824 423.383C138.904 426.889 136.758 430.263 134.304 433.423C132.051 436.329 129.358 438.703 126.011 440.236C120.771 442.622 115.931 439.703 115.531 433.983C115.185 429.103 117.091 425.049 120.731 422.036C124.505 418.903 128.771 416.45 133.451 414.81C139.264 412.77 143.438 413.703 147.224 418.543C155.011 428.503 163.371 437.996 170.744 448.276C172.997 451.409 175.45 454.409 178.13 457.222C181.157 460.396 183.824 463.889 186.357 467.475C187.69 469.369 189.05 471.275 190.57 473.022C194.997 478.115 198.81 478.209 203.637 473.395C206.303 470.729 208.076 467.395 210.183 464.315C217.97 452.916 221.423 440.129 222.436 426.529C222.61 424.223 222.916 421.916 223.383 419.65C224.023 416.49 224.183 416.37 221.33 414.956C216.103 412.383 211.29 409.143 206.396 406.036C201.717 403.063 197.05 400.103 192.85 396.437C189.343 393.37 185.357 390.957 181.17 388.917C178.797 387.757 176.797 386.21 175.224 384.09C173.357 381.57 173.17 378.877 174.437 376.064C175.517 373.69 177.077 371.61 178.717 369.637C182.85 364.69 187.037 359.784 191.49 355.104C197.303 348.997 201.93 342.011 206.33 334.864C206.663 334.318 207.01 333.758 207.263 333.171C208.01 331.384 207.73 330.904 205.676 330.811C204.13 330.744 202.557 330.691 201.037 330.931C193.597 332.131 186.45 330.851 179.264 328.944C170.064 326.504 160.704 324.624 151.517 322.105C144.451 320.171 137.544 317.625 130.558 315.385C123.691 313.185 116.825 310.958 109.918 308.865C101.465 306.305 93.545 302.638 86.1318 297.852C81.5586 294.905 76.6253 292.665 71.7454 290.332C60.7189 285.038 51.1057 277.639 41.7859 269.879C36.546 265.519 31.7994 260.532 26.8128 255.866C21.9729 251.332 17.9196 246.212 14.7464 240.359C9.94643 231.519 4.99985 222.76 1.89324 213.133C-6.55074e-05 207.266 -1.28004 201.427 2.21323 195.653C8.55979 175.427 21.5062 160.054 37.9726 147.321C47.6258 139.854 58.8656 135.708 70.3854 132.254C79.0653 129.654 87.1852 125.761 95.4917 122.228C107.491 117.121 117.878 109.481 128.531 102.268C133.678 98.7882 137.411 93.6817 141.638 89.1618C147.717 82.6685 152.024 75.082 155.797 67.1355C156.797 65.0288 157.811 62.9089 159.451 61.2422C163.184 57.4556 166.17 53.0824 169.37 48.8824C176.944 38.9626 185.757 30.2427 195.89 23.0695C207.036 15.1763 218.69 7.88311 232.103 4.30984C242.836 1.45655 253.809 -0.650077 264.942 0.123243C272.742 0.669901 280.715 0.509904 288.288 2.89653C295.288 5.09649 302.262 7.42979 309.061 10.1897C315.168 12.6697 320.755 16.123 325.634 20.6962C333.248 27.8294 341.647 34.1093 348.141 42.4425C351.981 47.3624 355.074 52.6957 357.754 58.2823C362.221 67.5754 366.754 76.8419 370.794 86.3218C376.074 98.7349 379.42 111.641 379.007 125.321C378.82 131.548 377.5 137.561 376.207 143.601C374.62 151.014 373.767 158.574 370.98 165.734C367.194 175.494 362.434 184.773 357.301 193.853C355.274 197.427 352.434 200.507 349.741 203.64C347.047 206.76 344.527 210.026 341.928 213.226C341.408 213.866 341.048 214.533 341.767 215.253C342.327 215.8 342.994 215.613 343.541 215.266C344.514 214.64 345.474 213.973 346.354 213.24C351.581 208.893 355.567 203.547 358.981 197.707C362.807 191.147 367.22 184.947 371.38 178.614C375.527 172.294 379.62 165.68 380.634 157.601C381.514 150.614 383.833 143.814 385.487 136.921C385.993 134.788 386.46 132.641 386.833 130.481C387.313 127.654 387.34 124.961 385.713 122.295C384.007 119.495 384.02 116.121 383.66 112.921C383.113 108.041 382.793 103.148 384.1 98.3083C385.1 94.6283 387.167 91.8017 390.567 90.0284C396.34 87.0151 402.86 89.6551 404.34 96.0016C406.18 103.895 404.1 111.068 399.033 117.361C397.66 119.068 395.993 120.535 394.167 121.761C393.113 122.468 392.553 123.268 392.58 124.601C392.7 129.801 391.607 134.854 390.38 139.868C387.793 150.387 384.927 160.827 380.754 170.827C379.034 174.947 376.927 178.92 374.234 182.627C370.527 187.72 367.354 193.213 364.074 198.613C360.581 204.36 356.927 209.96 351.954 214.586C350.434 216 348.914 217.36 347.061 218.333C345.367 219.226 344.754 220.306 345.474 222.413C349.647 234.733 352.554 247.439 356.287 259.892C357.061 262.479 358.194 264.945 359.101 267.492C359.687 269.119 360.821 269.639 362.434 269.319C364.074 268.999 365.727 268.719 367.354 268.332C374.474 266.625 381.78 265.799 388.807 263.612C390.98 262.932 392.327 262.106 392.847 259.639C394.233 253.026 403.006 247.452 408.526 248.172C411.78 248.599 413.86 250.292 414.94 253.012C416.046 255.772 415.766 258.546 413.34 260.812C408.66 265.185 403.406 268.239 396.767 267.852C391.3 267.532 386.047 268.519 380.78 269.759C376.287 270.825 371.727 271.625 367.194 272.545C366.687 272.652 366.18 272.732 365.687 272.865C362.527 273.759 362.34 274.039 363.354 277.145C365.274 283.025 367.234 288.878 368.154 295.038C368.687 298.625 368.567 302.225 369.06 305.811C369.767 310.931 370.58 316.011 371.647 321.065C372.82 326.638 373.367 332.238 373.3 337.944C373.207 344.904 372.767 351.877 373.26 358.837C373.487 362.051 374.02 365.25 374.1 368.464C374.327 377.784 373.22 386.957 370.9 396.01C368.82 404.13 366.407 412.143 363.82 420.103C362.181 425.156 359.954 429.929 357.447 434.596C355.047 439.049 351.421 441.449 346.407 442.009C334.674 443.329 322.981 443.169 311.328 441.223C310.181 441.036 309.035 440.889 307.555 440.689V440.703ZM323.461 278.039C312.901 278.665 302.595 277.705 292.262 275.732C282.595 273.892 273.835 269.972 265.249 265.639C260.889 263.439 256.702 260.919 252.089 259.252C251.142 258.906 250.236 258.346 249.422 257.746C248.729 257.226 247.876 256.559 248.422 255.532C248.942 254.546 249.996 254.546 250.796 254.972C254.769 257.132 259.276 258.039 263.169 260.372C271.822 265.572 280.969 269.652 290.915 271.612C295.835 272.585 300.702 273.892 305.781 273.972C314.421 274.105 323.088 274.239 331.714 273.745C338.901 273.332 346.141 272.932 353.167 271.119C355.554 270.505 355.594 270.519 354.714 268.052C353.461 264.532 351.927 261.106 350.901 257.519C348.194 247.986 345.647 238.399 343.168 228.813C342.288 225.399 340.474 222.573 338.701 219.573C335.061 213.466 331.034 207.68 326.581 202.187C324.741 199.92 324.435 200 321.608 201.267C320.075 201.947 318.581 202.693 317.075 203.44C309.088 207.36 300.955 210.893 292.382 213.44C279.649 217.226 266.755 219.173 253.449 217.973C251.142 217.76 248.809 217.84 246.489 217.733C244.849 217.653 244.303 218.2 244.369 220C244.609 225.799 244.609 231.599 244.676 237.399C244.676 238.293 244.636 239.213 244.489 240.093C243.049 249.132 241.129 258.092 238.556 266.865C232.383 287.918 224.916 308.518 214.983 328.104C210.263 337.411 205.13 346.557 198.29 354.557C195.277 358.077 191.997 361.397 188.97 364.917C185.863 368.53 182.504 371.957 179.984 376.037C178.237 378.864 178.57 380.757 181.144 382.784C182.557 383.89 184.117 384.85 185.73 385.623C189.837 387.61 193.463 390.303 196.917 393.21C199.503 395.383 202.25 397.263 205.01 399.157C213.943 405.316 223.663 410.17 232.876 415.85C235.623 417.543 238.383 419.29 241.489 420.183C249.556 422.503 257.702 424.409 266.169 424.276C275.342 424.129 284.062 426.383 292.542 429.543C298.102 431.609 303.648 433.676 309.328 435.409C312.901 436.503 316.555 437.303 320.301 437.463C327.128 437.756 333.968 437.716 340.808 437.596C347.767 437.476 352.301 434.796 354.927 428.063C357.501 421.449 359.874 414.796 362.021 408.036C365.434 397.317 367.927 386.437 368.62 375.184C368.807 372.224 368.807 369.264 368.5 366.29C367.794 359.504 367.14 352.704 367.647 345.851C368.247 337.731 368.007 329.651 366.487 321.585C364.98 313.611 363.62 305.625 363.087 297.492C362.634 290.532 360.514 283.839 358.327 277.225C357.794 275.612 356.994 274.612 354.901 275.252C352.834 275.879 350.621 276.092 348.447 276.345C340.114 277.319 331.754 277.839 323.461 278.052V278.039ZM286.302 18.9229C285.662 20.9629 285.208 22.1629 284.915 23.3895C282.222 34.3227 277.569 44.2292 270.075 52.7624C267.542 55.6556 265.435 58.9489 263.209 62.1089C260.982 65.2822 258.769 68.5354 255.756 70.9621C248.076 77.1486 242.303 85.2018 234.916 91.655C234.049 92.4017 233.356 93.375 232.676 94.3083C224.316 105.948 217.143 118.308 210.516 131.001C205.716 140.188 199.81 148.654 192.53 156.027C185.917 162.721 179.37 169.507 171.704 175.054C171.29 175.36 170.89 175.694 170.504 176.027C169.504 176.867 169.544 177.774 170.41 178.68C171.037 179.334 171.69 179.96 172.344 180.574C182.224 189.893 193.703 196.68 206.25 201.707C210.556 203.427 214.756 205.373 219.303 206.493C231.183 209.44 243.049 212.053 255.436 212.413C261.142 212.573 266.755 212.56 272.342 211.826C291.168 209.386 308.275 202.053 324.741 192.947C332.448 188.68 339.221 183.08 346.221 177.827C350.061 174.934 353.074 171.24 355.474 167.027C360.247 158.694 363.407 149.694 366.3 140.614C369.3 131.188 372.34 121.868 371.14 111.535C370.18 103.215 368.287 95.3083 364.994 87.7218C362.021 80.8686 358.567 74.2287 355.527 67.4021C354.501 65.0955 353.114 63.8822 350.594 63.9355C343.767 64.0688 337.634 60.9622 331.101 59.6556C325.914 58.6156 321.435 55.8956 316.968 52.8824C308.648 47.2825 301.595 40.3892 294.675 33.2827C293.222 31.7894 292.115 30.0694 291.022 28.3094C289.315 25.6028 288.262 22.5629 286.315 18.9229H286.302ZM223.836 99.8549C222.303 99.8949 221.543 100.868 220.61 101.495C218.036 103.215 215.516 104.988 212.956 106.748C206.156 111.415 199.303 116.015 192.557 120.761C183.477 127.148 174.277 133.308 164.064 137.761C161.464 138.894 158.837 139.961 156.277 141.161C153.184 142.614 152.917 143.174 153.624 146.574C153.931 148.081 154.477 149.534 154.891 151.027C156.877 158.334 160.997 164.627 164.544 171.187C166.33 174.48 166.677 174.44 169.757 172.28C176.437 167.574 182.024 161.641 187.877 156.041C195.183 149.054 201.357 141.068 206.036 132.108C211.183 122.281 216.916 112.815 222.49 103.242C223.05 102.282 224.01 101.468 223.836 99.8682V99.8549ZM284.382 588.807C284.355 581.26 280.129 576.447 273.675 576.34C271.342 576.3 269.089 576.874 266.822 577.394C265.315 577.74 264.542 578.66 265.009 580.207C266.382 584.753 267.529 589.42 269.795 593.62C272.369 598.407 278.009 599.167 281.835 595.473C283.822 593.553 284.595 591.193 284.395 588.82L284.382 588.807ZM387.9 105.508C388.567 109.161 388.313 112.921 389.353 116.535C390.153 119.308 390.633 119.521 392.807 117.481C397.753 112.841 399.913 106.948 400.193 100.282C400.247 99.0949 399.887 97.9883 399.42 96.9349C397.913 93.495 394.913 92.7484 391.927 95.055C390.34 96.2683 389.287 97.9083 388.82 99.8016C388.367 101.655 387.847 103.535 387.9 105.508ZM399.14 263.612C401.873 263.679 407.153 261.332 409.86 258.919C411.26 257.666 412.46 256.359 411.513 254.292C410.673 252.439 408.513 251.106 406.433 251.732C402.02 253.079 398.247 255.452 396.513 260.039C395.753 262.039 396.98 263.572 399.127 263.625L399.14 263.612ZM135.211 420.876C131.424 421.463 125.611 424.769 123.598 426.903C122.331 428.249 121.438 429.796 121.091 431.609C120.878 432.743 120.705 433.996 121.838 434.783C122.971 435.569 124.078 435.009 125.065 434.383C130.144 431.156 132.784 426.103 135.211 420.876Z" fill="black"/>
<path d="M478.712 168.574C479.259 167.987 478.859 167.387 478.779 166.787C478.512 164.734 478.312 162.694 478.539 160.614C479.179 154.574 481.818 152.107 488.418 151.574C488.592 153.054 487.432 153.894 486.712 154.787C481.792 160.987 483.218 166.974 488.285 171.6C490.218 173.36 492.125 175.067 494.725 175.707C497.085 176.28 497.645 175.707 497.352 173.24C497.018 170.427 496.112 167.694 496.338 164.814C496.418 163.8 495.858 163.12 495.152 162.507C494.658 162.067 494.072 161.427 494.338 160.867C495.565 158.307 493.885 156.374 492.992 154.334C492.192 152.494 492.338 150.881 493.338 149.454C492.858 148.281 491.872 148.734 491.245 148.361C489.285 147.201 488.938 145.307 490.365 143.054C492.192 140.174 495.072 138.308 497.418 135.934C498.698 134.628 499.925 133.361 500.805 131.761C503.231 127.361 505.578 122.921 507.845 118.441C515.245 103.855 525.964 92.9083 542.084 88.0684C547.137 86.5484 552.137 84.8951 557.177 83.3618C565.537 80.8418 572.23 75.6286 578.817 70.1887C583.683 66.162 588.723 62.3754 594.483 59.6422C599.443 57.2955 604.523 56.5622 609.87 58.0555C610.123 58.1222 610.39 58.1089 610.63 58.2022C611.816 58.7088 613.403 59.2422 613.056 60.7488C612.643 62.5221 610.896 61.9088 609.776 61.5621C602.176 59.2288 595.91 62.1755 589.91 66.362C585.683 69.322 581.603 72.4553 577.63 75.7619C571.244 81.0951 564.19 85.2284 556.044 87.4417C550.831 88.855 545.684 90.495 540.591 92.3083C534.711 94.4016 529.604 97.7082 524.978 102.028C518.231 108.335 513.458 115.788 509.845 124.174C507.498 129.614 503.978 134.454 501.805 140.001C500.885 142.334 500.365 144.667 500.471 147.147C500.525 148.574 500.645 150.001 499.925 151.307C499.658 151.801 499.552 152.347 499.991 152.694C501.618 154.001 501.005 155.761 500.991 157.374C500.925 161.88 500.805 166.36 501.685 170.854C502.191 173.4 503.965 175.12 504.845 177.28C505.645 179.253 504.378 181.627 505.445 183.973C511.565 197.373 517.925 210.6 527.724 221.826C530.524 225.039 533.218 228.333 535.924 231.613C542.631 239.732 551.724 244.346 561.084 248.466C566.844 250.999 572.817 253.066 578.777 255.132C584.537 257.132 590.297 258.745 596.323 259.439C597.99 259.625 599.656 259.879 601.323 259.919C610.376 260.159 619.403 259.372 628.296 257.919C633.349 257.092 638.549 257.599 643.482 255.759C649.749 253.412 656.149 251.399 662.455 249.172C665.869 247.959 669.002 246.159 672.095 244.279C681.922 238.266 691.002 231.253 699.641 223.679C705.615 218.439 710.015 211.853 713.788 204.946C717.241 198.613 720.268 192.053 722.681 185.227C723.708 182.293 725.214 179.587 726.761 176.894C727.321 175.92 727.788 174.56 729.094 174.507C731.641 174.414 731.308 172.814 730.868 171.307C729.761 167.467 731.014 164.2 733.108 161.094C733.614 160.347 734.174 159.627 734.601 158.84C736.081 156.081 735.588 153.481 733.148 151.627C731.294 150.227 729.388 148.894 727.414 147.694C720.761 143.641 717.508 137.681 717.708 129.988C717.908 121.788 716.481 114.108 711.908 107.135C710.521 105.015 708.788 103.428 706.601 102.201C700.121 98.6015 693.215 96.4015 685.922 95.0149C680.482 93.9749 675.029 93.0416 669.562 92.2949C662.562 91.3483 657.416 87.615 652.829 82.7351C648.909 78.5618 646.149 73.5753 643.349 68.6553C642.029 66.3354 640.309 65.0821 637.816 64.2821C632.496 62.5488 627.296 62.0821 622.043 64.4554C620.709 65.0554 618.989 65.9087 618.096 63.7754C617.576 62.5488 618.763 61.6155 620.896 60.7888C627.656 58.1755 634.296 58.9355 640.909 61.2288C643.482 62.1221 645.189 64.0288 646.616 66.2421C648.362 68.9487 650.149 71.6286 651.816 74.3886C654.402 78.6685 657.922 82.0418 661.949 84.8951C665.775 87.615 670.349 88.0017 674.775 88.655C682.788 89.855 690.828 90.9083 698.508 93.5883C702.095 94.8416 705.535 96.4949 709.135 98.0015C709.108 96.8949 708.508 96.3482 707.908 95.9749C703.295 93.1083 701.761 88.415 701.001 83.5484C700.241 78.6952 697.588 75.7219 693.442 73.5486C687.548 70.442 681.055 69.282 674.775 67.4154C669.602 65.8687 664.469 64.2021 659.335 62.5221C657.056 61.7755 655.336 60.2021 653.949 58.2822C653.429 57.5489 652.922 56.7755 652.576 55.9489C649.562 48.6157 643.202 46.2424 636.189 44.7224C628.389 43.0291 620.856 43.5091 613.63 47.1357C612.483 47.709 610.91 48.629 610.216 47.2024C609.376 45.4691 611.323 44.8691 612.51 44.2957C625.149 38.1225 637.469 39.5758 649.522 46.0557C651.029 46.869 652.189 48.0824 653.082 49.5357C654.096 51.189 655.136 52.8156 656.056 54.5089C657.415 57.0289 659.375 58.6955 662.149 59.4955C669.309 61.5621 676.295 64.1754 683.575 65.8954C689.108 67.202 694.428 69.162 699.081 72.5886C701.988 74.7352 704.201 77.2685 704.628 81.0418C704.708 81.8018 705.201 82.5084 705.268 83.2551C705.748 88.855 709.108 92.3216 713.775 94.8149C715.815 95.9082 717.894 96.9482 719.974 97.9615C730.401 103.055 736.401 111.308 737.814 122.854C738.454 128.161 739.574 133.214 743.627 137.214C745.574 139.134 746.401 141.854 747.001 144.507C748.041 149.134 749.121 153.667 748.054 158.587C747.147 162.84 747.067 167.4 748.041 171.667C748.921 175.547 748.147 179.053 747.201 182.667C746.947 183.667 746.334 184.72 746.494 185.64C747.454 191.347 745.094 196.507 744.014 201.866C743.534 204.293 743.681 206.746 743.814 209.2C743.881 210.48 744.054 211.986 742.321 212.32C740.321 212.693 740.041 210.973 739.681 209.666C739.081 207.533 739.121 205.253 739.521 203.133C740.107 199.986 740.307 196.733 741.654 193.76C742.254 192.427 742.601 191.093 741.734 189.773C741.121 189.453 741.081 189.973 740.947 190.253C737.494 197.813 731.494 202.066 723.414 203.226C720.988 203.573 719.975 204.72 718.855 206.653C713.668 215.653 707.308 223.639 699.121 230.226C692.082 235.893 685.108 241.599 677.442 246.426C673.069 249.172 668.749 251.986 663.829 253.692C661.975 254.332 660.975 255.172 661.909 257.385C662.709 259.265 663.055 261.332 663.655 263.305C664.109 264.799 665.082 265.265 666.629 264.905C669.295 264.292 671.789 263.292 674.215 262.079C689.068 254.572 703.548 246.399 718.121 238.386C727.974 232.973 737.148 226.679 744.934 218.306C750.894 211.906 757.36 205.946 763.374 199.546C765.667 197.093 766.267 194.827 764.52 192.027C760.027 184.88 761.734 177.44 763.52 170.054C764.787 164.827 767.427 159.867 766.694 154.294C766.174 150.347 766.08 146.361 765.134 142.454C764 137.814 764.88 133.228 766.254 128.761C767.614 124.321 768.52 119.801 769.254 115.215C769.987 110.641 769.147 106.215 768.76 101.735C768.64 100.308 767.667 99.1482 767.054 97.8682C763.427 90.3883 757.774 84.2418 753.521 77.1752C751.921 74.5219 749.201 72.7619 746.841 70.7753C744.614 68.9087 742.854 66.762 741.827 64.0288C739.174 56.9489 735.148 50.549 730.374 44.8557C724.121 37.4025 716.455 31.816 705.988 31.816C703.801 31.816 701.615 31.4826 699.442 31.3093C697.122 31.136 694.815 31.0426 692.482 31.2426C680.722 32.216 670.402 29.256 661.962 20.5495C656.376 14.7762 650.082 9.74966 642.362 7.14971C636.536 5.17641 630.669 5.4164 625.416 9.26967C624.269 10.1097 623.096 10.8963 621.949 11.723C621.203 12.2563 620.483 12.2296 619.91 11.523C619.256 10.7096 619.843 10.0297 620.389 9.523C624.016 6.08306 628.096 3.6031 633.229 3.02977C639.136 2.38979 644.536 3.84309 649.496 6.80304C655.256 10.243 660.709 14.1496 665.242 19.2162C669.762 24.2694 675.935 26.2294 682.268 27.616C685.775 28.376 689.348 28.6427 693.002 27.8294C695.082 27.376 697.388 27.6294 699.548 27.936C702.508 28.3627 705.455 28.576 708.415 28.5093C710.788 28.456 713.188 28.736 715.215 29.6827C722.614 33.1359 729.588 37.1759 734.401 44.1758C738.654 50.349 742.867 56.4955 745.547 63.5621C746.107 65.0554 747.081 66.2687 748.321 67.2287C753.361 71.162 757.361 75.9219 760.734 81.3885C763.014 85.0951 765.627 88.655 768.16 92.215C773.707 99.9615 773.934 108.535 772.907 117.415C772.307 122.534 771.2 127.534 769.627 132.454C768.467 136.094 768.734 139.734 769.56 143.481C771.374 151.721 772.08 159.96 768.574 168.08C766.067 173.88 765.947 180.093 766.414 186.32C766.467 186.96 766.374 187.68 766.64 188.227C767.187 189.333 766.894 191.173 768.374 191.4C769.707 191.6 769.934 189.907 770.574 189C775.507 181.907 780.4 174.787 785.32 167.667C785.973 166.707 786.733 165.8 787.253 164.774C789.04 161.28 790.707 158.054 789.907 153.574C788.453 145.414 791.293 138.068 796.72 131.801C798.426 129.828 800.466 128.214 802.866 127.188C806 125.854 809.213 125.561 811.973 127.948C814.706 130.308 815.733 133.494 815.133 137.028C813.266 147.867 807.16 155.881 798.093 161.734C795.733 163.254 793.907 165.014 792.413 167.347C786.133 177.107 778.96 186.267 772.96 196.227C771.68 198.346 770.654 200.48 770.334 203C769.987 205.733 768.347 208.013 767.027 210.346C765.627 212.813 765.04 215.32 765.227 218.106C765.467 221.453 765.374 224.813 764.814 228.146C764.494 230.066 764.774 231.999 764.987 233.933C765.56 239.146 765.12 244.226 762.68 248.986C757.761 258.585 757.401 268.532 760.84 278.585C762.907 284.652 763.12 290.585 761.8 296.812C760.974 300.691 760.894 304.731 760.574 308.718C760.294 312.318 758.721 315.371 756.841 318.318C755.961 319.691 754.614 320.611 753.121 320.931C748.867 321.838 744.694 323.491 740.201 322.371C738.387 321.918 736.654 322.251 735.014 323.264C733.601 324.144 731.961 324.664 730.548 325.558C723.588 329.904 715.948 330.104 708.148 329.278C705.908 329.038 703.815 329.184 701.775 330.291C700.322 331.078 698.735 331.704 697.148 332.184C695.402 332.704 695.108 333.531 696.135 334.958C698.695 338.517 701.175 342.131 704.175 345.371C714.121 356.077 725.201 365.517 736.601 374.624C744.587 381.01 745.881 386.717 738.121 395.117C734.174 399.396 729.708 403.13 724.721 406.17C716.081 411.423 708.308 417.769 700.935 424.663C696.122 429.156 691.242 433.583 685.495 436.876C683.868 437.809 683.455 438.996 683.695 440.716C685.015 450.049 685.588 459.449 686.162 468.849C686.295 471.129 687.082 473.382 687.655 475.622C688.348 478.302 690.242 479.742 692.922 480.035C698.815 480.675 704.668 481.248 710.588 479.595C714.935 478.382 719.494 478.302 724.041 478.728C735.241 479.782 746.467 479.435 757.694 479.075C760.934 478.968 764.134 479.195 767.36 479.262C769.814 479.315 772.227 479.488 774.574 478.422C776.467 477.555 778.16 478.355 779.44 479.808C782.04 482.755 785.373 484.728 788.52 486.968C794.573 491.275 798.72 497.221 801.4 504.021C804.026 510.715 799.68 519.341 792.893 521.754C789.773 522.861 786.8 522.488 784.053 520.568C781.8 518.981 780.053 516.928 778.613 514.608C773.894 507.008 771.507 498.648 770.694 489.795C770.334 485.902 770.4 485.902 766.414 485.355C763.067 484.888 759.707 484.848 756.374 485.155C746.441 486.062 736.521 486.008 726.614 484.902C720.241 484.195 714.028 484.648 707.828 486.208C701.508 487.795 695.255 486.435 689.108 484.995C685.548 484.168 683.575 481.328 682.455 478.008C681.428 474.942 680.895 471.769 680.668 468.542C680.135 461.089 679.615 453.622 679.082 446.169C679.042 445.529 678.962 444.889 678.842 444.249C678.242 441.062 677.962 440.742 674.775 441.502C668.749 442.916 662.975 442.102 657.309 439.982C652.482 438.169 647.576 436.649 642.616 435.236C635.389 433.169 628.576 430.089 622.069 426.356C618.03 424.036 613.936 421.836 609.176 421.383C608.536 421.316 607.896 421.209 607.256 421.196C603.083 421.049 602.296 421.596 601.55 425.623C599.723 435.503 598.043 445.409 596.19 455.289C595.523 458.822 594.63 462.329 593.697 465.809C592.537 470.102 593.017 473.929 596.203 477.262C605.47 486.955 613.336 497.915 623.269 507.021C629.696 512.915 634.403 520.261 638.762 527.714C643.496 535.821 649.576 542.781 655.829 549.647C656.696 550.594 657.482 551.847 659.029 550.994C661.429 549.674 662.989 551.101 664.415 552.634C666.802 555.194 668.895 557.994 670.562 561.06C673.842 567.06 676.895 573.18 680.175 579.167C682.842 584.007 683.468 589.14 682.908 594.513C682.882 594.767 682.908 595.033 682.842 595.286C681.135 603.513 674.775 605.366 669.255 600.713C667.469 599.206 665.709 597.633 664.562 595.606C658.749 585.273 655.136 574.407 657.029 562.34C657.242 560.994 656.802 560.26 656.042 559.274C652.962 555.287 649.869 551.314 646.336 547.727C639.363 540.661 634.856 531.874 629.443 523.714C626.509 519.288 623.523 514.875 619.59 511.328C612.27 504.715 606.376 496.861 599.803 489.595C597.817 487.395 595.99 485.035 593.883 482.942C588.07 477.195 586.763 470.662 589.043 462.782C592.417 451.156 594.017 439.102 596.497 427.249C597.337 423.223 596.737 422.809 592.897 424.209C586.443 426.556 579.804 427.983 573.004 428.823C568.964 429.316 565.284 430.756 561.977 433.196C560.11 434.569 558.244 435.942 556.057 436.822C550.457 439.076 546.057 436.902 544.337 431.169C542.537 425.143 544.204 419.423 545.804 413.73C547.031 409.383 548.844 405.223 550.924 401.21C554.497 394.29 556.871 387.023 558.524 379.383C560.457 370.464 563.15 361.704 565.484 352.864C567.164 346.517 568.79 340.157 570.417 333.798C570.644 332.931 570.804 332.038 570.977 331.158C571.19 330.078 570.737 329.358 569.657 329.211C561.75 328.104 553.817 326.718 546.204 330.664C541.057 333.331 535.684 335.518 530.244 337.504C524.818 339.491 519.285 340.184 513.578 339.024C508.485 337.997 506.191 334.838 507.485 329.798C508.151 327.198 507.605 325.238 506.018 323.371C503.538 320.451 502.698 317.038 502.845 313.305C502.911 311.505 502.885 309.691 503.058 307.891C503.631 301.505 502.791 295.212 500.925 289.172C498.792 282.252 499.018 275.492 500.685 268.599C501.258 266.225 501.725 263.825 502.085 261.412C502.498 258.692 501.658 256.372 499.672 254.386C497.938 252.652 496.272 250.812 494.245 249.439C489.738 246.386 488.645 241.986 488.965 236.946C489.125 234.373 489.272 231.799 489.365 229.226C489.432 227.173 489.272 225.186 488.752 223.133C488.098 220.533 488.245 217.773 489.018 215.106C489.498 213.466 489.005 212.32 487.152 212.026C486.512 211.92 485.912 211.666 485.272 211.586C473.579 210.066 464.472 195.427 465.299 185.467C465.845 178.947 469.672 175.627 476.099 176.787C476.712 176.894 477.365 177.334 477.912 176.787C478.632 176.054 477.952 175.36 477.712 174.667C477.379 173.654 476.725 172.894 475.885 172.227C472.419 169.427 470.579 165.867 471.619 161.374C472.232 158.72 471.379 157.254 469.339 155.507C464.512 151.374 464.112 145.721 465.139 139.894C465.939 135.321 467.619 130.974 468.979 126.548C469.499 124.868 469.645 123.321 468.925 121.668C465.739 114.348 466.672 107.121 469.339 99.8948C472.085 92.4549 475.845 85.6017 480.792 79.4018C483.618 75.8552 485.805 71.9086 488.192 68.082C490.072 65.0554 490.365 61.5088 491.192 58.1622C492.178 54.2422 494.098 51.109 497.232 48.549C503.431 43.4691 509.805 38.6958 517.098 35.2559C520.644 33.5893 524.284 32.5893 528.218 32.3893C537.751 31.9093 546.644 29.0027 555.231 25.0161C556.764 24.2961 557.964 23.1094 559.217 21.9895C563.91 17.7495 568.764 13.7096 573.95 10.083C583.51 3.4031 593.83 2.09646 604.856 5.60306C606.203 6.02972 607.55 6.48305 608.83 7.05637C609.816 7.49637 610.683 8.28302 610.096 9.46967C609.59 10.483 608.59 10.1897 607.71 9.85633C604.336 8.54968 600.816 7.85636 597.257 7.24304C591.457 6.24305 585.99 7.1897 580.803 9.78966C574.764 12.8296 569.417 16.9495 564.63 21.6561C557.524 28.656 548.684 31.7493 539.364 34.0559C536.724 34.7092 534.058 35.1759 531.364 35.2692C522.338 35.5759 514.751 39.5358 507.618 44.5891C504.365 46.8957 501.338 49.5357 498.258 52.0956C496.312 53.7089 495.085 55.7756 494.672 58.3222C493.218 67.082 488.952 74.5086 483.565 81.3751C478.352 88.0417 474.432 95.3616 471.845 103.428C470.005 109.135 469.579 114.748 472.165 120.361C473.232 122.681 473.219 125.028 472.419 127.494C471.072 131.654 469.685 135.788 468.712 140.067C467.925 143.507 468.565 146.734 469.459 149.947C469.925 151.601 471.325 152.681 472.739 153.641C475.512 155.507 476.552 157.774 475.405 161.24C474.205 164.854 475.552 167.334 478.619 168.574H478.712ZM542.537 246.239C542.164 247.546 543.391 248.972 542.537 250.279C541.631 251.652 542.577 252.426 543.524 253.146C545.977 255.026 548.404 256.972 550.951 258.719C558.924 264.185 566.537 270.172 574.83 275.172C578.91 277.639 578.844 277.665 579.99 273.199C580.537 271.079 581.19 268.999 581.91 266.932C582.283 265.839 582.883 264.812 583.883 264.119C585.11 263.265 586.203 263.692 586.403 265.145C586.59 266.572 586.177 267.919 585.777 269.305C583.363 277.465 581.123 285.665 581.39 294.305C581.43 295.585 581.163 296.878 581.083 298.158C580.67 305.251 578.897 312.158 578.137 319.211C577.604 324.064 577.177 328.931 575.91 333.691C571.91 348.744 567.79 363.77 564.244 378.93C562.057 388.277 559.231 397.276 554.831 405.81C552.884 409.596 551.297 413.57 550.377 417.743C549.524 421.609 548.257 425.489 549.777 429.503C550.697 431.943 551.857 432.583 554.177 431.503C555.564 430.863 556.871 429.983 558.111 429.063C562.017 426.156 566.35 424.183 571.137 423.476C579.19 422.289 586.977 420.236 594.723 417.703C604.856 414.383 614.776 414.97 624.083 420.849C626.683 422.503 629.549 423.743 632.336 425.089C641.549 429.529 651.576 431.649 661.175 434.996C668.042 437.396 674.869 436.276 681.255 432.543C686.415 429.529 691.015 425.809 695.348 421.743C703.641 413.956 712.335 406.703 722.108 400.81C726.561 398.13 730.268 394.543 733.974 390.943C737.068 387.93 737.961 383.543 733.681 380.343C728.508 376.477 723.948 371.904 718.921 367.85C711.068 361.517 703.961 354.344 697.575 346.597C688.455 335.531 681.282 323.091 674.322 310.585C673.069 308.331 672.082 305.945 671.349 303.465C669.895 298.531 668.442 293.585 666.922 288.665C663.949 278.945 660.882 269.252 657.962 259.519C656.882 255.932 657.016 255.879 653.416 257.226C651.602 257.906 649.776 258.545 648.042 259.385C644.869 260.945 641.522 261.932 638.029 262.119C635.669 262.239 634.589 263.345 633.883 265.372C633.056 267.812 632.016 270.172 630.696 272.399C626.509 279.438 620.323 282.198 612.336 280.518C604.23 278.812 599.15 273.212 595.257 266.505C593.99 264.319 592.763 263.372 590.363 262.985C584.537 262.039 578.617 261.585 572.964 259.599C563.697 256.346 554.804 252.306 546.217 247.546C545.151 246.959 544.217 245.852 542.551 246.226L542.537 246.239ZM688.828 261.079C687.188 260.879 686.162 261.799 685.068 262.385C680.042 265.039 674.775 267.159 669.442 269.092C666.335 270.212 666.242 270.292 667.282 273.425C668.882 278.319 670.829 283.132 672.029 288.132C675.375 302.038 682.282 314.185 690.002 325.984C692.108 329.211 693.602 329.651 697.135 328.318C697.615 328.131 698.095 327.931 698.535 327.678C701.775 325.798 705.215 325.358 708.961 325.731C716.241 326.438 723.388 325.944 729.801 321.784C731.201 320.878 732.721 320.131 734.228 319.411C736.108 318.518 738.001 318.025 740.188 318.624C744.081 319.691 747.841 318.358 751.574 317.465C753.174 317.078 754.201 315.838 754.854 314.385C756.067 311.678 757.134 308.985 757.2 305.905C757.28 302.438 757.56 298.918 758.28 295.545C759.414 290.225 759.227 285.118 757.48 279.972C753.787 269.145 753.907 258.439 759.12 248.079C761.534 243.279 762.267 238.346 761.374 233.093C761 230.919 761.094 228.733 761.52 226.546C762.614 221.053 761 215.413 762.92 209.453C761.147 210.226 760.387 211.106 759.614 211.933C756.694 215.04 753.401 217.773 750.481 220.839C743.041 228.653 734.974 235.573 725.401 240.652C724.481 241.146 723.561 241.732 723.334 242.826C722.494 246.919 720.161 250.399 718.761 254.266C716.201 261.332 715.348 268.452 717.001 275.852C718.228 281.318 718.814 286.905 716.135 292.118C713.628 296.971 712.415 301.905 713.295 307.371C713.641 309.505 713.481 311.758 712.361 313.771C711.975 314.465 711.588 315.171 710.628 314.905C709.841 314.691 709.828 313.945 709.828 313.331C709.801 311.145 710.241 308.865 709.801 306.771C708.615 301.238 710.041 296.332 712.535 291.532C714.575 287.598 714.908 283.478 714.121 279.132C713.615 276.345 712.881 273.612 712.708 270.759C712.281 263.785 713.868 257.226 716.454 250.826C717.148 249.106 718.268 247.506 718.388 245.599C717.055 244.879 716.215 245.692 715.361 246.146C708.201 249.972 701.041 253.826 693.895 257.679C693.215 258.039 692.535 258.412 691.908 258.865C691.388 259.239 690.735 259.919 691.335 260.425C693.228 262.052 691.788 263.465 691.188 264.905C690.162 267.399 688.615 269.759 688.602 272.532C688.562 277.039 688.428 281.545 689.388 286.012C690.668 292.038 691.535 298.132 693.842 303.931C695.922 309.171 693.562 314.011 691.762 318.811C691.482 319.544 690.735 319.984 689.855 319.624C689.148 319.331 689.095 318.651 689.068 318.011C688.975 315.638 689.908 313.465 690.482 311.238C691.028 309.051 691.335 306.918 690.495 304.785C688.562 299.851 687.402 294.718 686.508 289.518C684.908 280.185 683.615 270.852 688.842 262.092C688.948 261.905 688.855 261.612 688.855 261.079H688.828ZM493.112 214.173C491.232 217.08 491.472 219.653 492.045 221.906C492.672 224.346 492.752 226.733 492.698 229.159C492.658 231.346 492.512 233.546 492.298 235.719C491.818 240.532 492.792 244.626 497.245 247.439C499.405 248.812 501.191 250.746 502.898 252.692C504.751 254.812 505.711 257.172 505.725 260.065C505.738 263.359 504.911 266.425 504.125 269.545C502.658 275.372 502.098 281.198 504.111 287.038C505.845 292.078 506.578 297.278 506.618 302.585C506.645 306.451 506.631 310.331 506.538 314.198C506.485 316.225 506.925 318.104 508.165 319.638C511.005 323.118 512.485 326.864 511.591 331.438C511.245 333.184 512.191 334.198 514.058 334.691C516.871 335.451 519.604 335.584 522.471 335.078C529.138 333.891 535.218 331.091 541.257 328.238C544.951 326.491 545.497 325.158 543.284 321.584C540.471 317.038 539.831 312.265 540.431 307.131C540.977 302.451 540.524 297.918 538.618 293.518C537.298 290.452 536.444 287.198 535.258 284.078C532.138 275.865 532.004 267.519 533.951 259.039C534.351 257.292 534.964 255.786 536.911 254.692C532.844 251.746 529.298 248.946 525.538 246.492C520.658 243.292 516.231 239.586 512.018 235.559C510.991 234.586 510.005 232.399 508.445 233.426C507.085 234.319 507.658 236.493 507.978 238.133C508.058 238.506 508.245 238.866 508.338 239.239C509.391 243.386 511.498 247.106 513.191 250.986C515.498 256.252 516.871 261.799 516.271 267.505C515.871 271.332 515.925 275.252 515.005 279.012C513.698 284.345 514.965 288.918 518.431 293.038C520.031 294.932 521.044 297.078 521.524 299.585C521.964 301.865 522.218 304.171 522.564 306.451C523.071 309.731 523.231 313.025 524.644 316.198C525.978 319.171 525.671 322.504 524.378 325.611C524.018 326.478 523.631 327.398 522.498 327.064C521.564 326.784 521.804 325.811 521.764 325.091C521.658 322.651 522.551 319.998 521.391 317.824C519.151 313.625 519.578 309.051 518.951 304.638C518.418 300.865 517.711 297.398 515.085 294.385C512.391 291.292 511.031 287.452 511.191 283.332C511.325 279.878 511.911 276.425 512.378 272.985C513.458 265.185 513.151 257.599 509.311 250.439C508.098 248.172 507.151 245.759 506.165 243.386C504.765 240.012 503.965 236.586 504.791 232.853C505.165 231.173 505.578 229.199 504.218 227.653C500.485 223.413 496.725 219.213 493.085 214.146L493.112 214.173ZM537.551 256.146C537.338 258.839 537.324 261.412 536.698 263.945C535.644 268.145 535.791 272.359 536.778 276.572C538.338 283.238 541.071 289.505 543.177 295.985C544.111 298.878 544.657 301.785 544.204 304.731C543.324 310.411 543.751 315.771 547.071 320.678C547.497 321.304 547.751 322.091 547.871 322.838C548.137 324.571 549.071 324.998 550.604 324.451C552.977 323.598 555.431 323.811 557.884 323.718C561.657 323.571 565.324 324.171 569.017 324.771C571.79 325.211 572.55 324.691 572.857 322.278C573.79 314.985 575.324 307.798 576.204 300.491C576.844 295.105 576.39 289.652 577.457 284.318C577.75 282.878 577.044 282.092 575.937 281.545C573.15 280.185 570.497 278.585 567.964 276.812C566.59 275.852 565.87 276.345 565.47 277.799C564.364 281.865 563.87 285.918 565.91 289.838C568.11 294.078 568.91 298.545 568.67 303.291C568.47 307.411 568.297 311.531 569.244 315.611C569.47 316.571 569.31 317.678 569.137 318.678C568.95 319.731 568.35 320.851 567.244 320.851C565.87 320.851 565.364 319.691 565.364 318.398C565.364 313.505 564.524 308.625 565.084 303.718C565.51 299.905 565.004 296.212 563.19 292.825C560.457 287.718 560.644 282.425 561.977 277.052C562.617 274.479 562.057 272.772 559.764 271.159C553.017 266.399 546.084 261.905 539.631 256.746C539.151 256.359 538.644 255.892 537.591 256.159L537.551 256.146ZM737.254 181.64C738.494 181.427 738.908 182 739.427 182.333C741.641 183.72 742.334 183.493 743.241 180.973C744.267 178.12 744.401 175.24 743.841 172.24C742.934 167.4 743.081 162.56 743.841 157.681C744.881 151.094 744.067 144.561 739.734 139.387C735.574 134.428 734.054 128.734 733.441 122.721C732.361 112.028 724.734 102.761 711.975 99.4815C711.988 100.201 712.548 100.588 712.961 101.041C716.708 105.095 719.214 109.868 720.734 115.108C722.068 119.721 722.321 124.481 722.294 129.268C722.254 135.494 724.601 140.494 730.188 143.761C732.294 144.987 734.281 146.427 736.268 147.854C738.481 149.441 739.681 151.667 739.947 154.374C740.281 157.721 739.561 160.734 737.361 163.4C735.388 165.774 734.934 168.347 736.454 171.28C737.601 173.507 737.201 174.12 735.081 175.787C734.174 176.494 732.948 176.707 732.294 177.787C728.841 183.413 726.748 189.667 724.148 195.693C723.601 196.947 724.214 197.707 725.641 197.48C728.254 197.08 730.548 195.973 732.508 194.173C736.148 190.813 737.934 186.72 737.254 181.627V181.64ZM538.991 249.106C539.191 246.279 537.378 241.226 535.604 239.346C525.284 228.306 515.485 216.866 508.845 203.106C508.458 202.306 508.271 201.146 506.871 201.013C506.751 201.68 506.711 202.186 506.565 202.666C505.285 206.626 505.965 209.813 509.685 212.28C511.458 213.453 512.058 215.6 511.871 217.8C511.791 218.68 511.791 219.719 510.551 219.799C509.605 219.853 509.111 219.133 509.045 218.346C508.818 215.92 507.298 214.466 505.498 213.093C503.005 211.2 502.098 208.64 502.898 205.56C503.538 203.066 503.258 200.72 501.951 198.48C499.805 194.827 498.778 190.92 499.418 186.667C499.512 186.04 499.445 185.373 499.431 184.733C499.365 181.973 499.378 181.893 496.738 181.733C492.565 181.48 489.018 179.907 485.965 177.094C485.298 176.48 484.618 175.88 483.898 175.347C483.498 175.054 482.938 174.827 482.538 175.32C482.338 175.574 482.178 176.147 482.325 176.347C484.458 179.467 484.578 183.453 486.765 186.533C489.498 190.373 491.618 194.573 492.298 199.186C493.005 204.026 494.925 207.84 497.965 211.733C502.671 217.746 507.711 223.386 512.845 228.999C520.151 236.986 529.378 242.519 537.938 248.906C538.204 249.106 538.631 249.066 539.004 249.132L538.991 249.106ZM796.067 508.168C795.88 506.208 795.013 504.381 793.973 502.581C790.44 496.408 785.493 491.688 779.32 488.208C778.773 487.902 778.254 487.382 777.587 487.728C776.72 488.182 776.96 489.022 777.014 489.768C777.227 492.715 777.573 495.648 778.373 498.488C779.92 503.928 781.68 509.315 785.52 513.688C788.373 516.941 791.6 516.781 794.16 513.301C795.253 511.821 795.8 510.128 796.067 508.168ZM662.029 568.767C661.975 577.167 665.082 584.62 668.895 591.86C669.749 593.473 670.989 594.807 672.402 595.953C674.882 597.953 676.362 597.5 677.029 594.42C677.829 590.673 677.575 586.927 675.789 583.473C672.469 577.06 669.015 570.727 665.615 564.367C665.429 564.034 665.229 563.687 664.975 563.394C664.575 562.914 664.255 562.22 663.482 562.38C662.575 562.567 662.322 563.367 662.255 564.14C662.122 565.674 662.095 567.22 662.029 568.767ZM470.032 186.613C469.925 194.08 476.352 203.56 482.832 206.08C483.432 206.306 484.032 206.533 484.658 206.666C487.445 207.306 487.845 206.973 487.552 204.08C486.752 196.027 482.858 189.48 477.459 183.707C477.032 183.24 476.459 182.893 475.912 182.56C473.432 181.12 471.379 181.827 470.405 184.52C470.099 185.347 470.085 186.28 470.032 186.6V186.613ZM615.536 275.625C621.389 275.759 627.109 270.919 628.029 265.092C628.229 263.812 627.803 263.105 626.443 263.119C626.056 263.119 625.669 263.119 625.283 263.145C617.59 263.492 609.936 264.612 602.203 264.559C601.95 264.559 601.696 264.599 601.443 264.652C600.19 264.879 599.936 265.679 600.643 266.572C604.47 271.439 608.803 275.532 615.536 275.625ZM795 150.627C795 151.787 794.92 152.947 795.013 154.094C795.16 155.854 795.8 156.227 797.187 155.214C803.08 150.921 807.266 145.361 808.986 138.214C809.466 136.241 810.24 133.601 807.84 132.268C805.533 130.988 803.64 132.774 802.08 134.228C797.347 138.641 794.947 144.134 794.987 150.641L795 150.627Z" fill="black"/>
<path d="M632.389 20.6035C642.256 21.1502 649.696 25.0168 655.696 31.79C657.669 34.0166 659.536 36.2966 662.122 37.8699C664.362 39.2299 666.736 39.9099 669.336 40.3765C677.962 41.8965 686.802 41.4965 695.388 43.3231C699.028 44.0965 702.642 45.0298 706.055 46.5897C714.281 50.3763 718.775 57.1362 721.215 65.5494C722.108 68.6294 723.015 71.6827 724.415 74.6293C726.668 79.3625 730.068 82.9891 734.454 85.5758C748.361 93.749 752.134 106.522 751.147 121.549C750.854 125.962 751.347 130.268 752.987 134.388C753.841 136.548 754.774 138.668 755.761 140.762C757.587 144.641 757.801 148.708 757.174 152.855C756.467 157.561 755.401 162.214 754.907 166.934C754.241 173.201 753.867 179.508 755.321 185.774C755.961 188.547 755.854 191.374 754.841 194.147C753.654 197.401 752.267 200.627 752.627 204.24C752.681 204.734 752.561 205.28 752.361 205.734C752.041 206.44 751.521 207.12 750.654 207.08C749.788 207.04 749.308 206.36 749.081 205.587C748.241 202.654 748.228 199.654 749.414 196.894C751.587 191.814 751.508 186.774 750.601 181.414C749.948 177.561 750.174 173.468 750.734 169.508C751.601 163.268 752.494 157.041 753.334 150.801C753.801 147.388 753.334 144.095 751.707 141.041C747.894 133.895 746.708 126.322 747.454 118.269C748.121 111.002 745.921 104.269 742.481 97.9355C740.988 95.1623 738.908 92.9223 736.201 91.2557C734.441 90.1757 732.761 88.989 731.054 87.8157C724.375 83.2558 720.201 76.9892 718.281 69.1494C717.641 66.5227 716.855 63.9361 715.721 61.4695C712.775 55.0163 707.935 50.843 701.202 48.563C694.655 46.3497 687.895 45.5631 681.109 45.1764C676.722 44.9231 672.389 44.3898 668.069 43.8565C663.029 43.2298 658.936 40.5632 655.496 36.8566C653.829 35.0699 652.189 33.23 650.443 31.5367C646.456 27.6567 641.589 25.3501 636.189 24.2701C630.283 23.0835 625.083 25.5768 619.896 27.8567C619.656 27.9634 619.456 28.1367 619.23 28.2567C618.163 28.83 616.923 30.3634 615.896 29.07C614.63 27.4834 616.483 26.4834 617.563 25.8434C622.35 22.9501 627.51 21.1235 632.389 20.6568V20.6035Z" fill="black"/>
<path d="M596.63 43.0166C599.856 43.0966 602.029 43.3099 603.896 44.6699C604.536 45.1366 605.043 45.8032 604.723 46.6432C604.336 47.6299 603.483 48.0299 602.523 47.6565C594.75 44.5366 588.243 48.4165 581.683 51.5631C578.67 53.0031 576.017 55.1631 573.563 57.4564C571.563 59.323 569.283 60.7496 567.123 62.3629C562.857 65.5229 558.097 67.1895 552.817 67.5362C550.337 67.6962 548.11 68.8295 545.777 69.5362C532.577 73.5494 521.058 80.336 511.458 90.3091C506.604 95.3491 502.844 101.229 498.858 106.922C495.831 111.255 492.818 115.482 488.671 118.949C484.911 122.095 482.205 126.242 480.778 131.095C479.765 134.548 478.512 137.922 477.352 141.335C477.072 142.175 476.965 143.095 476.312 143.802C475.845 144.308 475.365 144.668 474.645 144.402C474.098 144.202 473.872 143.722 473.805 143.215C473.738 142.708 473.725 142.162 473.858 141.682C475.912 133.562 477.778 125.375 483.631 118.882C484.058 118.402 484.391 117.802 484.898 117.429C491.711 112.389 495.738 105.056 500.378 98.2957C506.458 89.4425 513.938 82.0826 522.871 76.2427C532.564 69.9095 543.19 65.8029 554.657 63.9629C558.257 63.3896 561.563 62.0963 564.603 60.003C569.59 56.563 573.883 52.2031 579.11 49.0832C584.83 45.6699 590.99 43.6166 596.616 43.0166H596.63Z" fill="black"/>
<path d="M597.003 21.63C598.79 21.4167 600.51 21.9367 602.136 22.75C603.016 23.19 603.616 23.87 603.309 24.91C602.989 25.95 602.043 26.3766 601.163 26.0033C596.416 23.9767 592.35 26.0966 588.27 28.0299C582.296 30.8565 576.803 34.1365 572.763 39.7631C568.977 45.0563 563.11 47.2696 556.67 47.8163C549.097 48.4429 541.577 49.1896 534.604 52.6828C531.044 54.4561 527.004 54.9628 523.364 56.7094C516.124 60.2027 510.218 65.136 507.204 72.6158C504.004 80.5624 498.178 86.0289 491.551 90.7889C486.951 94.0955 483.911 98.3487 481.792 103.442C481.498 104.149 481.258 104.895 480.912 105.575C480.365 106.669 480.098 108.429 478.365 107.775C476.778 107.162 477.325 105.469 477.698 104.362C479.538 98.8154 481.938 93.5888 486.805 89.8955C489.885 87.5489 492.871 85.0956 495.818 82.6023C498.605 80.2557 500.818 77.4824 502.271 74.0558C506.431 64.2426 513.258 56.7361 523.311 53.0962C532.057 49.9229 540.471 45.3763 550.164 45.1496C553.097 45.083 556.017 44.403 558.95 44.0297C563.43 43.4563 567.47 41.323 570.003 37.5631C574.43 31.0032 580.95 27.5899 587.83 24.5366C589.483 23.8033 591.163 23.1633 592.803 22.4167C594.123 21.8167 595.496 21.55 597.016 21.6567L597.003 21.63Z" fill="black"/>
<path d="M615.657 209.027C608.67 208.693 602.337 207.227 596.43 204.08C594.937 203.28 593.537 202.334 592.844 200.694C592.044 198.8 593.097 197.267 595.137 197.4C596.31 197.467 597.364 198 598.404 198.534C600.697 199.72 603.137 200.547 605.59 201.32C612.803 203.574 619.763 203.147 626.616 199.814C632.35 197.027 637.816 193.987 641.923 188.934C642.643 188.04 643.536 187.254 644.469 186.574C646.056 185.427 648.109 185.414 649.109 186.414C650.203 187.494 650.189 189.307 648.723 190.947C645.883 194.107 643.123 197.427 639.523 199.747C633.243 203.814 626.763 207.56 619.15 208.627C617.883 208.8 616.59 208.92 615.643 209.027H615.657Z" fill="black"/>
<path d="M544.177 150.161C543.151 150.161 541.737 149.401 540.724 147.921C539.204 145.708 539.511 143.068 541.511 140.895C543.671 138.535 547.364 137.575 549.457 138.841C550.257 139.321 550.817 140.001 551.164 140.855C552.591 144.388 548.737 150.175 544.177 150.161Z" fill="black"/>
<path d="M657.483 153.054C657.403 149.961 659.043 148.041 661.416 146.734C664.256 145.174 667.309 147.014 667.443 150.294C667.549 152.627 666.496 154.547 664.909 156.161C663.309 157.774 661.203 158.241 659.629 157.481C658.043 156.707 657.429 155.414 657.483 153.054Z" fill="black"/>
<path d="M290.488 180.88C285.715 180.507 281.502 180.067 277.409 178.854C275.809 178.374 274.209 177.827 272.555 177.547C263.609 176.067 257.062 170.961 251.702 163.987C250.916 162.961 250.129 161.961 249.809 160.654C249.609 159.841 249.703 159.107 250.329 158.521C251.009 157.881 251.729 158.107 252.462 158.481C254.222 159.374 255.716 160.627 256.902 162.147C261.249 167.667 267.022 170.721 273.769 172.281C279.542 173.614 285.249 175.201 291.262 174.961C303.795 174.454 314.088 169.094 322.528 160.147C326.381 156.067 328.221 150.708 329.781 145.348C330.314 143.494 330.728 141.601 331.301 139.761C331.608 138.788 332.034 137.828 332.621 137.001C333.341 135.974 334.434 135.601 335.688 135.974C337.101 136.401 337.248 137.601 337.234 138.761C337.221 139.774 337.034 140.814 336.768 141.801C334.901 148.494 332.994 155.188 329.408 161.214C327.395 164.601 324.341 167.067 321.301 169.361C314.781 174.281 307.675 178.214 299.528 179.747C296.382 180.334 293.155 180.56 290.488 180.88Z" fill="black"/>
<path d="M333.114 95.8022C333.194 97.9488 332.794 100.109 331.901 102.122C330.808 104.589 328.981 104.895 327.008 103.109C324.808 101.122 322.568 90.8289 323.728 88.0823C324.848 85.4424 327.328 84.7491 329.261 86.7757C331.594 89.229 333.448 92.0423 333.114 95.7889V95.8022Z" fill="black"/>
<path d="M252.609 122.681C252.555 123.841 252.529 125.001 252.435 126.161C252.342 127.335 251.635 128.108 250.569 128.361C249.449 128.628 248.529 128.015 247.982 127.068C247.409 126.068 246.889 125.015 246.516 123.921C245.502 121.001 244.569 118.055 243.622 115.108C243.462 114.628 243.356 114.108 243.329 113.601C243.249 111.695 244.476 109.655 245.956 109.295C247.942 108.815 249.209 109.935 250.035 111.495C251.875 114.975 252.675 118.735 252.609 122.681Z" fill="black"/>
</g>
<defs>
<clipPath id="clip0_109_625">
<rect width="815.32" height="603.25" fill="white"/>
</clipPath>
</defs>
</svg>
