<svg width="3389" height="1975" viewBox="0 0 3389 1975" fill="none" xmlns="http://www.w3.org/2000/svg">
<path d="M4.93062 1131.69C9.46393 1152.94 7.33061 1175.13 8.35727 1196.74C15.4639 1346.37 12.1039 1496.29 12.7172 1646.08C12.9306 1699.86 8.47727 1753.34 7.91727 1807.16C7.57061 1840.06 3.33062 1872.92 6.85061 1906.11C10.9573 1944.82 26.5839 1965.15 53.5971 1965.38C90.5835 1965.7 127.57 1965.46 164.557 1965.46H483.822C527.941 1965.46 572.168 1968.12 616.168 1964.79C672.634 1960.51 729.247 1967.78 785.527 1959.48C834.127 1952.32 882.953 1952.46 931.5 1947.34C1008.82 1939.18 1086.21 1940.08 1163.15 1945.11C1209.6 1948.14 1255.78 1935.96 1301.35 1943.94C1384.42 1958.47 1467.76 1947.16 1550.55 1955.66C1621.84 1962.98 1692.08 1950.74 1762.82 1948.52C1767.36 1948.38 1771.9 1948.51 1776.44 1948.51C1938.67 1948.51 2100.92 1950.87 2263.11 1947.19C2317.57 1945.95 2372.32 1947.66 2426.57 1941.6C2461.75 1937.67 2496.99 1934.36 2531.71 1938.34C2585.65 1944.51 2639.77 1936.62 2693.26 1944.11C2746.6 1951.58 2799.8 1946.84 2853.01 1950.11C2902.16 1953.12 2951.69 1941.84 3000.9 1944.11C3039.16 1945.87 3077.88 1946.99 3115.9 1959.07C3131.52 1964.03 3148.21 1961.79 3164.52 1964.74C3218.1 1974.44 3272.14 1970.6 3326.02 1971.26C3337.71 1971.4 3346.23 1966.4 3353.58 1951.67C3366.03 1926.72 3371.71 1900.64 3373.31 1869.44C3378.23 1773.32 3373.29 1676.96 3377.38 1581.15C3381.29 1489.63 3377.09 1398.09 3381.1 1306.98C3387.74 1156.18 3385.53 1005.33 3383.47 854.729C3381.39 703.063 3374.19 551.343 3377.53 399.691C3379.15 325.224 3378.51 250.732 3381.02 176.399C3382.26 139.465 3375.61 103.386 3379.85 65.9724C3382.94 38.5725 3363.59 14.866 3343.57 15.346C3289.06 16.666 3234.52 16.3593 3180.04 16.586C3141.93 16.746 3103.46 16.6127 3065.06 11.5727C3041.18 8.43936 3015.89 12.4927 2991.22 13.3727C2904.25 16.466 2817.28 12.866 2730.36 15.746C2673.9 17.626 2617.48 22.946 2560.99 20.706C2518.8 19.0393 2476.73 14.106 2434.44 14.906C2364.37 16.226 2294.28 15.266 2224.2 15.266C2160.61 15.266 2096.91 18.5726 2033.45 14.3727C1963.99 9.77269 1894.57 9.07936 1825.14 10.0127C1781.02 10.6127 1736.68 12.0127 1692.82 16.5593C1612.9 24.8259 1532.86 24.666 1453.38 18.866C1374.15 13.0927 1295 12.1727 1215.83 8.3727C1190.6 7.15937 1164.82 0.3994 1139.99 5.13271C1111.26 10.6127 1082.75 6.99937 1054.25 9.93269C1042.07 11.186 1031.13 1.89273 1019.19 3.98605C946.779 16.7327 873.673 10.8127 801.153 20.866C799.22 21.1326 797.26 20.9993 795.313 20.8793C728.394 16.946 661.621 28.7726 594.821 25.9593C527.981 23.146 460.968 25.1193 394.355 19.5593C311.196 12.626 228.143 15.2393 145.143 16.706C106.957 17.3727 68.5703 19.5593 30.2772 21.0526C14.5306 21.666 5.13062 37.7192 5.02395 63.2924C4.82396 116.052 4.95728 168.812 4.95728 221.572C4.95728 300.705 7.7706 380.118 4.14395 458.904C0.703971 533.704 5.63729 607.823 5.17062 682.276C4.37063 810.396 5.14395 938.528 4.75728 1066.66C4.69062 1087.39 11.4906 1108.11 4.94395 1128.85" stroke="black" stroke-width="5.33331" stroke-linecap="round" stroke-linejoin="round"/>
<path d="M2375.54 806.272C2381.14 772.605 2382.89 741.392 2379.88 709.512C2377.65 685.952 2380.06 661.939 2380.78 638.126C2380.96 632.192 2383.94 627.059 2389.25 623.859C2397.08 619.139 2406.56 624.259 2407.41 634.339C2408.06 642.099 2407.12 649.992 2407 657.832C2406.68 679.512 2404.77 701.165 2408.72 722.845C2411.48 738.032 2411.1 753.738 2409.08 768.912C2406.2 790.432 2405.81 812.285 2400.62 833.485C2400.2 835.245 2400.05 837.098 2399.38 838.751C2395.49 848.365 2391.85 858.751 2379.24 859.285C2366.81 859.818 2363.01 849.698 2358.62 840.685C2346.4 815.618 2340.73 788.205 2330.81 762.392C2323.06 742.245 2311.78 723.445 2302.01 704.085C2301.56 703.179 2300.36 702.645 2297.66 700.405C2297.66 718.099 2296.93 733.965 2297.82 749.738C2299.36 776.672 2297.33 803.352 2294.49 830.058C2293.82 836.351 2292.97 842.645 2291.97 848.898C2290.96 855.231 2287.2 859.578 2280.84 860.351C2274.01 861.178 2269.42 857.458 2266.89 851.138C2264.93 846.245 2264.7 841.285 2265.32 836.031C2268.28 810.578 2273.16 785.245 2271.44 759.445C2269.13 724.765 2272.86 690.099 2271.36 655.419C2271.08 649.046 2271.66 642.726 2275.12 637.046C2278.62 631.272 2283.3 627.152 2290.45 627.606C2297.29 628.046 2301.21 632.619 2303.56 638.592C2313.48 663.846 2324.48 688.592 2336.64 712.859C2346.06 731.672 2357.9 749.339 2363.12 770.205C2366.01 781.778 2368.41 793.685 2375.54 806.232V806.272Z" fill="#55ADE1"/>
<path d="M2059.72 750.939C2060.32 780.979 2058.68 806.405 2046.32 830.018C2033.32 854.872 2011.99 866.578 1984.99 868.645C1970.17 869.778 1955.47 867.658 1941.21 863.045C1935.01 861.032 1929.63 857.885 1925.4 852.938C1911.59 836.738 1900.28 818.952 1892.56 799.098C1886.68 783.979 1888.75 767.992 1889.53 752.419C1891.2 719.739 1896.04 687.152 1910.04 657.499C1928.49 618.406 1955.44 605.766 1994.45 614.486C2012.89 618.606 2026.56 631.526 2035.77 648.739C2053.6 682.059 2061.84 717.392 2059.72 750.939ZM2030.99 749.525C2032.99 718.699 2025.33 689.499 2010.67 661.619C1997.29 636.193 1960.04 630.899 1942.31 656.272C1936.03 665.272 1929.97 674.392 1928.09 685.272C1922.69 716.659 1911.36 746.992 1920.75 780.392C1925.25 796.432 1929.65 811.272 1939.93 824.232C1943.09 828.205 1945.12 833.525 1950.27 835.325C1976.24 844.445 2012.99 843.925 2025.33 807.338C2031.63 788.685 2032.56 769.619 2030.99 749.512V749.525Z" fill="#55ADE1"/>
<path d="M726.552 850.738C699.152 850.071 676.605 839.418 660.245 816.605C657.539 812.832 655.832 808.672 655.179 804.138C654.032 796.178 658.512 788.352 665.459 785.845C673.059 783.085 680.925 785.459 684.619 793.458C695.805 817.698 722.165 823.952 746.512 816.845C751.418 815.418 755.965 812.792 760.845 811.258C787.418 802.952 784.805 780.405 775.778 763.912C771.098 755.365 763.152 750.379 755.032 745.525C733.565 732.685 711.618 720.512 691.059 706.339C677.125 696.739 668.992 681.672 664.539 665.259C662.445 657.552 663.939 649.846 666.885 642.246C683.205 600.233 717.418 581.673 758.365 586.846C784.298 590.126 808.351 603.473 819.605 630.833C822.951 638.953 822.538 647.512 821.325 655.846C820.245 663.232 814.178 666.766 807.485 666.299C799.591 665.752 795.151 659.712 794.578 652.152C793.871 642.726 790.045 635.379 782.885 629.566C752.232 604.686 711.098 614.406 695.805 648.832C692.539 656.179 693.045 662.699 697.365 669.379C703.698 679.192 711.512 686.779 722.072 692.526C742.472 703.606 762.472 715.525 781.898 728.232C806.845 744.539 817.845 777.299 809.365 805.592C806.471 815.245 801.098 823.232 792.925 828.792C773.058 842.312 751.285 850.551 726.565 850.725L726.552 850.738Z" fill="#55ADE1"/>
<path d="M1788 863.405C1759.81 862.938 1737.03 852.152 1720.52 829.005C1718.01 825.485 1716.44 821.578 1715.73 817.378C1714.33 809.085 1718.96 800.845 1726.24 798.405C1733.91 795.832 1741.47 798.325 1745.27 806.432C1757.05 831.605 1785.15 836.832 1809 828.818C1813.28 827.378 1817.32 825.165 1821.63 823.805C1847.44 815.605 1845.4 793.898 1836.53 777.072C1831.84 768.165 1823.59 763.045 1815.2 758.019C1793.48 745.005 1771.21 732.752 1750.55 718.219C1737.07 708.739 1729.12 693.779 1724.91 677.592C1723.31 671.472 1723.68 665.046 1725.88 658.846C1741.16 615.793 1773.28 595.019 1817.37 599.406C1843.83 602.033 1867.95 615.646 1879.88 642.966C1882.92 649.913 1882.17 657.166 1882.33 664.379C1882.52 672.766 1877.85 677.659 1870.24 678.899C1862.35 680.179 1856.35 674.752 1855.93 668.032C1854.6 646.699 1839.77 638.593 1823.33 631.113C1797.83 619.513 1756.48 641.099 1754.44 668.792C1753.35 683.659 1764.35 694.246 1776.59 701.712C1795.12 713.019 1814.13 723.552 1832.91 734.485C1859.01 749.699 1873.63 771.965 1872.72 802.672C1872.17 820.925 1864.29 835.632 1847.83 845.192C1829.23 856.005 1809.68 863.191 1788 863.405Z" fill="#55ADE1"/>
<path d="M2676.38 867.058C2647.8 866.498 2625.05 855.618 2608.64 832.405C2605.78 828.378 2603.93 823.845 2603.8 818.938C2603.58 810.912 2606.94 804.592 2614.81 802.045C2622.66 799.512 2629.88 801.952 2633.21 809.512C2644.77 835.792 2675.88 841.152 2700.05 831.338C2703.13 830.085 2706.24 828.912 2709.29 827.618C2731.78 818.138 2737.21 799.618 2723.73 778.899C2718.6 771.005 2711.02 766.232 2703.21 761.525C2681.52 748.472 2659.21 736.272 2638.6 721.672C2625.18 712.166 2617.13 697.232 2613.13 680.966C2611.46 674.206 2612.37 667.339 2614.88 660.526C2630.53 618.126 2663.57 598.499 2705.91 603.046C2732.37 605.886 2756.5 619.433 2768.22 646.873C2771.67 654.979 2771.17 663.526 2770.1 671.872C2769.15 679.352 2763.14 682.899 2756.47 682.632C2748.53 682.299 2744.02 676.286 2743.34 668.752C2742.53 659.779 2739.34 652.459 2732.49 646.673C2701.86 620.766 2659.52 630.259 2644.33 665.739C2639.41 677.246 2647.08 694.179 2661.98 703.592C2672.94 710.512 2684.36 716.712 2695.5 723.325C2707.45 730.405 2719.68 737.072 2731.16 744.832C2755.37 761.192 2766.41 793.685 2758.15 821.618C2755.3 831.285 2750.01 839.338 2741.86 844.925C2722.04 858.525 2700.26 866.765 2676.37 867.045L2676.38 867.058Z" fill="#55ADE1"/>
<path d="M2600.1 745.379C2597.2 782.365 2583.62 810.698 2551.36 828.765C2527.69 842.018 2502.42 850.751 2476.8 858.791C2469.93 860.951 2462.72 862.445 2455.38 860.525C2445.6 857.965 2441.45 849.965 2446.24 841.151C2450.02 834.165 2450.94 826.845 2450.97 819.312C2451.08 778.245 2451.74 737.165 2450.69 696.125C2450.21 677.566 2446.17 659.086 2443.74 640.579C2443.25 636.859 2441.42 633.872 2439.14 630.926C2432.66 622.526 2436.13 613.526 2446.73 611.699C2451.13 610.939 2455.82 610.939 2460.25 611.566C2481.17 614.539 2502.24 617.193 2522.32 623.953C2549.37 633.059 2568.38 651.686 2581.82 676.592C2593.73 698.659 2596.41 722.979 2600.12 745.379H2600.1ZM2572.1 744.712C2571.08 737.685 2570.26 729.552 2568.66 721.579C2561.17 684.326 2544.24 654.832 2504.18 644.979C2496.86 643.179 2489.34 642.206 2482.04 640.406C2469.93 637.419 2469.85 637.366 2471.25 650.099C2471.45 651.899 2471.65 653.699 2471.92 655.486C2480.3 710.659 2475.52 766.285 2477.33 821.685C2477.54 828.285 2478.61 829.538 2484.98 827.498C2502.86 821.765 2519.84 814.298 2536.52 805.578C2561.1 792.698 2570.09 771.512 2572.13 744.712H2572.1Z" fill="#55ADE1"/>
<path d="M1390.94 739.872C1389.91 778.832 1371.1 805.712 1336.22 822.418C1316.02 832.112 1295.11 839.698 1273.75 846.152C1267.08 848.165 1260.27 849.725 1253.31 847.192C1245.71 844.432 1241.63 837.125 1245.5 830.805C1250.4 822.778 1250.67 814.098 1250.74 805.512C1251.04 768.072 1251.5 730.619 1250.52 693.206C1250.08 676.139 1246.52 659.152 1244.26 642.152C1243.64 637.606 1241.44 633.699 1238.95 629.806C1233.07 620.606 1237.2 612.259 1248.3 611.579C1254.86 611.166 1261.59 611.913 1268.11 612.953C1295.83 617.353 1323.96 620.926 1346.78 639.619C1367.07 656.259 1379.75 677.859 1385.23 703.352C1387.82 715.392 1391.12 727.432 1390.92 739.899L1390.94 739.872ZM1365.22 737.032C1363.36 720.845 1361.26 702.872 1352.98 686.312C1341.74 663.819 1325.34 647.766 1299.74 642.859C1291.44 641.273 1283.19 639.433 1274.96 637.553C1269.24 636.246 1268.11 638.619 1268.87 643.846C1270.63 656.086 1272.63 668.352 1273.43 680.672C1276.24 724.045 1274.62 767.525 1275.47 810.938C1275.59 816.778 1276.07 818.432 1282.42 816.378C1299.7 810.792 1316.46 804.312 1332.4 795.432C1354.8 782.952 1364.36 763.552 1365.23 737.019L1365.22 737.032Z" fill="#55ADE1"/>
<path d="M2079.37 773.605C2083.13 735.219 2083.77 696.619 2086.69 658.152C2086.92 655.152 2087.51 652.166 2088.03 649.193C2090.03 637.659 2095.28 631.966 2102.68 633.233C2110.33 634.553 2113.68 641.246 2111.57 653.006C2108.05 672.739 2110.93 692.699 2108.86 712.552C2106.68 733.512 2105.85 754.685 2105.76 775.765C2105.71 789.525 2106.24 803.512 2111.52 816.752C2118.2 833.498 2131.34 840.565 2148.73 837.178C2175.2 832.032 2190.62 815.392 2197.02 790.285C2200.88 775.165 2203.77 759.752 2201.49 743.699C2199.61 730.512 2201.34 717.139 2203.68 704.032C2207.18 684.392 2209.64 664.712 2208.89 644.699C2208.65 638.246 2211.93 633.499 2218.1 631.699C2225.1 629.659 2229.76 633.739 2232.85 639.393C2236.33 645.766 2235.44 652.846 2235.25 659.806C2234.69 681.299 2229.62 702.232 2227.52 723.526C2226.88 729.965 2227.78 736.139 2228.02 742.445C2229.08 769.992 2225.2 796.485 2212.64 821.512C2206.52 833.698 2196.81 842.045 2186.17 849.418C2171.94 859.285 2155.38 863.698 2138.42 864.671C2118.92 865.805 2095.36 847.992 2088.36 828.685C2081.92 810.898 2078.08 792.699 2079.37 773.592V773.605Z" fill="#55ADE1"/>
<path d="M1052.52 755.085C1056.48 714.019 1054.82 672.539 1060.1 631.526C1060.64 627.299 1061.43 623.153 1064.18 619.699C1067.02 616.139 1070.55 614.139 1075.24 615.193C1079.79 616.219 1082.68 619.086 1083.74 623.619C1084.14 625.366 1084.51 627.246 1084.28 628.993C1080.14 660.432 1082.15 692.179 1079.63 723.739C1077.86 745.859 1075.76 768.312 1081.11 790.379C1083.19 798.952 1086.47 806.712 1093.46 812.978C1106.9 825.032 1123.63 820.792 1143.08 810.405C1157.07 802.938 1164.19 789.552 1168.24 775.192C1172.4 760.472 1175.92 745.352 1173.9 729.659C1172.06 715.459 1173.14 701.259 1175.59 687.259C1179.14 667.006 1181.78 646.753 1181.04 626.126C1180.83 620.059 1184.15 615.659 1189.78 613.659C1195.36 611.659 1199.74 614.313 1203.27 618.579C1206.31 622.246 1207.7 626.699 1207.46 631.233C1206.72 645.072 1206.32 658.992 1204.32 672.672C1201.79 689.979 1198.79 706.992 1199.96 724.752C1201.76 751.912 1197.35 778.165 1184.96 802.938C1178.14 816.592 1167.19 825.845 1154.88 833.445C1141.63 841.632 1126.5 845.698 1111.03 846.578C1091.22 847.712 1067.52 829.872 1060.3 810.165C1056.75 800.472 1053.96 790.525 1052.7 780.379C1051.66 772.072 1052.48 763.525 1052.48 755.085H1052.52Z" fill="#55ADE1"/>
<path d="M924.484 609.299C951.871 607.726 984.697 611.273 1017.59 610.113C1026.62 609.793 1032.98 614.406 1033.48 621.579C1034.11 630.326 1028.38 633.859 1020.94 635.459C1013.18 637.139 1005.23 637.206 997.497 636.046C984.844 634.153 972.177 635.286 959.524 634.766C953.044 634.499 951.244 636.513 951.151 643.699C950.871 665.939 950.071 688.259 947.738 710.366C943.538 750.072 941.631 789.765 944.111 829.632C944.698 839.085 940.524 845.685 933.084 846.725C925.204 847.832 918.324 842.578 917.231 833.018C914.418 808.698 915.218 784.312 916.218 759.885C917.338 732.459 922.284 705.312 921.444 677.752C921.111 666.926 923.471 656.179 923.378 645.259C923.311 637.579 920.791 634.419 912.831 634.579C895.031 634.966 877.205 634.686 859.391 634.673C855.165 634.673 850.938 634.633 846.938 632.899C841.098 630.366 837.391 626.286 838.271 619.619C839.151 612.913 843.805 609.659 850.178 609.339C857.098 608.993 864.058 609.299 870.991 609.313C886.991 609.313 902.991 609.313 924.484 609.313V609.299Z" fill="#55ADE1"/>
<path d="M1470.71 720.112C1480.31 702.472 1488.56 687.126 1496.97 671.872C1508.85 650.326 1524.83 631.766 1540.52 613.033C1545.11 607.553 1551.09 604.993 1557.27 609.219C1564.09 613.886 1562.87 621.193 1559.15 627.033C1554.8 633.859 1549.27 639.953 1543.93 646.086C1523.32 669.806 1509.85 697.912 1495.07 725.205C1492.05 730.765 1489.59 736.939 1485.4 741.485C1477.73 749.792 1475.28 759.512 1476.43 769.912C1478.63 789.845 1477.37 809.658 1476.44 829.538C1476.2 834.645 1476.51 839.805 1476.93 844.898C1477.52 851.885 1474.96 857.392 1468.11 858.632C1460.64 859.992 1456.09 854.925 1454.65 848.085C1452.53 837.952 1453.55 827.552 1454.49 817.392C1455.71 804.378 1453.79 791.365 1454.64 778.605C1456.15 756.232 1453.17 735.552 1444.28 714.805C1432.32 686.886 1429.48 655.833 1416.18 628.206C1413.19 621.993 1415.15 616.939 1420.59 613.313C1426.31 609.486 1431.02 612.326 1434.98 616.526C1439.62 621.446 1442.6 627.619 1444.31 633.953C1447.22 644.699 1450.95 655.166 1453.57 666.046C1457.79 683.499 1464.32 700.406 1470.69 720.085L1470.71 720.112Z" fill="#55ADE1"/>
<path d="M1148.19 985.516C1159.23 987.41 1170.53 988.503 1179.39 996.61C1183.53 1000.41 1186.8 1004.96 1188.97 1010.12C1192.91 1019.45 1188.8 1027.44 1184.17 1035.21C1183.25 1036.74 1181.99 1038.08 1180.77 1039.42C1177.63 1042.9 1177.57 1043 1182.24 1044.37C1185.71 1045.4 1189.32 1046.1 1192.37 1048.06C1201.24 1053.76 1205.97 1062.18 1205.57 1072.52C1205.16 1082.92 1197 1091.46 1186.73 1094.56C1178.43 1097.06 1170.01 1098.61 1161.32 1098.58C1158.24 1098.58 1155.32 1099.14 1152.59 1100.88C1148.05 1103.74 1143.91 1102.13 1142.95 1096.82C1142.11 1092.21 1142.03 1087.45 1141.68 1082.74C1140.57 1067.93 1138.79 1053.17 1138.95 1038.26C1139.01 1032.06 1138.17 1025.76 1136.91 1019.68C1135.71 1013.9 1136.01 1008.05 1134.96 1002.3C1133.97 996.956 1136.33 992.503 1138.99 988.25C1141.15 984.783 1144.87 985.85 1148.2 985.516H1148.19ZM1160.27 1053.53C1152.29 1053.52 1152.08 1053.53 1152.61 1060.41C1153.19 1067.85 1154.28 1075.26 1155.05 1082.69C1155.35 1085.53 1157.16 1085.89 1159.44 1085.85C1167.39 1085.73 1175.19 1084.62 1182.73 1082.16C1189.32 1080.01 1192.37 1076.48 1192.53 1071.28C1192.71 1065.61 1188.85 1060.04 1183.28 1057.76C1175.57 1054.6 1167.4 1054.16 1160.27 1053.54V1053.53ZM1178.12 1019.14C1178.16 1012.45 1170.68 1003.54 1164 1001.37C1159.92 1000.04 1155.75 998.97 1151.65 997.65C1148.35 996.583 1147.15 997.93 1147.55 1001.06C1149.09 1013.16 1150.75 1025.24 1152.24 1037.34C1152.52 1039.57 1153.15 1040.29 1155.37 1039.36C1158.71 1037.98 1162.21 1037.04 1165.47 1035.5C1172.84 1032.04 1176.25 1025.54 1178.12 1019.14Z" fill="black"/>
<path d="M1632.86 1084.62C1632.86 1077.37 1633.54 1070.21 1635.29 1063.16C1638 1052.21 1638.74 1040.97 1640.34 1029.85C1641.52 1021.7 1644.13 1013.85 1647.49 1006.41C1650.96 998.743 1655.96 992.21 1665.74 992.303C1672.17 992.356 1678.81 997.263 1681.26 1004.25C1684.5 1013.46 1686.17 1023.06 1687.21 1032.73C1688.12 1041.14 1689.04 1049.53 1691.21 1057.74C1693.32 1065.66 1693.26 1073.98 1695.57 1081.9C1696.5 1085.1 1697.36 1088.29 1698.78 1091.33C1700.14 1094.24 1700.22 1097.17 1697.25 1099.1C1694.14 1101.12 1691.1 1100.5 1688.65 1097.76C1684.33 1092.94 1683.94 1086.6 1682.37 1080.77C1681.41 1077.17 1681.05 1073.4 1680.6 1069.68C1680.34 1067.64 1679.69 1066.17 1677.45 1066C1668.32 1065.32 1659.2 1064.65 1650.06 1064.02C1647.65 1063.85 1647.73 1065.78 1647.26 1067.38C1645.06 1074.96 1645.77 1082.82 1644.84 1090.53C1644.54 1092.97 1643.98 1095.17 1642.34 1096.98C1640.84 1098.66 1639 1099.45 1636.73 1098.62C1634.64 1097.86 1632.98 1096.58 1632.9 1094.18C1632.78 1091 1632.88 1087.8 1632.89 1084.61L1632.86 1084.62ZM1671.64 1053.54C1677.34 1053.89 1677.49 1053.68 1676.68 1048.64C1676.2 1045.62 1675.86 1042.58 1675.42 1039.57C1673.98 1029.69 1673.48 1019.65 1670.3 1010.08C1669.49 1007.64 1668.28 1005.18 1665.52 1004.84C1663.01 1004.52 1661.69 1006.78 1660.48 1008.65C1659.65 1009.92 1659.01 1011.33 1658.44 1012.73C1653.6 1024.41 1651.74 1036.73 1650.54 1049.2C1650.29 1051.89 1651.3 1052.68 1653.77 1052.57C1660.01 1052.29 1666.08 1055.13 1671.64 1053.56V1053.54Z" fill="black"/>
<path d="M2150.94 1082.37C2151 1075.13 2151.61 1067.96 2153.36 1060.9C2156.13 1049.69 2156.84 1038.16 2158.56 1026.77C2159.77 1018.78 2162.34 1011.06 2165.66 1003.76C2169.01 996.383 2173.84 990.023 2183.18 989.81C2189.94 989.65 2196.72 994.41 2199.28 1001.5C2202.58 1010.69 2204.24 1020.3 2205.29 1029.97C2206.22 1038.53 2207.17 1047.04 2209.36 1055.4C2211.46 1063.45 2211.48 1071.92 2213.81 1079.97C2214.74 1083.18 2215.82 1086.29 2217.12 1089.37C2218.3 1092.21 2218.08 1094.96 2215.24 1096.7C2212.44 1098.42 2209.7 1098.01 2207.22 1095.77C2204.84 1093.61 2203.76 1090.76 2202.92 1087.82C2200.98 1081.14 2199.4 1074.38 2198.74 1067.45C2198.52 1064.98 2197.6 1063.6 2195 1063.42C2186.14 1062.84 2177.29 1062.2 2168.44 1061.53C2166.06 1061.36 2165.89 1062.94 2165.41 1064.64C2163.26 1072.21 2163.85 1080.08 2162.96 1087.77C2162.68 1090.2 2162.22 1092.42 2160.62 1094.29C2159.17 1095.98 2157.38 1096.93 2155.09 1096.2C2152.8 1095.46 2151.08 1094.1 2150.98 1091.53C2150.88 1088.48 2150.96 1085.42 2150.96 1082.37H2150.94ZM2189.89 1051.05C2195.25 1051.41 2195.52 1051.1 2194.92 1046.77C2193.62 1037.42 2192.5 1028.05 2191.06 1018.73C2190.45 1014.77 2189.33 1010.86 2188.2 1007.01C2187.56 1004.84 2186.21 1002.74 2183.86 1002.33C2181.3 1001.89 2179.94 1004.09 2178.73 1005.94C2177.82 1007.32 2177.13 1008.86 2176.49 1010.38C2171.7 1021.93 2169.89 1034.12 2168.66 1046.45C2168.38 1049.33 2169.37 1050.17 2172.06 1050.06C2178.29 1049.82 2184.37 1052.58 2189.89 1051.05Z" fill="black"/>
<path d="M1350.79 1080.77C1350.88 1073.53 1351.48 1066.36 1353.23 1059.29C1356.05 1047.94 1356.68 1036.25 1358.49 1024.76C1359.76 1016.78 1362.28 1009.04 1365.69 1001.77C1369.07 994.57 1373.84 988.356 1383 988.13C1389.79 987.97 1396.57 992.676 1399.13 999.77C1402.49 1009.09 1404.15 1018.84 1405.21 1028.65C1406.12 1037.06 1407.08 1045.44 1409.23 1053.66C1411.33 1061.72 1411.35 1070.18 1413.68 1078.24C1414.61 1081.45 1415.67 1084.57 1416.97 1087.64C1418.19 1090.46 1417.99 1093.22 1415.17 1095C1412.4 1096.74 1409.65 1096.37 1407.15 1094.13C1404.75 1091.98 1403.65 1089.13 1402.8 1086.2C1400.87 1079.52 1399.24 1072.76 1398.63 1065.82C1398.39 1063.09 1397.21 1061.86 1394.51 1061.69C1385.79 1061.13 1377.08 1060.52 1368.36 1059.84C1366 1059.65 1365.76 1061.17 1365.28 1062.88C1363.12 1070.45 1363.76 1078.32 1362.83 1086.01C1362.56 1088.28 1362.23 1090.41 1360.79 1092.22C1359.31 1094.1 1357.52 1095.26 1355.01 1094.52C1352.52 1093.77 1350.87 1092.24 1350.8 1089.48C1350.73 1086.56 1350.79 1083.65 1350.79 1080.73V1080.77ZM1391.05 1049.46C1394.68 1050.13 1395.28 1048.69 1394.99 1046.5C1394.49 1042.93 1393.96 1039.36 1393.45 1035.8C1392.04 1025.77 1391.51 1015.6 1388.29 1005.89C1387.49 1003.45 1386.27 1001 1383.49 1000.66C1380.99 1000.37 1379.67 1002.64 1378.47 1004.49C1377.64 1005.76 1377.01 1007.17 1376.43 1008.57C1371.59 1020.25 1369.71 1032.56 1368.55 1045.04C1368.33 1047.32 1368.89 1048.41 1371.37 1048.38C1378.29 1048.33 1385.07 1050.76 1391.05 1049.45V1049.46Z" fill="black"/>
<path d="M2004.97 1079.62C2004.97 1072.38 2005.65 1065.21 2007.4 1058.16C2010.1 1047.21 2010.85 1035.97 2012.45 1024.85C2013.62 1016.7 2016.24 1008.85 2019.58 1001.41C2023.04 993.743 2028.05 987.21 2037.82 987.29C2044.25 987.343 2050.88 992.237 2053.36 999.223C2056.57 1008.3 2058.24 1017.77 2059.26 1027.29C2060.21 1035.98 2061.18 1044.64 2063.4 1053.13C2065.46 1061.05 2065.46 1069.37 2067.76 1077.29C2068.69 1080.5 2069.69 1083.64 2071.04 1086.69C2072.26 1089.5 2072.16 1092.28 2069.36 1094.09C2066.44 1095.98 2063.49 1095.6 2061.04 1093.05C2056.41 1088.25 2056.1 1081.72 2054.46 1075.77C2053.48 1072.18 2053.08 1068.4 2052.7 1064.68C2052.44 1062.09 2051.18 1061.04 2048.72 1060.88C2040 1060.3 2031.29 1059.7 2022.57 1059.01C2019.93 1058.8 2019.84 1060.54 2019.33 1062.34C2017.17 1069.93 2017.85 1077.78 2016.92 1085.49C2016.62 1087.93 2016.06 1090.13 2014.42 1091.96C2012.92 1093.64 2011.08 1094.44 2008.82 1093.61C2006.73 1092.85 2005.08 1091.58 2004.98 1089.18C2004.86 1086 2004.96 1082.8 2004.97 1079.61V1079.62ZM2043.89 1048.54C2049.25 1048.92 2049.5 1048.61 2048.9 1044.21C2047.88 1036.65 2046.88 1029.08 2045.94 1021.5C2045.25 1015.82 2043.94 1010.29 2042.32 1004.84C2041.62 1002.5 2040.32 1000.29 2037.8 999.81C2035.44 999.356 2034.06 1001.4 2032.92 1003.12C2031.93 1004.61 2031.14 1006.25 2030.46 1007.92C2025.68 1019.46 2023.84 1031.65 2022.66 1043.98C2022.42 1046.45 2022.98 1047.66 2025.69 1047.54C2032.06 1047.25 2038.28 1050.1 2043.9 1048.54H2043.89Z" fill="black"/>
<path d="M1585 1098.62C1574.04 1098.36 1564.63 1094.92 1558.03 1085.56C1556.55 1083.46 1555.35 1081.32 1555.43 1078.69C1555.53 1075.45 1556.96 1073.06 1560.15 1072.08C1563.29 1071.1 1565.53 1072.54 1567.24 1075.06C1574.8 1086.14 1582.79 1088.58 1595.41 1083.64C1596.18 1083.33 1596.97 1083.05 1597.73 1082.7C1608.25 1078.04 1609.65 1065.57 1600.02 1058.89C1592.17 1053.44 1583.91 1048.52 1575.51 1043.94C1567.15 1039.4 1562.05 1032.53 1559.21 1023.77C1557.63 1018.89 1559.76 1014.44 1561.68 1010.16C1569.15 993.503 1592.95 985.85 1606.96 994.73C1611.77 997.783 1616.96 1000.1 1620.14 1005.2C1622.61 1009.14 1623.48 1013.36 1623.12 1017.93C1622.86 1021.1 1621.25 1023.33 1618.16 1023.76C1614.93 1024.2 1613.06 1022.01 1612.04 1019.17C1611.01 1016.36 1611.48 1013.09 1609.06 1010.66C1596.82 998.37 1577.92 1002.13 1571.43 1017.89C1569.81 1021.8 1574.05 1029.28 1579.2 1032.32C1588.38 1037.77 1597.72 1043.04 1606.62 1048.92C1616.66 1055.54 1620.24 1065.44 1618.76 1077.14C1618.05 1082.73 1615.4 1087.38 1610.44 1090.48C1602.65 1095.36 1594.4 1098.73 1584.99 1098.62H1585Z" fill="black"/>
<path d="M1958.68 1095.28C1947.9 1094.97 1938.57 1091.68 1932.01 1082.48C1930.44 1080.28 1929.1 1078.05 1929.22 1075.25C1929.36 1072.01 1930.84 1069.65 1934.05 1068.72C1937.21 1067.78 1939.42 1069.29 1941.1 1071.81C1948.37 1082.66 1956.6 1085.22 1968.93 1080.41C1969.7 1080.1 1970.53 1079.9 1971.25 1079.49C1974.84 1077.44 1979.7 1076.82 1980.13 1071.25C1980.62 1064.72 1979.2 1058.92 1973.44 1055.22C1965.5 1050.13 1957.5 1045.06 1949.21 1040.57C1940.84 1036.02 1935.85 1029.09 1932.97 1020.36C1931.5 1015.92 1933.37 1011.82 1934.98 1007.88C1942.02 990.57 1966.18 982.556 1980.09 991.103C1984.81 994.01 1989.98 996.13 1993.3 1000.93C1996.01 1004.86 1997.25 1009.1 1996.98 1013.89C1996.8 1017.38 1995.4 1020.02 1991.86 1020.44C1988.44 1020.85 1986.02 1018.44 1985.81 1015.36C1985.28 1007.48 1979.97 1004.14 1973.74 1001.49C1963.56 997.17 1949.24 1002.38 1944.98 1015.48C1943.81 1019.06 1948.5 1026.32 1953.1 1029.06C1962.29 1034.53 1971.62 1039.77 1980.53 1045.68C1990.57 1052.32 1994.04 1062.24 1992.6 1073.94C1991.46 1083.1 1984.89 1087.64 1977.26 1091.06C1971.38 1093.7 1965.29 1095.54 1958.7 1095.29L1958.68 1095.28Z" fill="black"/>
<path d="M2089.14 992.41C2101.13 994.383 2113.4 994.89 2124.29 1001.5C2136.42 1008.86 2142.54 1020.09 2145.96 1033.24C2146.97 1037.12 2147.93 1041.12 2148.12 1045.1C2148.76 1058.73 2144.82 1070.72 2133.45 1079.08C2121.97 1087.52 2108.6 1091.88 2095.01 1095.58C2092.85 1096.17 2090.6 1096.25 2088.41 1095.68C2084.86 1094.74 2082.65 1091.38 2084.24 1088.44C2086.82 1083.62 2086.64 1078.44 2086.62 1073.42C2086.58 1057.33 2087.36 1041.22 2086.17 1025.13C2085.7 1018.9 2084.04 1012.84 2083.97 1006.56C2083.96 1004.81 2083.36 1003.01 2082.17 1001.53C2080.62 999.61 2079.49 997.53 2080.9 995.063C2082.26 992.676 2084.61 992.383 2087.06 992.436C2087.76 992.45 2088.45 992.436 2089.14 992.436V992.41ZM2097.77 1071.45C2097.77 1073.81 2097.88 1076.17 2097.74 1078.53C2097.56 1081.62 2098.73 1082.54 2101.7 1081.6C2109.94 1078.97 2117.94 1075.78 2125.12 1070.94C2130.56 1067.26 2133.88 1062.14 2135.61 1055.53C2137.72 1047.52 2135.9 1040 2134 1032.58C2131.84 1024.17 2127.53 1016.77 2120.21 1011.41C2113.26 1006.32 2104.92 1005.94 2097.05 1003.94C2094.54 1003.3 2094.8 1005.09 2095 1006.73C2095.69 1012.52 2096.38 1018.29 2097 1024.09C2098.69 1039.85 2096.72 1055.69 2097.77 1071.46V1071.45Z" fill="black"/>
<path d="M1786.26 1081.26C1786.36 1074.81 1788.58 1069.02 1791.93 1063.64C1793.38 1061.28 1795.04 1059.02 1796.7 1056.81C1800.85 1051.26 1800.73 1051.37 1797.38 1045.48C1790.33 1033.09 1789.5 1019.96 1793.14 1006.37C1793.62 1004.6 1794.61 1003.08 1795.93 1001.78C1801.98 995.863 1809.28 995.263 1816.86 997.49C1823.89 999.543 1827.16 1004.97 1828.37 1011.94C1829.97 1021.16 1827.65 1029.61 1823.45 1037.64C1821.52 1041.32 1819.44 1045.01 1816.84 1048.22C1813.82 1051.96 1816.68 1053.58 1818.69 1055.77C1821.2 1058.48 1822.5 1056.08 1824.02 1054.58C1825.61 1053.04 1827.04 1051.29 1829.17 1050.44C1831.45 1049.53 1833.57 1049.74 1835.28 1051.61C1837.02 1053.53 1836.94 1055.74 1835.6 1057.76C1834.21 1059.82 1832.64 1061.8 1830.93 1063.61C1828.9 1065.77 1829.3 1067.46 1831.4 1069.2C1835.34 1072.49 1839.28 1075.78 1843.17 1079.14C1845.45 1081.12 1847.78 1083.44 1845.58 1086.58C1843.33 1089.81 1840.14 1088.9 1837.46 1087.02C1833.6 1084.32 1829.84 1081.45 1826.24 1078.41C1822.14 1074.94 1822.25 1074.84 1819.04 1079.4C1816.14 1083.52 1812.88 1087.28 1808.68 1090.14C1806.48 1091.64 1804.16 1092.88 1801.54 1093.46C1792.32 1095.57 1786.17 1090.65 1786.25 1081.24L1786.26 1081.26ZM1801.44 1021.62C1801.44 1027.76 1803.12 1033.44 1805.74 1038.88C1806.92 1041.32 1808.28 1041.73 1809.82 1039.17C1811.4 1036.57 1813.21 1034.06 1814.5 1031.33C1817.37 1025.22 1819.3 1018.86 1817.41 1012.02C1816.36 1008.24 1813.5 1006.54 1809.06 1006.84C1805.44 1007.08 1803.05 1008.77 1802.56 1012.56C1802.16 1015.57 1801.81 1018.6 1801.45 1021.62H1801.44ZM1797.58 1079.25C1797.44 1082.53 1799.01 1082.7 1801.2 1081.48C1805.93 1078.8 1808.84 1074.4 1811.77 1070.04C1813.86 1066.93 1812.46 1062.46 1809.04 1061.04C1808.28 1060.72 1807.68 1060.88 1807.2 1061.44C1802.64 1066.72 1798.73 1072.34 1797.58 1079.25Z" fill="black"/>
<path d="M2270.12 997.93C2274.01 997.93 2277.89 997.903 2281.78 997.93C2284.9 997.957 2288.02 998.57 2288.21 1002.32C2288.38 1005.84 2285.26 1006.96 2282.49 1007.22C2276 1007.82 2269.46 1008.36 2262.96 1008.22C2257.57 1008.12 2252.53 1009.7 2247.3 1010.24C2244.08 1010.57 2244.25 1013.57 2244.05 1015.76C2243.5 1021.56 2243.26 1027.38 2242.93 1033.2C2242.68 1037.49 2242.53 1041.8 2242.22 1046.09C2242.04 1048.66 2243 1050.01 2245.65 1050.18C2253.52 1050.66 2261.38 1051.18 2269.25 1051.7C2270.92 1051.81 2272.6 1051.81 2274.22 1052.12C2277.24 1052.68 2279.64 1054.2 2279.22 1057.64C2278.84 1060.9 2276.17 1061.76 2273.33 1061.64C2269.17 1061.46 2264.96 1061.41 2260.89 1060.68C2255.36 1059.69 2249.78 1060.7 2244.28 1059.74C2241.62 1059.28 2241.5 1061.41 2241.49 1063.3C2241.45 1069.28 2241.41 1075.25 2241.42 1081.22C2241.42 1085 2241.06 1088.73 2240.01 1092.36C2239.06 1095.61 2237.13 1097.96 2233.34 1097.01C2229.7 1096.1 2229.33 1093.18 2229.84 1090.05C2230.81 1084.01 2231.28 1077.94 2231.18 1071.81C2230.92 1053.61 2232.38 1035.46 2233.08 1017.29C2233.24 1013.2 2234.57 1009.1 2235.72 1005.12C2236.68 1001.76 2239.5 1000.36 2242.77 1000.22C2251.92 999.837 2260.9 997.183 2270.14 997.956L2270.12 997.93Z" fill="black"/>
<path d="M1227.87 1038.69C1232.45 1031.62 1235.45 1025.37 1238.73 1019.28C1243.85 1009.81 1250.8 1001.68 1257.75 993.543C1259.87 991.063 1262.52 989.65 1265.33 992.036C1268.03 994.33 1267.41 997.396 1265.51 999.93C1259.32 1008.12 1252.37 1015.76 1247.45 1024.86C1243.88 1031.45 1241.23 1038.76 1236.6 1044.5C1230.11 1052.6 1230.8 1061.32 1231.15 1070.49C1231.44 1078.24 1231.04 1086.01 1230.83 1093.76C1230.75 1096.32 1229.08 1097.97 1226.59 1098.08C1223.48 1098.22 1221.68 1096.17 1221.11 1093.34C1220.25 1089.09 1220.65 1084.74 1221.11 1080.48C1221.69 1074.78 1221.83 1069.12 1220.96 1063.45C1220.88 1062.9 1220.72 1062.3 1220.84 1061.8C1223.95 1048.9 1216.73 1038.17 1213.31 1026.69C1211.72 1021.37 1210.76 1015.9 1208.95 1010.65C1207.87 1007.5 1207.15 1004.26 1205.47 1001.32C1203.73 998.29 1203.71 995.183 1207.05 993.383C1210.44 991.57 1212.61 994.076 1214.15 996.65C1217.67 1002.56 1219.51 1009.13 1220.85 1015.81C1222.37 1023.32 1225.97 1030.09 1227.84 1038.66L1227.87 1038.69Z" fill="black"/>
<path d="M1483.35 1094.48C1479.28 1094.8 1475.32 1093.7 1471.29 1093.54C1462.09 1093.16 1452.97 1094.1 1443.84 1094.74C1434.69 1095.38 1430.75 1091.85 1432.01 1082.96C1432.85 1077.06 1431.83 1071.32 1431.68 1065.52C1431.6 1062.33 1431.35 1059.18 1431.8 1056C1433.89 1041.36 1432.51 1026.64 1432.8 1011.96C1432.87 1008.49 1432.76 1005 1433.13 1001.56C1433.49 998.303 1435.55 995.983 1438.93 996.17C1442.23 996.356 1443.71 999.023 1443.68 1002.05C1443.63 1008.86 1445.21 1015.64 1444.37 1022.42C1443.24 1031.56 1445.27 1040.76 1443.71 1049.84C1442 1059.69 1443.73 1069.52 1443.65 1079.34C1443.63 1082.53 1444.97 1083.68 1447.91 1083.32C1455.24 1082.4 1462.59 1082.33 1469.95 1082.56C1476.6 1082.77 1483.25 1083.08 1489.91 1083.4C1492.91 1083.54 1495.04 1084.98 1495.31 1088.1C1495.57 1091.24 1493.61 1093.08 1490.76 1093.68C1488.33 1094.2 1485.81 1094.22 1483.32 1094.46L1483.35 1094.48Z" fill="black"/>
<path d="M1528.47 996.636C1531.67 996.636 1534.85 996.57 1538.05 996.663C1539.84 996.716 1541.67 996.903 1543.41 997.29C1546.53 997.97 1549 999.623 1548.61 1003.21C1548.23 1006.72 1545.39 1007.41 1542.45 1007.52C1540.09 1007.6 1537.72 1007.61 1535.37 1007.48C1532.19 1007.3 1530.79 1008.9 1530.61 1011.89C1529.75 1026.98 1527.15 1041.98 1527.31 1057.12C1527.39 1064.48 1527.16 1071.8 1526.81 1079.12C1526.69 1081.52 1527.59 1082.38 1529.8 1082.54C1531.47 1082.66 1533.11 1083.09 1534.49 1084.1C1536.32 1085.45 1537.24 1087.26 1536.71 1089.54C1536.19 1091.78 1534.75 1093.33 1532.4 1093.45C1525.47 1093.8 1518.53 1094.12 1511.6 1094.2C1508.37 1094.24 1505.92 1092.61 1505.48 1089.13C1505.05 1085.68 1507.39 1083.7 1510.23 1083.29C1515.17 1082.58 1516.2 1079.64 1516.08 1075.42C1515.41 1053.72 1518.29 1032.2 1519.8 1010.61C1519.99 1007.85 1519.4 1006.85 1516.64 1006.72C1513.37 1006.56 1510.47 1005.52 1510.37 1001.5C1510.31 998.396 1512.87 996.556 1517.21 996.49C1520.96 996.423 1524.72 996.49 1528.47 996.49V996.663V996.636Z" fill="black"/>
<g clip-path="url(#clip0_118_2)">
<path d="M1839 1526.09C1839.02 1530.97 1838.59 1535.83 1838.25 1540.7C1837.95 1544.88 1837.13 1548.94 1836.1 1552.98C1835.51 1555.29 1834.75 1557.53 1833.96 1559.77C1833.62 1560.74 1833.26 1561.7 1832.98 1562.7C1832.68 1563.74 1832.26 1564.72 1831.48 1565.51C1831.15 1565.84 1830.95 1566.23 1830.79 1566.66C1829.6 1569.86 1827.82 1572.77 1826.24 1575.78C1824.26 1579.5 1822.23 1583.18 1820.21 1586.87C1817.68 1591.47 1814.78 1595.81 1811.46 1599.88C1808.73 1603.2 1805.82 1606.35 1802.99 1609.58C1801.31 1611.51 1799.29 1613.08 1797.46 1614.86C1794.67 1617.58 1791.74 1620.14 1788.74 1622.61C1787.05 1624.01 1785.31 1625.33 1783.44 1626.49C1783.09 1626.7 1782.73 1626.89 1782.42 1627.14C1779.9 1629.18 1777.07 1630.72 1774.22 1632.21C1771.17 1633.8 1768.07 1635.31 1764.89 1636.64C1759.85 1638.73 1754.77 1640.74 1749.62 1642.52C1747.86 1643.14 1746.01 1643.54 1744.19 1644C1740.47 1644.94 1736.75 1645.91 1732.99 1646.74C1728.45 1647.75 1723.83 1648.28 1719.18 1648.58C1717.23 1648.7 1715.27 1649 1713.31 1649.02C1710.45 1649.06 1707.6 1648.79 1704.74 1648.62C1700.14 1648.33 1695.62 1647.41 1691.08 1646.66C1687.86 1646.14 1684.81 1644.88 1681.64 1644.11C1678.99 1643.47 1676.59 1642.37 1674.18 1641.17C1672.59 1640.36 1670.91 1639.72 1669.29 1638.97C1665.67 1637.3 1662.29 1635.19 1658.83 1633.22C1654.4 1630.69 1649.99 1628.16 1645.73 1625.34C1640.54 1621.9 1635.56 1618.16 1630.79 1614.19C1625.53 1609.81 1620.62 1605.03 1616.82 1599.23C1615.81 1597.7 1614.65 1596.27 1613.5 1594.85C1611.73 1592.64 1610.42 1590.13 1608.94 1587.74C1605.85 1582.73 1603.42 1577.41 1601 1572.07C1599.43 1568.6 1598 1565.08 1596.63 1561.53C1594.66 1556.47 1593.31 1551.23 1592.58 1545.84C1592.23 1543.31 1591.61 1540.82 1591.42 1538.27C1590.99 1532.27 1590 1526.34 1590.17 1520.32C1590.22 1518.44 1590.05 1516.56 1590.01 1514.69C1589.96 1512.38 1590.11 1510.04 1590.39 1507.73C1590.84 1503.99 1591.24 1500.25 1592.01 1496.57C1592.82 1492.76 1593.8 1489 1594.79 1485.23C1596.64 1478.21 1599.95 1471.92 1603.71 1465.79C1606.83 1460.72 1610.01 1455.69 1613.4 1450.81C1616.7 1446.07 1620.24 1441.51 1623.91 1437.05C1624.07 1436.85 1624.24 1436.63 1624.46 1436.46C1627.14 1434.26 1629.2 1431.48 1631.46 1428.89C1633.59 1426.44 1636.16 1424.5 1638.64 1422.45C1643.47 1418.49 1648.75 1415.22 1654.2 1412.24C1656.99 1410.72 1659.97 1409.59 1662.86 1408.28C1663.14 1408.15 1663.44 1408.02 1663.74 1407.94C1669.03 1406.6 1674.01 1404.28 1679.29 1402.88C1681.93 1402.19 1684.64 1401.85 1687.29 1401.17C1690.49 1400.35 1693.75 1399.74 1697.02 1399.27C1699.76 1398.87 1702.53 1398.66 1705.28 1398.33C1707.77 1398.04 1710.24 1397.7 1712.72 1397.4C1716.68 1396.91 1720.65 1396.93 1724.63 1397.11C1728.79 1397.3 1732.91 1397.85 1737.04 1398.28C1738.32 1398.42 1739.62 1398.58 1740.86 1398.96C1743.95 1399.9 1747.12 1400.43 1750.26 1401.17C1755.97 1402.52 1761.47 1404.44 1766.79 1407C1772.75 1409.85 1778.35 1413.25 1783.81 1416.92C1788.23 1419.89 1792.41 1423.19 1796.51 1426.58C1800 1429.47 1803.35 1432.49 1806.31 1435.92C1810.94 1441.3 1814.99 1447.06 1818.16 1453.44C1819.7 1456.52 1821.32 1459.56 1823.03 1462.55C1823.71 1463.75 1824.18 1465.08 1824.74 1466.34C1826.2 1469.61 1827.75 1472.84 1828.82 1476.27C1829.27 1477.72 1829.92 1479.1 1830.55 1480.49C1832.39 1484.6 1833.6 1488.9 1834.52 1493.29C1836.06 1500.66 1837.47 1508.04 1838.49 1515.49C1838.97 1518.99 1838.95 1522.54 1838.99 1526.08L1839 1526.09ZM1596.37 1518.08C1596.42 1522.93 1596.39 1527.18 1596.92 1531.41C1597.49 1535.85 1597.66 1540.32 1598.55 1544.72C1599.24 1548.19 1599.78 1551.67 1600.86 1555.06C1601.7 1557.72 1602.81 1560.26 1603.7 1562.88C1604.28 1564.58 1604.94 1566.24 1605.77 1567.83C1606.24 1568.74 1606.67 1569.68 1607.08 1570.63C1608.94 1575.04 1610.95 1579.38 1613.47 1583.47C1615.13 1586.18 1616.52 1589.05 1618.57 1591.51C1620.06 1593.3 1621.4 1595.2 1622.74 1597.1C1624.34 1599.38 1626.1 1601.51 1628.07 1603.48C1631.36 1606.78 1634.86 1609.83 1638.57 1612.65C1642.48 1615.63 1646.42 1618.58 1650.56 1621.25C1654.42 1623.76 1658.5 1625.92 1662.42 1628.34C1667.96 1631.76 1673.92 1634.3 1679.76 1637.11C1680.28 1637.37 1680.83 1637.58 1681.38 1637.75C1686.57 1639.24 1691.71 1640.91 1697.1 1641.7C1702.59 1642.49 1708.09 1643.07 1713.65 1643.05C1715.49 1643.04 1717.3 1642.68 1719.12 1642.58C1723.55 1642.35 1727.92 1641.72 1732.26 1640.79C1735.58 1640.09 1738.83 1639.07 1742.15 1638.34C1744.16 1637.9 1746.15 1637.37 1748.1 1636.72C1752.8 1635.15 1757.42 1633.34 1762.02 1631.46C1769.38 1628.46 1776.32 1624.67 1782.72 1619.95C1783.62 1619.29 1784.51 1618.61 1785.35 1617.88C1787.96 1615.63 1790.57 1613.39 1793.13 1611.08C1794.95 1609.44 1796.8 1607.8 1798.46 1605.99C1801.33 1602.85 1804.05 1599.59 1806.82 1596.36C1809.62 1593.1 1812.12 1589.59 1814.3 1585.89C1817.31 1580.8 1820.16 1575.63 1823.08 1570.49C1824.79 1567.49 1826.24 1564.38 1826.95 1560.96C1827.11 1560.21 1827.33 1559.48 1827.6 1558.77C1829.86 1552.79 1831.48 1546.67 1832.05 1540.29C1832.41 1536.28 1832.74 1532.26 1832.95 1528.25C1833.14 1524.49 1832.67 1520.74 1832.67 1516.98C1832.67 1516.66 1832.61 1516.35 1832.56 1516.04C1831.42 1508.66 1830.19 1501.29 1828.64 1493.97C1827.81 1490.1 1826.72 1486.33 1825.11 1482.72C1824.23 1480.76 1823.49 1478.74 1822.8 1476.7C1821.49 1472.79 1819.77 1469.03 1817.91 1465.37C1815.99 1461.58 1814.01 1457.81 1812.1 1454.02C1810.68 1451.21 1809.01 1448.56 1807.18 1446.02C1805.48 1443.66 1803.66 1441.4 1801.5 1439.42C1800.32 1438.34 1799.32 1437.06 1798.17 1435.93C1795.13 1432.95 1791.83 1430.28 1788.49 1427.65C1783.64 1423.84 1778.58 1420.31 1773.32 1417.07C1769.03 1414.43 1764.56 1412.2 1759.97 1410.19C1756.12 1408.49 1752.06 1407.36 1747.95 1406.44C1746.26 1406.06 1744.5 1405.86 1742.85 1405.3C1738.18 1403.72 1733.28 1403.55 1728.46 1402.98C1724.28 1402.49 1720.07 1402.6 1715.86 1402.63C1714.79 1402.64 1713.72 1402.72 1712.65 1402.86C1709.99 1403.19 1707.32 1403.43 1704.67 1403.78C1702.4 1404.08 1700.12 1404.15 1697.87 1404.44C1694.27 1404.92 1690.75 1405.75 1687.19 1406.45C1682.41 1407.41 1677.66 1408.47 1673.12 1410.31C1671.21 1411.08 1669.24 1411.65 1667.24 1412.19C1665.91 1412.55 1664.6 1413.01 1663.34 1413.6C1661.88 1414.28 1660.4 1414.92 1658.95 1415.6C1657.57 1416.24 1656.12 1416.78 1654.86 1417.61C1650.98 1420.17 1646.81 1422.3 1643.23 1425.3C1640.05 1427.97 1636.61 1430.26 1633.82 1433.45C1631.05 1436.61 1628.45 1439.91 1625.76 1443.13C1622.93 1446.53 1620.43 1450.2 1617.99 1453.9C1614.99 1458.46 1612.32 1463.23 1609.34 1467.8C1607.19 1471.1 1605.32 1474.58 1603.52 1478.08C1602.98 1479.12 1602.48 1480.17 1602.14 1481.28C1600.83 1485.66 1599.49 1490.02 1598.71 1494.53C1597.33 1502.53 1596.11 1510.53 1596.38 1518.08H1596.37Z" fill="black"/>
<path d="M1677.62 1580.08C1677.78 1577.99 1677.93 1575.89 1678.09 1573.79C1678.11 1573.44 1678.16 1573.08 1678.17 1572.72C1678.4 1565.88 1678.56 1559.02 1678.35 1552.18C1678.22 1547.75 1678.07 1543.32 1678.21 1538.89C1678.33 1535.22 1678.67 1531.56 1678.71 1527.9C1678.74 1523.32 1678.34 1518.77 1678.26 1514.21C1678.22 1511.75 1678.04 1509.29 1678.35 1506.83C1678.38 1506.61 1678.4 1506.39 1678.4 1506.16C1678.35 1502.89 1678.77 1499.63 1678.73 1496.37C1678.7 1493.86 1678.96 1491.37 1679.16 1488.87C1679.19 1488.56 1679.21 1488.24 1679.21 1487.93C1679.33 1481.57 1679.59 1475.22 1679.55 1468.86C1679.54 1466.53 1679.33 1464.21 1679.09 1461.9C1678.94 1460.42 1678.92 1458.95 1679.38 1457.51C1680.02 1455.44 1681.83 1454.72 1683.71 1455.77C1684.06 1455.97 1684.42 1456.17 1684.72 1456.44C1686.8 1458.31 1689.32 1459.5 1691.72 1460.88C1692.62 1461.39 1693.48 1461.94 1694.28 1462.6C1695.96 1463.96 1697.9 1464.9 1699.77 1465.95C1705.93 1469.4 1712.1 1472.85 1717.81 1477.04C1719.98 1478.64 1722.45 1479.74 1724.74 1481.13C1728.11 1483.18 1731.52 1485.13 1734.97 1487.02C1735.2 1487.15 1735.43 1487.3 1735.68 1487.41C1739.73 1489.2 1743.55 1491.46 1747.48 1493.48C1748.88 1494.2 1750.24 1494.97 1751.53 1495.86C1754.58 1497.98 1757.87 1499.72 1761.11 1501.51C1765.31 1503.82 1769.5 1506.11 1773.65 1508.51C1775.62 1509.65 1777.46 1511.01 1779.36 1512.27C1779.92 1512.64 1780.49 1513.02 1781.1 1513.27C1784.12 1514.51 1786.61 1516.57 1789.23 1518.43C1789.77 1518.82 1790.27 1519.28 1790.74 1519.76C1791.92 1521 1792.05 1522.51 1791.08 1523.92C1790.53 1524.74 1789.8 1525.41 1788.98 1525.97C1788.69 1526.17 1788.39 1526.38 1788.07 1526.53C1784.37 1528.25 1780.96 1530.48 1777.41 1532.46C1773.82 1534.47 1770.24 1536.49 1766.65 1538.51C1763.61 1540.22 1760.92 1542.49 1757.72 1543.93C1750.75 1547.08 1743.93 1550.54 1736.76 1553.22C1733.76 1554.34 1731.03 1555.94 1728.34 1557.62C1725 1559.69 1721.62 1561.71 1718.11 1563.52C1715.73 1564.74 1713.47 1566.2 1711.15 1567.56C1707.76 1569.55 1704.19 1571.24 1700.83 1573.27C1697.73 1575.14 1694.78 1577.25 1691.65 1579.09C1688.92 1580.7 1686.18 1582.31 1683.55 1584.1C1683.03 1584.44 1682.46 1584.74 1681.88 1584.96C1680.02 1585.64 1678.33 1584.71 1677.88 1582.77C1677.68 1581.89 1677.64 1581 1677.61 1580.09L1677.62 1580.08ZM1684.15 1575.48C1684.17 1575.64 1683.92 1576.14 1684.34 1576.37C1684.74 1576.6 1685.07 1576.17 1685.4 1575.97C1688.17 1574.34 1690.96 1572.72 1693.62 1570.91C1696.65 1568.84 1699.73 1566.85 1703.09 1565.34C1703.57 1565.12 1704.02 1564.83 1704.49 1564.56C1708.08 1562.47 1711.63 1560.3 1715.28 1558.3C1719.44 1556.02 1723.54 1553.67 1727.53 1551.09C1729.37 1549.9 1731.36 1548.98 1733.38 1548.12C1737.94 1546.18 1742.59 1544.44 1747.07 1542.29C1749.57 1541.09 1752.03 1539.82 1754.63 1538.82C1755.83 1538.35 1756.97 1537.71 1758.03 1536.94C1761.22 1534.62 1764.67 1532.73 1768.1 1530.79C1772.96 1528.04 1777.76 1525.19 1782.61 1522.41C1783.2 1522.08 1783.21 1521.93 1782.63 1521.46C1781.83 1520.8 1781.01 1520.18 1780.05 1519.78C1778.73 1519.22 1777.51 1518.47 1776.27 1517.76C1774.25 1516.6 1772.49 1515.04 1770.46 1513.9C1767.03 1511.97 1763.57 1510.08 1760.14 1508.17C1757.17 1506.52 1754.12 1504.99 1751.27 1503.15C1745.8 1499.65 1740.19 1496.43 1734.37 1493.54C1733.09 1492.9 1731.83 1492.23 1730.58 1491.54C1726.22 1489.17 1722.08 1486.41 1717.71 1484.06C1716.64 1483.49 1715.61 1482.86 1714.64 1482.14C1709.09 1478.03 1703.07 1474.68 1697.13 1471.2C1694.59 1469.71 1691.93 1468.42 1689.46 1466.79C1688.64 1466.26 1687.73 1465.85 1686.84 1465.43C1686.2 1465.13 1686.05 1465.24 1686.01 1465.93C1686 1466.2 1686.01 1466.47 1686.03 1466.74C1686.08 1468.44 1686.24 1470.14 1686.16 1471.83C1686 1475.32 1685.77 1478.8 1685.74 1482.29C1685.72 1484.39 1685.67 1486.48 1685.48 1488.59C1685.01 1493.81 1684.91 1499.04 1684.88 1504.28C1684.88 1504.77 1684.88 1505.26 1684.84 1505.75C1684.41 1510.44 1684.57 1515.15 1684.74 1519.84C1684.84 1522.39 1684.93 1524.93 1684.96 1527.49C1685 1531.2 1684.55 1534.9 1684.42 1538.61C1684.26 1543.27 1684.43 1547.92 1684.57 1552.57C1684.79 1560.14 1684.71 1567.7 1684.13 1575.47L1684.15 1575.48Z" fill="#55ADE1"/>
</g>
<defs>
<clipPath id="clip0_118_2">
<rect width="249" height="252" fill="white" transform="translate(1590 1397)"/>
</clipPath>
</defs>
</svg>
