<svg width="3389" height="1975" viewBox="0 0 3389 1975" fill="none" xmlns="http://www.w3.org/2000/svg">
<path d="M4.93062 1131.69C9.46393 1152.94 7.33061 1175.13 8.35727 1196.74C15.4639 1346.37 12.1039 1496.29 12.7172 1646.08C12.9306 1699.86 8.47727 1753.34 7.91727 1807.16C7.57061 1840.06 3.33062 1872.92 6.85061 1906.11C10.9573 1944.82 26.5839 1965.15 53.5971 1965.38C90.5835 1965.7 127.57 1965.46 164.557 1965.46H483.822C527.941 1965.46 572.168 1968.12 616.168 1964.79C672.634 1960.51 729.247 1967.78 785.527 1959.48C834.127 1952.32 882.953 1952.46 931.5 1947.34C1008.82 1939.18 1086.21 1940.08 1163.15 1945.11C1209.6 1948.14 1255.78 1935.96 1301.35 1943.94C1384.42 1958.47 1467.76 1947.16 1550.55 1955.66C1621.84 1962.98 1692.08 1950.74 1762.82 1948.52C1767.36 1948.38 1771.9 1948.51 1776.44 1948.51C1938.67 1948.51 2100.92 1950.87 2263.11 1947.19C2317.57 1945.95 2372.32 1947.66 2426.57 1941.6C2461.75 1937.67 2496.99 1934.36 2531.71 1938.34C2585.65 1944.51 2639.77 1936.62 2693.26 1944.11C2746.6 1951.58 2799.8 1946.84 2853.01 1950.11C2902.16 1953.12 2951.69 1941.84 3000.9 1944.11C3039.16 1945.87 3077.88 1946.99 3115.9 1959.07C3131.52 1964.03 3148.21 1961.79 3164.52 1964.74C3218.1 1974.44 3272.14 1970.6 3326.02 1971.26C3337.71 1971.4 3346.23 1966.4 3353.58 1951.67C3366.03 1926.72 3371.71 1900.64 3373.31 1869.44C3378.23 1773.32 3373.29 1676.96 3377.38 1581.15C3381.29 1489.63 3377.09 1398.09 3381.1 1306.98C3387.74 1156.18 3385.53 1005.33 3383.47 854.729C3381.39 703.063 3374.19 551.343 3377.53 399.691C3379.15 325.224 3378.51 250.732 3381.02 176.399C3382.26 139.465 3375.61 103.386 3379.85 65.9724C3382.94 38.5725 3363.59 14.866 3343.57 15.346C3289.06 16.666 3234.52 16.3593 3180.04 16.586C3141.93 16.746 3103.46 16.6127 3065.06 11.5727C3041.18 8.43936 3015.89 12.4927 2991.22 13.3727C2904.25 16.466 2817.28 12.866 2730.36 15.746C2673.9 17.626 2617.48 22.946 2560.99 20.706C2518.8 19.0393 2476.73 14.106 2434.44 14.906C2364.37 16.226 2294.28 15.266 2224.2 15.266C2160.61 15.266 2096.91 18.5726 2033.45 14.3727C1963.99 9.77269 1894.57 9.07936 1825.14 10.0127C1781.02 10.6127 1736.68 12.0127 1692.82 16.5593C1612.9 24.8259 1532.86 24.666 1453.38 18.866C1374.15 13.0927 1295 12.1727 1215.83 8.3727C1190.6 7.15937 1164.82 0.3994 1139.99 5.13271C1111.26 10.6127 1082.75 6.99937 1054.25 9.93269C1042.07 11.186 1031.13 1.89273 1019.19 3.98605C946.779 16.7327 873.673 10.8127 801.153 20.866C799.22 21.1326 797.26 20.9993 795.313 20.8793C728.394 16.946 661.621 28.7726 594.821 25.9593C527.981 23.146 460.968 25.1193 394.355 19.5593C311.196 12.626 228.143 15.2393 145.143 16.706C106.957 17.3727 68.5703 19.5593 30.2772 21.0526C14.5306 21.666 5.13062 37.7192 5.02395 63.2924C4.82396 116.052 4.95728 168.812 4.95728 221.572C4.95728 300.705 7.7706 380.118 4.14395 458.904C0.703971 533.704 5.63729 607.823 5.17062 682.276C4.37063 810.396 5.14395 938.528 4.75728 1066.66C4.69062 1087.39 11.4906 1108.11 4.94395 1128.85" stroke="black" stroke-width="5.33331" stroke-linecap="round" stroke-linejoin="round"/>
<path d="M2376.81 859.755C2382.41 826.089 2384.16 794.876 2381.15 762.996C2378.92 739.436 2381.33 715.423 2382.05 691.61C2382.23 685.676 2385.21 680.543 2390.52 677.343C2398.35 672.623 2407.83 677.743 2408.68 687.823C2409.33 695.583 2408.39 703.476 2408.27 711.316C2407.95 732.996 2406.04 754.649 2409.99 776.329C2412.75 791.516 2412.37 807.222 2410.35 822.396C2407.47 843.916 2407.08 865.769 2401.89 886.969C2401.47 888.729 2401.32 890.582 2400.65 892.235C2396.76 901.849 2393.12 912.235 2380.51 912.769C2368.08 913.302 2364.28 903.182 2359.89 894.169C2347.67 869.102 2342 841.689 2332.08 815.876C2324.33 795.729 2313.05 776.929 2303.28 757.569C2302.83 756.663 2301.63 756.129 2298.93 753.889C2298.93 771.583 2298.2 787.449 2299.09 803.222C2300.63 830.156 2298.6 856.835 2295.76 883.542C2295.09 889.835 2294.24 896.129 2293.24 902.382C2292.23 908.715 2288.47 913.062 2282.11 913.835C2275.28 914.662 2270.69 910.942 2268.16 904.622C2266.2 899.729 2265.97 894.769 2266.59 889.515C2269.55 864.062 2274.43 838.729 2272.71 812.929C2270.4 778.249 2274.13 743.583 2272.63 708.903C2272.35 702.53 2272.93 696.21 2276.39 690.53C2279.89 684.756 2284.57 680.636 2291.72 681.09C2298.56 681.53 2302.48 686.103 2304.83 692.076C2314.75 717.329 2325.75 742.076 2337.91 766.343C2347.33 785.156 2359.17 802.822 2364.39 823.689C2367.28 835.262 2369.68 847.169 2376.81 859.715V859.755Z" fill="#55ADE1"/>
<path d="M2060.99 804.422C2061.59 834.462 2059.95 859.889 2047.59 883.502C2034.59 908.355 2013.25 920.062 1986.25 922.128C1971.44 923.262 1956.73 921.142 1942.48 916.529C1936.28 914.515 1930.89 911.368 1926.67 906.422C1912.85 890.222 1901.55 872.435 1893.83 852.582C1887.95 837.462 1890.01 821.476 1890.8 805.902C1892.47 773.222 1897.31 740.636 1911.31 710.983C1929.76 671.89 1956.71 659.25 1995.72 667.97C2014.16 672.09 2027.83 685.01 2037.04 702.223C2054.87 735.543 2063.11 770.876 2060.99 804.422ZM2032.25 803.009C2034.25 772.183 2026.6 742.983 2011.93 715.103C1998.56 689.676 1961.31 684.383 1943.57 709.756C1937.29 718.756 1931.24 727.876 1929.36 738.756C1923.96 770.143 1912.63 800.476 1922.01 833.876C1926.52 849.915 1930.92 864.755 1941.2 877.715C1944.36 881.689 1946.39 887.009 1951.53 888.809C1977.51 897.929 2014.25 897.409 2026.6 860.822C2032.89 842.169 2033.83 823.102 2032.25 802.996V803.009Z" fill="#55ADE1"/>
<path d="M727.82 904.222C700.42 903.555 677.874 892.902 661.514 870.089C658.807 866.315 657.101 862.155 656.447 857.622C655.301 849.662 659.781 841.835 666.727 839.329C674.327 836.569 682.194 838.942 685.887 846.942C697.074 871.182 723.434 877.435 747.78 870.329C752.687 868.902 757.233 866.275 762.113 864.742C788.687 856.435 786.073 833.889 777.047 817.396C772.367 808.849 764.42 803.862 756.3 799.009C734.834 786.169 712.887 773.996 692.327 759.823C678.394 750.223 670.261 735.156 665.807 718.743C663.714 711.036 665.207 703.329 668.154 695.729C684.474 653.716 718.687 635.156 759.633 640.33C785.567 643.61 809.62 656.956 820.873 684.316C824.22 692.436 823.806 700.996 822.593 709.329C821.513 716.716 815.447 720.249 808.753 719.783C800.86 719.236 796.42 713.196 795.847 705.636C795.14 696.209 791.313 688.863 784.153 683.05C753.5 658.17 712.367 667.89 697.074 702.316C693.807 709.663 694.314 716.183 698.634 722.863C704.967 732.676 712.78 740.263 723.34 746.009C743.74 757.089 763.74 769.009 783.167 781.716C808.113 798.022 819.113 830.782 810.633 859.075C807.74 868.729 802.367 876.715 794.193 882.275C774.327 895.795 752.553 904.035 727.834 904.208L727.82 904.222Z" fill="#55ADE1"/>
<path d="M1789.27 916.888C1761.08 916.422 1738.3 905.635 1721.79 882.489C1719.28 878.969 1717.71 875.062 1717 870.862C1715.6 862.569 1720.23 854.329 1727.51 851.889C1735.18 849.315 1742.74 851.809 1746.54 859.915C1758.32 885.089 1786.42 890.315 1810.27 882.302C1814.55 880.862 1818.59 878.649 1822.9 877.289C1848.71 869.089 1846.67 847.382 1837.8 830.556C1833.11 821.649 1824.86 816.529 1816.47 811.502C1794.75 798.489 1772.48 786.236 1751.82 771.703C1738.34 762.223 1730.39 747.263 1726.18 731.076C1724.58 724.956 1724.95 718.529 1727.15 712.329C1742.43 669.276 1774.55 648.503 1818.64 652.89C1845.1 655.516 1869.21 669.13 1881.15 696.45C1884.19 703.396 1883.44 710.65 1883.6 717.863C1883.79 726.249 1879.12 731.143 1871.51 732.383C1863.62 733.663 1857.62 728.236 1857.2 721.516C1855.87 700.183 1841.04 692.076 1824.6 684.596C1799.1 672.996 1757.75 694.583 1755.71 722.276C1754.62 737.143 1765.62 747.729 1777.86 755.196C1796.39 766.503 1815.4 777.036 1834.18 787.969C1860.28 803.182 1874.89 825.449 1873.99 856.155C1873.44 874.409 1865.56 889.115 1849.1 898.675C1830.5 909.489 1810.95 916.675 1789.27 916.888Z" fill="#55ADE1"/>
<path d="M2677.65 920.542C2649.06 919.982 2626.32 909.102 2609.9 885.889C2607.05 881.862 2605.2 877.329 2605.06 872.422C2604.85 864.395 2608.21 858.075 2616.08 855.529C2623.93 852.995 2631.14 855.435 2634.48 862.995C2646.04 889.275 2677.14 894.635 2701.32 884.822C2704.4 883.569 2707.5 882.395 2710.56 881.102C2733.05 871.622 2738.48 853.102 2725 832.382C2719.86 824.489 2712.29 819.716 2704.48 815.009C2682.78 801.956 2660.48 789.756 2639.86 775.156C2626.45 765.649 2618.4 750.716 2614.4 734.449C2612.73 727.689 2613.64 720.823 2616.14 714.009C2631.8 671.61 2664.84 651.983 2707.18 656.53C2733.64 659.37 2757.77 672.916 2769.49 700.356C2772.94 708.463 2772.44 717.009 2771.37 725.356C2770.42 732.836 2764.41 736.383 2757.74 736.116C2749.8 735.783 2745.29 729.769 2744.61 722.236C2743.8 713.263 2740.61 705.943 2733.76 700.156C2703.13 674.25 2660.78 683.743 2645.6 719.223C2640.68 730.729 2648.34 747.663 2663.25 757.076C2674.21 763.996 2685.62 770.196 2696.77 776.809C2708.72 783.889 2720.94 790.556 2732.42 798.316C2756.64 814.676 2767.68 847.169 2759.42 875.102C2756.57 884.769 2751.28 892.822 2743.13 898.409C2723.3 912.008 2701.53 920.248 2677.64 920.528L2677.65 920.542Z" fill="#55ADE1"/>
<path d="M2601.37 798.862C2598.46 835.849 2584.89 864.182 2552.63 882.249C2528.96 895.502 2503.69 904.235 2478.07 912.275C2471.2 914.435 2463.99 915.929 2456.65 914.009C2446.87 911.449 2442.72 903.449 2447.51 894.635C2451.29 887.649 2452.21 880.329 2452.24 872.795C2452.35 831.729 2453.01 790.649 2451.96 749.609C2451.48 731.049 2447.44 712.57 2445.01 694.063C2444.52 690.343 2442.69 687.356 2440.41 684.41C2433.93 676.01 2437.4 667.01 2448 665.183C2452.4 664.423 2457.09 664.423 2461.52 665.05C2482.44 668.023 2503.51 670.676 2523.59 677.436C2550.64 686.543 2569.65 705.17 2583.09 730.076C2595 752.143 2597.68 776.463 2601.38 798.862H2601.37ZM2573.37 798.196C2572.35 791.169 2571.53 783.036 2569.93 775.063C2562.44 737.809 2545.51 708.316 2505.45 698.463C2498.13 696.663 2490.61 695.69 2483.31 693.89C2471.2 690.903 2471.12 690.85 2472.52 703.583C2472.72 705.383 2472.92 707.183 2473.19 708.97C2481.57 764.143 2476.79 819.769 2478.6 875.169C2478.81 881.769 2479.88 883.022 2486.25 880.982C2504.13 875.249 2521.11 867.782 2537.79 859.062C2562.37 846.182 2571.36 824.996 2573.4 798.196H2573.37Z" fill="#55ADE1"/>
<path d="M1392.2 793.356C1391.18 832.316 1372.36 859.195 1337.48 875.902C1317.28 885.595 1296.38 893.182 1275.02 899.635C1268.35 901.648 1261.54 903.208 1254.58 900.675C1246.98 897.915 1242.9 890.609 1246.76 884.289C1251.67 876.262 1251.94 867.582 1252 858.995C1252.31 821.556 1252.76 784.102 1251.79 746.689C1251.35 729.623 1247.79 712.636 1245.52 695.636C1244.91 691.089 1242.71 687.183 1240.22 683.29C1234.34 674.09 1238.47 665.743 1249.56 665.063C1256.12 664.65 1262.86 665.396 1269.38 666.436C1297.1 670.836 1325.23 674.41 1348.04 693.103C1368.34 709.743 1381.02 731.343 1386.5 756.836C1389.08 768.876 1392.39 780.916 1392.19 793.382L1392.2 793.356ZM1366.48 790.516C1364.63 774.329 1362.52 756.356 1354.24 739.796C1343 717.303 1326.6 701.249 1301 696.343C1292.71 694.756 1284.46 692.916 1276.23 691.036C1270.51 689.73 1269.38 692.103 1270.14 697.329C1271.9 709.569 1273.9 721.836 1274.7 734.156C1277.51 777.529 1275.88 821.009 1276.74 864.422C1276.86 870.262 1277.34 871.915 1283.68 869.862C1300.96 864.275 1317.72 857.795 1333.67 848.915C1356.07 836.435 1365.63 817.036 1366.5 790.502L1366.48 790.516Z" fill="#55ADE1"/>
<path d="M2080.64 827.089C2084.4 788.702 2085.04 750.103 2087.96 711.636C2088.19 708.636 2088.77 705.65 2089.29 702.676C2091.29 691.143 2096.55 685.45 2103.95 686.716C2111.6 688.036 2114.95 694.73 2112.84 706.489C2109.32 726.223 2112.2 746.183 2110.13 766.036C2107.95 786.996 2107.12 808.169 2107.03 829.249C2106.97 843.009 2107.51 856.995 2112.79 870.235C2119.47 886.982 2132.61 894.049 2150 890.662C2176.47 885.515 2191.89 868.875 2198.29 843.769C2202.15 828.649 2205.04 813.236 2202.76 797.182C2200.88 783.996 2202.61 770.623 2204.95 757.516C2208.45 737.876 2210.91 718.196 2210.16 698.183C2209.92 691.73 2213.2 686.983 2219.37 685.183C2226.37 683.143 2231.03 687.223 2234.12 692.876C2237.6 699.249 2236.71 706.329 2236.52 713.289C2235.96 734.783 2230.89 755.716 2228.79 777.009C2228.15 783.449 2229.05 789.622 2229.29 795.929C2230.35 823.476 2226.47 849.969 2213.91 874.995C2207.79 887.182 2198.08 895.529 2187.44 902.902C2173.21 912.768 2156.65 917.182 2139.69 918.155C2120.19 919.288 2096.63 901.475 2089.63 882.169C2083.19 864.382 2079.35 846.182 2080.64 827.076V827.089Z" fill="#55ADE1"/>
<path d="M1053.79 808.569C1057.75 767.502 1056.09 726.023 1061.37 685.01C1061.91 680.783 1062.7 676.636 1065.45 673.183C1068.29 669.623 1071.82 667.623 1076.51 668.676C1081.06 669.703 1083.95 672.57 1085.01 677.103C1085.41 678.85 1085.78 680.73 1085.55 682.476C1081.41 713.916 1083.42 745.663 1080.9 777.222C1079.13 799.342 1077.03 821.796 1082.38 843.862C1084.46 852.435 1087.74 860.195 1094.73 866.462C1108.17 878.515 1124.9 874.275 1144.35 863.889C1158.34 856.422 1165.46 843.035 1169.51 828.676C1173.67 813.956 1177.19 798.836 1175.16 783.142C1173.32 768.942 1174.4 754.743 1176.86 740.743C1180.4 720.489 1183.04 700.236 1182.31 679.61C1182.1 673.543 1185.42 669.143 1191.04 667.143C1196.63 665.143 1201 667.796 1204.54 672.063C1207.58 675.73 1208.96 680.183 1208.72 684.716C1207.99 698.556 1207.59 712.476 1205.59 726.156C1203.06 743.463 1200.06 760.476 1201.23 778.236C1203.03 805.396 1198.62 831.649 1186.23 856.422C1179.4 870.075 1168.46 879.329 1156.15 886.929C1142.9 895.115 1127.76 899.182 1112.3 900.062C1092.49 901.195 1068.79 883.355 1061.57 863.649C1058.02 853.955 1055.23 844.009 1053.97 833.862C1052.93 825.556 1053.75 817.009 1053.75 808.569H1053.79Z" fill="#55ADE1"/>
<path d="M925.753 662.783C953.139 661.21 985.966 664.756 1018.86 663.596C1027.89 663.276 1034.25 667.89 1034.75 675.063C1035.38 683.81 1029.65 687.343 1022.21 688.943C1014.45 690.623 1006.5 690.69 998.766 689.53C986.113 687.636 973.446 688.77 960.793 688.25C954.313 687.983 952.513 689.996 952.419 697.183C952.139 719.423 951.339 741.743 949.006 763.849C944.806 803.556 942.9 843.249 945.38 883.115C945.966 892.569 941.793 899.169 934.353 900.209C926.473 901.315 919.593 896.062 918.5 886.502C915.686 862.182 916.486 837.796 917.486 813.369C918.606 785.942 923.553 758.796 922.713 731.236C922.38 720.409 924.74 709.663 924.646 698.743C924.58 691.063 922.06 687.903 914.1 688.063C896.3 688.45 878.473 688.17 860.66 688.156C856.433 688.156 852.207 688.116 848.207 686.383C842.367 683.85 838.66 679.77 839.54 673.103C840.42 666.396 845.073 663.143 851.447 662.823C858.367 662.476 865.327 662.783 872.26 662.796C888.26 662.796 904.26 662.796 925.753 662.796V662.783Z" fill="#55ADE1"/>
<path d="M1471.98 773.596C1481.58 755.956 1489.83 740.609 1498.24 725.356C1510.12 703.81 1526.1 685.25 1541.79 666.516C1546.38 661.036 1552.36 658.476 1558.54 662.703C1565.36 667.37 1564.14 674.676 1560.42 680.516C1556.07 687.343 1550.54 693.436 1545.2 699.569C1524.59 723.289 1511.12 751.396 1496.34 778.689C1493.32 784.249 1490.86 790.422 1486.67 794.969C1479 803.276 1476.55 812.996 1477.7 823.396C1479.9 843.329 1478.64 863.142 1477.71 883.022C1477.47 888.129 1477.78 893.289 1478.2 898.382C1478.79 905.368 1476.23 910.875 1469.38 912.115C1461.91 913.475 1457.36 908.408 1455.92 901.569C1453.8 891.435 1454.82 881.035 1455.76 870.875C1456.98 857.862 1455.06 844.849 1455.91 832.089C1457.42 809.716 1454.44 789.036 1445.55 768.289C1433.59 740.369 1430.75 709.316 1417.44 681.69C1414.46 675.476 1416.42 670.423 1421.86 666.796C1427.58 662.97 1432.28 665.81 1436.24 670.01C1440.88 674.93 1443.87 681.103 1445.58 687.436C1448.48 698.183 1452.22 708.649 1454.84 719.529C1459.06 736.983 1465.59 753.889 1471.96 773.569L1471.98 773.596Z" fill="#55ADE1"/>
<path d="M1150.93 1458.14C1161.97 1460.03 1173.27 1461.13 1182.13 1469.23C1186.27 1473.03 1189.54 1477.58 1191.71 1482.74C1195.65 1492.07 1191.54 1500.06 1186.91 1507.83C1185.99 1509.37 1184.73 1510.7 1183.51 1512.05C1180.37 1515.53 1180.31 1515.62 1184.98 1516.99C1188.45 1518.02 1192.06 1518.73 1195.11 1520.69C1203.98 1526.38 1208.71 1534.81 1208.31 1545.14C1207.9 1555.54 1199.74 1564.09 1189.47 1567.18C1181.17 1569.69 1172.75 1571.23 1164.06 1571.21C1160.98 1571.21 1158.06 1571.77 1155.33 1573.5C1150.79 1576.37 1146.65 1574.75 1145.69 1569.45C1144.85 1564.83 1144.77 1560.07 1144.42 1555.37C1143.31 1540.55 1141.53 1525.79 1141.69 1510.89C1141.75 1504.69 1140.91 1498.38 1139.65 1492.3C1138.45 1486.53 1138.75 1480.67 1137.7 1474.93C1136.71 1469.58 1139.07 1465.13 1141.73 1460.87C1143.89 1457.41 1147.61 1458.47 1150.94 1458.14H1150.93ZM1163.01 1526.15C1155.03 1526.14 1154.82 1526.15 1155.35 1533.03C1155.93 1540.47 1157.02 1547.89 1157.79 1555.31C1158.09 1558.15 1159.9 1558.51 1162.18 1558.47C1170.13 1558.35 1177.93 1557.25 1185.47 1554.78C1192.06 1552.63 1195.11 1549.1 1195.27 1543.9C1195.45 1538.23 1191.59 1532.66 1186.02 1530.38C1178.31 1527.22 1170.14 1526.78 1163.01 1526.17V1526.15ZM1180.86 1491.77C1180.9 1485.07 1173.42 1476.17 1166.74 1473.99C1162.66 1472.66 1158.49 1471.59 1154.39 1470.27C1151.09 1469.21 1149.89 1470.55 1150.29 1473.69C1151.83 1485.78 1153.49 1497.86 1154.98 1509.97C1155.26 1512.19 1155.89 1512.91 1158.11 1511.98C1161.45 1510.61 1164.95 1509.66 1168.21 1508.13C1175.58 1504.66 1178.99 1498.17 1180.86 1491.77Z" fill="black"/>
<path d="M1635.6 1557.25C1635.6 1549.99 1636.28 1542.83 1638.03 1535.78C1640.74 1524.83 1641.48 1513.59 1643.08 1502.47C1644.26 1494.33 1646.87 1486.47 1650.23 1479.03C1653.7 1471.37 1658.7 1464.83 1668.48 1464.93C1674.91 1464.98 1681.55 1469.89 1684 1476.87C1687.24 1486.09 1688.91 1495.69 1689.95 1505.35C1690.86 1513.77 1691.78 1522.15 1693.95 1530.37C1696.06 1538.29 1696 1546.61 1698.31 1554.53C1699.24 1557.73 1700.1 1560.91 1701.52 1563.95C1702.88 1566.86 1702.96 1569.79 1699.99 1571.73C1696.88 1573.74 1693.84 1573.13 1691.39 1570.38C1687.07 1565.57 1686.68 1559.22 1685.11 1553.39C1684.15 1549.79 1683.79 1546.02 1683.34 1542.3C1683.08 1540.26 1682.43 1538.79 1680.19 1538.62C1671.06 1537.94 1661.94 1537.27 1652.8 1536.65C1650.39 1536.47 1650.47 1538.41 1650 1540.01C1647.8 1547.58 1648.51 1555.45 1647.58 1563.15C1647.28 1565.59 1646.72 1567.79 1645.08 1569.61C1643.58 1571.29 1641.74 1572.07 1639.47 1571.25C1637.38 1570.49 1635.72 1569.21 1635.64 1566.81C1635.52 1563.62 1635.62 1560.42 1635.63 1557.23L1635.6 1557.25ZM1674.38 1526.17C1680.08 1526.51 1680.23 1526.3 1679.42 1521.26C1678.94 1518.25 1678.6 1515.21 1678.16 1512.19C1676.72 1502.31 1676.22 1492.27 1673.04 1482.7C1672.23 1480.26 1671.02 1477.81 1668.26 1477.46C1665.75 1477.14 1664.43 1479.41 1663.22 1481.27C1662.39 1482.54 1661.75 1483.95 1661.18 1485.35C1656.34 1497.03 1654.48 1509.35 1653.28 1521.82C1653.03 1524.51 1654.04 1525.3 1656.51 1525.19C1662.75 1524.91 1668.82 1527.75 1674.38 1526.18V1526.17Z" fill="black"/>
<path d="M2153.68 1554.99C2153.73 1547.75 2154.35 1540.58 2156.09 1533.53C2158.87 1522.31 2159.57 1510.78 2161.29 1499.39C2162.51 1491.41 2165.08 1483.69 2168.4 1476.38C2171.75 1469.01 2176.57 1462.65 2185.92 1462.43C2192.68 1462.27 2199.45 1467.03 2202.01 1474.13C2205.32 1483.31 2206.97 1492.93 2208.03 1502.59C2208.96 1511.15 2209.91 1519.66 2212.09 1528.02C2214.2 1536.07 2214.21 1544.54 2216.55 1552.59C2217.48 1555.81 2218.56 1558.91 2219.85 1561.99C2221.04 1564.83 2220.81 1567.58 2217.97 1569.33C2215.17 1571.05 2212.44 1570.63 2209.96 1568.39C2207.57 1566.23 2206.49 1563.38 2205.65 1560.45C2203.72 1553.77 2202.13 1547.01 2201.48 1540.07C2201.25 1537.61 2200.33 1536.22 2197.73 1536.05C2188.88 1535.46 2180.03 1534.82 2171.17 1534.15C2168.8 1533.98 2168.63 1535.57 2168.15 1537.26C2166 1544.83 2166.59 1552.7 2165.69 1560.39C2165.41 1562.82 2164.96 1565.05 2163.36 1566.91C2161.91 1568.61 2160.12 1569.55 2157.83 1568.82C2155.53 1568.09 2153.81 1566.73 2153.72 1564.15C2153.61 1561.1 2153.69 1558.05 2153.69 1554.99H2153.68ZM2192.63 1523.67C2197.99 1524.03 2198.25 1523.73 2197.65 1519.39C2196.36 1510.05 2195.24 1500.67 2193.8 1491.35C2193.19 1487.39 2192.07 1483.49 2190.93 1479.63C2190.29 1477.46 2188.95 1475.37 2186.6 1474.95C2184.04 1474.51 2182.68 1476.71 2181.47 1478.57C2180.56 1479.94 2179.87 1481.49 2179.23 1483.01C2174.44 1494.55 2172.63 1506.74 2171.4 1519.07C2171.12 1521.95 2172.11 1522.79 2174.8 1522.69C2181.03 1522.45 2187.11 1525.21 2192.63 1523.67Z" fill="black"/>
<path d="M1353.52 1553.39C1353.62 1546.15 1354.22 1538.98 1355.96 1531.91C1358.79 1520.57 1359.42 1508.87 1361.23 1497.38C1362.5 1489.41 1365.02 1481.66 1368.43 1474.39C1371.8 1467.19 1376.58 1460.98 1385.74 1460.75C1392.52 1460.59 1399.31 1465.3 1401.87 1472.39C1405.23 1481.71 1406.88 1491.46 1407.95 1501.27C1408.86 1509.69 1409.82 1518.06 1411.96 1526.29C1414.07 1534.34 1414.08 1542.81 1416.42 1550.86C1417.35 1554.07 1418.4 1557.19 1419.71 1560.26C1420.92 1563.09 1420.72 1565.85 1417.91 1567.62C1415.14 1569.37 1412.39 1568.99 1409.88 1566.75C1407.48 1564.61 1406.39 1561.75 1405.54 1558.82C1403.6 1552.14 1401.98 1545.38 1401.36 1538.45C1401.12 1535.71 1399.95 1534.49 1397.24 1534.31C1388.52 1533.75 1379.82 1533.14 1371.1 1532.46C1368.74 1532.27 1368.5 1533.79 1368.02 1535.5C1365.86 1543.07 1366.5 1550.94 1365.56 1558.63C1365.3 1560.9 1364.96 1563.03 1363.52 1564.85C1362.04 1566.73 1360.26 1567.89 1357.75 1567.14C1355.26 1566.39 1353.6 1564.86 1353.54 1562.1C1353.47 1559.18 1353.52 1556.27 1353.52 1553.35V1553.39ZM1393.79 1522.09C1397.42 1522.75 1398.02 1521.31 1397.72 1519.13C1397.23 1515.55 1396.7 1511.98 1396.19 1508.42C1394.78 1498.39 1394.24 1488.22 1391.03 1478.51C1390.23 1476.07 1389 1473.62 1386.23 1473.29C1383.72 1472.99 1382.4 1475.26 1381.2 1477.11C1380.38 1478.38 1379.75 1479.79 1379.16 1481.19C1374.32 1492.87 1372.44 1505.18 1371.28 1517.66C1371.07 1519.94 1371.63 1521.03 1374.11 1521.01C1381.03 1520.95 1387.8 1523.38 1393.79 1522.07V1522.09Z" fill="black"/>
<path d="M2007.71 1552.25C2007.71 1545.01 2008.39 1537.83 2010.13 1530.78C2012.84 1519.83 2013.59 1508.59 2015.19 1497.47C2016.36 1489.33 2018.97 1481.47 2022.32 1474.03C2025.77 1466.37 2030.79 1459.83 2040.56 1459.91C2046.99 1459.97 2053.61 1464.86 2056.09 1471.85C2059.31 1480.93 2060.97 1490.39 2062 1499.91C2062.95 1508.61 2063.92 1517.26 2066.13 1525.75C2068.2 1533.67 2068.2 1541.99 2070.49 1549.91C2071.43 1553.13 2072.43 1556.26 2073.77 1559.31C2075 1562.13 2074.89 1564.9 2072.09 1566.71C2069.17 1568.61 2066.23 1568.22 2063.77 1565.67C2059.15 1560.87 2058.84 1554.34 2057.2 1548.39C2056.21 1544.81 2055.81 1541.02 2055.44 1537.3C2055.17 1534.71 2053.92 1533.66 2051.45 1533.5C2042.73 1532.93 2034.03 1532.33 2025.31 1531.63C2022.67 1531.42 2022.57 1533.17 2022.07 1534.97C2019.91 1542.55 2020.59 1550.41 2019.65 1558.11C2019.36 1560.55 2018.8 1562.75 2017.16 1564.58C2015.65 1566.26 2013.81 1567.06 2011.56 1566.23C2009.47 1565.47 2007.81 1564.21 2007.72 1561.81C2007.6 1558.62 2007.69 1555.42 2007.71 1552.23V1552.25ZM2046.63 1521.17C2051.99 1521.54 2052.24 1521.23 2051.64 1516.83C2050.61 1509.27 2049.61 1501.7 2048.68 1494.13C2047.99 1488.45 2046.68 1482.91 2045.05 1477.46C2044.36 1475.13 2043.05 1472.91 2040.53 1472.43C2038.17 1471.98 2036.8 1474.02 2035.65 1475.74C2034.67 1477.23 2033.88 1478.87 2033.2 1480.54C2028.41 1492.09 2026.57 1504.27 2025.4 1516.61C2025.16 1519.07 2025.72 1520.29 2028.43 1520.17C2034.8 1519.87 2041.01 1522.73 2046.64 1521.17H2046.63Z" fill="black"/>
<path d="M1587.74 1571.25C1576.78 1570.98 1567.36 1567.54 1560.76 1558.18C1559.28 1556.09 1558.08 1553.94 1558.16 1551.31C1558.27 1548.07 1559.7 1545.69 1562.88 1544.7C1566.03 1543.73 1568.27 1545.17 1569.98 1547.69C1577.54 1558.77 1585.52 1561.21 1598.15 1556.26C1598.92 1555.95 1599.71 1555.67 1600.47 1555.33C1610.99 1550.66 1612.39 1538.19 1602.76 1531.51C1594.91 1526.06 1586.64 1521.14 1578.24 1516.57C1569.88 1512.02 1564.79 1505.15 1561.95 1496.39C1560.36 1491.51 1562.5 1487.06 1564.42 1482.78C1571.88 1466.13 1595.68 1458.47 1609.7 1467.35C1614.51 1470.41 1619.7 1472.73 1622.88 1477.82C1625.35 1481.77 1626.22 1485.98 1625.86 1490.55C1625.6 1493.73 1623.99 1495.95 1620.9 1496.38C1617.67 1496.82 1615.8 1494.63 1614.78 1491.79C1613.75 1488.98 1614.22 1485.71 1611.8 1483.29C1599.56 1470.99 1580.66 1474.75 1574.16 1490.51C1572.55 1494.42 1576.79 1501.9 1581.94 1504.94C1591.12 1510.39 1600.46 1515.66 1609.36 1521.54C1619.4 1528.17 1622.98 1538.06 1621.5 1549.77C1620.79 1555.35 1618.14 1560.01 1613.18 1563.1C1605.39 1567.98 1597.14 1571.35 1587.72 1571.25H1587.74Z" fill="black"/>
<path d="M1961.41 1567.9C1950.64 1567.59 1941.31 1564.3 1934.75 1555.1C1933.18 1552.9 1931.84 1550.67 1931.96 1547.87C1932.09 1544.63 1933.57 1542.27 1936.79 1541.34C1939.95 1540.41 1942.16 1541.91 1943.84 1544.43C1951.11 1555.29 1959.33 1557.85 1971.67 1553.03C1972.44 1552.73 1973.27 1552.53 1973.99 1552.11C1977.57 1550.06 1982.44 1549.45 1982.87 1543.87C1983.36 1537.34 1981.93 1531.54 1976.17 1527.85C1968.24 1522.75 1960.24 1517.69 1951.95 1513.19C1943.57 1508.65 1938.59 1501.71 1935.71 1492.98C1934.24 1488.54 1936.11 1484.45 1937.72 1480.5C1944.76 1463.19 1968.92 1455.18 1982.83 1463.73C1987.55 1466.63 1992.72 1468.75 1996.04 1473.55C1998.75 1477.49 1999.99 1481.73 1999.72 1486.51C1999.53 1490.01 1998.13 1492.65 1994.6 1493.06C1991.17 1493.47 1988.76 1491.06 1988.55 1487.98C1988.01 1480.1 1982.71 1476.77 1976.48 1474.11C1966.29 1469.79 1951.97 1475.01 1947.72 1488.1C1946.55 1491.69 1951.24 1498.94 1955.84 1501.69C1965.03 1507.15 1974.36 1512.39 1983.27 1518.3C1993.31 1524.94 1996.77 1534.86 1995.33 1546.57C1994.2 1555.73 1987.63 1560.26 1980 1563.69C1974.12 1566.33 1968.03 1568.17 1961.44 1567.91L1961.41 1567.9Z" fill="black"/>
<path d="M2091.88 1465.03C2103.87 1467.01 2116.13 1467.51 2127.03 1474.13C2139.16 1481.49 2145.28 1492.71 2148.69 1505.86C2149.71 1509.74 2150.67 1513.74 2150.85 1517.73C2151.49 1531.35 2147.56 1543.34 2136.19 1551.7C2124.71 1560.14 2111.33 1564.5 2097.75 1568.21C2095.59 1568.79 2093.33 1568.87 2091.15 1568.3C2087.6 1567.37 2085.39 1564.01 2086.97 1561.06C2089.56 1556.25 2089.37 1551.06 2089.36 1546.05C2089.32 1529.95 2090.09 1513.85 2088.91 1497.75C2088.44 1491.53 2086.77 1485.46 2086.71 1479.18C2086.69 1477.43 2086.09 1475.63 2084.91 1474.15C2083.36 1472.23 2082.23 1470.15 2083.64 1467.69C2085 1465.3 2087.35 1465.01 2089.8 1465.06C2090.49 1465.07 2091.19 1465.06 2091.88 1465.06V1465.03ZM2100.51 1544.07C2100.51 1546.43 2100.61 1548.79 2100.48 1551.15C2100.29 1554.25 2101.47 1555.17 2104.44 1554.22C2112.68 1551.59 2120.68 1548.41 2127.85 1543.57C2133.29 1539.89 2136.61 1534.77 2138.35 1528.15C2140.45 1520.14 2138.64 1512.62 2136.73 1505.21C2134.57 1496.79 2130.27 1489.39 2122.95 1484.03C2116 1478.94 2107.65 1478.57 2099.79 1476.57C2097.28 1475.93 2097.53 1477.71 2097.73 1479.35C2098.43 1485.14 2099.12 1490.91 2099.73 1496.71C2101.43 1512.47 2099.45 1528.31 2100.51 1544.09V1544.07Z" fill="black"/>
<path d="M1789 1553.89C1789.1 1547.43 1791.32 1541.65 1794.67 1536.26C1796.12 1533.9 1797.78 1531.65 1799.44 1529.43C1803.59 1523.89 1803.47 1523.99 1800.12 1518.1C1793.07 1505.71 1792.24 1492.58 1795.88 1478.99C1796.36 1477.22 1797.35 1475.7 1798.67 1474.41C1804.72 1468.49 1812.02 1467.89 1819.6 1470.11C1826.63 1472.17 1829.9 1477.59 1831.11 1484.57C1832.71 1493.78 1830.39 1502.23 1826.19 1510.26C1824.26 1513.94 1822.18 1517.63 1819.58 1520.85C1816.56 1524.58 1819.42 1526.21 1821.43 1528.39C1823.94 1531.1 1825.24 1528.7 1826.76 1527.21C1828.35 1525.66 1829.78 1523.91 1831.91 1523.06C1834.19 1522.15 1836.31 1522.37 1838.02 1524.23C1839.76 1526.15 1839.68 1528.37 1838.34 1530.38C1836.95 1532.45 1835.38 1534.42 1833.67 1536.23C1831.64 1538.39 1832.04 1540.09 1834.14 1541.82C1838.08 1545.11 1842.02 1548.41 1845.91 1551.77C1848.19 1553.74 1850.52 1556.06 1848.32 1559.21C1846.07 1562.43 1842.88 1561.53 1840.2 1559.65C1836.34 1556.94 1832.58 1554.07 1828.98 1551.03C1824.88 1547.57 1824.99 1547.46 1821.78 1552.02C1818.88 1556.14 1815.62 1559.9 1811.42 1562.77C1809.22 1564.26 1806.9 1565.5 1804.28 1566.09C1795.06 1568.19 1788.91 1563.27 1788.99 1553.86L1789 1553.89ZM1804.18 1494.25C1804.18 1500.38 1805.86 1506.06 1808.48 1511.5C1809.66 1513.94 1811.02 1514.35 1812.56 1511.79C1814.14 1509.19 1815.95 1506.69 1817.24 1503.95C1820.11 1497.85 1822.04 1491.49 1820.15 1484.65C1819.1 1480.86 1816.24 1479.17 1811.8 1479.46C1808.18 1479.7 1805.79 1481.39 1805.3 1485.18C1804.9 1488.19 1804.55 1491.22 1804.19 1494.25H1804.18ZM1800.32 1551.87C1800.18 1555.15 1801.75 1555.33 1803.94 1554.1C1808.67 1551.42 1811.58 1547.02 1814.51 1542.66C1816.6 1539.55 1815.2 1535.09 1811.78 1533.66C1811.02 1533.34 1810.42 1533.5 1809.94 1534.06C1805.38 1539.34 1801.47 1544.97 1800.32 1551.87Z" fill="black"/>
<path d="M2272.85 1470.55C2276.75 1470.55 2280.63 1470.53 2284.52 1470.55C2287.64 1470.58 2290.76 1471.19 2290.95 1474.94C2291.12 1478.46 2288 1479.58 2285.23 1479.85C2278.73 1480.45 2272.2 1480.98 2265.69 1480.85C2260.31 1480.74 2255.27 1482.33 2250.04 1482.86C2246.81 1483.19 2246.99 1486.19 2246.79 1488.38C2246.24 1494.18 2246 1500.01 2245.67 1505.82C2245.41 1510.11 2245.27 1514.42 2244.96 1518.71C2244.77 1521.29 2245.73 1522.63 2248.39 1522.81C2256.25 1523.29 2264.12 1523.81 2271.99 1524.33C2273.65 1524.43 2275.33 1524.43 2276.96 1524.74C2279.97 1525.3 2282.37 1526.82 2281.96 1530.26C2281.57 1533.53 2278.91 1534.38 2276.07 1534.26C2271.91 1534.09 2267.69 1534.03 2263.63 1533.3C2258.09 1532.31 2252.52 1533.33 2247.01 1532.37C2244.36 1531.9 2244.24 1534.03 2244.23 1535.93C2244.19 1541.9 2244.15 1547.87 2244.16 1553.85C2244.16 1557.62 2243.8 1561.35 2242.75 1564.98C2241.8 1568.23 2239.87 1570.58 2236.08 1569.63C2232.44 1568.73 2232.07 1565.81 2232.57 1562.67C2233.55 1556.63 2234.01 1550.57 2233.92 1544.43C2233.65 1526.23 2235.12 1508.09 2235.81 1489.91C2235.97 1485.82 2237.31 1481.73 2238.45 1477.74C2239.41 1474.38 2242.24 1472.98 2245.51 1472.85C2254.65 1472.46 2263.64 1469.81 2272.88 1470.58L2272.85 1470.55Z" fill="black"/>
<path d="M1230.61 1511.31C1235.19 1504.25 1238.19 1497.99 1241.47 1491.9C1246.59 1482.43 1253.54 1474.3 1260.48 1466.17C1262.6 1463.69 1265.26 1462.27 1268.07 1464.66C1270.76 1466.95 1270.15 1470.02 1268.24 1472.55C1262.06 1480.74 1255.11 1488.38 1250.19 1497.49C1246.62 1504.07 1243.97 1511.38 1239.34 1517.13C1232.85 1525.22 1233.54 1533.94 1233.89 1543.11C1234.18 1550.86 1233.78 1558.63 1233.57 1566.38C1233.49 1568.94 1231.82 1570.59 1229.33 1570.7C1226.22 1570.85 1224.42 1568.79 1223.85 1565.97C1222.99 1561.71 1223.39 1557.37 1223.85 1553.1C1224.43 1547.41 1224.57 1541.74 1223.7 1536.07C1223.62 1535.53 1223.46 1534.93 1223.58 1534.42C1226.69 1521.53 1219.47 1510.79 1216.05 1499.31C1214.46 1493.99 1213.5 1488.53 1211.69 1483.27C1210.61 1480.13 1209.89 1476.89 1208.21 1473.94C1206.47 1470.91 1206.45 1467.81 1209.79 1466.01C1213.18 1464.19 1215.35 1466.7 1216.89 1469.27C1220.41 1475.18 1222.25 1481.75 1223.59 1488.43C1225.11 1495.94 1228.71 1502.71 1230.58 1511.29L1230.61 1511.31Z" fill="black"/>
<path d="M1486.08 1567.1C1482.02 1567.42 1478.06 1566.33 1474.03 1566.17C1464.83 1565.78 1455.71 1566.73 1446.58 1567.37C1437.43 1568.01 1433.48 1564.47 1434.75 1555.58C1435.59 1549.69 1434.56 1543.94 1434.42 1538.14C1434.34 1534.95 1434.08 1531.81 1434.54 1528.62C1436.63 1513.98 1435.24 1499.26 1435.54 1484.58C1435.6 1481.11 1435.5 1477.62 1435.87 1474.18C1436.23 1470.93 1438.28 1468.61 1441.67 1468.79C1444.96 1468.98 1446.44 1471.65 1446.42 1474.67C1446.36 1481.49 1447.95 1488.26 1447.11 1495.05C1445.98 1504.18 1448 1513.38 1446.44 1522.46C1444.74 1532.31 1446.47 1542.14 1446.39 1551.97C1446.36 1555.15 1447.71 1556.3 1450.64 1555.94C1457.98 1555.02 1465.32 1554.95 1472.68 1555.18C1479.34 1555.39 1485.99 1555.7 1492.64 1556.02C1495.64 1556.17 1497.78 1557.61 1498.04 1560.73C1498.31 1563.86 1496.35 1565.7 1493.5 1566.3C1491.07 1566.82 1488.55 1566.85 1486.06 1567.09L1486.08 1567.1Z" fill="black"/>
<path d="M1531.2 1469.26C1534.4 1469.26 1537.59 1469.19 1540.79 1469.29C1542.58 1469.34 1544.4 1469.53 1546.15 1469.91C1549.27 1470.59 1551.74 1472.25 1551.35 1475.83C1550.96 1479.34 1548.12 1480.03 1545.19 1480.14C1542.83 1480.22 1540.46 1480.23 1538.11 1480.1C1534.92 1479.93 1533.52 1481.53 1533.35 1484.51C1532.48 1499.61 1529.88 1514.61 1530.04 1529.74C1530.12 1537.1 1529.9 1544.42 1529.55 1551.74C1529.43 1554.14 1530.32 1555.01 1532.54 1555.17C1534.2 1555.29 1535.84 1555.71 1537.23 1556.73C1539.06 1558.07 1539.98 1559.89 1539.44 1562.17C1538.92 1564.41 1537.48 1565.95 1535.14 1566.07C1528.2 1566.42 1521.27 1566.74 1514.34 1566.82C1511.11 1566.86 1508.66 1565.23 1508.22 1561.75C1507.79 1558.3 1510.12 1556.33 1512.96 1555.91C1517.91 1555.21 1518.94 1552.26 1518.82 1548.05C1518.15 1526.34 1521.03 1504.82 1522.54 1483.23C1522.72 1480.47 1522.14 1479.47 1519.38 1479.34C1516.11 1479.18 1513.2 1478.14 1513.11 1474.13C1513.04 1471.02 1515.6 1469.18 1519.95 1469.11C1523.7 1469.05 1527.46 1469.11 1531.2 1469.11V1469.29V1469.26Z" fill="black"/>
</svg>
