<svg width="601" height="134" viewBox="0 0 601 134" fill="none" xmlns="http://www.w3.org/2000/svg">
<path d="M214.211 68.0807C213.467 76.4364 212.829 83.6652 212.17 90.8728C212.064 91.9571 212.085 93.0414 211.872 94.1045C211.341 96.7196 210.129 99.0159 207.067 98.7182C203.793 98.3993 202.815 95.8904 203.028 92.9776C203.453 87.2796 203.963 81.6029 204.58 75.9261C206.111 61.9574 206.557 47.9037 207.152 33.8712C207.493 25.6857 210.788 22.3902 219.059 23.0918C223.481 23.4745 227.84 24.7714 232.241 25.6219C249.59 29.0024 249.824 47.8824 241.681 57.2162C238.343 61.0432 234.346 63.9985 229.392 65.1254C225.139 66.0821 225.607 67.6342 227.542 70.7171C232.39 78.4349 237.067 86.2591 243.169 93.1052C243.467 93.4454 243.722 93.8494 243.977 94.2321C245.423 96.3369 245.976 98.5694 243.913 100.525C241.617 102.694 239.214 101.801 237.343 99.8876C231.603 93.9982 227.032 87.1946 222.801 80.1571C220.441 76.245 218.23 72.2054 214.19 68.1019L214.211 68.0807ZM215.062 49.6259C214.849 55.2176 215.657 56.5571 219.186 57.3437C225.565 58.747 233.431 55.2176 236.684 49.477C240.448 42.8435 237.726 35.9549 230.412 33.935C227.138 33.0421 223.8 32.4255 220.462 31.7664C217.422 31.1711 215.721 32.2341 215.763 35.5934C215.827 40.526 215.721 45.4587 215.062 49.6259Z" fill="black"/>
<path d="M260.072 84.1964C260.752 70.9293 262.517 56.4716 261.837 41.9076C261.645 37.953 263.857 35.4017 267.343 34.1898C273.658 31.9999 280.27 31.277 286.883 30.6817C288.35 30.5541 289.944 31.0431 291.39 31.5321C293.261 32.1487 294.813 33.3606 294.345 35.593C293.941 37.5916 292.198 38.1444 290.391 38.1019C284.778 37.953 279.314 38.8035 273.828 39.8028C270.32 40.4406 268.768 41.7588 269.214 45.6709C269.852 51.0287 270.001 56.4929 269.151 61.8507C268.619 65.1037 269.767 66.5282 272.999 66.4857C276.401 66.4644 279.803 66.4007 283.204 66.592C285.033 66.677 286.883 67.1023 288.647 67.6125C290.369 68.1228 291.773 69.2497 291.496 71.2907C291.199 73.587 289.37 74.565 287.457 74.161C282.375 73.0554 277.294 74.2248 272.234 73.8208C270.256 73.672 268.959 73.8208 268.64 76.1809C268.003 80.9434 267.641 85.7059 267.811 90.511C267.896 93.3387 269.363 94.1892 271.936 94.2742C276.869 94.423 281.822 94.6357 286.734 95.0821C289.476 95.3373 292.9 95.72 292.559 99.547C292.24 103.013 289.051 103.034 286.394 102.864C279.76 102.417 273.148 101.886 266.536 101.205C262.177 100.759 259.902 98.2926 260.051 93.7639C260.136 90.9787 260.051 88.1935 260.051 84.1751L260.072 84.1964Z" fill="black"/>
<path d="M330.213 105.904C322.261 106.01 315.819 103.289 310.95 97.1445C309.674 95.5287 308.611 93.849 308.59 91.7441C308.59 89.4054 309.355 87.4068 311.737 86.5989C313.969 85.8548 315.585 86.9391 316.924 88.6612C323.388 96.9744 330.319 98.5903 339.865 94.0404C346.392 90.9362 347.668 84.5578 342.884 78.9661C341.035 76.8187 338.653 75.3729 336.272 73.9484C331.233 70.9293 325.939 68.3142 321.177 64.8911C307.165 54.8133 307.208 41.6525 322.048 31.5322C334.273 23.1977 347.902 28.1729 355.428 37.8255C357.278 40.2068 358.086 43.0345 357.895 46.0961C357.746 48.5837 357.044 50.8799 354.238 51.2626C351.368 51.6453 349.879 49.6255 349.539 47.1805C348.561 40.0792 343.012 37.8042 337.463 36.805C331.658 35.7844 326.109 37.7404 322.431 43.0132C318.583 48.5199 319.709 53.6652 325.748 57.4284C331.765 61.1917 337.888 64.8061 344.011 68.4205C349.964 71.9499 353.557 77.0738 354.706 83.8775C356.045 91.7654 352.664 98.2501 345.478 101.758C340.588 104.161 335.57 106.117 330.191 105.904H330.213Z" fill="black"/>
<path d="M391.807 36.614C401.056 36.614 410.304 36.5928 419.553 36.614C422.062 36.614 424.401 37.422 424.528 40.3135C424.635 43.035 422.296 43.6941 420.106 44.1618C415.322 45.2036 410.581 43.7578 405.818 43.7791C401.779 43.7791 400.142 44.6933 400.142 49.1795C400.163 66.2948 397.165 83.3039 398.271 100.483C398.419 102.992 397.697 105.394 394.805 105.649C391.68 105.926 390.532 103.523 390.213 100.887C388.916 90.3839 390.213 79.9446 390.935 69.484C391.424 62.404 391.913 55.3453 392.424 48.2652C392.658 45.1824 391.467 43.7153 388.193 43.8004C383.26 43.9492 378.306 43.8642 373.374 43.8004C370.652 43.7578 367.654 43.3751 367.591 39.9308C367.506 36.2526 370.631 36.2101 373.31 36.1888C379.476 36.1463 385.663 36.1888 391.828 36.1888V36.6353L391.807 36.614Z" fill="black"/>
<path d="M452.402 30.9583C458.419 30.852 463.607 35.3381 465.563 41.674C468.497 51.1991 468.71 61.1919 470.687 70.8445C472.962 81.8579 473.493 93.2539 477.682 103.885C478.639 106.287 478.277 108.562 475.79 109.88C473.196 111.262 471.261 109.795 469.815 107.818C466.498 103.289 465.946 97.7826 464.946 92.4885C463.543 85.0258 463.671 85.1108 456.144 84.9195C452.296 84.8344 448.448 84.388 444.621 83.9415C441.559 83.6013 439.922 84.8132 439.624 87.8748C439.178 92.4885 438.71 97.1022 438.221 101.695C438.093 102.928 438.03 104.182 437.711 105.352C437.073 107.69 435.584 109.157 433.033 108.966C430.354 108.775 429.142 106.882 429.227 104.544C429.482 98.5267 428.972 92.446 430.354 86.5353C432.268 78.3923 433.437 70.1641 434.309 61.8297C435.053 54.5584 437.243 47.5421 440.262 40.9511C442.707 35.6358 446.513 31.3198 452.381 30.8945L452.402 30.9583ZM456.314 76.3299C457.93 75.4795 461.991 77.967 461.332 73.4596C459.971 64.1897 459.95 54.7072 457.037 45.6711C456.399 43.6726 456.208 40.9936 453.529 40.781C450.765 40.5684 449.681 43.056 448.745 45.1183C444.748 53.7717 443.387 63.0629 442.537 72.4391C442.346 74.4164 443.09 75.2456 445.046 75.3732C448.724 75.607 452.402 75.9897 456.314 76.3087V76.3299Z" fill="black"/>
<path d="M501.834 80.0934C501.09 88.4491 500.452 95.6779 499.793 102.885C499.687 103.97 499.708 105.054 499.495 106.117C498.964 108.732 497.752 111.029 494.69 110.731C491.416 110.412 490.438 107.903 490.651 104.99C491.076 99.2923 491.586 93.6156 492.203 87.9388C493.734 73.9701 494.18 59.9164 494.775 45.8839C495.116 37.6983 498.411 34.4028 506.682 35.1045C511.104 35.4872 515.463 36.7841 519.864 37.6346C537.213 41.0151 537.447 59.8951 529.304 69.2289C525.966 73.0559 521.969 76.0112 517.015 77.1381C512.763 78.0948 513.23 79.6469 515.165 82.7298C520.013 90.4476 524.69 98.2718 530.792 105.118C531.09 105.458 531.345 105.862 531.6 106.245C533.046 108.35 533.599 110.582 531.536 112.538C529.24 114.707 526.838 113.814 524.967 111.9C519.226 106.011 514.655 99.2073 510.424 92.1698C508.064 88.2577 505.853 84.2181 501.813 80.1146L501.834 80.0934ZM502.685 61.6386C502.472 67.2303 503.28 68.5697 506.809 69.3564C513.188 70.7597 521.054 67.2303 524.307 61.4897C528.071 54.8562 525.349 47.9676 518.035 45.9477C514.761 45.0548 511.423 44.4382 508.085 43.7791C505.045 43.1838 503.344 44.2468 503.386 47.6061C503.45 52.5387 503.344 57.4714 502.685 61.6386Z" fill="black"/>
<path d="M568.275 40.1228C577.524 40.1228 586.772 40.1016 596.021 40.1228C598.53 40.1228 600.869 40.9308 600.996 43.8223C601.102 46.5437 598.764 47.2029 596.574 47.6706C591.79 48.7124 587.049 47.2666 582.286 47.2879C578.246 47.2879 576.609 48.2021 576.609 52.6883C576.631 69.8036 573.633 86.8126 574.738 103.992C574.887 106.501 574.164 108.903 571.273 109.158C568.147 109.435 566.999 107.032 566.68 104.396C565.383 93.8927 566.68 83.4534 567.403 72.9928C567.892 65.9128 568.381 58.854 568.892 51.774C569.125 48.6911 567.935 47.2241 564.661 47.3092C559.728 47.458 554.774 47.3729 549.841 47.3092C547.12 47.2666 544.122 46.8839 544.058 43.4396C543.973 39.7614 547.099 39.7189 549.778 39.6976C555.943 39.6551 562.13 39.6976 568.296 39.6976V40.1441L568.275 40.1228Z" fill="black"/>
<path d="M133.951 65.3713C133.851 65.0383 133.851 64.6387 133.851 64.1559C133.851 63.7729 133.851 63.39 133.801 63.007C133.035 55.3978 131.221 48.0384 128.407 41.1119C125.743 34.5517 122.163 28.6076 117.767 23.4294C113.938 18.9172 110.591 15.8868 106.944 13.5724L106.895 13.5391C105.862 11.9241 104.347 11.0749 103.015 10.3423C102.749 10.1925 102.482 10.0592 102.232 9.89275C100.234 8.71058 98.1198 7.81147 96.0719 6.929C95.4891 6.67925 94.8897 6.4295 94.3069 6.16309C89.545 4.06516 84.3501 1.98388 78.5891 1.05147C72.6283 0.119058 67.9829 -0.180646 63.5373 0.102408C57.5599 0.485363 52.698 1.25127 48.2524 2.50004C47.5198 2.69984 46.7705 2.883 46.0046 3.0495C44.3895 3.43246 42.7245 3.81541 41.1094 4.53137C34.3994 7.51176 29.5209 10.3423 25.3084 13.7223C21.8285 16.5029 18.4152 19.8163 14.8687 23.8456C13.8696 24.9779 12.5709 26.5097 11.4554 28.208C8.65812 32.4039 6.29379 37.0826 4.42896 42.1443C2.34768 47.772 1.06562 53.1667 0.532808 58.6113C0.399606 59.9434 0.283054 61.2754 0.166502 62.6074L0 64.6554V69.9834L0.0666009 70.5662C0.0832512 70.7161 0.116552 70.8493 0.116552 70.9991C0.199803 73.6798 0.466207 76.5603 0.915763 79.7904C1.74827 85.668 3.59645 91.2458 6.42699 96.3408C6.69339 96.8236 6.9931 97.2898 7.27615 97.756C7.65911 98.3887 8.02541 98.9715 8.32512 99.5709C12.4544 108.013 18.7981 114.906 27.7226 120.617C32.468 123.664 37.6628 126.794 43.3905 129.092C47.5864 130.773 52.3483 132.672 57.5266 133.104L58.5755 133.188C60.79 133.371 63.0544 133.571 65.3522 133.571C66.4011 133.571 67.4668 133.537 68.5324 133.437C69.7312 133.321 70.9134 133.188 72.1122 133.055C74.2268 132.821 76.4246 132.572 78.5558 132.472C83.4843 132.205 88.4627 130.957 94.6899 128.426C101.6 125.595 107.977 121.349 114.187 115.405C119.582 110.26 124.044 104.033 127.824 96.4074C130.288 91.4623 131.953 86.2341 132.786 80.8727C133.102 78.7748 133.385 76.6768 133.651 74.5623L134.018 71.765V65.8209L133.968 65.3713H133.951ZM119.882 97.7227C114.837 105.948 107.96 112.891 99.4685 118.386C94.0239 121.899 88.0131 124.28 81.5862 125.462C79.1386 125.912 76.5578 126.128 74.0769 126.344C73.1445 126.428 72.1954 126.494 71.263 126.594L70.1641 126.711C68.6656 126.861 67.2503 127.01 65.8184 127.01H65.6685C58.2925 127.01 51.7989 125.728 45.8214 123.064C40.4268 120.683 35.4484 117.77 31.2858 115.255C25.3417 111.659 20.3632 106.697 16.4837 100.503C14.8187 97.8393 13.2036 95.0254 11.5553 91.8952C9.50728 88.0157 8.17527 83.7199 7.49261 78.7914C6.80995 73.9296 6.57684 69.0011 6.76 64.1559C7.17625 53.533 10.0567 43.5262 15.3682 34.4019C16.9166 31.7545 18.8647 29.207 21.5454 26.3598L22.5111 25.3275C24.0096 23.7291 25.4249 22.1973 27.04 20.8486C32.0018 16.6527 36.3475 13.7889 40.7431 11.8408C45.9047 9.54309 51.6823 8.01127 58.3757 7.16211L59.3248 7.04556C61.1397 6.81245 62.8546 6.596 64.6029 6.51275C65.0691 6.4961 65.552 6.47945 66.0182 6.47945C67.3835 6.47945 68.7655 6.54605 70.1141 6.61265L71.3463 6.6626C73.4941 6.7625 75.5921 7.12881 77.8065 7.52841C78.4393 7.64496 79.072 7.76152 79.7047 7.86142C82.402 8.31097 85.1826 9.21009 88.4794 10.6753C89.5616 11.1582 90.6439 11.6077 91.7428 12.0573C94.3569 13.1395 96.8211 14.1719 99.1688 15.5205C101 16.5695 102.749 17.6518 103.981 19.2502C104.514 19.9495 105.18 20.4656 105.762 20.9152L106.162 21.2316C109.758 24.1453 113.038 27.7584 116.202 32.2873C120.381 38.2647 123.428 45.1246 125.559 53.2167C126.908 58.3283 127.657 63.2734 127.591 66.4203V66.4536C127.591 74.2959 126.675 80.7062 124.644 87.2664C123.495 90.9461 121.913 94.4593 119.915 97.7227H119.882Z" fill="black"/>
<path d="M107.861 53.8999C104.83 46.1909 100.052 39.7472 93.6579 34.7521C85.466 28.3585 75.8921 25.2116 65.2193 25.3448C63.6542 25.3614 62.0724 25.5446 60.7237 25.7111C57.9099 26.0607 55.379 26.3937 53.048 26.7267C53.4476 25.9109 53.8472 25.1117 54.2301 24.3291C54.8629 23.0304 55.4789 21.7317 56.045 20.4163C56.6944 18.8845 56.1782 17.286 54.7463 16.4535C53.331 15.621 51.7326 15.9873 50.6836 17.3859C50.2507 17.9687 49.9177 18.5681 49.5348 19.2674C47.9364 22.1812 46.4545 25.1783 45.0226 28.0754L43.6572 30.8227C43.1411 31.855 42.6249 33.2037 43.191 34.519C43.7571 35.8344 45.1058 36.3672 46.2047 36.7002L46.8707 36.9C49.2351 37.5993 51.666 38.3153 54.0137 39.1478C55.8452 39.7972 57.7267 40.3633 59.5249 40.9294L60.5572 41.2457C62.3222 41.7785 64.0038 41.0626 64.6698 39.4808C65.3359 37.8657 64.6199 36.1341 62.9382 35.2683C62.6885 35.1351 62.4054 35.0185 62.1224 34.9186L58.0764 33.6532C57.4769 33.4701 56.8942 33.2703 56.2948 33.0705C56.6278 33.0705 56.9941 33.0372 57.3437 32.9872C62.3055 32.2213 66.4181 32.0548 70.2477 32.4544C77.374 33.2037 83.5679 35.6846 89.1457 40.0136C96.4385 45.6747 101.067 53.2173 102.899 62.4248C103.581 65.8714 103.731 69.651 103.382 74.3464C103.282 75.7117 103.182 76.9938 102.732 78.0927L102.383 78.9419C101.184 81.8557 100.052 84.6196 98.4199 87.1171C95.3729 91.7292 91.4268 95.9584 86.6482 99.6881C84.1839 101.603 81.2035 103.701 77.8069 104.7C72.662 106.198 68.0165 106.814 63.6042 106.615C57.7766 106.332 52.6317 104.4 47.8698 100.687C43.3076 97.1406 39.6112 92.6783 36.2978 88.3992C34.8992 86.5843 33.9335 84.5197 32.9178 82.3219C32.6847 81.8224 32.4516 81.3229 32.2185 80.84C31.2528 78.8087 29.2881 77.9429 27.4399 78.7421C25.5584 79.5579 24.8258 81.6392 25.675 83.6872C26.8738 86.551 28.0893 89.3316 29.9374 91.8791C33.2175 96.3747 36.7973 100.421 40.5437 103.934C47.5034 110.427 55.7287 113.791 64.9529 113.941C65.1027 113.941 65.2693 113.941 65.4191 113.941C69.0322 113.941 72.5288 113.275 75.9254 112.642L76.4083 112.542C81.4699 111.593 86.1986 109.245 91.2769 105.149C99.1025 98.8556 104.148 92.695 107.178 85.7685C107.394 85.269 107.627 84.7695 107.861 84.2699C108.693 82.4551 109.576 80.5736 109.975 78.4424C110.575 75.2122 110.774 71.7823 110.608 67.6697C110.408 62.7745 109.459 58.1624 107.827 53.9832L107.861 53.8999Z" fill="black"/>
</svg>
