<svg width="324" height="365" viewBox="0 0 324 365" fill="none" xmlns="http://www.w3.org/2000/svg">
<path d="M188.207 328.416C170.754 329.736 152.661 328.176 134.634 329.096C123.581 329.656 112.541 329.216 101.515 329.803C95.808 330.11 90.1281 329.523 84.4481 329.096C81.6481 328.883 80.9281 329.616 80.7948 332.63C80.2215 344.83 76.1815 355.323 64.7282 361.603C59.5549 364.443 54.0217 365.256 48.2084 364.803C34.9951 363.79 26.4752 357.576 23.3019 346.483C21.8619 341.456 22.0352 336.283 22.3419 331.136C22.4619 329.083 22.3019 328.11 19.8085 327.803C15.1819 327.23 10.4486 326.656 6.82196 323.03C4.74197 320.936 3.26198 318.723 2.88865 315.697C0.222002 293.897 -0.72466 272.043 0.581999 250.11C1.47533 235.11 1.38199 220.124 0.608666 205.124C0.0220029 193.697 1.26199 182.404 3.30198 171.151C5.44863 159.311 6.86196 147.338 9.04861 135.498C13.8219 109.685 17.1286 83.6314 21.4485 57.7382C23.0352 48.2183 27.0352 40.1517 33.1018 32.4984C40.0884 23.6851 49.0084 18.2584 58.9283 14.0051C62.4083 12.5118 66.2616 11.8852 69.9415 10.8585C84.3281 6.88519 99.2347 5.8452 113.821 3.03188C125.995 0.685233 138.248 1.23187 150.448 0.378541C166.314 -0.741452 182.141 1.03188 198.007 0.511881C206.594 0.231883 214.861 2.96519 223.327 4.04518C240.714 6.24517 256.74 12.8985 272.034 21.0051C283.487 27.0584 290.62 37.2316 295.26 49.3382C299.593 60.6715 300.167 72.6181 301.633 84.4047C303.9 102.765 303.687 121.431 307.207 139.591C310.06 154.311 312.193 169.137 315.087 183.844C317.153 194.391 317.687 205.137 318.633 215.804C319.98 231.07 322.327 246.244 322.993 261.563C323.367 270.217 322.767 278.843 321.9 287.43C321.273 293.537 321.993 299.697 320.913 305.79C319.9 311.443 318.06 316.843 315.58 321.936C313.793 325.576 310.7 327.816 306.047 327.443C303.38 327.23 300.62 328.016 297.913 328.35C296.033 328.576 296.553 330.096 296.513 331.15C296.3 336.883 295.5 342.336 292.58 347.536C284.767 361.47 269.38 366.496 254.46 360.843C243.154 356.55 239.7 347.736 237.94 337.283C237.54 334.91 237.327 332.496 237.247 330.096C237.18 327.91 236.114 327.15 234.127 327.39C223.647 328.67 213.101 327.376 202.607 328.283C198.021 328.683 193.407 328.603 188.221 328.376L188.207 328.416ZM3.83531 269.23C3.68865 276.363 4.23531 283.47 4.46197 290.577C4.70197 297.83 5.90196 304.963 6.47529 312.163C7.08862 319.87 14.5686 326.176 21.9552 324.123C25.8618 323.03 29.2618 323.963 32.8751 324.27C35.5951 324.496 38.2884 325.176 41.0084 325.23C49.2217 325.363 57.4483 325.07 65.6616 325.376C72.9015 325.643 80.0748 324.67 87.3281 325.03C98.808 325.59 110.355 326.19 121.795 325.536C134.501 324.803 147.208 324.363 159.874 324.843C172.608 325.323 185.247 324.043 197.954 324.203C211.634 324.376 225.327 323.39 239.007 323.63C256.3 323.95 273.594 324.75 290.9 324.403C295.26 324.31 299.713 324.403 303.967 323.243C306.793 322.47 310.313 322.296 311.687 319.19C313.713 314.603 315.473 309.897 316.327 304.87C317.26 299.31 316.593 293.71 317.247 288.15C318.7 275.83 318.82 263.47 317.58 251.124C316.42 239.684 315.287 228.257 314.047 216.83C312.9 206.284 312.26 195.684 310.62 185.177C306.847 160.991 300.793 137.151 299.38 112.591C298.633 99.5912 297.34 86.618 295.593 73.7114C294.58 66.2581 293.713 58.7782 290.953 51.6182C286.713 40.645 280.634 30.9784 270.14 25.4317C255.234 17.5651 239.78 11.0185 222.727 8.87185C210.701 7.3652 198.861 5.28518 186.567 5.37851C175.554 5.47184 164.501 4.97851 153.448 5.08518C139.008 5.23184 124.688 5.53851 110.355 8.25849C97.048 10.7785 83.5281 12.1785 70.3949 15.6718C66.6082 16.6851 62.7816 17.5384 59.1283 19.0851C49.3017 23.2317 41.2617 29.4584 34.8484 38.0183C31.5151 42.4716 28.7285 47.0983 27.5018 52.5249C23.4219 70.5781 21.5285 89.0047 18.5285 107.245C15.2886 126.884 11.8753 146.498 8.44861 166.097C6.36863 177.991 4.26197 189.817 4.59531 201.937C4.76864 208.511 5.00864 215.071 5.2353 221.644C5.7953 237.55 3.87531 253.377 3.87531 269.257L3.83531 269.23ZM49.395 359.59C68.7682 359.47 75.7948 344.056 75.6482 331.043C75.6348 329.603 74.7682 329.603 73.6749 329.563C59.2483 329.03 44.7684 330.496 30.3951 328.136C28.9818 327.896 28.2218 328.39 28.0485 330.016C27.5685 334.616 27.2618 339.256 28.3152 343.763C29.3685 348.283 31.0218 352.856 35.3818 355.15C40.3151 357.75 45.635 359.563 49.3684 359.59H49.395ZM251.447 328.096C251.114 328.096 250.78 328.043 250.46 328.096C247.914 328.59 244.314 326.896 243.047 328.79C241.887 330.51 242.927 333.856 243.314 336.443C244.647 345.483 247.314 353.496 257.54 356.39C266.06 358.79 274.18 359.363 281.42 353.176C288.167 347.403 292.1 340.283 291.807 331.123C291.753 329.363 291.54 328.576 289.54 328.59C276.834 328.71 264.127 329.163 251.447 328.096Z" fill="#55ADE1"/>
<path d="M294.687 152.631C291.953 134.231 289.78 114.484 288.06 92.2577C287.807 89.0844 287.46 85.3911 286.447 81.9378C283.753 72.8179 279.02 67.8846 271.14 65.9379C263.647 64.0846 255.367 63.4313 245.087 63.8713C229.26 64.5513 213.127 64.3379 197.527 64.1113H197.114C187.461 63.9646 176.514 63.8179 165.914 63.9246C156.314 64.0179 146.021 63.8313 137.728 63.6713C124.901 63.4313 111.634 63.1779 98.5679 63.6713C92.9946 63.8846 87.3013 63.4846 81.7946 63.0979C74.608 62.5779 67.2081 62.058 59.9148 62.9113C45.0749 64.6446 40.2349 68.4579 36.3283 81.4312C35.955 82.6445 35.715 83.8845 35.515 84.9245C33.7016 94.6977 32.315 104.684 31.2883 115.458C30.675 121.831 29.3417 128.178 28.0483 134.324L28.0083 134.498C27.515 136.857 27.0083 139.217 26.555 141.591C26.0617 144.137 25.7817 146.737 25.515 149.257C25.275 151.551 25.0217 153.911 24.6084 156.191C23.0884 164.697 26.6483 171.524 34.3816 174.911C37.6216 176.324 41.0349 177.044 44.8349 177.084C51.1149 177.177 57.5015 176.871 63.6614 176.577H63.9948C72.8747 176.151 82.0613 175.724 91.1279 176.364C100.048 176.991 109.154 176.617 117.954 176.271L118.634 176.244C120.288 176.177 121.941 176.111 123.594 176.057C144.088 175.324 164.834 175.457 185.287 176.431C185.874 176.404 186.447 176.391 187.007 176.391C189.261 176.391 191.407 176.577 193.487 176.764C194.754 176.871 195.967 176.977 197.167 177.044C208.474 177.684 220.527 177.977 235.1 177.977C244.594 177.977 254.354 177.844 263.473 177.711C270.313 177.604 276.473 176.417 282.313 174.071C292.607 169.937 296.313 163.511 294.687 152.617V152.631ZM279.793 169.737C278.9 170.071 277.953 170.351 277.007 170.644C276.567 170.777 275.753 171.031 274.967 171.271C272.58 172.017 272.473 172.044 272.127 171.951C270.86 172.191 268.5 172.457 267.473 172.511C266.98 172.671 266.327 172.764 265.433 172.804C258.567 172.804 251.58 172.831 244.847 172.857C239.447 172.884 234.06 172.924 228.607 172.924C217.447 172.924 206.154 172.364 195.221 171.817C192.807 171.697 190.394 171.577 187.967 171.471V171.431C186.021 171.591 181.394 171.191 179.701 171.031C179.314 171.097 178.874 171.084 178.301 171.071C166.301 170.737 154.408 170.724 143.354 170.751C142.674 170.751 123.341 170.964 117.661 171.164H117.488C106.608 171.537 95.4212 171.897 84.3946 171.084C77.3814 170.564 70.2747 171.004 63.3948 171.431C60.7681 171.591 58.1415 171.751 55.5282 171.871C54.5815 171.911 52.6215 172.031 52.6215 172.031C52.4082 172.031 51.2082 172.071 49.8615 172.097C48.6749 172.124 47.0482 172.151 46.1682 172.177L46.1282 172.244L45.3816 172.217C42.1016 172.084 39.4216 171.551 36.9549 170.537C30.795 167.991 28.5683 163.831 29.7417 157.031C30.115 154.804 30.355 152.537 30.595 150.337C30.8883 147.484 31.195 144.577 31.8083 141.737C32.715 137.457 33.475 133.111 34.2216 128.911L34.2483 128.778C34.8883 125.151 35.5283 121.484 36.2483 117.898C36.7416 115.458 36.6349 112.951 36.5283 110.538C36.4083 107.738 36.2883 104.844 37.0749 101.991C37.8483 99.1911 38.2483 96.2311 38.6349 93.3644C38.9683 90.9644 39.3016 88.5245 39.8349 86.1645C43.0616 72.0446 46.4216 69.0712 60.9815 67.4446C62.8881 67.2313 64.9281 67.1246 67.2214 67.1246C70.3814 67.1246 73.5814 67.3246 76.6747 67.5246C79.6213 67.7113 82.648 67.9112 85.608 67.9246C91.9679 67.9512 98.5012 67.9246 105.195 67.8713H105.781C116.274 67.8046 127.114 67.7379 137.861 67.9779C155.394 68.3779 173.061 68.4313 190.154 68.4979H190.327C203.901 68.5513 217.927 68.5912 231.847 68.8046C235.38 68.8579 238.967 68.8046 242.447 68.7646H242.767C249.287 68.6712 256.047 68.5646 262.753 69.1512C266.153 69.4446 269.7 70.3246 273.593 71.8312C279.087 73.9646 280.62 79.1378 282.1 84.1378C283.247 87.9911 283.407 92.0044 283.553 95.8977C283.633 98.0577 283.727 100.271 283.98 102.444C284.66 108.244 285.273 114.164 285.86 119.871L285.887 120.164C286.993 130.951 288.14 142.097 289.82 152.991C291.247 162.231 288.713 166.457 279.793 169.751V169.737Z" fill="#55ADE1"/>
<path d="M295.833 245.27C292.807 238.03 287.86 232.937 281.54 230.537C276.793 228.723 271.593 228.603 266.554 228.497H265.927C258.98 228.31 251.314 231.67 245.487 237.43C239.594 243.27 236.42 250.71 236.514 258.39C236.62 266.51 239.66 274.203 245.807 281.896C250.327 287.55 256.66 290.723 264.154 291.083C264.607 291.11 265.074 291.11 265.527 291.11C274.06 291.11 283.087 287.403 289.38 281.243C295.553 275.19 298.687 267.35 298.46 258.536C298.633 254.243 297.767 249.91 295.82 245.27H295.833ZM293.767 258.297C293.953 265.91 291.313 272.67 286.153 277.816C280.767 283.19 272.833 286.47 265.314 286.47C265.087 286.47 264.86 286.47 264.634 286.47C249.607 286.07 241.3 269.856 241.074 258.31C240.94 251.737 243.5 245.497 248.247 240.737C253.394 235.577 260.514 232.643 267.82 232.643C267.98 232.643 268.14 232.643 268.314 232.643C280.3 232.857 293.287 239.71 293.767 258.283V258.297Z" fill="#55ADE1"/>
<path d="M49.7549 229.35C42.7017 229.03 35.7417 231.817 30.1417 237.177C23.8351 243.203 20.2085 251.617 20.1818 260.283C20.1551 269.403 23.4085 277.23 29.5817 282.91C35.1284 288.016 42.6483 290.99 50.7416 291.27H50.7683H50.7949C65.7815 291.123 81.8481 277.79 81.8614 258.19C81.8747 241.523 69.2748 230.203 49.7416 229.35H49.7549ZM77.2348 258.163C77.1681 276.11 63.8349 286.23 51.3283 286.656C44.3416 286.87 37.5284 284.35 32.5951 279.696C27.6618 275.043 24.9684 268.723 24.7951 261.403C24.6084 253.616 27.4218 246.39 32.7151 241.043C37.195 236.523 43.035 233.937 48.7683 233.937C48.8483 233.937 48.9416 233.937 49.0216 233.937C75.3014 235.31 77.2748 252.816 77.2481 258.15L77.2348 258.163Z" fill="#55ADE1"/>
<path d="M84.6213 147.937C90.368 147.364 96.1146 147.244 102.995 147.244H106.461C108.995 147.244 111.541 147.257 114.074 147.244C118.861 147.217 123.648 147.724 127.888 148.177C129.568 148.351 131.248 148.524 132.928 148.684C135.101 148.884 136.941 150.044 138.248 152.044C141.954 157.684 144.181 164.057 144.901 171.044H149.461C149.074 163.857 146.648 156.857 142.008 149.644C140.021 146.564 137.008 144.724 133.288 144.297C114.448 142.191 97.1013 142.164 80.2614 144.204C64.6215 146.097 54.5815 157.471 54.5815 173.23C56.0215 173.417 57.4482 173.724 58.8482 174.097C58.8482 174.044 58.8482 173.977 58.8482 173.91V173.524C58.9282 166.35 60.7548 161.017 64.6081 156.724C69.2214 151.577 75.4081 148.871 84.6213 147.937Z" fill="#55ADE1"/>
<path d="M195.327 146.951C180.207 150.551 175.581 158.471 173.861 170.777H178.207C179.101 165.271 180.901 160.937 183.807 157.391C185.834 154.911 188.821 153.697 192.221 152.471C198.141 150.338 204.607 149.244 211.434 149.231H215.687H223.207C225.514 149.311 227.847 149.298 230.14 149.271C236.22 149.218 242.527 149.151 248.54 151.231C255.074 153.497 258.887 158.244 260.18 165.777C260.487 167.551 260.554 169.431 260.634 171.271C260.674 172.364 260.74 173.497 260.834 174.617C262.314 174.111 263.794 173.657 265.287 173.271C265.287 173.244 265.287 173.217 265.287 173.191C265.22 170.751 265.154 168.217 264.727 165.751C262.674 153.697 256.394 147.658 243.727 145.564C241.794 145.244 239.874 145.071 237.847 144.884L237.167 144.818C241.767 139.564 244.62 133.418 245.674 126.538C248.074 110.764 241.26 101.071 224.861 96.9112C215.474 94.5246 207.581 98.5245 201.101 102.738C198.021 104.738 196.741 107.751 195.501 110.658C190.047 123.431 193.287 136.351 204.167 145.218L202.874 145.444C200.274 145.911 197.807 146.338 195.367 146.924L195.327 146.951ZM197.487 124.711C197.141 119.964 197.714 116.164 199.287 112.778C202.834 105.124 213.341 99.4845 221.794 100.724C225.754 101.298 229.567 102.778 233.78 105.364C239.687 108.991 242.247 114.751 241.62 122.964C241.1 129.778 238.607 135.871 234.194 141.098C230.7 145.231 226.114 145.284 222.034 144.764H221.861C216.767 145.178 212.661 145.044 209.167 143.058C201.994 139.004 198.061 132.818 197.487 124.698V124.711Z" fill="#55ADE1"/>
</svg>
