<svg width="324" height="365" viewBox="0 0 324 365" fill="none" xmlns="http://www.w3.org/2000/svg">
<path d="M188.197 328.403C170.744 329.723 152.651 328.163 134.624 329.083C123.571 329.643 112.531 329.203 101.504 329.79C95.7976 330.096 90.1177 329.51 84.4377 329.083C81.6377 328.87 80.9177 329.603 80.7844 332.616C80.2111 344.816 76.1711 355.31 64.7178 361.59C59.5445 364.43 54.0112 365.243 48.1979 364.79C34.9847 363.776 26.4647 357.563 23.2914 346.47C21.8514 341.443 22.0248 336.27 22.3314 331.123C22.4514 329.07 22.2914 328.096 19.7981 327.79C15.1715 327.216 10.4382 326.643 6.81153 323.016C4.73154 320.923 3.25155 318.71 2.87822 315.683C0.21157 293.883 -0.721757 272.03 0.584901 250.11C1.47823 235.11 1.3849 220.124 0.611567 205.124C0.0249044 193.697 1.2649 182.404 3.30488 171.151C5.45154 159.311 6.86486 147.338 9.05151 135.498C13.8248 109.684 17.1315 83.6313 21.4514 57.7382C23.0381 48.2182 27.0381 40.1516 33.1047 32.4983C40.0913 23.6851 49.0113 18.2584 58.9312 14.0051C62.4112 12.5118 66.2645 11.8851 69.9445 10.8585C84.331 6.88517 99.2376 5.84517 113.824 3.03186C125.997 0.685207 138.251 1.23187 150.451 0.378542C166.317 -0.741451 182.144 1.03187 198.01 0.511875C206.597 0.231876 214.864 2.96519 223.33 4.04518C240.717 6.24517 256.743 12.8985 272.036 21.0051C283.49 27.0584 290.623 37.2316 295.263 49.3382C299.596 60.6715 300.17 72.6181 301.636 84.4047C303.903 102.765 303.69 121.431 307.21 139.591C310.063 154.311 312.196 169.137 315.09 183.844C317.156 194.391 317.689 205.137 318.636 215.804C319.983 231.07 322.329 246.244 322.996 261.564C323.369 270.217 322.769 278.843 321.903 287.43C321.276 293.537 321.996 299.697 320.916 305.79C319.903 311.443 318.063 316.843 315.583 321.936C313.796 325.576 310.703 327.816 306.05 327.443C303.383 327.23 300.623 328.016 297.916 328.35C296.036 328.576 296.556 330.096 296.516 331.15C296.303 336.883 295.503 342.336 292.583 347.536C284.77 361.47 269.383 366.496 254.463 360.843C243.157 356.55 239.703 347.736 237.943 337.283C237.543 334.91 237.33 332.496 237.25 330.096C237.183 327.91 236.117 327.15 234.13 327.39C223.65 328.67 213.104 327.376 202.61 328.283C198.024 328.683 193.41 328.603 188.224 328.376L188.197 328.403ZM3.82488 269.217C3.67821 276.35 4.22488 283.457 4.45154 290.563C4.69154 297.817 5.89153 304.95 6.46486 312.15C7.07819 319.856 14.5581 326.163 21.9448 324.11C25.8514 323.016 29.2514 323.95 32.8647 324.256C35.5847 324.483 38.278 325.163 40.998 325.216C49.2113 325.35 57.4379 325.056 65.6511 325.363C72.8911 325.63 80.0644 324.656 87.3177 325.016C98.7976 325.576 110.344 326.176 121.784 325.523C134.491 324.79 147.197 324.35 159.864 324.83C172.597 325.31 185.237 324.03 197.944 324.19C211.624 324.363 225.317 323.376 238.997 323.616C256.29 323.936 273.583 324.736 290.89 324.39C295.25 324.296 299.703 324.39 303.956 323.23C306.783 322.456 310.303 322.283 311.676 319.176C313.703 314.59 315.463 309.883 316.316 304.857C317.25 299.297 316.583 293.697 317.236 288.137C318.689 275.817 318.809 263.457 317.569 251.11C316.409 239.67 315.276 228.244 314.036 216.817C312.89 206.271 312.25 195.671 310.61 185.164C306.836 160.978 300.783 137.138 299.37 112.578C298.623 99.5779 297.33 86.6046 295.583 73.6981C294.57 66.2448 293.703 58.7648 290.943 51.6049C286.703 40.6316 280.623 30.965 270.13 25.4184C255.223 17.5518 239.77 11.0051 222.717 8.85849C210.69 7.35183 198.85 5.27184 186.557 5.36518C175.544 5.45851 164.491 4.96518 153.437 5.07184C138.997 5.21851 124.677 5.52518 110.344 8.24516C97.0376 10.7651 83.5177 12.1651 70.3845 15.6584C66.5978 16.6718 62.7712 17.5251 59.1179 19.0718C49.2913 23.2184 41.2513 29.445 34.838 38.005C31.5047 42.4583 28.7181 47.0849 27.4914 52.5115C23.4114 70.5648 21.5181 88.9913 18.5181 107.231C15.2781 126.871 11.8648 146.484 8.43818 166.084C6.3582 177.977 4.25154 189.804 4.58487 201.924C4.75821 208.497 4.99821 215.057 5.22487 221.63C5.78487 237.537 3.86488 253.364 3.86488 269.243L3.82488 269.217ZM49.3846 359.576C68.7578 359.456 75.7844 344.043 75.6377 331.03C75.6244 329.59 74.7578 329.59 73.6644 329.55C59.2379 329.016 44.7579 330.483 30.3847 328.123C28.9714 327.883 28.2114 328.376 28.0381 330.003C27.5581 334.603 27.2514 339.243 28.3047 343.75C29.358 348.27 31.0114 352.843 35.3713 355.136C40.3046 357.736 45.6246 359.55 49.3579 359.576H49.3846ZM251.437 328.083C251.103 328.083 250.77 328.03 250.45 328.083C247.903 328.576 244.303 326.883 243.037 328.776C241.877 330.496 242.917 333.843 243.303 336.43C244.637 345.47 247.303 353.483 257.53 356.376C266.05 358.776 274.17 359.35 281.41 353.163C288.156 347.39 292.09 340.27 291.796 331.11C291.743 329.35 291.53 328.563 289.53 328.576C276.823 328.696 264.117 329.15 251.437 328.083Z" fill="black"/>
<path d="M294.663 152.604C291.93 134.204 289.757 114.458 288.037 92.2314C287.783 89.0581 287.437 85.3648 286.423 81.9115C283.73 72.7915 278.997 67.8582 271.117 65.9116C263.623 64.0582 255.343 63.4049 245.063 63.8449C229.237 64.5249 213.104 64.3116 197.504 64.0849H197.09C187.437 63.9382 176.491 63.7916 165.891 63.8982C156.291 63.9916 145.997 63.8049 137.704 63.6449C124.878 63.4049 111.611 63.1516 98.5444 63.6449C92.9711 63.8582 87.2778 63.4583 81.7712 63.0716C74.5846 62.5516 67.1846 62.0316 59.8914 62.8849C45.0515 64.6182 40.2115 68.4316 36.3048 81.4048C35.9315 82.6181 35.6915 83.8581 35.4915 84.8981C33.6782 94.6714 32.2915 104.658 31.2649 115.431C30.6515 121.805 29.3182 128.151 28.0249 134.298L27.9849 134.471C27.4916 136.831 26.9849 139.191 26.5316 141.564C26.0382 144.111 25.7582 146.711 25.4916 149.231C25.2516 151.524 24.9983 153.884 24.5849 156.164C23.0649 164.671 26.6249 171.498 34.3582 174.884C37.5982 176.298 41.0115 177.018 44.8115 177.058C51.0914 177.151 57.478 176.844 63.638 176.551H63.9713C72.8513 176.124 82.0379 175.698 91.1045 176.338C100.024 176.964 109.131 176.591 117.931 176.244L118.611 176.218C120.264 176.151 121.918 176.084 123.571 176.031C144.064 175.298 164.811 175.431 185.264 176.404C185.851 176.378 186.424 176.364 186.984 176.364C189.237 176.364 191.384 176.551 193.464 176.738C194.73 176.844 195.944 176.951 197.144 177.018C208.45 177.658 220.504 177.951 235.077 177.951C244.57 177.951 254.33 177.818 263.45 177.684C270.29 177.578 276.45 176.391 282.29 174.044C292.583 169.911 296.29 163.484 294.663 152.591V152.604ZM279.77 169.711C278.877 170.044 277.93 170.324 276.983 170.618C276.543 170.751 275.73 171.004 274.943 171.244C272.557 171.991 272.45 172.018 272.103 171.924C270.837 172.164 268.477 172.431 267.45 172.484C266.957 172.644 266.303 172.738 265.41 172.778C258.543 172.778 251.557 172.804 244.823 172.831C239.424 172.858 234.037 172.898 228.584 172.898C217.424 172.898 206.13 172.338 195.197 171.791C192.784 171.671 190.371 171.551 187.944 171.444V171.404C185.997 171.564 181.371 171.164 179.677 171.004C179.291 171.071 178.851 171.058 178.277 171.044C166.277 170.711 154.384 170.698 143.331 170.724C142.651 170.724 123.318 170.938 117.638 171.138H117.464C106.584 171.511 95.3978 171.871 84.3712 171.058C77.3579 170.538 70.2513 170.978 63.3713 171.404C60.7447 171.564 58.118 171.724 55.5047 171.844C54.5581 171.884 52.5981 172.004 52.5981 172.004C52.3847 172.004 51.1847 172.044 49.8381 172.071C48.6514 172.098 47.0248 172.124 46.1448 172.151L46.1048 172.218L45.3581 172.191C42.0781 172.058 39.3982 171.524 36.9315 170.511C30.7715 167.964 28.5449 163.804 29.7182 157.004C30.0916 154.778 30.3316 152.511 30.5715 150.311C30.8649 147.458 31.1715 144.551 31.7849 141.711C32.6915 137.431 33.4515 133.084 34.1982 128.884L34.2249 128.751C34.8649 125.125 35.5049 121.458 36.2248 117.871C36.7182 115.431 36.6115 112.925 36.5048 110.511C36.3848 107.711 36.2648 104.818 37.0515 101.965C37.8248 99.1647 38.2248 96.2047 38.6115 93.3381C38.9448 90.9381 39.2782 88.4981 39.8115 86.1381C43.0381 72.0182 46.3981 69.0449 60.958 67.4182C62.8647 67.2049 64.9047 67.0982 67.198 67.0982C70.358 67.0982 73.5579 67.2982 76.6513 67.4982C79.5979 67.6849 82.6245 67.8849 85.5845 67.8982C91.9445 67.9249 98.4778 67.8982 105.171 67.8449H105.758C116.251 67.7782 127.091 67.7116 137.838 67.9516C155.371 68.3516 173.037 68.4049 190.131 68.4716H190.304C203.877 68.5249 217.904 68.5649 231.824 68.7782C235.357 68.8315 238.944 68.7782 242.424 68.7382H242.743C249.263 68.6449 256.023 68.5382 262.73 69.1249C266.13 69.4182 269.677 70.2982 273.57 71.8049C279.063 73.9382 280.597 79.1115 282.077 84.1114C283.223 87.9648 283.383 91.9781 283.53 95.8714C283.61 98.0314 283.703 100.245 283.957 102.418C284.637 108.218 285.25 114.138 285.837 119.845L285.863 120.138C286.97 130.924 288.117 142.071 289.797 152.964C291.223 162.204 288.69 166.431 279.77 169.724V169.711Z" fill="black"/>
<path d="M295.823 245.257C292.796 238.017 287.85 232.924 281.53 230.524C276.783 228.711 271.583 228.591 266.543 228.484H265.917C258.97 228.297 251.303 231.657 245.477 237.417C239.583 243.257 236.41 250.697 236.503 258.377C236.61 266.497 239.65 274.19 245.797 281.884C250.317 287.537 256.65 290.71 264.143 291.07C264.597 291.097 265.063 291.097 265.517 291.097C274.05 291.097 283.076 287.39 289.37 281.23C295.543 275.177 298.676 267.337 298.45 258.524C298.623 254.23 297.756 249.897 295.81 245.257H295.823ZM293.756 258.284C293.943 265.897 291.303 272.657 286.143 277.804C280.757 283.177 272.823 286.457 265.303 286.457C265.077 286.457 264.85 286.457 264.623 286.457C249.597 286.057 241.29 269.844 241.063 258.297C240.93 251.724 243.49 245.484 248.237 240.724C253.383 235.564 260.503 232.631 267.81 232.631C267.97 232.631 268.13 232.631 268.303 232.631C280.29 232.844 293.276 239.697 293.756 258.27V258.284Z" fill="black"/>
<path d="M49.731 229.337C42.6777 229.017 35.7178 231.804 30.1178 237.164C23.8112 243.191 20.1845 251.604 20.1579 260.27C20.1312 269.39 23.3845 277.217 29.5578 282.897C35.1044 288.004 42.6244 290.977 50.7177 291.257H50.7443H50.771C65.7576 291.11 81.8241 277.777 81.8375 258.177C81.8508 241.511 69.2509 230.191 49.7177 229.337H49.731ZM77.2108 258.15C77.1442 276.097 63.8109 286.217 51.3043 286.644C44.3177 286.857 37.5044 284.337 32.5711 279.684C27.6378 275.03 24.9445 268.71 24.7712 261.39C24.5845 253.604 27.3978 246.377 32.6911 241.031C37.1711 236.511 43.0111 233.924 48.7444 233.924C48.8244 233.924 48.9177 233.924 48.9977 233.924C75.2775 235.297 77.2508 252.804 77.2242 258.137L77.2108 258.15Z" fill="black"/>
<path d="M84.6111 147.925C90.3577 147.351 96.1043 147.231 102.984 147.231H106.451C108.984 147.231 111.531 147.245 114.064 147.231C118.851 147.205 123.638 147.711 127.877 148.165C129.557 148.338 131.237 148.511 132.917 148.671C135.091 148.871 136.931 150.031 138.237 152.031C141.944 157.671 144.171 164.044 144.891 171.031H149.451C149.064 163.844 146.637 156.845 141.997 149.631C140.011 146.551 136.997 144.711 133.277 144.285C114.438 142.178 97.091 142.151 80.2511 144.191C64.6112 146.085 54.5713 157.458 54.5713 173.218C56.0113 173.404 57.4379 173.711 58.8379 174.084C58.8379 174.031 58.8379 173.964 58.8379 173.898V173.511C58.9179 166.338 60.7446 161.004 64.5979 156.711C69.2112 151.565 75.3978 148.858 84.6111 147.925Z" fill="black"/>
<path d="M195.303 146.937C180.184 150.537 175.557 158.457 173.837 170.764H178.184C179.077 165.257 180.877 160.924 183.784 157.377C185.81 154.897 188.797 153.684 192.197 152.457C198.117 150.324 204.583 149.231 211.41 149.217H215.663H223.183C225.49 149.297 227.823 149.284 230.117 149.257C236.196 149.204 242.503 149.137 248.516 151.217C255.05 153.484 258.863 158.23 260.156 165.764C260.463 167.537 260.53 169.417 260.61 171.257C260.65 172.35 260.716 173.484 260.81 174.604C262.29 174.097 263.77 173.644 265.263 173.257C265.263 173.23 265.263 173.204 265.263 173.177C265.196 170.737 265.13 168.204 264.703 165.737C262.65 153.684 256.37 147.644 243.703 145.551C241.77 145.231 239.85 145.057 237.823 144.871L237.143 144.804C241.743 139.551 244.596 133.404 245.65 126.524C248.05 110.751 241.236 101.058 224.837 96.8975C215.45 94.5109 207.557 98.5108 201.077 102.724C197.997 104.724 196.717 107.737 195.477 110.644C190.023 123.417 193.263 136.337 204.143 145.204L202.85 145.431C200.25 145.897 197.783 146.324 195.343 146.911L195.303 146.937ZM197.463 124.697C197.117 119.951 197.69 116.151 199.263 112.764C202.81 105.111 213.317 99.4708 221.77 100.711C225.73 101.284 229.543 102.764 233.757 105.351C239.663 108.977 242.223 114.737 241.596 122.951C241.076 129.764 238.583 135.857 234.17 141.084C230.677 145.217 226.09 145.271 222.01 144.751H221.837C216.743 145.164 212.637 145.031 209.143 143.044C201.97 138.991 198.037 132.804 197.463 124.684V124.697Z" fill="black"/>
</svg>
