<svg width="346" height="342" viewBox="0 0 346 342" fill="none" xmlns="http://www.w3.org/2000/svg">
<path d="M83.0828 62.7711C78.7495 62.9711 75.1627 64.7577 72.2694 67.9444C70.8294 69.5444 69.8028 71.3977 69.3762 73.5044C68.9895 75.451 69.5094 77.411 69.9494 79.2377C70.7494 82.5576 72.2695 85.611 74.4961 88.2776C75.8828 89.9443 77.5761 90.7176 79.7095 91.0243C85.4161 91.8243 90.3893 90.5176 94.096 85.9843C97.1893 82.211 98.0294 77.651 97.376 72.9044C97.1494 71.2377 95.9894 69.8244 94.8961 68.5977C91.8161 65.1311 88.1493 62.6778 83.256 62.7578" stroke="black" stroke-width="3.33332" stroke-linecap="round" stroke-linejoin="round"/>
<path d="M167.989 233.53C166.402 235.624 164.269 236.65 161.682 237.144C158.482 237.77 155.416 238.904 152.136 239.264C148.723 239.637 145.283 239.77 141.869 240.024C140.616 240.117 140.216 240.41 140.216 241.677C140.216 243.717 140.109 245.77 139.816 247.784C139.669 248.864 140.269 249.81 140.029 250.85" stroke="black" stroke-width="3.33332" stroke-linecap="round" stroke-linejoin="round"/>
<path d="M261.375 64.7981C259.109 65.2781 256.815 65.6247 254.695 66.7314C250.855 68.7314 248.895 71.9447 248.189 76.078C247.375 80.7713 248.122 85.0513 251.175 88.878C254.842 93.4779 262.375 95.0779 267.735 92.7179C272.029 90.8246 274.548 87.3313 275.588 83.0113C276.268 80.158 276.389 77.1847 274.949 74.158C273.335 70.7714 271.455 67.9447 268.042 66.2514C265.989 65.2381 263.855 64.7181 261.562 64.7981" stroke="black" stroke-width="3.33332" stroke-linecap="round" stroke-linejoin="round"/>
<path d="M297.802 295.797C297.975 295.503 298.055 295.05 297.802 294.917C294.562 293.237 293.069 290.01 291.029 287.29C288.375 283.757 285.082 281.023 281.322 278.823C279.575 277.81 277.548 277.663 275.588 277.33C271.935 276.69 268.282 276.637 264.615 277.13C264.122 277.197 263.655 277.477 263.175 277.65" stroke="black" stroke-width="3.33332" stroke-linecap="round" stroke-linejoin="round"/>
<path d="M146.176 201.944C144.269 201.557 142.336 201.85 140.416 201.744" stroke="black" stroke-width="3.33332" stroke-linecap="round" stroke-linejoin="round"/>
<path d="M281.468 162.771C281.882 163.757 281.788 164.797 281.815 165.837C281.922 169.797 283.455 173.424 284.455 177.184C284.615 177.797 284.962 178.304 285.322 178.824C286.228 180.104 285.802 181.077 284.255 181.504C280.162 182.624 276.028 182.89 271.842 182.157C271.348 182.077 270.882 181.81 270.402 181.624" stroke="black" stroke-width="3.33332" stroke-linecap="round" stroke-linejoin="round"/>
<path d="M275.535 163.104C275.455 165.144 274.975 167.157 275.149 169.224" stroke="black" stroke-width="3.33332" stroke-linecap="round" stroke-linejoin="round"/>
<path d="M143.429 339.037C144.669 338.663 145.949 338.903 147.202 338.876C151.042 338.796 154.909 338.583 158.722 338.677C165.856 338.837 173.002 338.557 180.136 338.943C185.269 339.223 190.442 339.223 195.602 338.943C197.749 338.823 199.922 339.09 202.082 339.117C207.056 339.17 212.055 338.903 217.015 339.263C223.309 339.717 229.615 339.543 235.909 339.77C244.602 340.077 253.309 340.263 261.988 340.023C266.962 339.89 271.962 339.423 276.935 338.81C279.868 338.45 282.828 338.37 285.762 337.743C290.428 336.77 294.842 335.25 299.095 333.09C303.722 330.743 307.815 327.69 311.722 324.317C313.068 323.157 314.028 321.73 314.775 320.17C319.241 310.877 323.268 301.37 326.015 291.423C328.695 281.69 331.108 271.877 333.055 261.97C333.722 258.584 334.788 255.29 335.388 251.89C336.522 245.41 338.228 239.05 338.975 232.49C339.495 227.85 340.468 223.264 341.135 218.637C341.508 216.077 341.441 213.437 341.961 210.917C342.815 206.69 342.828 202.384 343.348 198.131C343.588 196.184 343.455 194.171 343.788 192.197C344.521 187.904 344.215 183.557 344.308 179.237C344.428 173.731 343.962 168.197 343.735 162.677C343.682 161.237 343.521 159.797 343.588 158.357C343.815 153.491 343.441 148.624 343.148 143.784C342.921 140.077 342.868 136.291 341.948 132.597C341.561 131.051 341.815 129.371 341.615 127.744C341.161 124.051 340.508 120.411 339.801 116.771C339.068 112.958 338.561 109.131 338.135 105.264C337.481 99.2777 335.882 93.4377 334.415 87.5844C333.175 82.6777 331.601 77.8644 330.148 73.0511C328.601 67.9578 326.695 62.9178 324.455 58.0245C322.588 53.9445 320.522 49.9712 318.482 45.9845C316.415 41.9446 313.308 38.5713 310.802 34.798C307.508 29.8246 303.122 25.9447 297.922 23.038C293.682 20.6647 289.028 19.2514 284.442 17.798C277.495 15.6114 270.469 13.6247 263.415 11.7581C258.682 10.5047 253.869 9.49142 249.042 8.63809C244.949 7.91809 240.775 7.66474 236.642 7.07808C231.509 6.35808 226.349 5.93141 221.175 5.53141C213.429 4.91808 205.749 3.71811 197.975 3.26478C192.455 2.94478 186.935 2.87811 181.429 2.50477C177.349 2.22478 173.269 2.0381 169.189 2.1581C160.842 2.3981 152.509 2.85143 144.176 3.0781C139.909 3.1981 135.643 3.37141 131.403 3.81141C127.909 4.17141 124.442 4.85144 120.949 5.34477C118.616 5.6781 116.269 5.94477 113.936 6.22477C111.002 6.58477 108.029 6.75807 105.123 7.31807C102.309 7.8514 99.4693 7.97141 96.6426 8.25141C90.3493 8.89141 84.0959 9.71808 77.9226 11.0914C69.9627 12.8647 62.0028 14.6914 54.3362 17.5047C50.0162 19.0914 46.1229 21.4647 42.3763 24.2113C34.4163 30.038 28.3629 37.3579 24.9496 46.5312C21.6563 55.3712 18.7231 64.3578 16.0564 73.4377C14.0697 80.211 12.2698 86.9977 10.8964 93.931C10.2031 97.411 9.2564 100.878 8.8564 104.384C8.01641 111.811 6.30981 119.078 5.41648 126.491C4.49648 134.144 4.13635 141.837 3.44302 149.504C2.60302 158.744 2.65645 167.984 2.37645 177.224C2.26979 180.691 2.69635 184.184 2.60302 187.664C2.54968 189.824 2.56312 191.997 2.37645 194.131C2.05646 197.931 2.49638 201.704 2.62971 205.464C2.77637 209.49 2.98967 213.53 3.58966 217.53C4.16299 221.29 4.45646 225.104 4.89646 228.877C5.22979 231.757 5.58978 234.637 6.05645 237.504C6.97644 243.224 8.02973 248.904 9.0164 254.61C9.68306 258.45 10.2297 262.303 10.963 266.13C11.803 270.503 12.5897 274.903 13.4563 279.263C14.3496 283.77 15.3497 288.29 16.9763 292.583C18.3496 296.21 19.7764 299.823 21.0831 303.463C22.2697 306.77 23.3096 310.13 24.7896 313.317C26.8029 317.663 29.5096 321.543 32.9896 324.89C38.3496 330.023 45.1362 332.21 52.0295 334.117C57.2028 335.557 62.5228 336.357 67.8428 337.117C70.7761 337.53 73.7227 337.623 76.656 337.903C82.2827 338.436 87.9227 338.73 93.576 338.65C94.3494 338.65 95.136 338.65 95.9094 338.65C99.7094 338.65 103.469 339.276 107.243 339.316C110.469 339.356 113.749 339.97 116.962 339.103C117.069 339.077 117.203 339.103 117.323 339.103C125.842 339.183 134.349 338.557 142.869 338.863C142.989 338.863 143.109 338.983 143.229 339.037" stroke="black" stroke-width="3.33332" stroke-linecap="round" stroke-linejoin="round"/>
<path d="M144.576 240.077C144.496 243.797 144.429 247.517 144.349 251.237" stroke="black" stroke-width="3.33332" stroke-linecap="round" stroke-linejoin="round"/>
<path d="M209.362 193.037C209.282 195.597 209.869 198.09 210.229 200.597C210.562 202.957 210.042 203.504 207.522 203.45C206.029 203.424 204.509 203.61 202.642 203.13C202.855 199.944 202.442 196.664 202.349 193.357" stroke="black" stroke-width="3.33332" stroke-linecap="round" stroke-linejoin="round"/>
<path d="M146.576 192.051C146.723 194.504 146.216 196.984 146.896 199.437C147.162 200.384 146.416 201.197 146.349 202.131C146.069 206.091 145.856 210.064 145.376 213.997C144.749 219.171 145.509 224.317 145.389 229.477C145.322 232.557 144.722 235.571 144.696 238.651C144.696 239.011 144.896 239.371 144.762 239.731" stroke="black" stroke-width="3.33332" stroke-linecap="round" stroke-linejoin="round"/>
<path d="M164.469 255.997C159.389 257.757 154.136 258.543 148.802 258.983C144.309 259.343 139.802 259.69 135.309 259.997C130.869 260.303 126.429 260.13 121.989 260.117C117.882 260.117 113.896 259.237 109.949 258.237C108.096 257.77 106.642 256.45 105.096 255.37" stroke="black" stroke-width="3.33332" stroke-linecap="round" stroke-linejoin="round"/>
<path d="M204.309 240.517C205.322 240.583 206.349 240.65 207.362 240.703" stroke="black" stroke-width="3.33332" stroke-linecap="round" stroke-linejoin="round"/>
<path d="M203.202 203.45C202.522 206.037 203.149 208.65 203.442 211.17C204.029 216.223 203.856 221.25 203.909 226.29C203.949 230.543 203.549 234.823 204.282 239.077C204.362 239.583 204.069 240.157 203.949 240.69" stroke="black" stroke-width="3.33332" stroke-linecap="round" stroke-linejoin="round"/>
<path d="M144.709 248.903C150.589 249.317 156.362 250.33 161.976 252.21C163.055 252.57 163.936 253.183 164.669 254.037" stroke="black" stroke-width="3.33332" stroke-linecap="round" stroke-linejoin="round"/>
<path d="M165.563 252.584C164.456 256.717 163.789 260.944 163.176 265.171C163.109 265.624 163.029 265.877 162.469 266.104C158.976 267.477 155.429 268.451 151.643 268.357C148.736 268.291 145.869 268.717 143.003 269.077C140.363 269.411 137.736 269.757 135.083 269.731C129.323 269.664 123.536 269.957 117.816 268.931C114.816 268.384 111.896 267.531 109.016 266.544C108.536 266.384 108.096 266.157 107.576 266.197" stroke="black" stroke-width="3.33332" stroke-linecap="round" stroke-linejoin="round"/>
<path d="M83.4292 274.904C82.1492 274.024 80.7759 274.717 79.4693 274.757C77.4159 274.81 75.4026 274.984 73.336 274.57C72.1493 274.33 70.8161 274.677 69.5761 274.864C66.5094 275.304 63.4294 275.691 60.4028 276.277C55.8561 277.144 52.7095 280.01 49.8828 283.557C46.5628 287.73 44.7361 292.69 42.1228 297.224C41.2694 298.704 40.2961 300.104 40.3228 301.904" stroke="black" stroke-width="3.33332" stroke-linecap="round" stroke-linejoin="round"/>
<path d="M209.135 203.837C208.562 207.837 209.082 211.904 208.669 215.89C207.829 224.037 207.869 232.197 207.722 240.357" stroke="black" stroke-width="3.33332" stroke-linecap="round" stroke-linejoin="round"/>
<path d="M139.496 248.517C136.376 248.517 133.269 248.117 130.136 248.464C126.056 248.917 121.962 249.104 117.882 249.77C114.149 250.384 110.496 251.144 106.896 252.29C105.976 252.584 105.362 253.197 104.562 253.597" stroke="black" stroke-width="3.33332" stroke-linecap="round" stroke-linejoin="round"/>
<path d="M241.122 257.05C237.108 260.25 232.228 260.81 227.428 261.463C220.389 262.423 213.295 262.663 206.202 262.45C200.095 262.263 194.029 261.57 188.029 260.263C185.922 259.797 184.202 258.677 182.469 257.517" stroke="black" stroke-width="3.33332" stroke-linecap="round" stroke-linejoin="round"/>
<path d="M182.016 276.05C176.136 275.97 170.256 275.877 164.389 275.797" stroke="black" stroke-width="3.33332" stroke-linecap="round" stroke-linejoin="round"/>
<path d="M203.002 249.517C199.042 250.103 195.069 250.637 191.122 251.277C188.749 251.663 186.522 252.423 184.429 253.703C183.416 254.33 182.882 255.183 182.282 256.077" stroke="black" stroke-width="3.33332" stroke-linecap="round" stroke-linejoin="round"/>
<path d="M139.963 224.584C136.843 224.117 133.723 224.437 130.603 224.73C125.056 225.237 119.536 225.957 114.043 226.837C110.336 227.424 106.776 228.61 103.229 229.824C102.003 230.25 101.389 231.104 101.029 232.33C100.789 233.157 101.029 233.61 101.576 234.157C104.216 236.797 107.736 237.45 111.109 238.29C119.616 240.397 128.309 240.397 137.003 240.437C138.083 240.437 139.163 239.917 140.243 240.437" stroke="black" stroke-width="3.33332" stroke-linecap="round" stroke-linejoin="round"/>
<path d="M238.909 267.117C234.642 268.89 230.082 269.41 225.576 270.063C221.896 270.596 218.149 270.783 214.429 270.943C208.429 271.21 202.402 271.05 196.442 270.29C192.256 269.756 188.042 269.076 184.216 267.05" stroke="black" stroke-width="3.33332" stroke-linecap="round" stroke-linejoin="round"/>
<path d="M240.949 255.797C240.242 254.37 239.042 253.703 237.549 253.237C233.669 252.01 229.669 251.397 225.682 250.663C221.616 249.917 217.536 249.957 213.442 249.903C212.122 249.89 210.802 249.69 209.482 249.53C208.776 249.45 208.149 249.677 207.496 249.89" stroke="black" stroke-width="3.33332" stroke-linecap="round" stroke-linejoin="round"/>
<path d="M140.282 191.851C140.149 195.504 139.923 199.171 139.909 202.824C139.909 204.984 140.216 207.144 140.389 209.304C140.722 213.45 141.069 217.584 141.416 221.717C141.856 227.184 141.229 232.637 140.989 238.09C140.962 238.69 140.869 239.317 141.149 239.89" stroke="black" stroke-width="3.33332" stroke-linecap="round" stroke-linejoin="round"/>
<path d="M222.455 162.517C222.909 165.29 222.322 168.037 222.242 170.797C222.122 175.077 222.562 179.317 222.909 183.57C223.215 187.37 221.362 190.317 217.829 191.65C215.029 192.704 212.122 192.997 209.189 192.837C206.469 192.704 203.789 193.197 201.095 193.184C192.282 193.13 183.482 193.997 174.642 193.317C169.562 192.917 164.442 192.93 159.362 192.464C155.882 192.157 152.402 192.117 148.922 191.744C146.189 191.45 143.416 191.517 140.656 191.49C137.696 191.464 134.869 190.957 132.203 189.637C128.976 188.05 127.976 185.13 127.762 181.877C127.322 175.09 127.243 168.304 128.163 161.544C128.309 160.477 128.189 159.384 128.203 158.304" stroke="black" stroke-width="3.33332" stroke-linecap="round" stroke-linejoin="round"/>
<path d="M244.989 234.943C243.482 236.89 241.322 237.357 239.055 237.85C234.935 238.743 230.749 239.17 226.615 239.85C224.202 240.25 221.709 240.143 219.242 240.223C215.349 240.343 211.442 240.437 207.549 240.543" stroke="black" stroke-width="3.33332" stroke-linecap="round" stroke-linejoin="round"/>
<path d="M142.749 37.1981C140.043 37.7848 137.349 37.0515 134.656 36.9715C130.936 36.8648 127.216 36.6648 123.483 37.7848C120.509 38.6648 118.683 41.0381 118.136 46.5447C117.536 52.598 117.549 58.758 117.256 64.8646C116.883 72.9313 116.403 80.9979 116.096 89.0645C115.696 99.4111 115.003 109.758 115.243 120.144C115.309 122.811 115.963 125.344 116.669 127.771C117.176 129.544 118.309 130.264 119.683 130.358C127.243 130.878 134.803 131.291 142.349 131.998C153.069 133.011 163.816 133.291 174.549 133.051C180.669 132.918 186.789 133.118 192.909 132.798C197.202 132.571 201.536 133.211 205.856 133.291C210.682 133.384 215.469 132.904 220.255 132.038C221.269 131.851 222.309 131.784 223.309 131.518C226.122 130.784 227.055 129.438 227.655 125.438C228.229 121.664 228.509 117.811 228.562 113.971C228.709 104.104 228.695 94.2645 229.362 84.4112C229.682 79.7179 229.082 74.9179 228.975 70.1579C228.855 64.238 228.149 58.4247 227.629 52.5714C227.482 50.9447 227.109 49.4514 226.682 48.0114C226.082 45.9181 225.082 44.1181 224.495 41.9181C223.789 39.2781 221.629 39.1448 219.922 38.8514C215.629 38.1315 211.295 37.9981 206.975 37.6648C199.829 37.1314 192.696 37.7981 185.562 37.6514C178.122 37.4914 170.696 37.5581 163.256 37.5314C157.082 37.5048 150.896 37.4781 144.722 37.4514C144.123 37.4514 143.496 37.6114 142.922 37.1981" stroke="black" stroke-width="3.33332" stroke-linecap="round" stroke-linejoin="round"/>
<path d="M203.762 240.877C203.936 244.717 204.229 248.557 203.549 252.397C203.429 253.037 203.522 253.717 203.522 254.37" stroke="black" stroke-width="3.33332" stroke-linecap="round" stroke-linejoin="round"/>
<path d="M145.283 160.197C145.256 164.931 145.269 169.677 145.216 174.411C145.189 176.811 144.989 179.197 145.149 181.61C145.603 188.29 147.736 187.89 152.363 188.277C156.856 188.65 161.376 188.744 165.843 189.304C170.389 189.864 174.963 189.997 179.523 190.184C185.829 190.45 192.136 190.077 198.416 189.41C202.336 188.997 206.469 185.637 206.256 180.61C206.082 176.691 205.389 172.824 205.376 168.917C205.376 166.464 205.616 163.997 205.736 161.544" stroke="black" stroke-width="3.33332" stroke-linecap="round" stroke-linejoin="round"/>
<path d="M162.629 266.25C162.936 267.357 162.389 268.33 162.056 269.304C160.416 274.104 157.776 278.424 154.949 282.557C151.909 287.01 147.189 288.984 142.016 289.704C137.136 290.384 132.229 290.85 127.256 290.424C123.336 290.077 120.042 288.237 117.256 285.797C112.696 281.81 109.963 276.624 108.389 270.717C107.189 266.157 105.896 261.624 104.963 256.997C104.683 255.584 104.416 254.13 104.203 252.69" stroke="black" stroke-width="3.33332" stroke-linecap="round" stroke-linejoin="round"/>
<path d="M242.402 250.584C242.616 251.531 242.215 252.397 242.015 253.277C241.056 257.317 240.922 261.477 239.882 265.517C238.176 272.184 235.669 278.45 231.589 283.957C228.255 288.477 223.629 291.117 217.936 291.877C210.936 292.824 204.149 292.344 197.616 289.584C191.762 287.117 188.482 282.317 186.336 276.597C185.202 273.571 184.696 270.384 183.949 267.251C183.362 264.784 182.736 262.317 182.349 259.837C182.042 257.837 181.842 255.837 181.216 253.904" stroke="black" stroke-width="3.33332" stroke-linecap="round" stroke-linejoin="round"/>
<path d="M300.735 159.61C301.069 161.157 300.869 162.77 300.802 164.29C300.655 167.65 300.549 171.024 300.429 174.37C300.229 179.397 299.882 184.424 300.215 189.477C300.602 195.29 301.282 201.104 301.042 206.93C300.829 212.09 300.362 217.25 299.922 222.397C299.402 228.45 298.842 234.517 298.229 240.557C297.442 248.33 297.122 256.13 297.015 263.943C296.895 272.29 296.615 280.623 297.429 288.956C297.602 290.77 298.015 292.676 297.469 294.53" stroke="black" stroke-width="3.33332" stroke-linecap="round" stroke-linejoin="round"/>
<path d="M285.161 181.491C285.641 183.651 285.735 185.811 285.148 187.971C285.068 188.251 285.135 188.571 285.135 188.864C285.215 195.837 284.548 202.784 284.415 209.731C284.348 213.557 284.121 217.397 284.255 221.251C284.321 223.104 283.708 224.944 284.055 226.824C284.175 227.477 284.002 227.957 283.188 228.29C279.522 229.77 275.828 230.37 272.028 228.904C271.375 228.65 271.188 228.05 271.095 227.304C270.775 224.637 271.295 222.01 271.428 219.384C271.628 215.411 271.028 211.451 271.428 207.504C271.948 202.384 271.215 197.304 271.068 192.211C270.975 189.144 270.615 186.077 270.188 183.037C270.068 182.197 270.068 181.291 270.322 180.717C271.815 177.277 272.068 173.464 273.682 170.077C274.002 169.411 274.362 169.011 274.975 169.224C277.362 170.051 279.668 169.317 282.002 169.051" stroke="black" stroke-width="3.33332" stroke-linecap="round" stroke-linejoin="round"/>
<path d="M101.056 234.13C100.63 236.997 100.776 239.89 100.883 242.77C101.056 247.277 101.63 251.77 101.83 256.277C102.056 261.13 103.123 265.863 103.55 270.677C103.99 275.73 105.35 280.517 106.976 285.25C107.856 287.823 109.336 290.13 110.723 292.463C112.896 296.117 116.283 297.89 120.403 298.05C125.803 298.263 131.176 299.237 136.589 299.023C140.896 298.85 145.229 298.73 149.376 297.317C152.243 296.343 154.509 294.65 156.256 292.143C158.243 289.277 160.403 286.53 161.843 283.33C163.803 278.93 164.443 274.183 165.109 269.49C166.296 261.183 167.389 252.85 168.243 244.49C168.549 241.503 168.683 238.49 169.029 235.504C169.376 232.504 167.336 229.717 164.429 228.45C161.656 227.25 158.669 227.237 155.789 226.65C152.443 225.97 149.083 225.41 145.723 224.797" stroke="black" stroke-width="3.33332" stroke-linecap="round" stroke-linejoin="round"/>
<path d="M203.469 225.757C198.429 225.771 193.549 226.771 188.709 228.037C186.002 228.744 183.336 229.544 180.776 230.677C177.642 232.064 177.256 232.731 177.509 236.077C177.869 240.757 177.963 245.451 178.403 250.104C178.896 255.357 179.602 260.584 180.616 265.771C181.802 271.877 182.549 278.064 183.989 284.13C184.522 286.384 185.056 288.624 185.896 290.81C187.522 295.077 190.589 297.53 194.882 298.77C199.776 300.17 204.749 300.464 209.816 300.504C213.762 300.544 217.642 300.237 221.522 299.597C228.482 298.45 232.976 294.277 235.976 288.144C239.322 281.304 240.709 273.904 242.362 266.571C242.949 263.984 243.669 261.437 244.176 258.837C245.149 253.731 245.869 248.597 245.709 243.371C245.642 241.397 245.789 239.411 245.709 237.437C245.509 232.051 244.535 231.277 240.149 229.584C235.949 227.957 231.469 227.144 226.882 226.837C223.282 226.597 219.669 226.371 216.082 225.864C213.549 225.504 210.936 225.771 208.349 225.757" stroke="black" stroke-width="3.33332" stroke-linecap="round" stroke-linejoin="round"/>
<path d="M103.576 274.81C97.8159 274.45 92.0558 274.57 86.2958 275.077C77.2692 275.89 71.9492 281.45 68.2692 289.064C66.2826 293.143 65.1493 297.584 64.5226 302.01C63.856 306.757 63.2827 311.663 65.0694 316.397C65.6427 317.903 66.1893 319.423 66.856 320.903C68.2426 323.97 71.176 324.57 74.0293 325.05C80.0959 326.077 86.2292 326.477 92.3759 326.37C96.8825 326.29 101.376 326.303 105.869 326.317C111.509 326.33 117.149 326.503 122.776 326.543C131.229 326.61 139.696 326.383 148.136 326.73C156.415 327.063 164.709 326.89 172.975 327.77C176.095 328.103 179.322 327.503 182.509 327.517C185.989 327.517 189.469 327.263 192.949 327.237C198.109 327.197 203.269 327.303 208.415 327.277C211.895 327.25 215.375 326.957 218.855 327.01C223.535 327.09 228.215 327.343 232.882 327.597C237.802 327.863 242.708 327.89 247.642 327.663C250.522 327.53 253.402 327.41 256.282 327.53C262.748 327.797 268.615 326.023 274.122 322.743C276.295 321.45 276.895 319.17 277.895 317.157C278.948 315.023 278.922 312.637 279.215 310.33C280.015 303.93 277.655 298.41 274.615 293.037C272.202 288.784 269.655 284.69 266.282 281.05C264.002 278.584 261.628 277.184 258.308 277.117C252.668 276.997 247.042 276.464 241.388 277.05C240.975 277.09 240.548 276.944 240.135 276.877" stroke="black" stroke-width="3.33332" stroke-linecap="round" stroke-linejoin="round"/>
<path d="M301.642 158.357C299.975 160.437 297.468 160.637 295.149 160.984C290.429 161.704 285.682 162.25 280.935 162.73C278.975 162.93 276.975 162.717 275.002 162.744C269.842 162.837 264.669 162.37 259.522 163.024C259.109 163.077 258.682 163.024 258.269 163.024C248.482 163.384 238.722 162.584 228.949 162.464C222.589 162.384 216.242 161.597 209.882 161.21C207.016 161.037 204.122 161.064 201.242 160.97C192.789 160.69 184.336 160.65 175.882 160.424C170.429 160.277 164.962 160.304 159.509 160.13C149.256 159.824 139.003 159.97 128.749 159.73C116.749 159.464 104.763 159.184 92.7628 158.984C87.0695 158.89 81.3629 159.157 75.6696 158.85C69.5096 158.517 63.3096 158.584 57.1363 158.33C54.443 158.224 51.7364 158.197 49.0431 157.824C46.6831 157.49 45.0031 156.197 43.4831 154.53C43.0564 154.064 42.6431 153.317 41.8831 153.65C41.1231 153.984 41.0297 154.797 40.9497 155.597C40.6164 158.544 40.2698 161.477 39.8431 164.41C39.1898 168.797 39.4031 173.17 39.8164 177.544C40.6164 185.837 41.4432 194.117 42.4032 202.384C43.4832 211.73 43.3364 221.077 42.8564 230.463C42.5231 236.943 41.8964 243.397 41.6431 249.89C41.4031 255.89 41.0831 261.877 40.8698 267.877C40.6698 273.517 40.4831 279.143 40.4564 284.783C40.4297 288.143 40.7232 291.503 40.3898 294.863C40.2965 295.756 40.2165 296.663 40.2031 297.556C40.2031 298.13 39.9232 298.836 40.7232 299.183" stroke="black" stroke-width="3.33332" stroke-linecap="round" stroke-linejoin="round"/>
<path d="M159.562 18.1183C156.749 18.2916 153.922 18.4116 151.109 18.6249C145.242 19.0916 139.336 18.8249 133.469 19.5449C130.696 19.8916 127.842 19.6516 125.016 19.9183C121.123 20.2783 117.216 20.4916 113.323 20.7849C107.536 21.2249 101.829 22.2649 96.0427 22.7316C91.4827 23.1049 86.9494 23.9716 82.5494 25.1982C78.8161 26.2382 74.9494 26.7982 71.3761 28.3449C68.1628 29.7316 64.5895 30.3982 61.6828 32.3049C55.3095 36.4782 51.1362 42.3181 49.3095 49.8248C47.6828 56.5447 46.5495 63.358 45.2962 70.1447C44.1628 76.278 43.2963 82.4646 42.7496 88.6646C42.1763 95.2379 42.3628 101.851 42.7762 108.451C42.9762 111.571 43.1096 114.691 43.243 117.811C43.4163 121.998 43.9762 126.104 44.6028 130.238C45.0828 133.411 45.4962 136.611 46.1228 139.758C46.9628 143.958 48.5362 147.864 52.1495 150.598C53.5495 151.651 55.2028 152.064 56.8295 152.371C60.0161 152.971 63.2028 153.451 66.3628 154.211C69.7895 155.038 73.3094 154.598 76.7894 154.304C81.5893 153.904 86.3894 154.104 91.176 154.238C94.056 154.318 96.9359 154.331 99.8159 154.371C104.429 154.451 109.056 154.398 113.669 154.464C115.416 154.491 117.149 154.798 118.883 154.811C124.816 154.851 130.749 155.104 136.696 154.624C140.016 154.358 143.402 154.851 146.762 154.944C148.376 154.984 150.002 154.878 151.616 154.798C155.336 154.624 159.042 155.104 162.776 154.904C168.576 154.598 174.416 154.398 180.229 154.624C189.949 155.011 199.669 154.771 209.375 155.104C218.015 155.411 226.629 156.024 235.282 156.118C237.922 156.144 240.562 156.224 243.202 156.278C252.989 156.438 262.735 157.424 272.522 157.278C277.348 157.211 282.215 157.278 286.922 155.771C292.895 153.864 297.068 149.998 300.335 144.691C305.015 137.064 306.975 128.598 308.855 120.051C310.388 113.051 311.162 105.985 311.295 98.8245C311.348 95.6512 311.588 92.4646 311.682 89.2913C311.922 81.238 311.002 73.3713 308.428 65.6914C307.362 62.5047 307.375 59.0247 306.255 55.7981C304.962 52.0514 303.428 48.3448 301.348 45.0381C298.508 40.5315 294.335 37.2382 289.242 35.4115C283.055 33.1849 276.749 31.2515 270.575 28.9716C264.322 26.6649 257.802 25.4515 251.322 24.1049C244.389 22.6649 237.322 22.1849 230.295 21.4382C225.549 20.9449 220.829 20.2649 216.082 19.7849C212.442 19.4249 208.775 19.2383 205.109 18.9983C203.735 18.9049 202.349 18.7849 200.975 18.8116C187.229 19.0382 173.509 18.0649 159.776 18.0783" stroke="black" stroke-width="3.33332" stroke-linecap="round" stroke-linejoin="round"/>
</svg>
