<svg width="347" height="342" viewBox="0 0 347 342" fill="none" xmlns="http://www.w3.org/2000/svg">
<path d="M83.2201 62.8395C78.8867 63.0395 75.3001 64.8261 72.4068 68.0128C70.9668 69.6128 69.94 71.4661 69.5134 73.5728C69.1267 75.5194 69.6468 77.4794 70.0868 79.3061C70.8868 82.6261 72.4066 85.6794 74.6333 88.3461C76.02 90.0128 77.7134 90.7861 79.8467 91.0928C85.5533 91.8928 90.5267 90.5861 94.2334 86.0528C97.3267 82.2794 98.1667 77.7194 97.5133 72.9728C97.2867 71.3061 96.1267 69.8928 95.0334 68.6661C91.9534 65.1995 88.2867 62.7461 83.3934 62.8261" stroke="#55ADE1" stroke-width="3.33333" stroke-linecap="round" stroke-linejoin="round"/>
<path d="M168.126 233.6C166.54 235.693 164.406 236.72 161.82 237.213C158.62 237.84 155.553 238.973 152.273 239.333C148.86 239.706 145.42 239.84 142.006 240.093C140.753 240.186 140.353 240.48 140.353 241.746C140.353 243.786 140.246 245.84 139.953 247.853C139.806 248.933 140.406 249.88 140.166 250.92" stroke="#55ADE1" stroke-width="3.33333" stroke-linecap="round" stroke-linejoin="round"/>
<path d="M261.513 64.8801C259.246 65.3601 256.953 65.7068 254.833 66.8134C250.993 68.8134 249.033 72.0268 248.326 76.1601C247.513 80.8534 248.26 85.1334 251.313 88.9601C254.98 93.5601 262.513 95.1601 267.873 92.8001C272.166 90.9067 274.686 87.4134 275.726 83.0934C276.406 80.2401 276.526 77.2668 275.086 74.2401C273.473 70.8534 271.593 68.0268 268.18 66.3334C266.126 65.3201 263.993 64.8001 261.7 64.8801" stroke="#55ADE1" stroke-width="3.33333" stroke-linecap="round" stroke-linejoin="round"/>
<path d="M297.94 295.88C298.113 295.586 298.193 295.133 297.94 295C294.7 293.32 293.206 290.093 291.166 287.373C288.513 283.84 285.22 281.106 281.46 278.906C279.713 277.893 277.686 277.746 275.726 277.413C272.073 276.773 268.42 276.72 264.753 277.213C264.26 277.28 263.793 277.56 263.313 277.733" stroke="#55ADE1" stroke-width="3.33333" stroke-linecap="round" stroke-linejoin="round"/>
<path d="M146.3 202.026C144.393 201.639 142.46 201.932 140.54 201.826" stroke="#55ADE1" stroke-width="3.33333" stroke-linecap="round" stroke-linejoin="round"/>
<path d="M281.593 162.84C282.006 163.827 281.913 164.867 281.94 165.907C282.046 169.867 283.58 173.493 284.58 177.253C284.74 177.867 285.086 178.373 285.446 178.893C286.353 180.173 285.926 181.146 284.38 181.573C280.286 182.693 276.153 182.96 271.966 182.226C271.473 182.146 271.006 181.88 270.526 181.693" stroke="#55ADE1" stroke-width="3.33333" stroke-linecap="round" stroke-linejoin="round"/>
<path d="M275.66 163.173C275.58 165.213 275.099 167.226 275.273 169.293" stroke="#55ADE1" stroke-width="3.33333" stroke-linecap="round" stroke-linejoin="round"/>
<path d="M143.553 339.106C144.793 338.733 146.073 338.973 147.327 338.946C151.167 338.866 155.033 338.653 158.847 338.746C165.98 338.906 173.126 338.626 180.26 339.013C185.393 339.293 190.567 339.293 195.727 339.013C197.873 338.893 200.047 339.16 202.207 339.186C207.18 339.24 212.18 338.973 217.14 339.333C223.433 339.786 229.74 339.613 236.033 339.84C244.726 340.146 253.433 340.333 262.113 340.093C267.086 339.96 272.086 339.493 277.06 338.88C279.993 338.52 282.953 338.44 285.886 337.813C290.553 336.84 294.966 335.32 299.22 333.16C303.846 330.813 307.94 327.76 311.846 324.386C313.193 323.226 314.153 321.8 314.9 320.24C319.366 310.946 323.393 301.44 326.14 291.493C328.82 281.76 331.233 271.946 333.18 262.04C333.846 258.653 334.913 255.36 335.513 251.96C336.646 245.48 338.353 239.12 339.1 232.56C339.62 227.92 340.593 223.333 341.26 218.706C341.633 216.146 341.566 213.506 342.086 210.986C342.94 206.76 342.953 202.453 343.473 198.2C343.713 196.253 343.58 194.24 343.913 192.266C344.646 187.973 344.34 183.626 344.433 179.306C344.553 173.8 344.086 168.266 343.86 162.746C343.806 161.306 343.646 159.866 343.713 158.426C343.94 153.56 343.566 148.693 343.273 143.853C343.046 140.146 342.993 136.36 342.073 132.666C341.686 131.12 341.94 129.44 341.74 127.813C341.286 124.12 340.633 120.48 339.926 116.84C339.193 113.026 338.686 109.2 338.26 105.333C337.606 99.3464 336.006 93.5064 334.54 87.653C333.3 82.7464 331.726 77.9331 330.273 73.1197C328.726 68.0264 326.82 62.9864 324.58 58.0931C322.713 54.0131 320.646 50.0398 318.606 46.0531C316.54 42.0131 313.433 38.6398 310.926 34.8664C307.633 29.8931 303.246 26.0131 298.046 23.1064C293.806 20.7331 289.153 19.3198 284.566 17.8664C277.62 15.6798 270.593 13.6931 263.54 11.8264C258.806 10.5731 253.993 9.55978 249.166 8.70645C245.073 7.98645 240.9 7.73312 236.766 7.14645C231.633 6.42645 226.473 5.99979 221.3 5.59979C213.553 4.98646 205.873 3.78646 198.1 3.33312C192.58 3.01312 187.06 2.94646 181.553 2.57312C177.473 2.29312 173.393 2.10646 169.313 2.22646C160.966 2.46646 152.633 2.91979 144.3 3.14646C140.033 3.26646 135.767 3.43979 131.527 3.87979C128.033 4.23979 124.567 4.91979 121.073 5.41312C118.74 5.74645 116.393 6.01312 114.06 6.29312C111.127 6.65312 108.153 6.82645 105.247 7.38645C102.433 7.91979 99.5932 8.03979 96.7665 8.31979C90.4732 8.95978 84.2199 9.78645 78.0466 11.1598C70.0866 12.9331 62.1266 14.7598 54.4599 17.5731C50.1399 19.1598 46.2466 21.5331 42.4999 24.2798C34.5399 30.1064 28.4866 37.4264 25.0733 46.5998C21.78 55.4397 18.8466 64.4264 16.18 73.5064C14.1933 80.2797 12.3933 87.0664 11.02 93.9997C10.3267 97.4797 9.37995 100.946 8.97995 104.453C8.13995 111.88 6.43335 119.146 5.54001 126.56C4.62001 134.213 4.25996 141.906 3.56663 149.573C2.72663 158.813 2.77998 168.053 2.49998 177.293C2.39331 180.76 2.81995 184.253 2.72662 187.733C2.67329 189.893 2.68664 192.066 2.49998 194.2C2.17998 198 2.61998 201.773 2.75331 205.533C2.89998 209.56 3.11335 213.6 3.71335 217.6C4.28669 221.36 4.57999 225.173 5.01999 228.946C5.35333 231.826 5.71332 234.706 6.17999 237.573C7.09999 243.293 8.15328 248.973 9.13994 254.68C9.80661 258.52 10.3533 262.373 11.0866 266.2C11.9266 270.573 12.7133 274.973 13.58 279.333C14.4733 283.84 15.4733 288.36 17.1 292.653C18.4733 296.28 19.9 299.893 21.2067 303.533C22.3933 306.84 23.4333 310.2 24.9133 313.386C26.9266 317.733 29.6332 321.613 33.1132 324.96C38.4732 330.093 45.2599 332.28 52.1533 334.186C57.3266 335.626 62.6466 336.426 67.9666 337.186C70.8999 337.6 73.8465 337.693 76.7799 337.973C82.4065 338.506 88.0466 338.799 93.6999 338.719C94.4733 338.719 95.2599 338.719 96.0333 338.719C99.8333 338.719 103.593 339.346 107.367 339.386C110.593 339.426 113.873 340.04 117.087 339.173C117.193 339.146 117.326 339.173 117.446 339.173C125.966 339.253 134.473 338.626 142.993 338.933C143.113 338.933 143.233 339.053 143.353 339.106" stroke="#55ADE1" stroke-width="3.33333" stroke-linecap="round" stroke-linejoin="round"/>
<path d="M144.7 240.159C144.62 243.879 144.553 247.599 144.473 251.319" stroke="#55ADE1" stroke-width="3.33333" stroke-linecap="round" stroke-linejoin="round"/>
<path d="M209.5 193.119C209.42 195.679 210.006 198.172 210.366 200.679C210.7 203.039 210.18 203.586 207.66 203.532C206.166 203.506 204.646 203.692 202.78 203.212C202.993 200.026 202.58 196.746 202.486 193.439" stroke="#55ADE1" stroke-width="3.33333" stroke-linecap="round" stroke-linejoin="round"/>
<path d="M146.713 192.119C146.86 194.572 146.353 197.052 147.033 199.506C147.3 200.452 146.553 201.266 146.486 202.199C146.206 206.159 145.993 210.132 145.513 214.066C144.886 219.239 145.646 224.386 145.526 229.546C145.46 232.626 144.86 235.639 144.833 238.719C144.833 239.079 145.033 239.439 144.9 239.799" stroke="#55ADE1" stroke-width="3.33333" stroke-linecap="round" stroke-linejoin="round"/>
<path d="M164.607 256.08C159.527 257.84 154.273 258.626 148.94 259.066C144.447 259.426 139.94 259.773 135.447 260.08C131.007 260.386 126.567 260.213 122.127 260.2C118.02 260.2 114.033 259.32 110.087 258.32C108.233 257.853 106.78 256.533 105.233 255.453" stroke="#55ADE1" stroke-width="3.33333" stroke-linecap="round" stroke-linejoin="round"/>
<path d="M204.433 240.6C205.446 240.666 206.473 240.733 207.486 240.786" stroke="#55ADE1" stroke-width="3.33333" stroke-linecap="round" stroke-linejoin="round"/>
<path d="M203.34 203.52C202.66 206.106 203.287 208.72 203.58 211.24C204.167 216.293 203.993 221.32 204.047 226.36C204.087 230.613 203.687 234.893 204.42 239.146C204.5 239.653 204.207 240.226 204.087 240.76" stroke="#55ADE1" stroke-width="3.33333" stroke-linecap="round" stroke-linejoin="round"/>
<path d="M144.847 248.973C150.727 249.386 156.5 250.399 162.113 252.279C163.193 252.639 164.073 253.253 164.807 254.106" stroke="#55ADE1" stroke-width="3.33333" stroke-linecap="round" stroke-linejoin="round"/>
<path d="M165.7 252.666C164.593 256.799 163.927 261.026 163.313 265.253C163.247 265.706 163.167 265.959 162.607 266.186C159.113 267.559 155.567 268.533 151.78 268.439C148.873 268.373 146.007 268.799 143.14 269.159C140.5 269.493 137.873 269.839 135.22 269.813C129.46 269.746 123.673 270.039 117.953 269.013C114.953 268.466 112.033 267.613 109.153 266.626C108.673 266.466 108.233 266.239 107.713 266.279" stroke="#55ADE1" stroke-width="3.33333" stroke-linecap="round" stroke-linejoin="round"/>
<path d="M83.5536 274.973C82.2736 274.093 80.9001 274.786 79.5934 274.826C77.5401 274.88 75.5268 275.053 73.4601 274.64C72.2735 274.4 70.9402 274.746 69.7002 274.933C66.6336 275.373 63.5535 275.76 60.5269 276.346C55.9802 277.213 52.8335 280.08 50.0069 283.626C46.6869 287.8 44.8603 292.76 42.247 297.293C41.3936 298.773 40.4202 300.173 40.4468 301.973" stroke="#55ADE1" stroke-width="3.33333" stroke-linecap="round" stroke-linejoin="round"/>
<path d="M209.273 203.906C208.7 207.906 209.22 211.973 208.806 215.96C207.966 224.106 208.007 232.266 207.86 240.426" stroke="#55ADE1" stroke-width="3.33333" stroke-linecap="round" stroke-linejoin="round"/>
<path d="M139.633 248.586C136.513 248.586 133.407 248.186 130.273 248.533C126.193 248.986 122.1 249.173 118.02 249.84C114.287 250.453 110.634 251.213 107.034 252.36C106.114 252.653 105.5 253.266 104.7 253.666" stroke="#55ADE1" stroke-width="3.33333" stroke-linecap="round" stroke-linejoin="round"/>
<path d="M241.247 257.133C237.233 260.333 232.353 260.893 227.553 261.546C220.513 262.506 213.42 262.746 206.327 262.533C200.22 262.346 194.153 261.653 188.153 260.346C186.047 259.879 184.327 258.759 182.593 257.599" stroke="#55ADE1" stroke-width="3.33333" stroke-linecap="round" stroke-linejoin="round"/>
<path d="M182.153 276.12C176.273 276.04 170.393 275.946 164.526 275.866" stroke="#55ADE1" stroke-width="3.33333" stroke-linecap="round" stroke-linejoin="round"/>
<path d="M203.14 249.586C199.18 250.173 195.206 250.706 191.26 251.346C188.886 251.733 186.66 252.493 184.567 253.773C183.553 254.399 183.02 255.253 182.42 256.146" stroke="#55ADE1" stroke-width="3.33333" stroke-linecap="round" stroke-linejoin="round"/>
<path d="M140.087 224.666C136.967 224.199 133.847 224.519 130.727 224.812C125.18 225.319 119.66 226.039 114.167 226.919C110.46 227.506 106.9 228.692 103.353 229.906C102.127 230.332 101.513 231.186 101.153 232.412C100.913 233.239 101.153 233.692 101.7 234.239C104.34 236.879 107.86 237.532 111.234 238.372C119.74 240.479 128.433 240.479 137.127 240.519C138.207 240.519 139.287 239.999 140.367 240.519" stroke="#55ADE1" stroke-width="3.33333" stroke-linecap="round" stroke-linejoin="round"/>
<path d="M239.046 267.199C234.78 268.973 230.22 269.493 225.713 270.146C222.033 270.679 218.286 270.866 214.566 271.026C208.566 271.293 202.54 271.133 196.58 270.373C192.393 269.839 188.18 269.159 184.353 267.133" stroke="#55ADE1" stroke-width="3.33333" stroke-linecap="round" stroke-linejoin="round"/>
<path d="M241.073 255.866C240.366 254.439 239.166 253.773 237.673 253.306C233.793 252.079 229.793 251.466 225.806 250.733C221.74 249.986 217.66 250.026 213.566 249.973C212.246 249.959 210.926 249.759 209.606 249.599C208.9 249.519 208.273 249.746 207.62 249.959" stroke="#55ADE1" stroke-width="3.33333" stroke-linecap="round" stroke-linejoin="round"/>
<path d="M140.407 191.92C140.273 195.573 140.047 199.24 140.033 202.893C140.033 205.053 140.34 207.213 140.513 209.373C140.847 213.52 141.193 217.653 141.54 221.787C141.98 227.253 141.353 232.707 141.113 238.16C141.086 238.76 140.993 239.387 141.273 239.96" stroke="#55ADE1" stroke-width="3.33333" stroke-linecap="round" stroke-linejoin="round"/>
<path d="M222.58 162.586C223.033 165.36 222.446 168.106 222.366 170.866C222.246 175.146 222.686 179.386 223.033 183.64C223.34 187.44 221.486 190.386 217.953 191.72C215.153 192.773 212.246 193.066 209.313 192.906C206.593 192.773 203.913 193.266 201.22 193.253C192.407 193.2 183.606 194.066 174.766 193.386C169.686 192.986 164.566 193 159.486 192.533C156.006 192.226 152.527 192.186 149.047 191.813C146.313 191.52 143.54 191.586 140.78 191.56C137.82 191.533 134.993 191.026 132.327 189.706C129.1 188.12 128.1 185.2 127.887 181.946C127.447 175.16 127.366 168.373 128.286 161.613C128.433 160.546 128.313 159.453 128.327 158.373" stroke="#55ADE1" stroke-width="3.33333" stroke-linecap="round" stroke-linejoin="round"/>
<path d="M245.126 235.013C243.62 236.959 241.46 237.426 239.193 237.919C235.073 238.813 230.887 239.239 226.753 239.919C224.34 240.319 221.847 240.213 219.38 240.293C215.487 240.413 211.58 240.506 207.687 240.613" stroke="#55ADE1" stroke-width="3.33333" stroke-linecap="round" stroke-linejoin="round"/>
<path d="M142.873 37.2665C140.167 37.8531 137.473 37.1198 134.78 37.0398C131.06 36.9331 127.34 36.7331 123.607 37.8531C120.633 38.7331 118.807 41.1065 118.26 46.6131C117.66 52.6665 117.673 58.8265 117.38 64.9331C117.007 72.9998 116.527 81.0664 116.22 89.1331C115.82 99.4798 115.127 109.826 115.367 120.213C115.433 122.88 116.087 125.413 116.793 127.84C117.3 129.613 118.433 130.333 119.807 130.426C127.367 130.946 134.927 131.36 142.473 132.066C153.193 133.08 163.94 133.36 174.673 133.12C180.793 132.986 186.913 133.186 193.033 132.866C197.327 132.64 201.66 133.28 205.98 133.36C210.807 133.453 215.593 132.973 220.38 132.106C221.393 131.92 222.433 131.853 223.433 131.586C226.246 130.853 227.18 129.506 227.78 125.506C228.353 121.733 228.633 117.88 228.687 114.04C228.833 104.173 228.82 94.3331 229.487 84.4798C229.807 79.7864 229.206 74.9864 229.1 70.2264C228.98 64.3064 228.273 58.4931 227.753 52.6398C227.607 51.0131 227.233 49.5198 226.807 48.0798C226.207 45.9865 225.207 44.1865 224.62 41.9865C223.913 39.3465 221.753 39.2131 220.047 38.9198C215.753 38.1998 211.42 38.0665 207.1 37.7331C199.953 37.1998 192.82 37.8665 185.687 37.7198C178.247 37.5598 170.82 37.6265 163.38 37.5998C157.207 37.5731 151.02 37.5465 144.847 37.5198C144.247 37.5198 143.62 37.6798 143.047 37.2665" stroke="#55ADE1" stroke-width="3.33333" stroke-linecap="round" stroke-linejoin="round"/>
<path d="M203.9 240.946C204.073 244.786 204.366 248.626 203.686 252.466C203.566 253.106 203.66 253.786 203.66 254.44" stroke="#55ADE1" stroke-width="3.33333" stroke-linecap="round" stroke-linejoin="round"/>
<path d="M145.407 160.279C145.38 165.013 145.393 169.759 145.34 174.493C145.313 176.893 145.113 179.279 145.273 181.693C145.727 188.373 147.86 187.973 152.487 188.359C156.98 188.733 161.5 188.826 165.967 189.386C170.513 189.946 175.087 190.079 179.647 190.266C185.953 190.533 192.26 190.159 198.54 189.493C202.46 189.079 206.593 185.719 206.38 180.693C206.207 176.773 205.513 172.906 205.5 168.999C205.5 166.546 205.74 164.079 205.86 161.626" stroke="#55ADE1" stroke-width="3.33333" stroke-linecap="round" stroke-linejoin="round"/>
<path d="M162.766 266.32C163.073 267.426 162.526 268.4 162.193 269.373C160.553 274.173 157.913 278.493 155.087 282.626C152.047 287.08 147.326 289.053 142.153 289.773C137.273 290.453 132.367 290.92 127.393 290.493C123.473 290.146 120.18 288.306 117.393 285.866C112.833 281.88 110.1 276.693 108.527 270.786C107.327 266.226 106.033 261.693 105.1 257.066C104.82 255.653 104.553 254.2 104.34 252.76" stroke="#55ADE1" stroke-width="3.33333" stroke-linecap="round" stroke-linejoin="round"/>
<path d="M242.54 250.653C242.753 251.6 242.353 252.467 242.153 253.347C241.193 257.387 241.06 261.547 240.02 265.587C238.313 272.253 235.806 278.52 231.726 284.027C228.393 288.547 223.766 291.187 218.073 291.947C211.073 292.893 204.286 292.413 197.753 289.653C191.9 287.187 188.62 282.387 186.473 276.667C185.34 273.64 184.833 270.453 184.086 267.32C183.5 264.853 182.873 262.387 182.486 259.907C182.18 257.907 181.98 255.907 181.353 253.973" stroke="#55ADE1" stroke-width="3.33333" stroke-linecap="round" stroke-linejoin="round"/>
<path d="M300.86 159.68C301.193 161.226 300.993 162.84 300.926 164.36C300.78 167.72 300.673 171.093 300.553 174.44C300.353 179.466 300.006 184.493 300.34 189.546C300.726 195.36 301.406 201.173 301.166 207C300.953 212.16 300.487 217.32 300.047 222.466C299.527 228.52 298.966 234.586 298.353 240.626C297.566 248.4 297.246 256.2 297.14 264.013C297.02 272.36 296.74 280.693 297.553 289.026C297.727 290.84 298.14 292.746 297.593 294.6" stroke="#55ADE1" stroke-width="3.33333" stroke-linecap="round" stroke-linejoin="round"/>
<path d="M285.3 181.573C285.78 183.733 285.873 185.893 285.286 188.053C285.206 188.333 285.273 188.653 285.273 188.946C285.353 195.919 284.686 202.866 284.553 209.813C284.486 213.639 284.26 217.479 284.393 221.333C284.46 223.186 283.846 225.026 284.193 226.906C284.313 227.559 284.14 228.039 283.326 228.373C279.66 229.853 275.966 230.453 272.166 228.986C271.513 228.733 271.327 228.133 271.233 227.386C270.913 224.719 271.433 222.093 271.567 219.466C271.767 215.493 271.167 211.533 271.567 207.586C272.087 202.466 271.353 197.386 271.206 192.293C271.113 189.226 270.753 186.159 270.326 183.119C270.206 182.279 270.206 181.373 270.46 180.799C271.953 177.359 272.206 173.546 273.82 170.159C274.14 169.493 274.5 169.093 275.113 169.306C277.5 170.133 279.806 169.399 282.14 169.133" stroke="#55ADE1" stroke-width="3.33333" stroke-linecap="round" stroke-linejoin="round"/>
<path d="M101.18 234.213C100.753 237.08 100.9 239.973 101.007 242.853C101.18 247.36 101.753 251.853 101.953 256.36C102.18 261.213 103.247 265.947 103.673 270.76C104.113 275.813 105.473 280.6 107.1 285.333C107.98 287.906 109.46 290.213 110.847 292.546C113.02 296.2 116.407 297.973 120.527 298.133C125.927 298.346 131.3 299.32 136.713 299.106C141.02 298.933 145.353 298.813 149.5 297.4C152.366 296.426 154.633 294.733 156.38 292.226C158.367 289.36 160.526 286.613 161.966 283.413C163.926 279.013 164.567 274.266 165.233 269.573C166.42 261.267 167.513 252.933 168.366 244.573C168.673 241.587 168.806 238.573 169.153 235.587C169.5 232.587 167.46 229.8 164.553 228.533C161.78 227.333 158.793 227.32 155.913 226.733C152.567 226.053 149.206 225.493 145.846 224.88" stroke="#55ADE1" stroke-width="3.33333" stroke-linecap="round" stroke-linejoin="round"/>
<path d="M203.593 225.839C198.553 225.853 193.673 226.853 188.833 228.119C186.127 228.826 183.46 229.626 180.9 230.759C177.767 232.146 177.38 232.813 177.633 236.159C177.993 240.839 178.087 245.533 178.527 250.186C179.02 255.439 179.727 260.666 180.74 265.853C181.927 271.959 182.673 278.146 184.113 284.213C184.646 286.466 185.18 288.706 186.02 290.893C187.647 295.159 190.713 297.613 195.007 298.853C199.9 300.253 204.873 300.546 209.94 300.586C213.886 300.626 217.766 300.319 221.646 299.679C228.606 298.533 233.1 294.359 236.1 288.226C239.446 281.386 240.833 273.986 242.486 266.653C243.073 264.066 243.793 261.519 244.3 258.919C245.273 253.813 245.993 248.679 245.833 243.453C245.766 241.479 245.913 239.493 245.833 237.519C245.633 232.133 244.66 231.359 240.273 229.666C236.073 228.039 231.593 227.226 227.006 226.919C223.407 226.679 219.793 226.453 216.207 225.946C213.673 225.586 211.06 225.853 208.473 225.839" stroke="#55ADE1" stroke-width="3.33333" stroke-linecap="round" stroke-linejoin="round"/>
<path d="M103.713 274.88C97.9532 274.52 92.1931 274.64 86.4331 275.146C77.4065 275.96 72.0866 281.52 68.4066 289.133C66.4199 293.213 65.2865 297.653 64.6599 302.08C63.9932 306.826 63.4199 311.733 65.2066 316.466C65.7799 317.973 66.3265 319.493 66.9932 320.973C68.3799 324.04 71.3132 324.64 74.1665 325.12C80.2332 326.146 86.3665 326.546 92.5132 326.44C97.0198 326.36 101.513 326.373 106.006 326.386C111.646 326.4 117.287 326.573 122.913 326.613C131.367 326.68 139.833 326.453 148.273 326.8C156.553 327.133 164.846 326.96 173.113 327.84C176.233 328.173 179.46 327.573 182.646 327.586C186.126 327.586 189.607 327.333 193.086 327.306C198.246 327.266 203.406 327.373 208.553 327.346C212.033 327.32 215.513 327.026 218.993 327.08C223.673 327.16 228.353 327.413 233.02 327.666C237.94 327.933 242.846 327.96 247.78 327.733C250.66 327.6 253.54 327.48 256.42 327.6C262.886 327.866 268.753 326.093 274.26 322.813C276.433 321.52 277.033 319.24 278.033 317.226C279.086 315.093 279.06 312.706 279.353 310.4C280.153 304 277.793 298.48 274.753 293.106C272.34 288.853 269.793 284.76 266.42 281.12C264.14 278.653 261.766 277.253 258.446 277.186C252.806 277.066 247.18 276.533 241.526 277.12C241.113 277.16 240.686 277.013 240.273 276.946" stroke="#55ADE1" stroke-width="3.33333" stroke-linecap="round" stroke-linejoin="round"/>
<path d="M301.766 158.426C300.1 160.506 297.593 160.706 295.273 161.053C290.553 161.773 285.807 162.32 281.06 162.8C279.1 163 277.1 162.786 275.126 162.813C269.966 162.906 264.793 162.44 259.646 163.093C259.233 163.146 258.807 163.093 258.393 163.093C248.607 163.453 238.847 162.653 229.073 162.533C222.713 162.453 216.367 161.666 210.007 161.28C207.14 161.106 204.247 161.133 201.367 161.04C192.913 160.76 184.46 160.72 176.007 160.493C170.553 160.346 165.087 160.373 159.633 160.2C149.38 159.893 139.127 160.04 128.873 159.8C116.873 159.533 104.887 159.253 92.8867 159.053C87.1934 158.96 81.4866 159.226 75.7933 158.92C69.6333 158.586 63.4333 158.653 57.2599 158.4C54.5666 158.293 51.86 158.266 49.1667 157.893C46.8067 157.56 45.1266 156.266 43.6066 154.6C43.18 154.133 42.7667 153.386 42.0067 153.72C41.2467 154.053 41.1534 154.866 41.0734 155.666C40.7401 158.613 40.3933 161.546 39.9666 164.48C39.3133 168.866 39.5266 173.24 39.94 177.613C40.74 185.906 41.5667 194.186 42.5267 202.453C43.6067 211.8 43.46 221.146 42.98 230.533C42.6467 237.013 42.0199 243.466 41.7666 249.96C41.5266 255.96 41.2067 261.946 40.9933 267.946C40.7933 273.586 40.6068 279.213 40.5801 284.853C40.5534 288.213 40.8467 291.573 40.5134 294.933C40.42 295.826 40.34 296.733 40.3267 297.626C40.3267 298.2 40.0467 298.906 40.8467 299.253" stroke="#55ADE1" stroke-width="3.33333" stroke-linecap="round" stroke-linejoin="round"/>
<path d="M159.7 18.1993C156.887 18.3726 154.06 18.4926 151.247 18.706C145.38 19.1726 139.473 18.906 133.607 19.626C130.833 19.9726 127.98 19.7326 125.153 19.9993C121.26 20.3593 117.353 20.5726 113.46 20.866C107.673 21.306 101.967 22.346 96.18 22.8126C91.62 23.186 87.0867 24.0526 82.6867 25.2793C78.9534 26.3193 75.0867 26.8793 71.5134 28.426C68.3 29.8126 64.7267 30.4793 61.82 32.386C55.4467 36.5593 51.2733 42.3993 49.4467 49.906C47.82 56.6259 46.6867 63.4393 45.4333 70.2259C44.3 76.3593 43.4334 82.5459 42.8868 88.7459C42.3134 95.3192 42.5001 101.933 42.9135 108.533C43.1135 111.653 43.2468 114.773 43.3801 117.893C43.5534 122.079 44.1135 126.186 44.7401 130.319C45.2201 133.493 45.6333 136.693 46.26 139.839C47.1 144.039 48.6733 147.946 52.2867 150.679C53.6867 151.733 55.34 152.146 56.9667 152.453C60.1533 153.053 63.34 153.533 66.5 154.293C69.9267 155.119 73.4466 154.679 76.9266 154.386C81.7266 153.986 86.5267 154.186 91.3133 154.319C94.1933 154.399 97.0733 154.413 99.9533 154.453C104.567 154.533 109.193 154.479 113.807 154.546C115.553 154.573 117.287 154.879 119.02 154.893C124.953 154.933 130.887 155.186 136.833 154.706C140.153 154.439 143.54 154.933 146.9 155.026C148.513 155.066 150.14 154.959 151.753 154.879C155.473 154.706 159.18 155.186 162.913 154.986C168.713 154.679 174.553 154.479 180.367 154.706C190.087 155.093 199.807 154.853 209.513 155.186C218.153 155.493 226.767 156.106 235.42 156.199C238.06 156.226 240.7 156.306 243.34 156.359C253.127 156.519 262.873 157.506 272.66 157.359C277.487 157.293 282.353 157.359 287.06 155.853C293.033 153.946 297.206 150.079 300.473 144.773C305.153 137.146 307.113 128.679 308.993 120.133C310.526 113.133 311.3 106.066 311.433 98.9059C311.486 95.7326 311.726 92.5459 311.82 89.3726C312.06 81.3193 311.14 73.4526 308.567 65.7726C307.5 62.5859 307.513 59.1059 306.393 55.8793C305.1 52.1326 303.566 48.426 301.486 45.1193C298.646 40.6126 294.473 37.3193 289.38 35.4926C283.193 33.266 276.887 31.3326 270.713 29.0526C264.46 26.746 257.94 25.5326 251.46 24.186C244.527 22.746 237.46 22.266 230.433 21.5193C225.687 21.026 220.967 20.346 216.22 19.866C212.58 19.506 208.913 19.3193 205.247 19.0793C203.873 18.986 202.487 18.866 201.113 18.8926C187.367 19.1193 173.647 18.146 159.913 18.1593" stroke="#55ADE1" stroke-width="3.33333" stroke-linecap="round" stroke-linejoin="round"/>
</svg>
