<svg width="369" height="271" viewBox="0 0 369 271" fill="none" xmlns="http://www.w3.org/2000/svg">
<g clip-path="url(#clip0_94_51)">
<path d="M368.693 70.7712L368.733 70.3979C369.067 66.5047 369.173 62.3315 367.627 58.2782C367.013 56.6783 366.453 54.9983 365.92 53.3851C365.627 52.4784 365.32 51.5851 365.013 50.6785L364.827 50.1318C364.48 49.1052 364.12 48.0519 363.547 47.0386C361.294 43.1054 358.094 39.7988 354.054 37.2255C351.641 35.6922 348.721 34.039 345.307 33.439C339.588 32.4257 333.988 31.9724 329.268 31.6657L327.281 31.5324C322.961 31.239 318.482 30.9324 314.042 31.1324C311.882 31.239 309.708 31.3457 307.549 31.4524C301.669 31.759 295.602 32.0657 289.629 32.1457C288.709 32.1457 287.789 32.159 286.869 32.159C285.469 32.159 284.069 32.159 282.669 32.199C274.963 32.3857 268.696 32.6923 262.95 33.1856C260.963 33.359 258.963 33.4923 256.977 33.6256C253.99 33.8256 250.897 34.039 247.857 34.3589C245.764 34.5856 244.044 33.8656 242.124 32.719C241.817 32.5323 241.697 32.3723 241.684 32.319C241.404 31.2524 240.964 30.2657 240.537 29.3191C239.977 28.0791 239.457 26.8925 239.297 25.6259C239.111 24.1059 238.591 22.7193 238.097 21.386L237.977 21.0527C237.577 19.9594 237.057 18.9061 236.577 17.8928C236.057 16.8128 235.564 15.7995 235.191 14.7329C234.351 12.3729 233.311 9.98633 231.924 7.23975C229.537 2.53322 225.591 0.133289 220.444 0.22662C216.738 0.306617 212.991 0.493279 209.351 0.666607C207.098 0.77327 204.832 0.893267 202.578 0.973264C198.005 1.14659 193.845 1.06659 189.845 0.733271C189.045 0.666607 188.245 0.599942 187.459 0.519944C184.325 0.239953 181.059 -0.0267061 177.846 -0.0400391C173.486 -0.0133732 169.073 0.146622 164.793 0.306617C159.273 0.506611 153.553 0.719939 147.94 0.639941C145.9 0.639941 144.26 1.45325 143.113 3.07987C141.94 4.75982 140.593 6.66643 139.647 8.7597C138.513 11.2796 137.607 13.1996 136.727 15.0129C136.487 15.5062 136.247 16.0128 136.02 16.5061C135.007 18.6661 134.047 20.7194 132.567 22.346C129.9 25.2792 127.82 28.6125 125.914 31.7857C125.114 33.119 123.954 33.839 122.194 34.0923C117.647 34.7589 112.954 34.5189 108.434 34.2789L104.848 34.0923C101.368 33.9056 97.768 33.719 94.1815 34.0256C92.7415 34.1456 91.2349 34.1323 89.7949 34.119C89.2083 34.119 88.6216 34.1056 88.035 34.119C88.035 34.0256 88.0083 33.9323 88.0083 33.839C87.9683 33.5056 87.9283 33.1723 87.955 32.9057C88.235 30.1591 88.5683 26.9058 88.9683 23.6793C89.1549 22.2393 88.9283 21.186 88.2883 20.4394C87.6617 19.706 86.6617 19.3327 85.2617 19.2927C84.1684 19.2661 83.0751 19.2927 81.9952 19.2927C81.4752 19.2927 80.9685 19.3061 80.4485 19.3194C78.7819 19.3327 77.102 19.4394 75.4887 19.5327C73.3954 19.666 71.2221 19.7994 69.1155 19.7327C67.7289 19.6927 66.3423 19.5994 64.969 19.5061C63.7024 19.4261 62.4491 19.3461 61.1824 19.2927C58.8758 19.1861 57.3292 20.5194 56.8892 22.8793C56.3159 25.9192 56.3959 28.9858 56.4759 31.9457C56.4892 32.4657 56.5026 32.9857 56.5159 33.5056C55.2359 33.3723 53.956 33.239 52.6627 33.119C49.9961 32.8657 47.2228 32.599 44.5429 32.199C38.7964 31.3457 32.5833 31.3724 25.5568 32.279C20.9703 32.879 16.1171 33.7856 11.6639 36.4389C7.99733 38.6122 4.01078 41.5321 2.38417 46.6786C1.55752 49.3052 1.05087 52.0384 0.570886 54.6783L0.437557 55.4383C0.157565 56.9583 0.170898 58.4649 0.184231 59.9182C0.184231 60.8115 0.197564 61.6381 0.144232 62.4781C-0.00243019 64.7314 0.184231 66.9713 0.357559 69.1446C0.54422 71.5179 0.730882 73.7578 0.530887 76.011V76.291L0.570886 76.4244C0.690883 77.491 0.850878 78.5443 0.99754 79.6109C1.31753 81.9575 1.66419 84.3841 1.75752 86.7707C1.87751 89.504 2.14417 92.2639 2.41083 94.9305C2.71749 98.0504 3.03748 101.264 3.10415 104.437C3.15748 107.357 3.3308 110.317 3.50413 113.17C3.6108 114.917 3.70413 116.677 3.78412 118.423C3.86412 120.236 3.85079 122.103 3.83746 123.903C3.82412 125.556 3.81079 127.276 3.86412 128.969C3.95745 131.516 3.90412 134.009 3.73079 136.369C3.59746 138.183 3.73079 139.969 3.87746 141.702C3.94412 142.609 4.02412 143.516 4.05078 144.422C4.17078 147.902 4.01079 151.475 3.85079 155.035C3.75746 157.049 3.69079 159.049 3.63746 161.062C3.47747 165.995 3.3308 171.102 2.73082 176.088C2.54416 177.635 2.58416 179.195 2.61083 180.715C2.63749 182.155 2.66416 183.501 2.53083 184.861C2.2375 187.674 2.06418 190.234 2.01084 192.661C1.90418 197.461 1.74418 202.354 1.57086 207.087L1.41086 211.567C1.3042 214.274 1.1842 217.074 1.77085 219.82C2.22417 221.927 2.02418 223.98 1.81085 226.167L1.70419 227.273C1.3442 231.206 1.1042 235.18 0.970875 239.113C0.850878 242.619 1.42419 246.379 2.77082 250.953C3.42414 253.152 4.13078 255.272 5.77073 257.006C6.05072 257.299 6.27738 257.752 6.51738 258.206C7.18402 259.512 8.13066 260.499 8.87731 261.232C10.2639 262.566 11.8639 263.526 13.4238 264.459C14.0238 264.819 14.6371 265.179 15.2238 265.565C16.7437 266.552 18.4104 267.125 20.157 267.259C22.9969 267.472 25.8635 267.552 28.6501 267.619C30.8633 267.672 33.1566 267.739 35.3965 267.859C37.9965 268.005 40.623 267.859 43.1563 267.739C46.0095 267.592 48.9695 267.432 51.8494 267.699C54.2626 267.925 56.4626 267.832 58.5825 267.432C62.2757 266.725 65.9823 267.059 68.8089 267.432C73.6354 268.059 78.7952 268.659 84.0218 268.485C87.435 268.365 90.9149 268.565 94.2881 268.765C97.5414 268.952 100.901 269.152 104.248 269.059C106.888 268.992 109.568 269.285 112.181 269.579C113.434 269.712 114.688 269.859 115.941 269.952C120.767 270.339 125.687 270.419 130.434 270.499C132.634 270.539 134.834 270.565 137.047 270.632C137.887 270.659 138.727 270.672 139.567 270.672C142.313 270.672 145.06 270.552 147.74 270.445C150.22 270.339 152.78 270.232 155.3 270.219L159.833 270.192C169.593 270.152 179.686 270.112 189.605 269.512C192.072 269.365 194.619 269.512 197.072 269.685C198.738 269.792 200.445 269.899 202.152 269.912C212.098 270.005 220.884 269.952 229.044 269.765C232.164 269.699 235.337 269.739 238.417 269.765C243.15 269.819 248.044 269.885 252.87 269.552C259.817 269.072 266.923 269.072 273.803 269.085H275.896C276.643 269.085 277.389 269.099 278.123 269.112C279.016 269.125 279.896 269.139 280.789 269.139C282.936 269.139 285.096 269.059 287.202 268.979C290.349 268.872 293.616 268.752 296.802 268.859C302.215 269.032 307.589 268.645 312.762 267.712C316.268 267.072 320.041 266.885 324.975 267.085C325.948 267.125 326.895 267.232 327.908 267.352C329.908 267.592 331.974 267.832 334.121 267.459C335.454 267.232 336.908 267.112 338.734 267.059C342.614 266.965 345.934 266.112 348.894 264.445C349.707 263.992 350.601 263.659 351.547 263.326L352.001 263.166C354.12 262.392 356.32 261.606 357.947 259.686C359.254 258.152 360.654 256.459 362.227 254.486C362.627 253.992 362.854 253.406 363.054 252.926L363.587 251.606C364.507 249.339 365.413 247.059 366.28 244.779C366.387 244.499 366.507 244.206 366.627 243.926C367.12 242.753 367.613 241.526 367.6 240.073C367.587 237.833 367.653 235.553 367.72 233.34C367.8 230.7 367.88 227.967 367.827 225.26C367.827 224.913 367.853 224.58 367.893 224.233C367.92 223.913 367.96 223.593 367.96 223.273C367.987 222.287 368.027 221.3 368.053 220.3C368.147 217.794 368.24 215.207 368.173 212.647C368.147 211.62 368.107 210.594 368.067 209.554C367.96 207.087 367.84 204.541 368.08 202.074C368.213 200.741 368.2 199.407 368.187 198.127V197.101C368.187 194.448 367.867 191.808 367.587 189.261C367.36 187.248 367.12 185.168 367.027 183.128C366.987 182.088 366.987 181.035 367 179.995C367 178.355 367.027 176.661 366.84 174.981C366.227 169.382 366.867 163.742 367.52 158.889C368.16 154.102 368.44 149.022 368.427 142.422C368.427 141.116 368.4 139.809 368.387 138.503C368.36 136.929 368.347 135.369 368.347 133.796V133.263C368.347 132.876 368.347 132.489 368.347 132.103C368.373 130.156 368.253 128.21 368.133 126.33C367.96 123.556 367.773 120.676 368.08 117.89C368.48 114.29 368.493 110.65 368.52 107.13C368.52 106.143 368.52 105.144 368.547 104.157C368.587 101.104 368.56 97.9971 368.547 94.9972C368.547 93.6105 368.52 92.2239 368.52 90.8373V89.1573C368.507 87.1041 368.493 85.0508 368.493 82.9842C368.493 80.2643 368.507 77.531 368.52 74.7978C368.52 74.7178 368.6 74.5444 368.667 74.3844C368.853 73.9578 369.133 73.3045 368.867 72.5178C368.693 71.9845 368.747 71.3845 368.813 70.6912L368.693 70.7712ZM61.3291 27.2792C61.3291 26.7458 61.3958 26.2125 61.4758 25.6392C61.5424 25.1992 61.5958 24.7592 61.6224 24.2926C62.2491 24.3326 62.889 24.3592 63.5157 24.3859C64.489 24.4259 65.449 24.4659 66.4223 24.5592C69.9155 24.9059 73.4221 24.6792 76.7953 24.4526C78.3953 24.3459 80.0352 24.2392 81.6485 24.1992C82.5551 24.1726 83.6751 24.1459 83.8351 24.1859C83.9418 24.4659 83.7151 25.7059 83.6084 26.3592C83.1818 28.7458 82.8218 31.3057 82.9818 34.0656C81.1418 34.0656 79.3019 34.0656 77.462 34.0656H72.1954L70.0222 34.0523C67.1689 34.0256 64.2223 33.999 61.3424 33.8123C61.3291 33.8123 61.3158 33.8123 61.2891 33.8123C61.2891 33.7856 61.2891 33.759 61.2891 33.7323C61.3958 31.4257 61.3558 29.1858 61.3158 27.2925L61.3291 27.2792ZM52.9293 262.992C49.1828 262.672 45.3029 262.646 41.3964 262.912C37.7165 263.166 34.4632 263.139 31.4633 262.832C29.4234 262.619 27.3834 262.632 25.3968 262.632C24.5035 262.632 23.6235 262.632 22.7436 262.632C20.2503 262.579 18.557 262.112 17.0771 261.059C16.5437 260.672 15.9704 260.352 15.4238 260.046C14.8771 259.739 14.3571 259.446 13.8905 259.099C12.7839 258.299 11.9439 257.206 11.0506 256.059C10.7839 255.712 10.5173 255.366 10.2373 255.032C7.55735 251.726 6.86403 247.753 6.21072 243.913C5.66407 240.713 5.6374 237.86 6.13072 235.206C6.34405 234.086 6.29072 232.953 6.23739 231.806C6.23739 231.806 6.23739 231.793 6.23739 231.78C6.27738 231.78 6.31738 231.78 6.37072 231.766C9.71728 231.353 13.1572 231.446 16.4904 231.54C17.9837 231.58 19.477 231.62 20.957 231.62H23.1569C28.7434 231.62 34.5299 231.62 40.2097 231.793C44.4496 231.94 48.7295 231.66 52.8627 231.38C54.9959 231.233 57.1426 231.1 59.2758 231.006C60.8224 230.94 62.3691 230.94 63.9157 230.926L73.6221 230.82C81.6885 230.713 89.7683 230.62 97.8347 230.553C103.541 230.513 109.208 230.953 115.008 231.46C122.114 232.073 129.74 232.593 137.314 232.193C138.98 232.1 140.38 232.46 142.02 233.353C149.127 237.26 156.633 239.966 164.339 241.42C169.646 242.419 175.446 243.086 182.059 243.473C191.045 243.993 200.112 242.619 209.778 239.286L209.938 239.233C213.898 237.873 217.991 236.46 221.804 234.46C222.711 233.993 223.791 233.993 224.724 234.046C226.684 234.18 228.564 233.886 230.377 233.606C231.004 233.513 231.631 233.42 232.257 233.34C235.511 232.94 238.817 232.833 242.07 233.02C247.55 233.34 253.083 233.073 258.43 232.82L259.017 232.793C265.976 232.46 271.816 232.3 277.696 232.58C290.949 233.206 304.402 233.06 317.415 232.913C320.615 232.873 323.828 232.846 327.028 232.82C331.654 232.78 336.281 232.766 340.908 232.74C345.201 232.726 349.494 232.7 353.774 232.673C356.494 232.66 359.24 232.486 361.894 232.34L362.96 232.273C362.934 233.3 362.867 234.326 362.8 235.353C362.694 236.993 362.587 238.7 362.64 240.406C362.654 240.9 362.4 241.446 362.134 242.033C362.014 242.286 361.894 242.553 361.8 242.806C361.04 244.739 360.254 246.659 359.48 248.593L358.56 250.873C358.28 251.259 358.014 251.646 357.734 252.033C355.587 255.072 353.56 257.939 349.787 258.792C348.987 258.979 348.121 259.326 347.214 259.819C344.521 261.312 341.841 262.099 339.028 262.246C337.041 262.339 335.094 262.512 333.028 262.699C332.161 262.779 331.281 262.859 330.375 262.926C327.855 262.552 324.895 262.206 321.921 262.299C321.135 262.326 320.335 262.326 319.548 262.326C317.095 262.339 314.482 262.326 311.855 263.152C310.375 263.632 308.735 263.712 307.002 263.806C306.202 263.846 305.402 263.885 304.629 263.966C301.869 264.245 299.029 264.206 296.296 264.179C294.429 264.152 292.496 264.139 290.589 264.206C284.989 264.419 279.269 264.405 273.75 264.392C269.656 264.392 265.416 264.379 261.243 264.459C258.75 264.512 256.23 264.645 253.79 264.779C250.244 264.979 246.577 265.179 242.977 265.099C237.484 264.992 231.897 265.032 226.498 265.085C221.711 265.125 216.751 265.165 211.885 265.085C210.378 265.072 208.871 265.099 207.365 265.139C204.725 265.205 201.992 265.259 199.338 265.005C196.165 264.685 192.765 264.445 189.379 264.725C184.792 265.112 180.699 265.272 176.846 265.245C174.366 265.232 171.846 265.299 169.406 265.379C166.513 265.472 163.513 265.565 160.58 265.485C156.393 265.365 152.153 265.512 148.06 265.645C143.393 265.805 138.58 265.979 133.86 265.739C131.567 265.632 129.234 265.605 126.98 265.579C123.941 265.552 120.807 265.512 117.741 265.272C116.314 265.152 114.888 265.019 113.461 264.872C111.221 264.646 108.901 264.405 106.608 264.299L105.688 264.246C104.981 264.206 104.248 264.152 103.515 264.152C103.261 264.152 103.008 264.152 102.755 264.165C99.7946 264.299 96.7681 264.139 93.8348 263.966C92.2482 263.872 90.6616 263.779 89.075 263.739C88.595 263.739 88.1016 263.712 87.6217 263.686C86.2084 263.632 84.7551 263.579 83.3018 263.659C78.6886 263.926 74.2487 263.366 70.5022 262.779C65.5956 262.006 60.6891 262.046 55.9026 262.886C55.0493 263.032 54.116 263.059 52.876 262.952L52.9293 262.992ZM6.14406 213.54C6.17072 212.927 6.19739 212.314 6.21072 211.7C6.21072 205.021 6.59738 198.221 6.95737 191.648L7.03736 190.154C7.13069 188.394 7.18402 186.634 7.23736 184.875C7.33069 181.955 7.42402 178.941 7.71734 176.021C8.19733 171.155 8.38399 166.222 8.54398 161.449C8.61065 159.622 8.67731 157.795 8.75731 155.982L8.81064 154.782C9.01064 150.489 9.21063 146.049 8.81064 141.636C8.55732 138.943 8.66398 136.156 8.75731 133.449C8.78398 132.569 8.82398 131.703 8.83731 130.823V130.263C8.87731 129.343 8.90397 128.383 8.81064 127.41C8.61065 125.33 8.58398 123.116 8.73065 120.636C8.87731 118.143 8.67731 115.637 8.47732 113.223C8.31732 111.277 8.15733 109.263 8.184 107.303C8.19733 106.25 8.11733 105.21 8.05067 104.197C7.984 103.304 7.91734 102.464 7.91734 101.61C7.91734 99.637 7.69068 97.6904 7.47735 95.7971C7.34402 94.5838 7.21069 93.3705 7.11736 92.1572C6.8107 87.6374 6.45071 83.5575 6.02406 79.6509C5.8774 78.371 5.69074 77.091 5.50407 75.8111L5.37074 74.8911C5.35741 74.7844 5.34408 74.7044 5.34408 74.6511C5.41074 74.6511 5.50407 74.6378 5.62407 74.6378C7.63734 74.6111 9.66395 74.6111 11.6906 74.5978C16.3171 74.5844 21.1036 74.5578 25.7968 74.3711L29.2767 74.2378C35.9965 73.9711 42.7296 73.7045 49.4628 73.3845C54.316 73.1578 59.0625 73.1578 63.5957 73.3845C71.5688 73.7845 79.6619 73.7711 87.4883 73.7711C90.2749 73.7711 93.0615 73.7711 95.8614 73.7844C97.488 73.7844 99.128 73.8511 100.755 73.8911C101.541 73.9178 102.328 73.9445 103.115 73.9578C107.034 74.0644 110.968 73.8111 114.794 73.5711C116.914 73.4378 119.101 73.2911 121.261 73.2245L122.754 73.1711C125.527 73.0778 128.38 72.9845 131.22 72.7845C129.567 73.9311 127.94 75.1711 126.207 76.5177C120.701 80.8109 114.461 86.1574 109.981 93.2505L109.074 94.6772C106.928 98.0504 104.701 101.544 103.275 105.45C102.541 107.45 101.861 109.477 101.168 111.49C100.541 113.343 99.9013 115.197 99.2346 117.037C98.888 117.996 98.528 118.943 98.1547 119.89C97.2347 122.276 96.2747 124.743 95.6881 127.33C93.9548 134.849 93.2882 140.689 93.5548 146.289C93.8082 151.702 94.3148 157.142 94.7681 161.755C95.3681 167.768 96.6747 174.221 98.9013 182.048C100.848 188.914 103.541 195.554 106.901 201.794C107.461 202.847 108.194 203.754 108.888 204.621C109.128 204.914 109.354 205.207 109.581 205.514C115.461 213.234 121.461 219.247 127.94 223.9C129.074 224.713 130.194 225.62 131.287 226.5C131.98 227.06 132.674 227.62 133.394 228.167C130.487 228.22 127.514 228.273 124.594 228.087C121.554 227.9 118.501 227.673 115.461 227.447C108.848 226.94 102.021 226.433 95.2214 226.433C94.3015 226.433 93.3815 226.433 92.4615 226.46C86.1817 226.593 79.7952 226.647 73.6087 226.7C68.5422 226.74 63.489 226.78 58.4225 226.873C56.4359 226.913 54.4226 227.047 52.476 227.193C50.3961 227.34 48.2495 227.5 46.1562 227.513C40.0097 227.553 33.7699 227.487 27.7301 227.42L22.1569 227.353C19.9703 227.327 17.637 227.3 15.2771 227.153C12.6372 226.993 9.87728 227.073 6.82404 227.42C6.7707 227.42 6.70404 227.42 6.63737 227.447C6.63737 227.447 6.63737 227.42 6.63737 227.407C7.18402 224.607 6.79737 221.913 6.42405 219.3C6.30405 218.407 6.17072 217.514 6.07739 216.62C5.97073 215.62 6.02406 214.62 6.07739 213.567L6.14406 213.54ZM363.187 125.063C363.387 127.97 363.4 130.943 363.414 133.823C363.414 135.396 363.427 136.969 363.467 138.543C363.56 142.716 363.667 147.036 363.414 151.302C363.2 154.915 362.787 158.582 362.387 162.129C362.24 163.448 362.094 164.768 361.947 166.075C361.72 168.168 361.694 170.262 361.854 172.288C362.014 174.288 362.04 176.355 362.054 178.341C362.067 180.235 362.094 182.181 362.227 184.115C362.334 185.568 362.494 187.008 362.654 188.448C362.787 189.648 362.92 190.834 363.027 192.034L363.067 192.488C363.32 195.594 363.587 198.807 363.267 201.954C362.987 204.674 363.107 207.421 363.214 210.074C363.24 210.674 363.267 211.274 363.28 211.874C363.414 215.58 363.32 219.527 363 224.273C362.947 224.98 362.947 225.7 362.947 226.407V227.06C362.947 227.247 362.947 227.673 362.894 227.913C362.774 227.927 362.574 227.94 362.2 227.94C362.187 227.94 362.16 227.94 362.147 227.94C361.054 227.94 359.96 228.007 358.907 228.073C358.054 228.127 357.214 228.18 356.36 228.193C348.134 228.353 339.748 228.38 331.654 228.407C325.895 228.42 320.121 228.447 314.362 228.513C312.122 228.54 309.882 228.593 307.642 228.647C302.215 228.78 296.589 228.927 291.096 228.593C282.256 228.073 272.95 227.953 263.456 228.273C254.457 228.567 245.47 228.713 236.751 228.66C235.191 228.66 233.684 228.78 232.177 228.953C233.604 228.06 234.977 227.1 236.324 226.167C236.924 225.74 237.537 225.313 238.151 224.9C242.764 221.753 247.084 217.767 252.177 211.967C261.843 200.981 268.416 189.608 272.243 177.195C274.469 169.982 275.883 162.449 276.416 154.782C276.896 148.076 276.723 142.209 275.883 136.863C274.763 129.663 272.47 122.036 268.683 112.863C265.51 105.184 261.057 98.1437 255.43 91.9306C251.55 87.6374 247.484 83.5042 243.35 79.6109C240.644 77.0777 237.644 74.9577 234.151 73.1311C233.511 72.7978 232.884 72.4378 232.244 72.0512C233.044 71.9978 233.817 71.9578 234.591 71.9178L242.377 71.4912C249.097 71.1179 256.043 70.7445 262.883 70.4379C265.496 70.3312 268.176 70.3312 270.763 70.3312C272.603 70.3312 274.443 70.3312 276.283 70.3046C286.642 70.0912 297.189 70.3046 307.389 70.4912C312.722 70.5979 318.055 70.6912 323.388 70.7445C328.468 70.7845 333.641 70.9845 338.654 71.1845C343.267 71.3579 348.041 71.5445 352.747 71.6112C354.84 71.6378 356.934 71.6912 359.014 71.7578C360.534 71.7978 362.04 71.8378 363.56 71.8778C363.36 72.8778 363.48 73.8378 363.587 74.7711C363.654 75.2777 363.707 75.7711 363.707 76.2377C363.707 76.851 363.707 77.4777 363.68 78.1043C363.667 79.091 363.64 80.0643 363.68 81.0376C363.774 83.5042 363.747 86.0374 363.72 88.4773C363.694 91.1839 363.667 93.9705 363.787 96.7438C363.96 100.37 363.92 104.01 363.68 107.543C363.587 108.81 363.587 110.09 363.587 111.33C363.587 113.023 363.587 114.637 363.374 116.237C363.014 119.05 362.947 122.023 363.147 125.063H363.187ZM105.528 186.088C102.901 178.475 101.155 171.488 100.195 164.702C99.488 159.689 98.848 154.782 98.7413 149.889C98.728 149.049 98.6747 148.209 98.6213 147.369C98.5547 146.302 98.488 145.196 98.5013 144.129C98.608 135.636 100.061 128.023 102.955 120.876C104.381 117.37 105.581 113.69 106.608 110.53C107.688 107.17 109.301 102.81 112.114 98.8637C112.741 97.9837 113.368 97.0904 113.981 96.1971C115.927 93.3705 117.941 90.4373 120.447 88.024C123.487 85.0908 126.421 82.5842 129.42 80.3309L129.78 80.0643C131.767 78.5843 133.807 77.0377 135.927 75.6911C145.193 69.7846 154.62 66.0647 164.713 64.3047C169.473 63.4781 174.539 62.6781 179.646 62.6781C179.792 62.6781 179.952 62.6781 180.099 62.6781C193.605 63.0381 205.085 65.2647 215.205 69.5179C218.924 71.0779 222.644 72.8378 226.231 74.5311L227.778 75.2644C229.124 75.9044 230.457 76.7044 231.751 77.491C232.271 77.811 232.804 78.131 233.324 78.4376C234.217 78.9576 235.231 79.5443 236.431 79.8776C236.897 80.0109 237.337 80.4376 237.791 80.9042C237.977 81.0909 238.151 81.2642 238.337 81.4376C242.43 85.1574 247.137 89.5307 251.27 94.3838C253.097 96.5304 255.017 98.9037 257.337 101.864C258.723 103.637 259.963 105.677 261.363 108.477C263.323 112.397 265.083 116.503 266.59 120.676C268.55 126.103 270.083 131.729 271.15 137.369C272.123 142.596 272.03 147.862 271.816 152.342C271.443 159.942 270.043 167.635 267.576 175.875C265.336 183.315 261.777 190.528 256.67 197.927C253.883 201.981 251.004 206.167 247.564 209.78C246.324 211.087 244.99 212.38 243.71 213.62C242.777 214.514 241.857 215.42 240.95 216.327C236.964 220.34 232.137 223.26 227.458 226.073C222.951 228.793 217.978 231.166 212.671 233.113C207.658 234.966 201.005 237.206 193.952 238.18C188.299 238.953 182.619 238.713 177.806 238.366C169.313 237.766 161.979 236.34 155.38 234.02C147.713 231.326 140.22 227.167 132.5 221.287C127.007 217.114 121.941 212.447 117.421 207.421C112.434 201.861 108.661 195.074 105.541 186.074L105.528 186.088ZM364.134 66.4247C364.12 66.8113 364.094 67.198 364.08 67.5846H360.44C356.56 67.278 352.627 67.2113 348.827 67.1446C346.401 67.1046 343.894 67.0647 341.441 66.958C329.001 66.4247 316.348 66.2513 304.109 66.0913C300.309 66.038 296.496 65.9847 292.696 65.9314C283.976 65.7847 275.136 65.9314 266.59 66.078L262.376 66.1447C256.057 66.2513 249.644 66.6647 243.444 67.078C240.764 67.2513 238.071 67.438 235.391 67.5846L233.577 67.678C231.071 67.8113 228.471 67.9446 225.911 68.3046C225.311 68.3846 224.738 68.2779 224.084 67.958C215.045 63.5848 206.565 60.7715 198.138 59.3582C187.499 57.5716 179.339 57.1849 171.686 58.1049C159.353 59.5849 149.7 62.3981 141.3 66.9313C139.447 67.9313 137.487 68.1046 135.42 68.2779H135.274C130.127 68.7313 124.874 68.9846 119.794 69.2113C116.007 69.3846 112.101 69.5712 108.248 69.8379C106.621 69.9446 104.808 69.9579 102.555 69.8512C97.0881 69.6112 91.5282 69.6246 86.155 69.6512C83.9418 69.6512 81.7285 69.6646 79.5152 69.6512C75.942 69.6379 72.3021 69.4646 68.7822 69.3046C64.0624 69.0779 59.1692 68.8513 54.3293 68.9979C52.4227 69.0513 50.5027 69.1046 48.5961 69.1579C41.583 69.3312 34.3432 69.5179 27.2101 70.0512C25.3435 70.1979 23.4102 70.1579 21.7303 70.1179C18.4237 70.0246 15.0771 70.1179 11.8372 70.2112C9.77061 70.2646 7.70401 70.3179 5.65074 70.3312C5.61074 70.3312 5.58407 70.3312 5.54407 70.3312C5.54407 70.3179 5.54407 70.2912 5.54407 70.2779C5.6374 69.3446 5.54407 68.4646 5.31741 67.6513C5.06409 66.7713 4.98409 65.8247 5.06409 64.7447C5.15742 63.5048 5.06409 62.2781 4.98409 61.1048L4.91743 60.1848C4.7441 57.4783 5.37074 54.7583 6.09072 51.9851C6.22405 51.4784 6.33072 50.9585 6.42405 50.4385C6.58404 49.6518 6.7307 48.9185 6.98403 48.2119C7.81067 45.9053 9.37063 44.0253 12.0239 42.1054C15.9438 39.2788 20.437 38.2122 24.7168 37.4922C27.2101 37.0655 29.7834 36.9455 32.2766 36.8255C33.1966 36.7855 34.1166 36.7322 35.0365 36.6789C37.4498 36.5322 39.8231 36.8122 42.343 37.1055C43.103 37.1989 43.8496 37.2789 44.6096 37.3589L47.7028 37.6789C52.636 38.1988 57.7292 38.7322 62.809 38.9321C73.1821 39.3455 83.5551 39.2655 91.4349 39.1455C95.8747 39.0788 100.381 39.2388 104.754 39.3855C108.168 39.5055 111.701 39.6255 115.194 39.6388C118.727 39.6655 122.234 39.5721 125.634 38.3988C127.3 37.8255 128.634 36.7855 129.594 35.3323C130.487 33.959 131.354 32.5723 132.207 31.1724C132.367 30.919 132.514 30.6524 132.66 30.3991C133.1 29.6258 133.514 28.9058 134.087 28.3591C137.234 25.3192 139.113 21.4927 140.94 17.7994L141.233 17.2128C142.3 15.0662 143.287 12.8662 144.127 10.9996C144.647 9.82634 145.353 8.7597 146.1 7.63973C146.42 7.14642 146.753 6.66643 147.06 6.17311C147.26 5.85312 147.527 5.63979 148.207 5.63979H148.233C148.913 5.63979 149.58 5.66646 150.26 5.67979C152.073 5.71979 153.953 5.75979 155.82 5.63979C160.673 5.34647 165.606 5.25314 170.393 5.15981C172.766 5.11981 175.139 5.06648 177.512 4.99981C180.686 4.90648 183.925 5.21314 187.059 5.50646C187.885 5.58646 188.712 5.66646 189.552 5.73312C195.832 6.27978 202.232 6.01312 207.885 5.77312C211.605 5.61313 215.325 5.42647 219.031 5.21314C219.844 5.17314 220.684 5.21314 221.564 5.26647C222.004 5.29314 222.444 5.3198 222.884 5.33314C225.178 5.3998 226.364 7.17308 227.471 9.14636C228.751 11.413 229.764 13.7596 230.484 16.1195C230.884 17.4261 231.471 18.6394 232.044 19.826C232.564 20.9193 233.071 21.946 233.417 23.0259C233.511 23.3059 233.604 23.5859 233.711 23.8659C234.004 24.7059 234.284 25.4925 234.377 26.3059C234.644 28.6391 235.551 30.7191 236.431 32.7323C236.644 33.2123 236.844 33.6923 237.044 34.1723C238.151 36.8389 240.537 38.3455 244.124 38.6522C246.79 38.8788 249.417 38.6388 251.963 38.3988C253.137 38.2922 254.323 38.1722 255.497 38.1188C257.043 38.0388 258.603 37.8922 260.11 37.7455C260.843 37.6788 261.59 37.6122 262.323 37.5455C271.71 36.7589 281.296 36.5189 290.562 36.3056C292.922 36.2522 295.282 36.1989 297.629 36.1322C300.415 36.0522 303.229 35.8789 305.949 35.7056C309.655 35.4789 313.495 35.2789 317.268 35.2523C323.268 35.2789 329.175 35.7722 334.654 36.3056L335.561 36.3989C338.574 36.6922 341.681 36.9855 344.641 37.7055C348.547 38.6522 352.174 40.7721 355.72 44.1853C358.547 46.8919 360.44 50.4518 361.694 55.3583C362 56.5716 362.4 57.7716 362.8 58.9316C363.227 60.2115 363.667 61.5181 363.974 62.8381C364.24 63.9981 364.187 65.1847 364.12 66.4513L364.134 66.4247Z" fill="black"/>
<path d="M343.147 78.7847C342.947 78.7847 342.747 78.8114 342.547 78.838C342.321 78.8647 342.094 78.8914 341.867 78.878C336.614 78.678 331.348 78.4647 326.815 78.2914L322.895 78.1314C316.095 77.9581 310.322 78.2914 304.735 78.6247C303.162 78.718 301.615 78.8114 300.069 78.8914C298.149 78.9847 297.295 79.798 297.015 81.7713C296.922 82.4779 296.975 83.1312 297.055 83.7312L297.109 84.1712C297.322 85.8245 297.522 87.3845 297.162 88.9177C296.815 90.4377 296.802 91.9443 296.789 93.4109C296.789 94.7976 296.762 96.1175 296.482 97.3975C296.309 98.1841 296.229 98.9441 296.256 99.6641C296.296 100.904 296.749 101.971 297.549 102.664C298.309 103.317 299.322 103.624 300.429 103.504C301.949 103.344 303.522 103.317 305.042 103.291C305.869 103.291 306.695 103.264 307.522 103.224C316.015 102.864 323.028 102.877 329.601 103.251C333.321 103.464 337.294 103.651 341.254 103.651C342.747 103.651 343.867 103.304 344.627 102.544C345.294 101.864 345.627 100.917 345.614 99.7041C345.587 97.4108 345.734 95.1442 345.867 93.4376C345.987 91.9443 345.974 90.451 345.961 88.9977C345.934 86.6645 345.921 84.4512 346.401 82.2513C346.601 81.318 346.401 80.4513 345.867 79.798C345.267 79.078 344.281 78.7047 343.161 78.758L343.147 78.7847ZM340.894 88.1844C340.921 88.5711 340.948 88.9444 340.961 89.3177C341.014 90.7177 340.894 92.1043 340.774 93.5709C340.641 95.1976 340.508 96.8775 340.614 98.6241C337.548 98.7041 334.214 98.6108 330.415 98.3041C328.681 98.1708 326.975 98.1575 325.321 98.1575H324.815C322.895 98.1575 321.121 98.1575 319.521 97.9841H319.455L314.042 98.1041C309.988 98.1975 306.175 98.2775 302.269 98.3841C301.909 98.3841 301.549 98.3975 301.282 98.3841C301.322 98.0908 301.402 97.6908 301.469 97.3575C301.709 96.1309 301.695 94.9309 301.695 93.7709C301.695 92.611 301.682 91.531 301.909 90.4777C302.389 88.2244 302.429 85.9712 302.002 83.7579C302.375 83.7312 302.749 83.7046 303.135 83.6779C303.869 83.6246 304.602 83.5712 305.335 83.5579C307.162 83.5312 309.002 83.4112 310.775 83.2912C313.268 83.1312 315.828 82.9712 318.348 83.0379C324.068 83.2112 329.775 83.3979 335.494 83.5846L340.401 83.7446C340.401 83.7446 340.534 83.7579 340.588 83.7712C340.761 83.7979 340.921 83.8246 341.094 83.8246H341.134C341.134 83.8246 341.134 83.8779 341.121 83.9046C340.734 85.3578 340.828 86.7845 340.908 88.1578L340.894 88.1844Z" fill="black"/>
<path d="M209.218 21.2259C209.072 19.4526 208.912 17.6127 208.485 15.8127C207.458 11.4662 206.818 10.8662 202.498 10.8662C202.392 10.8662 202.272 10.8662 202.165 10.8662C197.032 10.8929 191.832 11.1329 186.806 11.3595C181.699 11.5862 176.419 11.8262 171.233 11.8528C169.593 11.8528 167.979 11.8528 166.419 11.5729C165.566 11.4262 164.553 11.2795 163.513 11.3062C160.86 11.3862 159.686 12.4928 159.593 15.0394C159.553 16.0527 159.5 17.066 159.446 18.0793C159.18 23.0259 158.9 28.1457 160.326 33.1989C160.5 33.8255 161.02 35.6521 163.18 35.6521C163.273 35.6521 163.38 35.6521 163.473 35.6521C165.793 35.4788 168.179 35.4522 170.473 35.4122C172.339 35.3855 174.273 35.3588 176.179 35.2522C179.899 35.0522 183.712 35.0388 187.379 35.0255C191.405 35.0122 195.579 34.9855 199.685 34.7322C200.112 34.7322 200.538 34.7322 200.965 34.7322C202.738 34.7455 204.592 34.7722 206.445 34.3189C208.432 33.8389 209.765 32.9856 209.805 30.3723V29.9856C209.831 28.319 209.858 26.5991 209.591 24.8658C209.405 23.6658 209.298 22.4125 209.192 21.1992L209.218 21.2259ZM204.432 29.9057C203.992 29.9856 203.592 30.0256 203.205 30.0523C200.512 30.0123 197.779 30.1456 195.152 30.279C193.272 30.3723 191.325 30.479 189.419 30.5056H186.259C183.899 30.4923 181.539 30.479 179.166 30.5056C174.486 30.5856 169.659 30.7056 164.819 30.8923C164.753 30.8923 164.699 30.8923 164.659 30.8923C164.633 30.839 164.606 30.7456 164.553 30.5856C163.926 28.5057 163.979 26.3724 164.046 24.1325C164.073 23.3992 164.086 22.6792 164.086 21.9459V20.8526C164.059 19.1593 164.046 17.5727 164.233 15.9727C172.113 16.8394 180.059 16.3994 187.765 15.9727C189.325 15.8927 190.899 15.7994 192.459 15.7194C195.672 15.5594 199.165 15.4794 203.458 15.4527C203.458 15.4527 203.552 15.4527 203.578 15.4527C203.592 15.4927 203.618 15.5461 203.645 15.6394C204.192 17.5193 204.338 19.4393 204.498 21.4792C204.592 22.6925 204.685 23.9458 204.885 25.1991C205.072 26.4258 205.085 27.6524 205.112 28.959V29.8123C204.898 29.839 204.658 29.879 204.432 29.919V29.9057Z" fill="black"/>
<path d="M89.4216 43.2918C86.5684 43.0385 84.1551 43.8651 82.4218 45.6518C80.5152 47.6384 79.5952 50.6783 79.9819 53.7982C80.2219 55.7048 81.1285 57.4781 82.0752 59.118C83.0485 60.7846 84.9818 62.1046 87.2617 62.6246C87.9417 62.7846 88.6083 62.8513 89.2483 62.8513C90.5683 62.8513 91.7816 62.5179 92.7282 61.8913C95.6881 59.9047 97.1814 57.1848 97.1681 53.8382C97.1947 52.1182 96.8881 50.425 96.2348 48.785C94.8881 45.3718 92.6615 43.5718 89.4216 43.2918ZM92.1282 54.1715C92.0482 55.5315 91.2616 56.7581 89.9283 57.6247C89.6216 57.8247 88.995 57.8247 88.3283 57.6381C87.4083 57.3714 86.5684 56.7981 86.2884 56.2248C85.6084 54.7982 85.1284 53.3315 84.8484 51.8516C84.7151 51.1049 84.9418 50.2783 85.4751 49.5716C86.0484 48.8117 86.8884 48.3183 87.7283 48.2517C87.915 48.2383 88.0883 48.225 88.2617 48.225C90.1016 48.225 91.1816 49.1317 91.6616 51.1183C91.8882 52.0516 92.1015 52.9449 92.1282 54.1715Z" fill="black"/>
<path d="M110.874 45.6657C108.501 43.3324 104.688 42.7058 101.808 44.1857C98.6081 45.839 96.7549 49.3189 97.2748 52.6522C97.3948 53.4255 97.5948 54.1721 97.7948 54.8921L97.9015 55.2921C98.4748 57.452 99.6881 59.4786 101.515 61.2919C102.368 62.1319 103.515 62.5719 104.741 62.5719C105.515 62.5719 106.315 62.3985 107.101 62.0386C111.248 60.1186 113.274 56.812 113.328 51.9455V51.8255C113.141 50.1456 112.861 47.6123 110.874 45.6524V45.6657ZM108.408 52.4522C108.301 54.5854 107.675 55.8521 106.315 56.692C106.088 56.8387 105.328 56.9187 104.501 56.7187C103.861 56.5587 103.608 56.3321 103.581 56.2787C102.381 54.1988 101.915 52.5188 102.101 50.8522C102.208 49.7856 103.781 48.2923 104.861 48.2123C104.968 48.2123 105.075 48.2123 105.168 48.2123C106.701 48.2123 107.728 48.9723 108.088 50.3989L108.128 50.5856C108.288 51.2389 108.448 51.8655 108.421 52.4522H108.408Z" fill="black"/>
<path d="M121.421 151.889C121.621 153.409 121.821 154.969 121.954 156.515C122.141 158.595 122.394 161.048 122.901 163.488C123.927 168.448 125.647 173.248 127.181 177.288C130.3 185.461 134.74 192.168 140.74 197.767C145.66 202.354 151.553 206.327 158.753 209.874C161.66 211.314 164.553 212.354 167.593 213.06C173.019 214.327 177.539 215.02 181.792 215.26C182.619 215.3 183.459 215.327 184.272 215.327C189.645 215.327 194.752 214.434 198.738 213.607C201.285 213.074 203.698 212.127 206.032 211.194C206.898 210.847 207.765 210.514 208.631 210.194C212.871 208.634 217.178 206.62 221.418 204.221C222.898 203.394 224.324 202.447 225.711 201.554C227.324 200.501 228.991 199.421 230.671 198.527C233.871 196.834 236.084 194.474 238.431 191.461C239.217 190.448 239.817 189.341 240.377 188.261C240.991 187.114 241.551 186.048 242.337 185.114C242.924 184.421 243.524 183.661 243.964 182.795C246.044 178.701 247.457 174.315 248.817 170.075L249.204 168.875C251.057 163.128 251.897 156.809 251.75 149.542C252.017 143.662 250.657 137.823 249.284 132.876C246.964 124.516 243.177 117.17 238.017 111.05C237.471 110.397 236.884 109.77 236.297 109.143C235.417 108.197 234.591 107.29 233.857 106.317C231.297 102.877 227.991 100.277 224.778 97.757C224.231 97.3304 223.684 96.9037 223.138 96.4637L222.844 96.2237C221.871 95.4371 220.858 94.6371 219.711 93.9705C214.725 91.0905 209.885 88.7839 204.898 86.9573C199.098 84.8241 193.592 83.7174 188.059 83.5708C181.979 83.4374 175.686 84.3974 168.833 86.5573C162.766 88.464 157.26 91.3972 151.673 94.4904C147.473 96.8104 143.42 99.6903 139.274 103.264C134.66 107.25 131.234 112.157 128.767 115.996C125.567 120.97 123.407 126.809 121.981 134.356C121.167 138.689 120.421 143.836 121.021 149.115C121.127 150.049 121.247 150.982 121.367 151.902L121.421 151.889ZM125.474 145.222C125.447 144.236 125.421 143.289 125.554 142.369C126.421 136.489 127.687 129.596 130.58 123.01C132.62 118.356 135.794 114.463 139.14 110.557C143.86 105.037 149.967 101.157 155.846 97.7837C160.793 94.9438 165.353 92.8505 169.779 91.3972C175.726 89.4373 180.846 88.5173 185.819 88.5173C186.006 88.5173 186.205 88.5173 186.392 88.5173C190.192 88.5973 195.152 88.8906 199.845 90.5306L201.898 91.2372C207.045 93.0105 212.365 94.8371 217.058 97.797C218.258 98.557 219.418 99.4103 220.631 100.397C221.231 100.89 221.844 101.384 222.458 101.877C225.231 104.117 227.858 106.223 229.991 108.983C230.858 110.103 231.817 111.143 232.737 112.157C233.724 113.237 234.751 114.343 235.617 115.516C240.311 121.836 243.537 128.823 245.457 136.863C247.177 144.049 247.457 151.755 246.324 160.435C246.004 162.875 245.35 165.462 244.19 168.808L244.124 169.022C243.684 170.302 243.217 171.635 242.844 172.981C241.884 176.461 240.031 179.635 238.244 182.714L238.097 182.968C237.644 183.741 237.257 184.554 236.897 185.328C236.377 186.421 235.884 187.461 235.217 188.408C233.324 191.128 230.658 193.034 228.084 194.874C221.564 199.554 214.405 203.354 206.805 206.167C205.978 206.474 205.165 206.794 204.338 207.127C202.032 208.047 199.845 208.9 197.512 209.38C190.899 210.74 185.526 211.22 180.619 210.86C176.726 210.58 173.006 209.714 169.873 208.9C158.06 205.834 148.007 199.474 139.14 189.474C136.98 187.034 135.114 184.181 133.607 180.968C130.474 174.328 128.287 168.182 126.914 162.168C126.447 160.129 126.167 158.035 126.074 155.929C126.034 155.009 125.847 154.129 125.674 153.275C125.501 152.449 125.341 151.675 125.301 150.889C125.261 149.849 125.287 149.089 125.394 148.382C125.554 147.302 125.514 146.249 125.487 145.222H125.474Z" fill="black"/>
</g>
<defs>
<clipPath id="clip0_94_51">
<rect width="368.957" height="270.765" fill="white"/>
</clipPath>
</defs>
</svg>
