<svg width="362" height="332" viewBox="0 0 362 332" fill="none" xmlns="http://www.w3.org/2000/svg">
<path d="M62.4434 101.448C56.6168 101.288 50.9235 100.088 45.1769 99.2081C41.0702 98.5814 37.0835 97.2481 32.9235 97.0348C28.1236 96.7815 23.377 96.0481 18.6436 95.4081C13.817 94.7548 9.0037 94.2215 4.15039 94.0215" stroke="black" stroke-width="5.33331" stroke-linecap="round" stroke-linejoin="round"/>
<path d="M31.2568 33.5146C32.4968 35.088 34.3903 35.8213 35.897 37.0479C39.1636 39.7146 41.7501 43.0612 44.7768 45.9812C46.4168 47.5679 48.1368 49.0612 49.8302 50.5812C52.2568 52.7679 53.6435 55.9012 56.3368 57.8078C61.2034 61.2478 64.2434 66.5011 68.79 70.2211C71.27 72.2478 73.1367 75.0344 76.1767 76.3811" stroke="black" stroke-width="5.33331" stroke-linecap="round" stroke-linejoin="round"/>
<path d="M98.2695 60.6213C97.3361 58.9413 96.6161 57.1413 96.4428 55.2347C95.7761 47.9147 93.4161 40.9814 91.7628 33.8881C90.2162 27.3148 88.5895 20.7548 86.9362 14.2082C86.3095 11.7282 85.4695 9.31492 85.1095 6.7816C85.0162 6.07494 84.5763 6.56823 84.3496 6.40823" stroke="black" stroke-width="5.33331" stroke-linecap="round" stroke-linejoin="round"/>
<path d="M149.683 3.44824C145.416 10.8349 141.536 18.4481 137.91 26.1414C134.723 32.9014 131.269 39.4747 127.603 45.9546C126.03 48.7279 124.51 51.5279 122.963 54.3013" stroke="black" stroke-width="5.33331" stroke-linecap="round" stroke-linejoin="round"/>
<path d="M37.0034 149.341C35.2701 149.995 33.39 149.888 31.6167 150.421C25.6301 152.248 21.0567 155.621 18.5901 161.568C18.0834 162.794 17.6702 163.981 17.7102 165.301C17.7902 168.768 17.4168 172.208 19.1368 175.541C21.6301 180.408 24.5635 184.808 29.4168 187.554C36.1635 191.394 42.8034 190.794 49.0567 186.434C53.3634 183.434 55.7366 179.048 56.83 174.021C57.4433 171.234 58.3633 168.434 57.8033 165.488C56.7099 159.834 54.1234 155.275 48.7101 152.661C46.7101 151.688 44.83 150.528 42.59 150.035C40.8033 149.648 39.0301 149.328 37.2034 149.341" stroke="black" stroke-width="5.33331" stroke-linecap="round" stroke-linejoin="round"/>
<path d="M262.736 247.54C265.056 252.487 265.509 257.767 265.962 263.127C266.362 267.913 266.229 272.58 265.149 277.233C263.882 282.647 261.376 287.46 258.096 291.9C253.122 298.633 246.402 303.02 238.789 306.18C236.309 307.206 233.616 307.54 230.989 308.033C225.349 309.073 219.709 308.54 214.309 306.873C206.963 304.607 200.296 301.127 195.123 295.1C191.109 290.433 187.816 285.393 186.323 279.447C184.749 273.14 184.376 266.7 186.429 260.34C187.803 256.1 189.136 251.847 191.256 247.9" stroke="black" stroke-width="5.33331" stroke-linecap="round" stroke-linejoin="round"/>
<path d="M187.549 96.6343C188.136 100.288 190.803 102.034 193.869 103.301C201.109 106.301 208.603 107.968 216.509 108.021C223.016 108.061 229.536 108.088 235.989 107.488C243.736 106.768 251.509 105.728 258.642 102.194C260.909 101.074 262.282 99.1143 263.469 96.9943C264.056 95.9543 263.962 94.8744 263.469 93.8477C261.669 90.1411 258.909 87.581 254.949 86.2077C249.696 84.381 244.242 83.9277 238.789 83.2344C230.976 82.2344 223.203 83.5544 215.389 83.3411C212.056 83.2477 208.816 84.4078 205.549 85.1011C200.829 86.0877 196.216 87.3411 192.003 89.7677C190.389 90.6877 189.083 91.8477 188.043 93.4477C187.376 94.4611 187.856 95.5276 187.363 96.461" stroke="black" stroke-width="5.33331" stroke-linecap="round" stroke-linejoin="round"/>
<path d="M93.8165 154.914C88.5765 155.62 83.3232 155.834 78.0433 155.847C74.99 155.847 72.3633 155.087 70.2167 152.701C67.2967 149.447 64.2966 146.234 61.1233 143.247C56.7366 139.114 51.2967 136.687 45.5368 135.314C40.5235 134.127 35.3768 135.007 30.3368 135.807C26.6968 136.381 23.4301 137.967 20.3102 139.861C18.6702 140.847 16.8569 141.554 15.3235 142.687C11.9235 145.221 9.44355 148.62 7.15022 152.127C6.23023 153.54 5.49697 155.074 4.72364 156.567C2.73698 160.38 2.87019 164.554 3.09686 168.634C3.55019 176.874 6.95023 184.194 11.4835 190.86C14.8969 195.874 19.4568 199.834 25.3101 202.087C27.6168 202.98 30.0035 203.074 32.3768 203.327C34.4035 203.554 36.4568 203.447 38.5101 203.607C40.6301 203.78 42.8434 203.127 44.9901 202.78C46.31 202.567 47.6035 202.22 48.9101 201.927C54.0834 200.754 58.2834 197.94 62.0567 194.42C64.87 191.807 68.0566 189.674 71.0166 187.234C72.4966 186.02 74.5233 185.98 76.3766 185.727C80.2033 185.207 83.9633 184.1 87.8832 184.42C89.9899 184.594 92.0699 185.034 94.1898 184.967" stroke="black" stroke-width="5.33331" stroke-linecap="round" stroke-linejoin="round"/>
<path d="M173.816 244.567C170.75 248.167 170.083 252.794 168.43 257.007C166.016 263.167 165.43 269.593 165.883 276.127C166.003 277.807 166.136 279.527 166.91 281.153C168.883 285.34 169.403 290.007 171.043 294.313C172.003 296.82 172.763 299.407 174.163 301.753C176.35 305.42 179.15 308.633 181.816 311.94C187.816 319.406 195.91 323.767 204.843 326.527C208.19 327.567 211.79 328.086 215.39 328.153C217.936 328.193 220.456 328.766 223.003 328.833C231.989 329.033 240.576 327.073 249.003 324.086C253.456 322.513 257.669 320.46 261.763 318.22C265.269 316.3 267.989 313.207 271.096 310.687C276.256 306.5 278.949 300.713 281.723 294.913C283.136 291.953 284.362 288.873 286.282 286.153C288.122 283.54 290.616 282.42 293.723 282.46C295.083 282.473 296.456 282.287 297.589 281.66C299.389 280.673 299.789 278.767 299.829 276.887C299.896 273.793 299.802 270.7 299.869 267.607C299.909 265.927 299.162 264.913 297.616 264.46C295.002 263.7 292.362 263.193 289.642 263.74C289.042 263.86 288.522 263.927 287.776 263.713C287.776 256.46 287.416 249.26 283.696 242.74" stroke="black" stroke-width="5.33331" stroke-linecap="round" stroke-linejoin="round"/>
<path d="M94.5496 168.274C98.203 170.5 101.923 172.62 105.483 174.98C113.563 180.34 121.95 185.167 130.749 189.247C140.336 193.674 150.269 197.114 160.616 199.34C164.589 200.194 168.403 201.74 172.336 202.78C175.429 203.607 178.602 204.074 181.789 204.514C185.922 205.074 190.056 205.46 194.229 205.66C198.682 205.874 203.149 206.34 207.589 206.793C210.642 207.1 213.669 206.914 216.696 207.087C221.829 207.407 226.962 207.527 232.109 207.447C237.496 207.367 242.869 207.087 248.255 207.007C252.215 206.94 256.189 206.274 260.135 205.767C268.695 204.674 277.069 202.674 285.389 200.434C290.855 198.967 296.455 198.02 301.882 196.447C308.909 194.407 315.802 192.1 322.389 188.66C329.322 185.047 336.202 181.407 342.308 176.567C347.308 172.607 352.295 168.434 354.962 162.34C356.348 159.167 357.362 155.887 357.428 152.327C357.548 145.22 357.362 138.127 355.868 131.181C354.855 126.461 353.308 121.847 351.282 117.434C347.788 109.794 342.548 103.554 336.042 98.3274C330.495 93.8607 325.068 89.2607 318.975 85.4874C316.762 84.1274 314.389 83.1541 312.082 82.0074C306.082 79.0208 300.282 75.6208 293.895 73.4608C287.069 71.1541 280.455 68.3141 273.509 66.2875C266.962 64.3675 260.375 62.9009 253.615 62.1009C248.309 61.4742 242.989 60.9008 237.656 60.6208C231.029 60.2742 224.402 60.3009 217.789 60.5142C210.482 60.7409 203.176 61.3675 195.882 61.8475C189.923 62.2342 184.042 62.9942 178.256 64.3676C173.189 65.5809 168.203 66.9675 163.349 69.0475C158.616 71.0875 153.869 73.1142 149.109 75.1008C145.616 76.5541 142.589 78.7941 139.469 80.8741C137.749 82.0207 135.976 83.0208 134.083 83.8341C130.629 85.3141 127.816 87.7941 125.016 90.1807C122.016 92.7407 118.896 95.1674 116.243 98.1141C110.563 104.421 105.229 110.967 101.589 118.727C98.6695 124.927 97.0963 131.54 95.8696 138.22C94.8963 143.54 94.203 148.94 94.2163 154.367C94.2163 158.94 93.6829 163.527 94.3496 168.1C94.3629 168.22 94.4695 168.38 94.4295 168.474C93.1095 171.594 94.4296 174.794 94.1763 177.94C93.8429 182.1 94.8295 186.127 95.4429 190.194C95.8029 192.594 95.8029 195.034 96.3496 197.434C97.2429 201.314 98.8563 204.793 101.416 207.807C105.63 212.767 110.816 216.527 116.203 220.14C121.576 223.74 127.149 227.007 133.003 229.62C140.189 232.82 147.403 236.047 154.869 238.62C160.469 240.553 166.189 242.047 171.922 243.527C177.882 245.06 183.936 245.98 189.936 247.193C192.882 247.793 195.896 247.74 198.856 248.273C204.869 249.367 210.989 249.26 217.056 249.673C223.149 250.087 229.309 250.007 235.416 249.673C239.802 249.447 244.229 249.54 248.602 248.993C252.762 248.473 256.882 247.593 261.042 247.193C268.642 246.487 276.015 244.74 283.295 242.647C290.109 240.673 296.935 238.58 303.509 235.927C311.015 232.913 318.668 230.153 325.775 226.287C332.202 222.78 338.828 219.527 344.562 214.847C348.202 211.873 351.415 208.394 354.308 204.754C357.162 201.167 358.068 196.607 358.308 192.02C358.535 187.634 358.668 183.234 358.335 178.834C358.175 176.687 358.135 174.487 358.348 172.34C358.615 169.647 358.322 167.007 358.108 164.354C357.962 162.554 357.735 160.767 357.575 158.967C357.535 158.5 357.335 158.154 357.015 157.86" stroke="black" stroke-width="5.33331" stroke-linecap="round" stroke-linejoin="round"/>
</svg>
