<svg width="362" height="332" viewBox="0 0 362 332" fill="none" xmlns="http://www.w3.org/2000/svg">
<path d="M62.5668 101.533C56.7401 101.373 51.0467 100.173 45.3 99.293C41.1934 98.6664 37.2068 97.3331 33.0468 97.1198C28.2468 96.8665 23.5001 96.1331 18.7668 95.4931C13.9401 94.8397 9.12677 94.3064 4.27344 94.1064" stroke="#55ADE1" stroke-width="5.33333" stroke-linecap="round" stroke-linejoin="round"/>
<path d="M31.3799 33.5859C32.6199 35.1593 34.5132 35.8926 36.0199 37.1193C39.2865 39.7859 41.8731 43.1326 44.8998 46.0526C46.5398 47.6393 48.2599 49.1326 49.9532 50.6526C52.3799 52.8392 53.7664 55.9726 56.4598 57.8793C61.3264 61.3192 64.3666 66.5726 68.9132 70.2926C71.3932 72.3192 73.2598 75.1059 76.2998 76.4526" stroke="#55ADE1" stroke-width="5.33333" stroke-linecap="round" stroke-linejoin="round"/>
<path d="M98.3932 60.6928C97.4599 59.0128 96.7399 57.2128 96.5666 55.3062C95.8999 47.9862 93.5399 41.0528 91.8865 33.9595C90.3399 27.3862 88.7132 20.8262 87.0599 14.2795C86.4332 11.7995 85.5932 9.38622 85.2332 6.85289C85.1399 6.14623 84.6998 6.63952 84.4731 6.47952" stroke="#55ADE1" stroke-width="5.33333" stroke-linecap="round" stroke-linejoin="round"/>
<path d="M149.82 3.51953C145.553 10.9062 141.673 18.5195 138.046 26.2128C134.86 32.9728 131.406 39.5461 127.74 46.0261C126.166 48.7995 124.646 51.5995 123.1 54.3728" stroke="#55ADE1" stroke-width="5.33333" stroke-linecap="round" stroke-linejoin="round"/>
<path d="M37.1397 149.426C35.4064 150.08 33.5264 149.973 31.7531 150.506C25.7664 152.333 21.1931 155.706 18.7264 161.653C18.2197 162.879 17.8064 164.066 17.8464 165.386C17.9264 168.853 17.5531 172.293 19.2731 175.626C21.7664 180.493 24.6997 184.893 29.553 187.639C36.2997 191.479 42.9398 190.879 49.1931 186.519C53.4997 183.519 55.873 179.133 56.9663 174.106C57.5797 171.32 58.4997 168.519 57.9397 165.573C56.8463 159.919 54.2597 155.359 48.8464 152.746C46.8464 151.773 44.9664 150.613 42.7264 150.12C40.9397 149.733 39.1664 149.413 37.3397 149.426" stroke="#55ADE1" stroke-width="5.33333" stroke-linecap="round" stroke-linejoin="round"/>
<path d="M262.859 247.626C265.179 252.573 265.633 257.853 266.086 263.213C266.486 267.999 266.353 272.666 265.273 277.319C264.006 282.733 261.5 287.546 258.22 291.986C253.246 298.719 246.526 303.106 238.913 306.266C236.433 307.293 233.739 307.626 231.113 308.119C225.473 309.159 219.833 308.626 214.433 306.959C207.086 304.693 200.42 301.213 195.246 295.186C191.233 290.519 187.939 285.479 186.446 279.533C184.873 273.226 184.5 266.786 186.553 260.426C187.926 256.186 189.26 251.933 191.38 247.986" stroke="#55ADE1" stroke-width="5.33333" stroke-linecap="round" stroke-linejoin="round"/>
<path d="M187.687 96.7057C188.273 100.359 190.94 102.106 194.007 103.372C201.247 106.372 208.74 108.039 216.647 108.092C223.153 108.132 229.673 108.159 236.127 107.559C243.873 106.839 251.647 105.799 258.78 102.266C261.047 101.146 262.42 99.1856 263.607 97.0656C264.193 96.0256 264.1 94.9457 263.607 93.919C261.807 90.2123 259.047 87.6524 255.087 86.279C249.833 84.4524 244.38 83.999 238.927 83.3057C231.113 82.3057 223.34 83.6257 215.527 83.4123C212.193 83.319 208.953 84.479 205.687 85.1723C200.967 86.159 196.353 87.4123 192.14 89.839C190.527 90.759 189.22 91.919 188.18 93.519C187.513 94.5324 187.993 95.599 187.5 96.5324" stroke="#55ADE1" stroke-width="5.33333" stroke-linecap="round" stroke-linejoin="round"/>
<path d="M93.9398 154.986C88.6998 155.693 83.4466 155.906 78.1666 155.92C75.1132 155.92 72.4866 155.16 70.3399 152.773C67.4199 149.52 64.42 146.306 61.2466 143.32C56.86 139.186 51.4199 136.759 45.6599 135.386C40.6466 134.199 35.5 135.079 30.46 135.879C26.82 136.453 23.5533 138.04 20.4333 139.933C18.7933 140.92 16.98 141.626 15.4466 142.76C12.0466 145.293 9.56664 148.693 7.2733 152.2C6.35331 153.613 5.61996 155.146 4.84663 156.639C2.85997 160.453 2.99326 164.626 3.21992 168.706C3.67326 176.946 7.0733 184.266 11.6066 190.933C15.02 195.946 19.58 199.906 25.4333 202.159C27.7399 203.053 30.1266 203.146 32.4999 203.399C34.5266 203.626 36.5799 203.519 38.6332 203.679C40.7532 203.853 42.9666 203.199 45.1133 202.853C46.4333 202.639 47.7266 202.293 49.0333 201.999C54.2066 200.826 58.4066 198.013 62.1799 194.493C64.9932 191.879 68.1799 189.746 71.1399 187.306C72.6199 186.093 74.6466 186.053 76.4999 185.799C80.3266 185.279 84.0866 184.173 88.0066 184.493C90.1132 184.666 92.1932 185.106 94.3132 185.04" stroke="#55ADE1" stroke-width="5.33333" stroke-linecap="round" stroke-linejoin="round"/>
<path d="M173.939 244.653C170.873 248.253 170.206 252.88 168.553 257.093C166.14 263.253 165.553 269.679 166.006 276.213C166.126 277.893 166.26 279.613 167.033 281.239C169.006 285.426 169.526 290.093 171.166 294.399C172.126 296.906 172.886 299.493 174.286 301.839C176.473 305.506 179.273 308.719 181.939 312.026C187.939 319.493 196.033 323.853 204.966 326.613C208.313 327.653 211.913 328.173 215.513 328.239C218.059 328.279 220.579 328.853 223.126 328.919C232.113 329.119 240.699 327.159 249.126 324.173C253.579 322.599 257.793 320.546 261.886 318.306C265.393 316.386 268.113 313.293 271.219 310.773C276.379 306.586 279.073 300.799 281.846 294.999C283.259 292.039 284.486 288.959 286.406 286.239C288.246 283.626 290.739 282.506 293.846 282.546C295.206 282.559 296.579 282.373 297.713 281.746C299.513 280.759 299.913 278.853 299.953 276.973C300.019 273.879 299.926 270.786 299.993 267.693C300.033 266.013 299.286 264.999 297.739 264.546C295.126 263.786 292.486 263.279 289.766 263.826C289.166 263.946 288.646 264.013 287.899 263.799C287.899 256.546 287.539 249.346 283.819 242.826" stroke="#55ADE1" stroke-width="5.33333" stroke-linecap="round" stroke-linejoin="round"/>
<path d="M94.6862 168.359C98.3396 170.586 102.06 172.706 105.619 175.066C113.699 180.426 122.086 185.252 130.886 189.332C140.473 193.759 150.406 197.199 160.753 199.426C164.726 200.279 168.539 201.826 172.473 202.866C175.566 203.692 178.739 204.159 181.926 204.599C186.059 205.159 190.193 205.546 194.366 205.746C198.819 205.959 203.286 206.426 207.726 206.879C210.78 207.186 213.806 206.999 216.833 207.172C221.966 207.492 227.1 207.612 232.246 207.532C237.633 207.452 243.006 207.172 248.393 207.092C252.353 207.026 256.326 206.359 260.273 205.852C268.833 204.759 277.206 202.759 285.526 200.519C290.993 199.052 296.593 198.106 302.019 196.532C309.046 194.492 315.939 192.186 322.526 188.746C329.459 185.132 336.339 181.492 342.446 176.652C347.446 172.692 352.433 168.519 355.099 162.426C356.486 159.252 357.499 155.972 357.566 152.412C357.686 145.306 357.499 138.212 356.006 131.266C354.993 126.546 353.446 121.932 351.419 117.519C347.926 109.879 342.686 103.639 336.179 98.4124C330.633 93.9458 325.206 89.3458 319.113 85.5724C316.899 84.2124 314.526 83.2391 312.219 82.0925C306.219 79.1058 300.419 75.7058 294.033 73.5458C287.206 71.2391 280.593 68.3991 273.646 66.3725C267.099 64.4525 260.513 62.9858 253.753 62.1858C248.446 61.5592 243.126 60.9858 237.793 60.7058C231.166 60.3591 224.539 60.3858 217.926 60.5992C210.619 60.8258 203.313 61.4525 196.019 61.9325C190.059 62.3192 184.18 63.0791 178.393 64.4525C173.326 65.6658 168.339 67.0525 163.486 69.1325C158.753 71.1725 154.006 73.1992 149.246 75.1858C145.753 76.6391 142.726 78.8791 139.606 80.9591C137.886 82.1058 136.113 83.1058 134.22 83.9191C130.766 85.3991 127.953 87.8791 125.153 90.2658C122.153 92.8258 119.033 95.2525 116.38 98.1991C110.7 104.506 105.366 111.052 101.726 118.812C98.8063 125.012 97.2329 131.626 96.0062 138.306C95.0329 143.626 94.3396 149.026 94.3529 154.452C94.3529 159.026 93.8195 163.612 94.4862 168.186C94.4995 168.306 94.6063 168.466 94.5663 168.559C93.2463 171.679 94.5662 174.879 94.3129 178.026C93.9795 182.186 94.9663 186.212 95.5796 190.279C95.9396 192.679 95.9395 195.119 96.4862 197.519C97.3795 201.399 98.9929 204.879 101.553 207.892C105.766 212.852 110.953 216.612 116.34 220.226C121.713 223.826 127.286 227.092 133.139 229.706C140.326 232.906 147.54 236.132 155.006 238.706C160.606 240.639 166.326 242.132 172.06 243.612C178.02 245.146 184.073 246.066 190.073 247.279C193.02 247.879 196.033 247.826 198.993 248.359C205.006 249.452 211.126 249.346 217.193 249.759C223.286 250.172 229.446 250.092 235.553 249.759C239.939 249.532 244.366 249.626 248.739 249.079C252.899 248.559 257.019 247.679 261.179 247.279C268.779 246.572 276.153 244.826 283.433 242.732C290.246 240.759 297.073 238.666 303.646 236.012C311.153 232.999 318.806 230.239 325.913 226.372C332.339 222.866 338.966 219.612 344.699 214.932C348.339 211.959 351.553 208.479 354.446 204.839C357.299 201.252 358.206 196.692 358.446 192.106C358.673 187.719 358.806 183.319 358.473 178.919C358.313 176.772 358.273 174.572 358.486 172.426C358.753 169.732 358.459 167.092 358.246 164.439C358.099 162.639 357.873 160.852 357.713 159.052C357.673 158.586 357.473 158.239 357.153 157.946" stroke="#55ADE1" stroke-width="5.33333" stroke-linecap="round" stroke-linejoin="round"/>
</svg>
