<svg width="419" height="314" viewBox="0 0 419 314" fill="none" xmlns="http://www.w3.org/2000/svg">
<path d="M116.776 169.071C118.416 168.004 119.43 166.871 120.363 165.671C124.27 160.671 127.91 155.471 131.63 150.324C140.803 137.685 150.283 125.245 162.67 115.485C167.51 111.671 173.39 109.805 179.376 108.951C196.963 106.445 213.576 101.205 229.323 92.9114C237.256 88.738 244.469 83.7649 251.043 77.6982C253.883 75.0716 257.349 73.1782 259.749 69.9649C261.589 67.5115 263.509 65.1382 264.962 62.4182C265.456 61.4982 266.109 60.5783 267.282 61.2317C268.482 61.8983 267.909 62.9516 267.469 63.8583C265.202 68.5383 262.056 72.6849 258.189 76.0049C253.896 79.6848 249.749 83.5648 245.269 87.0048C237.216 93.1915 228.109 97.5647 218.843 101.618C206.269 107.098 193.109 110.205 179.603 112.338C173.203 113.351 167.203 115.685 162.176 120.378C155.843 126.285 149.91 132.458 144.39 139.178C136.99 148.178 131.03 158.218 123.47 167.071C121.51 169.364 121.056 171.231 122.163 174.058C123.856 178.391 124.71 183.031 126.056 187.484C127.99 193.924 126.803 199.524 122.696 204.671C121.936 205.631 121.11 206.538 120.376 207.524C119.763 208.338 118.123 208.964 118.643 209.884C119.203 210.871 120.83 210.617 122.043 210.591C127.803 210.497 132.136 206.884 136.936 204.458C145.176 200.271 152.336 194.418 159.336 188.538C165.923 182.991 171.79 176.578 177.469 170.044C181.069 165.898 184.056 161.444 186.176 156.378C187.323 153.645 189.296 153.338 190.963 155.671C191.896 156.978 193.216 157.044 194.443 157.578C201.883 160.791 208.963 158.951 216.003 156.218C217.136 155.778 218.216 155.164 219.376 154.778C221.869 153.951 222.283 154.338 223.363 156.738C224.123 158.418 225.776 159.458 227.283 160.484C235.936 166.324 245.802 168.564 255.936 169.991C266.242 171.444 276.362 170.578 286.389 167.778C293.656 165.751 299.989 161.978 306.136 157.791C307.962 156.538 309.762 155.244 311.576 153.964C312.616 153.231 313.775 152.471 314.775 153.804C315.789 155.138 314.749 156.085 313.749 156.858C303.882 164.271 293.496 170.524 281.082 172.791C272.629 174.338 264.216 174.524 255.723 173.471C253.603 173.204 251.496 172.858 249.376 172.498C248.549 172.351 248.282 172.498 248.429 173.418C249.456 179.978 249.829 186.631 251.616 193.071C251.909 194.111 252.189 194.591 253.403 194.418C256.949 193.898 260.402 193.164 263.829 191.964C273.296 188.618 282.002 183.538 291.469 180.231C292.549 179.858 293.642 179.431 294.589 178.791C302.576 173.431 310.882 168.484 317.882 161.778C320.176 159.578 323.002 158.151 325.402 156.138C333.775 149.098 341.855 141.751 349.949 134.391C351.695 132.791 353.535 131.271 355.415 129.845C368.082 120.271 378.469 108.458 388.828 96.5515C394.988 89.4715 401.642 82.7915 408.095 75.9515C410.135 73.7915 412.735 72.2049 414.775 70.0049C415.268 69.4849 415.922 68.6983 416.708 69.405C417.668 70.2583 416.708 70.9116 416.188 71.4982C415.388 72.4182 414.522 73.2848 413.642 74.1382C402.588 84.9381 392.828 96.9248 382.428 108.325C374.148 117.405 365.402 126.045 355.669 133.711C348.309 139.498 341.162 145.698 334.562 152.418C331.615 155.431 328.176 157.911 324.736 160.311C322.336 161.978 320.149 163.871 317.949 165.764C311.042 171.711 303.776 177.444 295.656 181.364C286.402 185.831 276.976 190.111 267.296 193.738C262.762 195.431 258.309 197.178 253.403 197.231C251.989 197.244 252.669 198.151 252.789 198.644C253.909 203.191 254.349 207.844 254.829 212.471C255.482 218.764 256.509 225.164 253.349 231.151C250.883 235.817 248.282 240.404 244.802 244.431C243.349 246.111 241.909 247.817 240.656 249.631C236.763 255.297 231.643 259.577 225.923 263.244C220.136 266.964 213.656 267.137 207.096 266.857C206.176 266.817 205.203 266.497 204.576 265.844C202.949 264.151 201.363 264.057 199.096 264.857C194.203 266.591 189.403 265.217 184.803 263.391C182.136 262.324 180.589 259.897 179.296 257.431C178.709 256.324 178.083 256.044 176.936 256.644C173.576 258.377 169.79 258.071 166.216 258.791C164.736 259.084 163.39 258.311 162.19 257.417C159.416 255.351 157.31 252.817 156.203 249.484C155.67 247.884 154.883 247.031 152.83 247.444C149.763 248.044 146.656 248.497 143.496 248.537C137.23 248.617 133.19 245.524 130.603 239.804C127.243 232.364 125.216 224.564 123.216 216.724C122.776 214.978 122.016 214.151 119.99 213.964C108.99 212.991 104.03 203.364 103.897 194.751C103.75 186.044 108.95 180.124 113.016 173.511C113.616 172.538 114.603 171.858 113.456 170.631C113.15 170.298 113.136 169.618 113.11 169.098C112.603 157.258 111.897 145.405 114.897 133.738C115.203 132.565 115.416 131.325 115.43 130.111C115.483 124.445 117.816 119.805 121.47 115.631C125.923 110.538 131.256 106.605 137.216 103.551C154.083 94.8982 170.856 85.9915 188.429 78.8582C203.163 72.8849 217.656 66.2982 232.469 60.5782C247.576 54.7515 262.602 48.6849 277.816 43.0983C292.509 37.6983 306.962 31.565 320.069 22.7651C321.722 21.6584 323.322 20.4452 324.749 19.0719C327.522 16.4186 330.442 13.9785 333.735 11.9651C337.175 9.85848 340.042 7.12511 342.269 3.7518C342.855 2.85847 343.562 1.73858 344.802 2.52524C346.082 3.33857 345.255 4.41853 344.722 5.32519C342.255 9.41851 338.735 12.4718 334.842 15.0984C332.162 16.9117 329.762 19.0051 327.389 21.1785C321.162 26.8451 313.869 30.8184 306.362 34.5384C286.109 44.5784 264.602 51.5383 243.656 59.8449C230.216 65.1649 217.176 71.4316 203.629 76.4049C187.656 82.2716 172.416 89.7115 157.19 97.1915C148.683 101.378 140.03 105.298 132.123 110.605C127.963 113.405 124.563 117.031 121.63 121.111C119.403 124.205 119.47 127.831 118.763 131.338C117.083 139.698 115.963 148.071 116.163 156.591C116.256 160.631 116.51 164.658 116.71 169.044L116.776 169.071ZM174.216 179.804C173.923 179.618 173.643 179.431 173.35 179.244C172.376 180.404 171.456 181.618 170.416 182.698C166.35 186.951 162.163 191.031 157.443 194.618C151.35 199.258 145.296 203.924 138.576 207.618C134.896 209.631 131.27 211.804 127.296 213.218C126.083 213.658 126.123 214.164 126.403 215.231C128.51 223.204 130.443 231.191 133.95 238.737C135.976 243.084 139.163 245.524 143.95 245.124C154.723 244.231 165.056 241.804 174.55 236.337C177.523 234.631 180.51 232.817 183.843 231.911C190.216 230.177 195.456 226.431 200.536 222.524C204.403 219.551 208.349 216.538 211.216 212.498C214.403 208.004 216.576 203.244 214.629 197.498C213.829 195.124 213.283 192.631 212.789 190.164C211.496 183.644 211.603 176.938 210.069 170.444C209.589 168.431 208.189 166.724 208.203 164.578C208.203 162.858 207.443 162.284 205.776 162.631C200.416 163.764 195.443 162.058 190.616 160.164C188.896 159.484 188.496 159.724 187.883 161.164C186.403 164.644 184.296 167.738 181.736 170.524C177.07 175.618 176.029 181.271 178.976 187.591C179.816 189.391 180.443 191.284 181.309 193.071C182.723 195.991 184.509 198.538 187.429 200.298C191.163 202.551 195.003 204.604 198.856 206.631C199.869 207.164 200.789 207.884 200.189 209.138C199.603 210.391 198.429 210.111 197.376 209.778C196.949 209.644 196.536 209.404 196.136 209.191C192.669 207.404 189.349 205.351 185.963 203.444C182.656 201.591 180.496 198.844 178.71 195.671C177.403 193.351 176.043 192.924 173.523 194.071C168.95 196.151 164.99 199.058 161.43 202.604C157.803 206.218 155.083 210.218 154.536 215.457C154.443 216.351 154.163 217.257 153.83 218.097C153.483 218.937 152.803 219.471 151.816 219.231C150.79 218.978 150.536 218.151 150.723 217.257C151.403 213.911 151.616 210.418 153.496 207.404C158.696 199.058 165.816 193.151 175.256 190.178C175.963 189.951 176.216 189.711 175.883 189.138C174.216 186.231 173.95 183.071 174.203 179.791L174.216 179.804ZM219.869 158.565C217.029 159.698 214.509 160.991 211.749 161.631C210.909 161.818 210.976 162.431 211.029 163.058C211.136 164.298 211.563 165.458 212.109 166.551C213.349 169.058 213.949 171.764 214.256 174.471C215.109 181.978 215.589 189.564 218.003 196.791C220.176 203.311 218.203 209.044 214.389 214.018C208.296 221.951 200.283 227.737 191.549 232.497C187.523 234.697 183.003 235.711 178.936 237.924C173.856 240.684 168.83 243.604 163.083 245.044C158.123 246.284 157.896 247.297 160.963 251.564C162.243 253.351 163.75 255.617 166.056 255.417C169.43 255.124 173.016 255.297 176.096 253.497C178.416 252.137 180.963 251.377 183.443 250.457C192.416 247.151 201.216 243.457 209.549 238.777C215.043 235.697 220.083 232.044 223.549 226.538C227.896 219.631 227.456 211.991 226.803 204.484C226.069 195.978 223.963 187.631 222.816 179.164C221.896 172.378 220.336 165.671 219.896 158.565H219.869ZM223.176 161.764C223.296 162.778 223.349 163.444 223.456 164.111C224.536 171.204 226.003 178.218 226.989 185.338C228.349 195.084 230.963 204.658 230.323 214.631C229.976 220.164 228.576 225.258 225.389 229.898C223.296 232.938 220.576 235.164 217.709 237.351C210.149 243.111 201.523 246.791 192.843 250.377C189.603 251.724 186.269 252.857 183.003 254.137C182.469 254.351 181.443 254.457 182.03 255.497C183.083 257.364 184.043 259.471 186.109 260.324C190.029 261.924 194.069 262.991 198.389 261.777C199.749 261.391 200.629 260.337 201.936 259.817C205.336 258.484 208.829 257.204 211.696 254.831C215.763 251.457 219.816 248.084 224.389 245.417C225.976 244.497 227.443 243.364 228.589 241.911C230.483 239.511 232.349 237.084 234.269 234.711C236.589 231.857 238.189 228.684 238.563 224.991C239.509 215.578 239.043 206.138 237.696 196.858C236.416 188.044 235.229 179.178 233.056 170.484C232.549 168.458 232.043 166.884 229.963 165.898C227.709 164.831 225.669 163.311 223.163 161.764H223.176ZM205.589 261.871C206.216 263.084 207.163 263.497 208.149 263.511C213.376 263.604 218.616 263.551 223.283 260.751C227.216 258.391 231.123 255.857 234.056 252.271C238.216 247.177 242.602 242.231 246.136 236.697C248.909 232.364 252.016 228.044 252.002 222.497C251.989 215.911 251.376 209.351 250.189 202.884C249.176 197.404 248.069 191.951 246.856 186.511C245.829 181.911 246.029 177.084 244.976 172.444C244.856 171.938 245.016 171.204 244.376 171.098C241.496 170.591 238.776 169.418 235.856 168.644C235.709 170.591 236.296 172.098 236.683 173.644C237.043 175.044 237.416 176.458 237.629 177.884C238.309 182.338 238.629 186.844 239.856 191.204C240.629 193.938 240.896 196.751 241.016 199.591C241.123 202.111 241.456 204.604 241.643 207.124C242.109 213.311 242.416 219.564 241.469 225.671C240.029 235.031 234.162 242.191 226.923 247.417C219.976 252.431 213.963 258.937 205.589 261.897V261.871ZM117.403 173.964C115.83 175.138 114.95 176.471 114.11 177.831C112.723 180.111 111.377 182.418 110.017 184.724C106.19 191.204 106.416 197.711 109.923 204.204C110.456 205.204 111.163 206.124 111.883 207.004C112.59 207.871 113.296 207.884 114.163 207.004C116.736 204.378 119.123 201.658 121.016 198.458C122.243 196.378 122.603 194.311 122.19 192.111C121.03 186.044 119.43 180.098 117.403 173.978V173.964Z" fill="black" stroke="black" stroke-width="2.66665" stroke-miterlimit="10"/>
<path d="M360.669 313.217C350.762 313.163 341.349 312.923 331.962 311.977C321.789 310.95 311.602 311.59 301.429 311.83C294.909 311.977 288.415 311.683 281.922 311.23C275.802 310.803 269.656 310.843 263.562 311.323C255.149 311.99 246.722 310.95 238.336 311.577C228.362 312.31 218.469 310.737 208.536 310.737C195.603 310.737 182.669 311.163 169.736 311.11C152.056 311.03 134.376 310.67 116.71 310.443C115.256 310.43 113.79 310.417 112.35 310.55C101.43 311.617 90.4565 310.79 79.5499 311.59C68.9633 312.377 58.43 310.417 47.8967 311.163C33.3368 312.177 18.8168 310.39 4.2835 311.043C3.75017 311.07 3.20357 311.083 2.68358 311.043C1.32358 310.91 0.323542 310.243 0.136876 308.83C-0.0631232 307.417 0.776905 306.523 2.00357 306.003C3.15023 305.523 4.37684 305.47 5.61683 305.43C13.9635 305.15 22.2968 305.63 30.6301 305.95C41.03 306.35 51.4433 305.017 61.8299 306.017C73.5499 307.15 85.2298 305.723 96.9364 305.857C106.963 305.963 116.95 304.67 126.99 305.07C133.416 305.324 139.829 305.897 146.256 305.683C159.043 305.27 171.816 305.95 184.589 305.817C198.643 305.683 212.723 305.084 226.789 306.55C233.362 307.23 240.096 306.097 246.736 306.337C261.642 306.857 276.562 305.084 291.482 306.55C296.109 307.003 300.829 306.803 305.482 306.483C316.829 305.723 328.122 306.35 339.429 307.123C352.028 308.003 364.668 308.097 377.295 307.777C381.642 307.67 385.962 306.83 390.215 305.803C391.895 305.403 393.602 305.19 394.242 307.19C394.868 309.163 393.415 310.163 391.788 310.71C385.482 312.83 378.948 313.523 372.335 313.483C368.282 313.457 364.228 313.017 360.655 313.217H360.669Z" fill="black"/>
<path d="M145.67 283.537C145.71 285.95 143.523 287.537 140.963 286.87C137.71 286.03 134.416 285.23 131.27 284.083C121.216 280.444 110.803 277.804 100.99 273.47C99.1099 272.644 97.0832 272.124 95.1632 271.39C92.3766 270.324 91.1633 268.35 91.8433 266.177C92.5366 263.977 94.6166 263.177 97.5499 263.897C100.163 264.537 102.616 265.59 105.11 266.577C115.336 270.67 125.87 273.87 136.27 277.47C138.576 278.27 140.936 278.95 143.123 280.097C144.563 280.857 145.55 281.937 145.683 283.537H145.67Z" fill="black"/>
<path d="M299.709 292.83C298.376 292.83 297.456 292.924 296.549 292.817C294.696 292.577 293.376 291.59 293.176 289.644C292.962 287.59 294.109 286.297 295.989 285.737C297.069 285.417 298.242 285.39 299.376 285.23C306.722 284.257 314.216 284.604 321.496 283.217C328.629 281.87 335.762 280.524 342.949 279.524C343.855 279.404 344.776 279.284 345.682 279.31C348.162 279.35 349.896 280.777 350.082 282.804C350.256 284.804 348.762 286.59 346.322 286.977C343.002 287.51 339.656 287.884 336.322 288.297C329.576 289.15 322.989 291.044 316.176 291.404C310.522 291.71 304.896 292.23 299.696 292.844L299.709 292.83Z" fill="black"/>
<path d="M301.829 239.164C301.696 240.738 300.789 241.791 299.576 242.698C288.042 251.311 275.309 258.044 263.336 265.977C262.829 266.311 262.269 266.591 261.696 266.791C259.602 267.537 257.602 266.897 256.682 265.244C255.762 263.577 256.216 261.497 258.016 260.177C260.482 258.377 263.042 256.697 265.602 255.031C274.762 249.098 284.562 244.164 293.282 237.511C294.429 236.644 295.656 235.818 297.122 235.511C299.669 234.978 301.896 236.711 301.829 239.151V239.164Z" fill="black"/>
<path d="M114.337 254.444C114.403 256.697 112.403 258.39 110.003 258.017C108.323 257.764 106.737 257.137 105.27 256.31C95.9766 251.137 86.1634 246.977 76.9768 241.617C74.2034 240.004 71.3635 238.47 68.7102 236.684C66.5635 235.244 66.1234 233.057 67.2834 231.324C68.4968 229.484 70.6702 229.257 73.2168 230.671C78.4835 233.631 83.6968 236.71 89.0568 239.497C96.2434 243.23 103.55 246.75 110.817 250.324C112.617 251.204 114.163 252.217 114.35 254.43L114.337 254.444Z" fill="black"/>
<path d="M87.5768 293.924C81.0435 292.51 73.3235 292.03 65.7236 290.617C61.5236 289.844 57.2435 289.457 53.0036 288.95C51.4036 288.764 49.8035 288.604 48.2969 287.99C46.0036 287.057 44.8836 285.164 45.377 283.164C45.8836 281.097 47.6435 279.844 50.1235 280.15C57.1768 281.017 64.2436 281.684 71.2302 283.084C77.1502 284.27 83.1102 285.19 89.0835 286.044C92.3635 286.51 94.1767 287.857 94.0434 290.27C93.8967 292.657 91.9101 294.017 87.5768 293.91V293.924Z" fill="black"/>
<path d="M244.149 289.471C242.469 289.471 241.296 288.844 240.656 287.444C239.976 285.951 240.362 284.604 241.469 283.444C242.229 282.657 243.216 282.204 244.229 281.857C246.389 281.111 248.549 280.311 250.749 279.671C256.189 278.111 261.576 276.431 266.469 273.471C268.696 272.124 271.176 271.297 273.669 270.524C275.869 269.844 277.962 268.937 279.909 267.671C280.669 267.177 281.522 266.764 282.389 266.497C284.442 265.857 286.322 266.617 287.082 268.271C287.856 269.951 287.256 271.844 285.376 272.977C283.096 274.364 280.789 275.791 278.216 276.537C273.722 277.857 269.469 279.737 265.322 281.897C258.976 285.204 251.896 286.524 245.336 289.257C244.922 289.431 244.442 289.417 244.149 289.457V289.471Z" fill="black"/>
<path d="M70.2035 260.524C69.8302 260.43 69.0568 260.337 68.3501 260.084C62.0168 257.79 55.4436 256.404 48.8703 254.977C46.4836 254.457 44.0969 253.804 42.0036 252.524C40.3503 251.51 39.5503 249.937 40.217 248.017C40.9236 246.004 42.6568 245.004 44.5902 245.59C53.1235 248.19 62.1102 249.177 70.3501 252.79C71.1235 253.124 71.8834 253.484 72.59 253.937C74.0567 254.91 74.8301 256.23 74.2967 258.03C73.8301 259.617 72.4435 260.524 70.2168 260.524H70.2035Z" fill="black"/>
<path d="M329.975 255.298C329.882 257.298 328.495 258.445 326.695 259.151C321.282 261.258 315.922 263.498 310.322 265.098C308.042 265.751 305.802 266.538 303.495 267.084C301.295 267.604 299.576 266.645 299.056 264.871C298.536 263.085 299.415 261.364 301.615 260.618C309.442 257.978 317.295 255.458 324.829 252.031C327.375 250.871 329.949 252.631 329.975 255.298Z" fill="black"/>
<path d="M328.655 218.951C328.668 220.271 328.082 221.338 327.082 222.124C322.789 225.431 318.482 228.711 314.162 231.978C313.735 232.298 313.242 232.524 312.762 232.751C310.682 233.711 308.842 233.391 307.882 231.804C306.749 229.911 307.295 228.164 308.882 226.911C313.375 223.364 317.882 219.831 322.535 216.498C325.349 214.484 328.615 215.938 328.668 218.951H328.655Z" fill="black"/>
</svg>
