<svg width="468" height="309" viewBox="0 0 468 309" fill="none" xmlns="http://www.w3.org/2000/svg">
<path d="M462.782 105.165C457.222 83.592 445.929 65.7255 428.129 52.0322C414.796 41.7923 398.929 37.6188 383.329 32.7522C377.156 30.8322 370.889 29.2457 364.743 27.2057C358.676 25.1923 352.623 23.0057 346.423 21.539C341.569 20.3924 336.809 19.0723 332.182 17.2589C330.796 16.7123 329.356 16.2591 327.903 15.8857C317.943 13.3391 307.943 10.739 298.249 7.47236C284.556 2.85905 270.676 2.01908 256.53 2.16575C249.85 2.23241 243.17 2.41901 236.503 2.76568C232.596 2.96568 228.716 3.16572 224.983 4.31238C211.637 8.4057 200.25 15.9123 189.81 24.9389C182.41 31.3389 176.317 39.0189 169.917 46.3656C163.343 53.8989 157.65 62.0722 153.53 71.2055C149.263 80.6321 144.904 90.0187 141.984 99.9919C141.05 103.192 139.983 106.352 138.61 109.405C135.05 117.312 133.717 125.645 133.717 134.245C133.717 136.365 133.637 138.458 133.41 140.565C132.53 148.752 131.504 156.938 132.13 165.192C132.65 172.085 132.477 178.965 132.277 185.845C132.157 189.792 131.85 193.725 130.77 197.578C129.97 200.445 128.757 203.071 126.93 205.418C126.01 206.605 125.117 206.951 123.77 205.725C121.744 203.885 119.277 202.738 116.704 201.725C107.65 198.152 98.4904 194.752 90.3571 189.218C88.5438 187.992 86.5971 187.032 84.6505 186.032C75.4905 181.338 66.424 176.418 57.8241 170.792C52.2108 167.125 46.984 166.992 41.024 169.192C34.2374 171.712 28.5975 175.938 23.1175 180.432C15.4242 186.751 10.0242 194.592 7.7309 204.405C6.53091 209.538 5.86403 214.725 5.51737 219.965C5.23737 224.111 4.11765 227.831 2.13099 231.085C2.13099 232.338 2.10433 233.591 2.13099 234.845C2.66432 234.191 3.18419 233.525 3.66419 232.805C6.87751 228.085 7.65082 222.738 7.98415 217.258C8.29082 212.125 9.25075 207.125 10.5841 202.191C10.8907 201.071 11.2374 200.258 12.5974 201.178C13.0241 201.458 13.7175 201.578 14.0509 200.991C14.4109 200.365 13.8775 199.911 13.3975 199.698C11.7975 199.018 12.1575 198.045 12.6641 196.765C15.5175 189.458 21.1176 184.405 27.1175 179.911C31.7308 176.458 36.5308 173.138 42.1308 171.258C44.0241 170.632 45.9039 170.098 47.8638 169.872C50.4772 169.565 52.7973 170.338 55.024 171.738C64.4773 177.698 74.1973 183.205 84.1573 188.271C86.4106 189.418 88.5838 190.698 90.6905 192.072C98.4504 197.152 107.117 200.298 115.65 203.698C118.557 204.858 121.13 206.378 123.53 208.298C129.29 212.925 135.984 216.111 142.09 220.205C145.197 222.285 148.61 223.805 151.757 225.871C149.277 225.445 146.824 224.858 144.33 224.605C136.264 223.805 128.73 225.445 121.93 229.951C118.117 232.485 115.85 236.351 113.61 240.178C111.65 243.525 110.397 247.245 108.17 250.471C106.984 249.498 105.797 248.525 104.597 247.565C104.144 247.205 103.624 246.951 103.144 247.498C102.704 248.005 102.917 248.525 103.317 248.965C104.157 249.871 105.077 250.898 106.224 251.165C107.877 251.538 107.437 252.271 107.197 253.391C106.357 257.258 105.89 261.151 106.45 265.151C107.277 271.164 104.877 276.418 101.93 281.378C95.917 291.511 86.6771 298.071 76.3038 302.898C68.7305 306.418 61.7572 303.738 55.3173 299.004C49.1973 294.524 46.104 288.071 43.7174 281.338C40.8641 273.284 35.9172 267.058 29.1973 262.058C28.4373 261.485 27.6375 260.831 26.7575 260.591C22.4775 259.404 19.1173 256.458 15.1973 254.631C10.8374 252.605 6.62432 250.351 2.47767 247.965C2.50434 248.671 2.53076 249.365 2.55742 250.071C5.89074 251.991 9.30403 253.791 12.864 255.325C13.4107 255.565 13.9309 255.885 14.4776 256.405C10.5843 256.245 7.02432 257.445 3.47767 258.685C3.27767 258.751 3.09075 258.831 2.89075 258.898C2.91742 259.778 2.94417 260.671 2.97083 261.551C8.30414 259.431 13.5307 257.725 19.584 260.058C26.0773 262.565 31.4639 266.231 35.8773 271.524C38.0106 274.084 39.464 276.991 40.624 280.044C42.5173 285.018 44.7308 289.818 47.4775 294.391C47.5708 294.538 47.5573 294.738 47.6506 295.191C32.264 285.431 18.0775 274.311 3.03756 264.298C3.06423 265.151 3.07762 266.018 3.09095 266.871C9.39759 271.245 15.8776 275.391 22.1042 279.884C33.8108 288.364 45.6106 296.711 58.2772 303.724C64.2238 307.018 70.797 308.138 77.1703 305.164C86.277 300.924 94.5172 295.284 100.744 287.258C106.464 279.898 110.024 271.831 108.557 262.045C107.997 258.271 108.797 254.271 110.77 250.778C112.05 248.525 113.237 246.231 114.317 243.871C115.25 241.818 116.33 239.858 117.69 238.045C118.197 237.365 118.544 237.071 119.477 237.498C134.944 244.551 149.61 253.045 163.93 262.178C168.703 265.218 172.983 268.938 178.023 271.618C186.797 276.284 195.93 279.751 205.717 281.578C211.317 282.618 216.97 283.031 222.223 280.831C236.41 274.898 243.556 261.738 242.33 247.338C241.81 241.245 240.996 235.165 240.263 228.618C250.876 234.805 262.036 238.645 272.756 243.498C279.023 246.338 285.543 248.658 291.436 252.231C310.716 263.898 331.609 267.778 353.769 265.004C375.622 262.271 395.129 253.604 412.382 240.085C439.569 218.765 456.875 191.165 463.835 157.245C467.408 139.818 467.249 122.378 462.795 105.112L462.782 105.165ZM174.25 267.151C164.117 259.711 153.397 253.271 142.41 247.205C135.37 243.311 128.344 239.458 120.957 236.271C119.73 235.738 119.557 235.245 120.53 234.271C124.61 230.231 129.637 228.058 135.197 227.231C147.783 225.365 158.517 229.511 167.85 237.791C171.73 241.231 175.41 244.818 178.397 249.151C180.65 252.431 182.263 255.818 182.943 259.711C183.863 264.978 185.343 270.058 188.623 274.538C183.677 272.245 178.597 270.324 174.263 267.138L174.25 267.151ZM227.023 275.751C220.41 280.431 213.33 280.978 205.783 279.258C202.41 278.498 199.063 277.764 195.77 276.511C191.45 274.858 189.13 271.698 187.45 267.791C186.517 265.604 185.69 263.338 185.437 260.951C184.69 253.805 180.943 248.165 176.37 243.018C173.117 239.365 169.584 235.965 166.117 232.511C161.904 228.311 156.664 225.645 151.397 223.098C145.797 220.378 140.53 217.138 135.317 213.765C132.917 212.218 130.397 210.858 127.944 209.365C127.384 209.018 126.704 208.671 127.597 207.845C131.304 204.431 132.624 199.858 133.637 195.151C134.237 192.405 134.37 189.618 134.477 186.818C134.824 178.085 134.744 169.378 133.97 160.672C133.784 158.512 134.25 156.365 134.424 154.205C134.904 148.432 135.277 142.658 135.837 136.898C136.143 133.779 135.517 130.632 136.077 127.512C136.197 126.845 136.197 126.152 136.69 125.379C138.37 126.459 139.997 127.445 141.957 127.645C142.503 127.712 143.17 127.778 143.317 127.112C143.45 126.565 142.864 126.312 142.45 126.125C140.97 125.432 139.544 124.525 137.984 124.165C136.73 123.872 136.81 123.272 136.984 122.472C137.757 118.885 138.183 115.232 139.837 111.859C142.703 106.032 143.957 99.6052 146.357 93.6053C151.037 81.912 155.49 70.0854 162.557 59.5255C166.317 53.9122 170.637 48.7255 175.103 43.6455C181.77 36.0589 188.33 28.3523 196.397 22.179C203.783 16.539 211.743 11.7657 220.223 7.95234C224.73 5.92568 229.57 5.11239 234.516 4.81906C243.436 4.29906 252.37 3.8324 261.29 3.9924C273.41 4.20573 285.53 4.64565 297.076 9.24563C301.863 11.1523 307.103 11.6856 312.063 13.2456C321.609 16.2456 331.129 19.419 340.769 21.979C350.716 24.619 360.409 27.9523 370.262 30.8456C373.636 31.8323 377.022 32.7656 380.302 34.1256C375.476 34.0056 370.676 33.8856 365.876 34.219C346.409 35.539 328.436 41.5922 312.023 51.9655C281.396 71.312 261.316 98.6452 251.396 133.432C248.943 142.045 247.743 150.885 246.996 159.818C246.423 166.592 244.85 173.245 243.49 179.925C241.637 189.005 240.65 198.232 239.263 207.391C237.983 215.871 237.53 224.351 238.49 232.858C239.117 238.338 240.116 243.791 240.196 249.311C240.343 260.324 236.25 269.218 227.036 275.724L227.023 275.751ZM261.636 236.805C254.716 234.098 248.036 230.898 241.543 227.271C240.53 226.711 240.143 226.085 240.117 224.911C239.957 219.098 240.663 213.365 241.356 207.605C242.396 198.938 243.783 190.338 245.09 181.725C245.476 179.205 246.156 176.712 246.863 174.232C249.223 202.218 259.61 226.231 280.996 245.045C274.57 242.165 268.156 239.365 261.636 236.818V236.805ZM437.915 209.845C423.675 229.671 405.516 244.831 382.916 254.298C359.462 264.138 335.369 266.524 311.023 258.151C282.756 248.431 264.503 228.511 254.97 200.458C249.196 183.472 248.143 165.978 251.023 148.325C257.05 111.312 275.409 81.672 305.529 59.4988C325.329 44.9255 347.609 36.9788 372.422 36.9122C408.622 36.8055 440.502 57.8455 454.769 91.192C460.795 105.272 463.422 119.992 463.249 137.672C462.582 162.752 453.902 187.578 437.915 209.831V209.845Z" fill="black" stroke="black" stroke-width="2.66665" stroke-miterlimit="10"/>
<path d="M397.476 148.032C397.422 157.458 395.742 166.511 391.036 174.778C383.556 187.898 372.396 195.551 357.116 195.911C338.956 196.338 323.769 183.725 320.689 165.765C317.729 148.485 323.956 134.245 336.609 122.685C344.502 115.472 353.889 111.272 364.702 110.952C381.009 110.458 393.449 120.632 396.502 136.672C397.222 140.445 397.476 144.232 397.489 148.058L397.476 148.032ZM395.462 148.365C395.502 144.712 395.089 141.138 394.315 137.592C390.595 120.445 375.689 110.685 358.569 114.472C342.769 117.978 332.009 127.725 326.063 142.552C320.969 155.245 321.663 167.792 329.716 179.205C341.782 196.285 366.329 197.991 381.782 182.978C391.516 173.511 395.169 161.592 395.462 148.365Z" fill="black" stroke="black" stroke-width="2.66665" stroke-miterlimit="10"/>
<path d="M171.196 138.485C169.77 138.392 168.357 138.218 167.05 137.618C166.57 137.405 166.237 137.072 166.477 136.512C166.663 136.072 167.063 136.018 167.503 136.125C168.81 136.445 170.13 136.752 171.437 137.098C171.957 137.232 172.61 137.365 172.41 138.098C172.25 138.658 171.65 138.525 171.183 138.485H171.196Z" fill="black" stroke="black" stroke-width="2.66665" stroke-miterlimit="10"/>
<path d="M223.823 157.658C224.716 158.272 225.863 158.885 226.796 159.751C227.329 160.258 226.796 160.872 226.156 160.738C224.969 160.485 223.809 160.031 222.943 159.098C222.716 158.858 222.569 158.525 222.756 158.165C222.929 157.832 223.196 157.672 223.809 157.658H223.823Z" fill="black" stroke="black" stroke-width="2.66665" stroke-miterlimit="10"/>
<path d="M212.05 154.631C211.997 154.725 211.943 154.965 211.797 155.045C211.103 155.418 210.463 155.124 209.89 154.751C209.063 154.231 207.903 154.045 207.69 152.845C207.65 152.645 207.863 152.325 208.063 152.191C208.717 151.778 212.01 153.738 212.05 154.631Z" fill="black" stroke="black" stroke-width="2.66665" stroke-miterlimit="10"/>
<path d="M190.57 145.205C191.716 145.618 192.983 145.765 193.783 146.805C193.877 146.925 193.743 147.445 193.61 147.498C192.33 148.018 191.29 147.072 190.13 146.845C189.597 146.738 189.09 146.352 189.33 145.658C189.543 145.058 190.116 145.272 190.57 145.205Z" fill="black" stroke="black" stroke-width="2.66665" stroke-miterlimit="10"/>
<path d="M216.209 154.765C217.183 155.392 218.61 155.592 219.156 156.859C219.396 157.432 218.729 157.685 218.263 157.592C216.996 157.352 215.729 156.965 215.236 155.605C215.049 155.099 215.583 154.805 216.223 154.752L216.209 154.765Z" fill="black" stroke="black" stroke-width="2.66665" stroke-miterlimit="10"/>
<path d="M232.956 163.019C232.023 162.605 230.716 162.645 230.623 161.219C230.583 160.685 231.143 160.338 231.623 160.578C232.583 161.072 234.01 161.152 234.25 162.445C234.383 163.125 233.45 162.885 232.943 163.019H232.956Z" fill="black" stroke="black" stroke-width="2.66665" stroke-miterlimit="10"/>
<path d="M202.357 150.605C202.397 150.965 202.077 151.085 201.743 151.152C200.97 151.285 199.037 149.979 199.09 149.365C199.13 148.912 199.383 148.645 199.863 148.632C200.503 148.619 202.317 149.965 202.357 150.605Z" fill="black" stroke="black" stroke-width="2.66665" stroke-miterlimit="10"/>
<path d="M238.183 162.911C238.823 163.271 239.943 163.231 240.077 164.325C240.183 165.138 239.41 165.058 238.903 164.978C238.09 164.871 237.223 164.671 237.117 163.658C237.05 163.058 237.516 162.871 238.183 162.911Z" fill="black" stroke="black" stroke-width="2.66665" stroke-miterlimit="10"/>
<path d="M183.29 142.392C184.116 142.738 185.236 142.792 185.556 143.832C185.756 144.485 185.036 144.618 184.596 144.458C183.756 144.138 182.57 144.231 182.29 143.085C182.13 142.418 182.77 142.405 183.29 142.392Z" fill="black" stroke="black" stroke-width="2.66665" stroke-miterlimit="10"/>
<path d="M152.717 130.618C152.104 130.552 151.45 130.485 151.37 129.725C151.317 129.138 151.81 128.885 152.303 128.992C152.93 129.112 153.73 129.205 153.757 130.072C153.77 130.725 153.184 130.658 152.704 130.632L152.717 130.618Z" fill="black" stroke="black" stroke-width="2.66665" stroke-miterlimit="10"/>
<path d="M63.7175 227.365C64.0508 227.511 64.5173 227.645 64.9307 227.871C67.4907 229.271 70.0373 230.684 72.584 232.111C73.1039 232.404 73.8641 232.698 73.4375 233.444C73.0908 234.044 72.4774 233.591 71.984 233.405C68.984 232.271 66.2642 230.604 63.4375 229.125C62.9442 228.871 62.5309 228.471 62.7975 227.805C62.9442 227.445 63.2508 227.338 63.7308 227.338L63.7175 227.365Z" fill="black" stroke="black" stroke-width="2.66665" stroke-miterlimit="10"/>
<path d="M41.5439 215.365C41.3839 216.151 40.9173 216.244 40.3307 215.938C38.4507 214.964 36.5974 213.978 34.7307 212.991C34.2641 212.738 33.9973 212.338 34.2773 211.818C34.4906 211.418 34.8773 211.258 35.3173 211.418C37.5173 212.218 39.5573 213.271 41.2906 214.871C41.4239 215.005 41.4772 215.218 41.5572 215.365H41.5439Z" fill="black" stroke="black" stroke-width="2.66665" stroke-miterlimit="10"/>
<path d="M49.1439 219.858C51.0639 220.325 53.1571 221.045 55.0638 222.245C55.3838 222.445 55.5305 222.752 55.3971 223.112C55.2238 223.605 54.7571 223.618 54.3838 223.498C52.3971 222.832 50.4372 222.138 48.4639 221.432C48.0639 221.285 47.7172 220.992 47.7972 220.538C47.9039 219.992 48.3439 219.818 49.1305 219.872L49.1439 219.858Z" fill="black" stroke="black" stroke-width="2.66665" stroke-miterlimit="10"/>
<path d="M26.1705 208.312C25.9572 208.205 25.6507 208.058 25.3574 207.898C23.9707 207.178 22.5839 206.485 21.2106 205.738C20.7439 205.485 20.2105 205.138 20.5039 204.472C20.7839 203.858 21.3039 203.872 21.8906 204.112C23.5439 204.765 25.1174 205.525 26.4374 206.765C26.7441 207.058 26.9705 207.378 26.8639 207.832C26.7972 208.125 26.5838 208.285 26.1705 208.325V208.312Z" fill="black" stroke="black" stroke-width="2.66665" stroke-miterlimit="10"/>
<path d="M95.6768 243.697C97.2368 244.737 99.1835 245.417 100.743 246.777C101.023 247.031 101.063 247.391 100.85 247.697C100.623 248.031 100.303 247.964 99.9434 247.857C98.17 247.311 96.5702 246.444 95.0769 245.351C94.6902 245.071 94.3568 244.684 94.6634 244.137C94.8368 243.817 95.1301 243.657 95.6768 243.697Z" fill="black" stroke="black" stroke-width="2.66665" stroke-miterlimit="10"/>
<path d="M88.6503 241.044C88.517 241.711 88.0102 241.711 87.5702 241.484C85.8902 240.618 84.3703 239.484 82.9303 238.257C82.6236 237.991 82.4371 237.591 82.7438 237.178C82.9571 236.884 83.2903 236.698 83.6236 236.858C85.517 237.791 87.1169 239.111 88.5569 240.631C88.6369 240.711 88.6103 240.884 88.637 241.031L88.6503 241.044Z" fill="black" stroke="black" stroke-width="2.66665" stroke-miterlimit="10"/>
</svg>
