<svg width="420" height="314" viewBox="0 0 420 314" fill="none" xmlns="http://www.w3.org/2000/svg">
<path d="M117.9 168.145C119.54 167.078 120.553 165.945 121.486 164.745C125.393 159.745 129.033 154.545 132.753 149.398C141.926 136.758 151.406 124.318 163.793 114.558C168.633 110.745 174.513 108.878 180.5 108.025C198.086 105.518 214.699 100.278 230.446 91.985C238.379 87.8117 245.593 82.8384 252.166 76.7717C255.006 74.1451 258.473 72.2518 260.873 69.0384C262.713 66.5851 264.633 64.2117 266.086 61.4917C266.58 60.5717 267.233 59.6517 268.406 60.305C269.606 60.9717 269.033 62.0251 268.593 62.9318C266.326 67.6117 263.179 71.7584 259.313 75.0784C255.019 78.7584 250.873 82.6384 246.393 86.0784C238.34 92.265 229.233 96.6384 219.966 100.692C207.393 106.172 194.233 109.278 180.726 111.412C174.326 112.425 168.326 114.758 163.3 119.452C156.966 125.358 151.033 131.532 145.513 138.252C138.113 147.252 132.153 157.292 124.593 166.145C122.633 168.438 122.18 170.305 123.286 173.132C124.98 177.465 125.833 182.105 127.18 186.558C129.113 192.998 127.926 198.598 123.82 203.745C123.06 204.705 122.233 205.612 121.5 206.598C120.886 207.412 119.246 208.038 119.766 208.958C120.326 209.945 121.953 209.692 123.166 209.665C128.926 209.572 133.26 205.958 138.06 203.532C146.3 199.345 153.46 193.492 160.46 187.612C167.046 182.065 172.913 175.652 178.593 169.118C182.193 164.972 185.18 160.518 187.3 155.452C188.446 152.718 190.42 152.412 192.086 154.745C193.02 156.052 194.34 156.118 195.566 156.652C203.006 159.865 210.086 158.025 217.126 155.292C218.259 154.852 219.34 154.238 220.5 153.852C222.993 153.025 223.406 153.412 224.486 155.812C225.246 157.492 226.9 158.532 228.406 159.558C237.06 165.398 246.926 167.638 257.06 169.065C267.366 170.518 277.486 169.652 287.513 166.852C294.779 164.825 301.113 161.052 307.259 156.865C309.086 155.612 310.886 154.318 312.699 153.038C313.739 152.305 314.899 151.545 315.899 152.878C316.913 154.212 315.873 155.158 314.873 155.932C305.006 163.345 294.619 169.598 282.206 171.865C273.753 173.412 265.339 173.598 256.846 172.545C254.726 172.278 252.619 171.932 250.499 171.572C249.673 171.425 249.406 171.572 249.553 172.492C250.58 179.052 250.953 185.705 252.74 192.145C253.033 193.185 253.313 193.665 254.526 193.492C258.073 192.972 261.526 192.238 264.953 191.038C274.419 187.692 283.126 182.612 292.593 179.305C293.673 178.932 294.766 178.505 295.713 177.865C303.699 172.505 312.006 167.558 319.006 160.852C321.299 158.652 324.126 157.225 326.526 155.212C334.899 148.172 342.979 140.825 351.073 133.465C352.819 131.865 354.659 130.345 356.539 128.918C369.206 119.345 379.593 107.532 389.953 95.625C396.113 88.545 402.766 81.8651 409.219 75.0251C411.259 72.8651 413.859 71.2784 415.899 69.0784C416.393 68.5584 417.046 67.7717 417.833 68.4784C418.793 69.3317 417.833 69.9851 417.313 70.5717C416.513 71.4917 415.646 72.3584 414.766 73.2117C403.713 84.0117 393.953 95.9984 383.553 107.398C375.273 116.478 366.526 125.118 356.793 132.785C349.433 138.572 342.286 144.772 335.686 151.492C332.739 154.505 329.299 156.985 325.859 159.385C323.459 161.052 321.273 162.945 319.073 164.838C312.166 170.785 304.899 176.518 296.779 180.438C287.526 184.905 278.1 189.185 268.42 192.812C263.886 194.505 259.433 196.252 254.526 196.305C253.113 196.318 253.793 197.225 253.913 197.718C255.033 202.265 255.473 206.918 255.953 211.545C256.606 217.838 257.633 224.238 254.473 230.225C252.006 234.892 249.406 239.478 245.926 243.505C244.473 245.185 243.033 246.892 241.779 248.705C237.886 254.372 232.766 258.652 227.046 262.318C221.26 266.038 214.78 266.211 208.22 265.931C207.3 265.891 206.326 265.571 205.7 264.918C204.073 263.225 202.486 263.132 200.22 263.931C195.326 265.665 190.526 264.292 185.926 262.465C183.259 261.398 181.713 258.972 180.42 256.505C179.833 255.398 179.206 255.118 178.06 255.718C174.7 257.452 170.913 257.145 167.34 257.865C165.86 258.158 164.513 257.385 163.313 256.492C160.54 254.425 158.433 251.892 157.326 248.558C156.793 246.958 156.006 246.105 153.953 246.518C150.886 247.118 147.78 247.572 144.62 247.612C138.353 247.692 134.313 244.598 131.726 238.878C128.366 231.438 126.34 223.638 124.34 215.798C123.9 214.052 123.14 213.225 121.113 213.038C110.113 212.065 105.153 202.438 105.02 193.825C104.873 185.118 110.073 179.198 114.14 172.585C114.74 171.612 115.726 170.932 114.58 169.705C114.273 169.372 114.26 168.692 114.233 168.172C113.726 156.332 113.02 144.478 116.02 132.812C116.326 131.638 116.54 130.398 116.553 129.185C116.606 123.518 118.94 118.878 122.593 114.705C127.046 109.612 132.38 105.678 138.34 102.625C155.206 93.9717 171.98 85.0651 189.553 77.9317C204.286 71.9584 218.779 65.3717 233.593 59.6517C248.699 53.8251 263.726 47.7584 278.939 42.1718C293.633 36.7718 308.086 30.6384 321.193 21.8384C322.846 20.7318 324.446 19.5184 325.873 18.1451C328.646 15.4918 331.566 13.0518 334.859 11.0385C338.299 8.93182 341.166 6.19844 343.393 2.82511C343.979 1.93178 344.686 0.811805 345.926 1.59847C347.206 2.4118 346.379 3.49177 345.846 4.39844C343.379 8.49177 339.859 11.5451 335.966 14.1718C333.286 15.9851 330.886 18.0784 328.513 20.2518C322.286 25.9184 314.993 29.8918 307.486 33.6118C287.233 43.6518 265.726 50.6117 244.779 58.9184C231.339 64.2384 218.3 70.505 204.753 75.4784C188.78 81.345 173.54 88.7851 158.313 96.2651C149.806 100.452 141.153 104.372 133.246 109.678C129.086 112.478 125.686 116.105 122.753 120.185C120.526 123.278 120.593 126.905 119.886 130.412C118.206 138.772 117.086 147.145 117.286 155.665C117.38 159.705 117.633 163.732 117.833 168.118L117.9 168.145ZM175.34 178.878C175.046 178.692 174.766 178.505 174.473 178.318C173.5 179.478 172.58 180.692 171.54 181.772C167.473 186.025 163.286 190.105 158.566 193.692C152.473 198.332 146.42 202.998 139.7 206.692C136.02 208.705 132.393 210.878 128.42 212.292C127.206 212.732 127.246 213.238 127.526 214.305C129.633 222.278 131.566 230.265 135.073 237.812C137.1 242.158 140.286 244.598 145.073 244.198C155.846 243.305 166.18 240.878 175.673 235.412C178.646 233.705 181.633 231.892 184.966 230.985C191.34 229.252 196.58 225.505 201.66 221.598C205.526 218.625 209.473 215.612 212.34 211.572C215.526 207.078 217.7 202.318 215.753 196.572C214.953 194.198 214.406 191.705 213.913 189.238C212.62 182.718 212.726 176.012 211.193 169.518C210.713 167.505 209.313 165.798 209.326 163.652C209.326 161.932 208.566 161.358 206.9 161.705C201.54 162.838 196.566 161.132 191.74 159.238C190.02 158.558 189.62 158.798 189.006 160.238C187.526 163.718 185.42 166.812 182.86 169.598C178.193 174.692 177.153 180.345 180.099 186.665C180.939 188.465 181.566 190.358 182.433 192.145C183.846 195.065 185.633 197.612 188.553 199.372C192.286 201.625 196.126 203.678 199.979 205.705C200.993 206.238 201.913 206.958 201.313 208.212C200.726 209.465 199.553 209.185 198.5 208.852C198.073 208.718 197.659 208.478 197.259 208.265C193.793 206.478 190.473 204.425 187.086 202.518C183.78 200.665 181.62 197.918 179.833 194.745C178.526 192.425 177.166 191.998 174.646 193.145C170.073 195.225 166.113 198.132 162.553 201.678C158.926 205.292 156.206 209.292 155.66 214.532C155.566 215.425 155.286 216.332 154.953 217.172C154.606 218.012 153.926 218.545 152.94 218.305C151.913 218.052 151.66 217.225 151.846 216.332C152.526 212.985 152.74 209.492 154.62 206.478C159.82 198.132 166.94 192.225 176.38 189.252C177.086 189.025 177.34 188.785 177.006 188.212C175.34 185.305 175.073 182.145 175.326 178.865L175.34 178.878ZM220.993 157.638C218.153 158.772 215.633 160.065 212.873 160.705C212.033 160.892 212.099 161.505 212.153 162.132C212.259 163.372 212.686 164.532 213.233 165.625C214.473 168.132 215.073 170.838 215.38 173.545C216.233 181.052 216.713 188.638 219.126 195.865C221.299 202.385 219.326 208.118 215.513 213.092C209.42 221.025 201.406 226.812 192.673 231.572C188.646 233.772 184.126 234.785 180.06 236.998C174.98 239.758 169.953 242.678 164.206 244.118C159.246 245.358 159.02 246.372 162.086 250.638C163.366 252.425 164.873 254.692 167.18 254.492C170.553 254.198 174.14 254.372 177.22 252.572C179.54 251.212 182.086 250.452 184.566 249.532C193.54 246.225 202.34 242.532 210.673 237.852C216.166 234.772 221.206 231.118 224.673 225.612C229.02 218.705 228.579 211.065 227.926 203.558C227.193 195.052 225.086 186.705 223.939 178.238C223.019 171.452 221.46 164.745 221.02 157.638H220.993ZM224.299 160.838C224.419 161.852 224.473 162.518 224.58 163.185C225.66 170.278 227.126 177.292 228.113 184.412C229.473 194.158 232.086 203.732 231.446 213.705C231.099 219.238 229.7 224.332 226.513 228.972C224.42 232.012 221.7 234.238 218.833 236.425C211.273 242.185 202.646 245.865 193.966 249.452C190.726 250.798 187.393 251.932 184.126 253.212C183.593 253.425 182.566 253.532 183.153 254.572C184.206 256.438 185.166 258.545 187.233 259.398C191.153 260.998 195.193 262.065 199.513 260.852C200.873 260.465 201.753 259.412 203.06 258.892C206.46 257.558 209.953 256.278 212.819 253.905C216.886 250.532 220.94 247.158 225.513 244.492C227.1 243.572 228.566 242.438 229.713 240.985C231.606 238.585 233.473 236.158 235.393 233.785C237.713 230.932 239.313 227.758 239.686 224.065C240.633 214.652 240.166 205.212 238.819 195.932C237.539 187.118 236.353 178.252 234.18 169.558C233.673 167.532 233.166 165.958 231.086 164.972C228.833 163.905 226.793 162.385 224.286 160.838H224.299ZM206.713 260.945C207.34 262.158 208.286 262.571 209.273 262.585C214.499 262.678 219.74 262.625 224.406 259.825C228.34 257.465 232.246 254.932 235.18 251.345C239.339 246.252 243.726 241.305 247.259 235.772C250.033 231.438 253.139 227.118 253.126 221.572C253.113 214.985 252.499 208.425 251.313 201.958C250.299 196.478 249.193 191.025 247.979 185.585C246.953 180.985 247.153 176.158 246.099 171.518C245.979 171.012 246.139 170.278 245.499 170.172C242.619 169.665 239.899 168.492 236.979 167.718C236.833 169.665 237.419 171.172 237.806 172.718C238.166 174.118 238.54 175.532 238.753 176.958C239.433 181.412 239.753 185.918 240.979 190.278C241.753 193.012 242.019 195.825 242.139 198.665C242.246 201.185 242.579 203.678 242.766 206.198C243.233 212.385 243.539 218.638 242.593 224.745C241.153 234.105 235.286 241.265 228.046 246.492C221.1 251.505 215.086 258.012 206.713 260.972V260.945ZM118.526 173.038C116.953 174.212 116.073 175.545 115.233 176.905C113.846 179.185 112.5 181.492 111.14 183.798C107.313 190.278 107.54 196.785 111.046 203.278C111.58 204.278 112.286 205.198 113.006 206.078C113.713 206.945 114.42 206.958 115.286 206.078C117.86 203.452 120.246 200.732 122.14 197.532C123.366 195.452 123.726 193.385 123.313 191.185C122.153 185.118 120.553 179.172 118.526 173.052V173.038Z" fill="#55ADE1" stroke="#55ADE1" stroke-width="2.66666" stroke-miterlimit="10"/>
<path d="M361.806 312.305C351.899 312.251 342.486 312.011 333.099 311.065C322.926 310.038 312.74 310.678 302.566 310.918C296.046 311.065 289.553 310.771 283.06 310.318C276.94 309.891 270.793 309.931 264.7 310.411C256.286 311.078 247.86 310.038 239.473 310.665C229.5 311.398 219.606 309.825 209.673 309.825C196.74 309.825 183.806 310.251 170.873 310.198C153.193 310.118 135.513 309.758 117.846 309.531C116.393 309.518 114.926 309.505 113.486 309.638C102.566 310.705 91.593 309.878 80.6864 310.678C70.0997 311.465 59.5664 309.505 49.0331 310.251C34.4731 311.265 19.9531 309.478 5.41975 310.131C4.88642 310.158 4.33974 310.171 3.81974 310.131C2.45974 309.998 1.45978 309.331 1.27311 307.918C1.07311 306.505 1.91306 305.611 3.13972 305.091C4.28639 304.611 5.51309 304.558 6.75308 304.518C15.0997 304.238 23.4331 304.718 31.7664 305.038C42.1664 305.438 52.5797 304.105 62.9663 305.105C74.6863 306.238 86.3664 304.811 98.0731 304.945C108.1 305.051 118.086 303.758 128.126 304.158C134.553 304.411 140.966 304.985 147.393 304.771C160.18 304.358 172.953 305.038 185.726 304.905C199.78 304.771 213.859 304.171 227.926 305.638C234.499 306.318 241.233 305.185 247.873 305.425C262.78 305.945 277.699 304.171 292.619 305.638C297.246 306.091 301.966 305.891 306.619 305.571C317.966 304.811 329.26 305.438 340.566 306.211C353.166 307.091 365.806 307.185 378.433 306.865C382.779 306.758 387.099 305.918 391.353 304.891C393.033 304.491 394.739 304.278 395.379 306.278C396.006 308.251 394.553 309.251 392.926 309.798C386.619 311.918 380.086 312.611 373.473 312.571C369.419 312.545 365.366 312.105 361.793 312.305H361.806Z" fill="#55ADE1" stroke="#55ADE1" stroke-width="1.33333" stroke-miterlimit="10"/>
<path d="M146.793 282.611C146.833 285.025 144.646 286.611 142.086 285.945C138.833 285.105 135.54 284.305 132.393 283.158C122.34 279.518 111.926 276.878 102.113 272.545C100.233 271.718 98.2063 271.198 96.2863 270.465C93.4996 269.398 92.2863 267.425 92.9663 265.251C93.6596 263.051 95.7397 262.251 98.673 262.971C101.286 263.611 103.74 264.665 106.233 265.651C116.46 269.745 126.993 272.945 137.393 276.545C139.7 277.345 142.06 278.025 144.246 279.171C145.686 279.931 146.673 281.011 146.806 282.611H146.793Z" fill="#55ADE1" stroke="#55ADE1" stroke-width="1.33333" stroke-miterlimit="10"/>
<path d="M300.846 291.918C299.513 291.918 298.593 292.012 297.686 291.905C295.833 291.665 294.513 290.678 294.313 288.732C294.1 286.678 295.246 285.385 297.126 284.825C298.206 284.505 299.38 284.478 300.513 284.318C307.86 283.345 315.353 283.692 322.633 282.305C329.766 280.958 336.9 279.612 344.086 278.612C344.993 278.492 345.913 278.372 346.82 278.398C349.3 278.438 351.033 279.865 351.22 281.892C351.393 283.892 349.9 285.678 347.46 286.065C344.14 286.598 340.793 286.972 337.46 287.385C330.713 288.238 324.126 290.132 317.313 290.492C311.66 290.798 306.033 291.318 300.833 291.931L300.846 291.918Z" fill="#55ADE1" stroke="#55ADE1" stroke-width="1.33333" stroke-miterlimit="10"/>
<path d="M302.966 238.239C302.833 239.812 301.926 240.865 300.713 241.772C289.18 250.385 276.446 257.119 264.473 265.052C263.966 265.385 263.406 265.665 262.833 265.865C260.74 266.612 258.74 265.972 257.82 264.318C256.9 262.652 257.353 260.572 259.153 259.252C261.62 257.452 264.18 255.772 266.74 254.105C275.9 248.172 285.7 243.238 294.42 236.585C295.566 235.718 296.793 234.892 298.26 234.585C300.806 234.052 303.033 235.785 302.966 238.225V238.239Z" fill="#55ADE1" stroke="#55ADE1" stroke-width="1.33333" stroke-miterlimit="10"/>
<path d="M115.473 253.532C115.54 255.785 113.54 257.478 111.14 257.105C109.46 256.852 107.873 256.225 106.406 255.398C97.1131 250.225 87.2997 246.065 78.1131 240.705C75.3397 239.092 72.4997 237.558 69.8464 235.772C67.6997 234.332 67.2597 232.145 68.4197 230.412C69.633 228.572 71.8064 228.345 74.353 229.758C79.6197 232.718 84.833 235.798 90.193 238.585C97.3797 242.318 104.686 245.838 111.953 249.412C113.753 250.292 115.3 251.305 115.486 253.518L115.473 253.532Z" fill="#55ADE1" stroke="#55ADE1" stroke-width="1.33333" stroke-miterlimit="10"/>
<path d="M88.7132 293.012C82.1799 291.598 74.4599 291.118 66.8599 289.705C62.6599 288.932 58.3798 288.545 54.1398 288.038C52.5398 287.852 50.9399 287.692 49.4332 287.078C47.1399 286.145 46.0199 284.252 46.5132 282.252C47.0199 280.185 48.7799 278.932 51.2599 279.238C58.3132 280.105 65.3799 280.772 72.3665 282.172C78.2865 283.358 84.2465 284.278 90.2199 285.132C93.4999 285.598 95.3132 286.945 95.1798 289.358C95.0332 291.745 93.0465 293.105 88.7132 292.998V293.012Z" fill="#55ADE1" stroke="#55ADE1" stroke-width="1.33333" stroke-miterlimit="10"/>
<path d="M245.273 288.545C243.593 288.545 242.42 287.918 241.78 286.518C241.1 285.025 241.486 283.678 242.593 282.518C243.353 281.732 244.34 281.278 245.353 280.931C247.513 280.185 249.673 279.385 251.873 278.745C257.313 277.185 262.7 275.505 267.593 272.545C269.82 271.198 272.3 270.371 274.793 269.598C276.993 268.918 279.086 268.012 281.033 266.745C281.793 266.252 282.646 265.838 283.513 265.572C285.566 264.932 287.446 265.692 288.206 267.345C288.98 269.025 288.38 270.918 286.5 272.052C284.22 273.438 281.913 274.865 279.34 275.611C274.846 276.931 270.593 278.811 266.446 280.971C260.1 284.278 253.02 285.598 246.46 288.332C246.046 288.505 245.566 288.492 245.273 288.532V288.545Z" fill="#55ADE1" stroke="#55ADE1" stroke-width="1.33333" stroke-miterlimit="10"/>
<path d="M71.3262 259.598C70.9528 259.504 70.1795 259.411 69.4728 259.158C63.1395 256.865 56.5662 255.478 49.9928 254.051C47.6062 253.531 45.2196 252.878 43.1262 251.598C41.4729 250.584 40.6729 249.011 41.3395 247.091C42.0462 245.078 43.7796 244.078 45.7129 244.665C54.2462 247.265 63.2328 248.251 71.4728 251.865C72.2461 252.198 73.0062 252.558 73.7129 253.011C75.1795 253.985 75.9528 255.304 75.4195 257.104C74.9528 258.691 73.5662 259.598 71.3395 259.598H71.3262Z" fill="#55ADE1" stroke="#55ADE1" stroke-width="1.33333" stroke-miterlimit="10"/>
<path d="M331.113 254.385C331.019 256.385 329.633 257.532 327.833 258.238C322.419 260.345 317.059 262.585 311.459 264.185C309.179 264.838 306.939 265.625 304.633 266.172C302.433 266.692 300.713 265.731 300.193 263.958C299.673 262.171 300.553 260.452 302.753 259.705C310.579 257.065 318.433 254.545 325.966 251.118C328.513 249.958 331.086 251.718 331.113 254.385Z" fill="#55ADE1" stroke="#55ADE1" stroke-width="1.33333" stroke-miterlimit="10"/>
<path d="M329.779 218.038C329.793 219.358 329.206 220.425 328.206 221.211C323.913 224.518 319.606 227.798 315.286 231.065C314.859 231.385 314.366 231.611 313.886 231.838C311.806 232.798 309.966 232.478 309.006 230.891C307.873 228.998 308.419 227.251 310.006 225.998C314.499 222.451 319.006 218.918 323.659 215.585C326.473 213.571 329.739 215.025 329.793 218.038H329.779Z" fill="#55ADE1" stroke="#55ADE1" stroke-width="1.33333" stroke-miterlimit="10"/>
</svg>
