<svg width="468" height="309" viewBox="0 0 468 309" fill="none" xmlns="http://www.w3.org/2000/svg">
<path d="M462.912 105.253C457.352 83.6793 446.059 65.8126 428.259 52.1193C414.925 41.8793 399.059 37.706 383.459 32.8393C377.285 30.9193 371.019 29.3326 364.872 27.2926C358.805 25.2793 352.752 23.0926 346.552 21.6259C341.699 20.4793 336.939 19.1593 332.312 17.346C330.925 16.7993 329.485 16.346 328.032 15.9726C318.072 13.426 308.072 10.826 298.379 7.5593C284.685 2.94597 270.805 2.106 256.659 2.25266C249.979 2.31933 243.299 2.50601 236.632 2.85268C232.725 3.05268 228.846 3.25264 225.112 4.39931C211.766 8.49264 200.379 15.9993 189.939 25.026C182.539 31.426 176.446 39.106 170.046 46.4527C163.472 53.986 157.779 62.1592 153.659 71.2926C149.392 80.7192 145.032 90.1059 142.112 100.079C141.179 103.279 140.112 106.439 138.739 109.493C135.179 117.399 133.846 125.733 133.846 134.333C133.846 136.453 133.766 138.546 133.539 140.653C132.659 148.839 131.632 157.026 132.259 165.279C132.779 172.172 132.606 179.052 132.406 185.932C132.286 189.879 131.979 193.812 130.899 197.666C130.099 200.532 128.886 203.159 127.059 205.506C126.139 206.692 125.246 207.039 123.899 205.812C121.872 203.972 119.406 202.826 116.832 201.812C107.779 198.239 98.6189 194.839 90.4856 189.306C88.6722 188.079 86.7255 187.119 84.7789 186.119C75.6189 181.426 66.5522 176.506 57.9522 170.879C52.3389 167.213 47.1123 167.079 41.1523 169.279C34.3656 171.799 28.7257 176.026 23.2457 180.519C15.5524 186.839 10.1523 194.679 7.85901 204.492C6.65902 209.626 5.9923 214.813 5.64564 220.053C5.36564 224.199 4.24559 227.919 2.25892 231.172C2.25892 232.426 2.23226 233.679 2.25892 234.932C2.79226 234.279 3.31229 233.613 3.79229 232.893C7.00562 228.173 7.77894 222.826 8.11227 217.346C8.41894 212.212 9.37903 207.212 10.7124 202.279C11.019 201.159 11.3657 200.346 12.7257 201.266C13.1524 201.546 13.8457 201.666 14.179 201.079C14.539 200.453 14.0057 199.999 13.5257 199.786C11.9257 199.106 12.2856 198.133 12.7923 196.853C15.6456 189.546 21.2457 184.493 27.2457 179.999C31.859 176.546 36.6589 173.226 42.2589 171.346C44.1522 170.719 46.0323 170.186 47.9923 169.959C50.6056 169.652 52.9256 170.426 55.1523 171.826C64.6056 177.786 74.3256 183.293 84.2855 188.359C86.5389 189.506 88.7122 190.786 90.8189 192.159C98.5789 197.239 107.246 200.386 115.779 203.786C118.686 204.946 121.259 206.466 123.659 208.386C129.419 213.013 136.112 216.199 142.219 220.292C145.326 222.372 148.739 223.892 151.886 225.959C149.406 225.532 146.952 224.946 144.459 224.692C136.392 223.893 128.859 225.533 122.059 230.039C118.246 232.572 115.979 236.439 113.739 240.266C111.779 243.612 110.526 247.333 108.299 250.559C107.112 249.586 105.926 248.612 104.726 247.652C104.272 247.292 103.752 247.039 103.272 247.586C102.832 248.092 103.046 248.613 103.446 249.053C104.286 249.959 105.206 250.986 106.352 251.252C108.006 251.626 107.566 252.359 107.326 253.479C106.486 257.346 106.019 261.239 106.579 265.239C107.406 271.253 105.006 276.506 102.059 281.466C96.0456 291.599 86.8055 298.159 76.4322 302.986C68.8589 306.506 61.8856 303.826 55.4456 299.092C49.3256 294.612 46.2323 288.159 43.8456 281.426C40.9923 273.372 36.0456 267.146 29.3256 262.146C28.5656 261.572 27.7657 260.919 26.8857 260.679C22.6057 259.492 19.2456 256.546 15.3256 254.719C10.9656 252.693 6.75226 250.439 2.6056 248.053C2.63227 248.759 2.65901 249.452 2.68568 250.159C6.01901 252.079 9.43231 253.879 12.9923 255.413C13.539 255.653 14.0589 255.972 14.6056 256.492C10.7123 256.332 7.15226 257.532 3.6056 258.772C3.4056 258.839 3.21901 258.919 3.01901 258.986C3.04568 259.866 3.07226 260.759 3.09893 261.639C8.43226 259.519 13.659 257.812 19.7124 260.146C26.2057 262.652 31.5923 266.319 36.0056 271.612C38.139 274.172 39.5924 277.079 40.7524 280.132C42.6457 285.106 44.8589 289.906 47.6056 294.479C47.6989 294.626 47.6856 294.826 47.7789 295.279C32.3922 285.519 18.2056 274.399 3.16566 264.386C3.19233 265.239 3.20571 266.106 3.21905 266.959C9.52571 271.332 16.0057 275.479 22.2324 279.972C33.939 288.452 45.739 296.799 58.4057 303.812C64.3523 307.106 70.9256 308.226 77.2989 305.252C86.4056 301.012 94.6456 295.372 100.872 287.346C106.592 279.986 110.152 271.919 108.686 262.132C108.126 258.359 108.926 254.359 110.899 250.866C112.179 248.612 113.366 246.319 114.446 243.959C115.379 241.906 116.459 239.946 117.819 238.132C118.326 237.452 118.672 237.159 119.605 237.586C135.072 244.639 149.739 253.132 164.059 262.266C168.832 265.306 173.112 269.026 178.152 271.706C186.925 276.372 196.059 279.839 205.845 281.666C211.445 282.706 217.099 283.119 222.352 280.919C236.539 274.986 243.686 261.826 242.459 247.426C241.939 241.332 241.126 235.253 240.392 228.706C251.006 234.893 262.165 238.732 272.885 243.586C279.152 246.426 285.672 248.746 291.565 252.319C310.845 263.986 331.739 267.866 353.899 265.092C375.752 262.359 395.258 253.692 412.512 240.172C439.698 218.852 457.005 191.253 463.965 157.333C467.539 139.906 467.379 122.466 462.925 105.199L462.912 105.253ZM174.379 267.239C164.246 259.799 153.526 253.359 142.539 247.292C135.499 243.399 128.472 239.546 121.086 236.359C119.859 235.826 119.686 235.332 120.659 234.359C124.739 230.319 129.766 228.146 135.326 227.319C147.912 225.452 158.646 229.599 167.979 237.879C171.859 241.319 175.539 244.906 178.526 249.239C180.779 252.519 182.392 255.906 183.072 259.799C183.992 265.066 185.472 270.146 188.752 274.626C183.806 272.332 178.726 270.412 174.392 267.226L174.379 267.239ZM227.152 275.839C220.539 280.519 213.459 281.066 205.912 279.346C202.539 278.586 199.192 277.852 195.899 276.599C191.579 274.946 189.259 271.786 187.579 267.879C186.645 265.692 185.819 263.426 185.566 261.039C184.819 253.892 181.072 248.252 176.499 243.106C173.246 239.452 169.712 236.052 166.246 232.599C162.032 228.399 156.792 225.732 151.526 223.186C145.926 220.466 140.659 217.226 135.445 213.852C133.046 212.306 130.526 210.946 128.072 209.452C127.512 209.106 126.832 208.759 127.726 207.932C131.432 204.519 132.752 199.946 133.765 195.239C134.365 192.493 134.499 189.706 134.605 186.906C134.952 178.173 134.872 169.466 134.099 160.759C133.912 158.599 134.379 156.452 134.552 154.292C135.032 148.519 135.406 142.746 135.966 136.986C136.272 133.866 135.646 130.719 136.206 127.599C136.326 126.933 136.326 126.239 136.819 125.466C138.499 126.546 140.126 127.533 142.086 127.733C142.632 127.799 143.299 127.866 143.445 127.199C143.579 126.653 142.992 126.399 142.579 126.213C141.099 125.519 139.672 124.613 138.112 124.253C136.859 123.959 136.939 123.359 137.112 122.559C137.885 118.973 138.312 115.319 139.966 111.946C142.832 106.119 144.086 99.6926 146.486 93.6926C151.166 81.9993 155.619 70.1726 162.686 59.6126C166.446 53.9993 170.766 48.8126 175.232 43.7326C181.899 36.1459 188.459 28.4393 196.525 22.266C203.912 16.626 211.872 11.8527 220.352 8.03936C224.859 6.01269 229.699 5.19931 234.645 4.90598C243.565 4.38598 252.499 3.91932 261.419 4.07932C273.539 4.29265 285.659 4.73266 297.205 9.33265C301.992 11.2393 307.232 11.7726 312.192 13.3326C321.739 16.3326 331.259 19.506 340.899 22.066C350.845 24.706 360.539 28.0393 370.392 30.9327C373.765 31.9193 377.152 32.8526 380.432 34.2126C375.605 34.0926 370.805 33.9726 366.005 34.3059C346.539 35.6259 328.566 41.6793 312.152 52.0526C281.526 71.3992 261.445 98.7326 251.525 133.519C249.072 142.133 247.872 150.973 247.126 159.906C246.552 166.679 244.979 173.333 243.619 180.013C241.765 189.093 240.779 198.319 239.392 207.479C238.112 215.959 237.659 224.439 238.619 232.946C239.245 238.426 240.245 243.879 240.325 249.399C240.472 260.413 236.379 269.306 227.166 275.812L227.152 275.839ZM261.766 236.893C254.846 234.186 248.165 230.986 241.672 227.359C240.659 226.799 240.272 226.172 240.245 224.999C240.085 219.186 240.792 213.452 241.486 207.693C242.526 199.026 243.912 190.426 245.219 181.812C245.605 179.292 246.285 176.799 246.992 174.319C249.352 202.306 259.739 226.319 281.126 245.132C274.699 242.252 268.286 239.453 261.766 236.906V236.893ZM438.045 209.932C423.805 229.759 405.645 244.919 383.045 254.386C359.592 264.226 335.499 266.613 311.152 258.239C282.886 248.519 264.632 228.599 255.099 200.546C249.326 183.559 248.272 166.066 251.152 148.413C257.179 111.399 275.539 81.7593 305.659 59.5859C325.459 45.0126 347.739 37.066 372.552 36.9993C408.752 36.8926 440.632 57.9326 454.898 91.2793C460.925 105.359 463.552 120.079 463.379 137.759C462.712 162.839 454.032 187.666 438.045 209.919V209.932Z" fill="#55ADE1" stroke="#55ADE1" stroke-width="2.66666" stroke-miterlimit="10"/>
<path d="M397.619 148.106C397.565 157.533 395.885 166.586 391.179 174.853C383.699 187.973 372.539 195.626 357.259 195.986C339.099 196.413 323.912 183.799 320.832 165.839C317.872 148.559 324.099 134.319 336.752 122.759C344.645 115.546 354.032 111.346 364.845 111.026C381.152 110.533 393.592 120.706 396.645 136.746C397.365 140.519 397.619 144.306 397.632 148.133L397.619 148.106ZM395.605 148.439C395.645 144.786 395.232 141.213 394.459 137.666C390.739 120.519 375.832 110.759 358.712 114.546C342.912 118.053 332.152 127.799 326.205 142.626C321.112 155.319 321.805 167.866 329.859 179.279C341.925 196.359 366.472 198.066 381.925 183.053C391.659 173.586 395.312 161.666 395.605 148.439Z" fill="#55ADE1" stroke="#55ADE1" stroke-width="2.66666" stroke-miterlimit="10"/>
<path d="M171.325 138.573C169.899 138.48 168.485 138.306 167.179 137.706C166.699 137.493 166.365 137.16 166.605 136.6C166.792 136.16 167.192 136.106 167.632 136.213C168.939 136.533 170.259 136.84 171.565 137.186C172.085 137.32 172.739 137.453 172.539 138.186C172.379 138.746 171.779 138.613 171.312 138.573H171.325Z" fill="#55ADE1" stroke="#55ADE1" stroke-width="2.66666" stroke-miterlimit="10"/>
<path d="M223.965 157.732C224.859 158.346 226.005 158.959 226.939 159.826C227.472 160.332 226.939 160.946 226.299 160.812C225.112 160.559 223.952 160.106 223.085 159.172C222.859 158.932 222.712 158.599 222.899 158.239C223.072 157.906 223.339 157.746 223.952 157.732H223.965Z" fill="#55ADE1" stroke="#55ADE1" stroke-width="2.66666" stroke-miterlimit="10"/>
<path d="M212.179 154.719C212.125 154.812 212.072 155.052 211.925 155.132C211.232 155.506 210.592 155.212 210.019 154.839C209.192 154.319 208.032 154.132 207.819 152.932C207.779 152.732 207.992 152.412 208.192 152.279C208.845 151.866 212.139 153.826 212.179 154.719Z" fill="#55ADE1" stroke="#55ADE1" stroke-width="2.66666" stroke-miterlimit="10"/>
<path d="M190.712 145.293C191.859 145.706 193.126 145.853 193.926 146.893C194.019 147.013 193.886 147.533 193.752 147.586C192.472 148.106 191.432 147.16 190.272 146.933C189.739 146.826 189.232 146.44 189.472 145.746C189.686 145.146 190.259 145.36 190.712 145.293Z" fill="#55ADE1" stroke="#55ADE1" stroke-width="2.66666" stroke-miterlimit="10"/>
<path d="M216.339 154.84C217.312 155.466 218.739 155.666 219.285 156.933C219.525 157.506 218.859 157.76 218.392 157.666C217.125 157.426 215.859 157.04 215.365 155.68C215.179 155.173 215.712 154.88 216.352 154.826L216.339 154.84Z" fill="#55ADE1" stroke="#55ADE1" stroke-width="2.66666" stroke-miterlimit="10"/>
<path d="M233.085 163.093C232.152 162.679 230.845 162.719 230.752 161.293C230.712 160.759 231.272 160.413 231.752 160.653C232.712 161.146 234.139 161.226 234.379 162.519C234.512 163.199 233.579 162.959 233.072 163.093H233.085Z" fill="#55ADE1" stroke="#55ADE1" stroke-width="2.66666" stroke-miterlimit="10"/>
<path d="M202.486 150.692C202.526 151.052 202.206 151.172 201.872 151.239C201.099 151.372 199.166 150.066 199.219 149.452C199.259 148.999 199.512 148.732 199.992 148.719C200.632 148.706 202.446 150.052 202.486 150.692Z" fill="#55ADE1" stroke="#55ADE1" stroke-width="2.66666" stroke-miterlimit="10"/>
<path d="M238.326 162.999C238.966 163.359 240.085 163.319 240.219 164.413C240.325 165.226 239.552 165.146 239.046 165.066C238.232 164.959 237.365 164.759 237.259 163.746C237.192 163.146 237.659 162.959 238.326 162.999Z" fill="#55ADE1" stroke="#55ADE1" stroke-width="2.66666" stroke-miterlimit="10"/>
<path d="M183.432 142.466C184.259 142.812 185.379 142.866 185.699 143.906C185.899 144.559 185.179 144.693 184.739 144.533C183.899 144.213 182.712 144.306 182.432 143.159C182.272 142.493 182.912 142.479 183.432 142.466Z" fill="#55ADE1" stroke="#55ADE1" stroke-width="2.66666" stroke-miterlimit="10"/>
<path d="M152.859 130.706C152.246 130.639 151.592 130.573 151.512 129.813C151.459 129.226 151.952 128.973 152.446 129.079C153.072 129.199 153.872 129.293 153.899 130.159C153.912 130.813 153.326 130.746 152.846 130.719L152.859 130.706Z" fill="#55ADE1" stroke="#55ADE1" stroke-width="2.66666" stroke-miterlimit="10"/>
<path d="M63.8455 227.452C64.1789 227.599 64.6456 227.732 65.0589 227.959C67.6189 229.359 70.1656 230.773 72.7122 232.199C73.2322 232.493 73.9922 232.786 73.5656 233.533C73.2189 234.133 72.6055 233.679 72.1121 233.493C69.1121 232.359 66.3923 230.693 63.5656 229.213C63.0723 228.959 62.6588 228.559 62.9254 227.893C63.0721 227.533 63.3789 227.426 63.8589 227.426L63.8455 227.452Z" fill="#55ADE1" stroke="#55ADE1" stroke-width="2.66666" stroke-miterlimit="10"/>
<path d="M41.6723 215.452C41.5123 216.239 41.0456 216.332 40.459 216.026C38.579 215.052 36.7257 214.066 34.859 213.079C34.3924 212.826 34.1257 212.426 34.4057 211.906C34.6191 211.506 35.0056 211.346 35.4456 211.506C37.6456 212.306 39.6858 213.359 41.4191 214.959C41.5524 215.092 41.6057 215.306 41.6857 215.452H41.6723Z" fill="#55ADE1" stroke="#55ADE1" stroke-width="2.66666" stroke-miterlimit="10"/>
<path d="M49.2723 219.933C51.1923 220.399 53.2857 221.119 55.1924 222.319C55.5124 222.519 55.6591 222.826 55.5257 223.186C55.3524 223.679 54.8857 223.693 54.5124 223.573C52.5257 222.906 50.5656 222.213 48.5923 221.506C48.1923 221.359 47.8456 221.066 47.9256 220.613C48.0323 220.066 48.4723 219.893 49.259 219.946L49.2723 219.933Z" fill="#55ADE1" stroke="#55ADE1" stroke-width="2.66666" stroke-miterlimit="10"/>
<path d="M26.3121 208.386C26.0988 208.279 25.7922 208.132 25.4988 207.972C24.1122 207.252 22.7255 206.559 21.3522 205.812C20.8855 205.559 20.3521 205.213 20.6455 204.546C20.9255 203.933 21.4455 203.946 22.0322 204.186C23.6855 204.839 25.2589 205.599 26.5789 206.839C26.8856 207.133 27.1122 207.453 27.0055 207.906C26.9388 208.199 26.7255 208.359 26.3121 208.399V208.386Z" fill="#55ADE1" stroke="#55ADE1" stroke-width="2.66666" stroke-miterlimit="10"/>
<path d="M95.8052 243.785C97.3652 244.825 99.3119 245.505 100.872 246.865C101.152 247.119 101.192 247.479 100.979 247.785C100.752 248.119 100.432 248.052 100.072 247.945C98.2986 247.399 96.6986 246.532 95.2053 245.439C94.8186 245.159 94.4852 244.772 94.7919 244.225C94.9652 243.905 95.2585 243.745 95.8052 243.785Z" fill="#55ADE1" stroke="#55ADE1" stroke-width="2.66666" stroke-miterlimit="10"/>
<path d="M88.7919 241.132C88.6586 241.799 88.152 241.799 87.712 241.572C86.032 240.706 84.512 239.572 83.072 238.346C82.7653 238.079 82.5787 237.679 82.8853 237.265C83.0987 236.972 83.4319 236.785 83.7652 236.945C85.6585 237.879 87.2586 239.199 88.6986 240.719C88.7786 240.799 88.7519 240.972 88.7785 241.119L88.7919 241.132Z" fill="#55ADE1" stroke="#55ADE1" stroke-width="2.66666" stroke-miterlimit="10"/>
</svg>
