<svg width="436" height="215" viewBox="0 0 436 215" fill="none" xmlns="http://www.w3.org/2000/svg">
<path d="M432.713 105.866C428.047 90.0124 420.873 75.1457 409.98 62.5057C392.78 42.5591 373.207 25.4525 349.54 13.3725C335.047 5.9725 319.753 1.77243 303.487 1.38577C249.833 0.119101 197.673 7.61242 147.78 28.2124C145.06 29.3324 142.234 30.2391 139.407 31.0524C108.3 40.0524 88.0602 68.0524 89.0869 100.759C89.3669 109.759 87.8602 111.426 78.4469 112.759C68.0202 114.239 57.5536 115.479 47.2069 117.359C31.8603 120.146 16.6336 121.426 1.54031 120.839C1.48697 125.652 1.46033 130.466 1.567 135.279C19.6336 136.866 37.6603 134.906 55.3136 130.479C66.0869 127.786 76.7269 126.452 87.6736 125.799C93.3002 125.466 96.3136 127.292 97.9136 132.626C100.1 139.892 102.26 147.412 107.594 153.026C125.7 172.119 145.713 188.999 170.313 198.986C206.633 213.732 244.98 214.399 283.407 212.972C302.447 212.266 320.793 206.852 339.42 203.506C362.367 199.372 384.273 191.772 403.5 177.999C429.993 158.999 440.7 133.026 432.7 105.852L432.713 105.866ZM239.247 15.9991C239.58 11.4791 242.967 11.1058 246.367 10.4125C258.42 7.93245 270.567 7.17248 281.713 7.77248C314.513 6.74581 344.233 13.1991 369.607 33.0791C387.153 46.8391 404.087 61.3324 415.313 81.4257C422.393 94.1057 420.007 105.932 414.447 117.599C410.62 125.612 402.407 128.039 394.14 128.186C382.353 128.399 370.5 128.372 358.767 127.359C340.767 125.799 322.993 121.239 304.727 123.906C300.407 124.532 297.58 122.106 295.073 119.052C284.527 106.266 277.193 91.5323 269.593 76.959C267.647 73.239 268.553 70.0257 270.527 66.3191C277.86 52.5324 272.513 42.0791 257.1 39.1858C247.98 37.4791 238.593 25.2391 239.273 16.0125L239.247 15.9991ZM160.087 88.1457C155.78 87.3057 151.434 86.3191 150.074 81.7058C148.473 76.2791 152.58 73.1857 156.3 70.4124C164.807 64.0791 174.433 59.7724 184.233 55.9191C203.26 48.4524 223.127 45.3058 243.5 45.2524C247.687 45.2524 251.927 45.5457 256.073 46.2124C260.3 46.8924 264.38 48.4258 265.7 53.1858C266.993 57.8791 264.473 61.1591 261.327 64.2658C250.927 74.5724 239.047 82.0124 224.26 84.159C218.7 84.9724 185.167 89.4791 184.593 89.5057C184.687 89.5457 167.98 89.6657 160.087 88.1191V88.1457ZM151.9 94.5857C162.26 97.6657 172.86 96.7324 183.327 96.239C200.193 95.439 216.793 92.3191 233.273 88.6924C241.193 86.9457 248.34 83.3458 255.113 78.9458C259.273 76.2391 262.193 77.1991 263.967 81.8257C269.02 95.0124 277.833 105.852 285.82 117.239C291.22 124.932 290.913 125.879 282.353 128.199C264.873 132.932 247.367 137.586 229.78 141.906C224.513 143.199 218.94 143.252 211.687 144.079C184.66 141.266 157.834 134.292 137.447 111.826C131.047 104.772 131.087 103.852 139.074 98.559C142.954 95.9857 146.9 93.1191 151.9 94.6124V94.5857ZM144.967 36.7725C169.047 28.0791 193.153 19.3591 218.393 14.4391C230.193 12.1325 230.58 12.2525 234.58 23.9325C235.913 27.8125 238.5 31.3858 238.153 36.6658C228.86 38.4924 219.473 40.4391 210.06 42.1591C193.367 45.2124 177.713 51.0658 162.807 59.0924C153.82 63.9324 145.407 69.1457 142.154 79.9191C140.18 86.4524 133.74 87.7857 128.114 89.1057C124.047 90.0657 122.327 86.6924 121.367 83.1857C116.834 66.5458 128.7 42.6391 144.967 36.7725ZM343.7 195.412C331.473 198.359 319.167 201.519 306.727 203.439C267.193 209.519 227.5 209.239 189.1 197.799C158.514 188.692 131.567 172.186 111.38 146.372C106.887 140.639 104.567 134.319 104.54 126.546C109.46 128.399 111.42 132.332 113.714 135.666C122.114 147.906 132.62 158.239 143.047 168.639C155.487 181.066 170.18 185.799 187.9 183.599C207.647 181.159 226.74 176.866 245.513 170.266C281.62 157.559 318.74 155.586 356.273 162.239C367.807 164.279 378.86 168.266 390.34 177.706C374.087 186.039 359.113 191.692 343.7 195.412ZM402.127 168.839C398.86 170.746 396.087 170.786 392.673 169.159C385.073 165.546 377.167 162.546 369.58 158.919C352.793 150.892 335.353 149.306 316.793 150.052C287.74 151.226 260.233 157.599 233.087 167.466C216.047 173.666 198.327 177.426 179.86 176.866C169.234 176.546 160.154 173.412 152.194 166.386C136.02 152.106 121.434 136.332 108.7 118.972C95.1536 100.479 98.4202 70.9857 115.007 56.0657C117.114 56.9857 116.514 58.6791 116.194 60.2658C113.34 74.2524 115.087 86.3457 122.54 99.8124C141.327 133.706 171.153 147.479 206.98 150.732C223.593 152.239 240.46 148.452 256.553 142.746C273.647 136.692 290.953 131.652 309.3 130.492C317.327 129.986 325.127 129.586 333.153 130.639C349.42 132.786 365.767 134.466 382.113 135.986C391.06 136.826 399.793 135.092 408.007 131.479C415.5 128.172 418.233 124.612 425.047 110.906C432.233 135.626 424.14 155.932 402.113 168.839H402.127Z" fill="#55ADE1" stroke="#55ADE1" stroke-width="1.33333" stroke-miterlimit="10"/>
</svg>
