<svg width="435" height="213" viewBox="0 0 435 213" fill="none" xmlns="http://www.w3.org/2000/svg">
<path d="M431.591 104.791C426.925 88.9378 419.752 74.0712 408.858 61.4312C391.658 41.4846 372.085 24.3781 348.419 12.2981C333.925 4.89818 318.632 0.698212 302.365 0.311548C248.712 -0.955113 196.553 6.53818 146.659 27.1381C143.939 28.2581 141.113 29.1647 138.286 29.9781C107.18 38.978 86.9397 66.9779 87.9664 99.6844C88.2464 108.684 86.7398 110.351 77.3265 111.684C66.8999 113.164 56.4333 114.404 46.0866 116.284C30.74 119.071 15.5134 120.351 0.420189 119.764C0.366856 124.578 0.340215 129.391 0.446881 134.204C18.5135 135.791 36.54 133.831 54.1933 129.404C64.9666 126.711 75.6065 125.378 86.5531 124.724C92.1797 124.391 95.1931 126.218 96.7931 131.551C98.9798 138.818 101.14 146.337 106.473 151.951C124.58 171.044 144.593 187.924 169.193 197.911C205.513 212.657 243.859 213.324 282.286 211.897C301.325 211.191 319.672 205.777 338.299 202.431C361.245 198.297 383.152 190.697 402.378 176.924C428.872 157.924 439.578 131.951 431.578 104.778L431.591 104.791ZM238.126 14.9248C238.459 10.4048 241.846 10.0315 245.246 9.3382C257.299 6.85821 269.446 6.09824 280.592 6.69824C313.392 5.67157 343.112 12.1249 368.485 32.0048C386.032 45.7647 402.965 60.258 414.192 80.3512C421.272 93.0311 418.885 104.858 413.325 116.524C409.498 124.538 401.285 126.964 393.018 127.111C381.232 127.324 369.378 127.298 357.645 126.284C339.645 124.724 321.872 120.164 303.605 122.831C299.285 123.458 296.459 121.031 293.952 117.978C283.406 105.191 276.072 90.4579 268.472 75.8846C266.526 72.1646 267.432 68.9512 269.406 65.2445C276.739 51.4579 271.392 41.0047 255.979 38.1113C246.859 36.4047 237.472 24.1647 238.152 14.9381L238.126 14.9248ZM158.966 87.0712C154.659 86.2312 150.313 85.2445 148.953 80.6311C147.353 75.2045 151.459 72.1112 155.179 69.3379C163.686 63.0046 173.313 58.698 183.113 54.8447C202.139 47.378 222.006 44.2314 242.379 44.178C246.566 44.178 250.806 44.4713 254.952 45.138C259.179 45.818 263.259 47.3513 264.579 52.1113C265.872 56.8046 263.352 60.0846 260.206 63.1913C249.806 73.4979 237.926 80.9378 223.139 83.0844C217.579 83.8978 184.046 88.4044 183.473 88.4311C183.566 88.4711 166.859 88.5912 158.966 87.0445V87.0712ZM150.779 93.5111C161.139 96.5911 171.739 95.6578 182.206 95.1644C199.073 94.3644 215.672 91.2444 232.152 87.6178C240.072 85.8711 247.219 82.2712 253.992 77.8712C258.152 75.1646 261.072 76.1245 262.846 80.7511C267.899 93.9377 276.712 104.778 284.699 116.164C290.099 123.858 289.792 124.804 281.232 127.124C263.752 131.858 246.246 136.511 228.659 140.831C223.392 142.124 217.819 142.178 210.566 143.004C183.539 140.191 156.713 133.218 136.326 110.751C129.926 103.698 129.966 102.778 137.953 97.4844C141.833 94.9111 145.78 92.0445 150.779 93.5378V93.5111ZM143.846 35.6981C167.926 27.0048 192.033 18.2848 217.272 13.3649C229.072 11.0582 229.459 11.1782 233.459 22.8582C234.792 26.7381 237.379 30.3114 237.032 35.5913C227.739 37.418 218.352 39.3646 208.939 41.0846C192.246 44.1379 176.593 49.9913 161.686 58.018C152.699 62.858 144.286 68.0713 141.033 78.8445C139.06 85.3778 132.62 86.7112 126.993 88.0312C122.926 88.9912 121.206 85.6178 120.246 82.1111C115.713 65.4712 127.58 41.5647 143.846 35.6981ZM342.579 194.337C330.352 197.284 318.045 200.444 305.605 202.364C266.072 208.444 226.379 208.164 187.979 196.724C157.393 187.617 130.446 171.111 110.26 145.298C105.766 139.564 103.446 133.244 103.42 125.471C108.34 127.324 110.3 131.258 112.593 134.591C120.993 146.831 131.5 157.164 141.926 167.564C154.366 179.991 169.059 184.724 186.779 182.524C206.526 180.084 225.619 175.791 244.392 169.191C280.499 156.484 317.619 154.511 355.152 161.164C366.685 163.204 377.738 167.191 389.218 176.631C372.965 184.964 357.992 190.617 342.579 194.337ZM401.005 167.764C397.738 169.671 394.965 169.711 391.552 168.084C383.952 164.471 376.045 161.471 368.458 157.844C351.672 149.818 334.232 148.231 315.672 148.977C286.619 150.151 259.112 156.524 231.966 166.391C214.926 172.591 197.206 176.351 178.739 175.791C168.113 175.471 159.033 172.337 151.073 165.311C134.9 151.031 120.313 135.258 107.58 117.898C94.0331 99.4045 97.2997 69.9112 113.886 54.9913C115.993 55.9113 115.393 57.6047 115.073 59.1913C112.22 73.1779 113.966 85.2712 121.42 98.7378C140.206 132.631 170.033 146.404 205.859 149.658C222.472 151.164 239.339 147.378 255.432 141.671C272.526 135.618 289.832 130.578 308.179 129.418C316.205 128.911 324.005 128.511 332.032 129.564C348.299 131.711 364.645 133.391 380.992 134.911C389.938 135.751 398.672 134.018 406.885 130.404C414.378 127.098 417.112 123.538 423.925 109.831C431.111 134.551 423.018 154.857 400.992 167.764H401.005Z" fill="black"/>
</svg>
