<svg width="356" height="263" viewBox="0 0 356 263" fill="none" xmlns="http://www.w3.org/2000/svg">
<path d="M185.513 66.384C183.206 67.144 180.779 66.784 178.406 67.1306C166.459 68.9173 155.779 73.4639 146.259 80.9306C136.979 88.2105 130.273 97.3305 125.793 108.157C123.033 114.837 121.486 121.81 121.033 129.037C120.206 142.237 123.046 154.584 129.539 166.077C135.806 177.183 144.593 185.77 155.753 191.89C164.046 196.437 172.926 199.143 182.366 199.757C203.952 201.157 222.192 193.957 236.979 178.103C243.766 170.823 248.566 162.424 251.379 152.89C252.432 149.33 253.326 145.757 253.792 142.05C254.099 139.624 254.432 137.17 254.472 134.757C254.606 124.61 252.659 114.85 248.406 105.597C243.646 95.2238 236.659 86.6505 227.539 79.7572C219.939 74.0106 211.392 70.3306 202.259 68.0506C199.032 67.2506 195.646 66.7706 192.232 66.7306C190.072 66.7039 187.912 66.264 185.726 66.384" stroke="black" stroke-width="3.99998" stroke-linecap="round" stroke-linejoin="round"/>
<path d="M343.232 4.50391C339.445 6.71723 336.712 9.99721 334.818 13.7972C331.765 19.8905 328.898 26.0771 327.058 32.6771C325.658 37.7304 324.565 42.8371 323.858 48.0504C323.152 53.2903 322.885 58.5703 322.418 63.837C322.192 66.3703 322.018 68.9436 321.885 71.5169C321.672 75.8502 321.819 80.2102 321.459 84.5169C321.019 89.6768 321.578 94.7702 321.632 99.8901C321.672 104.09 322.392 108.29 322.792 112.503C323.138 116.143 323.832 119.797 324.792 123.33C325.272 125.103 326.685 126.637 327.658 128.277C329.965 132.17 331.712 136.277 331.338 140.877C331.178 142.943 330.352 144.957 329.818 146.997C329.218 149.263 329.392 151.61 329.112 153.903C328.778 156.756 328.685 159.677 328.552 162.556C328.325 167.503 327.938 172.45 327.085 177.343C326.605 180.13 326.578 182.996 326.245 185.81C325.925 188.516 325.472 191.196 325.085 193.89C325.032 194.276 325.085 194.676 325.085 195.076C325.125 199.583 324.338 204.01 323.965 208.476C323.552 213.45 323.058 218.476 323.592 223.436C323.965 226.876 323.765 230.276 323.885 233.689C324.045 237.983 324.098 242.289 325.085 246.503C325.965 250.276 327.578 253.583 330.992 255.783C332.045 256.463 333.072 257.249 333.938 258.156C335.912 260.223 339.592 259.943 341.432 259.089C345.672 257.156 348.005 253.423 349.885 249.436C351.658 245.663 352.285 241.596 352.752 237.436C353.325 232.503 353.205 227.569 353.205 222.65C353.205 219.436 353.338 216.196 353.032 212.996C352.698 209.516 352.658 205.996 351.965 202.53C351.645 200.89 351.685 199.13 351.525 197.423C351.045 192.17 350.925 186.89 350.245 181.663C349.632 176.93 348.818 172.223 348.298 167.476C347.792 162.876 347.058 158.317 346.698 153.677C346.285 148.41 346.005 143.157 346.432 137.917C346.698 134.583 347.205 131.263 349.058 128.21C351.258 124.597 351.952 120.477 352.352 116.237C352.898 110.317 352.632 104.41 352.618 98.4901C352.618 93.4368 352.285 88.3568 351.832 83.3168C351.525 79.9035 351.378 76.4636 351.005 73.0769C350.605 69.3836 351.058 65.6903 350.645 62.037C350.178 57.8236 350.645 53.597 350.218 49.4237C349.938 46.6504 350.045 43.9037 349.912 41.1437C349.658 35.8904 349.538 30.6238 349.072 25.3838C348.805 22.4638 348.005 19.5838 347.325 16.7172C347.032 15.4772 347.098 14.2105 346.832 12.9572C346.205 9.89054 345.285 7.02389 343.405 4.50391" stroke="black" stroke-width="3.99998" stroke-linecap="round" stroke-linejoin="round"/>
<path d="M180.193 23.2376C175.979 23.7176 171.766 24.0642 167.566 24.7709C159.179 26.1709 151.126 28.6109 143.326 31.9176C131.339 36.9975 120.659 44.0375 111.166 52.9708C101.486 62.0908 93.8063 72.6507 87.9396 84.5306C82.7797 94.9972 79.473 106.104 77.9263 117.637C76.6997 126.797 76.7263 135.997 77.8063 145.224C79.2863 157.89 82.833 169.957 88.593 181.237C97.5129 198.703 110.22 212.93 126.739 223.663C135.779 229.53 145.486 233.903 155.753 236.97C161.059 238.557 166.553 239.517 172.086 240.29C176.619 240.917 181.193 241.157 185.699 241.21C189.273 241.25 192.926 241.103 196.552 240.663C201.939 240.01 207.246 239.13 212.526 237.863C222.632 235.437 232.179 231.623 241.072 226.343C256.579 217.143 269.272 204.97 278.765 189.543C283.845 181.303 287.792 172.584 290.565 163.317C292.112 158.157 293.205 152.904 293.992 147.57C294.925 141.21 295.299 134.85 295.085 128.45C294.925 123.757 294.299 119.104 293.592 114.45C291.899 103.291 288.312 92.7706 283.259 82.744C278.592 73.4774 272.672 65.0508 265.539 57.5175C257.686 49.2242 248.792 42.2908 238.752 36.7842C231.326 32.7042 223.592 29.4776 215.459 27.1843C209.072 25.3976 202.566 24.2109 195.952 23.5843C190.766 23.0909 185.566 23.2776 180.379 23.2109" stroke="black" stroke-width="3.99998" stroke-linecap="round" stroke-linejoin="round"/>
<path d="M16.9532 78.2106C14.6999 76.3973 14.8599 73.6772 14.8732 71.3173C14.8866 64.344 14.3398 57.3973 14.4065 50.424C14.4865 42.5441 14.4066 34.6374 14.8732 26.7841C15.1932 21.4108 15.2332 16.1175 14.3532 10.8242C14.0599 9.05089 13.8998 7.21092 12.6332 5.67759C11.3665 4.14427 9.71323 3.79758 8.27324 5.11758C6.64658 6.59757 5.87323 8.61092 5.3399 10.6376C3.61991 17.1442 2.87323 23.7975 2.48656 30.5308C1.88656 40.7841 2.45994 51.0374 2.11327 61.2773C1.92661 66.9973 2.11322 72.7039 2.13988 78.4239C2.16655 84.8906 3.64654 90.9439 5.96653 96.9972C7.72652 101.597 10.4865 105.464 13.0065 109.557C16.0465 114.49 17.7932 119.85 18.7132 125.53C19.3532 129.477 20.2198 133.397 20.6331 137.357C21.1531 142.33 21.4731 147.317 20.7398 152.33C20.4865 154.077 20.4332 155.877 20.3532 157.65C20.1132 163.09 19.6865 168.543 19.8998 174.01C20.1131 179.477 19.1399 184.89 19.0332 190.37C18.9665 193.65 18.5265 196.93 18.2732 200.223C17.8465 205.743 17.8199 211.263 17.4599 216.77C16.8865 225.717 17.0598 234.65 17.2465 243.57C17.3932 250.823 21.2598 257.25 29.0198 259.61C32.4465 260.663 36.2597 260.516 39.2464 257.583C40.7397 256.116 42.4997 255.036 43.6464 253.076C45.5263 249.876 45.6331 246.423 45.6997 242.983C45.7931 237.863 45.8997 232.716 45.4597 227.623C45.0197 222.37 44.8063 217.09 44.0597 211.837C43.6464 208.863 43.433 205.81 43.1397 202.783C42.753 198.823 42.0597 194.903 41.633 190.957C41.473 189.45 41.3531 187.93 41.2597 186.423C41.0064 182.33 40.4997 178.277 40.0731 174.197C39.8731 172.304 39.8597 170.383 39.633 168.49C39.2064 164.943 38.6731 161.41 38.4997 157.85C38.3931 155.704 37.993 153.477 38.8064 151.344C38.953 150.944 38.8331 150.437 38.8331 149.97C38.8197 145.077 39.2464 140.224 39.9664 135.384C40.4464 132.157 40.8331 128.93 41.5131 125.717C42.1931 122.557 44.1797 120.197 45.513 117.45C47.993 112.357 51.033 107.544 53.2196 102.277C54.473 99.2505 54.7397 96.0372 55.0063 92.8238C55.233 90.1305 55.273 87.3839 55.8597 84.7572C56.353 82.5839 56.2996 80.3839 56.473 78.2239C57.0863 70.4906 56.5796 62.7173 56.3263 54.984C56.0063 45.544 55.233 36.1308 53.4997 26.7841C52.2597 20.0908 51.4197 13.3309 49.8731 6.70424C49.1531 3.62426 47.2997 3.10424 44.9264 5.10423C42.0731 7.50422 41.2064 10.7176 40.7931 14.1842C40.4331 17.2109 40.0997 20.2375 39.5931 23.2508C39.1131 26.1442 39.0064 28.9975 39.1664 31.9308C39.3264 34.7441 39.0997 37.5841 39.0731 40.3974C39.0197 48.7574 39.4197 57.104 40.3397 65.424C40.7131 68.7573 40.4197 72.1573 39.6064 75.4639C39.5798 75.5839 39.6464 75.7439 39.6064 75.8506C39.1664 76.9039 38.6064 77.9839 37.4331 78.1706C36.2998 78.3572 35.7797 77.1572 35.3264 76.4106C34.6331 75.2506 34.2864 73.8773 34.0864 72.5039C33.0864 65.6906 33.5264 58.8373 33.7664 52.0107C33.9531 46.6907 34.0731 41.3307 34.6064 36.0641C35.2864 29.3441 35.2864 22.6508 35.2197 15.9575C35.1797 12.4776 34.7397 8.98423 33.3131 5.70425C32.6997 4.30425 32.1664 2.82426 30.3398 2.78426C28.3798 2.73092 27.0998 3.73093 26.1665 5.50425C24.6465 8.38424 23.8198 11.5042 23.1132 14.5976C22.3265 18.0909 21.4465 21.6109 21.2598 25.2242C21.1265 27.8508 20.9265 30.4774 20.8732 33.1041C20.7665 39.0774 20.6332 45.0641 20.6865 51.0374C20.7265 55.2373 21.0865 59.4506 21.2331 63.6506C21.3931 67.8906 20.6998 72.0239 19.4465 76.0639C19.1132 77.1439 18.2465 77.9039 17.0999 78.2372" stroke="black" stroke-width="3.99998" stroke-linecap="round" stroke-linejoin="round"/>
</svg>
