<svg width="356" height="263" viewBox="0 0 356 263" fill="none" xmlns="http://www.w3.org/2000/svg">
<path d="M185.647 66.466C183.34 67.226 180.914 66.866 178.54 67.2127C166.594 68.9993 155.914 73.546 146.394 81.0127C137.114 88.2927 130.407 97.4126 125.927 108.239C123.167 114.919 121.62 121.893 121.167 129.119C120.34 142.319 123.18 154.666 129.674 166.159C135.94 177.266 144.727 185.853 155.887 191.973C164.18 196.519 173.06 199.226 182.5 199.839C204.087 201.239 222.327 194.039 237.114 178.186C243.9 170.906 248.7 162.506 251.514 152.973C252.567 149.413 253.46 145.839 253.927 142.133C254.234 139.706 254.567 137.253 254.607 134.839C254.74 124.693 252.794 114.933 248.54 105.679C243.78 95.306 236.794 86.7326 227.674 79.8393C220.074 74.0927 211.527 70.4127 202.394 68.1327C199.167 67.3327 195.78 66.8527 192.367 66.8127C190.207 66.786 188.047 66.346 185.86 66.466" stroke="#55ADE1" stroke-width="4" stroke-linecap="round" stroke-linejoin="round"/>
<path d="M343.367 4.58594C339.58 6.79927 336.847 10.0793 334.953 13.8793C331.9 19.9726 329.033 26.1593 327.193 32.7592C325.793 37.8126 324.7 42.9192 323.993 48.1326C323.287 53.3726 323.02 58.6526 322.553 63.9192C322.327 66.4526 322.153 69.0259 322.02 71.5992C321.807 75.9325 321.953 80.2925 321.593 84.5992C321.153 89.7592 321.713 94.8525 321.767 99.9725C321.807 104.173 322.527 108.373 322.927 112.586C323.273 116.226 323.967 119.879 324.927 123.412C325.407 125.186 326.82 126.719 327.793 128.359C330.1 132.252 331.847 136.359 331.473 140.959C331.313 143.026 330.487 145.039 329.953 147.079C329.353 149.346 329.527 151.692 329.247 153.986C328.913 156.839 328.82 159.759 328.687 162.639C328.46 167.586 328.073 172.532 327.22 177.426C326.74 180.212 326.713 183.079 326.38 185.892C326.06 188.599 325.607 191.279 325.22 193.972C325.167 194.359 325.22 194.759 325.22 195.159C325.26 199.666 324.473 204.092 324.1 208.559C323.687 213.532 323.193 218.559 323.727 223.519C324.1 226.959 323.9 230.359 324.02 233.772C324.18 238.066 324.233 242.372 325.22 246.586C326.1 250.359 327.713 253.666 331.127 255.866C332.18 256.546 333.207 257.332 334.073 258.239C336.047 260.306 339.727 260.026 341.567 259.172C345.807 257.239 348.14 253.506 350.02 249.519C351.793 245.746 352.42 241.679 352.887 237.519C353.46 232.586 353.34 227.652 353.34 222.732C353.34 219.519 353.473 216.279 353.167 213.079C352.833 209.599 352.793 206.079 352.1 202.612C351.78 200.972 351.82 199.212 351.66 197.506C351.18 192.252 351.06 186.972 350.38 181.746C349.767 177.012 348.953 172.306 348.433 167.559C347.927 162.959 347.193 158.399 346.833 153.759C346.42 148.492 346.14 143.239 346.567 137.999C346.833 134.666 347.34 131.346 349.193 128.292C351.393 124.679 352.087 120.559 352.487 116.319C353.033 110.399 352.767 104.493 352.753 98.5725C352.753 93.5192 352.42 88.4392 351.967 83.3992C351.66 79.9859 351.513 76.5459 351.14 73.1592C350.74 69.4659 351.193 65.7725 350.78 62.1192C350.313 57.9059 350.78 53.6792 350.353 49.5059C350.073 46.7326 350.18 43.9859 350.047 41.2259C349.793 35.9726 349.673 30.7059 349.207 25.4659C348.94 22.5459 348.14 19.6659 347.46 16.7993C347.167 15.5593 347.233 14.2926 346.967 13.0393C346.34 9.9726 345.42 7.10594 343.54 4.58594" stroke="#55ADE1" stroke-width="4" stroke-linecap="round" stroke-linejoin="round"/>
<path d="M180.327 23.306C176.113 23.786 171.9 24.1326 167.7 24.8393C159.313 26.2393 151.26 28.6793 143.46 31.986C131.473 37.066 120.793 44.1059 111.3 53.0393C101.62 62.1593 93.9401 72.7193 88.0734 84.5992C82.9134 95.0659 79.6068 106.173 78.0601 117.706C76.8334 126.866 76.8601 136.066 77.9401 145.293C79.4201 157.959 82.9668 170.026 88.7268 181.306C97.6467 198.772 110.353 212.999 126.873 223.732C135.913 229.599 145.62 233.972 155.887 237.039C161.193 238.626 166.687 239.586 172.22 240.359C176.753 240.986 181.327 241.226 185.833 241.279C189.407 241.319 193.06 241.172 196.687 240.732C202.073 240.079 207.38 239.199 212.66 237.932C222.767 235.506 232.313 231.692 241.207 226.412C256.713 217.212 269.407 205.039 278.9 189.612C283.98 181.373 287.927 172.652 290.7 163.386C292.247 158.226 293.34 152.973 294.127 147.639C295.06 141.279 295.433 134.919 295.22 128.519C295.06 123.826 294.433 119.173 293.727 114.519C292.033 103.359 288.447 92.8392 283.393 82.8126C278.727 73.5459 272.807 65.1193 265.673 57.5859C257.82 49.2926 248.927 42.3593 238.887 36.8526C231.46 32.7726 223.727 29.546 215.593 27.2526C209.207 25.466 202.7 24.2793 196.087 23.6526C190.9 23.1593 185.7 23.346 180.513 23.2793" stroke="#55ADE1" stroke-width="4" stroke-linecap="round" stroke-linejoin="round"/>
<path d="M17.087 78.2929C14.8337 76.4796 14.9937 73.7596 15.007 71.3996C15.0204 64.4262 14.4737 57.4796 14.5404 50.5062C14.6204 42.6262 14.5404 34.7196 15.007 26.8663C15.327 21.4929 15.367 16.1996 14.487 10.9063C14.1937 9.13295 14.0337 7.29295 12.7671 5.75962C11.5004 4.22628 9.84703 3.87962 8.40703 5.19962C6.78036 6.67962 6.00702 8.69295 5.47368 10.7196C3.75368 17.2263 3.00704 23.8796 2.62037 30.6129C2.02037 40.8663 2.59371 51.1196 2.24704 61.3596C2.06037 67.0796 2.24707 72.7862 2.27373 78.5062C2.3004 84.9729 3.78039 91.0262 6.10039 97.0795C7.86039 101.68 10.6203 105.546 13.1403 109.64C16.1803 114.573 17.927 119.933 18.847 125.613C19.487 129.56 20.3537 133.48 20.767 137.44C21.287 142.413 21.6071 147.399 20.8737 152.413C20.6204 154.159 20.567 155.959 20.487 157.733C20.247 163.173 19.8204 168.626 20.0337 174.093C20.2471 179.559 19.2737 184.973 19.167 190.453C19.1004 193.733 18.6604 197.013 18.407 200.306C17.9804 205.826 17.9537 211.346 17.5937 216.853C17.0204 225.799 17.1937 234.733 17.3804 243.653C17.5271 250.906 21.3937 257.333 29.1537 259.693C32.5803 260.746 36.3937 260.599 39.3804 257.666C40.8737 256.199 42.6337 255.119 43.7804 253.159C45.6604 249.959 45.767 246.506 45.8337 243.066C45.927 237.946 46.0337 232.799 45.5937 227.706C45.1537 222.453 44.9404 217.173 44.1937 211.919C43.7804 208.946 43.567 205.893 43.2737 202.866C42.887 198.906 42.1937 194.986 41.767 191.039C41.607 189.533 41.487 188.013 41.3937 186.506C41.1403 182.413 40.6337 178.359 40.2071 174.279C40.0071 172.386 39.9937 170.466 39.767 168.573C39.3404 165.026 38.807 161.493 38.6336 157.933C38.527 155.786 38.127 153.56 38.9404 151.426C39.087 151.026 38.967 150.519 38.967 150.053C38.9536 145.159 39.3804 140.306 40.1004 135.466C40.5804 132.24 40.967 129.013 41.647 125.8C42.327 122.64 44.3137 120.28 45.647 117.533C48.127 112.44 51.167 107.626 53.3537 102.36C54.607 99.3329 54.8736 96.1195 55.1403 92.9062C55.367 90.2129 55.407 87.4662 55.9937 84.8395C56.487 82.6662 56.4337 80.4662 56.607 78.3062C57.2204 70.5729 56.7137 62.7996 56.4604 55.0662C56.1404 45.6263 55.367 36.2129 53.6336 26.8663C52.3936 20.1729 51.5537 13.4129 50.007 6.78628C49.287 3.70629 47.4336 3.18628 45.0603 5.18628C42.207 7.58628 41.3404 10.7996 40.927 14.2663C40.567 17.2929 40.2337 20.3196 39.727 23.3329C39.247 26.2263 39.1403 29.0796 39.3003 32.0129C39.4603 34.8263 39.2337 37.6663 39.2071 40.4796C39.1537 48.8396 39.5537 57.1862 40.4737 65.5062C40.847 68.8396 40.5537 72.2396 39.7403 75.5462C39.7137 75.6662 39.7803 75.8262 39.7403 75.9329C39.3003 76.9862 38.7403 78.0662 37.567 78.2529C36.4337 78.4396 35.9137 77.2396 35.4604 76.4929C34.7671 75.3329 34.4203 73.9596 34.2203 72.5862C33.2203 65.7729 33.6603 58.9196 33.9003 52.0929C34.087 46.7729 34.207 41.4129 34.7403 36.1463C35.4203 29.4263 35.4204 22.7329 35.3537 16.0396C35.3137 12.5596 34.8737 9.06628 33.447 5.78628C32.8337 4.38628 32.3003 2.90629 30.4737 2.86629C28.5137 2.81295 27.2337 3.81295 26.3003 5.58628C24.7803 8.46628 23.9537 11.5863 23.247 14.6796C22.4604 18.1729 21.5803 21.6929 21.3937 25.3063C21.2603 27.9329 21.0604 30.5596 21.007 33.1863C20.9004 39.1596 20.767 45.1462 20.8203 51.1196C20.8603 55.3196 21.2204 59.5329 21.3671 63.7329C21.5271 67.9729 20.8337 72.1062 19.5804 76.1462C19.247 77.2262 18.3803 77.9862 17.2337 78.3196" stroke="#55ADE1" stroke-width="4" stroke-linecap="round" stroke-linejoin="round"/>
</svg>
