<svg width="374" height="269" viewBox="0 0 374 269" fill="none" xmlns="http://www.w3.org/2000/svg">
<path d="M53.219 248.452C51.6724 248.759 50.099 248.545 48.539 248.585C46.5524 248.639 46.2057 248.839 46.379 250.785C46.539 252.639 46.2323 254.519 46.7789 256.345C49.2189 257.079 51.7657 256.879 54.2457 257.012C58.6191 257.239 63.019 257.239 67.4057 257.025C71.259 256.839 75.1123 256.772 78.9656 256.799C79.8856 256.799 80.0989 256.279 80.1256 255.612C80.2056 253.665 80.0456 251.705 80.2722 249.759C80.3656 248.932 79.8989 248.679 79.1122 248.732C76.6322 248.905 74.139 249.025 71.659 249.185C69.3123 249.345 66.9656 249.025 64.6456 248.839C62.4056 248.665 60.1657 248.572 57.9124 248.585C56.4057 248.585 54.8857 248.492 53.379 248.452" stroke="#55ADE1" stroke-width="5.33333" stroke-linecap="round" stroke-linejoin="round"/>
<path d="M88.7526 246.839C88.7526 250.252 88.3658 253.626 87.5392 256.919C86.6858 260.319 84.2058 262.425 80.9925 263.479C76.9258 264.799 72.7391 265.586 68.4324 265.572C64.6724 265.559 60.9258 265.506 57.1658 265.586C54.9658 265.639 52.7793 265.759 50.5793 265.572C47.4993 265.306 44.4592 264.666 41.5392 263.746C38.9126 262.919 38.0859 260.559 37.8459 257.959C37.5525 254.785 37.1792 251.626 36.8325 248.452" stroke="#55ADE1" stroke-width="5.33333" stroke-linecap="round" stroke-linejoin="round"/>
<path d="M329.325 248.452C326.352 248.599 323.379 248.745 320.406 248.892C318.646 248.985 316.899 249.145 315.139 249.172C311.965 249.225 308.805 248.812 305.632 248.825C304.605 248.825 303.592 248.919 302.566 248.905C300.419 248.865 298.272 248.905 296.125 248.892C295.379 248.892 294.899 249.025 294.792 249.919C294.605 251.519 294.152 253.092 294.352 254.745C294.445 255.572 294.766 256.119 295.552 256.185C299.499 256.532 303.432 256.692 307.406 256.252C309.326 256.039 311.299 256.239 313.246 256.372C317.006 256.625 320.752 256.439 324.512 256.505C325.152 256.505 325.779 256.479 326.419 256.505C327.472 256.559 327.899 256.159 328.072 255.039C328.312 253.545 327.912 252.105 328.019 250.639C328.059 250.052 328.112 249.465 328.165 248.879" stroke="#55ADE1" stroke-width="5.33333" stroke-linecap="round" stroke-linejoin="round"/>
<path d="M310.459 59.7991C310.326 62.9591 311.859 65.5592 313.592 67.9458C314.646 69.3858 315.846 70.8658 317.486 71.7858C318.486 72.3458 319.539 72.7458 320.699 72.6524C322.606 72.5191 324.513 73.1458 326.406 72.5191C332.206 70.5991 335.113 66.3858 335.899 60.5192C336.606 55.2392 333.366 48.7058 327.713 47.2391C322.433 45.8791 315.726 47.3058 312.259 52.2124C310.859 54.1858 310.272 56.5724 310.459 59.0524C310.472 59.2524 310.566 59.4924 310.312 59.6391" stroke="#55ADE1" stroke-width="5.33333" stroke-linecap="round" stroke-linejoin="round"/>
<path d="M322.152 38.292C320.886 38.5853 319.579 38.7587 318.353 39.1853C314.286 40.612 310.366 42.3053 307.219 45.4386C304.979 47.6786 303.819 50.4387 302.846 53.3453C302.139 55.4387 301.979 57.6253 301.726 59.7853C301.379 62.652 302.406 65.3453 303.446 67.9719C304.952 71.7986 307.712 74.692 310.606 77.492C311.179 78.0519 311.806 78.4653 312.513 78.7986C313.486 79.2519 314.539 79.5586 315.419 80.1453C318.073 81.9053 321.113 82.052 324.059 82.092C327.779 82.1453 331.419 81.2119 334.259 78.6252C336.246 76.8119 338.619 75.4253 340.152 73.1053C342.272 69.9053 344.086 66.5853 345.112 62.8653C346.152 59.1187 345.446 55.532 343.739 52.2253C342.366 49.572 340.859 46.932 338.952 44.612C336.019 41.0386 332.193 39.0653 327.566 38.572C325.806 38.3853 324.059 38.3053 322.299 38.3053" stroke="#55ADE1" stroke-width="5.33333" stroke-linecap="round" stroke-linejoin="round"/>
<path d="M337.659 113.225C335.085 113.625 332.512 114.265 329.952 114.372C327.192 114.479 324.499 115.479 321.792 116.679C320.085 117.439 318.272 116.465 316.512 116.252C313.285 115.852 310.045 115.265 306.819 115.092C303.592 114.919 301.845 117.359 302.219 127.745C302.859 145.479 303.285 163.199 303.099 181.025C303.045 186.159 302.592 191.239 303.045 196.479C303.685 203.759 304.512 205.639 307.259 205.892C310.659 206.212 314.019 204.559 317.392 204.745C325.325 205.185 333.259 206.719 341.192 206.839C345.085 206.905 349.032 206.092 352.872 203.465C356.325 201.105 356.392 200.172 356.579 191.305C356.765 182.052 356.632 172.745 356.619 163.465C356.592 152.572 357.192 141.665 356.619 130.772C356.045 119.652 354.272 114.999 350.232 114.452C346.125 113.905 342.005 113.612 337.899 113.212" stroke="#55ADE1" stroke-width="5.33333" stroke-linecap="round" stroke-linejoin="round"/>
<path d="M239.379 124.439C234.513 121.545 229.539 118.918 224.353 116.625C219.633 114.532 214.699 113.879 209.699 113.505C202.939 112.999 196.259 113.679 189.659 115.332C185.606 116.345 181.446 117.025 177.699 118.919C172.886 121.332 168.113 123.825 163.459 126.572C157.659 129.999 151.833 133.519 145.206 135.239C141.273 136.265 137.273 137.025 133.219 137.439C130.446 137.719 127.673 138.199 124.886 138.025C119.739 137.719 114.513 137.705 109.539 136.239C104.286 134.692 98.9794 133.159 94.0327 130.705C92.2994 129.839 90.6194 128.798 89.0727 127.638C86.5261 125.745 83.6727 124.412 80.8594 122.985" stroke="#55ADE1" stroke-width="5.33333" stroke-linecap="round" stroke-linejoin="round"/>
<path d="M240.699 98.1053C236.433 94.4786 231.579 91.7585 226.646 89.2252C224.126 87.9319 221.246 87.6252 218.473 87.1586C215.993 86.7452 213.513 86.4119 211.019 86.1319C207.113 85.6919 203.233 85.9053 199.313 86.3586C194.059 86.9586 189.153 88.7319 184.126 90.1186C182.633 90.5319 181.273 91.4119 179.873 92.1319C174.033 95.0919 168.046 97.7319 162.033 100.319C155.473 103.145 148.673 105.305 141.699 106.692C134.206 108.185 126.593 109.185 118.899 108.812C114.153 108.585 109.539 107.812 104.979 106.239C98.086 103.865 91.8327 100.412 85.8327 96.3986C84.406 95.4386 83.4994 93.8786 81.8994 93.1586" stroke="#55ADE1" stroke-width="5.33333" stroke-linecap="round" stroke-linejoin="round"/>
<path d="M240.259 151.492C239.045 150.426 237.512 150.186 236.032 149.706C231.806 148.346 227.659 146.732 223.432 145.372C218.686 143.839 213.766 143.039 208.819 142.399C204.339 141.812 199.872 141.492 195.366 141.519C190.872 141.546 186.619 142.652 182.526 144.252C179.806 145.306 177.126 146.466 174.312 147.252C171.152 148.146 168.326 149.812 165.406 151.239C161.046 153.359 156.392 154.839 152.099 157.092C147.059 159.746 141.832 161.932 136.419 163.599C131.646 165.066 126.646 165.426 121.659 165.706C116.272 166.012 110.886 165.612 105.899 163.692C100.192 161.492 94.2191 159.639 89.2324 155.972C85.9657 153.559 82.579 151.212 79.819 148.146C79.219 147.479 78.6324 146.626 77.499 146.812" stroke="#55ADE1" stroke-width="5.33333" stroke-linecap="round" stroke-linejoin="round"/>
<path d="M35.8192 158.945V166.692C35.8192 169.519 35.6059 172.372 35.8726 175.172C36.2326 178.892 36.3259 182.572 36.0059 186.292C35.7525 189.252 35.4458 192.225 35.9258 195.212C36.0991 196.239 35.8992 197.359 35.8726 198.425C35.7792 202.252 35.7258 206.092 37.4325 209.692C39.6058 214.265 43.4858 216.479 48.2591 217.265C53.4858 218.132 58.7659 218.385 64.0459 218.279C72.0459 218.132 80.0325 217.892 88.0325 217.865C92.4725 217.839 96.9125 217.812 101.339 217.545C105.352 217.319 109.339 217.692 113.339 217.612C115.526 217.572 117.726 217.825 119.926 217.865C123.926 217.945 127.926 217.985 131.913 218.012C133.419 218.012 134.939 217.892 136.446 217.879C141.859 217.865 147.272 217.785 152.672 217.892C160.126 218.039 167.592 218.305 175.046 218.132C180.699 217.999 186.352 217.959 192.006 217.785C193.299 217.745 194.552 217.839 195.806 217.892C200.446 218.065 205.072 217.612 209.699 217.505C212.152 217.452 214.566 217.332 217.019 217.545C218.419 217.665 219.846 217.239 221.259 217.319C226.432 217.625 231.592 217.319 236.766 217.265C242.632 217.212 248.472 217.505 254.312 217.839C256.246 217.945 258.219 217.599 260.152 217.892C263.032 218.332 265.912 218.359 268.779 217.865C271.312 217.439 273.846 217.132 276.259 216.025C279.659 214.465 281.432 211.799 282.379 208.372C283.286 205.119 283.592 201.785 283.872 198.425C284.299 193.359 284.499 188.292 284.419 183.212C284.366 180.239 284.366 177.252 284.112 174.292C283.526 167.332 283.059 160.372 282.886 153.385C282.832 150.919 282.366 148.359 282.486 145.932C282.686 142.079 282.526 138.225 282.672 134.372C282.872 129.252 282.886 124.119 283.326 119.025C283.579 116.039 283.419 113.065 283.552 110.105C284.099 97.732 284.059 85.3453 284.206 72.9586C284.286 66.532 284.686 60.092 284.832 53.652C284.912 50.4387 283.952 47.3454 282.966 44.292C281.512 39.772 278.046 37.3587 273.899 35.652C271.739 34.7587 269.499 34.4387 267.166 34.4654C262.726 34.5187 258.299 34.492 253.859 34.4787C251.899 34.4787 249.966 34.412 248.006 34.2387C246.272 34.092 244.526 34.452 242.739 34.372C233.819 33.9587 224.899 34.2921 215.979 34.1721C213.006 34.1321 210.032 33.932 207.059 33.9054C202.872 33.852 198.659 33.6654 194.486 33.9587C189.899 34.2654 185.299 34.1454 180.739 34.0654C174.846 33.9454 168.939 34.0254 163.032 33.7187C160.059 33.5721 156.979 33.2387 153.966 33.8654C153.232 34.0254 152.406 33.7321 151.632 33.7587C146.072 33.9854 140.512 34.2387 134.966 34.4787C134.619 34.492 134.286 34.4787 133.939 34.4787C125.939 34.452 117.952 34.8787 109.952 34.7987C106.779 34.7721 103.619 34.692 100.446 34.652C95.5658 34.5987 90.6991 35.0654 85.8191 35.332C83.0991 35.4787 80.3525 35.4387 77.6325 35.332C75.0458 35.2387 72.4859 35.0387 69.8725 35.1587C67.6459 35.2654 65.3792 35.012 63.1525 34.732C61.7792 34.5587 60.4192 34.5187 59.0592 34.4654C57.0592 34.3854 55.0459 34.3454 53.0592 34.2787C49.9792 34.1854 46.8458 34.572 44.1392 36.372C37.6058 40.7454 35.3125 47.092 35.6592 54.652C35.7659 56.9987 35.7792 59.3587 36.1258 61.6654C36.7792 66.092 36.7925 70.5453 37.0991 74.9853C37.2991 77.9587 36.6858 80.9187 36.7791 83.9053C36.7791 84.3053 36.6859 84.7853 36.6859 85.2253C36.6725 89.2253 36.8192 93.2253 36.6192 97.212C36.4858 99.7986 36.3526 102.385 36.3926 104.959C36.4193 106.905 36.7392 108.865 36.6325 110.812C36.3658 115.692 36.2992 120.572 35.8058 125.439C35.6858 126.652 36.0459 127.879 36.0459 129.092C36.0459 132.505 35.9659 135.932 36.0326 139.332C36.0859 142.372 35.3659 145.385 35.8192 148.399C36.0592 150.039 36.1392 151.612 35.8192 153.239C35.5125 154.705 36.1259 156.145 36.0859 157.625C36.0859 158.025 36.2858 158.505 35.8058 158.799" stroke="#55ADE1" stroke-width="5.33333" stroke-linecap="round" stroke-linejoin="round"/>
<path d="M88.3124 246.692C92.0857 245.839 95.9258 246.492 99.7125 246.239C102.939 246.012 106.152 246.039 109.366 246.132C119.312 246.412 129.259 245.985 139.192 246.319C148.166 246.612 157.139 246.652 166.099 246.465C170.579 246.372 175.072 246.239 179.552 246.199C183.099 246.159 186.672 246.079 190.232 246.505C192.539 246.772 194.912 246.465 197.246 246.572C204.552 246.892 211.859 247.132 219.179 247.225C222.046 247.265 224.939 247.439 227.806 247.412C230.886 247.372 233.952 247.639 237.019 247.825C239.606 247.972 242.206 247.799 244.779 248.052C249.699 248.545 254.632 248.839 259.552 248.559C263.846 248.319 268.139 248.532 272.419 248.265C275.046 248.105 277.686 247.919 280.326 247.892C281.352 247.892 282.379 247.972 283.392 248.026C284.419 248.079 285.019 248.639 285.299 249.625C286.046 252.252 286.272 254.959 286.472 257.665C286.672 260.425 287.766 262.839 290.152 264.345C291.299 265.065 292.806 265.252 294.219 265.265C297.486 265.292 300.752 265.399 304.019 265.225C305.579 265.145 307.152 264.852 308.699 265.012C311.912 265.359 315.152 265.012 318.352 265.345C321.286 265.652 324.206 265.532 327.139 265.545C330.366 265.545 333.232 264.519 335.166 261.759C336.432 259.945 336.832 257.785 337.072 255.625C337.312 253.425 337.499 251.225 337.699 249.172C338.659 248.612 339.565 248.706 340.445 248.772C344.885 249.079 349.339 249.079 353.752 248.839C358.846 248.559 363.032 246.212 366.379 242.212C368.352 239.852 369.206 237.226 369.579 234.279C370.126 229.812 370.246 225.319 370.512 220.825C370.886 214.572 370.712 208.346 370.672 202.106C370.646 198.599 370.339 195.079 370.112 191.572C369.579 183.092 369.859 174.599 369.925 166.119C369.965 160.906 370.112 155.679 370.486 150.479C370.832 145.506 370.619 140.532 370.872 135.559C371.232 128.306 370.899 121.026 371.046 113.772C371.152 108.346 370.272 102.946 370.486 97.5456C370.912 86.7722 370.886 75.9856 370.646 65.2256C370.446 56.5456 370.432 47.8656 370.499 39.199C370.539 33.6923 370.752 28.1857 370.726 22.679C370.726 20.4524 370.579 18.2257 369.846 16.1057C368.419 11.9857 365.766 8.799 362.246 6.319C361.179 5.55901 360.059 4.85234 358.886 4.27901C357.432 3.57234 355.886 3.21236 354.219 3.21236C345.979 3.25236 337.739 3.18569 329.499 3.25236C325.939 3.27902 322.366 3.19903 318.819 3.3057C312.192 3.49237 305.552 3.27902 298.926 3.58569C292.819 3.87902 286.726 3.85235 280.646 3.74568C276.166 3.66568 271.659 3.799 267.192 3.439C261.579 2.98567 255.979 3.05235 250.366 2.74568C247.819 2.61235 245.286 2.86569 242.766 2.87903C227.112 2.95903 211.459 2.69234 195.819 3.02567C189.099 3.17234 182.366 3.37234 175.632 3.57234C173.046 3.65234 170.446 3.57237 167.886 3.85237C164.179 4.23904 160.459 3.79901 156.766 4.15901C152.712 4.54568 148.672 4.22568 144.619 4.41235C130.539 5.03902 116.446 4.47902 102.352 4.74568C98.6458 4.81235 94.9392 5.10569 91.2458 5.33235C86.4992 5.62568 81.7925 5.74567 77.0592 5.27901C76.9658 5.27901 76.859 5.27901 76.7657 5.27901C71.0057 5.39901 65.2591 4.97237 59.5125 4.93237C53.1791 4.89237 46.8458 4.29233 40.4991 4.14567C34.8858 4.01233 29.2858 3.81237 23.6725 4.59904C20.9525 4.9857 18.2591 5.37235 15.8058 6.49234C11.3658 8.53234 7.39257 11.3457 5.91258 16.2657C4.71258 20.2657 3.92582 24.4657 4.15249 28.6657C4.33915 32.1323 5.03243 35.599 4.76577 39.0523C4.40577 43.599 4.61922 48.119 4.55255 52.6523C4.51255 55.039 4.73914 57.4256 4.80581 59.8123C4.83247 60.5856 4.6725 61.3723 4.6725 62.1456C4.7125 75.3589 5.0459 88.5723 4.73924 101.772C4.37924 117.372 4.73915 132.972 4.48582 148.572C4.41915 152.812 3.77919 157.052 3.68585 161.292C3.57919 165.972 2.77913 170.626 3.29913 175.332C3.47247 176.906 3.33919 178.546 3.35252 180.146C3.36585 183.519 3.64591 186.879 3.91258 190.239C4.09924 192.612 3.87247 195.012 3.9658 197.399C4.17913 203.106 3.45915 208.799 3.64581 214.506C3.80581 219.719 3.05915 224.959 3.97915 230.145C4.68581 234.119 5.75258 238.012 8.08591 241.385C8.73925 242.319 9.64583 243.132 10.6725 243.772C12.9392 245.186 15.0325 246.946 17.7125 247.532C19.3925 247.892 21.1125 248.052 22.8325 248.279C25.8458 248.692 28.8725 248.652 31.8992 248.532C33.5259 248.466 35.1524 248.239 36.8058 248.265C36.8324 248.265 36.8592 247.985 36.8725 247.839" stroke="#55ADE1" stroke-width="5.33333" stroke-linecap="round" stroke-linejoin="round"/>
</svg>
