<svg width="374" height="270" viewBox="0 0 374 270" fill="none" xmlns="http://www.w3.org/2000/svg">
<path d="M53.0803 249.366C51.5337 249.673 49.9603 249.46 48.4003 249.5C46.4137 249.553 46.067 249.753 46.2404 251.7C46.4004 253.553 46.0936 255.433 46.6403 257.259C49.0802 257.993 51.6269 257.793 54.1069 257.926C58.4802 258.153 62.8801 258.153 67.2668 257.939C71.1201 257.753 74.9735 257.686 78.8268 257.713C79.7468 257.713 79.9601 257.193 79.9868 256.526C80.0668 254.58 79.9068 252.62 80.1334 250.673C80.2268 249.846 79.7601 249.593 78.9734 249.646C76.4934 249.819 74.0002 249.94 71.5202 250.1C69.1735 250.26 66.8269 249.94 64.5069 249.753C62.2669 249.58 60.0268 249.486 57.7735 249.5C56.2668 249.5 54.747 249.406 53.2403 249.366" stroke="black" stroke-width="5.33331" stroke-linecap="round" stroke-linejoin="round"/>
<path d="M88.6267 247.767C88.6267 251.18 88.2402 254.553 87.4135 257.847C86.5602 261.247 84.0801 263.353 80.8668 264.407C76.8002 265.727 72.6135 266.513 68.3068 266.5C64.5468 266.486 60.8002 266.433 57.0403 266.513C54.8403 266.567 52.6535 266.686 50.4535 266.5C47.3736 266.233 44.3337 265.593 41.4137 264.673C38.7871 263.847 37.9604 261.486 37.7204 258.887C37.427 255.713 37.0537 252.553 36.707 249.38" stroke="black" stroke-width="5.33331" stroke-linecap="round" stroke-linejoin="round"/>
<path d="M329.185 249.366C326.212 249.513 323.238 249.659 320.265 249.806C318.505 249.899 316.759 250.06 314.999 250.086C311.825 250.14 308.665 249.726 305.492 249.74C304.465 249.74 303.452 249.833 302.425 249.819C300.279 249.779 298.132 249.819 295.985 249.806C295.239 249.806 294.759 249.94 294.652 250.833C294.465 252.433 294.012 254.006 294.212 255.659C294.305 256.486 294.625 257.033 295.412 257.099C299.359 257.446 303.292 257.606 307.265 257.166C309.185 256.953 311.159 257.153 313.105 257.286C316.865 257.539 320.612 257.353 324.372 257.419C325.012 257.419 325.638 257.393 326.278 257.419C327.332 257.473 327.758 257.073 327.932 255.953C328.172 254.459 327.772 253.019 327.879 251.553C327.919 250.966 327.972 250.379 328.025 249.793" stroke="black" stroke-width="5.33331" stroke-linecap="round" stroke-linejoin="round"/>
<path d="M310.319 60.7141C310.185 63.8741 311.718 66.4741 313.452 68.8608C314.505 70.3008 315.705 71.7808 317.345 72.7008C318.345 73.2608 319.399 73.6607 320.559 73.5674C322.465 73.4341 324.372 74.0607 326.265 73.4341C332.065 71.5141 334.972 67.3008 335.758 61.4341C336.465 56.1542 333.225 49.6208 327.572 48.1542C322.292 46.7942 315.585 48.2208 312.118 53.1275C310.718 55.1008 310.132 57.4874 310.319 59.9674C310.332 60.1674 310.425 60.4074 310.172 60.5541" stroke="black" stroke-width="5.33331" stroke-linecap="round" stroke-linejoin="round"/>
<path d="M322.026 39.2207C320.759 39.514 319.452 39.6874 318.226 40.1141C314.159 41.5408 310.239 43.2341 307.092 46.3674C304.852 48.6074 303.692 51.3674 302.719 54.274C302.012 56.3673 301.852 58.5539 301.599 60.7139C301.252 63.5806 302.279 66.2739 303.319 68.9006C304.826 72.7272 307.586 75.6206 310.479 78.4205C311.052 78.9805 311.679 79.3939 312.386 79.7272C313.359 80.1805 314.412 80.4872 315.292 81.0739C317.946 82.8338 320.986 82.9805 323.932 83.0205C327.652 83.0739 331.292 82.1405 334.132 79.5538C336.119 77.7405 338.492 76.3539 340.026 74.0339C342.145 70.8339 343.959 67.5139 344.985 63.7939C346.025 60.0473 345.319 56.4606 343.612 53.154C342.239 50.5007 340.732 47.8606 338.825 45.5407C335.892 41.9673 332.065 39.9941 327.439 39.5007C325.679 39.3141 323.932 39.234 322.172 39.234" stroke="black" stroke-width="5.33331" stroke-linecap="round" stroke-linejoin="round"/>
<path d="M337.532 114.154C334.958 114.554 332.385 115.194 329.825 115.301C327.065 115.407 324.372 116.407 321.665 117.607C319.958 118.367 318.145 117.394 316.385 117.181C313.158 116.781 309.918 116.194 306.692 116.021C303.465 115.847 301.718 118.287 302.092 128.674C302.732 146.407 303.158 164.127 302.972 181.954C302.918 187.087 302.465 192.167 302.918 197.407C303.558 204.687 304.385 206.567 307.132 206.82C310.532 207.14 313.892 205.487 317.265 205.674C325.198 206.114 333.132 207.647 341.065 207.767C344.958 207.834 348.905 207.02 352.745 204.394C356.198 202.034 356.265 201.1 356.452 192.234C356.638 182.98 356.505 173.674 356.492 164.394C356.465 153.5 357.065 142.594 356.492 131.701C355.918 120.581 354.145 115.927 350.105 115.381C345.998 114.834 341.878 114.541 337.772 114.141" stroke="black" stroke-width="5.33331" stroke-linecap="round" stroke-linejoin="round"/>
<path d="M239.252 125.354C234.386 122.46 229.413 119.834 224.226 117.54C219.506 115.447 214.573 114.794 209.573 114.42C202.813 113.914 196.133 114.594 189.533 116.247C185.48 117.26 181.32 117.94 177.573 119.834C172.76 122.247 167.986 124.74 163.333 127.487C157.533 130.913 151.706 134.433 145.08 136.153C141.146 137.18 137.146 137.94 133.093 138.353C130.32 138.633 127.546 139.113 124.76 138.94C119.613 138.633 114.387 138.62 109.413 137.153C104.16 135.607 98.8533 134.073 93.9067 131.62C92.1733 130.753 90.4932 129.713 88.9466 128.553C86.3999 126.66 83.5467 125.327 80.7334 123.9" stroke="black" stroke-width="5.33331" stroke-linecap="round" stroke-linejoin="round"/>
<path d="M240.573 99.0339C236.306 95.4073 231.453 92.6873 226.519 90.1539C223.999 88.8606 221.12 88.554 218.346 88.0873C215.866 87.674 213.386 87.3406 210.893 87.0606C206.986 86.6206 203.106 86.8339 199.186 87.2873C193.933 87.8873 189.026 89.6606 184 91.0472C182.506 91.4606 181.146 92.3406 179.746 93.0606C173.906 96.0206 167.92 98.6606 161.907 101.247C155.347 104.074 148.547 106.234 141.573 107.62C134.08 109.114 126.467 110.114 118.773 109.741C114.027 109.514 109.413 108.741 104.853 107.167C97.9601 104.794 91.7068 101.341 85.7068 97.3272C84.2802 96.3673 83.3734 94.8073 81.7734 94.0873" stroke="black" stroke-width="5.33331" stroke-linecap="round" stroke-linejoin="round"/>
<path d="M240.132 152.406C238.919 151.34 237.386 151.1 235.906 150.62C231.679 149.26 227.532 147.646 223.306 146.286C218.559 144.753 213.639 143.953 208.692 143.313C204.212 142.726 199.746 142.407 195.239 142.433C190.746 142.46 186.493 143.566 182.399 145.166C179.679 146.22 176.999 147.38 174.186 148.166C171.026 149.06 168.199 150.726 165.279 152.153C160.919 154.273 156.266 155.753 151.973 158.006C146.933 160.66 141.706 162.846 136.293 164.513C131.519 165.98 126.519 166.34 121.533 166.62C116.146 166.926 110.759 166.526 105.773 164.606C100.066 162.406 94.0929 160.553 89.1062 156.886C85.8396 154.473 82.453 152.126 79.693 149.06C79.093 148.393 78.5064 147.54 77.373 147.726" stroke="black" stroke-width="5.33331" stroke-linecap="round" stroke-linejoin="round"/>
<path d="M35.68 159.873V167.62C35.68 170.447 35.4667 173.3 35.7334 176.1C36.0934 179.82 36.1867 183.5 35.8667 187.22C35.6134 190.18 35.3066 193.153 35.7866 196.14C35.96 197.167 35.7601 198.287 35.7334 199.353C35.6401 203.18 35.5866 207.02 37.2933 210.62C39.4666 215.193 43.3466 217.407 48.1199 218.193C53.3465 219.06 58.6266 219.313 63.9066 219.207C71.9066 219.06 79.8932 218.82 87.8932 218.793C92.3331 218.767 96.7731 218.74 101.2 218.473C105.213 218.247 109.2 218.62 113.2 218.54C115.386 218.5 117.586 218.753 119.786 218.793C123.786 218.873 127.786 218.913 131.773 218.94C133.279 218.94 134.8 218.82 136.306 218.807C141.719 218.793 147.133 218.713 152.533 218.82C159.986 218.967 167.453 219.233 174.906 219.06C180.559 218.927 186.213 218.887 191.866 218.713C193.159 218.673 194.413 218.767 195.666 218.82C200.306 218.993 204.933 218.54 209.559 218.433C212.013 218.38 214.426 218.26 216.879 218.473C218.279 218.593 219.706 218.167 221.119 218.247C226.292 218.553 231.452 218.247 236.626 218.193C242.492 218.14 248.332 218.433 254.172 218.767C256.106 218.873 258.079 218.527 260.012 218.82C262.892 219.26 265.772 219.287 268.639 218.793C271.172 218.367 273.705 218.06 276.119 216.953C279.519 215.393 281.292 212.727 282.239 209.3C283.146 206.047 283.452 202.713 283.732 199.353C284.159 194.287 284.359 189.22 284.279 184.14C284.225 181.167 284.225 178.18 283.972 175.22C283.385 168.26 282.919 161.3 282.746 154.314C282.692 151.847 282.226 149.287 282.346 146.86C282.546 143.007 282.386 139.154 282.532 135.3C282.732 130.18 282.746 125.047 283.186 119.954C283.439 116.967 283.279 113.994 283.412 111.034C283.959 98.6605 283.919 86.2738 284.066 73.8872C284.146 67.4606 284.546 61.0207 284.692 54.5807C284.772 51.3674 283.812 48.274 282.825 45.2207C281.372 40.7007 277.905 38.2874 273.759 36.5808C271.599 35.6874 269.359 35.3674 267.026 35.3941C262.586 35.4474 258.159 35.4208 253.719 35.4074C251.759 35.4074 249.826 35.3408 247.866 35.1675C246.132 35.0208 244.386 35.3808 242.599 35.3008C233.679 34.8874 224.759 35.2208 215.839 35.1008C212.866 35.0608 209.892 34.8608 206.919 34.8341C202.732 34.7808 198.519 34.5941 194.346 34.8874C189.759 35.1941 185.159 35.0741 180.599 34.9941C174.706 34.8741 168.799 34.9541 162.893 34.6474C159.919 34.5008 156.839 34.1674 153.826 34.7941C153.093 34.9541 152.266 34.6608 151.493 34.6875C145.933 34.9141 140.373 35.1674 134.826 35.4074C134.48 35.4208 134.146 35.4074 133.8 35.4074C125.8 35.3808 117.813 35.8074 109.813 35.7274C106.64 35.7008 103.48 35.6208 100.306 35.5808C95.4264 35.5274 90.5598 35.9941 85.6798 36.2608C82.9598 36.4075 80.2131 36.3675 77.4931 36.2608C74.9065 36.1675 72.3466 35.9675 69.7332 36.0875C67.5066 36.1941 65.2399 35.9408 63.0132 35.6608C61.6399 35.4874 60.2798 35.4474 58.9198 35.3941C56.9198 35.3141 54.9065 35.2741 52.9198 35.2074C49.8399 35.1141 46.7066 35.5008 44 37.3007C37.4667 41.6741 35.1734 48.0207 35.52 55.5807C35.6267 57.9273 35.64 60.2873 35.9867 62.594C36.64 67.0206 36.6533 71.4739 36.96 75.9139C37.16 78.8872 36.5466 81.8472 36.64 84.8339C36.64 85.2339 36.5467 85.7139 36.5467 86.1539C36.5334 90.1538 36.68 94.1538 36.48 98.1405C36.3467 100.727 36.2133 103.314 36.2533 105.887C36.2799 107.834 36.6 109.794 36.4933 111.74C36.2267 116.62 36.16 121.5 35.6667 126.367C35.5467 127.58 35.9067 128.807 35.9067 130.02C35.9067 133.434 35.8267 136.86 35.8934 140.26C35.9467 143.3 35.2267 146.314 35.68 149.327C35.92 150.967 36 152.54 35.68 154.167C35.3734 155.634 35.9866 157.074 35.9466 158.554C35.9466 158.954 36.1467 159.434 35.6667 159.727" stroke="black" stroke-width="5.33331" stroke-linecap="round" stroke-linejoin="round"/>
<path d="M88.1866 247.62C91.9599 246.767 95.7998 247.42 99.5864 247.167C102.813 246.94 106.027 246.967 109.24 247.06C119.186 247.34 129.133 246.913 139.066 247.247C148.04 247.54 157.013 247.58 165.973 247.393C170.453 247.3 174.946 247.167 179.426 247.127C182.973 247.087 186.546 247.007 190.106 247.433C192.413 247.7 194.786 247.393 197.119 247.5C204.426 247.82 211.733 248.06 219.053 248.153C221.919 248.193 224.813 248.367 227.679 248.34C230.759 248.3 233.826 248.567 236.893 248.753C239.479 248.9 242.079 248.727 244.652 248.98C249.572 249.473 254.506 249.767 259.426 249.487C263.719 249.247 268.012 249.46 272.292 249.193C274.919 249.033 277.559 248.847 280.199 248.82C281.226 248.82 282.252 248.9 283.266 248.953C284.292 249.007 284.892 249.567 285.172 250.553C285.919 253.18 286.146 255.887 286.346 258.593C286.546 261.353 287.639 263.766 290.026 265.273C291.172 265.993 292.679 266.18 294.092 266.193C297.359 266.22 300.626 266.326 303.892 266.153C305.452 266.073 307.026 265.78 308.572 265.94C311.786 266.286 315.026 265.94 318.226 266.273C321.159 266.58 324.079 266.46 327.012 266.473C330.239 266.473 333.105 265.446 335.039 262.687C336.305 260.873 336.705 258.713 336.945 256.553C337.185 254.353 337.372 252.153 337.572 250.1C338.532 249.54 339.439 249.633 340.319 249.7C344.759 250.007 349.212 250.007 353.625 249.767C358.719 249.487 362.905 247.14 366.252 243.14C368.225 240.78 369.079 238.153 369.452 235.207C369.999 230.74 370.119 226.247 370.385 221.753C370.759 215.5 370.585 209.273 370.545 203.033C370.519 199.527 370.212 196.007 369.985 192.5C369.452 184.02 369.732 175.527 369.799 167.047C369.839 161.834 369.985 156.607 370.359 151.407C370.705 146.434 370.492 141.46 370.745 136.487C371.105 129.234 370.772 121.954 370.918 114.701C371.025 109.274 370.145 103.874 370.359 98.4739C370.785 87.7006 370.759 76.914 370.519 66.1541C370.319 57.4741 370.305 48.7941 370.372 40.1275C370.412 34.6209 370.625 29.1143 370.598 23.6077C370.598 21.381 370.452 19.1544 369.719 17.0344C368.292 12.9144 365.639 9.72769 362.119 7.24771C361.052 6.48771 359.932 5.78101 358.759 5.20768C357.305 4.50101 355.759 4.14103 354.092 4.14103C345.852 4.18103 337.612 4.1144 329.372 4.18107C325.812 4.20774 322.239 4.12771 318.692 4.23437C312.066 4.42104 305.425 4.20774 298.799 4.5144C292.692 4.80773 286.599 4.78106 280.519 4.67439C276.039 4.59439 271.532 4.72775 267.066 4.36776C261.452 3.91442 255.852 3.98106 250.239 3.6744C247.693 3.54107 245.159 3.79437 242.639 3.8077C226.986 3.8877 211.333 3.62101 195.693 3.95435C188.973 4.10101 182.239 4.30106 175.506 4.50106C172.919 4.58105 170.319 4.50108 167.759 4.78108C164.053 5.16775 160.333 4.72772 156.64 5.08772C152.586 5.47439 148.546 5.15439 144.493 5.34106C130.413 5.96772 116.32 5.40772 102.227 5.67439C98.5199 5.74106 94.8132 6.03439 91.1198 6.26106C86.3732 6.55439 81.6665 6.67434 76.9332 6.20767C76.8399 6.20767 76.7333 6.20767 76.6399 6.20767C70.88 6.32767 65.1334 5.90107 59.3868 5.86107C53.0535 5.82108 46.7201 5.22104 40.3735 5.07438C34.7602 4.94104 29.1602 4.74108 23.5469 5.52774C20.8269 5.91441 18.1336 6.30105 15.6803 7.42104C11.2403 9.46103 7.26691 12.2744 5.78691 17.1944C4.58692 21.1943 3.80033 25.3943 4.02699 29.5943C4.21366 33.0609 4.90694 36.5275 4.64027 39.9809C4.28027 44.5275 4.49356 49.0475 4.42689 53.5808C4.38689 55.9675 4.61364 58.3541 4.68031 60.7408C4.70698 61.5141 4.54701 62.3008 4.54701 63.0741C4.58701 76.2874 4.92024 89.5007 4.61358 102.701C4.25358 118.301 4.61366 133.9 4.36033 149.5C4.29366 153.74 3.65369 157.98 3.56036 162.22C3.4537 166.9 2.65365 171.554 3.17364 176.26C3.34698 177.834 3.2137 179.474 3.22703 181.074C3.24036 184.447 3.52026 187.807 3.78692 191.167C3.97359 193.54 3.74698 195.94 3.84031 198.327C4.05364 204.033 3.33366 209.727 3.52032 215.433C3.68032 220.647 2.93366 225.887 3.85365 231.073C4.56032 235.047 5.62692 238.94 7.96024 242.313C8.61357 243.247 9.52032 244.06 10.547 244.7C12.8136 246.113 14.9068 247.873 17.5868 248.46C19.2668 248.82 20.9869 248.98 22.7069 249.207C25.7202 249.62 28.7468 249.58 31.7734 249.46C33.4001 249.393 35.0268 249.167 36.6802 249.193C36.7068 249.193 36.7336 248.913 36.7469 248.767" stroke="black" stroke-width="5.33331" stroke-linecap="round" stroke-linejoin="round"/>
</svg>
