<svg width="332" height="356" viewBox="0 0 332 356" fill="none" xmlns="http://www.w3.org/2000/svg">
<path d="M67.8192 42.0078C64.3259 43.7678 64.9792 47.2078 64.5792 50.1678C64.1392 53.4878 64.4593 56.8211 64.6993 60.1677C64.8993 62.7944 64.6726 65.4744 64.5259 68.1144C64.4059 70.2877 65.0059 72.2477 65.7526 74.2476C66.3792 75.941 67.5126 76.5143 69.2459 76.5143C71.2192 76.5143 73.1925 76.7276 75.1659 76.9143C75.5259 76.9543 75.8459 77.301 76.1926 77.501" stroke="black" stroke-width="3.99998" stroke-linecap="round" stroke-linejoin="round"/>
<path d="M283.098 41.1943C285.711 43.021 285.205 45.7809 285.045 48.3276C285.018 48.8609 284.711 49.5543 284.751 50.1676C285.018 54.3276 284.391 58.4609 284.218 62.6076C284.111 65.0476 284.058 67.5141 283.898 69.9541C283.805 71.3541 284.511 72.6209 284.351 74.0342C284.231 75.1275 284.405 76.2474 283.911 77.3008" stroke="black" stroke-width="3.99998" stroke-linecap="round" stroke-linejoin="round"/>
<path d="M220.659 229.26C223.605 230.753 223.792 233.633 224.365 236.393C225.205 240.433 224.512 244.446 224.245 248.433C224.019 251.82 224.699 255.1 224.845 258.433C224.979 261.526 224.645 264.486 223.885 267.406C223.392 269.3 221.339 269.86 220.045 271.086" stroke="black" stroke-width="3.99998" stroke-linecap="round" stroke-linejoin="round"/>
<path d="M75.9795 78.3145C74.7395 79.5544 74.2728 81.0744 74.3395 82.8078C74.4728 86.2077 73.3928 89.4477 73.0595 92.7944C72.6062 97.381 72.6461 101.914 73.2995 106.474C73.4995 107.874 73.6595 109.301 73.3662 110.768C73.0329 112.368 73.6195 113.928 74.1395 115.448" stroke="black" stroke-width="3.99998" stroke-linecap="round" stroke-linejoin="round"/>
<path d="M281.872 185.193C283.285 186.46 283.058 188.313 283.445 189.9C284.432 193.913 284.778 198.073 285.605 202.113C286.765 207.767 287.632 213.487 289.178 219.073C290.818 225.02 291.818 231.126 293.712 237.006C295.685 243.113 296.311 249.433 297.005 255.766C297.511 260.406 298.365 265.006 299.005 269.646C299.725 274.94 300.325 280.26 301.071 285.553C301.471 288.393 302.098 291.193 303.058 293.926C303.845 296.153 304.085 296.793 306.751 295.513C307.271 295.259 308.031 295.086 308.191 294.326" stroke="black" stroke-width="3.99998" stroke-linecap="round" stroke-linejoin="round"/>
<path d="M310.445 293.913C308.485 287.94 307.938 281.686 306.751 275.553C306.045 271.86 304.978 268.233 304.365 264.527C303.405 258.833 302.791 253.087 301.845 247.407C301.045 242.62 299.871 237.9 299.045 233.113C297.631 225.007 295.831 216.993 293.698 209.047C293.271 207.447 292.591 205.927 292.085 204.353C290.685 199.874 289.898 195.247 288.805 190.687C287.231 184.114 286.205 177.42 284.405 170.874C283.898 169.034 283.631 167.18 282.645 165.514C281.431 165.754 281.058 166.674 280.898 167.434C280.071 171.46 277.485 174.58 275.551 178.034C274.845 179.287 274.231 180.647 273.271 181.674C271.938 183.1 271.951 184.514 272.471 186.207C273.565 189.7 274.831 193.154 275.365 196.807C275.418 197.153 275.645 197.474 275.738 197.7C277.391 196.86 277.418 195.5 277.725 194.54C278.711 191.367 279.871 188.287 281.511 185.407C281.911 184.7 281.618 183.94 282.085 183.34" stroke="black" stroke-width="3.99998" stroke-linecap="round" stroke-linejoin="round"/>
<path d="M229.645 155.62C226.378 155.82 223.072 155.727 219.858 156.127C212.045 157.073 204.178 156.74 196.392 157.38C182.032 158.567 167.672 157.753 153.325 158.047C147.752 158.153 142.165 158.073 136.592 157.927C132.725 157.82 128.832 158.513 124.965 158.433C115.992 158.247 107.006 158.02 98.0323 157.767C90.579 157.554 83.1924 157.993 75.7791 158.42C70.7524 158.713 65.6991 158.487 60.6858 159.087C57.3658 159.487 54.0058 159.633 50.6992 160.153C46.9925 160.727 45.7391 161.553 45.7258 165.007C45.6991 170.18 43.6859 175.1 44.3525 180.313C44.7392 183.287 44.8592 186.3 45.2059 189.287C45.4725 191.553 46.8992 193.327 48.0459 195.207" stroke="black" stroke-width="3.99998" stroke-linecap="round" stroke-linejoin="round"/>
<path d="M268.818 116.66C268.778 118.113 267.352 118.607 266.712 119.687C264.098 124.073 262.925 128.873 261.832 133.793C258.805 147.473 259.112 161.353 259.285 175.207C259.378 182.686 260.032 190.166 260.578 197.646C261.205 206.126 263.285 214.286 265.018 222.553C266.818 231.126 269.965 239.233 272.245 247.633C273.818 253.433 275.512 259.193 277.805 264.753C281.751 274.299 285.191 284.046 288.818 293.726C293.951 307.406 299.858 320.699 308.338 332.726C310.578 335.899 313.258 338.352 316.551 340.232" stroke="black" stroke-width="3.99998" stroke-linecap="round" stroke-linejoin="round"/>
<path d="M222.085 307.993C225.645 309.726 225.618 313.207 225.898 316.366C226.125 318.793 226.098 321.26 225.578 323.713C224.752 327.62 225.898 331.473 226.245 335.326C226.432 337.406 226.552 339.393 226.192 341.46C225.965 342.726 225.872 344.046 225.992 345.326C226.352 349.166 224.405 350.74 220.858 350.753C212.378 350.793 204.045 352.633 195.552 352.513C189.365 352.42 183.165 352.58 176.992 352.913C169.579 353.326 162.152 353.046 154.752 353.353C150.059 353.553 145.352 354.086 140.672 353.62C135.485 353.1 130.312 353.18 125.165 353.34C116.179 353.633 107.192 353.94 98.2323 353.606C90.4056 353.313 82.579 353.433 74.7657 353.246C70.4724 353.14 66.1924 352.646 61.9124 352.5C59.7391 352.42 57.5658 352.806 55.3792 352.86C49.5925 352.993 43.8326 352.793 38.0326 353.14C31.8193 353.513 25.526 352.94 19.2727 352.766C16.4327 352.686 13.4727 352.62 10.6727 351.5C8.69937 350.713 7.17942 349.486 5.79276 347.98C4.49943 346.566 4.77942 344.726 4.61942 343.073C4.11276 337.713 4.27276 332.326 3.79277 326.966C3.5261 323.926 4.05941 320.86 4.01941 317.793C3.97941 314.353 6.28606 312.047 8.84605 310.047" stroke="black" stroke-width="3.99998" stroke-linecap="round" stroke-linejoin="round"/>
<path d="M224.738 194.58C225.005 196.14 225.378 197.7 225.525 199.273C225.738 201.513 224.925 203.633 224.512 205.793C223.938 208.767 223.578 211.727 223.685 214.767C223.805 218.3 223.712 221.833 223.712 225.367C223.712 226.473 223.272 227.273 222.285 227.82C219.672 229.26 216.805 229.74 213.925 229.58C211.912 229.473 209.978 229.713 208.005 229.847C205.418 230.02 202.858 230.193 200.245 229.9C196.859 229.513 193.432 229.9 190.045 229.767C184.085 229.513 178.232 230.647 172.285 230.513C164.099 230.34 155.952 231.153 147.792 231.553C138.232 232.02 128.592 232.18 119.032 231.073C114.739 230.58 110.459 231.113 106.179 231.167C102.512 231.22 98.8323 231.113 95.1657 231.313C88.699 231.66 82.2324 232.073 75.7791 232.433C68.9925 232.807 62.1925 233.02 55.3792 232.82C50.0326 232.673 44.6059 232.62 39.2593 233.353C36.9393 233.673 34.6326 233.5 32.3126 233.513C27.566 233.567 22.9126 234.327 18.2327 234.927C16.4193 235.153 14.5127 235.233 12.7394 235.073C9.43272 234.767 7.55276 237.007 5.43277 238.687C3.88611 239.927 4.1928 242.14 4.20613 243.927C4.2328 249.5 4.68608 255.153 4.32608 260.633C3.92608 266.686 6.49943 269.98 11.0994 272.686" stroke="black" stroke-width="3.99998" stroke-linecap="round" stroke-linejoin="round"/>
<path d="M281.271 117.674C282.351 116.861 283.525 117.194 284.738 117.221C290.005 117.341 295.618 115.794 297.165 109.114C297.445 107.928 297.591 106.674 297.565 105.448C297.445 99.2344 298.231 93.0744 298.311 86.8878C298.338 84.8878 298.418 82.7811 297.471 80.7278C296.431 78.4878 294.845 77.8879 292.698 77.7012C286.058 77.1279 279.498 78.3412 272.911 78.6878C268.885 78.9012 264.885 78.9678 260.858 78.9412C252.418 78.9012 243.992 78.8878 235.538 78.3278C229.072 77.9012 222.485 77.5545 215.965 77.9412C208.072 78.3945 200.152 78.3811 192.285 79.3145C190.272 79.5545 188.205 79.2878 186.165 79.1945C183.312 79.0745 180.445 79.4078 177.592 79.3278C166.699 79.0078 155.805 78.9145 144.939 77.9278C142.619 77.7145 140.312 78.1945 138.005 78.3145C133.805 78.5545 129.725 77.4878 125.552 77.2878C122.552 77.1411 119.565 76.7011 116.579 76.7278C110.179 76.7945 103.819 75.9278 97.379 76.5545C94.619 76.8211 91.6723 76.7012 88.819 76.3278C85.859 75.9278 82.9524 76.8078 80.0457 77.3145C78.8191 77.5278 77.4991 77.1678 76.3657 77.9145" stroke="black" stroke-width="3.99998" stroke-linecap="round" stroke-linejoin="round"/>
<path d="M229.232 194.167C222.419 194.34 215.632 193.407 208.832 193.767C202.166 194.114 195.499 194.647 188.832 194.94C185.366 195.087 181.899 195.167 178.419 195.354C170.259 195.794 162.099 196.18 153.939 196.38C143.392 196.647 132.859 195.607 122.313 195.5C116.539 195.434 110.739 195.367 104.966 195.154C97.3393 194.86 89.7261 195.14 82.1128 194.967C79.0461 194.9 75.9928 194.434 72.9261 194.42C70.1395 194.42 67.3528 194.86 64.5528 194.967C59.7795 195.14 55.0862 196.274 50.2729 195.834C45.5929 195.407 40.8597 194.767 36.2063 195.1C30.1397 195.54 24.0997 194.434 18.0064 195.447C15.2197 195.914 12.1798 195.527 9.25977 195.78C6.41979 196.02 5.47309 196.754 4.55309 199.474C3.48643 202.62 3.67311 205.86 3.81978 209.06C3.89978 210.78 3.75317 212.46 3.79317 214.167C3.8865 218.593 4.11313 223.007 4.41979 227.42C4.47312 228.167 4.57976 228.927 4.55309 229.673C4.48642 232.073 5.65979 233.607 7.84645 234.327C8.53978 234.553 8.79314 235.247 9.45981 235.393" stroke="black" stroke-width="3.99998" stroke-linecap="round" stroke-linejoin="round"/>
<path d="M258.619 117.061C256.712 115.474 254.498 116.474 252.499 116.567C250.765 116.661 249.005 117.314 247.192 117.247C242.885 117.114 238.619 117.594 234.339 117.807C231.565 117.941 228.725 117.674 225.979 117.207C222.312 116.581 218.605 116.581 214.952 116.021C212.192 115.594 209.499 116.407 206.792 116.221C200.459 115.807 194.139 116.181 187.819 116.194C182.232 116.207 176.659 116.327 171.086 116.661C166.339 116.941 161.712 115.781 157.006 115.594C156.792 115.594 156.459 115.434 156.192 115.434C151.286 115.621 146.392 114.914 141.499 115.101C136.112 115.301 130.752 114.914 125.379 115.047C113.073 115.327 100.753 115.514 88.446 115.487C85.4593 115.487 82.446 115.901 79.4726 116.301C78.1526 116.474 77.1127 115.674 75.7927 115.807C68.5928 116.567 61.3794 115.474 54.1661 115.847C53.4195 115.887 52.6728 115.887 51.9128 116.021C48.4728 116.594 47.3528 118.127 47.8195 121.567C48.6995 127.927 49.3661 134.327 49.4195 140.74C49.4595 146.3 50.0995 151.78 50.9261 157.26C51.0461 158.034 51.4461 158.754 51.7261 159.514" stroke="black" stroke-width="3.99998" stroke-linecap="round" stroke-linejoin="round"/>
<path d="M68.2323 41.5942C70.539 40.6476 72.9924 41.0209 75.379 40.8209C81.3523 40.3009 87.3389 39.9009 93.3389 39.5942C95.7122 39.4742 98.0989 39.7809 100.486 39.7409C104.165 39.6876 107.832 39.3275 111.499 39.3809C119.592 39.5142 127.685 39.7409 135.779 39.8609C142.379 39.9543 148.979 39.9809 155.565 40.3676C164.672 40.9009 173.792 40.9009 182.912 41.2742C189.672 41.5542 196.378 40.9142 203.125 41.1275C207.352 41.2742 211.565 41.6342 215.778 41.7409C218.965 41.8209 222.192 41.2476 225.365 41.4342C229.765 41.7009 234.085 40.7676 238.432 40.8476C245.298 40.9676 252.192 40.5942 259.045 41.4075C262.445 41.8075 265.858 41.1542 269.258 41.7676C272.485 42.3542 275.685 41.8875 278.831 41.1275C279.338 41.0075 279.818 40.9409 280.271 40.9942C282.805 41.2476 283.325 40.8342 283.538 38.3276C283.965 33.4343 284.138 28.5409 284.471 23.6476C284.658 20.9543 284.218 18.341 284.298 15.6877C284.378 13.2077 284.685 10.7544 285.231 8.36775C285.458 7.39442 285.551 6.44773 285.551 5.50107C285.551 3.75441 284.471 2.72773 282.711 2.64773C278.538 2.46106 274.405 2.96774 270.258 3.24774C268.218 3.39441 266.178 3.44777 264.138 3.44777C260.285 3.44777 256.511 4.23442 252.712 4.68776C251.512 4.83442 250.458 4.19439 249.245 4.23439C245.365 4.34105 241.485 4.18103 237.618 4.28769C231.898 4.44769 226.205 3.75439 220.472 3.82106C210.205 3.92773 199.938 3.19444 189.658 3.44777C185.578 3.55444 181.485 3.8211 177.418 3.60776C170.925 3.2611 164.485 3.8077 158.032 4.0477C156.805 4.0877 155.579 3.87436 154.365 3.87436C147.832 3.86103 141.299 3.78106 134.779 3.90106C131.992 3.95439 129.205 4.20771 126.405 3.88771C120.779 3.24771 115.112 3.52776 109.472 3.43442C107.739 3.40776 106.112 4.02104 104.366 3.88771C98.3122 3.42105 92.2589 3.04772 86.2056 2.64773C85.659 2.60773 85.1123 2.64773 84.5789 2.64773C78.259 2.64773 71.9257 2.64773 65.6057 2.64773C63.7657 2.64773 64.0191 3.86109 63.9391 5.10108C63.6857 9.3544 64.059 13.541 64.739 17.7543C65.3257 21.4877 64.1657 25.2076 64.0724 28.9676C64.0057 31.8076 64.5391 34.5409 64.6057 37.3276C64.6591 39.5142 66.2857 40.4609 68.059 41.2075" stroke="black" stroke-width="3.99998" stroke-linecap="round" stroke-linejoin="round"/>
<path d="M217.392 272.286C217.605 271.326 216.939 271.433 216.379 271.473C214.885 271.593 213.339 271.553 211.899 271.913C208.845 272.673 205.792 272.406 202.712 272.326C197.339 272.166 191.965 272.419 186.592 271.913C181.232 271.406 175.859 271.993 170.472 271.566C165.605 271.179 160.712 272.313 155.792 272.086C150.139 271.833 144.499 271.526 138.859 271.099C135.672 270.846 132.472 270.993 129.272 270.899C121.112 270.646 112.952 270.633 104.792 270.433C101.726 270.353 98.6592 269.779 95.6059 269.899C89.3392 270.126 83.0859 270.713 76.8326 271.046C73.3659 271.233 69.8993 271.166 66.4327 271.273C60.5793 271.446 54.7393 271.659 48.886 271.299C43.8994 270.993 38.9794 272.099 33.9928 272.353C28.0595 272.659 22.1528 272.299 16.2329 272.499C13.6329 272.579 11.0596 272.659 8.65957 274.073C5.84625 275.739 3.65961 277.779 3.00628 281.059C2.68628 282.659 2.56629 284.312 2.59295 285.952C2.67295 290.592 3.21959 295.206 3.64625 299.832C4.00625 303.646 5.68625 306.392 8.07291 308.992C8.44624 309.406 8.75291 309.846 9.49958 309.846C13.0729 309.846 16.5129 311.299 20.1129 311.019C22.9795 310.792 25.8329 310.752 28.6862 311.046C35.6461 311.766 42.5527 310.512 49.4994 310.579C61.9393 310.699 74.4059 310.219 86.8459 310.512C96.7792 310.752 106.726 310.859 116.632 311.379C125.886 311.872 135.152 311.806 144.392 312.339C153.552 312.872 162.592 311.179 171.752 311.512C175.645 311.646 179.619 311.019 183.579 311.019C188.165 311.019 192.699 311.726 197.245 312.126C200.139 312.379 202.925 312.192 205.605 311.379C208.365 310.552 211.125 310.059 213.979 309.766C216.512 309.499 219.085 309.072 221.312 307.739C224.045 306.113 226.085 304.139 226.125 300.419C226.152 296.619 226.459 292.806 226.432 288.993C226.405 285.113 225.912 281.259 225.979 277.366C226.032 274.206 224.925 273.339 221.979 272.193C220.512 271.619 219.232 270.953 217.659 271.553" stroke="black" stroke-width="3.99998" stroke-linecap="round" stroke-linejoin="round"/>
<path d="M281.271 117.887C281.338 118.087 281.351 118.34 281.485 118.487C286.525 124.567 289.271 132.033 293.711 138.487C298.898 146.033 301.311 154.727 303.991 163.34C306.885 172.66 310.498 181.74 313.365 191.086C315.991 199.633 318.031 208.313 320.005 217.02C321.631 224.18 323.058 231.393 324.285 238.633C325.631 246.553 326.538 254.553 327.818 262.486C330.431 278.673 329.125 294.979 329.378 311.246C329.418 313.499 328.858 315.766 328.231 317.979C326.738 323.286 325.498 328.659 323.138 333.699C322.098 335.926 320.618 337.526 318.671 339.059C312.218 344.112 304.378 345.806 296.978 348.552C294.418 349.499 291.898 350.766 289.031 350.619C285.285 350.419 281.991 349.086 279.458 346.312C273.845 340.179 269.538 333.219 266.365 325.526C263.232 317.952 259.925 310.446 256.818 302.873C255.685 300.099 254.992 297.126 253.912 294.326C251.538 288.179 249.018 282.086 246.592 275.953C242.992 266.873 239.845 257.659 237.965 248.019C236.592 240.966 234.618 234.033 233.152 226.993C231.432 218.66 230.285 210.26 230.192 201.713C230.125 195.526 229.325 189.353 229.432 183.153C229.565 174.806 230.058 166.513 231.432 158.26C232.165 153.887 232.298 149.407 232.938 145.02C233.618 140.313 233.885 135.527 235.352 130.94C236.485 127.393 238.165 124.887 242.245 123.62C246.805 122.193 251.312 120.327 255.752 118.46C259.845 116.74 264.151 116.793 268.418 116.46C268.831 116.433 269.338 116.46 269.631 116.233C271.671 114.673 273.858 115.34 275.965 115.887C277.711 116.34 279.378 117.073 281.071 117.687" stroke="black" stroke-width="3.99998" stroke-linecap="round" stroke-linejoin="round"/>
</svg>
