<svg width="332" height="356" viewBox="0 0 332 356" fill="none" xmlns="http://www.w3.org/2000/svg">
<path d="M67.954 42.0791C64.4607 43.8391 65.114 47.2791 64.714 50.2391C64.274 53.5591 64.594 56.8924 64.834 60.2391C65.034 62.8657 64.8073 65.5458 64.6607 68.1858C64.5407 70.3591 65.1406 72.3191 65.8873 74.3191C66.514 76.0124 67.6474 76.5857 69.3807 76.5857C71.354 76.5857 73.3273 76.7991 75.3006 76.9857C75.6606 77.0257 75.9806 77.3724 76.3273 77.5724" stroke="#55ADE1" stroke-width="4" stroke-linecap="round" stroke-linejoin="round"/>
<path d="M283.233 41.2656C285.847 43.0923 285.34 45.8523 285.18 48.3989C285.153 48.9323 284.847 49.6256 284.887 50.2389C285.153 54.3989 284.527 58.5323 284.353 62.6789C284.247 65.1189 284.193 67.5856 284.033 70.0256C283.94 71.4256 284.647 72.6922 284.487 74.1056C284.367 75.1989 284.54 76.3189 284.047 77.3722" stroke="#55ADE1" stroke-width="4" stroke-linecap="round" stroke-linejoin="round"/>
<path d="M220.794 229.333C223.741 230.826 223.927 233.706 224.501 236.466C225.341 240.506 224.647 244.52 224.381 248.506C224.154 251.893 224.834 255.173 224.981 258.506C225.114 261.6 224.781 264.56 224.021 267.48C223.527 269.373 221.474 269.933 220.181 271.16" stroke="#55ADE1" stroke-width="4" stroke-linecap="round" stroke-linejoin="round"/>
<path d="M76.1138 78.3857C74.8738 79.6257 74.407 81.1457 74.4737 82.879C74.607 86.279 73.5271 89.5191 73.1938 92.8658C72.7404 97.4524 72.7804 101.986 73.4338 106.546C73.6338 107.946 73.7937 109.372 73.5004 110.839C73.1671 112.439 73.7538 113.999 74.2738 115.519" stroke="#55ADE1" stroke-width="4" stroke-linecap="round" stroke-linejoin="round"/>
<path d="M282.007 185.279C283.42 186.546 283.193 188.399 283.58 189.986C284.567 193.999 284.913 198.159 285.74 202.199C286.9 207.853 287.767 213.573 289.313 219.159C290.953 225.106 291.954 231.213 293.847 237.093C295.82 243.199 296.447 249.519 297.14 255.853C297.647 260.493 298.5 265.093 299.14 269.733C299.86 275.026 300.46 280.346 301.207 285.639C301.607 288.479 302.234 291.279 303.194 294.013C303.98 296.239 304.22 296.879 306.887 295.599C307.407 295.346 308.167 295.173 308.327 294.413" stroke="#55ADE1" stroke-width="4" stroke-linecap="round" stroke-linejoin="round"/>
<path d="M310.58 293.986C308.62 288.012 308.074 281.759 306.887 275.626C306.18 271.932 305.114 268.306 304.5 264.599C303.54 258.906 302.927 253.159 301.98 247.479C301.18 242.693 300.007 237.973 299.18 233.186C297.767 225.079 295.967 217.066 293.834 209.119C293.407 207.519 292.727 205.999 292.22 204.426C290.82 199.946 290.034 195.319 288.941 190.759C287.367 184.186 286.341 177.493 284.541 170.946C284.034 169.106 283.767 167.253 282.781 165.586C281.567 165.826 281.194 166.746 281.034 167.506C280.207 171.533 277.621 174.653 275.687 178.106C274.981 179.359 274.367 180.719 273.407 181.746C272.074 183.173 272.087 184.586 272.607 186.279C273.701 189.773 274.967 193.226 275.5 196.879C275.554 197.226 275.781 197.546 275.874 197.773C277.527 196.933 277.554 195.573 277.861 194.613C278.847 191.439 280.007 188.359 281.647 185.479C282.047 184.773 281.754 184.013 282.22 183.413" stroke="#55ADE1" stroke-width="4" stroke-linecap="round" stroke-linejoin="round"/>
<path d="M229.767 155.692C226.501 155.892 223.194 155.799 219.981 156.199C212.167 157.146 204.301 156.812 196.514 157.452C182.154 158.639 167.794 157.826 153.447 158.119C147.874 158.226 142.287 158.146 136.714 157.999C132.847 157.892 128.954 158.586 125.087 158.506C116.114 158.319 107.127 158.092 98.1541 157.839C90.7008 157.626 83.3141 158.066 75.9008 158.492C70.8741 158.786 65.8208 158.559 60.8074 159.159C57.4874 159.559 54.1274 159.706 50.8208 160.226C47.1141 160.799 45.8608 161.626 45.8475 165.079C45.8208 170.252 43.8074 175.172 44.4741 180.386C44.8608 183.359 44.9808 186.372 45.3275 189.359C45.5941 191.626 47.0208 193.399 48.1675 195.279" stroke="#55ADE1" stroke-width="4" stroke-linecap="round" stroke-linejoin="round"/>
<path d="M268.94 116.732C268.9 118.186 267.474 118.679 266.834 119.759C264.22 124.146 263.047 128.946 261.954 133.866C258.927 147.546 259.234 161.426 259.407 175.279C259.5 182.759 260.154 190.239 260.7 197.719C261.327 206.199 263.407 214.359 265.14 222.626C266.94 231.199 270.087 239.306 272.367 247.706C273.94 253.506 275.634 259.266 277.927 264.826C281.874 274.372 285.314 284.119 288.94 293.799C294.074 307.479 299.98 320.772 308.46 332.799C310.7 335.972 313.38 338.426 316.674 340.306" stroke="#55ADE1" stroke-width="4" stroke-linecap="round" stroke-linejoin="round"/>
<path d="M222.22 308.065C225.78 309.799 225.754 313.279 226.034 316.439C226.26 318.865 226.234 321.332 225.714 323.785C224.887 327.692 226.034 331.545 226.38 335.399C226.567 337.479 226.687 339.465 226.327 341.532C226.1 342.799 226.007 344.119 226.127 345.399C226.487 349.239 224.54 350.812 220.994 350.825C212.514 350.865 204.18 352.705 195.687 352.585C189.5 352.492 183.3 352.652 177.127 352.985C169.714 353.399 162.287 353.119 154.887 353.425C150.194 353.625 145.487 354.159 140.807 353.692C135.62 353.172 130.447 353.252 125.3 353.412C116.314 353.705 107.327 354.012 98.367 353.679C90.5403 353.385 82.7136 353.505 74.9003 353.319C70.607 353.212 66.327 352.719 62.047 352.572C59.8737 352.492 57.7003 352.879 55.5137 352.932C49.727 353.065 43.967 352.865 38.167 353.212C31.9537 353.585 25.6603 353.012 19.407 352.839C16.567 352.759 13.607 352.692 10.807 351.572C8.83367 350.785 7.31371 349.559 5.92704 348.052C4.63371 346.639 4.9137 344.799 4.7537 343.145C4.24704 337.785 4.40704 332.399 3.92704 327.039C3.66038 323.999 4.19369 320.932 4.15369 317.865C4.11369 314.425 6.42035 312.119 8.98034 310.119" stroke="#55ADE1" stroke-width="4" stroke-linecap="round" stroke-linejoin="round"/>
<path d="M224.874 194.652C225.14 196.212 225.514 197.772 225.66 199.346C225.874 201.586 225.06 203.706 224.647 205.866C224.074 208.839 223.714 211.799 223.82 214.839C223.94 218.372 223.847 221.906 223.847 225.439C223.847 226.546 223.407 227.346 222.42 227.892C219.807 229.332 216.94 229.812 214.06 229.652C212.047 229.546 210.114 229.786 208.14 229.919C205.554 230.092 202.994 230.266 200.38 229.972C196.994 229.586 193.567 229.972 190.18 229.839C184.22 229.586 178.367 230.719 172.42 230.586C164.234 230.412 156.087 231.226 147.927 231.626C138.367 232.092 128.727 232.252 119.167 231.146C114.874 230.652 110.594 231.186 106.314 231.239C102.647 231.292 98.9669 231.186 95.3003 231.386C88.8336 231.732 82.367 232.146 75.9137 232.506C69.127 232.879 62.327 233.092 55.5137 232.892C50.167 232.746 44.7403 232.692 39.3937 233.426C37.0737 233.746 34.7671 233.572 32.4471 233.586C27.7004 233.639 23.0471 234.399 18.3671 234.999C16.5538 235.226 14.6471 235.306 12.8738 235.146C9.5671 234.839 7.68705 237.079 5.56705 238.759C4.02038 239.999 4.32707 242.212 4.34041 243.999C4.36707 249.572 4.82044 255.226 4.46044 260.706C4.06044 266.759 6.63371 270.052 11.2337 272.759" stroke="#55ADE1" stroke-width="4" stroke-linecap="round" stroke-linejoin="round"/>
<path d="M281.394 117.759C282.474 116.946 283.647 117.279 284.86 117.306C290.127 117.426 295.74 115.879 297.287 109.199C297.567 108.013 297.714 106.759 297.687 105.533C297.567 99.3195 298.354 93.1594 298.434 86.9728C298.46 84.9728 298.54 82.8661 297.594 80.8128C296.554 78.5728 294.967 77.9728 292.82 77.7861C286.18 77.2128 279.621 78.4261 273.034 78.7728C269.007 78.9861 265.007 79.0528 260.98 79.0261C252.54 78.9861 244.114 78.9728 235.661 78.4128C229.194 77.9861 222.607 77.6394 216.087 78.0261C208.194 78.4794 200.274 78.4661 192.407 79.3994C190.394 79.6394 188.327 79.3728 186.287 79.2794C183.434 79.1594 180.567 79.4928 177.714 79.4128C166.821 79.0928 155.927 78.9995 145.061 78.0128C142.741 77.7995 140.434 78.2794 138.127 78.3994C133.927 78.6394 129.847 77.5728 125.674 77.3728C122.674 77.2261 119.687 76.7861 116.701 76.8128C110.301 76.8794 103.941 76.0128 97.5006 76.6395C94.7406 76.9061 91.794 76.7861 88.9407 76.4128C85.9807 76.0128 83.074 76.8928 80.1673 77.3994C78.9406 77.6128 77.6206 77.2528 76.4873 77.9995" stroke="#55ADE1" stroke-width="4" stroke-linecap="round" stroke-linejoin="round"/>
<path d="M229.354 194.253C222.541 194.426 215.754 193.493 208.954 193.853C202.287 194.2 195.621 194.733 188.954 195.026C185.487 195.173 182.021 195.253 178.541 195.44C170.381 195.88 162.221 196.266 154.061 196.466C143.514 196.733 132.981 195.693 122.434 195.586C116.661 195.52 110.861 195.453 105.087 195.24C97.4608 194.946 89.8474 195.226 82.2341 195.053C79.1674 194.986 76.1142 194.52 73.0475 194.506C70.2608 194.506 67.4741 194.946 64.6741 195.053C59.9008 195.226 55.2074 196.36 50.3941 195.92C45.7141 195.493 40.9808 194.853 36.3275 195.186C30.2608 195.626 24.2209 194.52 18.1275 195.533C15.3409 196 12.3009 195.613 9.38089 195.866C6.54089 196.106 5.59419 196.84 4.67419 199.56C3.60752 202.706 3.7942 205.946 3.94087 209.146C4.02087 210.866 3.87418 212.546 3.91418 214.253C4.00751 218.68 4.23422 223.093 4.54089 227.506C4.59422 228.253 4.70085 229.013 4.67419 229.76C4.60752 232.16 5.78081 233.693 7.96748 234.413C8.66081 234.639 8.91417 235.333 9.58084 235.479" stroke="#55ADE1" stroke-width="4" stroke-linecap="round" stroke-linejoin="round"/>
<path d="M258.74 117.146C256.834 115.559 254.62 116.559 252.62 116.652C250.887 116.746 249.127 117.399 247.314 117.332C243.007 117.199 238.74 117.679 234.46 117.892C231.687 118.025 228.847 117.759 226.1 117.292C222.434 116.665 218.727 116.666 215.074 116.106C212.314 115.679 209.62 116.492 206.914 116.305C200.58 115.892 194.26 116.266 187.94 116.279C182.354 116.292 176.78 116.412 171.207 116.746C166.46 117.026 161.834 115.866 157.127 115.679C156.914 115.679 156.58 115.519 156.314 115.519C151.407 115.706 146.514 114.999 141.62 115.186C136.234 115.386 130.874 114.999 125.5 115.132C113.194 115.412 100.874 115.599 88.5672 115.572C85.5805 115.572 82.5672 115.985 79.5939 116.385C78.2739 116.559 77.2338 115.759 75.9138 115.892C68.7139 116.652 61.5006 115.559 54.2872 115.932C53.5406 115.972 52.7939 115.972 52.0339 116.106C48.5939 116.679 47.4739 118.212 47.9406 121.652C48.8206 128.012 49.4872 134.412 49.5406 140.825C49.5806 146.385 50.2206 151.866 51.0473 157.346C51.1673 158.119 51.5672 158.839 51.8472 159.599" stroke="#55ADE1" stroke-width="4" stroke-linecap="round" stroke-linejoin="round"/>
<path d="M68.354 41.6793C70.6607 40.7327 73.114 41.106 75.5006 40.906C81.474 40.386 87.4607 39.986 93.4607 39.6794C95.834 39.5594 98.2206 39.866 100.607 39.826C104.287 39.7727 107.954 39.4127 111.621 39.466C119.714 39.5993 127.807 39.826 135.901 39.946C142.501 40.0393 149.101 40.066 155.687 40.4527C164.794 40.986 173.914 40.986 183.034 41.3593C189.794 41.6393 196.501 40.9993 203.247 41.2127C207.474 41.3593 211.687 41.7193 215.901 41.826C219.087 41.906 222.314 41.3327 225.487 41.5194C229.887 41.786 234.207 40.8527 238.554 40.9327C245.42 41.0527 252.314 40.6793 259.167 41.4927C262.567 41.8927 265.981 41.2394 269.381 41.8527C272.607 42.4394 275.807 41.9727 278.954 41.2127C279.461 41.0927 279.94 41.026 280.394 41.0793C282.927 41.3327 283.447 40.9193 283.66 38.4127C284.087 33.5193 284.26 28.626 284.594 23.7327C284.78 21.0393 284.34 18.426 284.42 15.7727C284.5 13.2927 284.807 10.8394 285.354 8.45269C285.58 7.47936 285.674 6.5327 285.674 5.58604C285.674 3.83937 284.594 2.81269 282.834 2.73269C278.66 2.54602 274.527 3.0527 270.381 3.3327C268.341 3.47937 266.3 3.53269 264.26 3.53269C260.407 3.53269 256.634 4.31935 252.834 4.77268C251.634 4.91935 250.581 4.27936 249.367 4.31936C245.487 4.42602 241.607 4.26603 237.74 4.3727C232.02 4.5327 226.327 3.83936 220.594 3.90603C210.327 4.01269 200.061 3.27936 189.781 3.53269C185.701 3.63936 181.607 3.90602 177.541 3.69269C171.047 3.34602 164.607 3.89271 158.154 4.13271C156.927 4.17271 155.701 3.95937 154.487 3.95937C147.954 3.94604 141.421 3.86602 134.901 3.98602C132.114 4.03936 129.327 4.29272 126.527 3.97272C120.901 3.33272 115.234 3.61272 109.594 3.51939C107.861 3.49272 106.234 4.10605 104.487 3.97272C98.4339 3.50605 92.3806 3.13269 86.3273 2.73269C85.7806 2.69269 85.234 2.73269 84.7007 2.73269C78.3807 2.73269 72.0473 2.73269 65.7273 2.73269C63.8873 2.73269 64.1406 3.94606 64.0606 5.18605C63.8073 9.43938 64.1807 13.626 64.8607 17.8394C65.4473 21.5727 64.2873 25.2927 64.194 29.0527C64.1273 31.8927 64.6606 34.626 64.7273 37.4127C64.7806 39.5993 66.4073 40.546 68.1807 41.2927" stroke="#55ADE1" stroke-width="4" stroke-linecap="round" stroke-linejoin="round"/>
<path d="M217.527 272.373C217.74 271.413 217.074 271.519 216.514 271.559C215.02 271.679 213.474 271.64 212.034 272C208.98 272.76 205.927 272.493 202.847 272.413C197.474 272.253 192.1 272.506 186.727 272C181.367 271.493 175.994 272.08 170.607 271.653C165.74 271.266 160.847 272.4 155.927 272.173C150.274 271.92 144.634 271.613 138.994 271.186C135.807 270.933 132.607 271.08 129.407 270.986C121.247 270.733 113.087 270.72 104.927 270.52C101.861 270.44 98.7938 269.866 95.7405 269.986C89.4738 270.213 83.2205 270.799 76.9672 271.133C73.5005 271.319 70.0338 271.253 66.5672 271.36C60.7139 271.533 54.8739 271.746 49.0206 271.386C44.0339 271.079 39.1139 272.186 34.1273 272.44C28.1939 272.746 22.2873 272.386 16.3673 272.586C13.7673 272.666 11.194 272.746 8.79396 274.16C5.98063 275.826 3.79389 277.866 3.14056 281.146C2.82056 282.746 2.70056 284.4 2.72723 286.04C2.80723 290.68 3.35395 295.293 3.78061 299.919C4.14061 303.733 5.82062 306.479 8.20729 309.079C8.58062 309.493 8.88721 309.933 9.63388 309.933C13.2072 309.933 16.6472 311.386 20.2472 311.106C23.1139 310.88 25.9672 310.839 28.8206 311.133C35.7805 311.853 42.6872 310.599 49.6338 310.666C62.0738 310.786 74.5405 310.306 86.9805 310.6C96.9138 310.84 106.861 310.946 116.767 311.466C126.02 311.959 135.287 311.893 144.527 312.426C153.687 312.959 162.727 311.266 171.887 311.599C175.78 311.733 179.754 311.106 183.714 311.106C188.3 311.106 192.834 311.813 197.38 312.213C200.274 312.466 203.06 312.279 205.74 311.466C208.5 310.639 211.26 310.146 214.114 309.853C216.647 309.586 219.22 309.159 221.447 307.826C224.18 306.199 226.22 304.226 226.26 300.506C226.287 296.706 226.594 292.893 226.567 289.079C226.54 285.2 226.047 281.346 226.114 277.453C226.167 274.293 225.06 273.426 222.114 272.28C220.647 271.706 219.367 271.039 217.794 271.639" stroke="#55ADE1" stroke-width="4" stroke-linecap="round" stroke-linejoin="round"/>
<path d="M281.394 117.959C281.46 118.159 281.474 118.412 281.607 118.559C286.647 124.639 289.394 132.106 293.834 138.559C299.02 146.106 301.434 154.799 304.114 163.412C307.007 172.732 310.62 181.812 313.487 191.159C316.114 199.706 318.154 208.386 320.127 217.092C321.754 224.252 323.18 231.466 324.407 238.706C325.754 246.626 326.66 254.626 327.94 262.559C330.554 278.746 329.247 295.052 329.5 311.319C329.54 313.572 328.98 315.839 328.354 318.052C326.86 323.359 325.62 328.732 323.26 333.772C322.22 335.999 320.74 337.599 318.794 339.132C312.34 344.185 304.5 345.879 297.1 348.625C294.54 349.572 292.02 350.839 289.154 350.692C285.407 350.492 282.114 349.159 279.58 346.385C273.967 340.252 269.66 333.292 266.487 325.599C263.354 318.026 260.047 310.519 256.94 302.946C255.807 300.172 255.114 297.199 254.034 294.399C251.66 288.252 249.14 282.159 246.714 276.026C243.114 266.946 239.967 257.732 238.087 248.092C236.714 241.039 234.74 234.106 233.274 227.066C231.554 218.732 230.407 210.332 230.314 201.786C230.247 195.599 229.447 189.426 229.554 183.226C229.687 174.879 230.18 166.586 231.554 158.332C232.287 153.959 232.42 149.479 233.06 145.092C233.74 140.386 234.007 135.599 235.474 131.012C236.607 127.466 238.287 124.959 242.367 123.692C246.927 122.266 251.434 120.399 255.874 118.532C259.967 116.812 264.274 116.866 268.54 116.532C268.954 116.506 269.46 116.532 269.754 116.306C271.794 114.746 273.98 115.412 276.087 115.959C277.834 116.412 279.5 117.146 281.194 117.759" stroke="#55ADE1" stroke-width="4" stroke-linecap="round" stroke-linejoin="round"/>
</svg>
