<svg width="392" height="322" viewBox="0 0 392 322" fill="none" xmlns="http://www.w3.org/2000/svg">
<path d="M384.314 270.765C387.208 269.805 388.981 268.045 389.888 265.231C390.701 262.711 391.088 259.871 391.088 256.578C391.088 246.885 384.328 239.591 374.661 238.831C369.888 238.458 364.874 238.365 359.301 238.551C358.741 238.565 357.008 238.631 355.728 237.338C354.448 236.045 354.514 234.325 354.541 233.765C354.621 231.685 354.674 228.965 354.474 226.271C354.421 225.698 354.288 223.965 355.488 222.565C356.554 221.325 358.048 221.085 359.074 221.018C362.514 220.792 365.874 220.512 369.088 219.725C373.528 218.618 376.688 215.911 378.714 211.445C383.008 202.018 382.021 193.125 375.701 184.258C374.288 182.285 374.221 180.365 375.474 178.232C378.408 173.272 381.154 167.925 379.968 162.005C378.181 153.138 375.381 149.819 368.408 148.339C361.048 146.779 354.381 146.392 348.034 147.165C328.688 149.512 312.648 150.259 297.568 149.525C296.341 149.472 295.115 149.392 293.888 149.312L292.595 149.232C290.541 149.099 288.421 148.952 286.341 149.005C277.541 149.019 268.741 149.019 259.955 149.019H247.755C242.822 149.512 237.862 149.339 233.075 149.179C231.182 149.112 229.302 149.045 227.422 149.019C222.782 148.952 218.088 148.752 213.542 148.565C206.662 148.272 198.995 147.939 191.689 148.165C183.835 148.419 177.315 148.285 171.182 147.765H170.955C167.915 147.578 166.929 145.765 166.635 144.258C166.382 142.965 165.569 141.939 164.089 141.059C163.435 140.672 161.715 139.645 161.715 137.592C161.715 135.525 163.475 134.459 164.062 134.099C172.089 129.205 178.435 122.379 182.929 113.779C186.462 107.032 188.329 99.0588 188.822 88.6855C189.009 84.6455 188.382 81.3521 186.902 78.6455C183.302 72.0589 178.569 64.6722 170.702 59.7922C160.635 53.5389 149.489 47.9256 136.302 49.1123C135.555 49.1789 133.569 49.3523 132.262 47.8323C130.982 46.339 131.422 44.5523 131.675 43.4723C134.635 31.419 132.142 21.4324 124.049 12.9391C117.902 6.49913 109.956 2.61913 99.0223 0.752473C91.289 -0.567521 83.5157 0.779224 74.5691 5.00587C65.1158 9.45918 59.0092 16.8325 55.8892 27.5391C54.4225 32.5791 54.3958 37.7257 55.8225 42.859C56.2625 44.459 56.7292 46.1123 55.5425 47.6056C54.3559 49.1123 52.6759 49.0456 50.8892 48.979C46.0226 48.8056 39.7026 48.9391 33.9293 51.5657C24.556 55.8324 16.356 62.4323 9.55608 71.2189C3.56944 78.9389 0.689451 88.2187 0.489452 100.419C0.382786 106.925 2.35611 112.872 6.52942 118.619C8.54275 121.392 10.6361 124.032 12.9561 126.939C16.5427 131.432 20.836 134.659 25.716 136.499C26.4493 136.779 28.396 137.512 28.8226 139.539C29.2493 141.539 27.8226 142.965 27.2093 143.565C19.9693 150.739 15.8227 159.912 14.5161 171.605C14.1427 174.992 14.4094 178.258 15.3427 181.312L15.8494 182.978C16.756 185.978 17.7027 189.098 18.716 192.098C22.5693 203.538 30.5293 212.032 42.3826 217.352C54.2759 222.698 66.9824 222.605 77.8224 221.818C80.9157 221.591 83.8357 220.192 86.9424 218.712C87.7557 218.325 88.5823 217.925 89.409 217.552C90.3823 217.112 91.3024 216.698 92.2623 216.698C92.9023 216.698 93.4757 216.871 94.0357 217.245C95.6623 218.298 95.649 220.005 95.6357 221.645C95.6357 223.285 95.5957 224.925 95.5557 226.565L95.5023 229.338C95.4623 231.791 95.4357 234.258 95.4223 236.711C95.3823 242.165 95.329 247.685 95.0623 253.138C94.7957 258.618 94.7023 264.218 94.5957 269.631C94.5023 274.778 94.409 280.018 94.1823 285.244C94.0623 287.938 94.0357 290.685 94.009 293.338C93.9423 299.164 93.8757 305.151 92.929 311.111C92.4223 314.284 92.5557 316.724 93.3557 318.791C93.9557 320.351 95.1823 321.258 96.4623 321.071C98.3156 320.804 98.689 318.964 98.7423 317.898L98.7956 316.898C98.8623 315.564 98.929 314.218 99.089 312.844C99.9556 305.858 100.929 297.951 100.409 290.124C100.236 287.391 100.329 284.711 100.529 281.525C101.396 267.778 101.609 254.165 101.702 242.671C101.742 237.751 101.862 232.751 101.982 227.911V227.485C102.049 225.405 102.089 223.365 102.142 221.325V221.178C102.142 220.578 102.116 218.738 103.769 217.712C104.396 217.325 105.729 216.805 107.542 217.712C110.049 218.978 112.916 219.391 115.942 219.818L117.276 220.005C122.129 220.725 125.916 220.125 129.182 218.138C130.995 217.031 132.715 217.378 133.275 217.498C134.995 217.845 136.702 218.245 138.409 218.645C142.902 219.698 147.115 220.672 151.435 220.698C154.435 220.712 155.569 222.818 155.635 224.618C155.742 227.498 155.875 230.885 156.089 234.232C156.169 235.591 155.835 236.725 155.062 237.565C153.889 238.858 152.235 238.911 151.689 238.938C149.942 239.005 148.195 239.098 146.435 239.205C143.249 239.391 139.649 239.591 136.009 239.525C131.382 239.431 127.462 240.218 124.049 241.978C120.196 243.965 118.089 246.791 117.609 250.631C117.062 254.991 117.516 259.298 118.956 263.445C119.662 265.471 121.102 267.098 123.236 268.271C126.729 270.205 129.502 271.165 132.209 271.378C133.262 271.458 134.782 271.725 135.875 273.031C136.982 274.351 136.969 275.925 136.862 276.991C136.409 281.738 136.009 287.351 136.555 293.018C136.609 293.645 136.662 294.284 136.715 294.924C137.022 298.591 137.315 302.058 138.862 305.018C140.595 308.338 142.595 311.578 144.809 314.684C146.795 317.471 150.449 319.324 154.582 319.644C158.662 319.951 162.475 318.711 164.822 316.311C169.849 311.164 172.715 305.538 173.355 299.565L173.649 296.844C174.329 290.631 175.035 284.204 174.529 277.951C174.449 276.898 174.462 275.365 175.635 274.138C176.969 272.751 178.782 272.831 179.475 272.871C185.862 273.111 192.729 273.138 201.715 272.965C221.622 272.565 244.755 272.165 267.422 272.658C272.741 272.778 278.048 272.938 283.368 273.111C297.488 273.578 312.101 274.045 326.435 273.351C327.181 273.311 329.155 273.218 330.475 274.751C331.848 276.365 331.408 278.471 331.168 279.604C329.061 289.764 330.288 299.791 334.795 309.364C335.648 311.191 336.981 312.858 338.981 314.604C342.381 317.578 346.514 318.898 351.661 319.964C359.274 321.538 367.101 317.124 369.474 309.924C370.301 307.431 370.954 304.778 371.581 302.204L371.754 301.498C372.954 296.604 372.794 291.618 372.621 286.338C372.514 283.218 372.408 279.991 372.621 276.725C372.688 275.658 372.888 272.405 377.021 272.031C379.061 271.845 381.728 271.525 384.221 270.698L384.314 270.765ZM162.089 153.418C162.702 153.392 163.315 153.352 163.929 153.312C166.302 153.165 168.995 152.992 171.689 153.245C177.129 153.778 182.755 153.605 188.195 153.432C192.649 153.285 197.142 153.152 201.595 153.352C213.675 153.898 225.635 154.139 237.195 154.365C243.382 154.499 249.702 154.419 255.795 154.352H256.502C259.502 154.312 262.515 154.272 265.515 154.258H268.768C279.808 154.205 291.235 154.152 302.501 154.885C304.075 154.992 305.675 154.978 307.221 154.965H315.675C321.515 154.952 329.221 154.952 337.061 155.005C339.541 155.032 342.034 154.978 344.794 154.912C349.528 154.805 354.408 154.712 359.274 155.072C361.834 155.259 364.554 155.605 367.221 156.872C370.648 158.498 372.981 161.685 373.448 165.392C373.914 169.085 372.474 172.738 369.568 175.165C365.621 178.485 361.181 180.178 356.368 180.205L334.141 180.325C324.115 180.378 314.088 180.432 304.048 180.498C300.608 180.525 297.115 180.618 293.741 180.725C285.995 180.952 278.728 181.165 271.821 180.565C262.408 180.365 253.315 180.538 244.528 180.698H244.275C238.568 180.805 232.755 180.912 227.062 180.912C213.568 180.912 199.635 180.925 185.969 181.792C181.315 182.085 176.622 182.125 172.089 182.165H171.942C167.102 182.205 162.115 182.258 157.249 182.605C155.422 182.738 153.475 182.858 151.569 182.858C147.902 182.858 144.915 182.405 142.155 181.418C136.742 179.498 134.542 176.258 134.795 170.618C134.942 167.352 135.275 163.858 136.795 160.418C137.969 157.738 139.969 155.912 142.715 154.992C145.675 153.992 148.302 153.618 150.742 153.832C153.329 154.058 155.942 153.858 158.689 153.658H158.875C159.942 153.565 160.995 153.485 162.062 153.432L162.089 153.418ZM129.675 178.112C130.169 180.298 130.955 182.098 132.075 183.618C133.489 185.538 133.395 187.552 131.822 189.298C126.995 194.632 125.196 200.965 126.329 208.658C126.449 209.472 126.716 211.365 125.382 212.805C124.782 213.445 123.689 214.165 121.849 214.045L120.622 213.965C116.236 213.672 111.262 213.352 107.062 209.832C104.729 207.885 101.596 204.645 101.236 199.072C100.676 190.338 100.556 181.538 100.449 173.032V171.698C100.409 169.698 100.382 167.698 100.342 165.685C100.276 161.725 101.742 158.352 104.689 155.658C109.276 151.472 113.009 146.645 116.969 141.552L118.356 139.778C119.369 138.485 120.476 137.125 121.782 135.925C124.622 133.312 127.062 130.312 129.849 126.619C130.449 125.819 132.235 123.072 129.969 121.352C129.275 120.832 128.502 120.619 127.702 120.739C126.675 120.899 125.702 121.579 124.929 122.659C122.182 126.539 119.049 130.072 116.036 133.472C113.102 136.779 110.076 140.192 107.502 143.832C106.836 144.792 105.929 145.405 104.582 145.859L100.622 147.179V143.005C100.622 142.419 100.609 141.832 100.582 141.245V141.045C100.529 139.445 100.476 137.805 100.689 136.098C101.142 132.472 101.249 128.699 101.356 125.059L102.022 124.939H101.356C101.436 122.032 101.516 119.045 101.769 116.072C102.249 110.499 102.449 104.805 102.649 99.2987C102.849 93.7521 103.062 88.0321 103.542 82.2988C103.716 80.1921 102.809 78.7389 101.156 78.5122C99.489 78.2855 98.089 79.4455 97.609 81.4721C96.9157 84.3655 96.7956 87.3522 96.6623 90.5255L96.5957 92.0588C96.409 95.8455 96.2757 99.632 96.129 103.419L96.089 104.539C96.009 106.659 95.929 108.765 95.849 110.885V111.112C95.849 111.739 95.8623 113.059 94.9557 114.405L92.889 117.459L90.3157 114.819C88.5024 112.952 86.6357 110.899 85.6357 107.992C85.0624 106.339 84.4091 104.459 83.6891 102.739C83.1557 101.459 82.4491 100.499 81.5557 99.8321C80.3824 98.9521 78.9424 98.8988 77.9157 99.6854C76.9957 100.405 76.3957 101.739 77.0357 102.939C78.0624 104.859 78.7291 106.792 79.3691 108.659C79.6091 109.365 79.8491 110.072 80.1157 110.765C80.929 112.965 82.0091 114.792 83.4224 116.339C84.729 117.779 85.7157 119.219 86.449 120.739L86.649 121.165C89.129 126.325 91.7023 131.659 93.6757 137.285C94.249 138.912 94.3024 140.499 94.2757 141.832C94.1957 147.192 94.0757 152.552 93.9557 157.912C94.0223 159.352 93.4757 160.552 92.3423 161.418L90.129 163.125L87.9824 160.739C85.9957 158.525 83.9424 156.232 81.7157 154.298C80.3824 153.125 79.0624 151.939 77.7557 150.739C76.1957 149.325 74.5824 147.858 72.9691 146.472L72.0758 145.712C69.3291 143.405 66.5025 141.019 64.4625 137.565C64.2091 137.139 63.4091 136.539 63.1558 136.339C61.7425 135.272 59.9558 135.285 58.8358 136.379C57.7292 137.445 57.6625 139.125 58.6492 140.565L59.2092 141.379C61.3691 144.539 63.3958 147.539 66.3958 149.392C66.9691 149.752 68.6758 150.819 68.9691 152.872C69.2625 154.965 67.8625 156.512 67.3425 157.085C65.5025 159.125 63.7291 161.338 62.0092 163.472L60.4225 165.445C60.0092 165.965 59.6758 166.458 59.4225 166.952C58.6358 168.485 58.9158 170.152 60.0892 170.978C61.3025 171.832 62.7691 171.592 64.0091 170.325C65.8625 168.432 67.4358 166.298 69.1025 164.032C69.8358 163.032 70.5691 162.045 71.3158 161.072C71.5158 160.819 71.6624 160.605 71.7958 160.418C72.3424 159.658 73.1424 158.565 74.6758 158.379C76.2358 158.192 77.2624 159.058 78.1557 159.818L78.7157 160.285C80.4091 161.685 81.7557 163.285 83.0624 164.845C84.6091 166.685 86.0624 168.418 87.849 169.498C92.5157 172.312 94.5157 176.392 94.1423 182.338C93.8357 187.138 94.2223 192.112 94.689 196.778C94.8757 198.658 94.569 200.218 93.7157 201.658C93.4623 202.085 93.4223 202.312 93.4223 202.312C93.3957 207.685 89.049 210.112 87.409 211.018C82.009 214.032 77.1424 215.431 72.1024 215.431C71.3558 215.431 70.5958 215.405 69.8491 215.338C68.5691 215.232 67.2891 215.138 65.9958 215.058H65.7558C59.9425 214.658 53.9292 214.258 48.0759 212.098C37.0759 208.058 29.4626 200.645 25.4493 190.085C24.4627 187.498 23.676 184.805 22.9827 182.418L22.9427 182.285C22.6494 181.258 22.3427 180.232 22.0227 179.218C21.3827 177.165 21.2227 174.965 21.4893 172.285C22.5827 161.538 26.9026 152.792 34.3293 146.298L34.556 146.098C35.476 145.285 36.5293 144.365 37.6626 143.525C39.7159 141.992 40.4359 139.605 40.9026 136.512C40.9693 136.059 41.1293 134.992 38.9026 133.819C36.956 132.805 34.7693 132.205 32.4626 131.565L31.196 131.219C26.1693 129.805 21.836 126.845 18.2894 122.419C15.8361 119.352 13.8894 116.832 12.1694 114.485C8.80941 109.912 7.28942 105.245 7.52942 100.219L7.56942 99.472C7.76941 95.1121 7.96941 90.6188 9.39607 86.1388C10.9561 81.2588 13.5961 76.7255 17.4627 72.2855C22.5427 66.4455 28.7427 61.7523 35.8893 58.3523C42.4626 55.219 49.6759 54.6323 56.7692 56.6323C60.3692 57.6456 64.1691 58.8856 67.5825 61.1256C68.1291 61.4856 68.8625 61.6723 69.7691 61.7123C71.4758 61.7523 72.8624 60.9389 73.3824 59.5922C74.0491 57.8322 73.0891 56.5123 72.1691 55.699C70.3958 54.1523 68.5958 52.6322 66.8091 51.0989C65.1292 49.6723 64.0091 47.8189 63.4625 45.5923C63.0758 43.9656 62.6225 42.339 62.1158 40.7656C60.7291 36.419 60.9558 31.8591 62.7692 27.2325C63.7825 24.6725 64.9425 22.0858 66.3291 19.3258C67.7558 16.4858 70.2224 14.8724 72.2091 13.5791C80.5824 8.0991 88.089 5.96583 95.8223 6.80583C109.342 8.31249 118.769 14.3258 123.822 24.6858C126.635 30.4591 126.716 37.0857 124.049 43.3657L123.982 43.5391C122.196 47.7257 120.356 52.0456 116.369 55.4456C115.156 56.4722 115.289 58.2856 116.009 59.4589C116.876 60.8456 118.556 61.4188 120.289 60.9122C121.542 60.5388 122.582 59.9255 123.369 59.0855C124.862 57.4855 126.609 56.9656 128.129 56.6189C134.249 55.1789 139.689 54.9656 144.742 55.9255C151.222 57.1789 157.715 59.9256 164.582 64.3256C170.449 68.0856 174.849 72.4188 178.049 77.5788C179.675 80.2054 181.795 84.2722 181.435 89.2055C180.915 96.2055 180.022 104.259 175.822 111.365C170.115 121.032 163.582 126.992 155.262 130.112C153.755 130.685 152.289 130.965 150.875 131.245C150.169 131.379 149.462 131.525 148.769 131.699C145.715 132.472 145.182 133.965 145.049 135.192C144.862 136.872 145.809 138.272 147.862 139.352C149.049 139.979 150.235 140.592 151.409 141.192L160.555 145.925L152.289 147.659C150.702 147.992 149.195 148.152 147.755 148.312C146.782 148.418 145.835 148.525 144.889 148.672C137.409 149.898 132.809 153.805 130.835 160.592C128.889 167.272 128.542 172.818 129.742 178.072L129.675 178.112ZM153.155 214.098C149.355 213.925 145.582 213.458 141.942 213.005L141.409 212.938C140.462 212.818 139.635 212.538 138.955 212.111C136.502 210.565 134.755 207.965 134.195 204.965C133.622 201.965 134.289 198.912 136.009 196.578L136.342 196.152C136.395 196.085 136.449 196.018 136.475 195.965C139.955 188.805 146.462 187.978 151.062 187.978H157.182C164.395 188.005 171.849 188.005 179.115 187.658C195.395 186.858 211.862 186.698 227.795 186.538L233.768 186.485C237.702 186.445 241.635 186.378 245.582 186.325H246.275C252.675 186.218 259.168 186.112 265.555 186.098C269.235 186.112 272.928 186.218 276.048 186.325C280.421 186.472 284.955 186.632 289.395 186.512C306.448 186.032 323.755 185.992 340.501 185.952H342.914C347.341 185.938 351.754 185.925 356.181 185.898C357.168 185.898 358.274 185.858 359.554 185.765C364.874 185.432 369.421 187.658 373.448 192.605C376.141 195.898 375.381 201.192 374.928 203.312C374.154 206.978 372.128 211.498 368.808 213.178C366.621 214.272 364.394 214.432 362.421 214.565C338.154 216.232 316.528 217.525 297.555 216.525C292.741 216.432 288.235 216.312 283.941 216.218C274.755 215.992 266.888 215.805 258.902 215.791H257.822C242.568 215.791 226.795 216.298 209.608 217.325C208.328 217.405 206.995 217.445 205.622 217.445C201.888 217.445 198.169 217.178 194.582 216.911H194.395C191.702 216.698 188.915 216.498 186.209 216.418C180.169 216.245 174.115 215.725 168.275 215.205C163.275 214.765 158.169 214.325 153.169 214.111L153.155 214.098ZM348.661 227.125C348.634 229.725 348.528 232.271 348.421 234.871C348.328 237.111 346.968 239.431 343.368 239.298C325.128 238.671 305.275 238.738 282.675 239.511C275.395 239.765 268.408 239.658 262.995 239.231C247.168 238.565 232.862 238.765 218.382 239.045C214.702 239.111 210.848 239.271 207.448 239.405C199.942 239.698 192.235 240.005 184.582 239.645C181.675 239.525 178.715 239.711 175.849 239.898C173.529 240.045 171.129 240.205 168.689 240.205C168.222 240.205 167.755 240.205 167.289 240.191C163.862 240.098 162.022 238.258 161.969 234.871C161.929 232.258 161.649 229.632 161.142 227.058C160.795 225.338 161.089 223.951 162.009 222.951C163.382 221.458 165.355 221.645 166.115 221.725C175.902 222.738 185.915 223.205 195.609 223.645C198.249 223.765 200.848 223.885 203.448 224.018C209.515 224.325 215.742 223.871 221.782 223.431C223.395 223.311 225.008 223.205 226.608 223.098C228.262 222.991 230.022 222.925 232.155 222.872C256.755 222.352 282.275 222.445 310.195 223.192C318.541 223.418 327.061 222.885 335.301 222.365C337.968 222.205 340.568 222.032 343.168 221.898H343.394C344.821 221.805 346.274 221.725 347.488 222.898C348.728 224.085 348.701 225.631 348.688 227.138L348.661 227.125ZM168.115 288.845C167.515 293.191 167.435 297.578 167.435 300.911C167.435 306.858 163.755 311.751 158.102 313.364C157.169 313.631 156.195 313.778 155.209 313.778C150.342 313.778 145.822 310.458 144.209 305.698C142.702 301.231 142.075 296.511 142.329 291.698C142.502 288.631 142.729 285.538 142.955 282.538L142.982 282.231C143.129 280.231 143.289 278.231 143.422 276.231C143.609 273.365 145.409 271.725 148.249 271.858C149.902 271.911 151.609 271.911 153.275 271.898H153.662C154.435 271.898 155.195 271.898 155.969 271.898H158.982V272.498C160.715 272.498 162.315 272.498 163.915 272.471C165.235 272.405 166.435 272.805 167.302 273.618C168.582 274.831 168.622 276.485 168.635 277.031C168.755 281.685 168.582 285.445 168.115 288.871V288.845ZM366.954 277.871C366.581 280.965 366.514 284.098 366.448 287.391C366.314 293.951 366.194 300.738 363.421 307.404C362.768 308.964 360.808 313.698 355.168 313.698C354.834 313.698 354.488 313.684 354.128 313.644C350.408 313.298 346.501 312.578 343.234 309.751C341.981 308.671 341.048 307.431 340.208 305.751C336.928 299.218 336.648 292.231 336.635 285.645C336.635 284.018 337.021 282.591 337.381 281.325C337.621 280.458 337.835 279.685 337.888 278.991C338.275 274.445 339.621 273.231 344.194 273.338C345.381 273.351 346.541 273.338 347.728 273.338H350.381C353.701 273.525 357.234 273.365 361.954 272.831C363.528 272.658 364.821 273.018 365.741 273.911C366.608 274.751 367.021 275.885 366.968 277.298C366.968 277.378 366.968 277.605 366.954 277.858V277.871ZM372.554 266.111C358.821 266.711 344.154 266.991 324.995 266.991C316.581 266.991 308.221 266.938 299.955 266.885H298.981C288.741 266.818 278.368 266.458 268.328 266.125C263.782 265.965 259.222 265.818 254.662 265.685C237.182 265.551 220.115 265.685 203.968 266.111C189.249 266.498 174.315 265.938 159.889 265.405L157.969 265.338C155.555 265.245 153.142 265.165 150.729 265.085C148.715 265.018 146.569 265.018 144.849 265.031H144.582C141.275 265.031 137.875 265.031 134.462 264.685C132.195 264.445 130.195 264.045 128.369 263.458C123.276 261.818 121.102 258.245 121.916 252.831C122.596 248.285 126.302 245.245 131.142 245.245H131.169C133.609 245.258 136.062 245.325 138.502 245.391C142.355 245.498 146.342 245.618 150.275 245.485C154.742 245.351 159.235 245.485 163.582 245.645C169.702 245.858 175.915 246.071 182.009 245.485C185.422 245.165 188.822 245.285 192.115 245.391C194.515 245.471 196.875 245.565 199.182 245.485C217.022 244.911 230.568 244.658 243.182 244.685C251.462 244.685 259.822 245.071 267.915 245.445L270.022 245.538C274.035 245.711 278.328 245.671 283.941 245.391C292.248 244.978 300.661 245.045 308.795 245.098H309.781C313.675 245.138 317.555 245.165 321.448 245.138C323.781 245.125 326.115 245.125 328.435 245.125H328.968C338.088 245.125 347.514 245.125 356.674 244.311C361.781 243.858 366.728 244.045 371.528 244.218C374.501 244.325 376.994 244.938 379.181 246.111C382.421 247.845 384.621 251.098 384.914 254.605C385.194 257.965 383.754 261.058 380.834 263.338C377.941 265.591 374.874 266.005 372.528 266.098L372.554 266.111Z" fill="black"/>
</svg>
