<svg width="392" height="323" viewBox="0 0 392 323" fill="none" xmlns="http://www.w3.org/2000/svg">
<path d="M384.447 271.853C387.34 270.893 389.114 269.132 390.02 266.319C390.834 263.799 391.22 260.959 391.22 257.666C391.22 247.973 384.46 240.679 374.794 239.919C370.02 239.546 365.007 239.452 359.434 239.639C358.874 239.652 357.141 239.719 355.861 238.426C354.581 237.132 354.647 235.413 354.674 234.853C354.754 232.773 354.807 230.053 354.607 227.359C354.554 226.786 354.42 225.053 355.62 223.653C356.687 222.413 358.18 222.172 359.207 222.106C362.647 221.879 366.007 221.599 369.22 220.813C373.66 219.706 376.82 216.999 378.847 212.533C383.14 203.106 382.154 194.213 375.834 185.346C374.42 183.373 374.354 181.453 375.607 179.319C378.54 174.359 381.287 169.013 380.1 163.093C378.314 154.226 375.514 150.906 368.54 149.426C361.18 147.866 354.514 147.479 348.167 148.253C328.82 150.599 312.781 151.346 297.701 150.613C296.474 150.559 295.247 150.479 294.021 150.399L292.727 150.319C290.674 150.186 288.554 150.039 286.474 150.093C277.674 150.106 268.874 150.106 260.087 150.106H247.887C242.954 150.599 237.994 150.426 233.207 150.266C231.314 150.199 229.434 150.133 227.554 150.106C222.914 150.039 218.221 149.839 213.674 149.653C206.794 149.359 199.127 149.026 191.821 149.253C183.967 149.506 177.447 149.373 171.314 148.853H171.087C168.047 148.666 167.061 146.853 166.767 145.346C166.514 144.053 165.701 143.026 164.221 142.146C163.567 141.759 161.847 140.733 161.847 138.679C161.847 136.613 163.607 135.546 164.194 135.186C172.221 130.293 178.567 123.466 183.061 114.866C186.594 108.119 188.461 100.146 188.954 89.7727C189.141 85.7327 188.514 82.4393 187.034 79.7326C183.434 73.146 178.701 65.7593 170.834 60.8793C160.767 54.626 149.621 49.0127 136.434 50.1994C135.687 50.2661 133.701 50.4394 132.394 48.9194C131.114 47.426 131.554 45.6393 131.807 44.5593C134.767 32.506 132.274 22.5194 124.181 14.0261C118.034 7.58608 110.087 3.70607 99.1541 1.8394C91.4207 0.519402 83.6474 1.86607 74.7007 6.09273C65.2474 10.5461 59.1407 17.9193 56.0207 28.626C54.5541 33.666 54.5274 38.8127 55.9541 43.9461C56.3941 45.5461 56.8608 47.1994 55.6741 48.6927C54.4874 50.1994 52.8074 50.1327 51.0208 50.066C46.1541 49.8927 39.8341 50.026 34.0608 52.6527C24.6874 56.9193 16.4875 63.5193 9.68746 72.306C3.7008 80.026 0.8208 89.306 0.6208 101.506C0.514133 108.013 2.48746 113.959 6.66079 119.706C8.67413 122.479 10.7675 125.119 13.0875 128.026C16.6741 132.519 20.9674 135.746 25.8474 137.586C26.5808 137.866 28.5274 138.599 28.9541 140.626C29.3808 142.626 27.9541 144.053 27.3408 144.653C20.1008 151.826 15.9541 160.999 14.6475 172.693C14.2741 176.079 14.5408 179.346 15.4741 182.399L15.9808 184.066C16.8875 187.066 17.8341 190.186 18.8475 193.186C22.7008 204.626 30.6608 213.119 42.5141 218.439C54.4074 223.786 67.1141 223.693 77.9541 222.906C81.0474 222.679 83.9674 221.279 87.0741 219.799C87.8874 219.413 88.7141 219.013 89.5407 218.639C90.5141 218.199 91.4341 217.786 92.3941 217.786C93.0341 217.786 93.6074 217.959 94.1674 218.333C95.7941 219.386 95.7807 221.093 95.7674 222.733C95.7674 224.373 95.7274 226.013 95.6874 227.653L95.6341 230.426C95.5941 232.879 95.5674 235.346 95.5541 237.799C95.5141 243.252 95.4607 248.773 95.1941 254.226C94.9274 259.706 94.8341 265.306 94.7274 270.719C94.6341 275.866 94.5407 281.106 94.3141 286.332C94.1941 289.026 94.1674 291.772 94.1407 294.426C94.0741 300.252 94.0074 306.239 93.0607 312.199C92.5541 315.372 92.6874 317.812 93.4874 319.879C94.0874 321.439 95.3141 322.346 96.5941 322.159C98.4474 321.892 98.8207 320.052 98.8741 318.986L98.9274 317.986C98.994 316.652 99.0607 315.306 99.2207 313.932C100.087 306.946 101.061 299.039 100.541 291.213C100.367 288.479 100.461 285.799 100.661 282.612C101.527 268.866 101.741 255.252 101.834 243.759C101.874 238.839 101.994 233.839 102.114 228.999V228.573C102.181 226.493 102.221 224.453 102.274 222.413V222.266C102.274 221.666 102.247 219.826 103.901 218.799C104.527 218.413 105.861 217.893 107.674 218.799C110.181 220.066 113.047 220.479 116.074 220.906L117.407 221.092C122.261 221.812 126.047 221.213 129.314 219.226C131.127 218.119 132.847 218.466 133.407 218.586C135.127 218.932 136.834 219.333 138.541 219.733C143.034 220.786 147.247 221.759 151.567 221.786C154.567 221.799 155.701 223.906 155.767 225.706C155.874 228.586 156.007 231.973 156.221 235.319C156.301 236.679 155.967 237.812 155.194 238.653C154.021 239.946 152.367 239.999 151.821 240.026C150.074 240.093 148.327 240.186 146.567 240.292C143.381 240.479 139.781 240.679 136.141 240.612C131.514 240.519 127.594 241.306 124.181 243.066C120.327 245.053 118.221 247.879 117.741 251.719C117.194 256.079 117.647 260.386 119.087 264.533C119.794 266.559 121.234 268.186 123.367 269.359C126.861 271.293 129.634 272.252 132.341 272.466C133.394 272.546 134.914 272.812 136.007 274.119C137.114 275.439 137.101 277.013 136.994 278.079C136.541 282.826 136.141 288.439 136.687 294.106C136.741 294.732 136.794 295.372 136.847 296.012C137.154 299.679 137.447 303.146 138.994 306.106C140.727 309.426 142.727 312.666 144.941 315.772C146.927 318.559 150.581 320.413 154.714 320.733C158.794 321.039 162.607 319.799 164.954 317.399C169.981 312.253 172.847 306.626 173.487 300.652L173.781 297.932C174.461 291.719 175.167 285.293 174.661 279.039C174.581 277.986 174.594 276.453 175.767 275.226C177.101 273.839 178.914 273.919 179.607 273.959C185.994 274.199 192.861 274.226 201.847 274.053C221.754 273.653 244.887 273.253 267.554 273.746C272.874 273.866 278.181 274.026 283.501 274.199C297.621 274.666 312.234 275.132 326.567 274.439C327.314 274.399 329.287 274.306 330.607 275.839C331.98 277.452 331.541 279.559 331.301 280.693C329.194 290.853 330.421 300.879 334.927 310.452C335.781 312.279 337.114 313.946 339.114 315.692C342.514 318.666 346.647 319.986 351.794 321.052C359.407 322.626 367.234 318.212 369.607 311.012C370.434 308.519 371.087 305.866 371.714 303.292L371.887 302.586C373.087 297.692 372.927 292.706 372.754 287.426C372.647 284.306 372.54 281.079 372.754 277.812C372.82 276.746 373.02 273.492 377.154 273.119C379.194 272.932 381.86 272.612 384.354 271.786L384.447 271.853ZM162.221 154.506C162.834 154.479 163.447 154.439 164.061 154.399C166.434 154.253 169.127 154.079 171.821 154.333C177.261 154.866 182.887 154.693 188.327 154.519C192.781 154.373 197.274 154.239 201.727 154.439C213.807 154.986 225.767 155.226 237.327 155.453C243.514 155.586 249.834 155.506 255.927 155.439H256.634C259.634 155.399 262.647 155.359 265.647 155.346H268.901C279.941 155.293 291.367 155.239 302.634 155.973C304.207 156.079 305.807 156.066 307.354 156.053H315.807C321.647 156.039 329.354 156.039 337.194 156.093C339.674 156.119 342.167 156.066 344.927 155.999C349.66 155.893 354.54 155.799 359.407 156.159C361.967 156.346 364.687 156.693 367.354 157.959C370.78 159.586 373.114 162.773 373.58 166.479C374.047 170.173 372.607 173.826 369.7 176.253C365.754 179.573 361.314 181.266 356.5 181.293L334.274 181.413C324.247 181.466 314.221 181.519 304.181 181.586C300.741 181.613 297.247 181.706 293.874 181.813C286.127 182.039 278.861 182.253 271.954 181.653C262.541 181.453 253.447 181.626 244.661 181.786H244.407C238.701 181.893 232.887 181.999 227.194 181.999C213.701 181.999 199.767 182.013 186.101 182.879C181.447 183.173 176.754 183.213 172.221 183.253H172.074C167.234 183.293 162.247 183.346 157.381 183.693C155.554 183.826 153.607 183.946 151.701 183.946C148.034 183.946 145.047 183.493 142.287 182.506C136.874 180.586 134.674 177.346 134.927 171.706C135.074 168.439 135.407 164.946 136.927 161.506C138.101 158.826 140.101 156.999 142.847 156.079C145.807 155.079 148.434 154.706 150.874 154.919C153.461 155.146 156.074 154.946 158.821 154.746H159.007C160.074 154.653 161.127 154.573 162.194 154.519L162.221 154.506ZM129.807 179.199C130.301 181.386 131.087 183.186 132.207 184.706C133.621 186.626 133.527 188.639 131.954 190.386C127.127 195.719 125.327 202.053 126.461 209.746C126.581 210.559 126.847 212.453 125.514 213.893C124.914 214.533 123.821 215.253 121.981 215.133L120.754 215.053C116.367 214.759 111.394 214.439 107.194 210.919C104.861 208.972 101.727 205.733 101.367 200.159C100.807 191.426 100.687 182.626 100.581 174.119V172.786C100.541 170.786 100.514 168.786 100.474 166.773C100.407 162.813 101.874 159.439 104.821 156.746C109.407 152.559 113.141 147.733 117.101 142.639L118.487 140.866C119.501 139.573 120.607 138.213 121.914 137.013C124.754 134.399 127.194 131.399 129.981 127.706C130.581 126.906 132.367 124.159 130.101 122.439C129.407 121.919 128.634 121.706 127.834 121.826C126.807 121.986 125.834 122.666 125.061 123.746C122.314 127.626 119.181 131.159 116.167 134.559C113.234 137.866 110.207 141.279 107.634 144.919C106.967 145.879 106.061 146.493 104.714 146.946L100.754 148.266V144.093C100.754 143.506 100.741 142.919 100.714 142.333V142.133C100.661 140.533 100.607 138.893 100.821 137.186C101.274 133.559 101.381 129.786 101.487 126.146L102.154 126.026H101.487C101.567 123.119 101.647 120.133 101.901 117.159C102.381 111.586 102.581 105.893 102.781 100.386C102.981 94.8393 103.194 89.1193 103.674 83.386C103.847 81.2793 102.941 79.826 101.287 79.5993C99.6207 79.3727 98.2207 80.5326 97.7407 82.5593C97.0474 85.4526 96.9274 88.4394 96.794 91.6127L96.7274 93.146C96.5407 96.9326 96.4074 100.719 96.2607 104.506L96.2207 105.626C96.1407 107.746 96.0607 109.853 95.9807 111.973V112.199C95.9807 112.826 95.994 114.146 95.0874 115.493L93.0207 118.546L90.4474 115.906C88.6341 114.039 86.7674 111.986 85.7674 109.079C85.1941 107.426 84.5407 105.546 83.8207 103.826C83.2874 102.546 82.5807 101.586 81.6874 100.919C80.5141 100.039 79.0741 99.986 78.0474 100.773C77.1274 101.493 76.5274 102.826 77.1674 104.026C78.1941 105.946 78.8607 107.879 79.5007 109.746C79.7407 110.453 79.9807 111.159 80.2474 111.853C81.0607 114.053 82.1407 115.879 83.5541 117.426C84.8607 118.866 85.8474 120.306 86.5807 121.826L86.7807 122.253C89.2607 127.413 91.8341 132.746 93.8074 138.373C94.3807 139.999 94.4341 141.586 94.4074 142.919C94.3274 148.279 94.2074 153.639 94.0874 158.999C94.1541 160.439 93.6074 161.639 92.4741 162.506L90.2607 164.213L88.1141 161.826C86.1274 159.613 84.0741 157.319 81.8474 155.386C80.5141 154.213 79.1941 153.026 77.8874 151.826C76.3274 150.413 74.7141 148.946 73.1007 147.559L72.2074 146.799C69.4607 144.493 66.6341 142.106 64.5941 138.653C64.3407 138.226 63.5407 137.626 63.2874 137.426C61.8741 136.359 60.0874 136.373 58.9674 137.466C57.8608 138.533 57.7941 140.213 58.7808 141.653L59.3407 142.466C61.5007 145.626 63.5274 148.626 66.5274 150.479C67.1007 150.839 68.8074 151.906 69.1007 153.959C69.3941 156.053 67.9941 157.599 67.4741 158.173C65.6341 160.213 63.8607 162.426 62.1407 164.559L60.5541 166.533C60.1407 167.053 59.8074 167.546 59.5541 168.039C58.7674 169.573 59.0474 171.239 60.2207 172.066C61.4341 172.919 62.9007 172.679 64.1407 171.413C65.9941 169.519 67.5674 167.386 69.2341 165.119C69.9674 164.119 70.7007 163.133 71.4474 162.159C71.6474 161.906 71.7941 161.693 71.9274 161.506C72.4741 160.746 73.2741 159.653 74.8074 159.466C76.3674 159.279 77.3941 160.146 78.2874 160.906L78.8474 161.373C80.5407 162.773 81.8874 164.373 83.1941 165.933C84.7407 167.773 86.1941 169.506 87.9807 170.586C92.6474 173.399 94.6474 177.479 94.274 183.426C93.9674 188.226 94.354 193.199 94.8207 197.866C95.0074 199.746 94.7007 201.306 93.8474 202.746C93.594 203.173 93.5541 203.399 93.5541 203.399C93.5274 208.773 89.1807 211.199 87.5407 212.106C82.1407 215.119 77.2741 216.519 72.2341 216.519C71.4874 216.519 70.7274 216.492 69.9807 216.426C68.7007 216.319 67.4207 216.226 66.1274 216.146H65.8874C60.0741 215.746 54.0608 215.346 48.2074 213.186C37.2074 209.146 29.5941 201.733 25.5808 191.173C24.5941 188.586 23.8074 185.893 23.1141 183.506L23.0741 183.373C22.7808 182.346 22.4741 181.319 22.1541 180.306C21.5141 178.253 21.3541 176.053 21.6208 173.373C22.7141 162.626 27.0341 153.879 34.4608 147.386L34.6874 147.186C35.6074 146.373 36.6608 145.453 37.7941 144.613C39.8474 143.079 40.5674 140.693 41.0341 137.599C41.1008 137.146 41.2608 136.079 39.0341 134.906C37.0874 133.893 34.9008 133.293 32.5941 132.653L31.3274 132.306C26.3008 130.893 21.9674 127.933 18.4208 123.506C15.9675 120.439 14.0208 117.919 12.3008 115.573C8.94079 110.999 7.42079 106.333 7.66079 101.306L7.70079 100.559C7.90079 96.1993 8.10079 91.706 9.52746 87.226C11.0875 82.346 13.7275 77.8127 17.5941 73.3727C22.6741 67.5327 28.8741 62.8394 36.0208 59.4394C42.5941 56.306 49.8074 55.7193 56.9007 57.7193C60.5007 58.7327 64.3007 59.9726 67.7141 62.2126C68.2607 62.5726 68.9941 62.7593 69.9007 62.7993C71.6074 62.8393 72.9941 62.026 73.5141 60.6794C74.1807 58.9194 73.2207 57.5994 72.3007 56.786C70.5274 55.2394 68.7274 53.7194 66.9407 52.186C65.2607 50.7594 64.1407 48.906 63.5941 46.6794C63.2074 45.0527 62.7541 43.426 62.2474 41.8527C60.8607 37.5061 61.0874 32.946 62.9007 28.3194C63.9141 25.7594 65.0741 23.1727 66.4607 20.4127C67.8874 17.5727 70.3541 15.9594 72.3407 14.666C80.7141 9.18605 88.2207 7.0527 95.954 7.8927C109.474 9.39937 118.901 15.4127 123.954 25.7727C126.767 31.5461 126.847 38.1727 124.181 44.4527L124.114 44.626C122.327 48.8126 120.487 53.1327 116.501 56.5327C115.287 57.5594 115.421 59.3726 116.141 60.546C117.007 61.9326 118.687 62.506 120.421 61.9993C121.674 61.626 122.714 61.0127 123.501 60.1727C124.994 58.5727 126.741 58.0527 128.261 57.7061C134.381 56.2661 139.821 56.0527 144.874 57.0127C151.354 58.266 157.847 61.0127 164.714 65.4127C170.581 69.1727 174.981 73.506 178.181 78.666C179.807 81.2927 181.927 85.3593 181.567 90.2926C181.047 97.2926 180.154 105.346 175.954 112.453C170.247 122.119 163.714 128.079 155.394 131.199C153.887 131.773 152.421 132.053 151.007 132.333C150.301 132.466 149.594 132.613 148.901 132.786C145.847 133.559 145.314 135.053 145.181 136.279C144.994 137.959 145.941 139.359 147.994 140.439C149.181 141.066 150.367 141.679 151.541 142.279L160.687 147.013L152.421 148.746C150.834 149.079 149.327 149.239 147.887 149.399C146.914 149.506 145.967 149.613 145.021 149.759C137.541 150.986 132.941 154.893 130.967 161.679C129.021 168.359 128.674 173.906 129.874 179.159L129.807 179.199ZM153.287 215.186C149.487 215.013 145.714 214.546 142.074 214.092L141.541 214.026C140.594 213.906 139.767 213.626 139.087 213.199C136.634 211.653 134.887 209.053 134.327 206.053C133.754 203.053 134.421 199.999 136.141 197.666L136.474 197.239C136.527 197.173 136.581 197.106 136.607 197.053C140.087 189.893 146.594 189.066 151.194 189.066H157.314C164.527 189.093 171.981 189.093 179.247 188.746C195.527 187.946 211.994 187.786 227.927 187.626L233.901 187.573C237.834 187.533 241.767 187.466 245.714 187.413H246.407C252.807 187.306 259.301 187.199 265.687 187.186C269.367 187.199 273.061 187.306 276.181 187.413C280.554 187.559 285.087 187.719 289.527 187.599C306.581 187.119 323.887 187.079 340.634 187.039H343.047C347.474 187.026 351.887 187.013 356.314 186.986C357.3 186.986 358.407 186.946 359.687 186.853C365.007 186.519 369.554 188.746 373.58 193.693C376.274 196.986 375.514 202.279 375.06 204.399C374.287 208.066 372.26 212.586 368.94 214.266C366.754 215.359 364.527 215.519 362.554 215.653C338.287 217.319 316.661 218.612 297.687 217.612C292.874 217.519 288.367 217.399 284.074 217.306C274.887 217.079 267.021 216.893 259.034 216.879H257.954C242.701 216.879 226.927 217.386 209.741 218.413C208.461 218.493 207.127 218.533 205.754 218.533C202.021 218.533 198.301 218.266 194.714 217.999H194.527C191.834 217.786 189.047 217.586 186.341 217.506C180.301 217.333 174.247 216.812 168.407 216.292C163.407 215.852 158.301 215.413 153.301 215.199L153.287 215.186ZM348.794 228.213C348.767 230.813 348.66 233.359 348.554 235.959C348.46 238.199 347.1 240.519 343.5 240.386C325.26 239.759 305.407 239.826 282.807 240.599C275.527 240.852 268.541 240.746 263.127 240.319C247.301 239.653 232.994 239.852 218.514 240.132C214.834 240.199 210.981 240.359 207.581 240.493C200.074 240.786 192.367 241.093 184.714 240.733C181.807 240.613 178.847 240.799 175.981 240.986C173.661 241.133 171.261 241.292 168.821 241.292C168.354 241.292 167.887 241.292 167.421 241.279C163.994 241.186 162.154 239.346 162.101 235.959C162.061 233.346 161.781 230.719 161.274 228.146C160.927 226.426 161.221 225.039 162.141 224.039C163.514 222.546 165.487 222.733 166.247 222.813C176.034 223.826 186.047 224.293 195.741 224.733C198.381 224.853 200.981 224.972 203.581 225.106C209.647 225.412 215.874 224.959 221.914 224.519C223.527 224.399 225.141 224.293 226.741 224.186C228.394 224.079 230.154 224.012 232.287 223.959C256.887 223.439 282.407 223.532 310.327 224.279C318.674 224.506 327.194 223.972 335.434 223.452C338.101 223.292 340.701 223.119 343.3 222.986H343.527C344.954 222.893 346.407 222.813 347.62 223.986C348.86 225.173 348.834 226.719 348.82 228.226L348.794 228.213ZM168.247 289.932C167.647 294.279 167.567 298.666 167.567 301.999C167.567 307.946 163.887 312.839 158.234 314.452C157.301 314.719 156.327 314.866 155.341 314.866C150.474 314.866 145.954 311.546 144.341 306.786C142.834 302.319 142.207 297.599 142.461 292.786C142.634 289.719 142.861 286.626 143.087 283.626L143.114 283.319C143.261 281.319 143.421 279.319 143.554 277.319C143.741 274.452 145.541 272.812 148.381 272.946C150.034 272.999 151.741 272.999 153.407 272.986H153.794C154.567 272.986 155.327 272.986 156.101 272.986H159.114V273.586C160.847 273.586 162.447 273.586 164.047 273.559C165.367 273.493 166.567 273.893 167.434 274.706C168.714 275.919 168.754 277.572 168.767 278.119C168.887 282.772 168.714 286.532 168.247 289.959V289.932ZM367.087 278.959C366.714 282.052 366.647 285.186 366.58 288.479C366.447 295.039 366.327 301.826 363.554 308.492C362.9 310.052 360.94 314.786 355.3 314.786C354.967 314.786 354.62 314.773 354.26 314.733C350.54 314.386 346.634 313.666 343.367 310.839C342.114 309.759 341.181 308.519 340.341 306.839C337.061 300.306 336.781 293.319 336.767 286.733C336.767 285.106 337.154 283.679 337.514 282.413C337.754 281.546 337.967 280.773 338.021 280.079C338.407 275.533 339.754 274.319 344.327 274.426C345.514 274.439 346.674 274.426 347.861 274.426H350.514C353.834 274.612 357.367 274.452 362.087 273.919C363.66 273.746 364.954 274.106 365.874 274.999C366.74 275.839 367.154 276.973 367.1 278.386C367.1 278.466 367.1 278.692 367.087 278.946V278.959ZM372.687 267.199C358.954 267.799 344.287 268.079 325.127 268.079C316.714 268.079 308.354 268.026 300.087 267.972H299.114C288.874 267.906 278.501 267.546 268.461 267.213C263.914 267.053 259.354 266.906 254.794 266.772C237.314 266.639 220.247 266.773 204.101 267.199C189.381 267.586 174.447 267.026 160.021 266.492L158.101 266.426C155.687 266.332 153.274 266.253 150.861 266.173C148.847 266.106 146.701 266.106 144.981 266.119H144.714C141.407 266.119 138.007 266.119 134.594 265.772C132.327 265.532 130.327 265.133 128.501 264.546C123.407 262.906 121.234 259.332 122.047 253.919C122.727 249.372 126.434 246.333 131.274 246.333H131.301C133.741 246.346 136.194 246.412 138.634 246.479C142.487 246.586 146.474 246.706 150.407 246.573C154.874 246.439 159.367 246.573 163.714 246.733C169.834 246.946 176.047 247.159 182.141 246.573C185.554 246.253 188.954 246.372 192.247 246.479C194.647 246.559 197.007 246.653 199.314 246.573C217.154 245.999 230.701 245.746 243.314 245.772C251.594 245.772 259.954 246.159 268.047 246.533L270.154 246.626C274.167 246.799 278.461 246.759 284.074 246.479C292.381 246.066 300.794 246.133 308.927 246.186H309.914C313.807 246.226 317.687 246.253 321.581 246.226C323.914 246.213 326.247 246.213 328.567 246.213H329.101C338.221 246.213 347.647 246.213 356.807 245.399C361.914 244.946 366.86 245.132 371.66 245.306C374.634 245.412 377.127 246.026 379.314 247.199C382.554 248.933 384.754 252.186 385.047 255.693C385.327 259.053 383.887 262.146 380.967 264.426C378.074 266.679 375.007 267.092 372.66 267.186L372.687 267.199Z" fill="#55ADE1" stroke="#55ADE1" stroke-width="1.33333" stroke-miterlimit="10"/>
</svg>
