<svg width="287" height="370" viewBox="0 0 287 370" fill="none" xmlns="http://www.w3.org/2000/svg">
<path d="M117.916 87.0742C113.556 89.1675 109.956 92.3142 106.383 95.4875C106.183 95.6608 105.903 95.7409 105.663 95.8609" stroke="black" stroke-width="3.99998" stroke-linecap="round" stroke-linejoin="round"/>
<path d="M100.343 101.341C95.623 106.194 91.5962 111.594 87.9029 117.261C82.9163 124.887 79.1963 133.207 74.9297 141.234C74.7964 141.501 74.7965 141.834 74.7432 142.141" stroke="black" stroke-width="3.99998" stroke-linecap="round" stroke-linejoin="round"/>
<path d="M19.3037 279.54C19.4237 279.727 19.6637 279.913 19.6504 280.087C19.3837 283.607 20.4105 287.02 20.3971 290.513" stroke="black" stroke-width="3.99998" stroke-linecap="round" stroke-linejoin="round"/>
<path d="M24.9701 296.914C23.2635 294.701 21.0102 294.101 18.3836 294.727C14.3836 295.687 10.5434 297.114 6.8501 298.927" stroke="black" stroke-width="3.99998" stroke-linecap="round" stroke-linejoin="round"/>
<path d="M54.61 207.634C53.7433 206.087 54.13 204.314 53.69 202.7C53.4634 201.847 53.6634 200.701 52.4101 200.527C51.4234 200.394 50.1967 201.834 50.0234 203.074C49.8634 204.207 50.7434 205.087 50.6767 206.18" stroke="black" stroke-width="3.99998" stroke-linecap="round" stroke-linejoin="round"/>
<path d="M19.4773 228.86C18.9573 234.367 16.7439 239.46 15.3839 244.767C14.2372 249.22 12.8772 253.647 12.0772 258.154C11.6639 260.487 11.6238 263.047 12.3438 265.46" stroke="black" stroke-width="3.99998" stroke-linecap="round" stroke-linejoin="round"/>
<path d="M67.7835 157.141C67.2902 159.567 66.1568 161.767 65.4101 164.101C62.8768 171.994 60.1968 179.847 58.0501 187.874C57.9435 188.26 57.9967 188.62 57.9033 188.98" stroke="black" stroke-width="3.99998" stroke-linecap="round" stroke-linejoin="round"/>
<path d="M164.196 16.6348C163.649 16.6348 163.196 16.8481 162.529 16.7548C160.596 16.4615 158.623 15.9548 156.69 15.9815C153.636 16.0215 150.543 15.7415 147.556 16.0215C143.276 16.4215 138.97 15.8214 134.73 16.6214C134.396 16.6881 133.943 16.8348 133.636 16.4614" stroke="black" stroke-width="3.99998" stroke-linecap="round" stroke-linejoin="round"/>
<path d="M36.6767 166.287C36.8767 168.607 36.1034 170.74 35.3834 172.874C33.1834 179.38 31.4366 186.034 29.5166 192.634C28.5166 196.074 26.85 199.34 26.3034 202.9C25.7834 206.274 25.1302 209.62 24.4102 212.954" stroke="black" stroke-width="3.99998" stroke-linecap="round" stroke-linejoin="round"/>
<path d="M194.569 71.8877C191.516 71.8877 188.476 71.8877 185.423 71.8877C182.023 71.8877 178.69 72.3277 175.356 72.9277C172.97 73.3544 170.49 73.3544 168.05 73.3277C163.236 73.2744 158.636 74.5677 153.97 75.381C148.676 76.301 143.476 77.581 138.41 79.381C138.143 79.4743 137.81 79.381 137.503 79.381" stroke="black" stroke-width="3.99998" stroke-linecap="round" stroke-linejoin="round"/>
<path d="M151.757 5.11526C150.49 5.94192 149.197 5.11523 148.13 4.83523C144.703 3.96857 142.05 5.35526 139.73 7.36859C136.917 9.82191 134.317 12.4886 133.37 16.4485C132.957 18.1685 131.463 19.6218 130.557 21.2351C129.823 22.5418 129.09 23.8618 128.557 25.2618C127.49 28.0085 125.623 30.2218 123.957 32.5684C123.343 33.4217 122.637 34.2084 122.49 35.3151" stroke="black" stroke-width="3.99998" stroke-linecap="round" stroke-linejoin="round"/>
<path d="M38.3303 241.113C38.8103 241.58 38.6903 242.193 38.6903 242.753C38.7036 250.633 38.4101 258.5 37.8368 266.353C37.4768 271.353 36.9436 276.34 36.6903 281.353C36.637 282.326 36.6902 283.246 35.5835 283.753C35.0102 284.006 34.8903 284.686 34.677 285.206C31.8903 291.726 27.9702 297.393 22.2236 301.673C20.1036 303.246 17.7038 303.873 15.0905 303.886C14.1572 303.886 13.1171 303.526 12.3438 304.42" stroke="black" stroke-width="3.99998" stroke-linecap="round" stroke-linejoin="round"/>
<path d="M178.836 34.7548C178.623 33.5015 179.449 32.4881 179.609 31.2881C180.063 27.9014 178.169 25.5548 176.249 23.2482C174.809 21.5149 173.023 20.1149 171.156 18.8349C166.823 15.8749 162.703 12.6082 158.316 9.74157C155.85 8.12825 153.33 6.76829 151.49 4.27496C150.423 2.82164 148.263 2.60827 146.45 2.40827C142.663 2.00828 139.196 3.07491 136.023 5.12823C133.743 6.60823 131.556 8.24826 129.236 9.67492C125.183 12.1816 121.236 14.9282 116.943 16.9282C110.61 19.8749 107.477 24.9948 105.65 31.2881C104.823 34.1681 103.597 36.9148 103.077 39.8881" stroke="black" stroke-width="3.99998" stroke-linecap="round" stroke-linejoin="round"/>
<path d="M277.262 204.167C272.756 205.474 268.182 206.527 263.716 207.98C258.956 209.527 253.956 210.14 249.089 211.327C242.249 213.007 235.289 214.074 228.556 216.314C222.516 218.314 216.196 219.594 209.916 220.74C205.009 221.634 200.169 222.794 195.289 223.714C191.729 224.38 188.089 224.66 184.503 225.234C179.916 225.954 175.356 226.794 170.783 227.594C164.156 228.767 157.609 230.34 150.849 230.78C146.156 231.087 141.45 231.674 136.756 232.167" stroke="black" stroke-width="3.99998" stroke-linecap="round" stroke-linejoin="round"/>
<path d="M50.3971 205.447C48.9038 205.767 48.8505 206.821 48.4105 208.141C47.6505 210.461 47.477 212.834 46.957 215.154C46.1571 218.727 45.7572 222.367 47.0905 225.94" stroke="black" stroke-width="3.99998" stroke-linecap="round" stroke-linejoin="round"/>
<path d="M22.0504 294.634C22.237 293.274 21.2636 292.274 20.9036 291.074C20.6769 290.3 19.9303 290.62 19.3036 290.86C17.5703 291.514 15.9037 292.314 14.0104 292.554C11.0771 292.927 8.18362 294.247 5.22363 292.714" stroke="black" stroke-width="3.99998" stroke-linecap="round" stroke-linejoin="round"/>
<path d="M48.7568 208.554C50.1568 208.727 51.5567 208.887 52.5967 210.02" stroke="black" stroke-width="3.99998" stroke-linecap="round" stroke-linejoin="round"/>
<path d="M24.9704 254.113C24.5437 255.7 24.1171 257.287 23.6904 258.873" stroke="black" stroke-width="3.99998" stroke-linecap="round" stroke-linejoin="round"/>
<path d="M70.3433 150.928C70.2233 152.101 69.1299 152.968 69.2499 154.221" stroke="black" stroke-width="3.99998" stroke-linecap="round" stroke-linejoin="round"/>
<path d="M164.196 14.6211C163.796 16.4344 164.996 17.9011 165.356 19.5544C166.076 22.9011 165.996 26.2611 166.036 29.6344C166.036 30.9144 166.156 32.1944 166.209 33.4744" stroke="black" stroke-width="3.99998" stroke-linecap="round" stroke-linejoin="round"/>
<path d="M34.117 217.514C31.8637 226.127 29.7568 234.78 27.8901 243.487" stroke="black" stroke-width="3.99998" stroke-linecap="round" stroke-linejoin="round"/>
<path d="M270.862 193.741C271.075 191.861 270.542 190.008 270.942 188.048C271.329 186.194 270.982 184.154 270.849 182.221C270.169 172.661 269.702 163.088 269.942 153.501C270.022 150.608 269.635 147.741 269.169 144.914C268.595 141.448 268.516 137.928 267.782 134.474C266.249 127.234 264.689 120.048 261.569 113.235C258.115 105.675 254.089 98.5013 249.089 91.8347C246.102 87.8614 242.622 84.4081 238.809 81.2614C236.836 79.6348 234.422 79.1547 231.889 78.7947C227.649 78.1947 223.502 76.8481 219.249 76.3947C215.502 75.9947 211.849 75.1814 208.102 74.7947C201.449 74.1147 194.796 74.4614 188.156 74.5681C184.756 74.6214 181.302 74.8615 177.902 75.5148C176.302 75.8215 174.609 75.7815 172.969 75.8615C169.929 76.0081 166.996 76.7148 164.023 77.1148C159.903 77.6748 155.783 78.4081 151.743 79.5681C148.503 80.5014 145.449 81.9014 142.236 82.9014C130.556 86.5414 120.556 93.2213 111.01 100.541C102.503 107.061 95.1161 114.795 89.5695 124.088C86.6229 129.021 84.0762 134.181 82.2496 139.634C80.0496 146.221 77.4097 152.621 74.7164 159.021C71.2631 167.234 67.7964 175.421 64.9964 183.901C63.5831 188.181 62.2365 192.514 61.4765 196.914C60.9165 200.168 59.7565 203.194 59.0898 206.394C58.2098 210.581 57.3164 214.741 57.3431 219.034C57.3698 222.821 57.3964 226.607 56.9697 230.381" stroke="black" stroke-width="3.99998" stroke-linecap="round" stroke-linejoin="round"/>
<path d="M36.3166 283.74C36.7432 286.367 36.5565 289.02 36.2365 291.593C35.9565 293.913 35.8098 296.233 35.5965 298.553C35.5165 299.5 35.3699 300.353 34.2899 300.54C33.4099 300.7 33.5566 301.62 33.0233 302.033C31.1166 303.473 29.0099 304.313 26.6233 304.62C23.8766 304.967 21.1034 305.047 18.3834 305.673C16.0634 306.207 13.21 305.353 10.6901 303.687C6.79675 301.113 5.39664 297.407 4.9033 292.9C4.63664 290.527 4.50352 288.113 4.11685 285.753C3.66352 283.02 4.11675 280.367 4.67674 277.7" stroke="black" stroke-width="3.99998" stroke-linecap="round" stroke-linejoin="round"/>
<path d="M52.0504 195.194C53.1038 195.181 53.4636 194.154 54.2369 193.714C55.2769 193.114 56.7703 193.634 56.9837 194.834C57.6237 198.354 56.8105 201.794 56.4371 205.261C56.2771 206.754 55.3304 208.114 54.3437 208.821C52.6504 210.047 52.5705 211.514 52.8105 213.127C53.2772 216.287 52.0505 219.061 51.1305 221.914C50.5038 223.821 49.7305 225.621 47.4772 226.114C46.9305 226.234 47.0636 226.741 46.8369 227.034" stroke="black" stroke-width="3.99998" stroke-linecap="round" stroke-linejoin="round"/>
<path d="M231.529 75.7275C228.396 75.5542 225.383 74.7676 222.37 73.9142C217.636 72.5809 212.89 71.4609 207.93 71.0476C203.223 70.6609 198.543 70.4876 193.836 70.4076C184.076 70.2209 174.33 69.5542 164.57 69.6476C161.543 69.6742 158.623 70.3543 155.61 70.5009C151.41 70.6876 147.237 71.4742 143.17 72.6476C140.21 73.5009 137.343 74.6876 134.37 75.5276C127.823 77.3809 121.69 80.0608 116.064 83.9542C109.197 88.7008 102.49 93.6742 96.9035 99.9275C92.3702 105.007 88.197 110.394 84.0103 115.767C78.277 123.114 74.2369 131.341 70.5436 139.781C67.3836 146.994 64.5571 154.367 62.3304 161.927C60.6504 167.634 58.8504 173.287 56.9838 178.927C55.4771 183.46 53.5172 187.887 52.3705 192.5C51.7838 194.887 50.6372 197.114 50.3572 199.594C50.2772 200.3 50.3571 200.834 50.5971 201.434" stroke="black" stroke-width="3.99998" stroke-linecap="round" stroke-linejoin="round"/>
<path d="M234.263 78.661C230.903 73.781 227.836 68.6877 224.13 64.0744C219.383 58.1544 214.61 52.1945 208.65 47.3679C203.543 43.2346 197.876 40.0346 191.623 38.1012C186.836 36.6212 181.876 35.7812 177.01 34.5412C172.61 33.4212 168.09 33.9146 163.65 33.5279C159.77 33.1946 155.837 33.3012 151.943 33.5012C147.237 33.7546 142.53 33.7946 137.85 34.5146C136.17 34.7679 134.437 34.7146 132.73 34.8479C129.797 35.0612 126.877 35.2746 123.943 35.6079C120.65 35.9946 117.33 36.1412 114.064 36.7412C111.424 37.2212 108.797 37.6746 106.384 38.9412C105.41 39.4479 104.317 39.7146 103.304 40.1012C95.8502 42.9012 88.1568 45.1945 81.8502 50.4478C76.5168 54.8878 71.1437 59.2345 67.0504 64.9278C63.8371 69.3811 60.8771 74.0211 58.3304 78.861C54.3838 86.3943 50.1304 93.8076 47.3171 101.888C45.7038 106.514 44.3172 111.208 43.7572 116.141C43.3572 119.621 43.0239 123.074 43.0772 126.581C43.0772 126.941 43.2104 127.301 42.9304 127.687C42.3438 128.487 42.3039 129.461 42.3705 130.421" stroke="black" stroke-width="3.99998" stroke-linecap="round" stroke-linejoin="round"/>
<path d="M268.663 316.86C268.916 318.74 269.169 320.607 268.876 322.54C268.489 325.034 269.129 327.54 269.249 330.033C269.343 332.033 268.516 333.247 266.862 334.273C263.862 336.127 260.543 336.9 257.156 337.553C251.943 338.54 246.609 338.42 241.409 339.673C236.943 340.753 232.289 340.807 227.703 341.26C225.05 341.513 222.463 342.34 219.823 342.847C216.116 343.553 212.383 344.167 208.663 344.873C206.103 345.353 203.503 345.58 200.956 346.26C199.103 346.753 197.063 346.727 195.116 346.66C190.823 346.513 186.676 347.593 182.503 348.233C179.45 348.7 176.396 349.127 173.343 349.593C170.37 350.047 167.383 350.513 164.383 350.66C161.53 350.793 158.77 351.447 155.97 351.753C149.703 352.433 143.743 354.273 137.876 356.407C134.956 357.473 131.85 357.713 128.903 358.593C125.277 359.673 121.61 360.527 118.063 361.967C114.13 363.553 110.023 364.753 105.663 365.06C102.463 365.287 99.2366 365.94 96.1699 366.9C93.7833 367.647 91.4633 367.513 89.21 367.087C87.37 366.74 85.5168 366.793 83.6902 366.553C80.7169 366.167 77.8234 365.5 74.9168 364.807C72.9701 364.34 70.9969 364.1 69.0503 363.553C64.4503 362.26 60.5569 359.66 56.6102 357.14C52.7569 354.673 48.8635 352.273 44.8769 350.047C43.6502 349.353 42.5437 348.473 41.677 347.553C38.5704 344.247 34.8636 341.753 31.1836 339.207C31.9836 336.007 31.7838 332.713 32.4372 329.5C33.6505 323.473 33.2904 317.233 34.7038 311.22C34.9171 310.3 34.6637 309.5 34.6504 308.647C34.6104 306.727 34.7969 304.847 35.1836 302.967C35.3302 302.26 35.357 301.474 34.9437 300.78" stroke="black" stroke-width="3.99998" stroke-linecap="round" stroke-linejoin="round"/>
<path d="M41.797 130.794C38.5703 138.168 34.8635 145.394 32.2368 152.981C29.7168 160.261 27.157 167.514 24.4237 174.701C20.7704 184.274 17.4636 193.968 14.5836 203.794C12.6503 210.381 10.8905 217.034 9.49051 223.741C8.38385 229.007 7.51694 234.354 6.57028 239.661C5.75695 244.207 5.07709 248.807 4.37042 253.381C3.57043 258.581 3.3169 263.861 2.8369 269.101C2.7569 270.034 3.02358 270.927 3.18358 271.847C3.74358 275.007 4.97028 277.887 6.89027 280.42C7.61026 281.354 8.50362 282.194 9.58361 282.86C11.5703 284.074 12.3037 284.1 14.3704 282.834C19.1437 279.914 22.4902 275.7 25.5702 271.14C28.0635 267.434 29.3036 263.234 30.9969 259.207C32.9169 254.634 33.7703 249.687 35.7436 245.114C36.3836 243.647 36.9435 242.167 37.9568 240.914C39.1968 239.381 39.0234 237.527 38.8367 235.794C38.2101 230.101 38.2903 224.407 39.117 218.781C39.7303 214.687 39.4502 210.581 39.9702 206.514C40.6902 200.861 41.2236 195.221 41.3569 189.501C41.4369 185.674 41.8769 181.821 42.0636 177.981C42.1836 175.621 42.3836 173.208 42.7036 170.834C42.8502 169.768 42.3302 168.794 42.2902 167.728C42.1435 163.301 43.5302 158.968 43.0502 154.554C42.3036 147.728 42.9036 140.888 42.7169 134.061C42.6903 133.328 42.6767 132.608 42.8501 131.861C43.0234 131.141 42.9036 130.355 41.7837 130.501" stroke="black" stroke-width="3.99998" stroke-linecap="round" stroke-linejoin="round"/>
<path d="M101.623 253.927C101.93 253.861 102.25 253.714 102.53 253.754C108.836 254.634 115.103 253.821 121.383 253.394C123.45 253.261 125.543 253.501 127.596 253.341C130.956 253.087 134.303 252.501 137.663 252.327C139.196 252.247 140.716 252.021 142.236 251.861C147.116 251.367 152.036 251.367 156.876 250.474C160.436 249.807 164.089 249.581 167.663 248.941C172.036 248.167 176.463 247.847 180.849 247.221C185.356 246.594 189.849 245.794 194.369 245.247C198.703 244.727 203.009 243.901 207.356 243.394C211.436 242.927 215.556 242.647 219.622 241.967C223.062 241.394 226.502 240.688 229.862 239.768C233.542 238.768 237.276 238.181 241.036 237.608C243.116 237.288 245.182 236.874 247.262 236.528C249.516 236.141 251.769 235.714 254.036 235.448C257.516 235.034 260.756 233.808 264.102 232.901C268.649 231.661 273.156 230.288 277.649 228.874C279.569 228.274 281.062 226.941 282.915 226.221C284.302 225.674 284.089 223.954 284.156 222.808C284.476 217.634 285.089 212.461 284.942 207.261C284.902 205.728 284.715 204.208 284.582 202.688C284.529 201.981 284.062 201.568 283.489 201.221C280.062 199.101 276.662 196.941 273.235 194.834C272.075 194.128 270.849 193.941 269.396 194.008C266.836 194.128 264.262 194.194 261.716 194.488C258.116 194.914 254.489 194.794 250.902 195.501C248.276 196.021 245.529 195.954 242.862 196.314C238.969 196.834 235.036 197.074 231.143 197.674C226.769 198.354 222.422 199.221 217.996 199.674C213.969 200.088 209.889 200.448 205.902 201.354C203.409 201.914 200.782 201.821 198.236 202.168C194.876 202.634 191.489 202.688 188.143 203.501C185.876 204.048 183.409 204.021 181.036 204.341C178.236 204.714 175.396 204.928 172.636 205.501C171.169 205.808 169.689 205.941 168.223 206.141C164.863 206.581 161.49 206.874 158.156 207.608C155.09 208.274 151.943 208.594 148.836 209.114C145.356 209.701 141.85 210.168 138.41 210.968C133.423 212.128 128.41 213.181 123.41 214.274C120.49 214.914 117.53 215.421 114.61 215.981C112.703 216.354 110.716 216.608 108.77 216.754C104.716 217.034 100.836 218.208 96.8629 218.914C92.0496 219.781 89.1697 222.488 87.9297 227.034C86.7697 231.328 85.9165 235.754 86.3431 240.194C86.6498 243.328 86.2498 246.461 86.6764 249.527C87.1564 252.954 87.1697 256.394 86.903 259.781C86.583 263.901 87.063 267.967 86.9297 272.047C86.583 282.061 87.1565 292.047 87.0765 302.061C87.0365 306.94 87.8764 311.821 88.263 316.7C88.3964 318.407 88.4099 320.114 88.4632 321.82C88.5966 326.087 88.6496 330.367 88.863 334.62C88.9563 336.38 89.3563 338.114 90.8363 339.394C91.8096 340.234 92.703 341.194 93.583 342.127C95.7696 344.447 98.5297 345.58 101.636 345.34C103.516 345.194 105.303 345.594 107.13 345.594C110.916 345.594 114.703 345.727 118.476 345.554C121.903 345.38 125.303 344.794 128.73 344.527C130.743 344.367 132.756 344.46 134.77 344.18C137.57 343.807 140.369 343.38 143.183 343.1C144.636 342.954 146.103 342.727 147.569 342.674C151.103 342.54 154.529 341.714 158.009 341.287C160.756 340.94 163.489 340.447 166.236 340.087C170.329 339.567 174.436 339.007 178.489 338.247C182.143 337.567 185.756 336.794 189.463 336.407C191.929 336.154 194.369 335.58 196.783 334.967C201.636 333.74 206.569 332.9 211.436 331.754C219.023 329.954 226.529 327.94 233.942 325.527C239.769 323.634 245.636 321.887 251.662 320.647C256.129 319.727 260.435 318.074 264.862 316.914C266.755 316.407 268.769 316.46 270.716 316.02C273.476 315.394 276.249 314.847 278.929 313.94C280.622 313.367 281.302 312.407 280.902 310.674C280.395 308.474 280.622 306.274 280.595 304.074C280.542 298.767 279.955 293.474 280.209 288.154C280.515 281.821 280.969 275.474 280.942 269.127C280.902 261.061 281.689 253.021 281.929 244.981C282.062 240.434 282.036 235.808 281.329 231.261C281.209 230.501 281.222 229.674 281.449 228.874C281.582 228.421 281.782 227.768 281.116 227.421" stroke="black" stroke-width="3.99998" stroke-linecap="round" stroke-linejoin="round"/>
</svg>
