<svg width="288" height="370" viewBox="0 0 288 370" fill="none" xmlns="http://www.w3.org/2000/svg">
<path d="M118.045 87.1465C113.685 89.2398 110.085 92.3865 106.512 95.5598C106.312 95.7332 106.032 95.8132 105.792 95.9332" stroke="#55ADE1" stroke-width="4" stroke-linecap="round" stroke-linejoin="round"/>
<path d="M100.485 101.426C95.7653 106.279 91.7386 111.679 88.0452 117.346C83.0586 124.972 79.3386 133.292 75.0719 141.319C74.9386 141.586 74.9386 141.919 74.8853 142.226" stroke="#55ADE1" stroke-width="4" stroke-linecap="round" stroke-linejoin="round"/>
<path d="M19.4316 279.612C19.5516 279.799 19.7917 279.986 19.7783 280.159C19.5117 283.679 20.5384 287.092 20.5251 290.586" stroke="#55ADE1" stroke-width="4" stroke-linecap="round" stroke-linejoin="round"/>
<path d="M25.1121 296.999C23.4055 294.785 21.1522 294.185 18.5255 294.812C14.5255 295.772 10.6855 297.199 6.99219 299.012" stroke="#55ADE1" stroke-width="4" stroke-linecap="round" stroke-linejoin="round"/>
<path d="M54.7386 207.72C53.8719 206.173 54.2585 204.4 53.8185 202.786C53.5918 201.933 53.7919 200.786 52.5385 200.613C51.5519 200.48 50.3251 201.92 50.1518 203.16C49.9918 204.293 50.8718 205.173 50.8051 206.266" stroke="#55ADE1" stroke-width="4" stroke-linecap="round" stroke-linejoin="round"/>
<path d="M19.6187 228.933C19.0987 234.439 16.8855 239.533 15.5255 244.839C14.3788 249.293 13.0188 253.719 12.2188 258.226C11.8055 260.559 11.7654 263.119 12.4854 265.533" stroke="#55ADE1" stroke-width="4" stroke-linecap="round" stroke-linejoin="round"/>
<path d="M67.9123 157.227C67.4189 159.653 66.2856 161.853 65.5389 164.187C63.0056 172.08 60.3255 179.933 58.1789 187.96C58.0722 188.347 58.1256 188.707 58.0322 189.067" stroke="#55ADE1" stroke-width="4" stroke-linecap="round" stroke-linejoin="round"/>
<path d="M164.338 16.7198C163.792 16.7198 163.338 16.9331 162.672 16.8398C160.738 16.5465 158.765 16.0398 156.832 16.0665C153.778 16.1065 150.685 15.8265 147.698 16.1065C143.418 16.5064 139.111 15.9065 134.871 16.7065C134.538 16.7731 134.085 16.9198 133.778 16.5465" stroke="#55ADE1" stroke-width="4" stroke-linecap="round" stroke-linejoin="round"/>
<path d="M36.8183 166.373C37.0183 168.693 36.2451 170.826 35.5251 172.96C33.3251 179.466 31.5784 186.12 29.6584 192.72C28.6584 196.16 26.9917 199.426 26.445 202.986C25.925 206.36 25.2718 209.706 24.5518 213.04" stroke="#55ADE1" stroke-width="4" stroke-linecap="round" stroke-linejoin="round"/>
<path d="M194.699 71.96C191.645 71.96 188.605 71.96 185.552 71.96C182.152 71.96 178.819 72.4 175.485 73C173.099 73.4266 170.618 73.4266 168.178 73.3999C163.365 73.3466 158.765 74.64 154.099 75.4533C148.805 76.3733 143.605 77.6533 138.538 79.4533C138.272 79.5466 137.939 79.4533 137.632 79.4533" stroke="#55ADE1" stroke-width="4" stroke-linecap="round" stroke-linejoin="round"/>
<path d="M151.885 5.18656C150.618 6.01322 149.325 5.18653 148.258 4.90653C144.831 4.03986 142.178 5.42652 139.858 7.43985C137.045 9.89318 134.445 12.5599 133.498 16.5199C133.085 18.2399 131.592 19.6932 130.685 21.3065C129.952 22.6132 129.218 23.9332 128.685 25.3332C127.618 28.0799 125.752 30.2932 124.085 32.6399C123.472 33.4932 122.765 34.2799 122.618 35.3865" stroke="#55ADE1" stroke-width="4" stroke-linecap="round" stroke-linejoin="round"/>
<path d="M38.4583 241.199C38.9383 241.666 38.8183 242.279 38.8183 242.839C38.8317 250.719 38.5383 258.586 37.965 266.439C37.605 271.439 37.0717 276.426 36.8183 281.439C36.765 282.413 36.8184 283.332 35.7117 283.839C35.1384 284.092 35.0183 284.772 34.805 285.292C32.0183 291.812 28.0984 297.479 22.3517 301.759C20.2317 303.332 17.8318 303.959 15.2184 303.972C14.2851 303.972 13.245 303.612 12.4717 304.506" stroke="#55ADE1" stroke-width="4" stroke-linecap="round" stroke-linejoin="round"/>
<path d="M178.965 34.8262C178.752 33.5729 179.579 32.5595 179.739 31.3595C180.192 27.9729 178.299 25.6262 176.379 23.3196C174.939 21.5862 173.152 20.1862 171.285 18.9062C166.952 15.9462 162.832 12.6796 158.445 9.81289C155.979 8.19956 153.458 6.83959 151.618 4.34626C150.552 2.89293 148.392 2.67956 146.578 2.47956C142.792 2.07956 139.325 3.14624 136.152 5.19957C133.872 6.67957 131.685 8.31957 129.365 9.74624C125.312 12.2529 121.365 14.9996 117.072 16.9996C110.739 19.9462 107.605 25.0662 105.779 31.3595C104.952 34.2395 103.725 36.9862 103.205 39.9595" stroke="#55ADE1" stroke-width="4" stroke-linecap="round" stroke-linejoin="round"/>
<path d="M277.391 204.239C272.885 205.546 268.311 206.599 263.845 208.053C259.085 209.599 254.085 210.213 249.218 211.399C242.378 213.079 235.418 214.146 228.685 216.386C222.645 218.386 216.325 219.666 210.045 220.813C205.138 221.706 200.298 222.866 195.418 223.786C191.858 224.453 188.218 224.733 184.631 225.306C180.045 226.026 175.485 226.866 170.911 227.666C164.285 228.839 157.738 230.413 150.978 230.853C146.285 231.159 141.578 231.746 136.885 232.239" stroke="#55ADE1" stroke-width="4" stroke-linecap="round" stroke-linejoin="round"/>
<path d="M50.5388 205.52C49.0454 205.84 48.9921 206.893 48.5521 208.213C47.7921 210.533 47.6187 212.906 47.0987 215.226C46.2987 218.799 45.8988 222.44 47.2321 226.013" stroke="#55ADE1" stroke-width="4" stroke-linecap="round" stroke-linejoin="round"/>
<path d="M22.1787 294.706C22.3654 293.346 21.392 292.346 21.0321 291.146C20.8054 290.373 20.0586 290.693 19.432 290.933C17.6986 291.586 16.032 292.386 14.1387 292.626C11.2053 292.999 8.31205 294.319 5.35205 292.786" stroke="#55ADE1" stroke-width="4" stroke-linecap="round" stroke-linejoin="round"/>
<path d="M48.8853 208.626C50.2853 208.799 51.6853 208.959 52.7253 210.093" stroke="#55ADE1" stroke-width="4" stroke-linecap="round" stroke-linejoin="round"/>
<path d="M25.112 254.187C24.6853 255.773 24.2587 257.36 23.832 258.947" stroke="#55ADE1" stroke-width="4" stroke-linecap="round" stroke-linejoin="round"/>
<path d="M70.4716 151C70.3516 152.173 69.2583 153.04 69.3783 154.293" stroke="#55ADE1" stroke-width="4" stroke-linecap="round" stroke-linejoin="round"/>
<path d="M164.338 14.7061C163.938 16.5194 165.139 17.9861 165.499 19.6394C166.219 22.9861 166.138 26.3461 166.178 29.7194C166.178 30.9994 166.298 32.2794 166.352 33.5594" stroke="#55ADE1" stroke-width="4" stroke-linecap="round" stroke-linejoin="round"/>
<path d="M34.2588 217.6C32.0055 226.213 29.8989 234.866 28.0322 243.573" stroke="#55ADE1" stroke-width="4" stroke-linecap="round" stroke-linejoin="round"/>
<path d="M270.992 193.813C271.205 191.933 270.672 190.079 271.072 188.119C271.459 186.266 271.112 184.226 270.978 182.293C270.298 172.733 269.832 163.159 270.072 153.573C270.152 150.679 269.765 147.813 269.298 144.986C268.725 141.519 268.645 137.999 267.912 134.546C266.378 127.306 264.819 120.119 261.699 113.306C258.245 105.746 254.218 98.5727 249.218 91.906C246.232 87.9327 242.752 84.4794 238.938 81.3327C236.965 79.706 234.552 79.226 232.019 78.866C227.779 78.266 223.632 76.9194 219.379 76.466C215.632 76.066 211.978 75.2527 208.232 74.866C201.578 74.186 194.925 74.5327 188.285 74.6394C184.885 74.6927 181.432 74.9327 178.032 75.586C176.432 75.8927 174.739 75.8527 173.099 75.9327C170.059 76.0794 167.125 76.7861 164.152 77.1861C160.032 77.7461 155.912 78.4794 151.872 79.6394C148.632 80.5727 145.579 81.9727 142.365 82.9727C130.685 86.6127 120.685 93.2927 111.139 100.613C102.632 107.133 95.2454 114.866 89.6987 124.159C86.752 129.093 84.2054 134.253 82.3787 139.706C80.1787 146.293 77.5387 152.693 74.8454 159.093C71.392 167.306 67.9253 175.493 65.1253 183.973C63.712 188.253 62.3653 192.586 61.6053 196.986C61.0453 200.239 59.8854 203.266 59.2187 206.466C58.3387 210.653 57.4453 214.813 57.472 219.106C57.4987 222.893 57.5253 226.679 57.0986 230.453" stroke="#55ADE1" stroke-width="4" stroke-linecap="round" stroke-linejoin="round"/>
<path d="M36.4451 283.826C36.8718 286.453 36.6852 289.106 36.3652 291.679C36.0852 293.999 35.9386 296.319 35.7252 298.639C35.6452 299.586 35.4986 300.439 34.4186 300.626C33.5386 300.786 33.6852 301.706 33.1518 302.119C31.2452 303.559 29.1386 304.399 26.7519 304.706C24.0053 305.053 21.2319 305.133 18.5119 305.759C16.1919 306.293 13.3385 305.439 10.8185 303.773C6.92518 301.199 5.52522 297.493 5.03189 292.986C4.76522 290.613 4.63194 288.199 4.24527 285.839C3.79194 283.106 4.24516 280.453 4.80516 277.786" stroke="#55ADE1" stroke-width="4" stroke-linecap="round" stroke-linejoin="round"/>
<path d="M52.1782 195.279C53.2316 195.266 53.5916 194.239 54.3649 193.799C55.4049 193.199 56.8981 193.719 57.1115 194.919C57.7515 198.439 56.9383 201.879 56.5649 205.346C56.4049 206.839 55.4582 208.199 54.4715 208.906C52.7782 210.132 52.6981 211.599 52.9381 213.212C53.4048 216.372 52.1781 219.146 51.2581 221.999C50.6315 223.906 49.8581 225.706 47.6048 226.199C47.0582 226.319 47.1915 226.826 46.9648 227.119" stroke="#55ADE1" stroke-width="4" stroke-linecap="round" stroke-linejoin="round"/>
<path d="M231.658 75.8125C228.525 75.6392 225.512 74.8526 222.498 73.9992C217.765 72.6659 213.018 71.5459 208.058 71.1326C203.352 70.7459 198.672 70.5725 193.965 70.4925C184.205 70.3059 174.458 69.6392 164.698 69.7325C161.672 69.7592 158.752 70.4392 155.738 70.5859C151.538 70.7726 147.365 71.5592 143.298 72.7325C140.338 73.5859 137.472 74.7725 134.499 75.6125C127.952 77.4659 121.818 80.1459 116.192 84.0392C109.325 88.7859 102.618 93.7592 97.0317 100.013C92.4984 105.093 88.3252 110.479 84.1385 115.853C78.4052 123.199 74.3651 131.426 70.6717 139.866C67.5117 147.079 64.685 154.452 62.4584 162.012C60.7784 167.719 58.9784 173.372 57.1117 179.012C55.605 183.546 53.6451 187.972 52.4984 192.586C51.9117 194.972 50.7651 197.199 50.4851 199.679C50.4051 200.386 50.4851 200.919 50.7251 201.519" stroke="#55ADE1" stroke-width="4" stroke-linecap="round" stroke-linejoin="round"/>
<path d="M234.405 78.7325C231.045 73.8525 227.979 68.7592 224.272 64.1458C219.525 58.2258 214.752 52.2658 208.792 47.4392C203.685 43.3058 198.019 40.1059 191.765 38.1725C186.979 36.6925 182.019 35.8525 177.152 34.6125C172.752 33.4925 168.232 33.9859 163.792 33.5992C159.912 33.2659 155.979 33.3725 152.085 33.5725C147.379 33.8259 142.672 33.8659 137.992 34.5859C136.312 34.8392 134.579 34.7859 132.872 34.9192C129.939 35.1325 127.019 35.3459 124.085 35.6792C120.792 36.0659 117.472 36.2125 114.205 36.8125C111.565 37.2925 108.939 37.7459 106.525 39.0125C105.552 39.5192 104.459 39.7859 103.445 40.1725C95.9922 42.9725 88.2987 45.2659 81.9921 50.5192C76.6587 54.9592 71.2854 59.3058 67.1921 64.9992C63.9788 69.4525 61.0187 74.0925 58.4721 78.9325C54.5254 86.4658 50.2721 93.8791 47.4587 101.959C45.8454 106.586 44.4588 111.279 43.8988 116.212C43.4988 119.692 43.1655 123.146 43.2188 126.652C43.2188 127.012 43.3522 127.372 43.0722 127.759C42.4855 128.559 42.4454 129.532 42.5121 130.492" stroke="#55ADE1" stroke-width="4" stroke-linecap="round" stroke-linejoin="round"/>
<path d="M268.792 316.933C269.045 318.813 269.298 320.679 269.005 322.613C268.618 325.106 269.259 327.613 269.379 330.106C269.472 332.106 268.645 333.319 266.992 334.346C263.992 336.199 260.672 336.972 257.285 337.626C252.072 338.612 246.738 338.492 241.538 339.746C237.072 340.826 232.419 340.879 227.832 341.332C225.179 341.586 222.592 342.412 219.952 342.919C216.245 343.626 212.512 344.239 208.792 344.946C206.232 345.426 203.632 345.652 201.085 346.332C199.232 346.826 197.192 346.799 195.245 346.732C190.952 346.586 186.805 347.666 182.632 348.306C179.579 348.772 176.525 349.199 173.472 349.666C170.499 350.119 167.512 350.586 164.512 350.732C161.658 350.866 158.899 351.519 156.099 351.826C149.832 352.506 143.872 354.346 138.005 356.479C135.085 357.546 131.979 357.786 129.032 358.666C125.405 359.746 121.738 360.599 118.192 362.039C114.258 363.626 110.152 364.826 105.792 365.132C102.592 365.359 99.3653 366.012 96.2986 366.972C93.9119 367.719 91.592 367.586 89.3387 367.159C87.4987 366.812 85.6455 366.866 83.8188 366.626C80.8455 366.239 77.952 365.572 75.0454 364.879C73.0987 364.412 71.1253 364.172 69.1787 363.626C64.5787 362.332 60.6854 359.732 56.7387 357.212C52.8854 354.746 48.992 352.346 45.0054 350.119C43.7787 349.426 42.672 348.546 41.8053 347.626C38.6987 344.319 34.992 341.826 31.312 339.279C32.112 336.079 31.9121 332.786 32.5654 329.572C33.7788 323.546 33.4187 317.306 34.832 311.292C35.0454 310.372 34.792 309.572 34.7786 308.719C34.7386 306.799 34.9253 304.919 35.312 303.039C35.4587 302.333 35.4854 301.546 35.0721 300.853" stroke="#55ADE1" stroke-width="4" stroke-linecap="round" stroke-linejoin="round"/>
<path d="M41.9384 130.879C38.7118 138.253 35.0052 145.479 32.3785 153.066C29.8585 160.346 27.2986 167.599 24.5652 174.786C20.9119 184.359 17.6052 194.053 14.7252 203.879C12.7919 210.466 11.0318 217.119 9.63182 223.826C8.52515 229.093 7.65856 234.439 6.7119 239.746C5.89857 244.293 5.21853 248.893 4.51187 253.466C3.71187 258.666 3.4585 263.946 2.9785 269.186C2.8985 270.119 3.16518 271.013 3.32518 271.933C3.88518 275.093 5.11189 277.973 7.03188 280.506C7.75188 281.439 8.64524 282.279 9.72524 282.946C11.7119 284.159 12.4452 284.186 14.5119 282.919C19.2852 279.999 22.6319 275.786 25.7119 271.226C28.2052 267.519 29.4451 263.319 31.1385 259.293C33.0585 254.719 33.9119 249.773 35.8852 245.199C36.5252 243.733 37.0851 242.253 38.0984 240.999C39.3384 239.466 39.1651 237.613 38.9785 235.879C38.3518 230.186 38.4318 224.493 39.2584 218.866C39.8718 214.773 39.5918 210.666 40.1118 206.599C40.8318 200.946 41.3652 195.306 41.4985 189.586C41.5785 185.759 42.0185 181.906 42.2052 178.066C42.3252 175.706 42.5252 173.293 42.8452 170.919C42.9918 169.853 42.4718 168.879 42.4318 167.813C42.2851 163.386 43.6718 159.053 43.1918 154.639C42.4452 147.813 43.0452 140.973 42.8585 134.146C42.8318 133.413 42.8185 132.693 42.9918 131.946C43.1651 131.226 43.0451 130.439 41.9251 130.586" stroke="#55ADE1" stroke-width="4" stroke-linecap="round" stroke-linejoin="round"/>
<path d="M101.766 253.999C102.072 253.932 102.392 253.786 102.672 253.826C108.979 254.706 115.245 253.892 121.525 253.466C123.592 253.332 125.686 253.572 127.739 253.412C131.099 253.159 134.446 252.572 137.806 252.399C139.339 252.319 140.859 252.092 142.379 251.932C147.259 251.439 152.179 251.439 157.019 250.546C160.579 249.879 164.232 249.652 167.806 249.012C172.179 248.239 176.605 247.919 180.992 247.292C185.499 246.666 189.992 245.866 194.512 245.319C198.845 244.799 203.152 243.972 207.499 243.466C211.579 242.999 215.699 242.719 219.766 242.039C223.206 241.466 226.645 240.759 230.005 239.839C233.685 238.839 237.419 238.252 241.179 237.679C243.259 237.359 245.325 236.946 247.405 236.599C249.659 236.212 251.912 235.786 254.179 235.519C257.659 235.106 260.899 233.879 264.245 232.972C268.792 231.732 273.299 230.359 277.792 228.946C279.712 228.346 281.205 227.012 283.059 226.292C284.445 225.746 284.232 224.026 284.299 222.879C284.619 217.706 285.232 212.532 285.085 207.332C285.045 205.799 284.859 204.279 284.725 202.759C284.672 202.052 284.205 201.639 283.632 201.292C280.205 199.172 276.805 197.012 273.379 194.906C272.219 194.199 270.992 194.012 269.539 194.079C266.979 194.199 264.405 194.266 261.859 194.559C258.259 194.986 254.632 194.866 251.045 195.572C248.419 196.092 245.672 196.026 243.005 196.386C239.112 196.906 235.179 197.146 231.285 197.746C226.912 198.426 222.566 199.292 218.139 199.746C214.112 200.159 210.032 200.519 206.045 201.426C203.552 201.986 200.925 201.892 198.379 202.239C195.019 202.706 191.632 202.759 188.285 203.572C186.019 204.119 183.552 204.092 181.179 204.412C178.379 204.786 175.539 204.999 172.779 205.572C171.312 205.879 169.832 206.012 168.366 206.212C165.006 206.652 161.632 206.946 158.299 207.679C155.232 208.346 152.085 208.666 148.979 209.186C145.499 209.772 141.992 210.239 138.552 211.039C133.565 212.199 128.552 213.252 123.552 214.346C120.632 214.986 117.672 215.492 114.752 216.052C112.846 216.426 110.859 216.679 108.912 216.826C104.859 217.106 100.979 218.279 97.0055 218.986C92.1922 219.852 89.3123 222.559 88.0723 227.106C86.9123 231.399 86.059 235.826 86.4857 240.266C86.7924 243.399 86.3924 246.532 86.819 249.599C87.299 253.026 87.3123 256.466 87.0456 259.852C86.7256 263.972 87.2056 268.039 87.0723 272.119C86.7256 282.132 87.2988 292.119 87.2188 302.132C87.1788 307.012 88.0189 311.892 88.4056 316.772C88.5389 318.479 88.5522 320.186 88.6055 321.892C88.7388 326.159 88.7922 330.439 89.0055 334.692C89.0989 336.452 89.4989 338.186 90.9789 339.466C91.9522 340.306 92.8456 341.266 93.7256 342.199C95.9123 344.519 98.6723 345.652 101.779 345.412C103.659 345.266 105.445 345.666 107.272 345.666C111.059 345.666 114.845 345.799 118.619 345.626C122.045 345.452 125.445 344.866 128.872 344.599C130.885 344.439 132.899 344.532 134.912 344.252C137.712 343.879 140.512 343.452 143.325 343.172C144.779 343.026 146.246 342.799 147.712 342.746C151.246 342.612 154.672 341.786 158.152 341.359C160.899 341.012 163.632 340.519 166.379 340.159C170.472 339.639 174.579 339.079 178.632 338.319C182.285 337.639 185.899 336.866 189.605 336.479C192.072 336.226 194.512 335.652 196.925 335.039C201.779 333.812 206.712 332.972 211.579 331.826C219.165 330.026 226.672 328.012 234.086 325.599C239.912 323.706 245.779 321.959 251.806 320.719C256.272 319.799 260.579 318.146 265.005 316.986C266.899 316.479 268.912 316.532 270.859 316.092C273.619 315.466 276.392 314.919 279.072 314.012C280.765 313.439 281.445 312.479 281.045 310.746C280.539 308.546 280.765 306.346 280.739 304.146C280.685 298.839 280.099 293.546 280.352 288.226C280.659 281.892 281.112 275.546 281.085 269.199C281.045 261.132 281.832 253.092 282.072 245.052C282.205 240.506 282.179 235.879 281.472 231.332C281.352 230.572 281.365 229.746 281.592 228.946C281.725 228.492 281.925 227.839 281.259 227.492" stroke="#55ADE1" stroke-width="4" stroke-linecap="round" stroke-linejoin="round"/>
</svg>
