<svg width="314" height="346" viewBox="0 0 314 346" fill="none" xmlns="http://www.w3.org/2000/svg">
<path d="M200.487 265.253C196.727 270.4 191.714 273.6 185.487 274.906" stroke="#55ADE1" stroke-width="5.33333" stroke-linecap="round" stroke-linejoin="round"/>
<path d="M183.194 33.9336C183.834 38.2536 183.407 42.5869 183.167 46.8936C182.954 50.7069 182.514 54.5069 182.661 58.3336C182.727 60.1869 182.514 62.0669 182.434 63.9202" stroke="#55ADE1" stroke-width="5.33333" stroke-linecap="round" stroke-linejoin="round"/>
<path d="M126.608 4.18652C125.261 13.7198 124.567 23.3331 123.688 32.9065" stroke="#55ADE1" stroke-width="5.33333" stroke-linecap="round" stroke-linejoin="round"/>
<path d="M186.501 2.91992C185.381 8.62658 185.847 14.4532 185.261 20.2132C184.861 24.1732 184.007 28.1332 184.727 32.1599" stroke="#55ADE1" stroke-width="5.33333" stroke-linecap="round" stroke-linejoin="round"/>
<path d="M205.314 264.999C201.274 266.146 198.501 263.053 195.154 261.906C192.941 261.146 190.914 259.893 188.781 258.906C185.474 257.373 182.954 258.799 183.274 262.453C183.634 266.453 182.994 270.639 184.994 274.399C185.527 275.413 184.714 276.279 184.967 277.213" stroke="#55ADE1" stroke-width="5.33333" stroke-linecap="round" stroke-linejoin="round"/>
<path d="M67.7277 4.82617C66.8477 4.91951 66.101 5.09286 65.9277 6.2262C65.2877 10.3729 64.5144 14.4795 64.1144 18.6795C62.9277 31.1195 62.901 43.5995 62.4077 56.0528C62.3144 58.3328 62.4077 60.6261 62.4077 62.9195" stroke="#55ADE1" stroke-width="5.33333" stroke-linecap="round" stroke-linejoin="round"/>
<path d="M151.661 238.56C143.234 237.706 134.874 239.093 126.487 239.347C110.207 239.827 93.9407 239.946 77.6607 239.813C71.7007 239.76 65.7674 239.053 59.8607 238.267C57.9541 238.013 56.1274 238.08 54.2607 238.32" stroke="#55ADE1" stroke-width="5.33333" stroke-linecap="round" stroke-linejoin="round"/>
<path d="M168.447 295.76C162.527 296.813 156.567 296.32 150.647 295.946C144.581 295.56 138.594 296.293 132.594 296.626C128.834 296.84 125.127 296.32 121.394 296.453C120.981 296.466 120.381 296.293 119.874 296.293C112.421 296.186 104.954 296.04 97.5008 296.053C94.1142 296.053 90.7142 296.44 87.3275 296.506C83.5808 296.586 79.8475 296.533 76.1275 295.826C73.9808 295.413 71.7275 295.546 69.5275 295.52C65.2075 295.48 60.8875 295.52 56.5542 295.52" stroke="#55ADE1" stroke-width="5.33333" stroke-linecap="round" stroke-linejoin="round"/>
<path d="M248.047 130.267C248.021 130.987 248.141 131.667 247.554 132.307C243.194 137.013 240.021 142.627 237.021 148.147C231.754 157.827 226.327 167.453 221.407 177.32C216.567 187.027 210.927 196.32 206.607 206.28C203.087 214.427 198.821 222.12 193.381 229.16C191.981 230.973 189.914 232.386 189.781 235C189.781 235 189.301 235 189.047 235" stroke="#55ADE1" stroke-width="5.33333" stroke-linecap="round" stroke-linejoin="round"/>
<path d="M288.474 131.547C291.528 131.067 293.328 128.747 294.474 126.414C297.314 120.627 298.914 114.414 297.834 107.907C296.848 101.92 290.928 96.5869 284.661 95.1736C275.994 93.2269 269.541 96.7069 264.301 103.307C262.714 105.307 260.928 107.16 259.768 109.44C258.981 111 258.901 112.467 260.434 114.054C263.661 117.4 268.034 119.08 271.434 122.134C272.594 123.174 273.861 124.12 274.981 125.2C278.701 128.774 283.381 130.32 288.221 131.547" stroke="#55ADE1" stroke-width="5.33333" stroke-linecap="round" stroke-linejoin="round"/>
<path d="M173.527 176.92C159.727 175.653 145.887 176.28 132.074 176.413C125.634 176.467 119.167 177.44 112.727 178.2C107.114 178.853 101.407 178.813 95.6875 178.2C92.3408 177.827 88.9142 177.533 85.5275 177.613C79.8342 177.747 74.1675 177.173 68.4875 177.067C65.4208 177.013 62.4208 177.307 59.5808 178.587C58.7675 178.947 57.9008 178.947 57.0342 178.72" stroke="#55ADE1" stroke-width="5.33333" stroke-linecap="round" stroke-linejoin="round"/>
<path d="M185.994 121.12C175.368 121.347 164.848 123.24 154.208 123.16C150.008 123.134 145.901 122.267 141.741 121.894C135.221 121.32 128.688 121.76 122.154 121.627C116.274 121.507 110.448 120.76 104.594 120.16C97.6742 119.454 90.7142 119.227 83.7409 119.84C82.0476 119.987 80.3409 120.134 78.6609 120.08C69.9276 119.8 61.2076 120.854 52.4609 120.36" stroke="#55ADE1" stroke-width="5.33333" stroke-linecap="round" stroke-linejoin="round"/>
<path d="M248.301 131.8C253.407 132.346 257.727 134.706 261.767 137.653C266.074 140.8 270.487 143.64 275.741 145.08C278.967 145.96 279.381 147.293 278.034 150.6C275.141 157.706 271.047 164.227 267.887 171.2C263.167 181.64 257.274 191.4 251.474 201.266C245.234 211.853 239.141 222.546 232.994 233.2C229.687 238.933 225.994 244.466 222.314 249.973C220.847 252.16 218.981 252.573 217.047 250.973C211.234 246.12 204.261 243.666 197.461 240.773C194.607 239.56 191.554 238.2 189.794 235.266" stroke="#55ADE1" stroke-width="5.33333" stroke-linecap="round" stroke-linejoin="round"/>
<path d="M123.434 33.1594C111.901 32.7594 100.381 32.8794 88.8476 33.1061C80.7943 33.2528 72.741 33.3728 64.6876 32.9728C57.3276 32.5995 49.9276 32.4528 42.5676 32.7595C37.461 32.9728 32.3677 33.9594 27.3143 34.8661C22.821 35.6794 19.8477 38.7728 16.821 42.0128C12.2343 46.9194 11.2077 52.8127 10.7277 59.1061C10.4477 62.8527 9.48768 66.5594 9.03435 70.2927C8.51435 74.5994 7.66101 78.8794 7.71435 83.2527C7.78101 89.4394 7.52768 95.626 7.76768 101.813C8.38101 116.959 7.16768 131.999 5.98102 147.066C5.71435 150.439 6.00768 153.839 5.92768 157.226C5.76768 164.373 5.16769 171.479 4.44769 178.586C4.16769 181.439 4.39435 184.346 4.20769 187.226C3.92769 191.453 3.80769 195.706 3.94102 199.933C4.16768 207.239 3.24769 214.506 3.39435 221.799C3.54102 228.946 4.36768 236.039 4.91435 243.159C5.46102 250.186 5.87435 257.226 6.47435 264.253C7.00768 270.533 7.82102 276.786 8.32768 283.066C8.67435 287.293 8.68768 291.546 8.23434 295.773C7.31435 304.413 7.26102 313.026 7.87435 321.706C8.20768 326.333 9.35435 330.533 11.2477 334.679C13.0343 338.599 16.3143 340.519 20.1943 340.892C23.301 341.186 26.4477 341.786 29.5943 341.506C42.1277 340.413 54.6876 341.212 67.2343 341.052C73.421 340.972 79.6476 340.972 85.7809 341.626C91.5543 342.239 97.3676 342.346 103.088 342.346C115.794 342.373 128.514 342.386 141.234 342.292C148.181 342.239 155.141 342.866 162.088 342.292C167.341 341.852 172.634 342.439 177.848 341.946C184.901 341.266 191.928 341.839 198.968 341.506C209.554 341.026 219.848 339.146 229.754 335.199C235.167 333.053 238.287 328.973 239.847 323.706C241.581 317.839 242.527 311.773 242.927 305.679C243.821 292.119 245.461 278.613 245.794 265.013C245.874 262.053 246.314 259.093 246.274 256.119C246.247 253.519 245.661 251.119 244.101 248.999" stroke="#55ADE1" stroke-width="5.33333" stroke-linecap="round" stroke-linejoin="round"/>
<path d="M124.194 32.6533C125.808 32.7333 127.421 32.9066 129.021 32.8933C138.888 32.8266 148.701 33.5466 158.528 34.3733C163.248 34.7733 168.021 34.4133 172.768 34.08C175.901 33.8533 179.034 33.8 182.181 33.68C182.434 33.68 182.768 33.7866 182.928 33.6666C186.274 31.16 190.261 32.0533 193.874 32.0533C198.794 32.0533 203.701 31.88 208.621 31.8933C213.301 31.9066 218.008 31.8933 222.594 32.72C228.221 33.7466 232.994 36.1733 236.954 40.7066C241.541 45.9733 243.448 51.8399 243.781 58.5866C243.968 62.2399 244.768 65.8666 245.234 69.5199C245.768 73.6799 243.928 77.5999 243.941 81.7199C243.968 86.1333 242.648 90.4532 244.034 94.9999C244.568 96.7732 243.061 99.1865 242.434 101.293C241.488 104.453 239.301 106.933 237.634 109.693C235.261 113.627 232.914 117.587 230.808 121.667C230.021 123.2 230.128 125.133 229.221 126.72C226.314 131.88 223.328 137 220.608 142.24C218.808 145.707 217.781 149.546 215.714 152.88C211.954 158.933 209.008 165.373 206.261 171.933C205.021 174.88 203.368 177.746 201.434 180.306C197.048 186.12 193.514 192.427 189.701 198.6C184.368 207.226 180.301 216.453 176.021 225.586C174.901 227.986 173.261 230.133 172.008 232.48C169.554 237.08 169.274 242.24 169.314 247.213C169.368 253.413 168.661 259.573 168.861 265.773C169.048 271.52 169.181 277.293 168.688 283.053C168.341 287.12 169.194 291.16 168.768 295.266C168.568 297.24 170.181 298.973 171.328 300.506C171.768 301.093 173.501 300.6 174.514 300.066C176.834 298.853 179.154 297.626 181.381 296.253C187.901 292.213 194.781 288.813 201.474 285.066C209.101 280.8 216.314 275.946 222.874 270.12C225.128 268.12 227.728 266.546 230.008 264.533C232.968 261.933 235.528 259.08 237.341 255.586C238.781 252.813 240.648 250.493 243.448 248.96C244.808 248.213 244.834 246.76 244.714 245.426C244.461 242.84 245.248 240.706 246.714 238.52C250.941 232.253 254.168 225.386 258.141 218.933C267.848 203.173 277.528 187.4 287.648 171.906C292.674 164.213 296.314 155.733 299.914 147.28C303.901 137.92 307.541 128.387 309.981 118.52C312.088 109.987 311.874 101.12 306.634 93.7466C301.821 86.9732 295.488 81.8133 286.994 79.2533C277.608 76.4133 269.154 77.3199 261.008 82.4666C256.914 85.0533 253.434 88.4132 250.088 91.8799C248.541 93.4666 246.821 94.7066 244.728 95.4266" stroke="#55ADE1" stroke-width="5.33333" stroke-linecap="round" stroke-linejoin="round"/>
</svg>
