<svg width="314" height="346" viewBox="0 0 314 346" fill="none" xmlns="http://www.w3.org/2000/svg">
<path d="M200.355 265.18C196.595 270.327 191.582 273.527 185.355 274.833" stroke="black" stroke-width="5.33331" stroke-linecap="round" stroke-linejoin="round"/>
<path d="M183.062 33.8481C183.702 38.1681 183.275 42.5014 183.035 46.808C182.822 50.6214 182.382 54.4214 182.528 58.248C182.595 60.1013 182.382 61.9813 182.302 63.8347" stroke="black" stroke-width="5.33331" stroke-linecap="round" stroke-linejoin="round"/>
<path d="M126.489 4.10156C125.142 13.6349 124.449 23.2481 123.569 32.8214" stroke="black" stroke-width="5.33331" stroke-linecap="round" stroke-linejoin="round"/>
<path d="M186.368 2.83496C185.248 8.5416 185.715 14.3682 185.128 20.1282C184.728 24.0882 183.875 28.0482 184.595 32.0748" stroke="black" stroke-width="5.33331" stroke-linecap="round" stroke-linejoin="round"/>
<path d="M205.195 264.927C201.155 266.074 198.381 262.98 195.035 261.834C192.821 261.074 190.795 259.82 188.662 258.834C185.355 257.3 182.835 258.727 183.155 262.38C183.515 266.38 182.875 270.567 184.875 274.327C185.408 275.34 184.595 276.207 184.848 277.14" stroke="black" stroke-width="5.33331" stroke-linecap="round" stroke-linejoin="round"/>
<path d="M67.609 4.7417C66.729 4.83503 65.9824 5.00835 65.809 6.14168C65.169 10.2883 64.3957 14.395 63.9957 18.595C62.809 31.0349 62.7824 43.5148 62.289 55.9681C62.1957 58.2481 62.289 60.5414 62.289 62.8348" stroke="black" stroke-width="5.33331" stroke-linecap="round" stroke-linejoin="round"/>
<path d="M151.528 238.487C143.102 237.634 134.742 239.02 126.355 239.274C110.075 239.754 93.8087 239.874 77.5288 239.74C71.5688 239.687 65.6355 238.98 59.7289 238.194C57.8222 237.94 55.9956 238.007 54.1289 238.247" stroke="black" stroke-width="5.33331" stroke-linecap="round" stroke-linejoin="round"/>
<path d="M168.315 295.687C162.395 296.74 156.435 296.247 150.515 295.874C144.449 295.487 138.462 296.22 132.462 296.554C128.702 296.767 124.995 296.247 121.262 296.38C120.849 296.394 120.249 296.22 119.742 296.22C112.289 296.114 104.822 295.967 97.3688 295.98C93.9822 295.98 90.5822 296.367 87.1956 296.434C83.4489 296.514 79.7156 296.46 75.9956 295.754C73.8489 295.34 71.5956 295.474 69.3956 295.447C65.0757 295.407 60.7557 295.447 56.4224 295.447" stroke="black" stroke-width="5.33331" stroke-linecap="round" stroke-linejoin="round"/>
<path d="M247.915 130.194C247.888 130.914 248.008 131.594 247.421 132.234C243.061 136.941 239.888 142.554 236.888 148.074C231.622 157.754 226.195 167.381 221.275 177.247C216.435 186.954 210.795 196.247 206.475 206.207C202.955 214.354 198.688 222.047 193.248 229.087C191.848 230.9 189.782 232.314 189.648 234.927C189.648 234.927 189.168 234.927 188.915 234.927" stroke="black" stroke-width="5.33331" stroke-linecap="round" stroke-linejoin="round"/>
<path d="M288.355 131.461C291.408 130.981 293.208 128.661 294.354 126.328C297.194 120.541 298.794 114.328 297.714 107.821C296.728 101.834 290.808 96.501 284.541 95.0877C275.875 93.141 269.421 96.621 264.181 103.221C262.595 105.221 260.808 107.074 259.648 109.354C258.861 110.914 258.781 112.381 260.315 113.968C263.541 117.314 267.915 118.994 271.315 122.048C272.475 123.088 273.741 124.034 274.861 125.114C278.581 128.688 283.261 130.234 288.101 131.461" stroke="black" stroke-width="5.33331" stroke-linecap="round" stroke-linejoin="round"/>
<path d="M173.408 176.848C159.608 175.581 145.768 176.208 131.955 176.341C125.515 176.394 119.049 177.368 112.609 178.128C106.995 178.781 101.289 178.741 95.5687 178.128C92.2221 177.754 88.7954 177.461 85.4087 177.541C79.7154 177.674 74.0488 177.101 68.3688 176.994C65.3021 176.941 62.3022 177.234 59.4622 178.514C58.6489 178.874 57.7822 178.874 56.9155 178.648" stroke="black" stroke-width="5.33331" stroke-linecap="round" stroke-linejoin="round"/>
<path d="M185.862 121.048C175.235 121.275 164.715 123.168 154.075 123.088C149.875 123.061 145.769 122.195 141.609 121.821C135.089 121.248 128.555 121.688 122.022 121.555C116.142 121.435 110.315 120.688 104.462 120.088C97.5422 119.381 90.5823 119.155 83.609 119.768C81.9157 119.915 80.209 120.061 78.529 120.008C69.7957 119.728 61.0757 120.781 52.3291 120.288" stroke="black" stroke-width="5.33331" stroke-linecap="round" stroke-linejoin="round"/>
<path d="M248.168 131.714C253.275 132.261 257.595 134.621 261.635 137.568C265.941 140.714 270.355 143.554 275.608 144.994C278.835 145.874 279.248 147.208 277.901 150.514C275.008 157.621 270.915 164.141 267.755 171.114C263.035 181.554 257.141 191.314 251.341 201.181C245.101 211.767 239.008 222.461 232.861 233.114C229.555 238.847 225.861 244.38 222.181 249.887C220.715 252.074 218.848 252.487 216.915 250.887C211.102 246.034 204.128 243.581 197.328 240.687C194.475 239.474 191.422 238.114 189.662 235.181" stroke="black" stroke-width="5.33331" stroke-linecap="round" stroke-linejoin="round"/>
<path d="M123.302 33.0882C111.769 32.6882 100.249 32.8082 88.7154 33.0349C80.6621 33.1815 72.6089 33.3015 64.5556 32.9015C57.1956 32.5281 49.7956 32.3815 42.4357 32.6882C37.329 32.9015 32.2357 33.8881 27.1824 34.7948C22.6891 35.6081 19.7158 38.7015 16.6891 41.9415C12.1025 46.8481 11.0758 52.7414 10.5958 59.0347C10.3158 62.7814 9.35584 66.488 8.9025 70.2213C8.38251 74.5279 7.52915 78.808 7.58248 83.1813C7.64915 89.3679 7.39583 95.5545 7.63583 101.741C8.24916 116.888 7.03583 131.928 5.84917 146.994C5.58251 150.368 5.87583 153.768 5.79583 157.154C5.63583 164.301 5.03585 171.408 4.31586 178.514C4.03586 181.367 4.26249 184.274 4.07583 187.154C3.79583 191.381 3.67585 195.634 3.80919 199.861C4.03585 207.167 3.11585 214.434 3.26252 221.727C3.40918 228.874 4.23582 235.967 4.78249 243.087C5.32915 250.114 5.7425 257.154 6.3425 264.18C6.87583 270.46 7.68918 276.714 8.19584 282.994C8.54251 287.22 8.55583 291.474 8.1025 295.7C7.1825 304.34 7.12914 312.953 7.74248 321.633C8.07581 326.26 9.22247 330.46 11.1158 334.607C12.9024 338.527 16.1825 340.447 20.0624 340.82C23.1691 341.113 26.3157 341.713 29.4624 341.433C41.9957 340.34 54.5556 341.14 67.1022 340.98C73.2889 340.9 79.5155 340.9 85.6488 341.553C91.4221 342.167 97.2354 342.273 102.955 342.273C115.662 342.3 128.382 342.313 141.102 342.22C148.048 342.167 155.008 342.793 161.955 342.22C167.208 341.78 172.502 342.367 177.715 341.873C184.768 341.193 191.795 341.767 198.835 341.433C209.422 340.953 219.715 339.073 229.621 335.127C235.035 332.98 238.155 328.9 239.715 323.633C241.448 317.767 242.395 311.7 242.795 305.607C243.688 292.047 245.328 278.54 245.661 264.94C245.741 261.98 246.181 259.02 246.141 256.047C246.115 253.447 245.528 251.047 243.968 248.927" stroke="black" stroke-width="5.33331" stroke-linecap="round" stroke-linejoin="round"/>
<path d="M124.062 32.5815C125.675 32.6615 127.289 32.8349 128.889 32.8215C138.755 32.7549 148.569 33.4748 158.395 34.3015C163.115 34.7015 167.888 34.3415 172.635 34.0082C175.768 33.7815 178.902 33.7282 182.048 33.6082C182.302 33.6082 182.635 33.7149 182.795 33.5949C186.142 31.0882 190.128 31.9815 193.742 31.9815C198.662 31.9815 203.568 31.8082 208.488 31.8215C213.168 31.8349 217.875 31.8215 222.462 32.6482C228.088 33.6749 232.861 36.1015 236.821 40.6348C241.408 45.9014 243.315 51.7681 243.648 58.5148C243.835 62.1681 244.635 65.7947 245.101 69.4481C245.635 73.608 243.795 77.528 243.808 81.648C243.835 86.0613 242.515 90.3813 243.901 94.9279C244.435 96.7012 242.928 99.1145 242.301 101.221C241.355 104.381 239.168 106.861 237.501 109.621C235.128 113.554 232.781 117.514 230.675 121.594C229.888 123.128 229.995 125.061 229.088 126.648C226.182 131.808 223.195 136.928 220.475 142.168C218.675 145.634 217.648 149.474 215.582 152.808C211.822 158.861 208.875 165.301 206.128 171.861C204.888 174.808 203.235 177.674 201.302 180.234C196.915 186.047 193.382 192.354 189.568 198.527C184.235 207.154 180.168 216.381 175.888 225.514C174.768 227.914 173.128 230.061 171.875 232.407C169.422 237.007 169.142 242.167 169.182 247.14C169.235 253.34 168.528 259.5 168.728 265.7C168.915 271.447 169.048 277.22 168.555 282.98C168.208 287.047 169.062 291.087 168.635 295.194C168.435 297.167 170.048 298.9 171.195 300.434C171.635 301.02 173.368 300.527 174.382 299.994C176.702 298.78 179.022 297.554 181.248 296.18C187.768 292.14 194.648 288.74 201.342 284.994C208.968 280.727 216.182 275.874 222.742 270.047C224.995 268.047 227.595 266.474 229.875 264.46C232.835 261.86 235.395 259.007 237.208 255.514C238.648 252.74 240.515 250.42 243.315 248.887C244.675 248.14 244.701 246.687 244.581 245.354C244.328 242.767 245.115 240.634 246.581 238.447C250.808 232.181 254.035 225.314 258.008 218.861C267.715 203.101 277.395 187.327 287.515 171.834C292.541 164.141 296.181 155.661 299.781 147.208C303.768 137.848 307.408 128.314 309.848 118.448C311.954 109.915 311.741 101.048 306.501 93.6746C301.688 86.9013 295.355 81.7413 286.861 79.1813C277.475 76.3413 269.021 77.248 260.875 82.3946C256.781 84.9813 253.301 88.3412 249.955 91.8079C248.408 93.3946 246.688 94.6346 244.595 95.3546" stroke="black" stroke-width="5.33331" stroke-linecap="round" stroke-linejoin="round"/>
</svg>
