<svg width="404" height="242" viewBox="0 0 404 242" fill="none" xmlns="http://www.w3.org/2000/svg">
<path d="M345.992 89.9738C346.419 90.8938 346.352 91.8804 346.352 92.8671C346.352 96.2404 346.392 99.6138 346.326 102.987C346.312 104.107 346.672 104.52 347.792 104.44C355.312 103.934 362.846 104.107 370.366 104.054C371.726 104.054 372.406 103.24 372.352 101.894C372.232 99.0004 372.552 96.1071 372.046 93.2138C371.912 92.4404 371.606 91.7071 371.566 90.8804C371.526 90.0404 370.552 90.0004 369.819 89.9738C364.406 89.7871 358.979 89.6538 353.566 89.4004C351.019 89.2804 348.486 89.2271 345.979 89.7871" stroke="#55ADE1" stroke-width="4" stroke-linecap="round" stroke-linejoin="round"/>
<path d="M295.232 156.986C293.152 157.48 290.992 157.266 288.912 157.253C285.912 157.24 282.886 157.213 279.886 157.186C276.566 157.16 275.406 158.733 275.872 162.053C276.152 164.013 276.086 166.026 276.179 168.013C276.312 170.786 276.739 173.533 276.659 176.32C276.566 179.733 278.259 181.146 281.686 181.44C283.912 181.626 286.139 181.786 288.379 181.72C291.712 181.626 295.032 181.266 298.312 180.653C298.432 180.626 298.552 180.653 298.672 180.653C301.606 180.36 301.819 180.226 301.899 177.226C301.992 173.92 302.112 170.586 301.859 167.293C301.672 164.88 301.539 162.426 300.859 160.053C300.432 158.586 299.712 157.573 298.126 157.346C297.219 157.226 296.326 157.106 295.419 156.986" stroke="#55ADE1" stroke-width="4" stroke-linecap="round" stroke-linejoin="round"/>
<path d="M171.512 90.3338C170.312 90.5204 169.112 90.7204 167.899 90.8671C167.099 90.9604 166.792 91.3071 166.806 92.1471C166.832 97.3871 167.312 102.614 167.246 107.867C167.206 110.387 169.659 112.48 172.246 112.747C177.472 113.28 182.726 113.094 187.966 113.094C189.046 113.094 190.139 112.854 191.206 112.694C193.046 112.414 194.299 110.747 194.259 108.6C194.166 103.84 194.646 99.0804 193.939 94.3338C193.486 91.2804 192.939 91.0538 190.126 90.7604C184.006 90.1204 177.846 90.4004 171.712 90.3604" stroke="#55ADE1" stroke-width="4" stroke-linecap="round" stroke-linejoin="round"/>
<path d="M275.006 88.707C275.526 91.9337 274.992 95.2137 275.446 98.4804C275.712 100.414 275.886 102.427 275.952 104.427C276.032 106.72 276.379 109 277.886 110.947C278.926 112.28 280.113 112.92 281.859 113.187C285.273 113.707 288.606 112.88 291.992 113.027C293.512 113.094 295.166 112.76 296.686 112.214C299.406 111.24 300.379 109.827 300.499 106.96C300.659 102.867 300.979 98.7737 301.206 94.6804C301.486 89.6804 299.539 89.7337 295.966 89.307C293.832 89.0537 291.632 89.267 289.472 89.267C285.379 89.267 281.286 89.267 277.193 89.267C276.713 89.267 276.233 89.3737 275.753 89.4404" stroke="#55ADE1" stroke-width="4" stroke-linecap="round" stroke-linejoin="round"/>
<path d="M310.233 89.4272C310.526 90.2938 310.099 91.1205 310.006 91.9472C309.646 95.2272 310.606 98.3472 311.033 101.507C311.273 103.254 311.713 104.974 311.673 106.76C311.619 109.6 313.579 112.107 317.086 112.387C322.206 112.8 327.326 112.72 332.446 112.72C335.219 112.72 337.179 111.294 337.246 108.56C337.313 105.574 338.113 102.694 338.059 99.7072C338.033 97.5872 337.726 95.4938 337.606 93.3872C337.459 90.9872 335.446 89.7872 332.979 89.4272C329.753 88.9472 326.473 88.8938 323.233 89.0938C319.686 89.3072 316.086 89.0005 312.566 89.7739C311.846 89.9339 311.126 90.0138 310.406 90.1338" stroke="#55ADE1" stroke-width="4" stroke-linecap="round" stroke-linejoin="round"/>
<path d="M158.873 123.573C156.099 123.76 153.326 123.906 150.566 124.133C149.046 124.253 147.539 124.426 146.033 124.773C144.713 125.08 144.446 125.88 144.446 126.826C144.486 132.066 144.673 137.32 145.166 142.533C145.393 144.92 147.219 146.533 149.646 147.08C151.099 147.4 152.539 147.4 153.993 147.413C157.846 147.413 161.699 147.4 165.553 147.413C167.219 147.426 168.806 146.946 170.419 146.64C171.326 146.466 171.859 145.76 171.886 144.693C171.993 140.746 171.739 136.84 170.979 132.946C170.566 130.84 170.753 128.653 169.753 126.6C169.006 125.08 168.299 124.053 166.446 123.88C163.979 123.64 161.513 123.56 159.033 123.56" stroke="#55ADE1" stroke-width="4" stroke-linecap="round" stroke-linejoin="round"/>
<path d="M302.099 133.32C302.485 130.92 302.312 128.494 302.219 126.094C302.179 125.04 301.552 124.134 300.125 123.88C296.685 123.267 293.232 123.467 289.832 123.64C286.326 123.827 282.846 123.547 279.352 123.48C278.592 123.467 277.792 123.8 276.992 123.4C276.392 123.094 275.952 123.894 275.979 124.094C276.072 125 275.486 125.774 275.579 126.627C275.912 130.067 276.392 133.48 276.619 136.92C276.765 139.2 276.632 141.454 277.699 143.627C278.486 145.254 279.072 145.947 280.819 145.947C284.486 145.947 288.166 145.827 291.832 145.987C294.726 146.12 297.526 145.987 300.326 145.254C301.352 144.987 301.992 144.52 301.939 143.427C301.792 140.4 302.579 137.427 302.299 134.4C302.272 134.094 302.459 133.747 302.125 133.494" stroke="#55ADE1" stroke-width="4" stroke-linecap="round" stroke-linejoin="round"/>
<path d="M150.379 113.453C153.152 113.693 155.846 113.186 158.499 112.52C160.059 112.133 160.712 111.04 160.712 109.293C160.739 104.706 161.699 100.173 161.432 95.5596C161.365 94.3462 161.086 93.2262 160.659 92.1329C160.166 90.8796 159.259 90.2929 157.792 90.2796C153.992 90.2662 150.206 90.0529 146.419 89.9596C144.006 89.9062 141.606 90.0529 139.192 89.7862C137.806 89.6262 136.352 90.1196 135.286 90.7729C134.272 91.3862 133.859 92.9329 134.166 94.2796C134.686 96.6129 135.139 98.9462 135.032 101.333C134.912 104.173 135.539 106.973 135.459 109.826C135.392 111.866 136.472 113.173 138.859 113.36C142.512 113.653 146.192 114.213 149.872 113.613C150.006 113.586 150.112 113.493 150.232 113.44" stroke="#55ADE1" stroke-width="4" stroke-linecap="round" stroke-linejoin="round"/>
<path d="M189.579 123.573C187.419 124.133 185.246 123.707 183.072 123.747C182.232 123.76 181.379 123.72 180.539 123.747C176.312 123.92 176.286 125.56 176.739 128.987C176.979 130.84 177.205 132.72 177.272 134.587C177.365 137.413 177.299 140.24 177.299 143.08C177.299 146.187 178.299 147.467 181.445 147.36C185.845 147.2 190.246 147.213 194.632 146.747C196.539 146.547 198.486 146.467 200.406 146.347C203.406 146.16 204.352 145.267 204.379 142.347C204.419 137.88 204.326 133.413 203.646 128.987C203.566 128.493 203.419 128.027 203.285 127.547C202.672 125.293 201.766 124.413 199.686 124.24C196.379 123.96 193.086 123.44 189.752 123.573" stroke="#55ADE1" stroke-width="4" stroke-linecap="round" stroke-linejoin="round"/>
<path d="M237.806 188.054C234.926 188.48 232.019 188.08 229.125 188.56C226.512 189 223.872 189.36 221.179 189.36C219.606 189.36 219.486 189.867 219.712 191.494C220.099 194.374 220.059 197.28 219.726 200.16C219.366 203.24 218.752 206.254 219.819 209.4C220.366 211.027 221.312 211.574 222.619 211.68C227.432 212.08 232.246 212.414 237.072 211.747C239.272 211.44 241.526 211.414 243.752 211.374C245.926 211.32 247.926 210.467 250.059 210.2C250.966 210.08 251.645 209.28 251.765 207.934C252.072 204.547 252.459 201.16 253.072 197.8C253.419 195.934 253.392 193.92 253.072 192.04C252.632 189.454 250.806 188.347 247.539 188.24C244.352 188.147 241.152 188.107 237.965 188.054" stroke="#55ADE1" stroke-width="4" stroke-linecap="round" stroke-linejoin="round"/>
<path d="M331.899 156.44C331.512 156.494 331.272 156.814 330.819 156.827C327.872 156.934 324.899 156.96 321.965 156.987C319.565 157.014 317.152 157.027 314.739 157.147C312.326 157.28 311.299 158.32 311.312 160.76C311.325 164.28 312.019 167.747 312.339 171.24C312.485 172.734 312.686 174.254 312.699 175.747C312.699 176.76 312.912 177.72 313.152 178.627C313.805 181 315.072 181.44 318.339 181.774C321.792 182.12 325.099 181.56 328.472 181.027C330.005 180.787 331.605 180.894 333.165 181.027C334.192 181.107 335.112 180.76 336.046 180.574C337.699 180.24 337.592 178.56 337.632 177.387C337.765 172.92 337.565 168.467 336.979 164.014C336.819 162.827 336.885 161.6 336.979 160.4C337.099 158.707 336.379 157.667 334.792 157.147C333.899 156.854 333.072 156.32 332.086 156.427" stroke="#55ADE1" stroke-width="4" stroke-linecap="round" stroke-linejoin="round"/>
<path d="M362.792 111.467C360.206 111.747 357.606 111.987 355.032 111.787C352.552 111.587 350.086 111.707 347.619 111.667C346.006 111.64 345.366 112.453 344.872 113.987C344.086 116.44 345.246 118.8 344.926 121.227C344.419 125.013 345.286 128.853 344.819 132.587C344.286 136.893 345.219 140.867 346.366 144.88C347.046 147.267 347.606 147.52 349.952 147.8C354.286 148.32 358.632 148.173 362.952 148.08C365.552 148.027 368.166 147.56 370.712 146.987C371.926 146.72 372.792 145.8 372.752 144.16C372.646 138.987 372.419 133.8 372.232 128.627C372.112 125.253 372.192 121.88 371.966 118.507C371.859 116.933 371.499 115.373 371.272 113.813C371.099 112.667 370.272 112.16 369.286 112.027C367.192 111.76 365.072 111.64 362.966 111.467" stroke="#55ADE1" stroke-width="4" stroke-linecap="round" stroke-linejoin="round"/>
<path d="M75.0593 90.693C73.4326 90.9597 71.7926 91.2264 70.1926 91.493C69.5526 93.253 70.1658 94.9063 70.4592 96.453C70.7392 97.973 70.4326 99.3597 70.3926 100.8C70.3259 103.933 70.2593 107.066 70.7126 110.2C70.9393 111.8 71.7658 112.64 73.4325 112.72C79.1658 112.986 84.8725 112.386 90.5925 112.293C91.5791 112.28 92.6458 112.146 93.6592 111.96C94.8458 111.746 95.4992 111.12 95.7259 109.653C96.2859 106.066 95.4058 102.546 95.6325 98.9863C95.7525 97.0663 95.5792 95.133 95.6725 93.213C95.7525 91.493 94.7125 90.8397 93.2992 90.8397C87.2725 90.8397 81.2593 90.7464 75.2326 90.6797" stroke="#55ADE1" stroke-width="4" stroke-linecap="round" stroke-linejoin="round"/>
<path d="M57.726 188.227C56.766 188.613 55.7926 188.2 54.8326 188.253C50.0726 188.48 45.286 188.4 40.5527 189.253C38.326 189.653 37.4593 191.08 37.3126 193.107C37.0859 196.32 38.0993 199.467 37.8593 202.68C37.7393 204.36 37.4993 206.053 37.8593 207.733C38.366 210.04 38.2192 210.747 40.9259 211.16C43.3259 211.52 45.7526 211.707 48.1393 212.093C50.5126 212.48 52.8326 211.987 55.1926 211.893C57.2326 211.813 59.2859 211.827 61.3259 211.693C63.6859 211.533 66.0326 211.293 68.3793 211.053C70.166 210.867 70.7793 209.933 71.0727 208.453C71.2193 207.68 71.526 206.853 71.406 206.107C70.8193 202.493 71.206 198.88 71.0727 195.267C71.046 194.72 71.0725 194.2 70.9392 193.627C70.0325 189.56 69.0593 188.547 64.5793 188.56C62.3527 188.56 60.126 188.347 57.8993 188.227" stroke="#55ADE1" stroke-width="4" stroke-linecap="round" stroke-linejoin="round"/>
<path d="M225.699 125.04C223.699 125.64 221.593 125.413 219.553 125.706C217.713 125.973 215.819 125.786 213.966 125.946C211.966 126.12 211.299 126.973 210.859 128.746C210.339 130.853 210.753 132.88 210.859 134.96C211.006 137.906 210.899 140.866 210.899 143.813C210.899 146.52 211.286 147.053 213.966 147.333C216.486 147.6 218.966 148.306 221.553 148.08C222.886 147.973 223.646 148.893 223.873 150.013C224.539 153.466 224.473 157 224.153 160.453C223.953 162.573 223.779 164.746 223.646 166.853C223.446 170.093 223.046 173.333 223.139 176.6C223.246 180.293 224.819 181.946 228.579 182.106C231.499 182.226 234.366 182.786 237.259 183.12C239.272 183.346 241.353 183.16 243.393 183.16H249.166C251.806 183.16 252.833 182.453 253.859 179.973C255.059 177.08 255.126 173.96 255.673 170.933C256.219 167.92 255.672 164.893 255.766 161.893C255.859 158.706 256.139 155.506 255.979 152.32C255.806 149 255.059 145.706 255.019 142.386C254.979 139.586 254.153 136.96 253.886 134.24C253.353 128.733 250.793 126.373 245.206 125.693C238.766 124.92 232.326 125.08 225.873 125.026" stroke="#55ADE1" stroke-width="4" stroke-linecap="round" stroke-linejoin="round"/>
<path d="M117.686 123.573C116.419 123.84 115.219 124.24 113.899 124.347C111.979 124.493 110.979 126.333 111.579 128.627C112.286 131.36 112.219 134.173 112.633 136.947C113.019 139.533 113.433 142.12 113.699 144.72C113.899 146.693 115.366 147.133 116.806 147.387C121.766 148.28 126.779 148.267 131.792 148.12C133.419 148.067 135.059 147.707 136.673 147.413C137.726 147.213 138.539 146.493 138.632 145.44C138.979 141.467 140.046 137.547 139.726 133.52C139.553 131.293 139.286 129.067 139.006 126.84C138.886 125.893 138.233 125.187 137.379 124.88C135.699 124.253 134.006 123.587 132.153 123.587C127.393 123.587 122.646 123.587 117.886 123.587" stroke="#55ADE1" stroke-width="4" stroke-linecap="round" stroke-linejoin="round"/>
<path d="M79.2195 124.467C78.7661 127.653 78.8327 130.853 79.2593 134.04C79.446 135.44 79.4061 136.813 79.3795 138.2C79.3395 139.907 79.526 141.587 79.7794 143.253C80.2327 146.213 82.6594 148.053 86.2727 148.12C89.526 148.187 92.7928 148.36 96.0194 148.067C98.6061 147.827 101.273 147.947 103.793 147.053C105.726 146.373 106.059 145.853 106.153 143.8C106.259 141.667 106.233 139.587 105.833 137.467C105.633 136.44 105.926 135.227 106.219 134.253C106.939 131.813 106.339 129.493 105.913 127.2C105.446 124.693 104.606 124.12 101.273 124.227C94.766 124.427 88.2593 123.707 81.766 124.307C81.286 124.347 80.8061 124.427 80.3261 124.48" stroke="#55ADE1" stroke-width="4" stroke-linecap="round" stroke-linejoin="round"/>
<path d="M331.179 211.533C332.219 211.08 333.352 211.506 334.459 211.053C335.659 210.56 336.259 209.946 336.659 208.666C338.125 203.946 337.939 199.146 337.445 194.386C337.019 190.213 336.272 189.027 331.019 188.52C325.259 187.973 319.579 188.707 313.846 188.613C310.686 188.56 309.512 190.293 310.206 193.48C310.499 194.827 310.379 196.253 310.499 197.64C310.659 199.373 311.059 201.106 310.979 202.866C310.872 205.093 311.619 207.213 312.086 209.36C312.352 210.613 313.459 211.32 314.752 211.333C316.726 211.333 318.632 211.586 320.539 212.053C321.792 212.36 323.059 211.8 324.326 211.746C326.552 211.653 328.779 211.72 331.006 211.72" stroke="#55ADE1" stroke-width="4" stroke-linecap="round" stroke-linejoin="round"/>
<path d="M163.379 156.627C162.419 156.747 161.446 156.853 160.486 156.987C158.793 157.227 157.793 158.32 157.779 160.053C157.753 164.267 157.699 168.48 157.806 172.693C157.859 174.747 158.446 176.76 158.553 178.827C158.619 180.133 159.913 180.533 161.033 180.613C166.753 180.987 172.473 181.04 178.179 180.56C179.606 180.44 181.126 180.36 182.553 179.627C183.713 179.04 184.166 178.387 184.139 177.2C184.099 174.48 184.046 171.787 183.673 169.067C183.339 166.653 183.739 164.147 183.766 161.667C183.793 158.307 183.153 157.533 179.793 157.36C176.313 157.187 172.846 156.587 169.313 157.08C167.446 157.333 165.473 156.8 163.539 156.613" stroke="#55ADE1" stroke-width="4" stroke-linecap="round" stroke-linejoin="round"/>
<path d="M302.645 205.027C301.899 202.92 301.885 200.72 301.912 198.52C301.939 196.6 301.912 194.667 301.912 192.747C301.912 190.373 300.739 189.067 298.299 188.973C292.765 188.747 287.219 188.573 281.685 188.44C280.725 188.413 279.725 188.547 278.805 188.8C277.179 189.253 276.312 191.093 276.605 192.747C277.232 196.213 277.659 199.667 277.059 203.227C276.699 205.333 276.659 207.64 277.405 209.693C278.072 211.533 279.992 211.973 281.685 212.013C287.285 212.133 292.885 212.12 298.485 212.04C301.379 212 302.272 210.933 302.285 208.093C302.285 207.12 302.165 206.12 302.645 205.2" stroke="#55ADE1" stroke-width="4" stroke-linecap="round" stroke-linejoin="round"/>
<path d="M200.045 156.987C198.352 157.12 196.659 157.147 194.979 157.507C192.952 157.933 191.659 159.147 191.725 161.507C191.765 162.773 191.645 164.04 191.752 165.293C191.952 167.787 191.179 170.24 191.419 172.693C191.605 174.68 191.685 176.68 192.019 178.667C192.299 180.307 193.192 180.573 194.445 180.627C195.645 180.68 196.859 180.693 198.059 180.627C201.565 180.453 205.045 180.867 208.539 181.013C210.205 181.08 211.792 180.64 213.419 180.453C214.552 180.32 215.272 179.813 215.259 178.48C215.245 177.28 215.579 176.067 215.579 174.867C215.579 170.88 215.739 166.907 216.085 162.947C216.205 161.587 215.859 160.16 215.565 158.8C215.339 157.747 214.552 157.067 213.432 157C209.872 156.773 206.325 156.44 202.765 157.133C201.979 157.28 201.005 157.52 200.245 156.813" stroke="#55ADE1" stroke-width="4" stroke-linecap="round" stroke-linejoin="round"/>
<path d="M36.4058 92.6802C37.0724 95.0402 37.3656 97.4802 37.4456 99.9069C37.5656 103.64 37.5924 107.374 37.1657 111.107C36.939 113.054 37.139 113.014 39.1123 113.107C43.6856 113.294 48.2457 113.92 52.8457 113.814C55.0724 113.76 57.3257 114 59.5257 113.454C60.779 113.147 61.4457 112.534 61.3524 111.094C61.1524 107.907 61.0057 104.707 60.9923 101.52C60.9923 98.5736 61.4057 95.6402 61.3657 92.6669C61.339 90.8402 61.3257 90.6536 59.5257 90.4936C54.4724 90.0269 49.4324 89.5869 44.3524 89.5336C42.8724 89.5202 41.3524 89.2402 39.8324 89.2402C37.5257 89.2402 37.2458 89.4936 36.7524 91.7736C36.6991 92.0269 36.5258 92.2536 36.4058 92.4936" stroke="#55ADE1" stroke-width="4" stroke-linecap="round" stroke-linejoin="round"/>
<path d="M107.033 156.986C104.806 157.106 102.579 157.333 100.353 157.32C98.486 157.306 96.6194 157.506 94.7528 157.2C93.8061 157.04 93.4593 157.72 93.486 158.613C93.5127 159.52 93.486 160.413 93.486 161.32C93.4993 164.666 92.9527 167.96 92.4727 171.266C92.126 173.68 92.1393 176.24 92.7926 178.653C93.126 179.866 93.9126 180.56 95.4593 180.72C99.2593 181.12 103.059 181.093 106.846 180.96C110.046 180.84 113.246 180.4 116.419 179.893C118.459 179.56 119.259 178.146 119.539 175.96C119.726 174.546 119.459 173.186 119.486 171.8C119.553 168.546 120.059 165.306 119.859 162.04C119.833 161.56 119.926 161.066 119.846 160.6C119.259 157.533 118.566 157 115.339 156.986C112.633 156.986 109.926 156.986 107.206 156.986" stroke="#55ADE1" stroke-width="4" stroke-linecap="round" stroke-linejoin="round"/>
<path d="M125.459 165.107C125.286 167.347 125.179 169.533 125.566 171.8C125.913 173.8 125.619 175.88 125.966 177.933C126.286 179.826 126.993 180.64 128.886 180.64C133.886 180.613 138.873 180.133 143.873 180.24C145.793 180.28 147.726 179.84 149.646 179.547C150.793 179.373 151.379 178.053 150.886 176.32C149.766 172.387 150.313 168.373 150.206 164.387C150.179 163.613 150.486 162.84 150.606 162.053C150.753 161 151.393 159.773 150.499 159.027C149.179 157.933 147.779 156.747 145.846 156.8C140.966 156.933 136.099 157.053 131.219 157.16C130.059 157.187 128.926 157.16 127.779 156.84C126.659 156.533 125.713 157.013 125.646 158.253C125.539 160.48 125.619 162.707 125.619 164.933" stroke="#55ADE1" stroke-width="4" stroke-linecap="round" stroke-linejoin="round"/>
<path d="M310.766 123.934C311.232 125.4 310.512 127.04 311.326 128.44C311.966 129.534 311.886 130.827 311.912 131.88C311.992 134.534 312.712 137.174 312.339 139.814C312.166 141.027 311.912 142.227 312.046 143.427C312.286 145.627 313.952 146.787 316.712 147.054C321.352 147.52 325.992 146.92 330.619 146.92C331.912 146.92 333.406 146.84 334.806 146.4C335.952 146.04 336.539 145.294 336.512 144.507C336.459 142.107 337.366 139.8 337.219 137.467C337.086 135.414 336.859 133.374 336.979 131.32C337.046 130.174 337.512 129.067 337.126 127.88C336.019 124.48 334.526 123.467 330.979 123.16C324.872 122.627 318.819 123.88 312.739 123.574C312.139 123.547 311.539 123.8 310.939 123.92" stroke="#55ADE1" stroke-width="4" stroke-linecap="round" stroke-linejoin="round"/>
<path d="M199.872 90.0531C200.739 90.3198 200.365 91.1465 200.405 91.7331C200.525 93.9065 200.579 96.0931 200.672 98.2664C200.792 100.973 201.139 103.64 201.579 106.24C202.032 108.92 201.565 111.613 202.179 114.266C202.539 115.826 203.245 116.986 204.752 116.96C207.592 116.92 210.432 117.226 213.232 117.506C218.899 118.066 224.565 117.813 230.219 117.76C235.152 117.72 240.085 117.093 245.032 116.893C246.459 116.84 247.912 116.613 249.365 116.56C251.685 116.466 253.205 114.68 253.139 111.933C253.059 108.266 253.392 104.64 253.659 100.986C253.819 98.8398 253.859 96.5598 253.445 94.4798C252.805 91.1998 251.165 90.2131 247.725 90.0264C241.459 89.6931 235.205 89.9465 228.939 89.8265C224.179 89.7331 219.419 89.3198 214.672 89.4798C210.392 89.6265 206.125 89.3998 201.845 89.6398C201.419 89.6665 201.005 89.9065 200.579 90.0398" stroke="#55ADE1" stroke-width="4" stroke-linecap="round" stroke-linejoin="round"/>
<path d="M39.1127 157.16C38.4193 157.267 38.5795 157.8 38.5795 158.24C38.5395 160.973 39.0194 163.667 39.2194 166.373C39.4994 169.96 40.0327 173.613 38.9527 177.213C38.2993 179.413 39.206 180.52 41.646 181.013C49.366 182.587 57.1793 182.107 64.9526 182.013C68.246 181.973 71.5794 181.587 74.8861 181.333C77.3661 181.147 79.846 180.733 82.286 180.253C83.646 179.987 84.6059 179.48 84.9259 177.6C85.8326 172.387 85.286 167.2 84.8727 162.053C84.5927 158.667 83.3927 157.374 78.8594 157.214C74.406 157.054 69.9527 157.307 65.486 157.453C59.8994 157.64 54.2861 157.693 48.6861 157.373C45.5661 157.187 42.4193 157.227 39.2994 157.174" stroke="#55ADE1" stroke-width="4" stroke-linecap="round" stroke-linejoin="round"/>
<path d="M347.432 157.88C347.019 158.867 346.779 159.813 347.006 160.96C347.179 161.84 347.406 162.893 346.752 163.867C346.499 164.24 346.699 164.92 346.712 165.467C346.766 167.213 346.926 168.92 346.832 170.707C346.619 174.307 346.446 177.933 346.246 181.533C346.072 184.84 345.366 188.24 345.472 191.467C345.606 195.107 345.019 198.867 346.246 202.52C346.806 204.2 346.339 206.227 346.339 208.093C346.339 210.547 346.792 210.947 349.232 211C350.686 211.027 352.126 210.813 353.579 211.307C354.819 211.72 356.072 210.947 357.366 210.973C360.552 211.013 363.752 211 366.939 210.973C369.606 210.973 370.886 209.707 370.912 207C370.939 204.227 370.859 201.453 370.926 198.693C371.046 194.147 371.779 189.653 372.246 185.133C372.592 181.827 372.686 178.4 372.046 175.013C371.712 173.253 371.952 171.413 371.659 169.6C371.072 166.067 370.726 162.493 370.166 158.947C369.912 157.36 368.926 156.88 366.392 156.773C362.899 156.627 359.432 156.213 355.912 156.707C354.032 156.973 352.072 156.453 350.139 156.747C349.152 156.893 348.232 157.067 347.432 157.68" stroke="#55ADE1" stroke-width="4" stroke-linecap="round" stroke-linejoin="round"/>
<path d="M37.1258 124.293C37.2458 129.586 37.6459 134.88 37.5125 140.186C37.4725 141.866 38.0192 143.493 38.9658 144.866C39.8325 146.12 41.0726 146.746 42.7259 146.72C46.1792 146.666 49.6059 146.213 53.0192 146.08C55.5659 145.986 58.2191 146.08 60.7791 146.4C62.9258 146.653 65.0058 146.92 67.1124 146.333C67.3391 146.266 67.5925 146.333 67.8325 146.333C70.9658 146.146 71.2192 145.626 71.4992 142.546C71.8858 138.213 71.6725 133.853 72.1658 129.533C72.3125 128.293 71.8326 127.146 71.7392 125.92C71.6192 124.4 70.4059 123.573 68.9126 123.4C62.6059 122.666 56.2858 122.6 49.9391 123.173C47.8991 123.36 45.8725 123.68 43.8058 123.6C41.2725 123.506 38.7126 123.413 36.2192 124.12" stroke="#55ADE1" stroke-width="4" stroke-linecap="round" stroke-linejoin="round"/>
<path d="M129.246 95.9332C128.792 95.3998 128.899 94.7465 128.886 94.1332C128.819 91.6665 127.699 90.4265 125.272 90.3598C119.299 90.1865 113.352 90.6932 107.392 90.8665C105.886 90.9065 104.379 90.9998 102.872 90.7065C101.886 90.5198 100.792 91.4532 101.099 92.3065C101.659 93.8665 101.459 95.4532 101.392 97.0132C101.272 100.16 101.672 103.28 101.806 106.4C101.992 110.76 104.259 112.826 108.646 113.106C112.726 113.373 116.726 112.906 120.752 112.426C122.179 112.253 123.619 112.026 125.072 111.973C127.272 111.906 128.259 110.933 128.112 108.746C127.859 104.853 129.259 101.08 128.886 97.1865C128.859 96.8398 129.112 96.4665 129.232 96.1065" stroke="#55ADE1" stroke-width="4" stroke-linecap="round" stroke-linejoin="round"/>
<path d="M117.325 211.893C117.632 211.96 117.926 212.08 118.232 212.067C123.059 211.867 127.885 212.96 132.672 212.347C136.285 211.88 139.819 212.307 143.339 212.547C149.139 212.947 154.912 212.653 160.685 212.773C162.725 212.813 164.779 212.48 166.832 212.453C172.125 212.4 177.445 212.707 182.725 212.36C187.485 212.053 192.245 212.307 196.992 212.04C199.832 211.88 202.672 211.427 205.485 210.973C207.632 210.627 208.419 209.573 208.365 207.387C208.312 205.173 209.392 203.107 209.099 200.88C208.645 197.52 208.752 194.133 208.752 190.76C208.752 189.573 208.152 189.2 207.112 189.32C200.139 190.093 193.139 189.493 186.165 189.667C178.099 189.867 170.032 190.133 161.965 190.187C155.405 190.227 148.845 189.88 142.272 189.907C139.872 189.907 137.459 190.053 135.046 190.013C130.646 189.96 126.232 190.013 121.872 189.613C117.232 189.187 112.592 189.56 107.965 189.28C101.645 188.893 95.3255 188.6 88.9922 188.573C86.8988 188.573 85.1256 189.427 83.4056 190.413C82.5256 190.92 82.1921 191.827 82.2855 192.92C82.5121 195.387 82.1655 197.853 82.5389 200.347C82.6722 201.293 82.4855 202.64 82.1388 203.76C81.7255 205.107 82.0054 206.52 81.9388 207.907C81.8988 208.773 82.4322 208.947 83.1788 209.213C85.8188 210.173 88.4855 210.72 91.3255 210.653C93.6055 210.613 95.8989 210.973 98.1922 211.147C100.606 211.333 103.006 211.547 105.419 211.68C109.326 211.893 113.259 211.28 117.152 212.053" stroke="#55ADE1" stroke-width="4" stroke-linecap="round" stroke-linejoin="round"/>
<path d="M199.686 53.3068C201.059 54.4801 202.819 54.0668 204.392 54.3334C206.032 54.6134 207.752 54.4134 209.446 54.3868C210.592 54.3601 211.192 54.0534 211.312 52.6001C211.686 48.3868 212.179 44.1868 212.419 39.9601C212.566 37.4934 212.619 35.0134 212.672 32.5468C212.739 29.4268 211.899 26.4001 211.646 23.3334C211.406 20.3601 210.472 17.6935 209.299 15.0135C208.299 12.7335 206.352 11.4268 204.712 9.82679C201.672 6.8668 198.019 4.85346 194.099 3.2668C192.779 2.73347 191.392 2.7868 190.099 2.6668C184.379 2.13347 178.579 2.29346 173.352 4.84013C169.592 6.68013 166.112 9.21346 163.206 12.3335C159.672 16.1201 156.246 20.0268 151.792 22.7735C149.352 24.2801 146.792 25.4934 143.672 25.0401C141.712 24.7468 140.059 23.8668 138.672 22.7468C136.019 20.6135 133.352 18.5068 131.179 15.7868C128.312 12.1868 124.939 9.04013 121.646 5.81346C120.659 4.84013 119.779 4.77346 118.539 5.4268C116.472 6.52013 114.286 7.40013 112.232 8.33346C115.992 16.4268 122.779 21.9734 128.019 28.7068C130.112 31.3868 132.912 33.5734 135.566 35.7734C138.126 37.9068 141.432 38.3868 144.579 39.0401C150.326 40.2401 155.592 38.5201 160.846 36.3734C166.366 34.1201 170.379 30.0134 174.366 25.8534C175.872 24.2801 177.246 22.5734 178.526 20.8001C183.032 14.5601 190.699 15.2801 195.552 20.6134C198.912 24.3068 200.406 28.7734 201.472 33.4668C202.499 37.9734 201.606 42.4268 200.726 46.8268C200.299 48.9334 200.246 51.0668 199.859 53.1601" stroke="#55ADE1" stroke-width="4" stroke-linecap="round" stroke-linejoin="round"/>
<path d="M2.27246 161.68C2.45913 164.026 2.71249 166.373 2.80583 168.72C3.11249 177.333 2.32583 185.933 2.47249 194.546C2.51249 196.719 2.33927 198.879 2.7526 201.066C3.0726 202.759 2.57922 204.559 2.53923 206.293C2.45923 209.439 3.12584 212.559 3.48584 215.693C3.72584 217.759 3.77915 219.853 4.45915 221.826C6.49914 227.733 10.9392 231.159 16.5392 233.399C20.9525 235.173 25.5924 235.719 30.2591 236.333C36.5124 237.146 42.7659 237.359 49.0459 237.559C53.3392 237.693 57.6458 237.853 61.8725 238.799C62.1525 238.866 62.4724 238.799 62.7791 238.799C72.2457 238.866 81.6858 238.479 91.1391 238.159C95.9924 237.999 100.886 238.013 105.766 238.159C109.419 238.279 113.126 238.359 116.779 238.013C123.406 237.399 130.046 238.093 136.646 237.653C143.512 237.186 150.366 236.786 157.232 237.013C163.259 237.213 169.272 237.826 175.299 238.026C180.526 238.199 185.792 238.386 191.006 237.973C196.139 237.573 201.299 237.386 206.352 237.826C213.352 238.439 220.326 238.399 227.312 238.346C228.979 238.346 230.712 237.866 232.366 238.093C236.046 238.599 239.752 238.026 243.379 238.479C248.912 239.173 254.472 239.306 260.006 239.226C266.686 239.119 273.379 239.226 280.059 239.066C284.126 238.973 288.259 239.319 292.339 239.413C304.019 239.693 315.699 239.319 327.379 239.586C333.406 239.733 339.432 239.999 345.446 239.799C349.419 239.666 353.419 239.799 357.366 239.426C360.579 239.119 363.765 239.373 366.939 239.133C370.792 238.839 374.646 238.253 378.499 238.119C382.339 237.973 386.032 237.253 389.686 236.253C392.926 235.373 395.192 233.386 396.792 230.333C398.339 227.386 398.912 224.279 399.459 221.093C399.952 218.199 400.646 215.333 401.046 212.413C401.459 209.359 402.165 206.293 401.272 203.199C401.179 202.866 401.259 202.479 401.272 202.119C401.325 199.266 401.019 196.453 400.632 193.626C400.392 191.879 400.885 190.026 401.139 188.226C401.165 188.013 401.272 187.746 401.272 187.493C401.365 181.226 402.086 174.959 401.566 168.72C401.086 162.88 400.899 157.04 400.912 151.2C400.912 145.293 400.672 139.386 401.006 133.506C401.219 129.64 400.566 125.813 401.192 121.933C401.672 118.92 401.032 115.786 400.566 112.733C400.526 112.44 400.526 112.133 400.566 111.826C400.939 108.333 400.472 104.826 400.406 101.36C400.326 97.2662 400.486 93.1596 400.179 89.0796C399.766 83.5729 399.192 78.0929 397.339 72.8129C396.619 70.7729 395.339 69.4263 393.552 68.2663C390.139 66.0396 386.326 65.9996 382.512 65.7729C378.659 65.5329 374.805 65.6396 370.952 65.7463C366.019 65.8796 361.072 65.8663 356.139 65.7596C345.579 65.5329 335.072 66.6529 324.526 66.6396C322.792 66.6396 321.032 66.5596 319.286 66.5063C311.032 66.2396 302.779 66.7063 294.539 66.9329C287.859 67.1196 281.179 67.3863 274.486 67.6396C267.686 67.8929 260.872 68.0796 254.072 68.3996C249.312 68.6263 244.552 68.4529 239.792 68.6663C231.672 69.0129 223.539 69.2129 215.406 68.9729C209.379 68.7996 203.352 67.9329 197.352 68.3863C188.259 69.0663 179.166 69.1996 170.072 68.9329C165.019 68.7863 159.939 69.0129 154.899 68.5996C147.352 67.9729 139.819 69.3063 132.326 68.6129C121.126 67.5729 109.926 68.1463 98.7258 67.9196C93.9125 67.8129 89.0591 67.7063 84.2857 67.1729C76.1657 66.2663 68.0459 65.9863 59.8992 66.1863C56.2325 66.2796 52.5659 66.5463 48.8859 66.5196C44.1925 66.4796 39.4991 66.4663 34.7925 66.5196C28.7525 66.5863 22.7792 67.3063 16.9126 68.7063C13.5393 69.5063 11.5658 71.9596 9.99251 74.9729C8.12584 78.5863 7.37923 82.4129 6.71256 86.3596C5.91256 91.0662 5.97914 95.7596 6.12581 100.453C6.25914 104.6 6.85912 108.746 6.76578 112.92C6.69912 115.48 6.21912 118 5.76578 120.52C5.51245 121.92 5.59255 123.4 5.36588 124.853C4.93922 127.546 4.45916 130.253 4.3125 132.986C4.17917 135.48 3.83256 137.933 3.53922 140.386C3.20589 143.093 2.81916 145.8 2.47249 148.52C2.41916 148.933 2.47249 149.36 2.47249 149.786V161.533" stroke="#55ADE1" stroke-width="4" stroke-linecap="round" stroke-linejoin="round"/>
</svg>
