<svg width="404" height="242" viewBox="0 0 404 242" fill="none" xmlns="http://www.w3.org/2000/svg">
<path d="M345.852 89.8903C346.279 90.8103 346.212 91.7969 346.212 92.7836C346.212 96.1569 346.252 99.5302 346.186 102.904C346.172 104.024 346.532 104.437 347.652 104.357C355.172 103.85 362.706 104.024 370.225 103.97C371.585 103.97 372.265 103.157 372.212 101.81C372.092 98.9169 372.412 96.0236 371.905 93.1303C371.772 92.357 371.465 91.6236 371.425 90.797C371.385 89.957 370.412 89.917 369.679 89.8903C364.265 89.7036 358.839 89.5703 353.425 89.3169C350.879 89.1969 348.346 89.1436 345.839 89.7036" stroke="black" stroke-width="3.99998" stroke-linecap="round" stroke-linejoin="round"/>
<path d="M295.106 156.903C293.026 157.397 290.866 157.183 288.786 157.17C285.786 157.157 282.759 157.13 279.759 157.103C276.439 157.077 275.279 158.65 275.746 161.97C276.026 163.93 275.959 165.943 276.053 167.93C276.186 170.703 276.612 173.45 276.532 176.237C276.439 179.65 278.133 181.063 281.559 181.357C283.786 181.543 286.012 181.703 288.252 181.637C291.586 181.543 294.906 181.183 298.186 180.57C298.306 180.543 298.426 180.57 298.546 180.57C301.479 180.277 301.692 180.143 301.772 177.143C301.866 173.837 301.986 170.503 301.732 167.21C301.546 164.797 301.412 162.343 300.732 159.97C300.306 158.503 299.586 157.49 297.999 157.263C297.092 157.143 296.199 157.023 295.292 156.903" stroke="black" stroke-width="3.99998" stroke-linecap="round" stroke-linejoin="round"/>
<path d="M171.387 90.2635C170.187 90.4502 168.987 90.6501 167.773 90.7968C166.973 90.8901 166.667 91.2368 166.68 92.0768C166.707 97.3168 167.187 102.543 167.12 107.797C167.08 110.317 169.533 112.41 172.12 112.677C177.347 113.21 182.6 113.023 187.84 113.023C188.92 113.023 190.013 112.783 191.08 112.623C192.92 112.343 194.173 110.677 194.133 108.53C194.04 103.77 194.52 99.0101 193.813 94.2635C193.36 91.2101 192.813 90.9835 190 90.6901C183.88 90.0501 177.72 90.3301 171.587 90.2901" stroke="black" stroke-width="3.99998" stroke-linecap="round" stroke-linejoin="round"/>
<path d="M274.879 88.6372C275.399 91.8639 274.866 95.1438 275.319 98.4105C275.586 100.344 275.759 102.357 275.826 104.357C275.906 106.65 276.253 108.93 277.759 110.877C278.799 112.21 279.986 112.85 281.733 113.117C285.146 113.637 288.479 112.81 291.866 112.957C293.386 113.024 295.039 112.69 296.559 112.144C299.279 111.17 300.253 109.757 300.373 106.89C300.533 102.797 300.853 98.7038 301.079 94.6105C301.359 89.6105 299.413 89.6638 295.839 89.2372C293.706 88.9838 291.506 89.1972 289.346 89.1972C285.253 89.1972 281.159 89.1972 277.066 89.1972C276.586 89.1972 276.106 89.3039 275.626 89.3705" stroke="black" stroke-width="3.99998" stroke-linecap="round" stroke-linejoin="round"/>
<path d="M310.092 89.3569C310.386 90.2235 309.959 91.0502 309.866 91.8769C309.506 95.1569 310.466 98.2768 310.892 101.437C311.132 103.183 311.572 104.903 311.532 106.69C311.479 109.53 313.439 112.037 316.946 112.317C322.066 112.73 327.186 112.65 332.306 112.65C335.079 112.65 337.039 111.223 337.106 108.49C337.172 105.503 337.972 102.623 337.919 99.6368C337.892 97.5169 337.586 95.4235 337.466 93.3168C337.319 90.9169 335.306 89.7169 332.839 89.3569C329.612 88.8769 326.332 88.8235 323.092 89.0235C319.546 89.2369 315.946 88.9302 312.426 89.7035C311.706 89.8635 310.986 89.9435 310.266 90.0635" stroke="black" stroke-width="3.99998" stroke-linecap="round" stroke-linejoin="round"/>
<path d="M158.733 123.49C155.96 123.677 153.187 123.824 150.427 124.05C148.907 124.17 147.4 124.344 145.893 124.69C144.573 124.997 144.307 125.797 144.307 126.744C144.347 131.984 144.533 137.237 145.027 142.45C145.253 144.837 147.08 146.45 149.507 146.997C150.96 147.317 152.4 147.317 153.853 147.33C157.707 147.33 161.56 147.317 165.413 147.33C167.08 147.344 168.666 146.864 170.28 146.557C171.186 146.384 171.72 145.677 171.747 144.61C171.853 140.664 171.6 136.757 170.84 132.864C170.427 130.757 170.613 128.57 169.613 126.517C168.866 124.997 168.16 123.97 166.307 123.797C163.84 123.557 161.373 123.477 158.893 123.477" stroke="black" stroke-width="3.99998" stroke-linecap="round" stroke-linejoin="round"/>
<path d="M301.972 133.25C302.359 130.85 302.186 128.423 302.092 126.023C302.052 124.97 301.426 124.063 299.999 123.81C296.559 123.197 293.106 123.397 289.706 123.57C286.199 123.757 282.719 123.477 279.226 123.41C278.466 123.397 277.666 123.73 276.866 123.33C276.266 123.023 275.826 123.823 275.853 124.023C275.946 124.93 275.359 125.703 275.452 126.557C275.786 129.997 276.266 133.41 276.493 136.85C276.639 139.13 276.506 141.383 277.573 143.557C278.359 145.183 278.946 145.877 280.693 145.877C284.359 145.877 288.039 145.757 291.706 145.917C294.599 146.05 297.399 145.917 300.199 145.183C301.226 144.917 301.866 144.45 301.812 143.357C301.666 140.33 302.452 137.357 302.172 134.33C302.146 134.023 302.332 133.677 301.999 133.423" stroke="black" stroke-width="3.99998" stroke-linecap="round" stroke-linejoin="round"/>
<path d="M150.253 113.37C153.027 113.61 155.72 113.104 158.373 112.437C159.933 112.05 160.586 110.957 160.586 109.21C160.613 104.624 161.573 100.09 161.307 95.477C161.24 94.2637 160.96 93.1437 160.533 92.0504C160.04 90.797 159.133 90.2104 157.667 90.197C153.867 90.1837 150.08 89.9704 146.293 89.877C143.88 89.8237 141.48 89.9704 139.067 89.7037C137.68 89.5437 136.227 90.037 135.16 90.6904C134.147 91.3037 133.733 92.8503 134.04 94.197C134.56 96.5303 135.013 98.8637 134.907 101.25C134.787 104.09 135.413 106.89 135.333 109.744C135.267 111.784 136.347 113.09 138.733 113.277C142.387 113.57 146.067 114.13 149.747 113.53C149.88 113.504 149.987 113.41 150.107 113.357" stroke="black" stroke-width="3.99998" stroke-linecap="round" stroke-linejoin="round"/>
<path d="M189.44 123.49C187.28 124.05 185.106 123.624 182.933 123.664C182.093 123.677 181.24 123.637 180.4 123.664C176.173 123.837 176.146 125.477 176.6 128.904C176.84 130.757 177.066 132.637 177.133 134.504C177.226 137.33 177.16 140.157 177.16 142.997C177.16 146.103 178.16 147.383 181.306 147.277C185.706 147.117 190.106 147.13 194.493 146.663C196.4 146.463 198.346 146.383 200.266 146.263C203.266 146.077 204.213 145.183 204.24 142.263C204.28 137.797 204.186 133.33 203.506 128.904C203.426 128.41 203.28 127.944 203.146 127.464C202.533 125.21 201.626 124.33 199.546 124.157C196.24 123.877 192.946 123.357 189.613 123.49" stroke="black" stroke-width="3.99998" stroke-linecap="round" stroke-linejoin="round"/>
<path d="M237.666 187.97C234.786 188.396 231.879 187.996 228.986 188.476C226.373 188.916 223.733 189.276 221.039 189.276C219.466 189.276 219.346 189.783 219.573 191.41C219.959 194.29 219.919 197.196 219.586 200.076C219.226 203.156 218.613 206.17 219.679 209.316C220.226 210.943 221.173 211.49 222.479 211.596C227.293 211.996 232.106 212.33 236.932 211.663C239.132 211.356 241.386 211.33 243.612 211.29C245.786 211.236 247.786 210.383 249.919 210.116C250.826 209.996 251.506 209.196 251.626 207.85C251.932 204.463 252.319 201.076 252.932 197.716C253.279 195.85 253.252 193.836 252.932 191.956C252.492 189.37 250.666 188.263 247.399 188.156C244.213 188.063 241.012 188.023 237.826 187.97" stroke="black" stroke-width="3.99998" stroke-linecap="round" stroke-linejoin="round"/>
<path d="M331.772 156.37C331.386 156.423 331.146 156.743 330.692 156.757C327.746 156.863 324.772 156.89 321.839 156.917C319.439 156.943 317.026 156.957 314.612 157.077C312.199 157.21 311.172 158.25 311.186 160.69C311.199 164.21 311.892 167.677 312.212 171.17C312.359 172.663 312.559 174.183 312.572 175.677C312.572 176.69 312.786 177.65 313.026 178.557C313.679 180.93 314.946 181.37 318.212 181.703C321.666 182.05 324.972 181.49 328.346 180.957C329.879 180.717 331.479 180.823 333.039 180.957C334.066 181.037 334.985 180.69 335.919 180.503C337.572 180.17 337.466 178.49 337.506 177.317C337.639 172.85 337.439 168.397 336.852 163.943C336.692 162.757 336.759 161.53 336.852 160.33C336.972 158.637 336.252 157.597 334.666 157.077C333.772 156.783 332.946 156.25 331.959 156.357" stroke="black" stroke-width="3.99998" stroke-linecap="round" stroke-linejoin="round"/>
<path d="M362.652 111.384C360.065 111.664 357.465 111.904 354.892 111.704C352.412 111.504 349.945 111.624 347.479 111.584C345.865 111.557 345.226 112.37 344.732 113.904C343.946 116.357 345.105 118.717 344.785 121.144C344.279 124.93 345.145 128.77 344.679 132.504C344.145 136.81 345.079 140.784 346.226 144.797C346.906 147.184 347.465 147.437 349.812 147.717C354.145 148.237 358.492 148.09 362.812 147.997C365.412 147.944 368.025 147.477 370.572 146.904C371.785 146.637 372.652 145.717 372.612 144.077C372.505 138.904 372.279 133.717 372.092 128.544C371.972 125.17 372.052 121.797 371.825 118.424C371.719 116.85 371.359 115.29 371.132 113.73C370.959 112.584 370.132 112.077 369.145 111.944C367.052 111.677 364.932 111.557 362.825 111.384" stroke="black" stroke-width="3.99998" stroke-linecap="round" stroke-linejoin="round"/>
<path d="M74.9336 90.6237C73.3069 90.8904 71.6671 91.157 70.0671 91.4237C69.4271 93.1837 70.0403 94.837 70.3337 96.3837C70.6137 97.9037 70.3069 99.2903 70.2669 100.73C70.2003 103.864 70.1336 106.997 70.5869 110.13C70.8136 111.73 71.6403 112.57 73.307 112.65C79.0403 112.917 84.7469 112.317 90.4669 112.224C91.4535 112.21 92.5203 112.077 93.5336 111.89C94.7203 111.677 95.3735 111.05 95.6002 109.584C96.1602 105.997 95.2802 102.477 95.5069 98.917C95.6269 96.997 95.4536 95.0637 95.5469 93.1437C95.6269 91.4237 94.5869 90.7703 93.1736 90.7703C87.1469 90.7703 81.1336 90.677 75.1069 90.6104" stroke="black" stroke-width="3.99998" stroke-linecap="round" stroke-linejoin="round"/>
<path d="M57.5871 188.157C56.6271 188.543 55.6539 188.13 54.6939 188.183C49.9339 188.41 45.1473 188.33 40.414 189.183C38.1873 189.583 37.3206 191.01 37.1739 193.037C36.9473 196.25 37.9606 199.397 37.7206 202.61C37.6006 204.29 37.3606 205.983 37.7206 207.663C38.2273 209.97 38.0805 210.677 40.7872 211.09C43.1872 211.45 45.6139 211.637 48.0005 212.023C50.3739 212.41 52.6939 211.917 55.0539 211.823C57.0939 211.743 59.1472 211.757 61.1872 211.623C63.5471 211.463 65.8939 211.223 68.2405 210.983C70.0272 210.797 70.6404 209.863 70.9337 208.383C71.0804 207.61 71.387 206.783 71.267 206.037C70.6804 202.423 71.067 198.81 70.9337 195.197C70.907 194.65 70.9337 194.13 70.8004 193.557C69.8937 189.49 68.9204 188.477 64.4404 188.49C62.2137 188.49 59.9871 188.277 57.7604 188.157" stroke="black" stroke-width="3.99998" stroke-linecap="round" stroke-linejoin="round"/>
<path d="M225.56 124.97C223.56 125.57 221.453 125.344 219.413 125.637C217.573 125.904 215.679 125.717 213.826 125.877C211.826 126.05 211.16 126.904 210.72 128.677C210.2 130.784 210.613 132.81 210.72 134.89C210.866 137.837 210.759 140.797 210.759 143.744C210.759 146.45 211.146 146.984 213.826 147.264C216.346 147.53 218.826 148.237 221.413 148.01C222.746 147.904 223.506 148.824 223.733 149.944C224.4 153.397 224.333 156.93 224.013 160.384C223.813 162.504 223.639 164.677 223.506 166.783C223.306 170.023 222.906 173.263 222.999 176.53C223.106 180.223 224.679 181.877 228.439 182.037C231.359 182.157 234.226 182.717 237.119 183.05C239.133 183.277 241.213 183.09 243.253 183.09H249.026C251.666 183.09 252.693 182.383 253.719 179.903C254.919 177.01 254.986 173.89 255.533 170.863C256.079 167.85 255.533 164.823 255.626 161.824C255.719 158.637 255.999 155.437 255.839 152.25C255.666 148.93 254.919 145.637 254.879 142.317C254.839 139.517 254.013 136.89 253.746 134.17C253.213 128.664 250.653 126.304 245.066 125.624C238.626 124.85 232.186 125.01 225.733 124.957" stroke="black" stroke-width="3.99998" stroke-linecap="round" stroke-linejoin="round"/>
<path d="M117.56 123.49C116.293 123.757 115.093 124.157 113.773 124.264C111.853 124.41 110.853 126.25 111.453 128.544C112.16 131.277 112.093 134.09 112.507 136.864C112.893 139.45 113.307 142.037 113.573 144.637C113.773 146.61 115.24 147.05 116.68 147.303C121.64 148.197 126.653 148.183 131.667 148.037C133.293 147.983 134.933 147.623 136.547 147.33C137.6 147.13 138.413 146.41 138.507 145.357C138.853 141.383 139.92 137.463 139.6 133.437C139.426 131.21 139.16 128.984 138.88 126.757C138.76 125.81 138.106 125.104 137.253 124.797C135.573 124.17 133.88 123.504 132.027 123.504C127.267 123.504 122.52 123.504 117.76 123.504" stroke="black" stroke-width="3.99998" stroke-linecap="round" stroke-linejoin="round"/>
<path d="M79.0803 124.397C78.627 127.584 78.6935 130.784 79.1202 133.97C79.3068 135.37 79.267 136.743 79.2403 138.13C79.2003 139.837 79.3869 141.517 79.6402 143.183C80.0935 146.143 82.5202 147.983 86.1335 148.05C89.3868 148.117 92.6535 148.29 95.8802 147.997C98.4668 147.757 101.133 147.877 103.653 146.983C105.587 146.303 105.92 145.783 106.013 143.73C106.12 141.597 106.093 139.517 105.693 137.397C105.493 136.37 105.787 135.157 106.08 134.184C106.8 131.744 106.2 129.424 105.773 127.13C105.307 124.624 104.467 124.05 101.133 124.157C94.6268 124.357 88.1201 123.637 81.6268 124.237C81.1468 124.277 80.6669 124.357 80.1869 124.41" stroke="black" stroke-width="3.99998" stroke-linecap="round" stroke-linejoin="round"/>
<path d="M331.052 211.45C332.092 210.996 333.226 211.423 334.332 210.97C335.532 210.476 336.132 209.863 336.532 208.583C337.999 203.863 337.812 199.063 337.319 194.303C336.892 190.13 336.146 188.943 330.892 188.436C325.132 187.89 319.452 188.623 313.719 188.53C310.559 188.476 309.386 190.21 310.079 193.396C310.372 194.743 310.252 196.17 310.372 197.556C310.532 199.29 310.932 201.023 310.852 202.783C310.746 205.01 311.492 207.13 311.959 209.276C312.226 210.53 313.332 211.236 314.626 211.25C316.599 211.25 318.506 211.503 320.412 211.97C321.666 212.276 322.932 211.716 324.199 211.663C326.426 211.57 328.652 211.636 330.879 211.636" stroke="black" stroke-width="3.99998" stroke-linecap="round" stroke-linejoin="round"/>
<path d="M163.253 156.544C162.293 156.664 161.32 156.77 160.36 156.904C158.667 157.144 157.667 158.237 157.653 159.97C157.627 164.184 157.573 168.397 157.68 172.61C157.733 174.664 158.32 176.677 158.427 178.744C158.493 180.05 159.787 180.45 160.907 180.53C166.627 180.903 172.347 180.957 178.053 180.477C179.48 180.357 181 180.277 182.426 179.544C183.586 178.957 184.04 178.304 184.013 177.117C183.973 174.397 183.92 171.704 183.547 168.984C183.213 166.57 183.613 164.064 183.64 161.584C183.667 158.224 183.027 157.45 179.667 157.277C176.187 157.104 172.72 156.504 169.187 156.997C167.32 157.25 165.347 156.717 163.413 156.53" stroke="black" stroke-width="3.99998" stroke-linecap="round" stroke-linejoin="round"/>
<path d="M302.506 204.957C301.759 202.85 301.745 200.65 301.772 198.45C301.799 196.53 301.772 194.597 301.772 192.677C301.772 190.303 300.599 188.997 298.159 188.903C292.626 188.677 287.079 188.503 281.546 188.37C280.586 188.343 279.586 188.477 278.666 188.73C277.039 189.183 276.172 191.023 276.466 192.677C277.092 196.143 277.519 199.597 276.919 203.157C276.559 205.263 276.519 207.57 277.266 209.623C277.932 211.463 279.852 211.903 281.546 211.943C287.146 212.063 292.746 212.05 298.346 211.97C301.239 211.93 302.132 210.863 302.146 208.023C302.146 207.05 302.026 206.05 302.506 205.13" stroke="black" stroke-width="3.99998" stroke-linecap="round" stroke-linejoin="round"/>
<path d="M199.919 156.903C198.226 157.037 196.533 157.063 194.853 157.423C192.826 157.85 191.533 159.063 191.599 161.423C191.639 162.69 191.519 163.956 191.626 165.21C191.826 167.703 191.053 170.156 191.293 172.61C191.479 174.596 191.56 176.596 191.893 178.583C192.173 180.223 193.066 180.49 194.319 180.543C195.519 180.596 196.733 180.61 197.933 180.543C201.439 180.37 204.92 180.783 208.413 180.93C210.079 180.996 211.666 180.556 213.293 180.37C214.426 180.236 215.146 179.73 215.133 178.396C215.119 177.196 215.453 175.983 215.453 174.783C215.453 170.796 215.613 166.823 215.959 162.863C216.079 161.503 215.733 160.077 215.439 158.717C215.213 157.663 214.426 156.983 213.306 156.917C209.746 156.69 206.199 156.357 202.639 157.05C201.853 157.197 200.879 157.436 200.119 156.73" stroke="black" stroke-width="3.99998" stroke-linecap="round" stroke-linejoin="round"/>
<path d="M36.2803 92.6104C36.9469 94.9704 37.2403 97.4104 37.3203 99.837C37.4403 103.57 37.467 107.304 37.0404 111.037C36.8137 112.984 37.0136 112.944 38.987 113.037C43.5603 113.224 48.1203 113.85 52.7203 113.744C54.947 113.69 57.2003 113.93 59.4003 113.384C60.6536 113.077 61.3203 112.464 61.2269 111.024C61.0269 107.837 60.8802 104.637 60.8669 101.45C60.8669 98.5037 61.2803 95.5704 61.2403 92.5971C61.2136 90.7704 61.2003 90.5837 59.4003 90.4237C54.347 89.9571 49.307 89.5171 44.227 89.4637C42.747 89.4504 41.227 89.1704 39.707 89.1704C37.4004 89.1704 37.1203 89.4237 36.627 91.7037C36.5736 91.9571 36.4003 92.1837 36.2803 92.4237" stroke="black" stroke-width="3.99998" stroke-linecap="round" stroke-linejoin="round"/>
<path d="M106.893 156.903C104.667 157.023 102.44 157.25 100.214 157.237C98.3468 157.223 96.4801 157.423 94.6134 157.117C93.6668 156.957 93.3202 157.637 93.3468 158.53C93.3735 159.437 93.3468 160.33 93.3468 161.237C93.3602 164.583 92.8135 167.877 92.3335 171.183C91.9868 173.597 92.0002 176.157 92.6535 178.57C92.9868 179.783 93.7735 180.477 95.3201 180.637C99.1201 181.037 102.92 181.01 106.707 180.877C109.907 180.757 113.107 180.317 116.28 179.81C118.32 179.477 119.12 178.063 119.4 175.877C119.587 174.463 119.32 173.103 119.347 171.717C119.413 168.463 119.92 165.223 119.72 161.957C119.693 161.477 119.787 160.983 119.707 160.517C119.12 157.45 118.427 156.917 115.2 156.903C112.493 156.903 109.787 156.903 107.067 156.903" stroke="black" stroke-width="3.99998" stroke-linecap="round" stroke-linejoin="round"/>
<path d="M125.32 165.037C125.146 167.277 125.04 169.463 125.426 171.73C125.773 173.73 125.48 175.81 125.826 177.863C126.146 179.757 126.853 180.57 128.747 180.57C133.746 180.543 138.733 180.063 143.733 180.17C145.653 180.21 147.586 179.77 149.506 179.477C150.653 179.303 151.24 177.983 150.746 176.25C149.626 172.317 150.173 168.303 150.066 164.317C150.04 163.543 150.346 162.77 150.466 161.983C150.613 160.93 151.253 159.703 150.36 158.957C149.04 157.863 147.64 156.677 145.706 156.73C140.826 156.863 135.96 156.983 131.08 157.09C129.92 157.117 128.786 157.09 127.64 156.77C126.52 156.463 125.573 156.943 125.506 158.183C125.4 160.41 125.48 162.637 125.48 164.863" stroke="black" stroke-width="3.99998" stroke-linecap="round" stroke-linejoin="round"/>
<path d="M310.639 123.85C311.106 125.317 310.386 126.957 311.199 128.357C311.839 129.45 311.759 130.743 311.786 131.797C311.866 134.45 312.586 137.09 312.213 139.73C312.039 140.943 311.786 142.143 311.919 143.343C312.159 145.543 313.826 146.703 316.586 146.97C321.226 147.437 325.866 146.837 330.492 146.837C331.786 146.837 333.279 146.757 334.679 146.317C335.826 145.957 336.412 145.21 336.386 144.423C336.332 142.023 337.239 139.717 337.092 137.383C336.959 135.33 336.732 133.29 336.852 131.237C336.919 130.09 337.386 128.983 336.999 127.797C335.892 124.397 334.399 123.383 330.852 123.077C324.746 122.543 318.692 123.797 312.612 123.49C312.012 123.463 311.412 123.717 310.812 123.837" stroke="black" stroke-width="3.99998" stroke-linecap="round" stroke-linejoin="round"/>
<path d="M199.733 89.9838C200.6 90.2504 200.227 91.0771 200.267 91.6638C200.387 93.8371 200.44 96.0237 200.533 98.1971C200.653 100.904 201 103.57 201.44 106.17C201.893 108.85 201.427 111.544 202.04 114.197C202.4 115.757 203.107 116.917 204.613 116.89C207.453 116.85 210.293 117.157 213.093 117.437C218.76 117.997 224.427 117.744 230.08 117.69C235.013 117.65 239.947 117.024 244.893 116.824C246.32 116.77 247.773 116.544 249.226 116.49C251.546 116.397 253.066 114.61 253 111.864C252.92 108.197 253.253 104.57 253.52 100.917C253.68 98.7704 253.72 96.4904 253.306 94.4104C252.666 91.1304 251.026 90.1438 247.586 89.9571C241.32 89.6238 235.066 89.8771 228.8 89.7571C224.04 89.6638 219.28 89.2505 214.533 89.4105C210.253 89.5571 205.987 89.3304 201.707 89.5704C201.28 89.5971 200.867 89.8371 200.44 89.9705" stroke="black" stroke-width="3.99998" stroke-linecap="round" stroke-linejoin="round"/>
<path d="M38.9868 157.09C38.2935 157.197 38.4534 157.73 38.4534 158.17C38.4134 160.903 38.8934 163.596 39.0934 166.303C39.3734 169.89 39.9068 173.543 38.8268 177.143C38.1735 179.343 39.0802 180.45 41.5202 180.943C49.2401 182.516 57.0534 182.036 64.8267 181.943C68.12 181.903 71.4533 181.516 74.7599 181.263C77.2399 181.076 79.72 180.663 82.1599 180.183C83.5199 179.916 84.4799 179.41 84.7999 177.53C85.7066 172.316 85.16 167.13 84.7467 161.983C84.4667 158.596 83.2667 157.303 78.7334 157.143C74.2801 156.983 69.8267 157.237 65.3601 157.383C59.7734 157.57 54.1601 157.623 48.5602 157.303C45.4402 157.117 42.2935 157.156 39.1735 157.103" stroke="black" stroke-width="3.99998" stroke-linecap="round" stroke-linejoin="round"/>
<path d="M347.306 157.81C346.893 158.796 346.653 159.743 346.879 160.89C347.053 161.77 347.279 162.823 346.626 163.796C346.373 164.17 346.572 164.85 346.586 165.396C346.639 167.143 346.799 168.85 346.706 170.636C346.493 174.236 346.319 177.863 346.119 181.463C345.946 184.77 345.239 188.17 345.346 191.396C345.479 195.036 344.893 198.796 346.119 202.45C346.679 204.13 346.213 206.156 346.213 208.023C346.213 210.476 346.666 210.876 349.106 210.93C350.559 210.956 351.999 210.743 353.452 211.236C354.692 211.65 355.946 210.876 357.239 210.903C360.426 210.943 363.626 210.93 366.812 210.903C369.479 210.903 370.759 209.636 370.786 206.93C370.812 204.156 370.732 201.383 370.799 198.623C370.919 194.076 371.652 189.583 372.119 185.063C372.466 181.756 372.559 178.33 371.919 174.943C371.586 173.183 371.826 171.343 371.532 169.53C370.946 165.996 370.599 162.423 370.039 158.876C369.786 157.29 368.799 156.81 366.266 156.703C362.772 156.556 359.306 156.143 355.786 156.636C353.906 156.903 351.946 156.383 350.013 156.676C349.026 156.823 348.106 156.996 347.306 157.61" stroke="black" stroke-width="3.99998" stroke-linecap="round" stroke-linejoin="round"/>
<path d="M37.0005 124.21C37.1205 129.504 37.5205 134.797 37.3872 140.104C37.3472 141.784 37.8938 143.41 38.8405 144.784C39.7071 146.037 40.9471 146.664 42.6004 146.637C46.0537 146.584 49.4805 146.13 52.8938 145.997C55.4405 145.904 58.0937 145.997 60.6537 146.317C62.8003 146.57 64.8803 146.837 66.987 146.25C67.2137 146.184 67.467 146.25 67.707 146.25C70.8404 146.064 71.0937 145.544 71.3737 142.464C71.7604 138.13 71.547 133.77 72.0404 129.45C72.187 128.21 71.7069 127.064 71.6136 125.837C71.4936 124.317 70.2803 123.49 68.787 123.317C62.4803 122.584 56.1604 122.517 49.8137 123.09C47.7737 123.277 45.7471 123.597 43.6805 123.517C41.1471 123.424 38.5871 123.33 36.0938 124.037" stroke="black" stroke-width="3.99998" stroke-linecap="round" stroke-linejoin="round"/>
<path d="M129.12 95.8502C128.667 95.3168 128.773 94.6635 128.76 94.0502C128.693 91.5835 127.573 90.3435 125.147 90.2768C119.173 90.1035 113.227 90.6102 107.267 90.7835C105.76 90.8235 104.254 90.9168 102.747 90.6235C101.76 90.4368 100.667 91.3702 100.973 92.2235C101.533 93.7835 101.333 95.3702 101.267 96.9301C101.147 100.077 101.547 103.197 101.68 106.317C101.867 110.677 104.133 112.743 108.52 113.023C112.6 113.29 116.6 112.823 120.627 112.343C122.053 112.17 123.493 111.943 124.947 111.89C127.147 111.823 128.133 110.85 127.987 108.663C127.733 104.77 129.133 100.997 128.76 97.1034C128.733 96.7568 128.987 96.3835 129.107 96.0235" stroke="black" stroke-width="3.99998" stroke-linecap="round" stroke-linejoin="round"/>
<path d="M117.2 211.81C117.507 211.876 117.8 211.996 118.107 211.983C122.934 211.783 127.76 212.876 132.547 212.263C136.16 211.796 139.694 212.223 143.214 212.463C149.014 212.863 154.787 212.57 160.56 212.69C162.6 212.73 164.653 212.396 166.707 212.37C172 212.316 177.32 212.623 182.6 212.276C187.36 211.97 192.12 212.223 196.867 211.956C199.707 211.796 202.547 211.343 205.36 210.89C207.507 210.543 208.293 209.49 208.24 207.303C208.187 205.09 209.266 203.023 208.973 200.796C208.52 197.436 208.626 194.05 208.626 190.676C208.626 189.49 208.027 189.116 206.987 189.236C200.013 190.01 193.013 189.41 186.04 189.583C177.973 189.783 169.907 190.05 161.84 190.103C155.28 190.143 148.72 189.796 142.147 189.823C139.747 189.823 137.333 189.97 134.92 189.93C130.52 189.876 126.107 189.93 121.747 189.53C117.107 189.103 112.467 189.476 107.84 189.196C101.52 188.81 95.2004 188.516 88.8671 188.49C86.7738 188.49 85.0004 189.343 83.2804 190.33C82.4004 190.836 82.0671 191.743 82.1605 192.836C82.3871 195.303 82.0405 197.77 82.4139 200.263C82.5472 201.21 82.3605 202.556 82.0138 203.676C81.6005 205.023 81.8804 206.436 81.8138 207.823C81.7738 208.69 82.3072 208.863 83.0538 209.13C85.6938 210.09 88.3605 210.636 91.2005 210.57C93.4804 210.53 95.7738 210.89 98.0671 211.063C100.48 211.25 102.88 211.463 105.294 211.596C109.2 211.81 113.134 211.196 117.027 211.97" stroke="black" stroke-width="3.99998" stroke-linecap="round" stroke-linejoin="round"/>
<path d="M199.559 53.2372C200.933 54.4105 202.693 53.9972 204.266 54.2639C205.906 54.5439 207.626 54.3439 209.319 54.3172C210.466 54.2905 211.066 53.9839 211.186 52.5305C211.559 48.3172 212.053 44.1173 212.293 39.8906C212.439 37.424 212.493 34.9439 212.546 32.4773C212.613 29.3573 211.773 26.3307 211.519 23.264C211.279 20.2907 210.346 17.624 209.173 14.944C208.173 12.6641 206.226 11.3574 204.586 9.75743C201.546 6.79744 197.893 4.7841 193.973 3.19744C192.653 2.66411 191.266 2.71747 189.973 2.59747C184.253 2.06414 178.453 2.2241 173.226 4.77076C169.466 6.61075 165.986 9.1441 163.08 12.2641C159.546 16.0507 156.12 19.9574 151.666 22.704C149.226 24.2107 146.666 25.424 143.546 24.9707C141.586 24.6774 139.933 23.7974 138.546 22.6774C135.893 20.544 133.226 18.4374 131.053 15.7174C128.186 12.1174 124.813 8.97075 121.52 5.7441C120.533 4.77077 119.653 4.70409 118.413 5.35742C116.347 6.45075 114.16 7.33078 112.106 8.26411C115.866 16.3574 122.653 21.904 127.893 28.6373C129.986 31.3173 132.786 33.504 135.44 35.704C138 37.8373 141.306 38.3173 144.453 38.9706C150.2 40.1706 155.466 38.4506 160.72 36.304C166.24 34.0506 170.253 29.944 174.24 25.784C175.746 24.2107 177.12 22.504 178.4 20.7307C182.906 14.4907 190.573 15.2107 195.426 20.544C198.786 24.2374 200.279 28.704 201.346 33.3973C202.373 37.9039 201.479 42.3573 200.599 46.7572C200.173 48.8639 200.119 50.9972 199.733 53.0906" stroke="black" stroke-width="3.99998" stroke-linecap="round" stroke-linejoin="round"/>
<path d="M2.13379 161.597C2.32045 163.943 2.57382 166.29 2.66715 168.637C2.97382 177.25 2.18715 185.85 2.33382 194.463C2.37382 196.636 2.20044 198.796 2.61377 200.983C2.93377 202.676 2.44055 204.476 2.40055 206.21C2.32055 209.356 2.98716 212.476 3.34716 215.61C3.58716 217.676 3.64047 219.77 4.32046 221.743C6.36045 227.65 10.8005 231.076 16.4005 233.316C20.8138 235.09 25.4537 235.636 30.1203 236.25C36.3736 237.063 42.627 237.276 48.907 237.476C53.2003 237.61 57.507 237.77 61.7336 238.716C62.0136 238.783 62.3335 238.716 62.6402 238.716C72.1068 238.783 81.5468 238.396 91.0001 238.076C95.8534 237.916 100.747 237.93 105.627 238.076C109.28 238.196 112.987 238.276 116.64 237.93C123.267 237.316 129.907 238.01 136.507 237.57C143.373 237.103 150.226 236.703 157.093 236.93C163.12 237.13 169.133 237.743 175.16 237.943C180.386 238.116 185.653 238.303 190.866 237.89C196 237.49 201.16 237.303 206.213 237.743C213.213 238.356 220.186 238.316 227.173 238.263C228.839 238.263 230.573 237.783 232.226 238.01C235.906 238.516 239.613 237.943 243.239 238.396C248.773 239.09 254.333 239.223 259.866 239.143C266.546 239.036 273.239 239.143 279.919 238.983C283.986 238.89 288.119 239.236 292.199 239.33C303.879 239.61 315.559 239.236 327.239 239.503C333.266 239.65 339.292 239.916 345.305 239.716C349.279 239.583 353.279 239.716 357.226 239.343C360.439 239.036 363.625 239.29 366.799 239.05C370.652 238.756 374.505 238.17 378.359 238.036C382.199 237.89 385.892 237.17 389.545 236.17C392.785 235.29 395.052 233.303 396.652 230.25C398.199 227.303 398.772 224.196 399.319 221.01C399.812 218.116 400.505 215.25 400.905 212.33C401.319 209.276 402.025 206.21 401.132 203.116C401.039 202.783 401.119 202.396 401.132 202.036C401.185 199.183 400.879 196.37 400.492 193.543C400.252 191.796 400.745 189.943 400.999 188.143C401.025 187.93 401.132 187.663 401.132 187.41C401.225 181.143 401.945 174.877 401.425 168.637C400.945 162.797 400.759 156.957 400.772 151.117C400.772 145.21 400.532 139.303 400.865 133.423C401.079 129.557 400.425 125.73 401.052 121.85C401.532 118.837 400.892 115.703 400.425 112.65C400.385 112.357 400.385 112.05 400.425 111.744C400.799 108.25 400.332 104.744 400.265 101.277C400.185 97.1836 400.345 93.077 400.039 88.997C399.625 83.4903 399.052 78.0103 397.199 72.7304C396.479 70.6904 395.199 69.3438 393.412 68.1838C389.999 65.9571 386.185 65.9171 382.372 65.6904C378.519 65.4504 374.665 65.5571 370.812 65.6638C365.879 65.7971 360.932 65.7838 355.999 65.6771C345.439 65.4504 334.932 66.5704 324.386 66.5571C322.652 66.5571 320.892 66.4771 319.146 66.4238C310.892 66.1571 302.639 66.6238 294.399 66.8504C287.719 67.0371 281.039 67.3038 274.346 67.5571C267.546 67.8104 260.733 67.9971 253.933 68.3171C249.173 68.5437 244.413 68.3704 239.653 68.5837C231.533 68.9304 223.399 69.1304 215.266 68.8904C209.239 68.7171 203.213 67.8504 197.213 68.3038C188.12 68.9838 179.026 69.1171 169.933 68.8504C164.88 68.7038 159.8 68.9304 154.76 68.5171C147.213 67.8904 139.68 69.2237 132.187 68.5304C120.987 67.4904 109.787 68.0637 98.5866 67.8371C93.7733 67.7304 88.9201 67.6238 84.1467 67.0904C76.0268 66.1838 67.9068 65.9037 59.7601 66.1037C56.0935 66.1971 52.427 66.4637 48.747 66.4371C44.0537 66.3971 39.3603 66.3837 34.6537 66.4371C28.6137 66.5037 22.6403 67.2237 16.7737 68.6237C13.4004 69.4237 11.4271 71.8771 9.8538 74.8904C7.98715 78.5037 7.24054 82.3303 6.57387 86.277C5.77388 90.9836 5.84046 95.6769 5.98712 100.37C6.12046 104.517 6.72043 108.664 6.62709 112.837C6.56043 115.397 6.08043 117.917 5.6271 120.437C5.37377 121.837 5.45386 123.317 5.2272 124.77C4.80053 127.463 4.32048 130.17 4.17382 132.903C4.04049 135.397 3.69388 137.85 3.40055 140.303C3.06722 143.01 2.68049 145.717 2.33382 148.437C2.28049 148.85 2.33382 149.277 2.33382 149.703V161.45" stroke="black" stroke-width="3.99998" stroke-linecap="round" stroke-linejoin="round"/>
</svg>
