<svg width="374" height="333" viewBox="0 0 374 333" fill="none" xmlns="http://www.w3.org/2000/svg">
<path d="M249.92 22.458C249.413 23.538 249.2 24.6446 249.106 25.9113C248.2 38.8446 248.96 51.8046 248.56 64.7379C248.466 67.9246 248.8 71.0712 248.653 74.2312" stroke="black" stroke-width="5.33331" stroke-linecap="round" stroke-linejoin="round"/>
<path d="M263.426 43.165C262.119 43.5384 262.413 44.7383 262.413 45.7516C262.413 49.5916 262.092 53.4582 262.479 57.2449C263.239 64.6315 262.332 72.0716 263.052 79.3782C263.586 84.8316 262.679 90.1248 262.879 95.4981C262.999 98.7648 262.946 102.031 263.426 105.271" stroke="black" stroke-width="5.33331" stroke-linecap="round" stroke-linejoin="round"/>
<path d="M101.16 70.7646C102.027 73.418 101.427 76.1647 101.28 78.8046C101.213 80.1913 100.92 81.6713 100.907 83.1246C100.88 93.3779 101.107 103.645 100.813 113.898C100.653 119.365 100.36 124.818 100.4 130.298C100.4 132.018 100.56 133.751 100.64 135.471" stroke="black" stroke-width="5.33331" stroke-linecap="round" stroke-linejoin="round"/>
<path d="M118.733 41.7246C119.347 42.2579 119.36 43.0446 119.227 43.7379C118.467 47.4446 119.187 51.2844 118.64 54.9378C118.027 59.0977 118.52 63.2044 118.213 67.3244C117.6 75.5644 118.067 83.8311 117.587 92.0444C117.333 96.3643 117.6 100.711 116.96 104.991" stroke="black" stroke-width="5.33331" stroke-linecap="round" stroke-linejoin="round"/>
<path d="M295.266 102.978C294.546 103.884 294.466 104.964 294.479 106.138C294.533 111.217 294.479 116.298 294.506 121.378C294.533 126.551 293.879 131.684 294.333 136.924C294.613 140.151 293.839 143.617 294.039 146.964C294.386 152.711 294.239 158.497 294.986 164.231C295.159 165.537 294.853 166.911 294.773 168.257" stroke="black" stroke-width="5.33331" stroke-linecap="round" stroke-linejoin="round"/>
<path d="M85.88 95.2178C86.0666 98.9644 86.5199 102.724 85.6399 106.431C85.5732 106.698 85.6132 107.004 85.6399 107.298C85.9599 113.738 85.2266 120.151 85.0266 126.564C84.6799 137.684 84.8533 148.817 84.5199 159.924C84.3866 164.097 84.88 168.177 84.88 172.297" stroke="black" stroke-width="5.33331" stroke-linecap="round" stroke-linejoin="round"/>
<path d="M24.9873 195.297C25.6006 195.83 25.4407 196.59 25.5073 197.31C26.3073 205.63 26.1607 214.017 26.7207 222.31C27.0807 227.763 26.5873 233.083 26.374 238.43C26.2407 241.777 25.7206 245.217 26.0939 248.497C27.7072 262.577 26.734 276.696 27.0273 290.79" stroke="black" stroke-width="5.33331" stroke-linecap="round" stroke-linejoin="round"/>
<path d="M46.9069 159.645C47.3869 159.991 47.5735 160.525 47.4002 161.071C46.3869 164.431 47.7601 167.884 47.2801 171.111C46.7067 174.964 47.5469 178.898 46.4135 182.644C46.2535 183.164 46.4135 183.791 46.3868 184.364C45.6935 205.738 45.9068 227.124 45.8802 248.497" stroke="black" stroke-width="5.33331" stroke-linecap="round" stroke-linejoin="round"/>
<path d="M280.239 75.9512C280.693 76.0712 281.026 76.3112 281.266 76.8045C284.826 84.2712 290.199 90.4177 293.479 98.0977C296.052 104.138 300.546 108.698 303.279 114.711C305.959 120.591 309.639 125.884 312.826 131.471C313.972 133.471 314.786 135.524 314.172 138.098C313.879 139.324 314.346 140.764 314.346 142.111C314.372 151.604 314.572 161.097 314.292 170.577C314.052 178.537 313.652 186.497 313.199 194.444C312.959 198.777 313.066 203.084 312.826 207.391" stroke="black" stroke-width="5.33331" stroke-linecap="round" stroke-linejoin="round"/>
<path d="M253.746 104.991C253.079 100.605 253.253 96.1778 253.239 91.7645C253.239 87.5512 253.266 83.3245 253.239 79.1112C253.213 75.6579 251.666 74.098 248.666 74.5113C239.333 75.7913 230 75.298 220.64 74.858C214.026 74.538 207.4 74.9246 200.773 74.7646C187.266 74.4312 173.773 75.1913 160.266 75.498C149.48 75.7513 138.733 77.3245 127.907 77.0845C126.627 77.0579 125.773 77.5646 125.88 79.1112C126.413 86.4845 125.96 93.8711 126.133 101.258C126.16 102.511 126.293 103.751 126.387 104.991" stroke="black" stroke-width="5.33331" stroke-linecap="round" stroke-linejoin="round"/>
<path d="M140.386 3.47168C140.066 5.205 139.226 6.60497 138.413 8.11163C135.906 12.7516 132.933 17.005 130.506 21.7384C129.026 24.6317 126.986 27.4448 125.146 30.2448C116.986 42.7114 109.333 55.5914 101.64 68.4447C98.6798 73.378 95.0532 77.8313 92.3599 82.9246C90.2932 86.8312 87.4132 90.2179 86.1332 94.6446C79.6666 100.818 76.8666 110.218 70.84 116.791C67.8267 120.071 66.9333 124.071 67.8133 128.578C68.2666 130.911 67.7866 133.191 67.7866 135.484C67.7999 144.298 67.6533 153.124 67.84 161.938C67.9733 168.284 67.68 174.658 67.1333 180.898C66.28 190.498 66.3466 200.071 66.2666 209.671" stroke="black" stroke-width="5.33331" stroke-linecap="round" stroke-linejoin="round"/>
<path d="M284.826 167.978C283.332 161.724 283.879 155.338 283.812 148.991C283.772 144.671 283.812 140.351 283.812 135.738C279.826 135.831 276.346 135.805 272.852 136.005C261.479 136.618 250.093 135.378 238.719 135.791C225.306 136.271 211.879 136.725 198.479 136.231C189.733 135.911 180.96 136.258 172.24 135.658C161.453 134.925 150.666 133.551 139.893 134.178C128.853 134.818 117.773 133.778 106.786 135.271C103.133 135.765 99.4266 135.271 95.8132 136.298C94.9332 136.551 93.9599 136.338 92.7599 136.338C91.7999 138.711 92.0666 141.645 92.3199 144.378C93.1866 153.671 92.5332 162.991 92.7599 172.284" stroke="black" stroke-width="5.33331" stroke-linecap="round" stroke-linejoin="round"/>
<path d="M352.839 204.218C352.225 206.658 352.345 209.244 352.185 211.698C351.132 228.644 351.545 245.631 351.639 262.591C351.665 267.471 352.772 272.364 352.519 277.257C352.279 281.764 351.465 286.231 351.572 290.777" stroke="black" stroke-width="5.33331" stroke-linecap="round" stroke-linejoin="round"/>
<path d="M130.707 22.458C131.8 23.9647 131.267 25.7647 131.16 27.338C130.84 31.658 130.88 35.9779 131.013 40.2846C131.213 46.8312 130.747 53.3646 130.293 59.8312C129.893 65.4978 130.48 71.1911 129.693 76.8178" stroke="black" stroke-width="5.33331" stroke-linecap="round" stroke-linejoin="round"/>
<path d="M67.027 123.978C63.7737 128.071 61.4804 132.897 58.8404 137.471C55.0271 144.097 51.267 150.764 47.2937 157.244C43.4938 163.444 40.7072 170.297 36.7072 176.324C33.9739 180.444 31.3872 184.671 28.5205 188.657C24.7739 193.871 22.2406 199.857 19.3339 205.617C17.6539 208.95 15.5606 212.044 13.5073 215.124C10.7073 219.31 8.86727 224.11 6.64061 228.657C5.56061 230.87 4.44065 233.07 3.33398 235.27" stroke="black" stroke-width="5.33331" stroke-linecap="round" stroke-linejoin="round"/>
<path d="M78.227 173.15C77.747 176.11 77.9869 179.097 77.9869 182.07C77.9869 188.59 77.8536 195.11 78.2136 201.63C78.3603 204.31 77.5735 206.977 77.9735 209.684" stroke="black" stroke-width="5.33331" stroke-linecap="round" stroke-linejoin="round"/>
<path d="M318.959 245.924C317.746 235.671 317.719 225.404 318.999 215.151C319.266 213.004 319.066 210.924 319.279 208.671C307.866 207.378 296.733 207.564 285.586 207.884C279.306 208.058 273.04 208.404 266.733 208.044C259.453 207.631 252.12 207.711 244.826 208.018C236.586 208.364 228.346 207.964 220.12 208.271C207.8 208.737 195.493 209.577 183.187 209.911C173.333 210.177 163.493 211.004 153.64 210.511C144.973 210.071 136.307 210.151 127.654 210.351C121.2 210.498 114.747 210.631 108.294 210.484C103.2 210.364 98.107 210.284 93.0137 210.271C85.0271 210.244 77.0538 210.257 69.0672 210.271C66.5205 210.271 63.9872 209.831 61.4139 210.191C59.7873 210.431 59.2939 211.111 59.3739 212.844C59.7472 221.297 59.0006 229.724 58.7206 238.151C58.6006 241.871 59.1872 245.697 60.1472 249.364" stroke="black" stroke-width="5.33331" stroke-linecap="round" stroke-linejoin="round"/>
<path d="M338.826 290.217C338.212 283.031 338.972 275.844 338.666 268.644C338.426 262.818 339.039 256.951 339.346 251.111C339.519 247.924 338.612 246.698 335.759 246.511C330.159 246.124 324.519 246.244 318.946 246.391C306.119 246.724 293.292 247.271 280.479 248.058C268.253 248.804 256.039 250.271 243.799 249.604C235.639 249.151 227.479 249.378 219.346 249.298C206.106 249.164 192.84 249.298 179.613 249.818C164.666 250.404 149.733 250.818 134.773 250.884C124.84 250.924 114.907 251.698 104.973 251.631C93.08 251.551 81.2001 251.018 69.3068 250.524C61.6535 250.204 54.0136 249.684 46.387 249.004C45.467 248.924 44.8535 249.378 44.0936 249.471C41.7069 249.764 39.3736 250.511 36.667 250.178C36.8003 258.991 36.4803 267.418 36.9469 275.857C37.2269 280.844 37.467 285.831 37.7204 290.817" stroke="black" stroke-width="5.33331" stroke-linecap="round" stroke-linejoin="round"/>
<path d="M237.186 4.33789C240.239 8.17787 243.439 11.8712 246.333 15.8712C252.373 24.2312 258.426 32.5778 263.199 42.0044C268.093 51.671 273.213 61.1776 278.186 70.7909C279.359 73.0708 280.439 75.3642 279.319 78.2975C278.799 79.6708 279.226 81.5108 279.226 83.1375C279.226 90.4174 279.426 97.7241 279.172 104.991C278.839 114.671 278.666 124.351 278.706 134.044C278.706 134.431 278.546 134.817 278.466 135.191" stroke="black" stroke-width="5.33331" stroke-linecap="round" stroke-linejoin="round"/>
<path d="M370.412 234.711C366.359 224.324 361.026 214.751 354.986 205.791C352.372 201.924 350.372 197.684 347.826 193.804C345.332 189.991 343.572 185.578 341.359 181.524C339.039 177.298 336.946 172.884 333.999 169.138" stroke="black" stroke-width="5.33331" stroke-linecap="round" stroke-linejoin="round"/>
<path d="M314.879 136.924C317.319 138.83 317.825 142.177 319.439 144.711C323.599 151.257 327.532 157.99 331.746 164.484C333.066 166.524 333.879 168.177 333.332 170.884C332.799 173.55 333.079 176.404 332.785 179.204C331.892 187.884 331.785 196.67 332.319 205.35C332.919 215.057 332.505 224.724 332.665 234.404C332.732 238.297 333.065 242.11 333.719 245.91" stroke="black" stroke-width="5.33331" stroke-linecap="round" stroke-linejoin="round"/>
<path d="M268.519 135.485C268.346 130.885 268.159 126.285 268.013 121.685C267.893 117.752 268.479 113.845 268.053 109.885C267.733 106.845 267.506 106.072 264.946 105.912C260.799 105.658 256.626 105.685 252.466 105.578C249.746 105.512 247.026 105.312 244.319 105.312C227.586 105.285 210.866 105.192 194.133 105.338C184.106 105.432 174.106 106.218 164.08 106.165C153.386 106.112 142.666 106.458 131.986 106.032C125.613 105.778 119.253 105.645 112.88 105.538C111.32 105.512 110.627 105.938 110.813 107.872C111.493 114.685 110.333 121.472 110.547 128.285C110.613 130.418 110.693 132.525 111.093 134.605" stroke="black" stroke-width="5.33331" stroke-linecap="round" stroke-linejoin="round"/>
<path d="M301.892 207.377C301.959 204.471 301.546 201.617 301.199 198.737C300.199 190.537 300.506 182.257 300.946 174.017C301.012 172.871 300.959 171.711 301.186 170.524C297.559 168.137 293.519 168.791 289.679 168.631C281.026 168.271 272.359 168.151 263.706 168.311C252.733 168.511 241.786 169.137 230.839 170.217C224.839 170.817 218.786 170.937 212.759 171.111C203.426 171.377 194.066 171.231 184.746 171.777C173.026 172.471 161.306 172.364 149.586 172.631C135.146 172.964 120.72 173.271 106.28 173.124C98.8133 173.044 91.3335 172.724 83.8668 172.591C81.5735 172.551 79.2801 172.764 76.9868 172.857" stroke="black" stroke-width="5.33331" stroke-linecap="round" stroke-linejoin="round"/>
<path d="M351.826 290.791C352.332 290.977 352.839 291.244 353.359 291.351C355.519 291.777 356.506 292.777 356.106 295.097C354.932 301.844 356.372 308.537 356.106 315.244C355.932 319.377 357.386 323.444 356.239 327.644C355.839 329.11 355.452 329.617 354.132 329.657C341.226 330.057 328.333 330.484 315.413 329.75C307.373 329.297 299.293 329.551 291.213 329.831C284.519 330.071 277.786 329.71 271.093 329.297C263.359 328.817 255.626 328.817 247.92 329.164C243.053 329.377 238.24 328.804 233.4 328.724C229.066 328.657 224.733 327.964 220.413 327.95C206.573 327.924 192.733 328.39 178.893 328.124C162.08 327.804 145.267 328.191 128.453 327.857C122.08 327.737 115.694 326.897 109.347 327.417C98.4003 328.31 87.4537 328.871 76.4804 329.044C67.5605 329.177 58.6406 329.124 49.734 328.457C43.0007 327.964 36.3072 328.55 29.6139 329.124C27.9873 329.27 26.3873 329.297 24.774 329.324C22.0006 329.364 21.5873 328.75 21.4406 325.604C21.174 319.657 20.9741 313.724 21.4141 307.764C21.7874 302.684 21.2274 297.591 20.7208 292.524C20.5874 291.191 20.3474 289.977 22.5074 290.697C26.294 291.964 30.3207 291.644 34.1873 291.284C39.9073 290.751 45.5738 291.404 51.2538 291.511C54.7205 291.577 58.2139 291.484 61.7072 291.871C66.3472 292.377 71.0405 292.537 75.7071 292.471C82.8404 292.364 89.9736 291.591 97.1069 291.751C104.947 291.924 112.734 291.004 120.547 290.724C129.8 290.391 139.067 291.031 148.307 290.444C157.653 289.844 167 289.737 176.333 290.004C187.12 290.311 197.907 289.884 208.68 290.257C221.413 290.697 234.16 290.044 246.893 290.591C259.973 291.137 273.053 291.124 286.119 291.044C296.906 290.977 307.693 290.404 318.466 290.271C324.239 290.204 330.012 290.817 335.786 290.737C340.226 290.671 344.599 291.604 349.039 291.377C349.799 291.337 350.572 291.191 351.332 291.097" stroke="black" stroke-width="5.33331" stroke-linecap="round" stroke-linejoin="round"/>
</svg>
