<svg width="374" height="333" viewBox="0 0 374 333" fill="none" xmlns="http://www.w3.org/2000/svg">
<path d="M250.059 22.5322C249.552 23.6122 249.339 24.7188 249.246 25.9855C248.339 38.9188 249.099 51.8788 248.699 64.8121C248.606 67.9988 248.939 71.1455 248.792 74.3055" stroke="#55ADE1" stroke-width="5.33333" stroke-linecap="round" stroke-linejoin="round"/>
<path d="M263.552 43.2393C262.246 43.6126 262.539 44.8126 262.539 45.8259C262.539 49.6659 262.219 53.5326 262.606 57.3192C263.366 64.7059 262.459 72.1459 263.179 79.4526C263.712 84.9059 262.806 90.1992 263.006 95.5725C263.126 98.8392 263.072 102.106 263.552 105.346" stroke="#55ADE1" stroke-width="5.33333" stroke-linecap="round" stroke-linejoin="round"/>
<path d="M101.286 70.8525C102.152 73.5059 101.552 76.2525 101.406 78.8925C101.339 80.2792 101.046 81.7591 101.032 83.2125C101.006 93.4658 101.232 103.732 100.939 113.986C100.779 119.452 100.486 124.906 100.526 130.386C100.526 132.106 100.686 133.839 100.766 135.559" stroke="#55ADE1" stroke-width="5.33333" stroke-linecap="round" stroke-linejoin="round"/>
<path d="M118.873 41.7988C119.486 42.3322 119.499 43.1188 119.366 43.8122C118.606 47.5188 119.326 51.3589 118.779 55.0122C118.166 59.1722 118.659 63.2788 118.353 67.3988C117.739 75.6388 118.206 83.9055 117.726 92.1189C117.473 96.4388 117.739 100.785 117.099 105.065" stroke="#55ADE1" stroke-width="5.33333" stroke-linecap="round" stroke-linejoin="round"/>
<path d="M295.406 103.065C294.686 103.972 294.606 105.052 294.619 106.225C294.672 111.305 294.619 116.385 294.646 121.465C294.672 126.639 294.019 131.772 294.472 137.012C294.752 140.239 293.979 143.705 294.179 147.052C294.526 152.799 294.379 158.585 295.126 164.319C295.299 165.625 294.992 166.999 294.912 168.345" stroke="#55ADE1" stroke-width="5.33333" stroke-linecap="round" stroke-linejoin="round"/>
<path d="M86.0059 95.293C86.1926 99.0396 86.6459 102.8 85.7659 106.506C85.6992 106.773 85.7392 107.08 85.7659 107.373C86.0859 113.813 85.3526 120.226 85.1526 126.64C84.8059 137.76 84.9792 148.893 84.6459 160C84.5126 164.173 85.0059 168.253 85.0059 172.373" stroke="#55ADE1" stroke-width="5.33333" stroke-linecap="round" stroke-linejoin="round"/>
<path d="M25.126 195.386C25.7393 195.919 25.5793 196.679 25.646 197.399C26.446 205.719 26.2994 214.106 26.8594 222.399C27.2194 227.852 26.726 233.172 26.5127 238.519C26.3794 241.866 25.8594 245.306 26.2327 248.586C27.8461 262.666 26.8727 276.786 27.166 290.879" stroke="#55ADE1" stroke-width="5.33333" stroke-linecap="round" stroke-linejoin="round"/>
<path d="M47.0324 159.719C47.5124 160.065 47.699 160.599 47.5257 161.145C46.5124 164.505 47.8857 167.959 47.4057 171.185C46.8324 175.039 47.6724 178.972 46.539 182.719C46.379 183.239 46.539 183.865 46.5123 184.439C45.819 205.812 46.0323 227.199 46.0057 248.572" stroke="#55ADE1" stroke-width="5.33333" stroke-linecap="round" stroke-linejoin="round"/>
<path d="M280.366 76.0254C280.819 76.1454 281.152 76.3853 281.392 76.8787C284.952 84.3453 290.326 90.492 293.606 98.172C296.179 104.212 300.672 108.772 303.406 114.785C306.086 120.665 309.766 125.959 312.952 131.545C314.099 133.545 314.912 135.599 314.299 138.172C314.006 139.399 314.472 140.839 314.472 142.185C314.499 151.679 314.699 161.172 314.419 170.652C314.179 178.612 313.779 186.572 313.326 194.519C313.086 198.852 313.192 203.159 312.952 207.465" stroke="#55ADE1" stroke-width="5.33333" stroke-linecap="round" stroke-linejoin="round"/>
<path d="M253.872 105.079C253.205 100.692 253.379 96.2659 253.365 91.8525C253.365 87.6392 253.392 83.4125 253.365 79.1992C253.339 75.7459 251.792 74.1859 248.792 74.5992C239.459 75.8792 230.125 75.3859 220.765 74.9459C214.152 74.6259 207.526 75.0125 200.899 74.8525C187.392 74.5192 173.899 75.2792 160.392 75.5859C149.606 75.8392 138.859 77.4125 128.032 77.1725C126.752 77.1459 125.899 77.6526 126.006 79.1992C126.539 86.5725 126.085 93.9592 126.259 101.346C126.285 102.599 126.419 103.839 126.512 105.079" stroke="#55ADE1" stroke-width="5.33333" stroke-linecap="round" stroke-linejoin="round"/>
<path d="M140.526 3.5459C140.206 5.27923 139.366 6.67928 138.552 8.18595C136.046 12.8259 133.072 17.0792 130.646 21.8126C129.166 24.7059 127.126 27.5192 125.286 30.3192C117.126 42.7859 109.472 55.6659 101.779 68.5192C98.8189 73.4526 95.1923 77.9059 92.499 82.9992C90.4323 86.9059 87.5523 90.2925 86.2723 94.7192C79.8056 100.892 77.0057 110.293 70.979 116.866C67.9657 120.146 67.0723 124.146 67.9523 128.652C68.4056 130.986 67.9256 133.266 67.9256 135.559C67.939 144.372 67.7923 153.199 67.979 162.012C68.1123 168.359 67.819 174.732 67.2723 180.972C66.419 190.572 66.4858 200.146 66.4058 209.746" stroke="#55ADE1" stroke-width="5.33333" stroke-linecap="round" stroke-linejoin="round"/>
<path d="M284.952 168.066C283.459 161.812 284.006 155.426 283.939 149.079C283.899 144.759 283.939 140.439 283.939 135.826C279.952 135.919 276.472 135.893 272.979 136.093C261.606 136.706 250.219 135.466 238.846 135.879C225.432 136.359 212.006 136.813 198.606 136.319C189.859 135.999 181.086 136.346 172.366 135.746C161.579 135.013 150.793 133.639 140.019 134.266C128.979 134.906 117.899 133.866 106.913 135.359C103.259 135.853 99.5525 135.359 95.9392 136.386C95.0592 136.639 94.0859 136.426 92.8859 136.426C91.9259 138.799 92.1925 141.732 92.4458 144.466C93.3125 153.759 92.6593 163.079 92.8859 172.373" stroke="#55ADE1" stroke-width="5.33333" stroke-linecap="round" stroke-linejoin="round"/>
<path d="M352.966 204.306C352.352 206.746 352.472 209.332 352.312 211.786C351.259 228.732 351.672 245.719 351.766 262.679C351.792 267.559 352.899 272.452 352.646 277.346C352.406 281.852 351.592 286.319 351.699 290.866" stroke="#55ADE1" stroke-width="5.33333" stroke-linecap="round" stroke-linejoin="round"/>
<path d="M130.846 22.5322C131.939 24.0389 131.406 25.8389 131.299 27.4122C130.979 31.7322 131.019 36.0522 131.153 40.3589C131.353 46.9055 130.886 53.4388 130.432 59.9055C130.032 65.5721 130.619 71.2655 129.833 76.8921" stroke="#55ADE1" stroke-width="5.33333" stroke-linecap="round" stroke-linejoin="round"/>
<path d="M67.1523 124.053C63.899 128.146 61.6056 132.973 58.9656 137.546C55.1523 144.173 51.3924 150.839 47.4191 157.319C43.6191 163.519 40.8323 170.373 36.8323 176.399C34.099 180.519 31.5123 184.746 28.6456 188.733C24.899 193.946 22.3656 199.933 19.459 205.693C17.779 209.026 15.6856 212.119 13.6323 215.199C10.8323 219.386 8.99229 224.186 6.76562 228.733C5.68562 230.946 4.56565 233.146 3.45898 235.346" stroke="#55ADE1" stroke-width="5.33333" stroke-linecap="round" stroke-linejoin="round"/>
<path d="M78.3656 173.239C77.8856 176.199 78.1256 179.186 78.1256 182.159C78.1256 188.679 77.9923 195.199 78.3523 201.719C78.499 204.399 77.7122 207.066 78.1122 209.773" stroke="#55ADE1" stroke-width="5.33333" stroke-linecap="round" stroke-linejoin="round"/>
<path d="M319.085 245.999C317.872 235.746 317.845 225.479 319.125 215.226C319.392 213.079 319.192 210.999 319.405 208.746C307.992 207.453 296.859 207.639 285.712 207.959C279.432 208.133 273.165 208.479 266.859 208.119C259.579 207.706 252.245 207.786 244.952 208.093C236.712 208.439 228.472 208.039 220.245 208.346C207.926 208.813 195.619 209.653 183.312 209.986C173.459 210.253 163.619 211.079 153.765 210.586C145.099 210.146 136.432 210.226 127.779 210.426C121.325 210.573 114.872 210.706 108.419 210.559C103.326 210.439 98.2322 210.359 93.1388 210.346C85.1522 210.319 77.1789 210.333 69.1922 210.346C66.6456 210.346 64.1123 209.906 61.5389 210.266C59.9123 210.506 59.4189 211.186 59.4989 212.919C59.8722 221.373 59.1256 229.799 58.8456 238.226C58.7256 241.946 59.3122 245.773 60.2722 249.439" stroke="#55ADE1" stroke-width="5.33333" stroke-linecap="round" stroke-linejoin="round"/>
<path d="M338.965 290.293C338.352 283.106 339.112 275.92 338.805 268.72C338.565 262.893 339.179 257.026 339.485 251.186C339.659 248 338.752 246.773 335.899 246.586C330.299 246.199 324.659 246.32 319.086 246.466C306.259 246.8 293.432 247.346 280.619 248.133C268.392 248.88 256.179 250.346 243.939 249.68C235.779 249.226 227.619 249.453 219.486 249.373C206.246 249.24 192.979 249.373 179.752 249.893C164.806 250.48 149.872 250.893 134.912 250.96C124.979 251 115.046 251.773 105.112 251.706C93.2189 251.626 81.3389 251.093 69.4456 250.599C61.7923 250.279 54.1524 249.76 46.5257 249.08C45.6057 249 44.9924 249.453 44.2324 249.546C41.8458 249.84 39.5123 250.586 36.8057 250.253C36.939 259.066 36.6191 267.493 37.0858 275.933C37.3658 280.919 37.6057 285.906 37.859 290.893" stroke="#55ADE1" stroke-width="5.33333" stroke-linecap="round" stroke-linejoin="round"/>
<path d="M237.326 4.41211C240.379 8.25211 243.579 11.9455 246.472 15.9455C252.512 24.3055 258.566 32.6521 263.339 42.0787C268.232 51.7454 273.352 61.2521 278.326 70.8654C279.499 73.1454 280.579 75.4388 279.459 78.3721C278.939 79.7454 279.366 81.5853 279.366 83.212C279.366 90.492 279.566 97.7987 279.312 105.065C278.979 114.745 278.806 124.425 278.846 134.119C278.846 134.505 278.686 134.892 278.606 135.265" stroke="#55ADE1" stroke-width="5.33333" stroke-linecap="round" stroke-linejoin="round"/>
<path d="M370.552 234.786C366.499 224.399 361.165 214.826 355.125 205.866C352.512 202 350.512 197.76 347.965 193.88C345.472 190.066 343.712 185.653 341.499 181.6C339.179 177.373 337.085 172.96 334.139 169.213" stroke="#55ADE1" stroke-width="5.33333" stroke-linecap="round" stroke-linejoin="round"/>
<path d="M315.019 136.999C317.459 138.906 317.966 142.252 319.579 144.786C323.739 151.332 327.672 158.066 331.886 164.559C333.206 166.599 334.019 168.252 333.472 170.959C332.939 173.626 333.219 176.479 332.926 179.279C332.032 187.959 331.926 196.746 332.459 205.426C333.059 215.132 332.646 224.799 332.806 234.479C332.872 238.372 333.206 242.186 333.859 245.986" stroke="#55ADE1" stroke-width="5.33333" stroke-linecap="round" stroke-linejoin="round"/>
<path d="M268.659 135.559C268.486 130.959 268.299 126.359 268.152 121.759C268.032 117.826 268.619 113.919 268.192 109.959C267.872 106.919 267.646 106.146 265.086 105.986C260.939 105.733 256.766 105.759 252.606 105.653C249.886 105.586 247.166 105.386 244.459 105.386C227.726 105.359 211.006 105.266 194.272 105.413C184.246 105.506 174.246 106.293 164.219 106.239C153.526 106.186 142.806 106.533 132.126 106.106C125.752 105.853 119.392 105.719 113.019 105.613C111.459 105.586 110.766 106.013 110.952 107.946C111.632 114.759 110.472 121.546 110.686 128.359C110.752 130.493 110.833 132.599 111.233 134.679" stroke="#55ADE1" stroke-width="5.33333" stroke-linecap="round" stroke-linejoin="round"/>
<path d="M302.019 207.466C302.086 204.56 301.672 201.706 301.325 198.826C300.325 190.626 300.632 182.346 301.072 174.106C301.139 172.96 301.085 171.8 301.312 170.613C297.685 168.226 293.645 168.88 289.805 168.72C281.152 168.36 272.486 168.24 263.832 168.4C252.859 168.6 241.912 169.226 230.966 170.306C224.966 170.906 218.912 171.026 212.886 171.2C203.552 171.466 194.192 171.32 184.872 171.866C173.152 172.56 161.432 172.453 149.712 172.72C135.272 173.053 120.846 173.36 106.406 173.213C98.9391 173.133 91.459 172.813 83.9923 172.68C81.699 172.64 79.4056 172.853 77.1123 172.946" stroke="#55ADE1" stroke-width="5.33333" stroke-linecap="round" stroke-linejoin="round"/>
<path d="M351.952 290.866C352.459 291.053 352.965 291.319 353.485 291.426C355.645 291.852 356.632 292.852 356.232 295.172C355.059 301.919 356.499 308.612 356.232 315.319C356.059 319.452 357.512 323.519 356.365 327.719C355.965 329.186 355.579 329.693 354.259 329.733C341.352 330.133 328.459 330.559 315.539 329.826C307.499 329.372 299.419 329.626 291.339 329.906C284.646 330.146 277.912 329.786 271.219 329.372C263.486 328.892 255.752 328.893 248.046 329.239C243.179 329.453 238.366 328.879 233.526 328.799C229.192 328.732 224.859 328.039 220.539 328.026C206.699 327.999 192.859 328.466 179.019 328.199C162.206 327.879 145.392 328.266 128.579 327.932C122.206 327.812 115.819 326.972 109.472 327.492C98.5256 328.386 87.579 328.946 76.6056 329.119C67.6856 329.252 58.7657 329.199 49.8591 328.532C43.1257 328.039 36.4325 328.626 29.7391 329.199C28.1125 329.346 26.5125 329.373 24.8991 329.399C22.1258 329.439 21.7125 328.826 21.5658 325.679C21.2991 319.732 21.0991 313.799 21.5391 307.839C21.9124 302.759 21.3524 297.666 20.8458 292.599C20.7124 291.266 20.4724 290.052 22.6324 290.772C26.419 292.039 30.4457 291.719 34.3124 291.359C40.0324 290.826 45.6991 291.479 51.3791 291.586C54.8458 291.652 58.339 291.559 61.8324 291.946C66.4724 292.452 71.1657 292.613 75.8324 292.546C82.9657 292.439 90.0991 291.666 97.2324 291.826C105.072 291.999 112.859 291.079 120.672 290.799C129.926 290.466 139.192 291.106 148.432 290.519C157.779 289.919 167.126 289.813 176.459 290.079C187.246 290.386 198.032 289.959 208.806 290.332C221.539 290.772 234.286 290.119 247.019 290.666C260.099 291.212 273.179 291.199 286.246 291.119C297.032 291.052 307.819 290.479 318.592 290.346C324.365 290.279 330.139 290.892 335.912 290.812C340.352 290.746 344.725 291.679 349.165 291.452C349.925 291.412 350.699 291.266 351.459 291.172" stroke="#55ADE1" stroke-width="5.33333" stroke-linecap="round" stroke-linejoin="round"/>
</svg>
